<svg width="27" height="28" viewBox="0 0 27 28" fill="none" xmlns="http://www.w3.org/2000/svg">
<path id="Vector" d="M27 2.05328V7.67828C27 7.97665 26.8815 8.2628 26.6705 8.47378C26.4595 8.68476 26.1734 8.80328 25.875 8.80328C25.5766 8.80328 25.2905 8.68476 25.0795 8.47378C24.8685 8.2628 24.75 7.97665 24.75 7.67828V3.17828H20.25C19.9516 3.17828 19.6655 3.05976 19.4545 2.84878C19.2435 2.6378 19.125 2.35165 19.125 2.05328C19.125 1.75492 19.2435 1.46877 19.4545 1.25779C19.6655 1.04681 19.9516 0.928284 20.25 0.928284H25.875C26.1734 0.928284 26.4595 1.04681 26.6705 1.25779C26.8815 1.46877 27 1.75492 27 2.05328ZM6.75 25.6783H2.25V21.1783C2.25 20.8799 2.13147 20.5938 1.92049 20.3828C1.70952 20.1718 1.42337 20.0533 1.125 20.0533C0.826631 20.0533 0.540484 20.1718 0.329505 20.3828C0.118527 20.5938 0 20.8799 0 21.1783V26.8033C0 27.1017 0.118527 27.3878 0.329505 27.5988C0.540484 27.8098 0.826631 27.9283 1.125 27.9283H6.75C7.04837 27.9283 7.33452 27.8098 7.54549 27.5988C7.75647 27.3878 7.875 27.1017 7.875 26.8033C7.875 26.5049 7.75647 26.2188 7.54549 26.0078C7.33452 25.7968 7.04837 25.6783 6.75 25.6783ZM25.875 20.0533C25.5766 20.0533 25.2905 20.1718 25.0795 20.3828C24.8685 20.5938 24.75 20.8799 24.75 21.1783V25.6783H20.25C19.9516 25.6783 19.6655 25.7968 19.4545 26.0078C19.2435 26.2188 19.125 26.5049 19.125 26.8033C19.125 27.1017 19.2435 27.3878 19.4545 27.5988C19.6655 27.8098 19.9516 27.9283 20.25 27.9283H25.875C26.1734 27.9283 26.4595 27.8098 26.6705 27.5988C26.8815 27.3878 27 27.1017 27 26.8033V21.1783C27 20.8799 26.8815 20.5938 26.6705 20.3828C26.4595 20.1718 26.1734 20.0533 25.875 20.0533ZM1.125 8.80328C1.42337 8.80328 1.70952 8.68476 1.92049 8.47378C2.13147 8.2628 2.25 7.97665 2.25 7.67828V3.17828H6.75C7.04837 3.17828 7.33452 3.05976 7.54549 2.84878C7.75647 2.6378 7.875 2.35165 7.875 2.05328C7.875 1.75492 7.75647 1.46877 7.54549 1.25779C7.33452 1.04681 7.04837 0.928284 6.75 0.928284H1.125C0.826631 0.928284 0.540484 1.04681 0.329505 1.25779C0.118527 1.46877 0 1.75492 0 2.05328V7.67828C0 7.97665 0.118527 8.2628 0.329505 8.47378C0.540484 8.68476 0.826631 8.80328 1.125 8.80328ZM21.375 20.0533V8.80328C21.375 8.20655 21.1379 7.63425 20.716 7.21229C20.294 6.79034 19.7217 6.55328 19.125 6.55328H7.875C7.27826 6.55328 6.70597 6.79034 6.28401 7.21229C5.86205 7.63425 5.625 8.20655 5.625 8.80328V20.0533C5.625 20.65 5.86205 21.2223 6.28401 21.6443C6.70597 22.0662 7.27826 22.3033 7.875 22.3033H19.125C19.7217 22.3033 20.294 22.0662 20.716 21.6443C21.1379 21.2223 21.375 20.65 21.375 20.0533Z" fill="#034AFF"/>
</svg>
