<svg width="155" height="177" viewBox="0 0 155 177" fill="none" xmlns="http://www.w3.org/2000/svg">
<path d="M150.183 84.516L125.781 88.2937C124.849 88.438 124.21 89.3106 124.354 90.2427L126.655 105.105C126.8 106.037 127.672 106.676 128.604 106.532L153.006 102.754C153.938 102.61 154.577 101.737 154.433 100.805L152.132 85.9425C151.987 85.0104 151.115 84.3717 150.183 84.516Z" stroke="#263238" stroke-linecap="round" stroke-linejoin="round"/>
<path d="M124.727 92.642L152.504 88.3423" stroke="#263238" stroke-linecap="round" stroke-linejoin="round"/>
<path d="M150.333 93.218L145.845 93.9126L146.846 100.374L151.333 99.679L150.333 93.218Z" stroke="#263238" stroke-linecap="round" stroke-linejoin="round"/>
<path d="M147.667 94.9704C148.615 93.8419 150.172 94.5942 149.807 98.0965L151.195 98.7849L151.331 99.6652L146.847 100.361L146.662 99.1836L148.355 98.5253C148.355 98.5253 146.775 96.035 147.667 94.9704Z" stroke="#263238" stroke-linecap="round" stroke-linejoin="round"/>
<path d="M137.935 102.87C137.935 102.87 141.178 102.897 140.248 102.25C139.319 101.603 139.18 100.948 139.97 100.937C140.76 100.926 142.084 102.442 141.979 101.516C141.874 100.591 142.445 101.193 142.554 101.253C142.664 101.313 143.6 100.937 143.645 101.046C143.691 101.155 143.627 101.46 146.677 100.99" stroke="#263238" stroke-linecap="round" stroke-linejoin="round"/>
<path d="M127.082 95.5273L140.685 93.4207" stroke="#263238" stroke-linecap="round" stroke-linejoin="round"/>
<path d="M127.323 97.0698L135.335 95.8284" stroke="#263238" stroke-linecap="round" stroke-linejoin="round"/>
<path d="M127.744 99.7895L138.92 98.0591" stroke="#263238" stroke-linecap="round" stroke-linejoin="round"/>
<path d="M131.212 89.6176L144.853 87.5034" stroke="#263238" stroke-linecap="round" stroke-linejoin="round"/>
<path d="M1.30591 80.0889L31.8029 73.9985L42.4526 125.129L10.0371 132.081L1.30591 80.0889Z" stroke="#263238" stroke-linecap="round" stroke-linejoin="round"/>
<path d="M8.81067 124.787L41.1622 118.93" stroke="#263238" stroke-linecap="round" stroke-linejoin="round"/>
<path d="M37.329 114.581L21.8793 117.433" stroke="#263238" stroke-linecap="round" stroke-linejoin="round"/>
<path d="M35.038 112.015L30.5238 112.681" stroke="#263238" stroke-linecap="round" stroke-linejoin="round"/>
<path d="M35.7265 106.794L12.6666 111.12" stroke="#263238" stroke-linecap="round" stroke-linejoin="round"/>
<path d="M5.29346 103.841L36.8588 98.2698" stroke="#263238" stroke-linecap="round" stroke-linejoin="round" stroke-dasharray="1 2"/>
<path d="M38.8337 123.474L19.6598 127.491" stroke="#263238" stroke-linecap="round" stroke-linejoin="round"/>
<path d="M38.262 121.856L29.2487 123.474" stroke="#263238" stroke-linecap="round" stroke-linejoin="round"/>
<path d="M33.3867 94.8992L17.5758 98.0328" stroke="#263238" stroke-linecap="round" stroke-linejoin="round"/>
<path d="M32.1376 91.3894L27.1006 92.3788" stroke="#263238" stroke-linecap="round" stroke-linejoin="round"/>
<path d="M31.8405 88.9517L8.81067 93.3906" stroke="#263238" stroke-linecap="round" stroke-linejoin="round"/>
<path d="M29.749 77.0869L23.5308 78.3735" stroke="#263238" stroke-linecap="round" stroke-linejoin="round"/>
<path d="M8.81075 81.5071L3.44641 82.5491" stroke="#263238" stroke-linecap="round" stroke-linejoin="round"/>
<path d="M5.3988 85.5057C5.51067 85.1243 5.70281 84.7713 5.96234 84.4702C6.22186 84.1692 6.54277 83.9271 6.90353 83.7603" stroke="#263238" stroke-linecap="round" stroke-linejoin="round"/>
<path d="M7.78377 88.9518C7.11765 88.8729 6.50192 88.5577 6.04842 88.0635C5.59491 87.5692 5.33371 86.9287 5.31226 86.2583" stroke="#263238" stroke-linecap="round" stroke-linejoin="round"/>
<path d="M9.8753 88.312C9.49343 88.6556 9.0182 88.8782 8.50977 88.9515" stroke="#263238" stroke-linecap="round" stroke-linejoin="round"/>
<path d="M8.04712 83.5046C8.53147 83.5205 9.00346 83.6615 9.41713 83.9139C9.8308 84.1664 10.1721 84.5216 10.4077 84.9451C10.6433 85.3686 10.7652 85.8458 10.7616 86.3304C10.7579 86.815 10.6289 87.2904 10.387 87.7103" stroke="#263238" stroke-linecap="round" stroke-linejoin="round"/>
<path d="M13.5318 84.2117C13.0315 84.0537 12.5349 83.8731 12.0271 83.7603" stroke="#263238" stroke-linecap="round" stroke-linejoin="round"/>
<path d="M17.7977 84.573C17.3726 85.5849 14.9952 84.6633 14.303 84.4526" stroke="#263238" stroke-linecap="round" stroke-linejoin="round"/>
<path d="M13.7274 81.887L18.1739 82.9327C18.1024 83.2299 18.046 83.5309 17.9895 83.8281" stroke="#263238" stroke-linecap="round" stroke-linejoin="round"/>
<path d="M11.5267 82.9328C12.0007 81.8042 11.8126 81.4281 12.9938 81.7027" stroke="#263238" stroke-linecap="round" stroke-linejoin="round"/>
<path d="M65.7833 162.785L71.6706 164.59L67.2956 159.437C69.6939 156.77 71.0671 153.339 71.1702 149.754" stroke="#263238" stroke-linecap="round" stroke-linejoin="round"/>
<path d="M58.6396 165.057C60.6129 164.427 62.4751 163.492 64.1582 162.284" stroke="#263238" stroke-linecap="round" stroke-linejoin="round"/>
<path d="M35.9221 154.11C37.6563 162.465 46.8878 167.611 56.5444 165.61" stroke="#263238" stroke-linecap="round" stroke-linejoin="round"/>
<path d="M37.329 144.69C36.9584 145.394 36.6439 146.126 36.3885 146.88" stroke="#263238" stroke-linecap="round" stroke-linejoin="round"/>
<path d="M70.8882 146.857C69.1578 138.502 59.9225 133.356 50.2697 135.361C45.8864 136.222 41.9361 138.573 39.0896 142.016" stroke="#263238" stroke-linecap="round" stroke-linejoin="round"/>
<path d="M60.6447 143.795C57.8647 140.767 54.0766 142.866 52.5004 145.939C49.8972 143.682 45.5975 143.129 44.1454 146.978C41.6927 153.459 50.0816 157.413 53.9638 158.842C54.4039 159.008 54.765 159.147 55.066 159.249C55.3105 159.042 55.5964 158.778 55.9425 158.462C59.0121 155.69 65.3319 148.904 60.6447 143.795Z" stroke="#263238" stroke-linecap="round" stroke-linejoin="round"/>
<path d="M83.7611 20.4868L78.077 18.1206L81.9328 23.673C79.2974 26.0957 77.6071 29.375 77.1628 32.9271" stroke="#263238" stroke-linecap="round" stroke-linejoin="round"/>
<path d="M91.0814 18.9033C89.0576 19.3421 87.1145 20.0934 85.322 21.1303" stroke="#263238" stroke-linecap="round" stroke-linejoin="round"/>
<path d="M112.648 31.9868C111.726 23.4964 103.033 17.4775 93.2294 18.5572" stroke="#263238" stroke-linecap="round" stroke-linejoin="round"/>
<path d="M110.342 41.2257C110.772 40.5602 111.149 39.8622 111.47 39.1379" stroke="#263238" stroke-linecap="round" stroke-linejoin="round"/>
<path d="M77.1627 35.8389C78.0844 44.3217 86.7779 50.3331 96.5812 49.2685C101.026 48.8318 105.183 46.8715 108.348 43.7199" stroke="#263238" stroke-linecap="round" stroke-linejoin="round"/>
<path d="M99.0282 41.0301C103.375 38.7034 105.012 33.2937 102.685 28.9471C100.359 24.6005 94.949 22.9631 90.6024 25.2898C86.2559 27.6165 84.6185 33.0263 86.9452 37.3728C89.2719 41.7194 94.6816 43.3568 99.0282 41.0301Z" stroke="#263238" stroke-linecap="round" stroke-linejoin="round"/>
<path d="M91.4237 34.2891L94.0946 36.8095L98.5486 29.1392" stroke="#263238" stroke-linecap="round" stroke-linejoin="round"/>
<path opacity="0.2" d="M105.974 118.185C105.974 118.185 104.635 134.391 106.573 138.322C108.51 142.253 109.481 169.112 108.612 172.49C108.612 172.49 114.849 174.063 117.316 171.828C119.784 169.594 123.58 171.745 129.832 169.571C136.084 167.397 131.574 119.137 131.574 119.137L131.765 101.58L121.454 92.3938L105.974 118.185Z" fill="black" fill-opacity="0.7"/>
<path d="M114.288 125.979C114.249 126.095 114.186 126.201 114.104 126.291C112.772 127.552 107.088 128.951 102.205 129.959C98.1612 130.798 94.6815 131.366 94.6815 131.366C94.6815 131.366 92.0031 109.108 92.0031 106.768C92.0031 104.428 87.6846 66.5464 87.6846 66.5464L98.0371 66.0988L111.771 65.5044C111.771 65.5044 111.854 66.5163 111.993 68.2844C112.9 79.5472 116.015 121.537 114.288 125.979Z" fill="#399A19"/>
<mask id="mask0_5492_8692" style="mask-type:luminance" maskUnits="userSpaceOnUse" x="87" y="65" width="28" height="67">
<path d="M114.288 125.979C114.249 126.095 114.186 126.201 114.104 126.291C112.772 127.552 107.088 128.951 102.205 129.959C98.1612 130.798 94.6815 131.366 94.6815 131.366C94.6815 131.366 92.0031 109.108 92.0031 106.768C92.0031 104.428 87.6846 66.5464 87.6846 66.5464L98.0371 66.0988L111.771 65.5044C111.771 65.5044 111.854 66.5163 111.993 68.2844C112.9 79.5472 116.015 121.537 114.288 125.979Z" fill="white"/>
</mask>
<g mask="url(#mask0_5492_8692)">
<path opacity="0.2" d="M114.288 125.979L102.205 128.451L97.6421 129.387C96.4045 128.172 95.4603 128.15 95.4603 128.15L95.0841 124.745L94.4935 119.174L89.2947 70.1576C90.4232 69.3789 90.98 67.6748 90.98 67.6748L97.9393 67.4228L109.996 66.9827L111.986 68.2692C112.9 79.5471 116.015 121.536 114.288 125.979Z" fill="black" fill-opacity="0.7"/>
<path d="M114.288 125.979L102.205 128.451L97.6421 129.387C96.4045 128.172 95.4603 128.15 95.4603 128.15L95.0841 124.745L94.4935 119.174L89.2947 70.1576C90.4232 69.3789 90.98 67.6748 90.98 67.6748L97.9393 67.4228L109.996 66.9827L111.986 68.2692C112.9 79.5471 116.015 121.536 114.288 125.979Z" stroke="#263238" stroke-linecap="round" stroke-linejoin="round"/>
<path d="M96.0997 111.549L100.132 111.542L100.136 112.802L99.0151 113.2L96.4308 113.483L96.0997 111.549Z" fill="#399A19" stroke="#263238" stroke-linecap="round" stroke-linejoin="round"/>
<path d="M96.348 114.145L99.3123 114.043L100.072 114.404L100.035 116.078L96.5737 116.116L96.348 114.145Z" fill="#399A19" stroke="#263238" stroke-linecap="round" stroke-linejoin="round"/>
<path d="M96.822 116.819L100.208 116.575L100.17 117.842L98.5337 118.422L96.8032 118.324L96.822 116.819Z" fill="#399A19" stroke="#263238" stroke-linecap="round" stroke-linejoin="round"/>
<path d="M97.0252 118.956L99.76 119.095L100.008 119.795L99.6096 120.566L97.1644 120.724L96.743 119.531L97.0252 118.956Z" fill="#399A19" stroke="#263238" stroke-linecap="round" stroke-linejoin="round"/>
<path d="M100.178 121.405L100.554 122.499C100.614 122.616 100.645 122.745 100.645 122.876C100.645 123.007 100.614 123.136 100.554 123.252C100.484 123.332 100.394 123.392 100.294 123.428C100.194 123.464 100.087 123.473 99.9819 123.455C99.7712 123.436 99.5643 123.365 99.3537 123.353C98.7179 123.327 98.1349 123.85 97.5104 123.73C97.2659 123.052 96.6489 122.059 97.4841 121.755C97.6383 121.706 100.268 121.653 100.178 121.405Z" fill="#399A19" stroke="#263238" stroke-linecap="round" stroke-linejoin="round"/>
<path d="M100.166 124.486C100.226 124.746 100.269 125.01 100.294 125.276C100.332 125.444 100.327 125.619 100.278 125.784C100.229 125.95 100.139 126.1 100.016 126.22C99.8554 126.308 99.6759 126.356 99.4929 126.359L97.3186 126.555C97.2869 126.144 97.2806 125.732 97.2998 125.321C97.4277 124.832 97.3374 124.873 97.8001 124.674C98.5337 124.362 99.4139 124.858 100.166 124.486Z" fill="#399A19" stroke="#263238" stroke-linecap="round" stroke-linejoin="round"/>
<path d="M92.2589 71.2712C92.2589 71.2712 93.079 79.1974 93.1166 80.7661" stroke="#263238" stroke-linecap="round" stroke-linejoin="round"/>
<path d="M94.027 71.3577L94.4107 75.7251" stroke="#263238" stroke-linecap="round" stroke-linejoin="round"/>
<path d="M100.155 69.7061L100.652 74.8259L101.348 74.8936L101.122 69.755L100.155 69.7061Z" fill="#399A19" stroke="#263238" stroke-linecap="round" stroke-linejoin="round"/>
<path opacity="0.2" d="M114.288 125.979C114.249 126.095 114.186 126.201 114.104 126.291C112.772 127.552 107.088 128.951 102.205 129.959V126.574L95.0991 124.753L94.027 124.478L94.5085 119.182L96.348 98.9431L97.9543 67.438L98.022 66.0988L111.771 65.5044C111.771 65.5044 111.854 66.5163 111.993 68.2844C112.9 79.5472 116.015 121.537 114.288 125.979Z" fill="black" fill-opacity="0.7"/>
</g>
<path d="M114.288 125.979C114.249 126.095 114.186 126.201 114.104 126.291C112.772 127.552 107.088 128.951 102.205 129.959C98.1612 130.798 94.6815 131.366 94.6815 131.366C94.6815 131.366 92.0031 109.108 92.0031 106.768C92.0031 104.428 87.6846 66.5464 87.6846 66.5464L98.0371 66.0988L111.771 65.5044C111.771 65.5044 111.854 66.5163 111.993 68.2844C112.9 79.5472 116.015 121.537 114.288 125.979Z" stroke="#263238" stroke-linecap="round" stroke-linejoin="round"/>
<path d="M121.575 176.489C121.661 175.695 120.412 164.308 120.39 163.071C120.33 159.685 119.37 155.242 119.37 155.242C118.031 151.819 116.989 143.93 113.415 138.871C109.842 133.811 109.845 127.86 109.251 122.808C108.657 117.756 108.803 118.192 108.954 113.708C109.062 110.34 108.913 106.968 108.506 103.623C108.209 100.643 107.615 95.4031 108.506 92.9617C109.398 90.5202 111.73 89.9522 114.284 92.3974C116.839 94.8426 117.881 104.868 117.881 106.105C117.881 107.343 117.881 111.21 118.776 112.7C118.776 112.7 123.836 110.112 123.836 109.397C123.836 108.682 123.685 102.366 124.43 102.028L121.454 92.3974L127.097 90.3923C128.159 91.345 129.077 92.4475 129.821 93.6651C130.458 94.6732 130.991 95.7433 131.412 96.8589C133.793 103.175 137.619 107.58 138.409 109.397C139.199 111.214 138.409 125.644 138.409 128.326C138.409 131.009 136.678 143.374 136.724 145.454C136.757 146.959 137.773 152.556 138.785 156.848C139.161 158.504 141.445 170.496 141.795 171.448L121.575 176.489Z" fill="white"/>
<path opacity="0.4" d="M126.029 101.392C125.991 102.201 126.958 108.648 126.958 108.648C127.628 110.255 123.971 115.732 123.971 115.732C123.181 116.176 122.843 118.929 122.843 118.929C120.367 118.38 114.698 112.681 114.698 112.681C114.698 112.681 114.029 115.017 113.276 120.799C112.524 126.581 117.294 140.315 119.325 149.799C121.357 159.282 120.39 163.059 120.39 163.059C120.33 159.674 119.37 155.231 119.37 155.231C118.031 151.808 116.989 143.919 113.415 138.86C109.842 133.8 109.845 127.86 109.251 122.808C108.657 117.756 108.803 118.192 108.954 113.708C109.062 110.34 108.913 106.968 108.506 103.623C108.209 100.643 107.615 95.4031 108.506 92.9617C109.398 90.5202 111.73 89.9522 114.284 92.3974C116.839 94.8426 117.881 104.868 117.881 106.105C117.881 107.343 117.881 111.21 118.776 112.7C118.776 112.7 123.836 110.112 123.836 109.397C123.836 108.682 123.685 102.366 124.43 102.028L121.454 92.3974L127.097 90.3923C128.159 91.345 129.077 92.4475 129.821 93.6651C127.996 97.3141 126.066 100.888 126.029 101.392Z" fill="#399A19"/>
<path opacity="0.4" d="M135.516 146.451C135.764 144.194 136.505 138.829 136.976 135.481C136.4 138.096 135.471 139.42 135.471 139.42C135.471 139.42 137.073 120.235 137.231 119.065C137.389 117.895 139.007 112.636 138.413 109.378C139.203 111.191 138.413 125.625 138.413 128.308C138.413 130.99 136.682 143.355 136.727 145.435C136.761 146.94 138.375 156.529 139.387 160.821C137.213 157.661 135.268 148.719 135.516 146.451Z" fill="#399A19"/>
<path d="M141.787 171.429C140.598 168.006 136.78 147.504 136.735 145.435C136.69 143.366 138.42 130.986 138.42 128.308C138.42 125.629 139.21 111.191 138.42 109.378C137.63 107.565 133.804 103.156 131.423 96.8401C130.523 94.3703 129.043 92.1527 127.108 90.3735L121.466 92.3786L124.441 102.009C123.689 102.347 123.847 108.663 123.847 109.378C123.847 110.093 118.787 112.681 118.787 112.681C117.892 111.176 117.892 107.324 117.892 106.087C117.892 104.849 116.85 94.82 114.296 92.3786C111.741 89.9372 109.405 90.4977 108.517 92.9428C107.63 95.388 108.22 100.624 108.517 103.604C108.925 106.953 109.074 110.328 108.965 113.701C108.815 118.185 108.664 117.741 109.262 122.8C109.86 127.86 109.857 133.811 113.427 138.871C116.997 143.93 118.042 151.819 119.382 155.242C119.382 155.242 121.909 173.513 121.586 176.489" stroke="#263238" stroke-linecap="round" stroke-linejoin="round"/>
<path d="M118.776 112.681C118.776 112.681 119.668 116.845 121.676 118.93" stroke="#263238" stroke-linecap="round" stroke-linejoin="round"/>
<path d="M119.318 114.581C119.318 114.581 123.079 115.732 124.652 115.804" stroke="#263238" stroke-linecap="round" stroke-linejoin="round"/>
<path d="M123.836 109.378C123.836 109.378 126.514 108.141 128.226 108.885" stroke="#263238" stroke-linecap="round" stroke-linejoin="round"/>
<path d="M124.43 102.009C124.43 102.009 126.514 101.817 126.958 100.775" stroke="#263238" stroke-linecap="round" stroke-linejoin="round"/>
<path d="M114.104 139.932C114.104 139.932 118.106 144.901 119.295 147.429" stroke="#263238" stroke-linecap="round" stroke-linejoin="round"/>
<path d="M137.378 118.185C136.708 122.131 135.813 132.92 135.516 134.853" stroke="#263238" stroke-linecap="round" stroke-linejoin="round"/>
<path d="M138.657 110.744C138.77 114.318 137.905 116.176 137.905 116.176" stroke="#263238" stroke-linecap="round" stroke-linejoin="round"/>
<path d="M107.889 60.738L135.471 68.0134C135.471 68.0134 125.777 97.4345 123.809 101.083L120.521 126.731C120.521 126.731 102.901 125.957 94.7981 123.508C94.7981 123.508 99.9217 96.7988 100.196 93.2363C100.471 89.6739 107.889 60.738 107.889 60.738Z" fill="#399A19"/>
<mask id="mask1_5492_8692" style="mask-type:luminance" maskUnits="userSpaceOnUse" x="94" y="60" width="42" height="67">
<path d="M107.889 60.738L135.471 68.0134C135.471 68.0134 125.777 97.4345 123.809 101.083L120.521 126.731C120.521 126.731 102.901 125.957 94.7981 123.508C94.7981 123.508 99.9217 96.7988 100.196 93.2363C100.471 89.6739 107.889 60.738 107.889 60.738Z" fill="white"/>
</mask>
<g mask="url(#mask1_5492_8692)">
<path opacity="0.2" d="M101.957 91.6565L108.036 65.6661C108.036 65.6661 110.65 64.3683 111.662 63.1833L131.423 68.8035C131.423 68.8035 131.483 70.7408 132.616 71.9822L122.643 100.719L120.224 121.901C120.224 121.901 117.008 122.157 116.699 124.535C116.699 124.535 106.272 125.099 99.2785 123.256C99.2785 123.256 98.4547 120.686 97.1945 119.061L101.957 91.6565Z" fill="black" fill-opacity="0.7"/>
<path d="M101.957 91.6565L108.036 65.6661C108.036 65.6661 110.65 64.3683 111.662 63.1833L131.423 68.8035C131.423 68.8035 131.483 70.7408 132.616 71.9822L122.643 100.719L120.224 121.901C120.224 121.901 117.008 122.157 116.699 124.535C116.699 124.535 106.272 125.099 99.2785 123.256C99.2785 123.256 98.4547 120.686 97.1945 119.061L101.957 91.6565Z" stroke="#263238" stroke-linecap="round" stroke-linejoin="round"/>
<path d="M107.017 93.0071C107.017 93.0071 108.811 86.2358 115.131 87.4509C121.451 88.6659 117.881 97.0096 117.881 97.0096C117.881 97.0096 117.918 103.743 112.791 102.814C108.345 102.009 105.975 99.5677 107.017 93.0071Z" fill="#399A19" stroke="#263238" stroke-linecap="round" stroke-linejoin="round"/>
<path d="M110.44 68.1377C110.44 68.1377 108.529 75.8757 108.036 77.3654" stroke="#263238" stroke-linecap="round" stroke-linejoin="round"/>
<path d="M112.076 68.8071L110.963 73.0505" stroke="#263238" stroke-linecap="round" stroke-linejoin="round"/>
<path d="M126.029 71.7827L129.832 73.1219L129.414 74.3144H128.226L125.694 73.72L126.029 71.7827Z" fill="#399A19" stroke="#263238" stroke-linecap="round" stroke-linejoin="round"/>
<path d="M125.397 74.3145L128.226 75.206L128.82 75.8004L128.226 77.3653L124.949 76.248L125.397 74.3145Z" fill="#399A19" stroke="#263238" stroke-linecap="round" stroke-linejoin="round"/>
<path d="M124.949 76.9929L128.226 77.8958L127.763 79.077H126.029L124.43 78.4074L124.949 76.9929Z" fill="#399A19" stroke="#263238" stroke-linecap="round" stroke-linejoin="round"/>
<path d="M124.43 79.0769L126.958 80.1189V80.86L126.326 81.4581L123.971 80.7885V79.5208L124.43 79.0769Z" fill="#399A19" stroke="#263238" stroke-linecap="round" stroke-linejoin="round"/>
<path d="M126.586 82.4362V83.5948C126.605 83.7224 126.595 83.8528 126.555 83.9756C126.515 84.0984 126.447 84.2102 126.356 84.302C126.263 84.353 126.158 84.3798 126.051 84.3798C125.945 84.3798 125.84 84.353 125.747 84.302C125.555 84.2117 125.371 84.0763 125.19 83.9973C124.599 83.7603 123.873 84.0575 123.309 83.7415C123.309 83.023 123.057 81.8832 123.945 81.8606C124.092 81.8719 126.586 82.6995 126.586 82.4362Z" fill="#399A19" stroke="#263238" stroke-linecap="round" stroke-linejoin="round"/>
<path d="M125.544 85.3366C125.515 85.6018 125.467 85.8646 125.401 86.1228C125.318 86.4576 125.156 86.83 124.821 86.9203C124.641 86.9503 124.456 86.9347 124.283 86.8752L122.169 86.3184C122.271 85.9226 122.397 85.5332 122.545 85.1523C122.831 84.7347 122.733 84.7422 123.234 84.7084C124.046 84.6745 124.708 85.4382 125.544 85.3366Z" fill="#399A19" stroke="#263238" stroke-linecap="round" stroke-linejoin="round"/>
<path d="M118.404 69.3301L117.136 74.3145L117.768 74.6117L119.295 69.6987L118.404 69.3301Z" fill="#399A19" stroke="#263238" stroke-linecap="round" stroke-linejoin="round"/>
<path d="M102.518 102.803L106.422 103.815L106.106 105.033L104.921 105.139L102.348 104.759L102.518 102.803Z" fill="#399A19" stroke="#263238" stroke-linecap="round" stroke-linejoin="round"/>
<path d="M102.104 105.379L104.997 106.026L105.644 106.568L105.185 108.178L101.825 107.343L102.104 105.379Z" fill="#399A19" stroke="#263238" stroke-linecap="round" stroke-linejoin="round"/>
<path d="M101.889 108.088L105.23 108.705L104.869 109.92L103.142 110.07L101.49 109.54L101.889 108.088Z" fill="#399A19" stroke="#263238" stroke-linecap="round" stroke-linejoin="round"/>
<path d="M101.547 110.206L104.158 111.03L104.222 111.771L103.642 112.418L101.238 111.951L101.129 110.691L101.547 110.206Z" fill="#399A19" stroke="#263238" stroke-linecap="round" stroke-linejoin="round"/>
<path d="M103.981 113.37L104.082 114.524C104.113 114.65 104.114 114.782 104.085 114.908C104.055 115.034 103.996 115.151 103.913 115.25C103.825 115.309 103.723 115.344 103.617 115.353C103.511 115.362 103.404 115.343 103.307 115.299C103.108 115.228 102.931 115.107 102.724 115.047C102.119 114.859 101.419 115.217 100.843 114.949C100.776 114.235 100.433 113.121 101.314 113.035C101.449 113.027 104.003 113.633 103.981 113.37Z" fill="#399A19" stroke="#263238" stroke-linecap="round" stroke-linejoin="round"/>
<path d="M103.195 116.349C103.189 116.623 103.164 116.895 103.119 117.165C103.063 117.504 102.935 117.891 102.612 118.008C102.434 118.053 102.248 118.053 102.07 118.008L99.9181 117.632C99.9905 117.228 100.087 116.828 100.208 116.436C100.456 115.995 100.358 116.01 100.855 115.935C101.645 115.819 102.367 116.522 103.195 116.349Z" fill="#399A19" stroke="#263238" stroke-linecap="round" stroke-linejoin="round"/>
<path d="M118.776 120.002C118.776 120.002 119.671 110.018 119.671 109.013" stroke="#263238" stroke-linecap="round" stroke-linejoin="round"/>
<path d="M116.989 119.554C116.989 119.554 117.365 114.363 117.433 113.46" stroke="#263238" stroke-linecap="round" stroke-linejoin="round"/>
<path d="M110.011 115.803L108.803 121.713H110.011L110.888 115.803H110.011Z" fill="#399A19" stroke="#263238" stroke-linecap="round" stroke-linejoin="round"/>
<path opacity="0.2" d="M123.873 100.937C121.263 100.391 118.934 99.5899 117.211 98.435C117.211 98.435 118.46 102.024 122.888 108.141L120.507 126.731C120.507 126.731 109.007 126.227 100.317 124.741C102.988 117.218 107.841 102.96 107.265 100.135C106.486 96.257 109.236 91.6788 109.236 91.6788C117.93 90.1139 126.36 83.542 132.146 77.9858C129.2 86.6944 125.179 98.356 123.873 100.937Z" fill="black" fill-opacity="0.7"/>
</g>
<path d="M107.889 60.738L135.471 68.0134C135.471 68.0134 125.777 97.4345 123.809 101.083L120.521 126.731C120.521 126.731 102.901 125.957 94.7981 123.508C94.7981 123.508 99.9217 96.7988 100.196 93.2363C100.471 89.6739 107.889 60.738 107.889 60.738Z" stroke="#263238" stroke-linecap="round" stroke-linejoin="round"/>
<path d="M123.181 119.306L119.295 147.429C118.43 145.589 116.071 142.452 114.852 140.883C114.401 140.297 114.1 139.932 114.1 139.932L113.412 138.871C109.842 133.811 109.842 127.86 109.247 122.8C108.653 117.741 108.8 118.185 108.95 113.701C109.06 110.335 108.911 106.966 108.506 103.623C108.209 100.643 107.615 95.4031 108.506 92.9617C108.943 91.7654 109.729 91.0206 110.714 90.8626C111.7 90.7046 112.972 91.156 114.284 92.3974C116.839 94.8388 117.881 104.868 117.881 106.105C117.881 107.343 117.881 111.21 118.776 112.7C118.776 112.681 121.176 117.222 123.181 119.306Z" fill="white"/>
<path opacity="0.4" d="M113.118 136.866C113.931 137.904 114.484 139.401 114.852 140.883C114.401 140.296 114.1 139.932 114.1 139.932L113.412 138.871C109.842 133.811 109.842 127.86 109.247 122.8C108.653 117.741 108.8 118.185 108.95 113.701C109.06 110.335 108.911 106.966 108.506 103.623C108.209 100.643 107.615 95.4031 108.506 92.9616C108.943 91.7654 109.729 91.0205 110.714 90.8625C112.595 91.3967 114.476 93.3115 115.131 96.588C116.259 102.088 111.17 97.6451 109.992 102.306C108.815 106.967 110.526 108.223 111.23 109.397C111.933 110.571 111.034 113.159 109.992 116.635C108.95 120.111 110.887 134.011 113.118 136.866Z" fill="#399A19"/>
<path d="M123.181 119.306C121.172 117.222 118.776 112.681 118.776 112.681C117.881 111.176 117.881 107.324 117.881 106.087C117.881 104.849 116.839 94.82 114.284 92.3786C111.73 89.9372 109.394 90.4977 108.506 92.9429C107.618 95.388 108.209 100.624 108.506 103.604C108.913 106.953 109.063 110.328 108.954 113.701C108.803 118.185 108.653 117.741 109.251 122.8C109.849 127.86 109.845 133.811 113.415 138.871L114.104 139.932C114.104 139.932 118.106 144.901 119.295 147.429" stroke="#263238" stroke-linecap="round" stroke-linejoin="round"/>
<path d="M110.011 107.403C110.011 107.403 113.423 105.639 115.131 105.789" stroke="#263238" stroke-linecap="round" stroke-linejoin="round"/>
<path opacity="0.2" d="M57.9062 59.162C57.9062 59.162 49.2766 49.6596 48.6822 49.0766C48.0879 48.4935 47.6402 38.3592 46.0001 33.8977C44.3599 29.4362 43.5662 3.23891 43.5662 3.23891C43.5662 3.23891 42.005 1.30534 37.6037 2.34736C33.2024 3.38938 28.8876 1.45205 23.9784 4.28093C19.0693 7.10981 28.5904 47.5718 28.5904 47.5718L38.2545 78.3698L57.9062 59.162Z" fill="black" fill-opacity="0.7"/>
<path d="M63.8348 59.2335C63.8348 59.2335 59.9676 83.9373 55.935 87.2101C53.6064 89.091 49.9763 89.9562 46.7562 89.8433C44.4238 89.7606 42.3022 89.1737 41.0533 88.1091C38.0777 85.5774 33.9058 84.2382 31.8293 82.6018C29.7528 80.9655 29.7453 75.161 28.4061 70.2481C27.0668 65.3351 25.1295 65.1884 24.6856 60.2793C24.2417 55.3701 22.4511 40.3417 19.216 36.1698C15.9808 31.998 15.9056 28.7289 14.5664 24.4856C13.2271 20.2423 3.4314 4.89035 3.4314 4.89035L27.3114 0C27.3114 0 29.6587 9.71676 32.1716 17.6429C33.3641 21.4047 34.5942 24.7678 35.625 26.4907C37.6042 29.8232 39.3185 33.3061 40.7523 36.9071C43.4533 39.736 44.9317 46.0032 45.3793 51.4917L51.7744 55.0579C56.6911 56.4008 63.8348 59.2335 63.8348 59.2335Z" fill="white"/>
<path opacity="0.4" d="M63.8348 59.2334C63.8348 59.2334 59.9677 83.9373 55.935 87.21C53.6065 89.0909 49.9763 89.9561 46.7562 89.8433C39.1197 87.9624 37.0658 83.704 36.0313 82.6733C34.6545 81.3002 32.845 72.934 33.8382 68.0662C34.8313 63.1984 34.1165 61.3965 33.2965 59.019C31.4795 53.7525 37.0206 50.9161 37.5924 48.9223C38.1642 46.9286 37.9686 35.7786 35.4745 32.1522C34.1504 30.2224 30.7384 20.2761 32.1754 17.6504C33.3679 21.4122 34.598 24.7753 35.6288 26.4982C37.608 29.8307 39.3223 33.3136 40.7561 36.9146C43.4571 39.7435 44.9355 46.0107 45.3831 51.4992L51.7782 55.0654C56.6911 56.4008 63.8348 59.2334 63.8348 59.2334Z" fill="#399A19"/>
<path d="M34.6733 57.4954C34.6733 57.4954 33.3265 59.0791 32.1378 59.0791" stroke="#263238" stroke-linecap="round" stroke-linejoin="round"/>
<path d="M37.6037 62.8484C37.6037 62.8484 36.1554 65.9255 33.8419 66.6102" stroke="#263238" stroke-linecap="round" stroke-linejoin="round"/>
<path d="M35.0306 80.8826C35.0306 80.8826 38.3072 79.4681 38.8263 77.0869" stroke="#263238" stroke-linecap="round" stroke-linejoin="round"/>
<path d="M51.7819 55.0615C51.7819 55.0615 50.9618 56.1035 50.9618 56.9424" stroke="#263238" stroke-linecap="round" stroke-linejoin="round"/>
<path d="M27.3264 0C27.3264 0 32.435 21.1301 35.64 26.5057C37.6192 29.8383 39.3336 33.3211 40.7674 36.9222C43.4683 39.7511 44.9467 46.022 45.3944 51.5105L51.7895 55.0767C56.6986 56.4159 63.8273 59.2448 63.8273 59.2448C63.8273 59.2448 59.9601 83.9486 55.9275 87.2213C51.8948 90.4941 44.0589 90.6295 41.0495 88.1016C38.04 85.5737 33.9021 84.2307 31.8255 82.5943C29.749 80.9579 29.7415 75.1534 28.4023 70.2405C27.0631 65.3276 25.1258 65.1809 24.6819 60.2717C24.238 55.3626 22.4473 40.3341 19.2122 36.1623C15.977 31.9904 15.9018 28.7214 14.5626 24.4781C13.2234 20.2348 3.4314 4.89035 3.4314 4.89035" stroke="#263238" stroke-linecap="round" stroke-linejoin="round"/>
<path d="M72.882 57.6309L33.3867 118.425L42.7085 119.464L71.0312 120.641L73.9315 66.5652L72.882 57.6309Z" fill="#263238" stroke="#263238" stroke-linecap="round" stroke-linejoin="round"/>
<path d="M72.882 57.6272L69.233 119.603L33.3867 118.426L36.2156 70.9365L37.0959 56.1902L52.7149 56.8184L72.882 57.6272Z" fill="#757575"/>
<mask id="mask2_5492_8692" style="mask-type:luminance" maskUnits="userSpaceOnUse" x="33" y="56" width="40" height="64">
<path d="M72.882 57.6272L69.233 119.603L33.3867 118.426L36.2156 70.9365L37.0959 56.1902L52.7149 56.8184L72.882 57.6272Z" fill="white"/>
</mask>
<g mask="url(#mask2_5492_8692)">
<path d="M63.8687 112.467C66.2787 112.467 68.2324 110.513 68.2324 108.103C68.2324 105.693 66.2787 103.74 63.8687 103.74C61.4587 103.74 59.505 105.693 59.505 108.103C59.505 110.513 61.4587 112.467 63.8687 112.467Z" fill="#BFBFBF" stroke="#263238" stroke-miterlimit="10"/>
<path d="M62.6385 105.207L65.5953 105.594" stroke="#263238" stroke-linecap="round" stroke-linejoin="round"/>
<path d="M61.8448 105.925L66.2875 106.358" stroke="#263238" stroke-linecap="round" stroke-linejoin="round"/>
<path d="M61.3522 110.304L65.7986 110.737" stroke="#263238" stroke-linecap="round" stroke-linejoin="round"/>
<path d="M63.2969 106.915C63.419 106.945 63.5482 106.927 63.6575 106.865C63.7668 106.803 63.8478 106.7 63.8838 106.58L64.2148 106.614L63.88 109.755L63.3872 109.702L63.643 107.306L63.2668 107.264L63.2969 106.915Z" fill="#263238"/>
<path d="M64.9409 107.046C65.1365 107.046 65.2268 107.193 65.2042 107.4V107.438L65.0123 107.419V107.385C65.0123 107.295 64.9898 107.253 64.9258 107.246C64.8619 107.238 64.8205 107.272 64.813 107.362C64.8054 107.453 64.8355 107.532 64.9559 107.66C65.017 107.711 65.0649 107.777 65.0957 107.851C65.1264 107.925 65.1391 108.005 65.1327 108.085C65.1102 108.292 64.9973 108.397 64.7979 108.374C64.5985 108.352 64.512 108.224 64.5308 108.021V107.942L64.7189 107.96V108.055C64.7189 108.145 64.7453 108.182 64.8092 108.19C64.8732 108.197 64.9183 108.167 64.9258 108.077C64.9333 107.987 64.9033 107.908 64.7829 107.78C64.7218 107.728 64.6739 107.663 64.6431 107.589C64.6124 107.515 64.5997 107.435 64.6061 107.355C64.6324 107.129 64.749 107.009 64.9409 107.046Z" fill="#263238"/>
<path d="M65.2944 107.099L65.9189 107.163L65.8963 107.347L65.6857 107.325L65.5691 108.423L65.3697 108.404L65.4863 107.302L65.2756 107.279L65.2944 107.099Z" fill="#263238"/>
<path d="M54.7193 60.3787L47.7215 58.8517C47.5409 58.8122 47.3625 58.9267 47.323 59.1074L46.371 63.47C46.3316 63.6506 46.4461 63.829 46.6268 63.8685L53.6246 65.3955C53.8052 65.4349 53.9836 65.3204 54.023 65.1398L54.975 60.7772C55.0145 60.5965 54.9 60.4181 54.7193 60.3787Z" fill="white" stroke="#263238" stroke-linecap="round" stroke-linejoin="round"/>
<path d="M48.9494 63.1535L48.9231 63.1272C48.9231 63.1272 48.9231 63.0821 48.9043 63.0633C48.8864 63.0464 48.8723 63.0259 48.8629 63.0031C48.8613 62.9956 48.8613 62.9879 48.8629 62.9805C48.8629 62.9805 48.8817 62.9805 48.893 62.9542C48.9023 62.9485 48.9102 62.9409 48.916 62.9317C48.9219 62.9226 48.9256 62.9123 48.9269 62.9015C48.9254 62.8953 48.9254 62.8889 48.9269 62.8827H48.9494C48.9494 62.8112 48.9043 62.7586 48.8592 62.7021C48.7501 62.5667 48.7275 62.499 48.7501 62.4087C48.7726 62.3184 48.8103 62.2921 48.8742 62.3034C48.9382 62.3147 48.9645 62.3598 48.9457 62.4501V62.5028L49.1338 62.5441V62.5028C49.1592 62.4362 49.1581 62.3625 49.1309 62.2967C49.1036 62.2309 49.0521 62.1781 48.9871 62.1491L49.0096 62.0589L48.8479 62.0212L48.8291 62.1153C48.6824 62.1153 48.5883 62.2093 48.5507 62.3786C48.5363 62.4543 48.5416 62.5324 48.5659 62.6055C48.5903 62.6786 48.633 62.7442 48.6899 62.7962C48.799 62.9278 48.8215 63.0031 48.799 63.0896C48.7764 63.1761 48.735 63.2062 48.6711 63.1912C48.6071 63.1761 48.577 63.1347 48.5958 63.0482L48.6184 62.9466L48.4303 62.9053V62.9918C48.4148 63.0261 48.4063 63.0631 48.4053 63.1007C48.4042 63.1383 48.4108 63.1757 48.4244 63.2108C48.4381 63.2458 48.4586 63.2778 48.4849 63.3048C48.5111 63.3318 48.5424 63.3533 48.577 63.368V63.4582L48.7388 63.4959L48.7576 63.4018H48.8554C48.885 63.3915 48.912 63.3748 48.9344 63.3529C48.9574 63.3298 48.9764 63.3031 48.9908 63.2739C48.9494 63.1761 48.9494 63.1648 48.9494 63.1535Z" fill="#263238"/>
<path d="M49.9839 63.0933C49.9822 63.0633 49.9746 63.0339 49.9613 63.0068C49.9577 62.992 49.9577 62.9765 49.9613 62.9617C49.9671 62.9503 49.9763 62.9411 49.9877 62.9353C50.0892 62.8451 49.9651 62.7247 49.8673 62.7021C49.8335 62.6937 49.7981 62.6941 49.7645 62.7033C49.7309 62.7126 49.7002 62.7303 49.6754 62.7548L49.7544 62.4613L50.1005 62.5366L50.1382 62.356L49.619 62.2432C49.6081 62.2684 49.6005 62.295 49.5965 62.3222C49.5965 62.3485 49.6303 62.356 49.6303 62.3861C49.6303 62.4162 49.6303 62.4124 49.6303 62.4275C49.6372 62.4495 49.6519 62.4683 49.6717 62.4802C49.6905 62.4802 49.7093 62.514 49.7055 62.5366C49.7081 62.5439 49.7081 62.5519 49.7055 62.5592C49.6913 62.5937 49.6662 62.6228 49.6341 62.6419C49.6193 62.6448 49.6059 62.6528 49.5965 62.6645V62.6871C49.5965 62.7134 49.5664 62.7284 49.5438 62.7435C49.5212 62.7585 49.4648 62.8789 49.4422 62.9617L49.6303 63.0031V62.9654C49.6491 62.8751 49.698 62.8526 49.7582 62.8639C49.8184 62.8751 49.856 62.9203 49.8334 63.0106L49.7733 63.2889C49.7733 63.3755 49.7093 63.4018 49.6454 63.3868C49.5814 63.3717 49.5513 63.3341 49.5701 63.2438L49.5965 63.1272L49.4084 63.0858L49.3858 63.1911C49.3712 63.232 49.3655 63.2754 49.3691 63.3186C49.3726 63.3618 49.3854 63.4037 49.4064 63.4416C49.4275 63.4795 49.4564 63.5125 49.4912 63.5383C49.526 63.5641 49.5659 63.5822 49.6083 63.5914C49.6506 63.6006 49.6945 63.6006 49.7368 63.5915C49.7792 63.5824 49.8191 63.5643 49.854 63.5386C49.8888 63.5128 49.9178 63.4799 49.9389 63.442C49.96 63.4042 49.9728 63.3622 49.9764 63.319C49.9897 63.2446 49.9923 63.1685 49.9839 63.0933Z" fill="#263238"/>
<path d="M52.4404 63.6199C52.4369 63.5902 52.4293 63.5611 52.4178 63.5334C52.4142 63.5186 52.4142 63.5031 52.4178 63.4883C52.4236 63.4769 52.4328 63.4677 52.4442 63.462C52.542 63.3717 52.4178 63.2513 52.3238 63.2287C52.29 63.2203 52.2546 63.2207 52.221 63.23C52.1874 63.2392 52.1567 63.2569 52.1319 63.2814L52.2109 62.988L52.557 63.0632L52.5946 62.8826L52.0755 62.7698C52.0629 62.7944 52.0552 62.8212 52.0529 62.8488C52.0529 62.8751 52.083 62.8826 52.0868 62.9127C52.0906 62.9428 52.0868 62.9391 52.0868 62.9541C52.0937 62.9761 52.1084 62.9949 52.1282 63.0068C52.147 63.0068 52.1658 63.0406 52.162 63.0632C52.1583 63.0858 52.162 63.0632 52.162 63.0858C52.1476 63.1214 52.1209 63.1508 52.0868 63.1685C52.0735 63.1724 52.0616 63.1803 52.0529 63.1911C52.0529 63.1911 52.0529 63.1911 52.0529 63.2137C52.0529 63.2362 52.0266 63.255 52.004 63.2701C51.9815 63.2851 51.925 63.4055 51.9025 63.4883L52.0906 63.5297V63.492C52.1094 63.4018 52.1583 63.3792 52.2185 63.3905C52.2786 63.4018 52.3125 63.4469 52.2937 63.5372L52.2335 63.8156C52.2335 63.9021 52.1696 63.9284 52.1056 63.9134C52.0417 63.8983 52.0116 63.8607 52.0304 63.7704L52.0567 63.6538L51.8686 63.6124L51.846 63.7178C51.8347 63.7573 51.8316 63.7988 51.8369 63.8396C51.8422 63.8804 51.8558 63.9197 51.8769 63.9551C51.898 63.9904 51.9262 64.0211 51.9596 64.0451C51.993 64.0692 52.031 64.0861 52.0712 64.0948C52.1114 64.1036 52.153 64.104 52.1934 64.0961C52.2338 64.0881 52.2721 64.072 52.306 64.0486C52.3399 64.0253 52.3687 63.9952 52.3905 63.9603C52.4123 63.9254 52.4267 63.8864 52.4329 63.8457C52.4479 63.7714 52.4505 63.6951 52.4404 63.6199Z" fill="#263238"/>
<path d="M50.4127 62.721C50.4315 62.6307 50.4804 62.6043 50.5406 62.6194C50.5599 62.622 50.5777 62.6314 50.5908 62.6459C50.6038 62.6603 50.6114 62.6789 50.6121 62.6984H50.6761C50.6782 62.7093 50.6827 62.7197 50.6892 62.7288C50.6957 62.7378 50.704 62.7454 50.7137 62.7511C50.7362 62.7699 50.7663 62.7811 50.7927 62.8C50.8051 62.7604 50.809 62.7187 50.8041 62.6775C50.7992 62.6364 50.7856 62.5967 50.7643 62.5612C50.743 62.5256 50.7144 62.495 50.6804 62.4713C50.6463 62.4476 50.6077 62.4314 50.567 62.4238C50.5255 62.4099 50.4814 62.4057 50.438 62.4115C50.3947 62.4173 50.3532 62.433 50.3169 62.4573C50.2806 62.4817 50.2503 62.514 50.2284 62.5519C50.2066 62.5898 50.1937 62.6322 50.1908 62.6758C50.189 62.6996 50.189 62.7235 50.1908 62.7473C50.1908 62.8075 50.1908 62.7887 50.251 62.8112C50.3112 62.8338 50.33 62.8639 50.2773 62.8827H50.3112C50.3112 62.8827 50.3112 62.9091 50.3112 62.9203C50.3112 62.9316 50.3112 62.9391 50.2923 62.9542C50.2958 62.9639 50.2958 62.9746 50.2923 62.9843C50.2923 62.9843 50.2623 63.0332 50.2547 63.0407C50.2437 63.0593 50.2282 63.0749 50.2096 63.0859C50.1607 63.116 50.1381 63.0859 50.1231 63.1611C50.108 63.2363 50.1043 63.2438 50.0967 63.2815C50.0823 63.3227 50.0767 63.3664 50.0805 63.4099C50.0842 63.4534 50.0971 63.4956 50.1184 63.5337C50.1396 63.5719 50.1687 63.605 50.2037 63.6311C50.2387 63.6571 50.2789 63.6755 50.3215 63.6848C50.3641 63.6942 50.4083 63.6944 50.451 63.6855C50.4937 63.6766 50.534 63.6587 50.5693 63.633C50.6046 63.6073 50.634 63.5744 50.6557 63.5365C50.6773 63.4986 50.6907 63.4566 50.6949 63.4131L50.7551 63.1498H50.7325C50.6879 63.1297 50.6451 63.1058 50.6046 63.0783L50.5707 63.0482L50.4955 63.3868C50.4955 63.4771 50.4278 63.5034 50.3676 63.4884C50.3074 63.4733 50.2735 63.4319 50.2923 63.3417L50.4014 62.8301C50.399 62.7983 50.4069 62.7666 50.424 62.7398L50.4127 62.721Z" fill="#263238"/>
<path d="M51.3382 63.3416H51.357C51.357 63.3228 51.357 63.304 51.357 63.2776H51.4398L51.5037 62.988C51.5181 62.9468 51.5237 62.903 51.52 62.8595C51.5162 62.816 51.5033 62.7738 51.4821 62.7357C51.4608 62.6976 51.4317 62.6644 51.3967 62.6384C51.3617 62.6123 51.3216 62.594 51.2789 62.5846C51.2363 62.5752 51.1922 62.575 51.1495 62.5839C51.1067 62.5929 51.0664 62.6108 51.0311 62.6364C50.9958 62.6621 50.9664 62.695 50.9448 62.7329C50.9231 62.7708 50.9098 62.8129 50.9056 62.8563V62.909C50.9319 62.9315 50.947 62.9692 50.9733 62.988C50.9996 63.0068 51.041 62.988 51.0297 63.0519C51.0184 63.1159 51.0071 63.1046 51.0297 63.1234C51.0523 63.1422 51.056 63.1234 51.0598 63.1497C51.0644 63.1557 51.0669 63.1629 51.0669 63.1704C51.0669 63.1779 51.0644 63.1852 51.0598 63.1911C51.0598 63.1911 51.0335 63.1911 51.0297 63.225C51.026 63.2588 51.0297 63.2814 51.0071 63.2889C50.9846 63.2964 50.9357 63.2438 50.8943 63.2475C50.8795 63.2518 50.8661 63.2601 50.8555 63.2713C50.8449 63.2825 50.8375 63.2964 50.8341 63.3115C50.8149 63.3754 50.8011 63.4409 50.7927 63.5071C50.779 63.5469 50.7742 63.5892 50.7788 63.6311C50.7833 63.6729 50.797 63.7133 50.8189 63.7492C50.8408 63.7851 50.8704 63.8158 50.9056 63.839C50.9407 63.8621 50.9805 63.8773 51.0222 63.8833C51.0649 63.8947 51.1097 63.8967 51.1533 63.8889C51.1968 63.881 51.2381 63.8637 51.2742 63.8381C51.3075 63.8094 51.3356 63.775 51.357 63.7366C51.3739 63.7173 51.3833 63.6926 51.3833 63.667C51.3833 63.6414 51.3739 63.6166 51.357 63.5974H51.3382L51.3119 63.5071C51.3119 63.5071 51.3119 63.5071 51.3382 63.4845C51.3645 63.462 51.3382 63.413 51.3758 63.3867C51.4134 63.3604 51.3307 63.3491 51.3382 63.3416ZM51.1802 63.5974C51.1614 63.6877 51.1125 63.714 51.0485 63.6989C50.9846 63.6839 50.9545 63.6425 50.9733 63.5522L51.1238 62.8751C51.1426 62.7848 51.1877 62.7585 51.2517 62.7735C51.3156 62.7886 51.3457 62.83 51.3269 62.9203L51.1802 63.5974Z" fill="#263238"/>
<path d="M51.6729 63.808L51.6316 63.9998L51.4397 63.9585L51.4811 63.7666L51.6729 63.808Z" fill="#263238"/>
<path d="M53.2454 63.4732C53.2679 63.4732 53.2679 63.3867 53.2755 63.3566C53.2899 63.3154 53.2955 63.2717 53.2917 63.2282C53.288 63.1847 53.2751 63.1425 53.2539 63.1044C53.2326 63.0662 53.2035 63.0331 53.1685 63.007C53.1335 62.981 53.0933 62.9626 53.0507 62.9533C53.0081 62.9439 52.964 62.9436 52.9212 62.9526C52.8785 62.9615 52.8382 62.9794 52.8029 63.0051C52.7676 63.0308 52.7382 63.0637 52.7165 63.1016C52.6949 63.1395 52.6815 63.1815 52.6773 63.225L52.6209 63.477C52.6698 63.5221 52.6209 63.5936 52.6435 63.6463C52.6661 63.6989 52.6435 63.6463 52.6435 63.6688C52.6435 63.6914 52.5871 63.7027 52.5871 63.7328C52.5871 63.7328 52.557 63.7779 52.5382 63.8005C52.5263 63.8184 52.5198 63.8393 52.5193 63.8607C52.5049 63.9019 52.4994 63.9457 52.5031 63.9891C52.5068 64.0326 52.5197 64.0748 52.541 64.113C52.5622 64.1511 52.5913 64.1843 52.6263 64.2103C52.6613 64.2364 52.7015 64.2547 52.7441 64.2641C52.7867 64.2734 52.8309 64.2737 52.8736 64.2647C52.9163 64.2558 52.9566 64.2379 52.9919 64.2122C53.0272 64.1865 53.0567 64.1537 53.0783 64.1158C53.0999 64.0779 53.1133 64.0358 53.1175 63.9924L53.1626 63.7855C53.1626 63.7328 53.2303 63.5936 53.1626 63.5522C53.0949 63.5109 53.1325 63.5522 53.125 63.5259C53.1204 63.5172 53.118 63.5075 53.118 63.4977C53.118 63.4879 53.1204 63.4782 53.125 63.4695C53.1701 63.4319 53.204 63.4958 53.2454 63.4732ZM53.0159 63.8043C53.0159 63.8268 52.9783 63.8344 52.9595 63.8645C52.945 63.9018 52.9361 63.9411 52.9331 63.9811C52.9143 64.0714 52.8654 64.0939 52.8052 64.0826C52.7451 64.0714 52.7074 64.0262 52.73 63.9359C52.73 63.9096 52.7639 63.8344 52.7563 63.8118C52.7488 63.7892 52.7187 63.8118 52.7037 63.7667C52.6924 63.7273 52.6924 63.6856 52.7037 63.6463C52.7055 63.6376 52.7055 63.6286 52.7037 63.6199C52.7037 63.6199 52.6849 63.5861 52.7037 63.571C52.7037 63.571 52.7037 63.5221 52.7037 63.4883C52.824 63.5334 52.8203 63.3491 52.8391 63.2739C52.8579 63.1986 52.9068 63.1572 52.967 63.1723C53.0272 63.1873 53.061 63.2287 53.0422 63.3152C53.0167 63.3919 53.0015 63.4716 52.9971 63.5522C53.0128 63.5547 53.0273 63.5623 53.0382 63.5739C53.0491 63.5855 53.0558 63.6003 53.0573 63.6162C53.0535 63.6361 53.0535 63.6565 53.0573 63.6764C53.0573 63.6764 53.0573 63.7102 53.0573 63.7253C53.0573 63.7403 53.0347 63.7253 53.0197 63.7253C53.0093 63.7294 53 63.736 52.9928 63.7445C52.9856 63.7531 52.9806 63.7633 52.9783 63.7742L53.0159 63.8043Z" fill="#263238"/>
<path d="M51.1426 60.7385L52.4141 61.0169" stroke="#263238" stroke-linecap="round" stroke-linejoin="round"/>
<path d="M48.2534 60.1064L50.5105 60.603" stroke="#263238" stroke-linecap="round" stroke-linejoin="round"/>
<path d="M48.0653 60.9792L49.555 61.3028" stroke="#263238" stroke-linecap="round" stroke-linejoin="round"/>
<path opacity="0.4" d="M35.0306 117.877C37.0074 117.359 39.0402 117.086 41.0834 117.064C44.7549 116.974 47.1023 117.67 50.1117 116.18C53.1212 114.69 55.0736 117.372 57.9513 115.883C60.8291 114.393 62.1646 112.008 63.8273 112.061C65.49 112.113 67.9653 85.4685 68.7628 80.8829C69.5603 76.2972 71.2569 63.5146 71.84 60.9189L68.5634 118.689L35.0306 117.877Z" fill="white"/>
<path d="M35.1887 106.509L44.3638 117.67L34.6733 117.068L35.1887 106.509Z" fill="#399A19" stroke="#263238" stroke-linecap="round" stroke-linejoin="round"/>
<path d="M59.5389 84.4379L59.3922 88.685C59.3718 89.2776 59.2349 89.8604 58.9892 90.4C58.7435 90.9397 58.3939 91.4256 57.9604 91.8302C57.5269 92.2347 57.0179 92.5499 56.4626 92.7576C55.9072 92.9654 55.3164 93.0618 54.7238 93.0412L50.3601 92.8869C49.7658 92.8666 49.1815 92.729 48.6406 92.4822C48.0996 92.2353 47.6128 91.884 47.208 91.4485C46.8033 91.013 46.4885 90.5017 46.2819 89.9442C46.0752 89.3867 45.9808 88.7938 46.0039 88.1997L46.1995 82.6698C46.2417 81.4737 46.7572 80.3433 47.6326 79.5271C48.508 78.7109 49.6718 78.2758 50.8679 78.3174L55.2316 78.4679C55.352 78.4679 55.4724 78.4679 55.6078 78.4942C54.9972 79.0816 54.6118 79.8644 54.5186 80.7065C54.4253 81.5487 54.6302 82.3968 55.0976 83.1035C55.565 83.8102 56.2653 84.3307 57.0768 84.5745C57.8882 84.8183 58.7594 84.7699 59.5389 84.4379Z" fill="#399A19" stroke="#263238" stroke-linecap="round" stroke-linejoin="round"/>
<path d="M60.3251 80.7701C60.3115 81.1784 60.1771 81.5735 59.9389 81.9054C59.7007 82.2373 59.3694 82.4911 58.9869 82.6347C58.6045 82.7783 58.188 82.8052 57.7903 82.7121C57.3925 82.619 57.0313 82.4099 56.7523 82.1115C56.4733 81.8131 56.2891 81.4386 56.223 81.0354C56.1569 80.6323 56.2118 80.2186 56.3809 79.8467C56.5499 79.4748 56.8255 79.1614 57.1726 78.9461C57.5198 78.7308 57.9231 78.6233 58.3314 78.6372C58.8782 78.6568 59.395 78.8923 59.7686 79.292C60.1423 79.6917 60.3424 80.2232 60.3251 80.7701Z" fill="#399A19" stroke="#263238" stroke-linecap="round" stroke-linejoin="round"/>
<path opacity="0.4" d="M47.2452 88.7261L53.6591 83.2414C53.6591 83.2414 52.8466 80.3035 53.6591 79.3743H50.5782C49.8362 79.3718 49.1213 79.6527 48.5795 80.1596C48.0377 80.6665 47.7098 81.3611 47.6628 82.1016L47.2452 88.7261Z" fill="white"/>
<path opacity="0.4" d="M57.3871 80.8831L58.7602 79.3784C58.7602 79.3784 57.9062 78.8028 57.3871 79.3784C56.868 79.9539 57.3871 80.8831 57.3871 80.8831Z" fill="white"/>
<path d="M56.7175 113.652L67.0587 114.1" stroke="#263238" stroke-linecap="round" stroke-linejoin="round"/>
<path d="M53.1362 114.694L67.0587 115.439" stroke="#263238" stroke-linecap="round" stroke-linejoin="round"/>
<path d="M63.4136 117.67H67.0588" stroke="#263238" stroke-linecap="round" stroke-linejoin="round"/>
<path opacity="0.2" d="M50.74 79.6867C45.4058 82.2522 39.6277 73.2653 37.6038 72.0276C37.1049 71.7127 36.6397 71.3471 36.2157 70.9367L37.096 56.1904L52.7112 56.8187C52.6097 59.0155 52.6435 61.4419 53.1326 62.8375C54.1859 65.8809 56.0705 77.1249 50.74 79.6867Z" fill="black" fill-opacity="0.7"/>
<path opacity="0.4" d="M44.7625 80.1456C44.7625 80.1456 49.0283 81.9964 50.9619 80.898C52.8955 79.7995 54.9795 77.7004 55.2767 73.0396C55.2767 73.0396 57.8159 79.6039 52.6961 81.5713C47.5763 83.5388 44.7625 80.1456 44.7625 80.1456Z" fill="white"/>
<path opacity="0.4" d="M43.0997 82.7713C43.0997 82.7713 51.7519 85.0961 55.4535 80.8904C55.4535 80.8904 54.957 83.2265 50.9619 83.8998C46.9669 84.5732 43.0997 82.7713 43.0997 82.7713Z" fill="white"/>
<path opacity="0.4" d="M57.0147 67.743C56.3564 66.573 57.1652 77.0873 57.1652 77.0873C57.1652 77.0873 58.3539 70.143 57.0147 67.743Z" fill="white"/>
</g>
<path d="M72.882 57.6272L69.233 119.603L33.3867 118.426L36.2156 70.9365L37.0959 56.1902L52.7149 56.8184L72.882 57.6272Z" stroke="#263238" stroke-linecap="round" stroke-linejoin="round"/>
<path opacity="0.4" d="M71.0688 119.934L69.7634 119.603L72.882 62.8484L73.435 66.5952L71.0688 119.934Z" fill="white"/>
<path d="M50.74 79.6864C50.2467 79.9486 49.6981 80.0897 49.1396 80.0982C48.581 80.1067 48.0284 79.9823 47.5274 79.7353C46.6602 79.2803 45.9605 78.5609 45.5299 77.6814C44.0439 75.003 40.0226 68.9013 39.2815 67.1483C38.5404 65.3953 36.9003 60.4373 35.2639 58.357C33.6275 56.2767 32.7322 53.1469 32.7322 53.1469L32.1378 22.7891C33.0294 27.1791 35.4858 32.1635 35.4858 32.1635C37.62 33.274 39.4334 34.9139 40.7524 36.9259C41.1363 37.3348 41.4802 37.7795 41.7793 38.2539C44.2095 42.0157 45.3869 48.7869 45.5148 54.0535C45.6653 60.0084 47.5989 62.7056 50.7249 67.8932C53.851 73.0807 52.7713 78.5316 50.74 79.6864Z" fill="white"/>
<path opacity="0.4" d="M50.74 79.6863C50.2447 79.9422 49.6969 80.0797 49.1395 80.0882C48.5821 80.0967 48.0303 79.9759 47.5274 79.7352C49.2353 79.2688 51.4773 78.3923 50.962 77.102C50.1532 75.0405 47.787 78.0989 46.5983 77.102C45.4095 76.1051 41.091 70.3871 43.8333 67.8705C46.5757 65.3538 45.7142 61.1331 43.8333 59.9444C41.9524 58.7556 43.175 55.923 43.7694 51.4652C44.1456 48.768 42.8553 42.6588 41.7944 38.25C44.2246 42.0118 45.402 48.7831 45.5299 54.0496C45.6804 60.0045 47.614 62.7018 50.74 67.8893C53.8661 73.0768 52.7714 78.6029 50.74 79.6863Z" fill="#399A19"/>
<path d="M32.1378 22.77C33.0294 27.1601 35.4858 32.1445 35.4858 32.1445C37.62 33.255 39.4334 34.8948 40.7524 36.9069C43.8784 40.1797 45.3681 48.0682 45.5148 54.0194C45.6615 59.9706 47.5989 62.6715 50.7249 67.8591C53.851 73.0466 52.982 78.4561 50.7249 79.6862C49.1525 80.5477 47.0045 80.3596 45.5148 77.6812C44.0251 75.0028 40.0075 68.9011 39.2664 67.1481C38.5254 65.3951 36.8852 60.437 35.2488 58.3567C33.6124 56.2765 32.7171 53.1466 32.7171 53.1466" stroke="#263238" stroke-linecap="round" stroke-linejoin="round"/>
<path d="M41.8019 66.5953C41.8019 66.5953 44.232 66.3772 45.3455 65.4668" stroke="#263238" stroke-linecap="round" stroke-linejoin="round"/>
<path d="M31.8405 53.7449C31.8405 53.7449 31.3665 54.8734 33.8493 56.002" stroke="#263238" stroke-linecap="round" stroke-linejoin="round"/>
</svg>
