<svg width="138" height="157" viewBox="0 0 138 157" fill="none" xmlns="http://www.w3.org/2000/svg">
<path d="M96.7778 77.0024L95.2462 74.5586H81.7627V77.0024V77.8813V118.528H137.258V77.0024H96.7778Z" fill="#263238"/>
<path d="M136.895 78.1226H82.1743V117.642H136.895V78.1226Z" fill="white"/>
<mask id="mask0_5492_20730" style="mask-type:luminance" maskUnits="userSpaceOnUse" x="82" y="78" width="55" height="40">
<path d="M136.895 78.1226H82.1743V117.642H136.895V78.1226Z" fill="white"/>
</mask>
<g mask="url(#mask0_5492_20730)">
<path opacity="0.17" d="M137.162 77.7852H135.89V117.943H137.162V77.7852Z" fill="black"/>
<path opacity="0.17" d="M137.162 102.063H135.89V117.616H137.162V102.063Z" fill="black"/>
<path d="M136.965 77.5884H81.9556V79.7392H136.965V77.5884Z" fill="#92E3A9" stroke="#263238" stroke-miterlimit="10"/>
</g>
<path d="M136.895 78.1226H82.1743V117.642H136.895V78.1226Z" stroke="#263238" stroke-linecap="round" stroke-linejoin="round"/>
<g opacity="0.17">
<path d="M110.684 81.8087H106.857C106.813 81.8092 106.768 81.8008 106.727 81.784C106.686 81.7672 106.649 81.7424 106.617 81.711C106.586 81.6795 106.561 81.6421 106.544 81.601C106.527 81.5598 106.519 81.5157 106.52 81.4712C106.52 81.3817 106.555 81.2959 106.618 81.2326C106.682 81.1693 106.768 81.1338 106.857 81.1338H110.684C110.774 81.1338 110.859 81.1693 110.923 81.2326C110.986 81.2959 111.021 81.3817 111.021 81.4712C111.021 81.5607 110.986 81.6466 110.923 81.7099C110.859 81.7732 110.774 81.8087 110.684 81.8087Z" fill="black"/>
<path d="M118.342 81.8087H114.511C114.422 81.8087 114.336 81.7732 114.272 81.7099C114.209 81.6466 114.174 81.5607 114.174 81.4712C114.174 81.3817 114.209 81.2959 114.272 81.2326C114.336 81.1693 114.422 81.1338 114.511 81.1338H118.342C118.386 81.1338 118.43 81.1425 118.471 81.1595C118.512 81.1764 118.549 81.2013 118.58 81.2326C118.612 81.264 118.637 81.3012 118.654 81.3421C118.67 81.383 118.679 81.4269 118.679 81.4712C118.679 81.5156 118.67 81.5594 118.654 81.6004C118.637 81.6413 118.612 81.6785 118.58 81.7099C118.549 81.7412 118.512 81.7661 118.471 81.783C118.43 81.8 118.386 81.8087 118.342 81.8087Z" fill="black"/>
<path d="M125.996 81.8087H122.169C122.079 81.8087 121.993 81.7732 121.93 81.7099C121.867 81.6466 121.831 81.5607 121.831 81.4712C121.831 81.3817 121.867 81.2959 121.93 81.2326C121.993 81.1693 122.079 81.1338 122.169 81.1338H125.996C126.04 81.1338 126.084 81.1425 126.125 81.1595C126.166 81.1764 126.203 81.2013 126.234 81.2326C126.266 81.264 126.291 81.3012 126.308 81.3421C126.324 81.383 126.333 81.4269 126.333 81.4712C126.334 81.5157 126.325 81.5598 126.309 81.601C126.292 81.6421 126.267 81.6795 126.235 81.711C126.204 81.7424 126.167 81.7672 126.125 81.784C126.084 81.8008 126.04 81.8092 125.996 81.8087Z" fill="black"/>
<path d="M133.639 81.8087H129.827C129.782 81.8092 129.738 81.8008 129.696 81.7841C129.655 81.7673 129.617 81.7426 129.586 81.7112C129.554 81.6798 129.529 81.6424 129.511 81.6012C129.494 81.5601 129.485 81.5159 129.485 81.4712C129.486 81.3814 129.523 81.2956 129.587 81.2324C129.65 81.1692 129.737 81.1338 129.827 81.1338H133.639C133.683 81.1338 133.727 81.1425 133.768 81.1595C133.809 81.1764 133.846 81.2013 133.877 81.2326C133.909 81.264 133.934 81.3012 133.95 81.3421C133.967 81.383 133.976 81.4269 133.976 81.4712C133.976 81.5156 133.967 81.5594 133.95 81.6004C133.934 81.6413 133.909 81.6785 133.877 81.7099C133.846 81.7412 133.809 81.7661 133.768 81.783C133.727 81.8 133.683 81.8087 133.639 81.8087Z" fill="black"/>
</g>
<path d="M128.699 101.96H125.098V113.319H128.699V101.96Z" fill="#92E3A9" stroke="#263238" stroke-miterlimit="10"/>
<path d="M124.698 109.31H121.097V113.318H124.698V109.31Z" fill="#263238" stroke="#263238" stroke-linecap="round" stroke-linejoin="round"/>
<path d="M120.696 86.9224H117.096V113.315H120.696V86.9224Z" fill="#92E3A9" stroke="#263238" stroke-miterlimit="10"/>
<path d="M116.699 88.2612H113.098V113.318H116.699V88.2612Z" fill="white" stroke="#263238" stroke-linecap="round" stroke-linejoin="round"/>
<path d="M112.698 101.96H109.097V113.319H112.698V101.96Z" fill="#92E3A9" stroke="#263238" stroke-miterlimit="10"/>
<path d="M108.696 98.2847H105.095V113.318H108.696V98.2847Z" fill="#263238" stroke="#263238" stroke-linecap="round" stroke-linejoin="round"/>
<path d="M104.699 111.312H101.098V113.318H104.699V111.312Z" fill="#92E3A9" stroke="#263238" stroke-miterlimit="10"/>
<path d="M100.697 109.31H97.0967V113.318H100.697V109.31Z" fill="white" stroke="#263238" stroke-linecap="round" stroke-linejoin="round"/>
<path d="M96.6963 101.96H93.0955V113.319H96.6963V101.96Z" fill="#92E3A9" stroke="#263238" stroke-miterlimit="10"/>
<path d="M97.6455 91.7617L98.9323 99.0709C97.8649 99.26 96.7689 99.2129 95.7217 98.9328C94.6744 98.6526 93.7013 98.1464 92.8708 97.4495C92.0404 96.7527 91.3728 95.8823 90.915 94.8996C90.4573 93.9169 90.2205 92.8458 90.2214 91.7617H97.6455Z" stroke="#263238" stroke-width="0.75" stroke-linecap="round" stroke-linejoin="round"/>
<path d="M97.6455 91.7617L103.494 96.3304C102.387 97.8023 100.751 98.7853 98.9323 99.0709L97.6455 91.7617Z" stroke="#263238" stroke-width="0.75" stroke-miterlimit="10"/>
<path d="M97.6456 91.7618L93.9373 85.3352C94.781 84.8471 95.7128 84.5301 96.6792 84.4023C97.6456 84.2746 98.6276 84.3386 99.5693 84.5907C100.511 84.8428 101.394 85.2781 102.167 85.8716C102.94 86.4651 103.589 87.2053 104.076 88.0497C104.831 89.3256 105.18 90.8011 105.077 92.2802C104.974 93.7593 104.423 95.1719 103.497 96.3304L97.6456 91.7618Z" stroke="#263238" stroke-width="0.75" stroke-linecap="round" stroke-linejoin="round"/>
<path d="M100.206 94.3185C101.62 92.9051 101.62 90.6135 100.206 89.2C98.7927 87.7866 96.501 87.7866 95.0876 89.2C93.6741 90.6135 93.6741 92.9051 95.0876 94.3185C96.501 95.732 98.7927 95.732 100.206 94.3185Z" fill="white" stroke="#263238" stroke-width="0.75" stroke-linecap="round" stroke-linejoin="round"/>
<path d="M108.155 121.046H116.977" stroke="#263238" stroke-miterlimit="10"/>
<path d="M108.155 122.548H116.977" stroke="#263238" stroke-miterlimit="10"/>
<path d="M108.155 124.05H116.977" stroke="#263238" stroke-miterlimit="10"/>
<path d="M108.155 125.548H116.977" stroke="#263238" stroke-miterlimit="10"/>
<path d="M127.079 111.92V124.091H118.457" stroke="#263238" stroke-miterlimit="10"/>
<path d="M26.5269 13.9125L24.3575 10.4526H5.25586V13.9125V15.1585V72.7453H83.8838V13.9125H26.5269Z" fill="#263238"/>
<path d="M83.3647 15.4998H5.83813V71.492H83.3647V15.4998Z" fill="white"/>
<mask id="mask1_5492_20730" style="mask-type:luminance" maskUnits="userSpaceOnUse" x="5" y="15" width="79" height="57">
<path d="M83.3647 15.4998H5.83813V71.492H83.3647V15.4998Z" fill="white"/>
</mask>
<g mask="url(#mask1_5492_20730)">
<path opacity="0.17" d="M83.7465 15.0178H81.948V71.9149H83.7465V15.0178Z" fill="black"/>
<path opacity="0.17" d="M83.7465 49.4199H81.948V71.4549H83.7465V49.4199Z" fill="black"/>
<path d="M83.4684 14.7432H5.53027V17.7877H83.4684V14.7432Z" fill="#92E3A9" stroke="#263238" stroke-miterlimit="10"/>
</g>
<path d="M83.3647 15.4998H5.83813V71.492H83.3647V15.4998Z" stroke="#263238" stroke-linecap="round" stroke-linejoin="round"/>
<g opacity="0.17">
<path d="M46.233 20.7248H40.8077C40.6808 20.7248 40.5592 20.6744 40.4695 20.5847C40.3797 20.495 40.3293 20.3733 40.3293 20.2464C40.3293 20.1836 40.3417 20.1214 40.3658 20.0634C40.3898 20.0053 40.425 19.9526 40.4695 19.9082C40.5139 19.8638 40.5666 19.8285 40.6247 19.8045C40.6827 19.7804 40.7449 19.7681 40.8077 19.7681H46.233C46.2958 19.7681 46.358 19.7804 46.4161 19.8045C46.4741 19.8285 46.5269 19.8638 46.5713 19.9082C46.6157 19.9526 46.6509 20.0053 46.675 20.0634C46.699 20.1214 46.7114 20.1836 46.7114 20.2464C46.7114 20.3733 46.661 20.495 46.5713 20.5847C46.4816 20.6744 46.3599 20.7248 46.233 20.7248Z" fill="black"/>
<path d="M57.0799 20.7248H51.6583C51.5314 20.7248 51.4098 20.6744 51.32 20.5847C51.2303 20.495 51.1799 20.3733 51.1799 20.2464C51.1799 20.1836 51.1923 20.1214 51.2163 20.0634C51.2404 20.0053 51.2756 19.9526 51.32 19.9082C51.3645 19.8638 51.4172 19.8285 51.4752 19.8045C51.5333 19.7804 51.5955 19.7681 51.6583 19.7681H57.0799C57.1427 19.7681 57.2049 19.7804 57.263 19.8045C57.321 19.8285 57.3737 19.8638 57.4182 19.9082C57.4626 19.9526 57.4978 20.0053 57.5219 20.0634C57.5459 20.1214 57.5583 20.1836 57.5583 20.2464C57.5583 20.3733 57.5079 20.495 57.4182 20.5847C57.3285 20.6744 57.2068 20.7248 57.0799 20.7248Z" fill="black"/>
<path d="M67.9268 20.7248H62.5052C62.3784 20.7248 62.2567 20.6744 62.167 20.5847C62.0773 20.495 62.0269 20.3733 62.0269 20.2464C62.0269 20.1836 62.0392 20.1214 62.0633 20.0634C62.0873 20.0053 62.1225 19.9526 62.167 19.9082C62.2114 19.8638 62.2641 19.8285 62.3222 19.8045C62.3802 19.7804 62.4424 19.7681 62.5052 19.7681H67.9268C67.9896 19.7681 68.0518 19.7804 68.1099 19.8045C68.1679 19.8285 68.2207 19.8638 68.2651 19.9082C68.3095 19.9526 68.3447 20.0053 68.3688 20.0634C68.3928 20.1214 68.4052 20.1836 68.4052 20.2464C68.4052 20.3733 68.3548 20.495 68.2651 20.5847C68.1754 20.6744 68.0537 20.7248 67.9268 20.7248Z" fill="black"/>
<path d="M78.7774 20.7248H73.3521C73.2253 20.7248 73.1036 20.6744 73.0139 20.5847C72.9242 20.495 72.8738 20.3733 72.8738 20.2464C72.8738 20.1836 72.8861 20.1214 72.9102 20.0634C72.9342 20.0053 72.9695 19.9526 73.0139 19.9082C73.0583 19.8638 73.111 19.8285 73.1691 19.8045C73.2271 19.7804 73.2893 19.7681 73.3521 19.7681H78.7774C78.8403 19.7681 78.9025 19.7804 78.9605 19.8045C79.0186 19.8285 79.0713 19.8638 79.1157 19.9082C79.1601 19.9526 79.1954 20.0053 79.2194 20.0634C79.2435 20.1214 79.2558 20.1836 79.2558 20.2464C79.2558 20.3733 79.2054 20.495 79.1157 20.5847C79.026 20.6744 78.9043 20.7248 78.7774 20.7248Z" fill="black"/>
</g>
<path d="M10.0693 47.6772H79.9048" stroke="#263238" stroke-width="0.5" stroke-miterlimit="10"/>
<path d="M10.0693 47.6772V47.1357" stroke="#263238" stroke-width="0.5" stroke-miterlimit="10"/>
<path d="M18.7988 47.6772V47.1357" stroke="#263238" stroke-width="0.5" stroke-miterlimit="10"/>
<path d="M27.5283 47.6772V47.1357" stroke="#263238" stroke-width="0.5" stroke-miterlimit="10"/>
<path d="M36.2576 47.6772V47.1357" stroke="#263238" stroke-width="0.5" stroke-miterlimit="10"/>
<path d="M44.9871 47.6772V47.1357" stroke="#263238" stroke-width="0.5" stroke-miterlimit="10"/>
<path d="M53.7166 47.6772V47.1357" stroke="#263238" stroke-width="0.5" stroke-miterlimit="10"/>
<path d="M62.4458 47.6772V47.1357" stroke="#263238" stroke-width="0.5" stroke-miterlimit="10"/>
<path d="M71.1753 47.6772V47.1357" stroke="#263238" stroke-width="0.5" stroke-miterlimit="10"/>
<path d="M79.9048 47.6772V47.1357" stroke="#263238" stroke-width="0.5" stroke-miterlimit="10"/>
<path d="M23.1635 42.0479L14.4341 44.7475" stroke="#263238" stroke-width="2" stroke-miterlimit="10" stroke-linecap="round"/>
<path d="M31.893 36.1108L23.1636 42.0479" stroke="#263238" stroke-width="2" stroke-miterlimit="10" stroke-linecap="round"/>
<path d="M40.6223 28.0117L31.8928 36.1107" stroke="#263238" stroke-width="2" stroke-miterlimit="10" stroke-linecap="round"/>
<path d="M49.3517 27.2034L40.6223 28.0118" stroke="#263238" stroke-width="2" stroke-miterlimit="10" stroke-linecap="round"/>
<path d="M58.0812 33.1404L49.3518 27.2034" stroke="#263238" stroke-width="2" stroke-miterlimit="10" stroke-linecap="round"/>
<path d="M66.8107 38.8104L58.0813 33.1404" stroke="#263238" stroke-width="2" stroke-miterlimit="10" stroke-linecap="round"/>
<path d="M75.54 26.9326L66.8105 38.8104" stroke="#263238" stroke-width="2" stroke-miterlimit="10" stroke-linecap="round"/>
<path d="M14.434 43.635C14.7291 43.635 15.0121 43.7522 15.2207 43.9609C15.4293 44.1695 15.5465 44.4525 15.5465 44.7475C15.5465 45.0426 15.4293 45.3255 15.2207 45.5342C15.0121 45.7428 14.7291 45.86 14.434 45.86C14.139 45.86 13.856 45.7428 13.6474 45.5342C13.4387 45.3255 13.3215 45.0426 13.3215 44.7475C13.3215 44.4525 13.4387 44.1695 13.6474 43.9609C13.856 43.7522 14.139 43.635 14.434 43.635Z" fill="#92E3A9" stroke="#263238" stroke-miterlimit="10"/>
<path d="M23.1635 40.9353C23.4586 40.9353 23.7416 41.0525 23.9502 41.2611C24.1588 41.4698 24.276 41.7528 24.276 42.0478C24.276 42.3429 24.1588 42.6258 23.9502 42.8345C23.7416 43.0431 23.4586 43.1603 23.1635 43.1603C22.8685 43.1603 22.5855 43.0431 22.3769 42.8345C22.1682 42.6258 22.051 42.3429 22.051 42.0478C22.051 41.7528 22.1682 41.4698 22.3769 41.2611C22.5855 41.0525 22.8685 40.9353 23.1635 40.9353Z" fill="#92E3A9" stroke="#263238" stroke-miterlimit="10"/>
<path d="M31.893 34.9983C32.1881 34.9983 32.471 35.1155 32.6797 35.3241C32.8883 35.5328 33.0055 35.8157 33.0055 36.1108C33.0055 36.4058 32.8883 36.6888 32.6797 36.8975C32.471 37.1061 32.1881 37.2233 31.893 37.2233C31.598 37.2233 31.315 37.1061 31.1064 36.8975C30.8977 36.6888 30.7805 36.4058 30.7805 36.1108C30.7805 35.8157 30.8977 35.5328 31.1064 35.3241C31.315 35.1155 31.598 34.9983 31.893 34.9983Z" fill="#92E3A9" stroke="#263238" stroke-miterlimit="10"/>
<path d="M40.6223 26.8992C40.9173 26.8992 41.2003 27.0164 41.4089 27.225C41.6176 27.4336 41.7348 27.7166 41.7348 28.0117C41.7348 28.3067 41.6176 28.5897 41.4089 28.7983C41.2003 29.007 40.9173 29.1242 40.6223 29.1242C40.3272 29.1242 40.0442 29.007 39.8356 28.7983C39.627 28.5897 39.5098 28.3067 39.5098 28.0117C39.5098 27.7166 39.627 27.4336 39.8356 27.225C40.0442 27.0164 40.3272 26.8992 40.6223 26.8992Z" fill="#92E3A9" stroke="#263238" stroke-miterlimit="10"/>
<path d="M49.3518 26.0908C49.6468 26.0908 49.9298 26.208 50.1384 26.4167C50.347 26.6253 50.4643 26.9083 50.4643 27.2033C50.4643 27.4984 50.347 27.7813 50.1384 27.99C49.9298 28.1986 49.6468 28.3158 49.3518 28.3158C49.0567 28.3158 48.7737 28.1986 48.5651 27.99C48.3565 27.7813 48.2393 27.4984 48.2393 27.2033C48.2393 26.9083 48.3565 26.6253 48.5651 26.4167C48.7737 26.208 49.0567 26.0908 49.3518 26.0908Z" fill="#92E3A9" stroke="#263238" stroke-miterlimit="10"/>
<path d="M58.0813 32.0278C58.3763 32.0278 58.6593 32.145 58.8679 32.3537C59.0765 32.5623 59.1938 32.8453 59.1938 33.1403C59.1938 33.4354 59.0765 33.7184 58.8679 33.927C58.6593 34.1356 58.3763 34.2528 58.0813 34.2528C57.7862 34.2528 57.5032 34.1356 57.2946 33.927C57.086 33.7184 56.9688 33.4354 56.9688 33.1403C56.9688 32.8453 57.086 32.5623 57.2946 32.3537C57.5032 32.145 57.7862 32.0278 58.0813 32.0278Z" fill="#92E3A9" stroke="#263238" stroke-miterlimit="10"/>
<path d="M67.9232 38.8105C67.9232 38.1961 67.4252 37.698 66.8107 37.698C66.1963 37.698 65.6982 38.1961 65.6982 38.8105C65.6982 39.4249 66.1963 39.923 66.8107 39.923C67.4252 39.923 67.9232 39.4249 67.9232 38.8105Z" fill="#92E3A9" stroke="#263238" stroke-miterlimit="10"/>
<path d="M75.54 25.8201C75.835 25.8201 76.118 25.9373 76.3267 26.1459C76.5353 26.3545 76.6525 26.6375 76.6525 26.9326C76.6525 27.2276 76.5353 27.5106 76.3267 27.7192C76.118 27.9279 75.835 28.0451 75.54 28.0451C75.2449 28.0451 74.962 27.9279 74.7533 27.7192C74.5447 27.5106 74.4275 27.2276 74.4275 26.9326C74.4275 26.6375 74.5447 26.3545 74.7533 26.1459C74.962 25.9373 75.2449 25.8201 75.54 25.8201Z" fill="#92E3A9" stroke="#263238" stroke-miterlimit="10"/>
<path d="M42.4579 61.6833L34.6259 63.0665C34.2595 60.9854 34.7345 58.844 35.9466 57.1131C37.1587 55.3823 39.0086 54.2036 41.0896 53.8364C41.5465 53.7581 42.0092 53.7185 42.4728 53.7178L42.4579 61.6833Z" fill="#263238" stroke="#263238" stroke-linecap="round" stroke-linejoin="round"/>
<path d="M42.4579 61.6836L37.5555 67.9618C35.9729 66.7768 34.9163 65.0202 34.6111 63.0668L42.4579 61.6836Z" fill="#92E3A9" stroke="#263238" stroke-miterlimit="10"/>
<path d="M42.458 61.6834L49.3592 57.7007C49.8851 58.6076 50.2269 59.6093 50.365 60.6485C50.5032 61.6877 50.4349 62.744 50.1641 63.7568C49.8934 64.7695 49.4254 65.7189 48.7872 66.5506C48.1489 67.3822 47.3528 68.0797 46.4444 68.6032C45.074 69.418 43.4875 69.795 41.897 69.6837C40.3065 69.5723 38.788 68.978 37.5444 67.9802L42.458 61.6834Z" fill="white" stroke="#263238" stroke-linecap="round" stroke-linejoin="round"/>
<path d="M42.458 61.6834V53.7179C43.8613 53.694 45.2447 54.0519 46.4602 54.7535C47.6758 55.455 48.6779 56.4737 49.3592 57.7007L42.458 61.6834Z" fill="#92E3A9" stroke="#263238" stroke-miterlimit="10"/>
<path d="M45.2054 64.4321C46.7231 62.9144 46.7231 60.4537 45.2054 58.936C43.6876 57.4183 41.2269 57.4183 39.7092 58.936C38.1915 60.4537 38.1915 62.9144 39.7092 64.4321C41.2269 65.9498 43.6876 65.9499 45.2054 64.4321Z" fill="white" stroke="#263238" stroke-linecap="round" stroke-linejoin="round"/>
<path d="M18.8913 61.6982L20.2746 69.5451C19.2441 69.727 18.1878 69.7042 17.1662 69.4778C16.1445 69.2514 15.1775 68.8259 14.3203 68.2257C13.4631 67.6254 12.7327 66.8621 12.1706 65.9795C11.6085 65.0968 11.2259 64.1121 11.0445 63.0815C10.9648 62.6247 10.9239 62.1619 10.9221 61.6982H18.8913Z" fill="#263238" stroke="#263238" stroke-linecap="round" stroke-linejoin="round"/>
<path d="M18.8916 61.6982L25.1698 66.6044C23.9834 68.1847 22.2272 69.2397 20.2748 69.5451L18.8916 61.6982Z" fill="#92E3A9" stroke="#263238" stroke-miterlimit="10"/>
<path d="M18.8915 61.6983L14.905 54.7971C16.736 53.7409 18.9114 53.4551 20.9531 54.0024C22.9947 54.5496 24.7355 55.8852 25.7927 57.7155C26.6055 59.0866 26.9813 60.6728 26.87 62.2628C26.7587 63.8528 26.1656 65.3711 25.1697 66.6156L18.8915 61.6983Z" fill="white" stroke="#263238" stroke-linecap="round" stroke-linejoin="round"/>
<path d="M18.8915 61.6981H10.9223C10.8984 60.2948 11.2563 58.9114 11.9578 57.6959C12.6593 56.4803 13.678 55.4782 14.905 54.7969L18.8915 61.6981Z" fill="#92E3A9" stroke="#263238" stroke-miterlimit="10"/>
<path d="M18.8915 65.5847C21.0378 65.5847 22.7778 63.8447 22.7778 61.6984C22.7778 59.552 21.0378 57.812 18.8915 57.812C16.7451 57.812 15.0051 59.552 15.0051 61.6984C15.0051 63.8447 16.7451 65.5847 18.8915 65.5847Z" fill="white" stroke="#263238" stroke-linecap="round" stroke-linejoin="round"/>
<path d="M66.0022 61.6982L67.3854 69.5451C66.3549 69.727 65.2987 69.7042 64.277 69.4778C63.2553 69.2514 62.2883 68.8259 61.4312 68.2257C60.574 67.6254 59.8435 66.8621 59.2814 65.9795C58.7194 65.0968 58.3367 64.1121 58.1553 63.0815C58.0757 62.6247 58.0347 62.1619 58.033 61.6982H66.0022Z" fill="#263238" stroke="#263238" stroke-linecap="round" stroke-linejoin="round"/>
<path d="M66.0022 61.6982L72.2804 66.6044C71.094 68.1847 69.3378 69.2397 67.3854 69.5451L66.0022 61.6982Z" fill="#92E3A9" stroke="#263238" stroke-miterlimit="10"/>
<path d="M66.0023 61.6983L62.0159 54.7971C63.8468 53.7409 66.0222 53.4551 68.0639 54.0024C70.1055 54.5496 71.8463 55.8852 72.9036 57.7155C73.7163 59.0866 74.0921 60.6728 73.9808 62.2628C73.8695 63.8528 73.2764 65.3711 72.2806 66.6156L66.0023 61.6983Z" fill="white" stroke="#263238" stroke-linecap="round" stroke-linejoin="round"/>
<path d="M66.0023 61.6981H58.0331C58.0092 60.2948 58.3671 58.9114 59.0687 57.6959C59.7702 56.4803 60.7889 55.4782 62.0159 54.7969L66.0023 61.6981Z" fill="#92E3A9" stroke="#263238" stroke-miterlimit="10"/>
<path d="M66.0023 65.5847C68.1487 65.5847 69.8886 63.8447 69.8886 61.6984C69.8886 59.552 68.1487 57.812 66.0023 57.812C63.8559 57.812 62.116 59.552 62.116 61.6984C62.116 63.8447 63.8559 65.5847 66.0023 65.5847Z" fill="white" stroke="#263238" stroke-linecap="round" stroke-linejoin="round"/>
<path d="M10.2622 24.0513H19.0843" stroke="#263238" stroke-miterlimit="10"/>
<path d="M10.2622 25.5493H19.0843" stroke="#263238" stroke-miterlimit="10"/>
<path d="M10.2622 27.0513H19.0843" stroke="#263238" stroke-miterlimit="10"/>
<path d="M10.2622 28.5532H19.0843" stroke="#263238" stroke-miterlimit="10"/>
<path d="M78.8962 27.4778H87.5181L97.6641 36.3518" stroke="#263238" stroke-linecap="round" stroke-linejoin="round"/>
<path d="M99.281 33.8152H108.103" stroke="#263238" stroke-miterlimit="10"/>
<path d="M99.281 35.3171H108.103" stroke="#263238" stroke-miterlimit="10"/>
<path d="M99.281 36.8191H108.103" stroke="#263238" stroke-miterlimit="10"/>
<path d="M99.281 38.3171H108.103" stroke="#263238" stroke-miterlimit="10"/>
<path d="M99.281 59.4253H108.103" stroke="#263238" stroke-miterlimit="10"/>
<path d="M99.281 60.9268H108.103" stroke="#263238" stroke-miterlimit="10"/>
<path d="M99.281 62.4287H108.103" stroke="#263238" stroke-miterlimit="10"/>
<path d="M99.281 63.9307H108.103" stroke="#263238" stroke-miterlimit="10"/>
<path d="M14.5862 89.0957H23.4083" stroke="#263238" stroke-miterlimit="10"/>
<path d="M14.5862 90.5972H23.4083" stroke="#263238" stroke-miterlimit="10"/>
<path d="M14.5862 92.0991H23.4083" stroke="#263238" stroke-miterlimit="10"/>
<path d="M14.5862 93.5977H23.4083" stroke="#263238" stroke-miterlimit="10"/>
<path d="M70.0222 57.1443L73.5711 53.0874H87.774L97.9163 61.4571" stroke="#263238" stroke-miterlimit="10"/>
<path d="M18.7988 69.3188V88.3352" stroke="#263238" stroke-miterlimit="10"/>
<path d="M1.62174 101.478C2.33745 101.793 4.0915 101.752 4.0915 101.752C4.0915 101.752 3.72066 100.606 3.68358 100.536C3.31274 99.7313 2.08157 98.4037 1.08774 98.5372C0.923767 98.564 0.767278 98.625 0.628459 98.7163C0.48964 98.8076 0.371607 98.9271 0.282047 99.067C0.192487 99.2069 0.133407 99.3642 0.108657 99.5285C0.083908 99.6927 0.0940444 99.8604 0.138404 100.021C0.305279 100.703 1.00986 101.211 1.62174 101.478Z" fill="#263238"/>
<path d="M24.5615 95.5186C23.5677 95.411 22.3922 96.7683 22.0287 97.5841C21.9954 97.6546 21.632 98.8116 21.6579 98.8116H21.6802C21.491 99.023 21.3093 99.2529 21.0831 99.5087C20.7123 99.9871 20.2599 100.529 19.826 101.152C19.3524 101.817 18.9178 102.509 18.5244 103.224C18.0785 104.023 17.7062 104.861 17.4119 105.728V105.757C17.4119 105.464 17.4119 104.645 17.4119 104.585C17.2969 103.703 16.5552 102.06 15.5577 101.878C15.3937 101.853 15.2262 101.863 15.0662 101.906C14.9061 101.95 14.7569 102.027 14.6283 102.132C14.4997 102.236 14.3946 102.367 14.3196 102.515C14.2446 102.663 14.2015 102.825 14.193 102.991C14.1374 103.692 14.6454 104.396 15.1424 104.845C15.7023 105.346 17.2561 105.831 17.3674 105.869C17.0899 106.757 16.8707 107.662 16.711 108.579C16.6183 109.113 16.5367 109.655 16.4662 110.196C16.4662 109.944 16.4662 109.718 16.4662 109.684C16.3513 108.802 15.6133 107.163 14.6306 106.981C14.4667 106.955 14.2992 106.964 14.1391 107.008C13.979 107.051 13.8298 107.128 13.7014 107.233C13.5729 107.338 13.4681 107.469 13.3937 107.617C13.3193 107.766 13.277 107.928 13.2697 108.094C13.2103 108.798 13.7184 109.499 14.2153 109.948C14.7122 110.396 16.0361 110.838 16.3847 110.949L16.3068 111.572C16.1881 112.573 16.0732 113.574 15.9359 114.539C15.8877 114.884 15.8247 115.221 15.7654 115.558C15.7654 115.336 15.7654 115.147 15.7654 115.117C15.6541 114.235 14.9124 112.595 13.9112 112.414C13.7473 112.388 13.5798 112.397 13.4197 112.441C13.2596 112.484 13.1104 112.561 12.982 112.666C12.8535 112.771 12.7487 112.902 12.6743 113.05C12.5999 113.198 12.5576 113.361 12.5502 113.526C12.4909 114.227 13.0027 114.932 13.4996 115.38C13.9965 115.829 15.1906 116.226 15.6059 116.363C15.5317 116.708 15.4613 117.049 15.3723 117.379C15.3092 117.605 15.2647 117.824 15.1869 118.047L14.9755 118.703C14.8272 119.115 14.6751 119.541 14.5194 119.938C14.4118 120.216 14.3043 120.479 14.1967 120.743C14.2524 120.402 14.3414 119.73 14.3451 119.671C14.3323 118.889 14.1204 118.123 13.7295 117.446C13.737 117.36 13.737 117.273 13.7295 117.186C13.7085 117.022 13.6531 116.864 13.5669 116.722C13.4808 116.58 13.3658 116.458 13.2294 116.364C13.093 116.269 12.9383 116.204 12.7753 116.174C12.6123 116.143 12.4446 116.147 12.2832 116.185C11.3191 116.441 10.7072 118.132 10.6627 119.022C10.6627 119.074 10.6961 119.649 10.722 120.008C10.6738 119.797 10.6293 119.593 10.5774 119.378C10.4736 118.952 10.3623 118.529 10.2399 118.076C10.1769 117.858 10.1101 117.639 10.0434 117.416C9.97665 117.194 9.88765 116.968 9.80977 116.741C9.61694 116.219 9.39814 115.699 9.16823 115.184C9.53906 115.091 10.8629 114.757 11.3932 114.35C11.9235 113.942 12.4798 113.282 12.4761 112.577C12.4802 112.411 12.4495 112.247 12.386 112.094C12.3224 111.941 12.2275 111.803 12.1072 111.689C11.9869 111.575 11.8441 111.487 11.6879 111.432C11.5316 111.377 11.3656 111.355 11.2004 111.368C10.2066 111.476 9.34623 113.055 9.16823 113.93C9.16823 113.982 9.09777 114.624 9.07181 114.976C8.93089 114.665 8.78998 114.357 8.63423 114.045C8.19294 113.152 7.71456 112.262 7.2436 111.372C7.09898 111.101 6.95806 110.827 6.81714 110.556C6.95064 110.523 8.53039 110.159 9.12373 109.703C9.65031 109.299 10.2103 108.635 10.2066 107.93C10.2107 107.765 10.18 107.6 10.1165 107.447C10.0529 107.294 9.95795 107.156 9.83769 107.042C9.71742 106.928 9.57456 106.841 9.41835 106.785C9.26214 106.73 9.09607 106.708 8.93089 106.721C7.93706 106.829 7.07673 108.409 6.89873 109.28C6.89873 109.347 6.80231 110.27 6.79118 110.504C6.47968 109.903 6.17189 109.302 5.89747 108.694C5.51726 107.879 5.19145 107.039 4.92218 106.18C4.98522 106.18 6.63172 105.809 7.23989 105.323C7.77018 104.919 8.33014 104.255 8.32273 103.551C8.32741 103.385 8.29721 103.221 8.23408 103.068C8.17096 102.915 8.07633 102.777 7.95635 102.663C7.83637 102.549 7.69373 102.461 7.53771 102.406C7.38168 102.351 7.21577 102.329 7.05077 102.342C6.05693 102.449 5.1966 104.033 5.01489 104.904C5.01489 104.971 4.91476 105.965 4.91105 106.147C4.91105 106.095 4.87397 106.047 4.85914 105.995C4.6113 105.127 4.4425 104.238 4.3548 103.339C4.29918 102.843 4.27322 102.368 4.25839 101.904C4.5736 101.864 6.00501 101.674 6.60206 101.315C7.1991 100.955 7.79985 100.373 7.87031 99.6719C7.89273 99.5077 7.8804 99.3406 7.83412 99.1815C7.78784 99.0224 7.70864 98.8748 7.60166 98.7482C7.49468 98.6216 7.36229 98.519 7.21309 98.4468C7.06389 98.3747 6.9012 98.3347 6.73556 98.3295C5.73801 98.3295 4.7108 99.8128 4.43638 100.651C4.43638 100.699 4.32143 101.185 4.25097 101.537C4.25097 101.33 4.25097 101.111 4.25097 100.91C4.25097 100.169 4.29918 99.4643 4.34739 98.8524C4.37705 98.5075 4.41043 98.1923 4.4438 97.8993C4.73305 97.7028 5.88635 96.887 6.24235 96.3047C6.59835 95.7225 6.87277 94.9178 6.61318 94.2614C6.55777 94.1053 6.47009 93.9626 6.35583 93.8426C6.24158 93.7226 6.10332 93.6281 5.95008 93.5651C5.79683 93.5021 5.63203 93.4721 5.46643 93.4771C5.30082 93.4821 5.13812 93.5219 4.98893 93.594C4.10264 94.0501 3.87643 95.8189 4.01363 96.7127C4.01363 96.7905 4.36222 97.955 4.38447 97.9438H4.40301C4.36222 98.2257 4.32514 98.5297 4.28805 98.8598C4.22872 99.4717 4.16568 100.161 4.14713 100.922C4.11997 101.737 4.13978 102.553 4.20647 103.365C4.27792 104.277 4.42931 105.18 4.65889 106.065V106.098C4.50314 105.85 4.0396 105.175 3.9988 105.127C3.41659 104.456 1.89247 103.495 0.972797 103.885C0.822415 103.954 0.688304 104.055 0.579103 104.179C0.469902 104.304 0.388033 104.45 0.338773 104.609C0.289513 104.767 0.273954 104.934 0.293098 105.098C0.312241 105.263 0.365661 105.422 0.44992 105.564C0.791087 106.18 1.60322 106.484 2.25959 106.581C3.00126 106.688 4.56618 106.236 4.69226 106.21C4.94909 107.105 5.26499 107.982 5.63789 108.835C5.85297 109.332 6.0866 109.825 6.32393 110.319C6.18301 110.111 6.05322 109.925 6.03097 109.9C5.44876 109.228 3.92834 108.268 3.00867 108.657C2.85801 108.726 2.72354 108.826 2.61404 108.95C2.50453 109.074 2.42243 109.22 2.3731 109.379C2.32377 109.537 2.30831 109.703 2.32773 109.868C2.34715 110.033 2.40101 110.191 2.4858 110.333C2.82326 110.953 3.63538 111.257 4.29547 111.353C4.95555 111.45 6.30539 111.09 6.65768 110.982L6.93581 111.55C7.38823 112.451 7.84435 113.348 8.26339 114.242C8.41173 114.557 8.54893 114.872 8.68244 115.188C8.55635 115.002 8.44881 114.846 8.43027 114.817C7.84435 114.142 6.32393 113.185 5.40426 113.574C5.2536 113.643 5.11913 113.743 5.00962 113.867C4.90011 113.992 4.81802 114.138 4.76869 114.296C4.71936 114.454 4.7039 114.621 4.72332 114.785C4.74274 114.95 4.7966 115.108 4.88139 115.251C5.22255 115.87 6.03468 116.174 6.69106 116.27C7.34743 116.367 8.57119 116.041 8.99023 115.926C9.12002 116.252 9.24981 116.578 9.36106 116.901C9.43152 117.123 9.51681 117.335 9.57614 117.561C9.63548 117.787 9.69852 118.006 9.75785 118.225C9.86169 118.651 9.96923 119.089 10.0582 119.508C10.125 119.801 10.1806 120.079 10.2362 120.357C10.0916 120.042 9.79865 119.43 9.76898 119.382C9.29431 118.64 7.91481 117.45 6.96918 117.694C6.80951 117.74 6.66116 117.818 6.53383 117.924C6.4065 118.031 6.30305 118.163 6.23025 118.312C6.15745 118.461 6.11693 118.624 6.11135 118.79C6.10576 118.955 6.13524 119.121 6.19785 119.274C6.43889 119.934 7.19539 120.361 7.82952 120.554C8.53039 120.769 10.0842 120.572 10.277 120.554C10.3697 121.013 10.455 121.466 10.5292 121.896C10.7925 123.379 10.9519 124.622 11.0521 125.489C11.0706 125.645 11.0854 125.782 11.1003 125.916H8.09652L9.20902 147.309H14.3265L15.439 125.916H12.6429L12.706 125.786C13.0768 124.985 13.6219 123.835 14.1893 122.43C14.371 121.985 14.5602 121.507 14.7456 121.017C14.931 121.054 16.4662 121.366 17.1819 121.206C17.8309 121.058 18.6171 120.691 18.91 120.049C18.9837 119.901 19.0252 119.738 19.0318 119.572C19.0384 119.407 19.01 119.242 18.9484 119.088C18.8868 118.934 18.7934 118.794 18.6743 118.679C18.5553 118.563 18.4132 118.474 18.2574 118.418C17.3117 118.099 15.8692 119.159 15.3389 119.901C15.3092 119.945 15.02 120.442 14.8457 120.758L15.0719 120.153C15.2202 119.741 15.3612 119.326 15.5095 118.881C15.5762 118.662 15.643 118.444 15.706 118.221C15.7691 117.999 15.8247 117.761 15.884 117.528C16.0138 116.99 16.1177 116.434 16.2104 115.874C16.5812 116.007 17.8569 116.452 18.5244 116.408C19.1919 116.363 20.0077 116.115 20.4045 115.525C20.5001 115.39 20.5659 115.236 20.5978 115.073C20.6296 114.91 20.6267 114.743 20.5892 114.581C20.5517 114.42 20.4806 114.268 20.3804 114.136C20.2801 114.004 20.1531 113.895 20.0077 113.816C19.1214 113.356 17.5342 114.186 16.9001 114.828C16.863 114.869 16.4588 115.369 16.2437 115.651C16.2957 115.314 16.3513 114.976 16.3921 114.635C16.5182 113.645 16.6109 112.64 16.7073 111.635C16.7369 111.331 16.7703 111.023 16.8037 110.719C16.9298 110.767 18.4502 111.331 19.1956 111.279C19.8594 111.231 20.6789 110.99 21.0757 110.4C21.1713 110.264 21.2372 110.11 21.2691 109.947C21.301 109.784 21.2981 109.616 21.2606 109.455C21.2232 109.293 21.152 109.141 21.0518 109.009C20.9515 108.876 20.8245 108.767 20.6789 108.687C19.7926 108.231 18.2055 109.058 17.5713 109.699C17.5231 109.747 16.9483 110.471 16.8074 110.663C16.8816 109.989 16.9557 109.317 17.0596 108.657C17.1945 107.768 17.3864 106.889 17.6344 106.024C17.6937 106.047 19.2772 106.644 20.0411 106.592C20.7049 106.543 21.5244 106.299 21.9249 105.709C22.02 105.573 22.0854 105.419 22.1169 105.256C22.1485 105.093 22.1455 104.926 22.108 104.764C22.0706 104.603 21.9997 104.451 21.8998 104.318C21.7999 104.186 21.6732 104.076 21.5281 103.996C20.6381 103.54 19.051 104.367 18.4168 105.012C18.3686 105.06 17.7456 105.839 17.6455 105.987C17.6455 105.939 17.6677 105.883 17.6863 105.835C17.9564 104.974 18.3052 104.14 18.7283 103.343C18.9545 102.898 19.1956 102.487 19.4403 102.09C19.7259 102.231 21.0275 102.865 21.721 102.891C22.4144 102.917 23.2414 102.768 23.6864 102.223C23.7957 102.099 23.8776 101.952 23.9268 101.794C23.9759 101.635 23.9912 101.468 23.9716 101.304C23.952 101.139 23.898 100.98 23.8131 100.838C23.7282 100.695 23.6143 100.572 23.4787 100.477C22.648 99.9241 20.9756 100.588 20.2784 101.144C20.2413 101.174 19.9076 101.515 19.6369 101.782C19.7518 101.608 19.8631 101.411 19.9743 101.255C20.3934 100.625 20.8124 100.076 21.1907 99.5903C21.4057 99.3196 21.6097 99.0749 21.7988 98.8487C22.1697 98.8487 23.5603 98.8005 24.1796 98.5112C24.7989 98.222 25.4701 97.6991 25.6147 97.0279C25.6653 96.8583 25.6769 96.6796 25.6488 96.5049C25.6207 96.3303 25.5535 96.1642 25.4523 96.0191C25.351 95.8741 25.2184 95.7537 25.0641 95.667C24.9099 95.5804 24.7381 95.5296 24.5615 95.5186ZM13.5774 122.17C12.9767 123.55 12.4241 124.677 12.0311 125.46L11.8123 125.886H11.7455C11.7455 125.73 11.7047 125.564 11.6788 125.378C11.5564 124.499 11.3673 123.246 11.0706 121.755C10.9779 121.284 10.8704 120.783 10.7554 120.272C11.2219 120.086 11.6764 119.872 12.1164 119.63C12.6281 120.186 13.9372 120.832 14.1077 120.913C13.9297 121.347 13.7517 121.774 13.5774 122.17Z" fill="#263238"/>
<path d="M19.3328 101.864C19.3328 101.864 19.6517 100.699 19.6628 100.625C19.7852 99.7425 19.5034 97.9625 18.6059 97.5286C18.4548 97.4606 18.291 97.4253 18.1253 97.4248C17.9595 97.4244 17.7956 97.4589 17.6441 97.526C17.4926 97.5932 17.3569 97.6916 17.246 97.8147C17.135 97.9378 17.0513 98.083 17.0002 98.2406C16.7592 98.9044 17.0633 99.724 17.4267 100.273C17.8494 100.929 19.3328 101.864 19.3328 101.864Z" fill="#263238"/>
<path d="M83.1423 156.851C93.4686 156.851 101.84 154.392 101.84 151.359C101.84 148.326 93.4686 145.867 83.1423 145.867C72.816 145.867 64.4448 148.326 64.4448 151.359C64.4448 154.392 72.816 156.851 83.1423 156.851Z" fill="#92E3A9"/>
<path opacity="0.5" d="M83.1423 156.851C93.4686 156.851 101.84 154.392 101.84 151.359C101.84 148.326 93.4686 145.867 83.1423 145.867C72.816 145.867 64.4448 148.326 64.4448 151.359C64.4448 154.392 72.816 156.851 83.1423 156.851Z" fill="white"/>
<path d="M81.7699 63.8269C80.9111 62.6929 79.6374 61.946 78.2285 61.7502C75.9515 61.498 74.0306 63.0666 73.1184 64.079C72.2061 65.0914 72.8143 67.0457 72.7142 67.4684C72.614 67.8912 71.3977 69.1854 71.4496 69.5933C71.5015 70.0012 72.106 70.0457 72.106 70.0457C72.106 70.0457 72.614 72.4265 72.9181 72.9827C73.2222 73.539 74.0306 73.6391 74.3347 73.6391C74.5544 73.6581 74.7635 73.742 74.9355 73.8802L75.4064 75.523L82.3262 73.9432L82.1222 71.6663C82.1222 71.6663 83.8429 69.3894 83.6908 67.1644C83.6356 66.5011 83.4349 65.8581 83.1029 65.2812C82.7709 64.7044 82.3157 64.2078 81.7699 63.8269Z" fill="white" stroke="#263238" stroke-linecap="round" stroke-linejoin="round"/>
<path d="M80.3536 64.7871C78.8702 65.0393 76.8121 62.9144 75.5327 63.8266C75.5327 63.8266 73.8121 65.2432 73.9159 65.8996C74.0197 66.556 74.8244 67.064 74.7725 67.6685C74.7206 68.2729 74.9765 69.5412 75.2806 68.985C75.5846 68.4287 75.4326 67.8205 75.8887 67.6685C76.3448 67.5164 77.0012 68.3286 77.1014 69.0851C77.2015 69.8416 77.0494 70.1976 77.4536 70.7538C77.739 71.1283 78.1063 71.4325 78.5272 71.6433C78.9482 71.8541 79.4118 71.9659 79.8826 71.9702C80.6305 71.9214 81.3741 71.8198 82.1076 71.6661C82.1076 71.6661 83.8283 69.3892 83.6762 67.1642C83.621 66.5009 83.4203 65.8579 83.0883 65.281C82.7562 64.7042 82.3011 64.2076 81.7553 63.8266C81.7553 63.8266 81.8221 64.5238 80.3536 64.7871Z" fill="white" stroke="#263238" stroke-linecap="round" stroke-linejoin="round"/>
<path d="M75.4956 70.3498C75.4956 70.3498 75.6477 71.5142 76.3559 71.3103C77.0642 71.1063 77.2163 70.0977 77.2163 70.0977" stroke="#263238" stroke-linecap="round" stroke-linejoin="round"/>
<path d="M73.3224 77.0807C73.6101 76.6054 73.9469 76.1617 74.3274 75.7568C74.9837 75.0485 78.7069 73.6542 80.4276 73.5503C82.1482 73.4465 83.5611 74.8631 84.3695 75.5232C84.5941 75.6725 84.7665 75.8881 84.8629 76.14C84.9592 76.3919 84.9747 76.6675 84.9072 76.9286C82.9273 76.3177 80.8383 76.1444 78.7848 76.4206C76.8439 76.6735 74.9187 77.035 73.0183 77.5034L73.3224 77.0807Z" fill="#92E3A9" stroke="#263238" stroke-linecap="round" stroke-linejoin="round"/>
<path d="M64.1741 106.832C64.1741 106.832 64.6302 109.955 64.7822 110.715C64.9343 111.475 66.0171 113.934 66.6364 113.352C67.2557 112.77 67.4634 110.793 67.1593 109.803C66.8552 108.813 66.3991 106.988 66.3249 106.758C66.2507 106.528 64.1741 106.832 64.1741 106.832Z" fill="white" stroke="#263238" stroke-linecap="round" stroke-linejoin="round"/>
<path d="M63.3063 95.7446C62.9415 96.9618 62.7212 98.2177 62.6499 99.4863C62.7154 101.387 62.9174 103.281 63.2544 105.153C63.462 106.503 64.3669 107.867 65.0752 107.834C67.2519 107.734 66.4435 103.688 66.8477 101.359C67.2519 99.0302 67.5894 98.8819 67.8082 96.3009" fill="#92E3A9"/>
<path d="M63.3063 95.7446C62.9415 96.9618 62.7212 98.2177 62.6499 99.4863C62.7154 101.387 62.9174 103.281 63.2544 105.153C63.462 106.503 64.3669 107.867 65.0752 107.834C67.2519 107.734 66.4435 103.688 66.8477 101.359C67.2519 99.0302 67.5894 98.8819 67.8082 96.3009" stroke="#263238" stroke-linecap="round" stroke-linejoin="round"/>
<path d="M73.7824 148.199C73.3442 148.197 72.9106 148.288 72.5104 148.466C71.8726 148.759 71.7131 149.156 71.9282 149.553C72.1433 149.95 72.6142 150.906 73.3856 151.381C74.1569 151.856 75.2138 152.097 75.822 152.494C76.4301 152.89 77.5723 152.757 77.9728 152.041C78.3733 151.325 77.8912 149.735 77.8912 149.735C76.9973 149.513 76.1199 149.229 75.2657 148.885C74.3386 148.466 73.7824 148.199 73.7824 148.199Z" fill="white" stroke="#263238" stroke-linecap="round" stroke-linejoin="round"/>
<path d="M77.9727 152.041C78.0037 151.977 78.0297 151.912 78.0505 151.844C77.802 152.068 77.5063 152.233 77.1853 152.326C76.8643 152.42 76.5262 152.44 76.1964 152.386C75.6661 152.278 74.713 151.618 74.1012 151.377C73.4013 151.034 72.8192 150.49 72.4287 149.816C72.2433 149.472 72.1357 149.093 72.1135 148.703C71.9812 148.794 71.8885 148.932 71.8541 149.089C71.8197 149.246 71.8461 149.41 71.9281 149.549C72.1394 149.945 72.6141 150.902 73.3854 151.377C74.1568 151.852 75.2137 152.093 75.8218 152.489C76.43 152.886 77.5722 152.76 77.9727 152.041Z" fill="white" stroke="#263238" stroke-linecap="round" stroke-linejoin="round"/>
<path d="M83.9692 148.877C83.9692 148.877 84.1547 150.123 84.1547 150.628C84.1547 151.132 85.0039 152.033 85.879 152.033C86.7542 152.033 87.6257 151.688 87.9965 151.24C88.3673 150.791 88.2375 149.222 88.2375 149.222C88.2375 149.222 84.7888 149.753 83.9692 148.877Z" fill="white" stroke="#263238" stroke-linecap="round" stroke-linejoin="round"/>
<path d="M87.9963 151.24C88.1037 151.084 88.1712 150.905 88.1929 150.717C87.7701 151.188 86.9209 151.874 85.9679 151.689C85.2345 151.502 84.5923 151.059 84.1582 150.439C84.1582 150.509 84.1582 150.572 84.1582 150.628C84.1582 151.132 85.0074 152.034 85.8826 152.034C86.7577 152.034 87.6255 151.689 87.9963 151.24Z" fill="white" stroke="#263238" stroke-linecap="round" stroke-linejoin="round"/>
<path d="M69.3767 102.019C69.3767 102.019 69.577 106.165 69.4768 107.953C69.3767 109.74 69.6289 118.777 69.8477 121.762C70.0665 124.748 70.708 131.475 71.1604 134.204C71.6128 136.933 74.0084 147.661 74.0084 147.661C74.0084 147.661 73.5226 148.633 73.6376 149.037C73.7526 149.441 74.7279 150.495 76.1852 150.658C77.6426 150.821 77.9244 150.495 78.21 149.846C78.4955 149.197 78.6142 147.498 78.6958 146.449C78.7774 145.399 79.6525 143.26 79.3484 140.426C79.0444 137.593 79.6006 127.729 79.6006 127.729L80.0567 120.95C80.0567 120.95 80.3608 129.246 80.6649 130.51C80.969 131.775 83.2607 145.429 83.5203 146.197C83.7799 146.964 83.5611 148.34 83.7206 148.666C83.88 148.993 84.0061 149.716 84.4103 150.042C84.8145 150.369 86.5538 150.528 87.2027 150.242C87.8517 149.957 88.3745 149.597 88.3745 149.312C88.3745 149.026 88.6193 147.695 88.5377 146.964C88.4561 146.234 88.2559 145.629 88.2559 145.429C88.2559 145.229 88.8603 134.456 88.8603 131.475C88.8603 128.493 88.4895 125.148 88.4895 125.148C88.4895 125.148 89.6539 116.348 89.8542 112.807C90.0316 110.309 89.9471 107.8 89.602 105.32C89.4018 104.259 89.0458 101.982 89.0458 101.982C89.0458 101.982 84.796 103.299 81.4585 103.399C78.121 103.499 76.9566 103.751 75.0839 103.299C73.2111 102.846 70.734 102.186 70.5337 102.034C70.3335 101.882 69.1728 101.311 69.3767 102.019Z" fill="#263238" stroke="#263238" stroke-linecap="round" stroke-linejoin="round"/>
<path d="M80.0493 120.935L80.9097 113.5" stroke="white" stroke-linecap="round" stroke-linejoin="round"/>
<path d="M80.7058 115.221L83.5056 114.064" stroke="white" stroke-linecap="round" stroke-linejoin="round"/>
<path d="M88.4969 125.133L86.3943 134.46" stroke="white" stroke-linecap="round" stroke-linejoin="round"/>
<path d="M95.3018 76.4131C95.3018 76.4131 95.9582 74.4477 96.1955 73.8507C96.4328 73.2536 96.9705 72.601 96.9705 71.8296C96.9705 71.0583 96.6702 69.3265 96.4922 69.8049C96.3222 70.3431 96.242 70.9056 96.2548 71.4699C96.2657 71.7661 96.1826 72.0582 96.0175 72.3043C96.0175 72.3043 95.3018 70.7579 94.7084 70.6986C94.1151 70.6393 94.1114 70.8173 94.3376 71.0694C94.6364 71.3097 94.8857 71.6057 95.0719 71.9409C95.2181 72.1556 95.319 72.3979 95.3685 72.6529C95.3685 72.6529 94.3561 71.5218 93.8852 71.5218C93.4142 71.5218 92.9915 71.7592 93.2882 71.9409C93.5722 72.0774 93.8726 72.177 94.1819 72.2376L94.6009 73.0719C94.6009 73.0719 93.5885 72.7011 93.2882 73.0126C92.9878 73.3241 93.5885 73.4242 93.5885 73.4242L94.0039 73.4836C93.711 73.9735 93.5287 74.5215 93.4699 75.0893C93.4904 75.6883 93.5499 76.2854 93.6479 76.8767L95.3018 76.4131Z" fill="white" stroke="#263238" stroke-linecap="round" stroke-linejoin="round"/>
<path d="M94.2896 75.4005C94.4028 74.8442 94.5833 74.3038 94.8273 73.7911C95.1239 73.3164 95.8396 73.0198 96.255 72.5414C96.6703 72.063 96.9113 71.351 97.208 71.6477C97.5047 71.9444 97.2673 72.4821 96.9707 72.9011C96.674 73.3201 95.6616 74.3844 95.5986 75.3412" fill="white"/>
<path d="M94.2896 75.4005C94.4028 74.8442 94.5833 74.3038 94.8273 73.7911C95.1239 73.3164 95.8396 73.0198 96.255 72.5414C96.6703 72.063 96.9113 71.351 97.208 71.6477C97.5047 71.9444 97.2673 72.4821 96.9707 72.9011C96.674 73.3201 95.6616 74.3844 95.5986 75.3412" stroke="#263238" stroke-linecap="round" stroke-linejoin="round"/>
<path d="M93.1584 78.1374L93.2771 76.3537C93.6618 76.151 94.0981 76.0671 94.5305 76.1127C95.3019 76.172 95.5392 76.4835 95.5392 76.4835L95.5985 78.4489L93.1584 78.1374Z" fill="#92E3A9" stroke="#263238" stroke-linecap="round" stroke-linejoin="round"/>
<path d="M67.2335 97.3429C67.3367 97.2429 67.4276 97.1308 67.5042 97.0092C67.5042 97.0092 67.5042 97.0463 67.5265 97.1019C67.8973 95.9894 68.5685 94.38 68.5685 94.38C68.5685 94.38 68.7688 101.967 69.4289 102.776C69.9369 103.406 70.9122 103.584 71.6539 103.744C72.6477 103.955 73.6452 104.163 74.6502 104.307C78.1397 104.812 81.6367 104.608 85.1188 104.159C86.1349 104.029 87.8111 104.096 88.5453 103.232C88.9193 102.757 89.116 102.167 89.1016 101.563C89.1016 101.359 89.5058 92.9115 89.5058 92.9115C89.5058 92.9115 93.8557 96.1488 94.7679 96.0487C95.6802 95.9486 96.2847 95.1365 96.1845 92.7112C96.0844 90.286 95.8137 78.3933 95.5244 77.8371C95.2352 77.2808 93.6035 77.1807 92.9954 77.889C92.3872 78.5973 92.1054 84.475 92.1054 84.475C92.1054 84.475 90.1696 80.266 89.3612 78.9496C88.5528 77.6331 83.6466 76.0682 83.6466 76.0682C83.6466 76.0682 80.5613 75.0558 77.5761 75.6973C75.3837 76.1355 73.2771 76.9271 71.3387 78.041C69.8219 78.9014 66.8367 79.7098 66.3287 80.7704C65.8206 81.8309 64.0036 93.0635 63.5993 94.532C63.4807 94.9511 63.3472 95.4146 63.2285 95.9115C63.2795 96.1893 63.3616 96.4605 63.4733 96.7199" fill="#92E3A9"/>
<path d="M67.2335 97.3429C67.3367 97.2429 67.4276 97.1308 67.5042 97.0092C67.5042 97.0092 67.5042 97.0463 67.5265 97.1019C67.8973 95.9894 68.5685 94.38 68.5685 94.38C68.5685 94.38 68.7688 101.967 69.4289 102.776C69.9369 103.406 70.9122 103.584 71.6539 103.744C72.6477 103.955 73.6452 104.163 74.6502 104.307C78.1397 104.812 81.6367 104.608 85.1188 104.159C86.1349 104.029 87.8111 104.096 88.5453 103.232C88.9193 102.757 89.116 102.167 89.1016 101.563C89.1016 101.359 89.5058 92.9115 89.5058 92.9115C89.5058 92.9115 93.8557 96.1488 94.7679 96.0487C95.6802 95.9486 96.2847 95.1365 96.1845 92.7112C96.0844 90.286 95.8137 78.3933 95.5244 77.8371C95.2352 77.2808 93.6035 77.1807 92.9954 77.889C92.3872 78.5973 92.1054 84.475 92.1054 84.475C92.1054 84.475 90.1696 80.266 89.3612 78.9496C88.5528 77.6331 83.6466 76.0682 83.6466 76.0682C83.6466 76.0682 80.5613 75.0558 77.5761 75.6973C75.3837 76.1355 73.2771 76.9271 71.3387 78.041C69.8219 78.9014 66.8367 79.7098 66.3287 80.7704C65.8206 81.8309 64.0036 93.0635 63.5993 94.532C63.4807 94.9511 63.3472 95.4146 63.2285 95.9115C63.2795 96.1893 63.3616 96.4605 63.4733 96.7199" stroke="#263238" stroke-linecap="round" stroke-linejoin="round"/>
<path d="M85.5935 92.5515L87.1176 91.3018" stroke="#263238" stroke-miterlimit="10"/>
<path d="M75.377 100.94L84.3623 93.564" stroke="#263238" stroke-miterlimit="10"/>
<path d="M74.1494 99.1858L78.0061 96.0337" stroke="#263238" stroke-miterlimit="10"/>
<path d="M67.5265 101.433L65.3015 105.564C65.1231 105.894 65.0605 106.274 65.1235 106.644L66.2805 113.319C66.2783 113.343 66.2809 113.367 66.2882 113.391C66.2955 113.414 66.3073 113.436 66.323 113.455C66.3386 113.473 66.3578 113.489 66.3795 113.5C66.4012 113.512 66.4248 113.519 66.4492 113.521C66.4735 113.523 66.4981 113.52 66.5214 113.513C66.5447 113.506 66.5664 113.494 66.5852 113.478C66.6039 113.463 66.6194 113.443 66.6308 113.422C66.6421 113.4 66.6491 113.376 66.6513 113.352L68.7131 107.808C68.8 107.571 68.8305 107.317 68.8021 107.066L68.1272 101.552C68.135 101.513 68.1349 101.472 68.127 101.433C68.1191 101.393 68.1036 101.356 68.0812 101.322C68.0588 101.289 68.0301 101.26 67.9966 101.238C67.9631 101.216 67.9256 101.2 67.8862 101.192C67.8065 101.177 67.7238 101.193 67.6564 101.238C67.5889 101.284 67.5422 101.354 67.5265 101.433Z" fill="#263238" stroke="#263238" stroke-linecap="round" stroke-linejoin="round"/>
<path d="M92.1016 84.4751L94.3414 89.6631" stroke="#263238" stroke-linecap="round" stroke-linejoin="round"/>
<path d="M67.9045 111.323C68.2315 110.653 68.4518 109.936 68.5572 109.198C68.6351 108.242 68.3681 108.316 68.1382 108.854C67.9082 109.391 67.9045 111.323 67.9045 111.323Z" fill="white" stroke="#263238" stroke-linecap="round" stroke-linejoin="round"/>
<path d="M66.8366 113.074C66.8366 113.074 67.7526 112.009 67.9046 111.323C68.0567 110.637 68.4349 109.269 68.0567 109.421C67.6784 109.573 67.5227 110.333 67.5227 110.333C67.4603 110.291 67.3882 110.265 67.3131 110.258C67.2379 110.252 67.1624 110.264 67.0936 110.295C67.0248 110.326 66.965 110.374 66.9201 110.435C66.8751 110.495 66.8463 110.566 66.8366 110.641C66.6846 111.249 66.8366 113.074 66.8366 113.074Z" fill="white" stroke="#263238" stroke-linecap="round" stroke-linejoin="round"/>
<path d="M67.5227 110.333C67.5227 110.333 67.7859 111.49 67.4485 112.258" stroke="#263238" stroke-linecap="round" stroke-linejoin="round"/>
<path d="M89.5093 92.9115L89.7132 86.1846" stroke="#263238" stroke-linecap="round" stroke-linejoin="round"/>
<path d="M89.6096 90.7863L90.4217 86.9927" stroke="#263238" stroke-linecap="round" stroke-linejoin="round"/>
<path d="M68.5685 94.3799L68.3645 86.7407" stroke="#263238" stroke-linecap="round" stroke-linejoin="round"/>
<path d="M42.7807 156.851C53.107 156.851 61.4781 154.392 61.4781 151.359C61.4781 148.326 53.107 145.867 42.7807 145.867C32.4544 145.867 24.0833 148.326 24.0833 151.359C24.0833 154.392 32.4544 156.851 42.7807 156.851Z" fill="#92E3A9"/>
<path opacity="0.5" d="M42.7807 156.851C53.107 156.851 61.4781 154.392 61.4781 151.359C61.4781 148.326 53.107 145.867 42.7807 145.867C32.4544 145.867 24.0833 148.326 24.0833 151.359C24.0833 154.392 32.4544 156.851 42.7807 156.851Z" fill="white"/>
<path d="M50.4382 75.1007C50.4721 74.4604 50.4323 73.8183 50.3196 73.1872C50.1379 72.5308 49.7188 72.1117 49.7782 71.8707C49.8375 71.6297 50.5569 71.8114 50.7386 72.2897C50.9203 72.7681 51.217 73.6062 51.217 73.6062V71.752C51.217 71.4517 50.4976 71.3812 50.2602 71.0957C50.0229 70.8101 50.1972 70.6766 50.3789 70.6766C50.5606 70.6766 51.2763 70.6136 51.6954 70.9733C51.8495 71.1295 51.967 71.318 52.0395 71.5251C52.1119 71.7322 52.1375 71.9529 52.1144 72.1711C52.1145 72.3519 52.0946 72.5323 52.0551 72.7088C52.0551 72.7088 53.0118 72.8274 53.3085 73.4875C53.5542 74.1369 53.5969 74.8456 53.4309 75.5197C53.3085 76.0611 53.7275 77.1365 53.7275 77.1365L52.4704 78.0933C52.4704 78.0933 51.4543 77.0179 50.9166 76.4171C50.5955 76.0551 50.4245 75.5844 50.4382 75.1007Z" fill="white" stroke="#263238" stroke-linecap="round" stroke-linejoin="round"/>
<path d="M53.7276 77.1328L52.4705 78.0896C52.4705 78.0896 59.3865 92.1813 60.0429 92.6671C60.6993 93.1528 61.5262 93.2678 62.4978 91.9513C63.4694 90.6349 63.3359 89.7968 62.6758 88.3023C62.0157 86.8079 53.7276 77.1328 53.7276 77.1328Z" fill="#92E3A9" stroke="#263238" stroke-linecap="round" stroke-linejoin="round"/>
<path d="M48.369 63.1594C48.369 63.1594 49.2627 65.2991 49.2627 65.8368C49.2587 66.3409 49.3976 66.8359 49.6632 67.2645C49.9302 67.7095 50.2454 67.843 50.0637 68.199C49.9837 68.3762 49.8788 68.541 49.7522 68.6885C49.7522 68.6885 49.6187 70.6094 49.6187 71.2324C49.6187 71.8554 49.3072 71.8999 48.7287 71.9444C48.2199 71.9517 47.7117 71.9069 47.212 71.8109L47.123 73.5056C47.123 73.5056 44.9795 73.2386 44.134 73.2386H42.4838L42.5728 70.6094C42.0773 69.6326 41.6595 68.6183 41.3231 67.576C41.1587 67.1376 41.0922 66.6685 41.1281 66.2016C41.1641 65.7348 41.3018 65.2814 41.5314 64.8734C41.761 64.4653 42.0771 64.1124 42.4575 63.8394C42.8379 63.5664 43.2735 63.3798 43.7335 63.2928C45.2622 63.0062 46.8264 62.9611 48.369 63.1594Z" fill="white" stroke="#263238" stroke-linecap="round" stroke-linejoin="round"/>
<path d="M46.8635 68.2882C46.8635 68.2882 47.8017 68.0212 47.6237 67.2165C47.4457 66.4118 47.1342 66.0595 47.1787 65.926C47.2232 65.7925 47.9204 65.5218 47.9204 64.9433C47.9204 64.3648 47.1787 64.0533 47.1787 64.0533C47.1787 64.0533 50.4792 63.0261 50.7017 62.0878C50.9242 61.1496 50.4792 60.2151 49.5891 60.2151C49.1397 60.2179 48.6916 60.2626 48.2504 60.3486C48.0724 60.3486 46.9117 59.0544 45.8882 59.5476C44.8647 60.0408 44.7757 60.6601 44.7757 60.6601C44.7757 60.6601 41.0303 60.8418 39.6026 62.3548C38.1749 63.8678 39.3801 67.3982 40.3443 68.6887C41.3084 69.9792 42.0835 71.3661 42.9772 71.5441C43.8709 71.7221 45.5211 71.4551 46.1441 70.6096C46.7671 69.7641 46.4556 68.4662 46.4556 68.4662L46.8635 68.2882Z" fill="#263238" stroke="#263238" stroke-linecap="round" stroke-linejoin="round"/>
<path d="M47.3455 68.6035C47.3455 68.6035 46.4073 66.7308 45.7398 67.1202C45.0723 67.5095 45.5618 69.0411 46.0068 69.5306C46.0725 69.6236 46.1565 69.7023 46.2535 69.762C46.3505 69.8216 46.4586 69.8609 46.5713 69.8776C46.684 69.8942 46.7989 69.8878 46.909 69.8588C47.0191 69.8297 47.1222 69.7786 47.212 69.7086" fill="white"/>
<path d="M47.3455 68.6035C47.3455 68.6035 46.4073 66.7308 45.7398 67.1202C45.0723 67.5095 45.5618 69.0411 46.0068 69.5306C46.0725 69.6236 46.1565 69.7023 46.2535 69.762C46.3505 69.8216 46.4586 69.8609 46.5713 69.8776C46.684 69.8942 46.7989 69.8878 46.909 69.8588C47.0191 69.8297 47.1222 69.7786 47.212 69.7086" stroke="#263238" stroke-linecap="round" stroke-linejoin="round"/>
<path d="M40.1624 74.9781C40.4149 74.3307 40.793 73.7396 41.2749 73.2389C41.9424 72.6604 43.5927 72.2599 44.9833 72.5269C46.3739 72.7939 47.4827 73.1944 47.7497 73.8211C47.954 74.3582 48.1176 74.9098 48.2392 75.4713C48.2392 75.4713 46.9487 74.8446 44.4048 74.8446C42.9353 74.8307 41.4734 75.0574 40.0771 75.5158L40.1624 74.9781Z" fill="#92E3A9" stroke="#263238" stroke-linecap="round" stroke-linejoin="round"/>
<path d="M34.3885 148.333C34.3885 148.333 32.6938 148.199 31.9818 148.377C31.2698 148.555 31.0881 149.178 31.4033 149.623C31.8171 150.21 32.2946 150.748 32.8273 151.229C33.2723 151.6 34.6815 151.763 35.323 152.074C35.9646 152.386 36.7062 152.657 37.548 152.074C38.3898 151.492 37.9189 149.312 37.9189 149.312C37.9189 149.312 35.8162 149.668 34.3885 148.333Z" fill="white" stroke="#263238" stroke-linecap="round" stroke-linejoin="round"/>
<path d="M36.9734 151.941C36.1724 152.074 34.7002 151.674 33.406 151.006C32.4975 150.536 31.7187 149.445 31.3405 148.841C31.2767 148.964 31.2488 149.103 31.26 149.241C31.2711 149.379 31.3208 149.512 31.4035 149.623C31.8172 150.21 32.2948 150.748 32.8275 151.229C33.2725 151.6 34.6817 151.763 35.3232 152.074C35.9648 152.386 36.7064 152.657 37.5482 152.074C37.6806 151.98 37.7855 151.852 37.8523 151.704C37.5661 151.806 37.2722 151.885 36.9734 151.941Z" fill="white" stroke="#263238" stroke-linecap="round" stroke-linejoin="round"/>
<path d="M51.4544 148.333C51.4544 148.333 53.1491 148.199 53.8611 148.377C54.5731 148.555 54.7548 149.178 54.4433 149.623C54.0272 150.209 53.5484 150.747 53.0156 151.229C52.5706 151.6 51.1429 151.763 50.5199 152.074C49.8969 152.386 49.1367 152.657 48.2949 152.074C47.4531 151.492 47.9241 149.312 47.9241 149.312C47.9241 149.312 50.0267 149.668 51.4544 148.333Z" fill="white" stroke="#263238" stroke-linecap="round" stroke-linejoin="round"/>
<path d="M48.8696 151.941C49.6706 152.074 51.1428 151.674 52.437 151.006C53.3456 150.536 54.1243 149.445 54.5026 148.841C54.5668 148.964 54.5954 149.102 54.5849 149.241C54.5744 149.379 54.5253 149.511 54.4432 149.623C54.0271 150.209 53.5483 150.747 53.0155 151.229C52.5705 151.6 51.1428 151.763 50.5198 152.074C49.8968 152.386 49.1366 152.657 48.2948 152.074C48.1624 151.98 48.0575 151.852 47.9907 151.704C48.2771 151.805 48.5709 151.885 48.8696 151.941Z" fill="white" stroke="#263238" stroke-linecap="round" stroke-linejoin="round"/>
<path d="M36.9956 99.0636C36.9956 99.0636 36.6248 103.213 36.5951 105.086C36.5756 106.294 36.6499 107.501 36.8176 108.698L35.9276 125.827C35.9276 125.827 34.5889 136.844 34.5889 139.028C34.5889 141.213 34.7669 146.923 34.7669 146.923C34.5654 147.314 34.3871 147.717 34.2329 148.129C34.2337 148.649 34.2634 149.169 34.3219 149.686C35.0176 150.105 35.7909 150.379 36.5951 150.491C36.9117 150.532 37.2331 150.472 37.5136 150.32C37.794 150.167 38.019 149.93 38.1563 149.642C38.3125 148.783 38.4165 147.917 38.4678 147.046C38.4873 146.525 38.4724 146.003 38.4233 145.485C38.4233 145.485 40.385 135.895 41.3233 132.639C42.2615 129.383 43.9562 120.55 44.0452 119.393C44.1342 118.236 45.1577 112.836 45.1577 112.836C45.1577 112.836 46.0514 122.515 46.2702 124.332C46.489 126.149 45.9476 131.237 45.9476 133.974C45.9476 136.711 47.6052 147.32 47.6052 147.32C47.5991 147.879 47.6276 148.437 47.6905 148.993C47.7795 149.364 48.3098 150.58 48.3098 150.58C48.3098 150.58 49.6299 150.843 50.2492 150.491C50.8685 150.139 51.8327 149.523 51.9217 148.466C52.0107 147.409 51.6065 145.27 51.5212 144.654C51.4359 144.038 53.0045 132.138 53.0045 127.911C53.0045 123.683 53.7091 114.513 53.7091 112.577C53.7091 110.641 53.2678 104.114 53.2678 104.114L52.4742 97.8584C52.4742 97.8584 45.1391 100.621 36.9956 99.0636Z" fill="#263238" stroke="#263238" stroke-linecap="round" stroke-linejoin="round"/>
<path d="M45.1577 112.848L44.5421 108.787H43.0439" stroke="white" stroke-linecap="round" stroke-linejoin="round"/>
<path d="M34.0993 77.6108C34.0993 77.6108 24.0089 92.7483 24.1869 93.3639C24.3649 93.9795 34.0548 99.0933 34.0548 99.0933L33.9658 97.1538L30.2574 92.218L35.4491 86.7556L34.0993 77.6108Z" fill="#92E3A9" stroke="#263238" stroke-linecap="round" stroke-linejoin="round"/>
<path d="M33.9658 97.1578L35.3601 96.583L36.8435 97.8995C36.8435 97.8995 37.3589 98.9786 36.9807 99.0676L36.6098 99.1566C36.6098 99.1566 37.0289 100.173 36.3725 100.473C35.7161 100.773 34.7557 100.414 34.3366 100.054C33.9924 99.682 33.7095 99.2577 33.4985 98.7969L33.9658 97.1578Z" fill="white" stroke="#263238" stroke-linecap="round" stroke-linejoin="round"/>
<path d="M35.7793 97.0576C35.7793 97.0576 36.3207 97.6584 36.2577 97.955C36.1946 98.2517 35.961 99.2715 35.72 99.3308C35.4789 99.3902 35.2416 98.9118 35.3009 98.7338C35.3512 98.5569 35.3921 98.3774 35.4233 98.1961C35.4233 98.1961 34.8819 98.6151 34.5852 98.3741" fill="white"/>
<path d="M35.7793 97.0576C35.7793 97.0576 36.3207 97.6584 36.2577 97.955C36.1946 98.2517 35.961 99.2715 35.72 99.3308C35.4789 99.3902 35.2416 98.9118 35.3009 98.7338C35.3512 98.5569 35.3921 98.3774 35.4233 98.1961C35.4233 98.1961 34.8819 98.6151 34.5852 98.3741" stroke="#263238" stroke-linecap="round" stroke-linejoin="round"/>
<path d="M47.1676 74.5369C45.6625 74.2951 44.1309 74.2651 42.6175 74.4479C40.6901 74.7114 38.8142 75.2679 37.055 76.0982C35.9425 76.6322 34.1143 77.4369 34.1143 77.6149C34.1143 77.7929 36.7101 94.3395 36.7101 94.3395C36.7101 94.3395 36.7101 98.6226 36.9771 99.2456C37.2441 99.8686 38.0488 99.9613 40.0105 100.184C42.9569 100.365 45.9137 100.276 48.8438 99.9168C50.583 99.6016 52.0997 99.3346 52.3667 98.5336C52.6337 97.7326 52.2777 95.5892 52.2777 95.5892L53.1863 78.2453C52.411 77.321 51.4559 76.564 50.379 76.0203C49.3388 75.4628 48.2665 74.9675 47.1676 74.5369Z" fill="#92E3A9" stroke="#263238" stroke-linecap="round" stroke-linejoin="round"/>
<path d="M61.7784 87.9461L53.1862 78.2451L52.5854 87.8126C52.5854 87.8126 59.2382 93.479 60.7438 93.301C62.2494 93.123 62.509 91.966 62.509 91.966" fill="#92E3A9"/>
<path d="M61.7784 87.9461L53.1862 78.2451L52.5854 87.8126C52.5854 87.8126 59.2382 93.479 60.7438 93.301C62.2494 93.123 62.509 91.966 62.509 91.966" stroke="#263238" stroke-linecap="round" stroke-linejoin="round"/>
</svg>
