<svg width="315" height="210" viewBox="0 0 315 210" fill="none" xmlns="http://www.w3.org/2000/svg">
<path d="M279.73 63.2465L275.723 82.6517L273.144 80.1355L268.756 83.2671L265.403 79.1014L257.884 84.5692L251.457 73.822L244.29 78.0212L241.447 74.1025L232.345 79.2312L229.607 73.3657L235.987 42.4639L270.192 49.5268L279.73 63.2465Z" fill="#EBEBEB"/>
<path d="M270.193 49.5269L279.73 63.2466L267.865 60.7974L270.193 49.5269Z" fill="#DBDBDB"/>
<path d="M274.869 86.5284L268.995 114.998L222.921 105.486L228.753 77.2466L231.491 83.1079L240.597 77.9792L243.436 81.898L250.607 77.7029L257.03 88.4501L264.553 82.9823L267.902 87.1439L272.294 84.0164L274.869 86.5284Z" fill="#EBEBEB"/>
<path d="M208.925 83.1918L161.971 86.0974L158.241 25.8261L193.108 23.6658L205.906 34.4046L208.925 83.1918Z" fill="#EBEBEB"/>
<path d="M193.108 23.6658L205.906 34.4046L193.815 35.154L193.108 23.6658Z" fill="#DBDBDB"/>
<path d="M180.108 64.222L179.924 62.8613C179.451 60.0437 180.221 56.8911 182.67 53.5962C184.881 50.6655 186.078 48.5722 185.944 46.1942C185.793 43.5147 184.014 41.8233 180.702 41.9573C178.81 42.0556 176.992 42.7272 175.49 43.8831L174.046 40.6468C175.72 39.2862 178.651 38.2814 181.435 38.1348C187.477 37.7999 190.416 41.3753 190.646 45.3652C190.847 48.9364 188.996 51.6201 186.643 54.7559C184.483 57.6154 183.775 59.9725 184.081 62.6394L184.211 64.0042L180.108 64.222ZM179.363 71.6365C179.254 69.6939 180.489 68.2537 182.327 68.1532C184.165 68.0528 185.505 69.3422 185.613 71.289C185.714 73.127 184.588 74.6091 182.645 74.7179C180.79 74.8226 179.451 73.4745 179.346 71.6365H179.363Z" fill="#DBDBDB"/>
<path d="M62.6636 53.9687L57.9411 51.8293L57.2838 53.2737C57.1867 53.4802 57.0353 53.6563 56.8457 53.7831C56.6561 53.91 56.4356 53.9828 56.2078 53.9939C55.9483 54.0024 55.6896 54.0275 55.4333 54.0692C55.2083 54.1026 54.9784 54.0743 54.7683 53.9873C54.5581 53.9003 54.3756 53.7579 54.2401 53.5752L53.3148 52.2815L49.0988 55.3043L50.0241 56.598C50.1528 56.7847 50.2285 57.0028 50.2433 57.2291C50.258 57.4554 50.2112 57.6814 50.1078 57.8833C49.9884 58.1135 49.8808 58.3497 49.7854 58.5908C49.7025 58.8035 49.5632 58.9895 49.3825 59.1289C49.2017 59.2683 48.9864 59.3558 48.7597 59.3821L47.1813 59.537L47.6879 64.6992L49.2747 64.5401C49.5022 64.5219 49.7304 64.5661 49.9348 64.6679C50.1391 64.7697 50.3118 64.9252 50.4344 65.1178C50.5014 65.2267 50.5725 65.3313 50.6479 65.436C50.7233 65.5407 50.7986 65.6412 50.8782 65.7416C51.0226 65.9174 51.1156 66.1298 51.1466 66.3552C51.1776 66.5807 51.1456 66.8103 51.054 67.0186L50.3925 68.4755L55.1193 70.6191L55.7766 69.1663C55.8745 68.9601 56.0269 68.7845 56.2172 68.6583C56.4075 68.5322 56.6286 68.4603 56.8567 68.4504C57.1133 68.4398 57.3691 68.4147 57.6229 68.3751C57.8479 68.3416 58.0777 68.37 58.2878 68.457C58.498 68.544 58.6806 68.6864 58.8161 68.8691L59.7413 70.1628L63.9615 67.14L63.0362 65.8463C62.9036 65.6613 62.8254 65.4428 62.8106 65.2156C62.7958 64.9884 62.845 64.7617 62.9525 64.561C63.0691 64.3321 63.1739 64.0973 63.2665 63.8576C63.347 63.6434 63.4857 63.4559 63.6669 63.3161C63.848 63.1764 64.0646 63.0899 64.2922 63.0664L65.879 62.9073L65.3682 57.7451L63.7815 57.9C63.5553 57.9199 63.3281 57.8768 63.1249 57.7756C62.9217 57.6744 62.7505 57.5189 62.6301 57.3264C62.559 57.2176 62.4878 57.1129 62.4124 57.0082C62.3371 56.9036 62.2617 56.7989 62.1822 56.7026C62.0387 56.5247 61.9464 56.3109 61.9155 56.0844C61.8845 55.8579 61.9159 55.6273 62.0063 55.4173L62.6636 53.9687ZM59.9842 58.7457C60.4738 59.4289 60.7497 60.242 60.7772 61.0821C60.8047 61.9221 60.5824 62.7515 60.1385 63.4652C59.6946 64.179 59.049 64.745 58.2834 65.0918C57.5177 65.4386 56.6664 65.5506 55.8372 65.4136C55.0079 65.2765 54.2379 64.8966 53.6245 64.3219C53.0112 63.7473 52.582 63.0036 52.3913 62.185C52.2007 61.3664 52.257 60.5096 52.5533 59.723C52.8496 58.9365 53.3725 58.2554 54.0558 57.766C54.972 57.11 56.1111 56.8446 57.2229 57.0284C58.3346 57.2121 59.3278 57.8298 59.9842 58.7457Z" fill="#EBEBEB"/>
<path d="M276.142 122.463L272.993 124.28L273.55 125.243C273.633 125.381 273.675 125.54 273.67 125.701C273.664 125.862 273.613 126.019 273.521 126.151C273.425 126.302 273.332 126.457 273.249 126.62C273.18 126.764 273.071 126.886 272.935 126.971C272.8 127.055 272.643 127.099 272.483 127.097H271.377V130.736H272.491C272.651 130.734 272.808 130.777 272.944 130.862C273.08 130.947 273.188 131.068 273.257 131.213C273.341 131.376 273.433 131.531 273.529 131.682C273.621 131.814 273.673 131.97 273.678 132.132C273.683 132.293 273.642 132.452 273.559 132.59L273.002 133.553L276.15 135.37L276.711 134.403C276.792 134.266 276.91 134.154 277.051 134.08C277.193 134.006 277.352 133.973 277.511 133.984H278.047C278.206 133.973 278.364 134.007 278.506 134.081C278.647 134.155 278.765 134.266 278.846 134.403L279.407 135.374L282.552 133.557L281.995 132.59C281.915 132.451 281.877 132.293 281.883 132.133C281.888 131.973 281.939 131.819 282.028 131.686C282.124 131.535 282.217 131.376 282.3 131.217C282.369 131.073 282.478 130.951 282.614 130.866C282.749 130.782 282.907 130.738 283.066 130.74H284.18V127.101H283.058C282.898 127.103 282.741 127.059 282.605 126.975C282.469 126.89 282.361 126.769 282.292 126.624C282.208 126.465 282.116 126.306 282.02 126.155C281.931 126.023 281.88 125.868 281.874 125.708C281.868 125.548 281.907 125.39 281.986 125.251L282.543 124.284L279.399 122.467L278.838 123.421C278.757 123.559 278.639 123.67 278.498 123.744C278.356 123.818 278.197 123.851 278.038 123.84H277.77H277.502C277.343 123.851 277.184 123.817 277.042 123.744C276.9 123.67 276.781 123.558 276.699 123.421L276.142 122.463ZM277.77 125.938C278.36 125.937 278.937 126.111 279.428 126.438C279.919 126.765 280.302 127.231 280.528 127.776C280.754 128.321 280.813 128.92 280.698 129.499C280.583 130.078 280.299 130.609 279.882 131.026C279.465 131.443 278.934 131.727 278.355 131.842C277.776 131.957 277.177 131.898 276.632 131.672C276.087 131.446 275.621 131.063 275.294 130.572C274.967 130.081 274.793 129.504 274.794 128.914C274.793 128.523 274.87 128.136 275.019 127.774C275.168 127.412 275.388 127.084 275.664 126.807C275.94 126.53 276.269 126.31 276.63 126.16C276.992 126.011 277.379 125.933 277.77 125.933V125.938Z" fill="#EBEBEB"/>
<path d="M72.2176 38.4991L69.333 40.7096L69.9987 41.593C70.098 41.7189 70.159 41.8706 70.1746 42.0302C70.1902 42.1897 70.1597 42.3504 70.0866 42.4931C70.0065 42.6561 69.9366 42.8239 69.8773 42.9955C69.8257 43.1467 69.7329 43.2805 69.6094 43.3819C69.4858 43.4832 69.3365 43.5481 69.1781 43.5691L68.0728 43.7115L68.5417 47.3162L69.647 47.1738C69.8079 47.1514 69.9718 47.1749 70.12 47.2415C70.2681 47.3082 70.3944 47.4153 70.4843 47.5506C70.5852 47.6963 70.6942 47.8361 70.8109 47.9693C70.9188 48.0879 70.9903 48.235 71.017 48.3931C71.0437 48.5512 71.0245 48.7136 70.9616 48.8611L70.543 49.891L73.8923 51.2851L74.311 50.2552C74.3733 50.1075 74.4757 49.9801 74.6067 49.8876C74.7377 49.7951 74.8919 49.7412 75.052 49.7319L75.3199 49.7026L75.5837 49.6607C75.7386 49.6315 75.8986 49.6453 76.0462 49.7007C76.1939 49.7561 76.3235 49.8508 76.421 49.9747L77.1035 50.8665L79.9881 48.6559L79.314 47.7725C79.2167 47.6449 79.1568 47.4926 79.1413 47.3329C79.1258 47.1731 79.1551 47.0122 79.2261 46.8682C79.3055 46.7063 79.3754 46.54 79.4354 46.37C79.487 46.2188 79.5798 46.085 79.7033 45.9836C79.8269 45.8823 79.9762 45.8175 80.1346 45.7964L81.2399 45.6541L80.771 42.0493L79.6657 42.1917C79.5052 42.2146 79.3415 42.1917 79.1934 42.1258C79.0453 42.0599 78.9188 41.9536 78.8284 41.8191C78.7237 41.6684 78.6148 41.526 78.4976 41.4004C78.4001 41.2793 78.337 41.1341 78.3149 40.9801C78.2928 40.8262 78.3125 40.6691 78.372 40.5254L78.7907 39.4955L75.4414 38.1013L75.0227 39.1312C74.9596 39.2784 74.8569 39.4052 74.7261 39.4976C74.5953 39.59 74.4415 39.6443 74.2816 39.6546L74.0137 39.6797L73.7667 39.6881C73.6117 39.7173 73.4518 39.7034 73.3041 39.6481C73.1565 39.5927 73.0269 39.4979 72.9294 39.3741L72.2176 38.4991ZM74.2816 41.7353C74.8648 41.6604 75.4572 41.7598 75.9839 42.0211C76.5107 42.2824 76.9482 42.6938 77.2414 43.2035C77.5346 43.7132 77.6703 44.2983 77.6314 44.885C77.5924 45.4717 77.3806 46.0337 77.0226 46.5001C76.6646 46.9666 76.1764 47.3166 75.6198 47.5059C75.0631 47.6953 74.4628 47.7155 73.8947 47.5641C73.3265 47.4127 72.8159 47.0964 72.4273 46.6552C72.0387 46.2139 71.7894 45.6674 71.711 45.0847C71.6587 44.6958 71.6838 44.3004 71.7848 43.9213C71.8859 43.5421 72.0609 43.1867 72.2998 42.8754C72.5387 42.5641 72.8368 42.3032 73.1769 42.1075C73.517 41.9119 73.8925 41.7854 74.2816 41.7353Z" fill="#EBEBEB"/>
<path d="M50.6646 132.959C50.8219 128.911 50.766 124.859 50.4972 120.817C49.8981 112.472 48.6254 104.189 46.6915 96.0489C45.6281 91.4687 44.3218 86.9638 42.957 82.4632C42.9151 82.325 42.6974 82.3627 42.7351 82.505C46.9511 98.3725 50.4092 114.742 50.1706 131.238C50.1036 135.843 49.5677 140.386 49.1323 144.974C49.1323 145.096 49.3207 145.146 49.35 145.02C50.2167 141.081 50.5014 136.969 50.6646 132.959Z" fill="#EBEBEB"/>
<path d="M42.7351 82.4926C42.7351 82.4926 36.3546 98.695 37.7823 102.488C39.2099 106.281 42.1573 107.093 42.1573 107.093C42.1573 107.093 38.2512 112.67 40.9809 117.899C43.7106 123.128 49.7729 122.881 50.1916 128.81C50.179 128.839 50.5139 104.05 42.7351 82.4926Z" fill="#EBEBEB"/>
<path d="M49.484 118.602C49.4943 118.575 49.4943 118.546 49.484 118.519C48.6466 107.457 46.571 96.5243 43.2961 85.9255C43.2961 85.8962 43.2333 85.9045 43.2417 85.9255C44.506 90.6704 45.6225 95.4348 46.591 100.219C45.7332 99.4061 44.6853 98.8217 43.5431 98.519C43.5431 98.519 43.5096 98.5441 43.5431 98.5525C44.743 98.9921 45.8218 99.7095 46.6915 100.646C46.8757 101.588 47.0599 102.526 47.2316 103.468C45.8039 101.872 43.8278 101.081 41.8475 100.328C41.843 100.33 41.8392 100.333 41.8365 100.337C41.8339 100.341 41.8324 100.346 41.8324 100.351C41.8324 100.356 41.8339 100.36 41.8365 100.364C41.8392 100.368 41.843 100.372 41.8475 100.374C43.9115 101.211 45.963 102.291 47.3613 104.07C47.847 106.758 48.274 109.456 48.6425 112.163C47.6116 111.083 46.2897 110.326 44.8368 109.982C44.7907 109.982 44.7656 110.036 44.8117 110.049C46.3041 110.489 47.6365 111.353 48.6467 112.536H48.6718C48.7974 113.485 48.9174 114.438 49.0318 115.395C48.2344 114.721 47.334 114.178 46.3649 113.788C46.3398 113.788 46.3231 113.817 46.3649 113.825C47.3539 114.254 48.2595 114.853 49.0402 115.596C49.0402 115.596 49.0611 115.596 49.0737 115.596C49.1784 116.505 49.283 117.413 49.3751 118.322C47.9375 116.584 46.0717 115.251 43.9618 114.453C43.9529 114.453 43.9444 114.457 43.9381 114.463C43.9318 114.469 43.9283 114.478 43.9283 114.487C43.9283 114.496 43.9318 114.504 43.9381 114.511C43.9444 114.517 43.9529 114.52 43.9618 114.52C46.0452 115.439 47.8753 116.848 49.2956 118.628C49.3112 118.647 49.3323 118.661 49.3562 118.669C49.38 118.676 49.4056 118.677 49.4296 118.669C49.5677 120.064 49.6933 121.458 49.7938 122.856C49.7938 122.877 49.8273 122.877 49.8273 122.856C49.7184 121.452 49.604 120.034 49.484 118.602Z" fill="white"/>
<path d="M44.3553 96.9238C43.1998 96.2047 41.8798 95.7925 40.5203 95.7264C40.5137 95.7264 40.5073 95.7291 40.5026 95.7338C40.4979 95.7385 40.4952 95.7449 40.4952 95.7516C40.4952 95.7582 40.4979 95.7646 40.5026 95.7693C40.5073 95.774 40.5137 95.7767 40.5203 95.7767C41.8347 96.0259 43.1101 96.4483 44.3135 97.0327C44.3637 97.0452 44.4014 96.9573 44.3553 96.9238Z" fill="white"/>
<path d="M45.1299 114.077C44.2417 113.567 43.2638 113.233 42.2494 113.093C42.216 113.093 42.2118 113.139 42.2494 113.147C43.24 113.346 44.1981 113.681 45.0964 114.144C45.1341 114.165 45.1676 114.098 45.1299 114.077Z" fill="white"/>
<path d="M67.4448 102.769C64.7456 104.635 62.2666 106.8 60.0553 109.225C57.7749 111.791 56.0158 114.778 54.8764 118.017C52.4515 124.765 51.1475 131.864 51.0163 139.034C50.935 143.004 51.3157 146.97 52.1509 150.853C52.1577 150.881 52.175 150.905 52.1994 150.921C52.2238 150.937 52.2533 150.943 52.2818 150.937C52.3103 150.932 52.3357 150.916 52.3526 150.892C52.3695 150.869 52.3768 150.84 52.3728 150.811C51.3336 143.96 51.3731 136.988 52.49 130.15C53.5869 123.451 55.3077 116.158 59.5697 110.711C61.8891 107.743 64.7821 105.411 67.6416 102.999C67.7923 102.865 67.5997 102.66 67.4448 102.769Z" fill="#EBEBEB"/>
<path d="M51.9541 134.202C53.4906 131.717 55.2961 129.409 57.3382 127.319C60.5326 124.125 63.2205 121.856 63.6391 119.746C64.0578 117.635 60.4405 116.078 60.4405 116.078C60.4405 116.078 64.8574 116.874 66.0674 115.019C67.2773 113.164 67.8593 102.421 67.8593 102.421C67.8593 102.421 59.8209 108.161 56.0738 116.208C52.3267 124.255 51.9541 134.202 51.9541 134.202Z" fill="#EBEBEB"/>
<path d="M64.9746 112.498C64.4453 112.42 63.9088 112.401 63.3753 112.444C63.3125 112.444 63.3167 112.553 63.3753 112.557C63.9028 112.557 64.4345 112.532 64.9621 112.557C64.9681 112.555 64.9736 112.552 64.9779 112.548C64.9822 112.543 64.9852 112.538 64.9865 112.532C64.9878 112.525 64.9874 112.519 64.9853 112.513C64.9832 112.507 64.9795 112.502 64.9746 112.498Z" fill="white"/>
<path d="M59.2012 122.919C58.3524 122.936 57.5133 123.103 56.7227 123.413C56.7227 123.413 56.7227 123.455 56.7227 123.451C57.5601 123.254 58.3681 123.174 59.197 123.032C59.2079 123.027 59.2171 123.019 59.2238 123.01C59.2304 123 59.2342 122.988 59.2346 122.977C59.2351 122.965 59.2322 122.953 59.2262 122.943C59.2203 122.933 59.2117 122.924 59.2012 122.919Z" fill="white"/>
<path d="M57.468 119.318C57.1155 119.316 56.7637 119.346 56.4171 119.411C56.4107 119.413 56.4052 119.417 56.4013 119.423C56.3974 119.428 56.3953 119.435 56.3953 119.442C56.3953 119.449 56.3974 119.455 56.4013 119.461C56.4052 119.467 56.4107 119.471 56.4171 119.473C56.768 119.494 57.1201 119.478 57.468 119.427C57.4824 119.427 57.4962 119.422 57.5064 119.411C57.5166 119.401 57.5224 119.387 57.5224 119.373C57.5224 119.358 57.5166 119.345 57.5064 119.334C57.4962 119.324 57.4824 119.318 57.468 119.318Z" fill="white"/>
<path d="M28.3874 114.164C31.0037 115.051 33.5108 116.233 35.8606 117.685C38.2986 119.235 40.4129 121.242 42.0862 123.597C45.6067 128.498 48.3022 133.941 50.0659 139.711C51.0496 142.907 51.6566 146.206 51.8746 149.542C51.87 149.563 51.8582 149.583 51.841 149.597C51.8239 149.611 51.8025 149.618 51.7804 149.618C51.7583 149.618 51.7369 149.611 51.7198 149.597C51.7026 149.583 51.6908 149.563 51.6862 149.542C50.9472 143.758 49.3056 138.125 46.8213 132.85C44.3805 127.679 41.3033 122.178 36.5974 118.753C34.0352 116.89 31.1548 115.667 28.2827 114.378C28.132 114.328 28.2367 114.114 28.3874 114.164Z" fill="#EBEBEB"/>
<path d="M48.1903 136.023C46.3714 134.368 44.3764 132.918 42.2411 131.699C38.9168 129.852 36.2164 128.638 35.3917 127.026C34.5669 125.414 37.1333 123.321 37.1333 123.321C37.1333 123.321 33.7421 124.996 32.3354 123.761C30.9287 122.526 27.9729 113.985 27.9729 113.985C27.9729 113.985 35.8062 116.769 40.692 122.417C45.5778 128.065 48.1903 136.023 48.1903 136.023Z" fill="#EBEBEB"/>
<path d="M41.6884 128.161C40.9183 128.107 40.145 128.202 39.4109 128.441C39.4109 128.441 39.4109 128.479 39.4109 128.475C40.1598 128.346 40.9165 128.268 41.6759 128.24C41.7303 128.24 41.7428 128.165 41.6884 128.161Z" fill="white"/>
<path d="M34.8558 119.201C34.5045 119.173 34.1509 119.192 33.8049 119.26C33.7673 119.26 33.7798 119.327 33.8049 119.323C34.1524 119.285 34.4916 119.298 34.8349 119.289C34.8455 119.29 34.856 119.286 34.8645 119.28C34.873 119.274 34.879 119.264 34.8815 119.254C34.884 119.244 34.8827 119.233 34.8781 119.223C34.8734 119.213 34.8655 119.206 34.8558 119.201Z" fill="white"/>
<path d="M58.2927 160.339H40.6125L43.1328 141.872L43.7776 137.137H55.1276L55.7724 141.872L58.2927 160.339Z" fill="#DBDBDB"/>
<path d="M55.7724 141.872H43.1328L43.7776 137.137H55.1276L55.7724 141.872Z" fill="#C7C7C7"/>
<path d="M56.7479 135.496H42.1532V139.507H56.7479V135.496Z" fill="#DBDBDB"/>
<path d="M29.3713 160.339L61.1941 160.239L93.017 160.201L156.663 160.13L220.308 160.201L252.131 160.239L283.954 160.339L252.131 160.444L220.308 160.477L156.663 160.549L93.017 160.477L61.1941 160.44L29.3713 160.339Z" fill="#263238"/>
<path d="M157.5 191.543C223.801 191.543 277.548 185.653 277.548 178.388C277.548 171.123 223.801 165.234 157.5 165.234C91.1991 165.234 37.4515 171.123 37.4515 178.388C37.4515 185.653 91.1991 191.543 157.5 191.543Z" fill="#EBEBEB"/>
<path d="M129.554 176.211C128.579 176.542 100.607 176.63 99.5356 175.968C99.117 175.717 98.8783 171.643 98.6983 166.712C98.6606 165.648 98.6313 164.547 98.6062 163.433L96.3747 148.512L115.077 148.391L116.839 163.316L116.768 166.599C116.768 166.599 127.494 171.35 128.591 172.213C129.688 173.075 130.53 175.88 129.554 176.211Z" fill="#EB9481"/>
<path d="M129.554 176.211C128.579 176.542 100.607 176.63 99.5356 175.968C99.0416 175.658 98.7736 169.709 98.6229 163.433L116.818 163.316L116.747 166.598C116.747 166.598 127.473 171.35 128.57 172.213C129.667 173.075 130.53 175.88 129.554 176.211Z" fill="white"/>
<path d="M129.554 176.211C128.578 176.542 100.607 176.63 99.5356 175.968C99.1169 175.717 98.8783 171.644 98.6982 166.712L116.73 166.599C116.73 166.599 127.456 171.351 128.553 172.213C129.65 173.075 130.529 175.88 129.554 176.211Z" fill="#A6A6A6"/>
<path d="M129.148 175.093C124.459 174.993 105.535 175.039 100.892 175.298C100.854 175.298 100.854 175.323 100.892 175.328C105.539 175.524 124.463 175.328 129.148 175.169C129.248 175.164 129.248 175.093 129.148 175.093Z" fill="#263238"/>
<path d="M126.766 171.212C126.244 171.2 125.726 171.297 125.244 171.496C124.762 171.695 124.326 171.992 123.965 172.368C123.306 173.039 122.934 173.939 122.926 174.88C122.926 174.909 122.977 174.909 122.981 174.88C123.137 173.953 123.588 173.102 124.267 172.453C124.946 171.804 125.816 171.392 126.749 171.279C126.758 171.281 126.767 171.28 126.775 171.275C126.783 171.27 126.789 171.263 126.791 171.254C126.793 171.245 126.792 171.236 126.787 171.228C126.782 171.22 126.775 171.214 126.766 171.212Z" fill="#263238"/>
<path d="M118.564 167.059C116.688 167.038 114.515 167.708 113.352 169.249C113.31 169.307 113.393 169.37 113.448 169.341C115.087 168.476 116.813 167.788 118.597 167.289C118.625 167.282 118.649 167.264 118.665 167.24C118.68 167.217 118.687 167.188 118.683 167.159C118.678 167.131 118.664 167.105 118.642 167.087C118.62 167.068 118.593 167.058 118.564 167.059Z" fill="#263238"/>
<path d="M120.021 167.616C118.141 167.616 115.968 168.269 114.809 169.805C114.762 169.868 114.846 169.931 114.905 169.902C116.541 169.034 118.266 168.345 120.05 167.846C120.077 167.839 120.101 167.822 120.117 167.798C120.132 167.775 120.139 167.746 120.136 167.718C120.132 167.69 120.118 167.664 120.097 167.646C120.076 167.627 120.049 167.616 120.021 167.616Z" fill="#263238"/>
<path d="M121.47 168.177C119.594 168.177 117.421 168.826 116.257 170.366C116.215 170.425 116.299 170.488 116.353 170.459C117.992 169.594 119.718 168.906 121.503 168.407C121.531 168.4 121.554 168.382 121.57 168.358C121.586 168.334 121.592 168.305 121.588 168.277C121.584 168.249 121.57 168.223 121.548 168.204C121.526 168.186 121.498 168.176 121.47 168.177Z" fill="#263238"/>
<path d="M122.922 168.738C121.042 168.717 118.87 169.387 117.71 170.928C117.664 170.986 117.752 171.049 117.806 171.02C119.445 170.154 121.171 169.466 122.956 168.968C122.983 168.961 123.007 168.943 123.023 168.919C123.039 168.895 123.045 168.867 123.041 168.838C123.037 168.81 123.022 168.784 123.001 168.766C122.979 168.747 122.951 168.737 122.922 168.738Z" fill="#263238"/>
<path d="M102.073 170.84C99.9794 170.84 99.9794 174.126 102.073 174.114C104.166 174.101 104.183 170.827 102.073 170.84Z" fill="#263238"/>
<path d="M120.578 162.043C119.627 161.256 118.43 162.043 117.848 162.851C116.879 164.28 116.302 165.937 116.173 167.658C116.173 167.695 116.203 167.712 116.232 167.712C116.239 167.748 116.255 167.781 116.278 167.809C116.301 167.837 116.33 167.859 116.364 167.873C116.397 167.888 116.433 167.894 116.469 167.891C116.505 167.889 116.54 167.878 116.571 167.859C117.902 166.933 119.443 166.104 120.452 164.794C121.026 164.032 121.495 162.776 120.578 162.043ZM118.292 166.037C117.647 166.511 116.981 166.95 116.353 167.448C116.688 166.511 116.977 165.564 117.404 164.66C117.602 164.226 117.828 163.807 118.083 163.404C118.501 162.78 120.327 161.206 120.519 163.245C120.628 164.363 119.058 165.476 118.292 166.037Z" fill="#263238"/>
<path d="M111.501 168.37C113.134 168.612 114.821 168.143 116.425 167.888C116.459 167.879 116.492 167.862 116.519 167.838C116.546 167.814 116.567 167.785 116.58 167.751C116.594 167.718 116.599 167.682 116.596 167.646C116.593 167.61 116.582 167.575 116.563 167.545C116.569 167.54 116.574 167.534 116.577 167.527C116.581 167.52 116.582 167.513 116.582 167.505C116.582 167.497 116.581 167.49 116.577 167.483C116.574 167.476 116.569 167.47 116.563 167.465C115.274 166.316 113.706 165.526 112.016 165.175C111.028 164.987 109.63 165.259 109.504 166.486C109.353 167.641 110.547 168.219 111.501 168.37ZM110.362 167.306C109.106 165.698 111.505 165.56 112.225 165.728C112.693 165.845 113.151 165.993 113.599 166.172C114.514 166.551 115.41 166.977 116.282 167.448C115.487 167.528 114.704 167.67 113.913 167.779C112.966 167.905 111.066 168.19 110.362 167.306Z" fill="#263238"/>
<path d="M68.8766 79.545C68.8766 79.545 90.5929 116.488 91.1748 119.084C92.0666 123.07 96.7933 162.428 96.7933 162.428L119.401 162.01C119.401 162.01 115.508 127.307 111.819 115.873C109.165 107.638 89.9984 80.3238 89.9984 80.3238L68.8766 79.545Z" fill="#37474F"/>
<path d="M117.346 158.56C114.101 158.535 102.6 158.405 98.2796 158.807C98.2461 158.807 98.2503 158.866 98.2796 158.87C99.7659 159.084 114.097 158.753 117.342 158.648C117.348 158.651 117.356 158.651 117.363 158.65C117.37 158.65 117.377 158.647 117.383 158.643C117.389 158.639 117.394 158.634 117.397 158.627C117.401 158.621 117.403 158.614 117.403 158.607C117.403 158.6 117.402 158.593 117.399 158.586C117.396 158.579 117.392 158.574 117.386 158.569C117.381 158.565 117.374 158.561 117.367 158.56C117.36 158.558 117.353 158.558 117.346 158.56Z" fill="#263238"/>
<path d="M72.5818 82.9365C74.0053 85.168 75.5125 87.3534 76.9611 89.5682C78.4097 91.7829 79.8666 93.9977 81.3027 96.2082C84.1663 100.674 86.9575 105.169 89.676 109.693C91.0027 111.791 92.1377 114.003 93.0672 116.304C93.9156 118.606 94.5532 120.98 94.9721 123.396C95.4159 125.821 95.709 128.27 95.9811 130.719C96.2602 133.323 96.5519 135.929 96.8561 138.535C97.4506 143.869 98.0465 149.203 98.6438 154.537C98.715 155.19 98.7862 155.843 98.8532 156.5C98.8532 156.597 98.6899 156.613 98.6773 156.5C98.0116 151.204 97.459 145.887 96.8561 140.591C96.5547 137.948 96.2546 135.306 95.956 132.666C95.6755 130.208 95.4075 127.746 95.0266 125.306C94.6769 122.896 94.1451 120.517 93.4356 118.188C92.6539 115.777 91.6064 113.46 90.3124 111.28C87.6957 106.763 84.9241 102.325 82.1526 97.8829C79.381 93.4408 76.5341 88.9611 73.6118 84.5735C73.2517 84.0334 72.8875 83.4933 72.5107 82.9616C72.4814 82.9323 72.5567 82.8946 72.5818 82.9365Z" fill="#263238"/>
<path d="M75.994 178.388C74.9641 178.325 48.362 167.549 47.6251 166.527C47.5923 166.467 47.5778 166.399 47.5833 166.331C47.5833 165.414 49.4296 162.215 50.9703 158.012C51.0666 157.744 51.7532 156.496 52.7036 154.817C55.3453 150.216 59.9507 142.291 59.9507 142.291L77.3379 149.199L69.0148 161.654L67.7211 164.668C67.7211 164.668 75.8809 173.105 76.5676 174.298C77.2542 175.491 77.0197 178.447 75.994 178.388Z" fill="#EB9481"/>
<path d="M75.994 178.388C74.9641 178.325 48.362 167.549 47.6251 166.527C47.5923 166.467 47.5778 166.399 47.5833 166.33C47.5833 165.414 49.4296 162.215 50.9703 158.012C51.0666 157.744 51.7532 156.496 52.7036 154.817L69.0316 161.654L67.7379 164.668C67.7379 164.668 75.8977 173.104 76.5843 174.298C77.2709 175.491 77.0197 178.447 75.994 178.388Z" fill="white"/>
<path d="M75.994 178.388C74.964 178.325 48.3619 167.549 47.6251 166.527C47.3404 166.138 48.5294 162.508 50.9744 158.012L67.7211 164.673C67.7211 164.673 75.8809 173.1 76.5717 174.302C77.2625 175.503 77.0197 178.447 75.994 178.388Z" fill="#A6A6A6"/>
<path d="M76.0359 177.199C71.7278 175.349 54.1689 168.29 49.7687 166.791C49.731 166.791 49.7227 166.791 49.7687 166.816C54.0014 168.742 71.6147 175.658 76.0191 177.283C76.1029 177.304 76.128 177.237 76.0359 177.199Z" fill="#263238"/>
<path d="M75.2822 172.707C74.8045 172.497 74.2884 172.388 73.7667 172.388C73.2449 172.388 72.7288 172.497 72.2511 172.707C71.3922 173.083 70.7113 173.776 70.3503 174.641C70.3503 174.666 70.388 174.687 70.4006 174.662C70.8941 173.859 71.6346 173.238 72.5109 172.891C73.3872 172.545 74.3523 172.492 75.2613 172.74C75.2683 172.738 75.2744 172.734 75.2783 172.727C75.2821 172.721 75.2835 172.714 75.2822 172.707Z" fill="#263238"/>
<path d="M69.2408 165.782C67.5118 165.058 65.2426 164.865 63.5888 165.858C63.526 165.895 63.5889 165.983 63.6433 165.979C65.4868 165.792 67.345 165.802 69.1864 166.008C69.2148 166.011 69.2432 166.004 69.2665 165.988C69.2899 165.971 69.3064 165.947 69.3131 165.919C69.3197 165.891 69.3161 165.862 69.3028 165.837C69.2895 165.812 69.2675 165.792 69.2408 165.782Z" fill="#263238"/>
<path d="M70.3754 166.846C68.6463 166.121 66.3772 165.929 64.7234 166.921C64.6606 166.959 64.7234 167.046 64.7779 167.042C66.6213 166.853 68.4797 166.863 70.321 167.072C70.3493 167.075 70.3778 167.067 70.4011 167.051C70.4244 167.035 70.441 167.01 70.4477 166.983C70.4543 166.955 70.4507 166.926 70.4374 166.9C70.4241 166.875 70.4021 166.856 70.3754 166.846Z" fill="#263238"/>
<path d="M71.5142 167.909C69.7809 167.185 67.5118 166.992 65.8622 167.984C65.7952 168.022 65.8622 168.11 65.9125 168.106C67.7559 167.917 69.6143 167.926 71.4556 168.135C71.4845 168.14 71.5142 168.134 71.5388 168.118C71.5634 168.102 71.5811 168.077 71.5885 168.049C71.5958 168.021 71.5923 167.99 71.5785 167.965C71.5648 167.939 71.5419 167.919 71.5142 167.909Z" fill="#263238"/>
<path d="M72.6488 168.972C70.9155 168.248 68.6505 168.055 66.9968 169.043C66.9298 169.085 66.9968 169.173 67.0471 169.169C68.8905 168.98 70.7489 168.99 72.5902 169.198C72.6191 169.203 72.6488 169.197 72.6734 169.181C72.698 169.165 72.7157 169.14 72.7231 169.112C72.7304 169.084 72.7269 169.054 72.7131 169.028C72.6994 169.002 72.6764 168.982 72.6488 168.972Z" fill="#263238"/>
<path d="M52.5319 163.098C50.5767 162.32 49.3626 165.363 51.3261 166.142C53.2896 166.921 54.508 163.877 52.5319 163.098Z" fill="#263238"/>
<path d="M72.9879 161.889C72.3976 160.804 71.0034 161.072 70.1536 161.612C68.7219 162.571 67.567 163.89 66.8042 165.435C66.8009 165.442 66.7991 165.449 66.799 165.457C66.7989 165.464 66.8006 165.472 66.8038 165.478C66.807 165.485 66.8117 165.491 66.8176 165.496C66.8235 165.501 66.8304 165.504 66.8377 165.506C66.8377 165.644 66.9298 165.807 67.0931 165.774C68.6798 165.41 70.4173 165.221 71.8408 164.384C72.6572 163.898 73.5448 162.914 72.9879 161.889ZM69.3665 164.731C68.5919 164.928 67.8132 165.087 67.047 165.313C67.6808 164.55 68.3529 163.819 69.0608 163.124C69.4093 162.792 69.78 162.484 70.1703 162.203C70.7774 161.784 73.0717 161.009 72.4855 162.973C72.1632 164.057 70.2917 164.497 69.3665 164.731Z" fill="#263238"/>
<path d="M62.1989 164.346C63.6223 165.183 65.3598 165.38 66.9424 165.749C67.1056 165.786 67.2145 165.623 67.2019 165.481C67.2098 165.48 67.2173 165.477 67.2237 165.472C67.2302 165.468 67.2353 165.462 67.2387 165.454C67.242 165.447 67.2435 165.439 67.2429 165.431C67.2424 165.424 67.2398 165.416 67.2354 165.409C66.4739 163.861 65.3189 162.54 63.8861 161.579C63.0488 161.034 61.6462 160.762 61.0517 161.842C60.4572 162.923 61.3657 163.856 62.1989 164.346ZM61.5457 162.931C60.9638 160.967 63.2539 161.746 63.861 162.169C64.2508 162.451 64.6201 162.76 64.9663 163.094C65.6728 163.791 66.3436 164.523 66.9759 165.288C66.2097 165.062 65.431 164.899 64.6564 164.702C63.7186 164.451 61.8639 164.032 61.5457 162.931Z" fill="#263238"/>
<path d="M70.3671 160.959L50.9033 153.101C50.9033 153.101 75.0352 117.619 75.211 114.977C75.3701 112.641 64.7695 92.2851 64.355 86.3526C63.9029 79.947 66.9842 74.9942 70.3754 71.917L90.4505 80.4536C90.4505 80.4536 88.3321 83.8406 85.0078 85.7288C85.0078 85.7288 95.3028 109.258 94.7167 116.492C94.1306 123.727 70.3671 160.959 70.3671 160.959Z" fill="#37474F"/>
<path d="M71.2296 157.258C68.4161 156.048 69.2409 156.354 66.4107 155.165C65.0291 154.587 55.944 150.807 54.5457 150.493C54.5164 150.493 54.4955 150.534 54.5248 150.551C55.7347 151.292 64.8951 154.914 66.2893 155.466C69.1404 156.588 68.3324 156.237 71.1961 157.325C71.2004 157.331 71.206 157.335 71.2125 157.338C71.2191 157.341 71.2262 157.342 71.2333 157.342C71.2404 157.341 71.2473 157.339 71.2532 157.335C71.259 157.331 71.2638 157.325 71.267 157.319C71.2702 157.312 71.2717 157.305 71.2714 157.298C71.2711 157.291 71.2689 157.284 71.2652 157.278C71.2614 157.272 71.2562 157.267 71.25 157.264C71.2437 157.26 71.2367 157.258 71.2296 157.258Z" fill="#263238"/>
<path d="M88.2986 85.2978C86.2085 85.785 84.1637 86.4489 82.186 87.2823C82.1781 87.285 82.1707 87.2893 82.1644 87.2949C82.1581 87.3005 82.1529 87.3073 82.1492 87.3149C82.1456 87.3224 82.1434 87.3307 82.1429 87.3391C82.1424 87.3475 82.1435 87.3559 82.1463 87.3639C82.149 87.3719 82.1533 87.3792 82.1589 87.3856C82.1645 87.3919 82.1713 87.397 82.1789 87.4007C82.1864 87.4044 82.1947 87.4066 82.2031 87.4071C82.2115 87.4076 82.2199 87.4064 82.2279 87.4037C84.2794 86.805 86.3643 86.244 88.3823 85.5364C88.5372 85.482 88.4577 85.2643 88.2986 85.2978Z" fill="#263238"/>
<path d="M85.908 84.4854C85.7129 84.8324 85.5408 85.1918 85.393 85.5614C85.2485 85.8419 85.159 86.1474 85.1292 86.4615C85.1292 86.5243 85.213 86.5369 85.2507 86.4992C85.4607 86.248 85.6302 85.9654 85.7531 85.6619C85.9247 85.3311 86.1006 85.0046 86.2638 84.6654C86.3769 84.4184 86.0377 84.2593 85.908 84.4854Z" fill="#263238"/>
<path d="M86.1592 82.5847C86.2848 82.2749 86.4062 81.9692 86.536 81.6594C86.6658 81.3496 86.829 81.0314 86.9546 80.7049C86.9546 80.6546 87.0551 80.7049 87.0342 80.7425C86.9086 81.0523 86.829 81.3789 86.7328 81.6971C86.6365 82.0153 86.5276 82.3335 86.4229 82.6517C86.2262 83.242 86.0043 83.8281 85.7321 84.4017C86.0616 84.4181 86.3905 84.3609 86.6951 84.2342C87.0061 84.0351 87.2453 83.7417 87.3775 83.3969C87.5533 83.0536 87.7166 82.7019 87.8966 82.3586C88.1182 81.9874 88.3047 81.5964 88.4535 81.1905C88.4535 81.1403 88.554 81.1905 88.533 81.2282C88.26 82.0863 87.9024 82.9152 87.4654 83.7025C87.277 84.0081 87.1305 84.3305 86.7872 84.4477C86.4156 84.5517 86.0267 84.5787 85.6442 84.5273C85.594 84.5273 85.5354 84.5273 85.5521 84.4519C85.7235 83.8199 85.9261 83.1967 86.1592 82.5847Z" fill="#263238"/>
<path d="M85.3051 86.4952C86.0211 88.0066 86.6491 89.5138 87.3147 91.021C87.9804 92.5282 88.5707 93.9851 89.1694 95.4839C90.3668 98.5067 91.4386 101.588 92.3806 104.695C92.8453 106.235 93.2766 107.789 93.6617 109.354C94.086 110.915 94.3966 112.505 94.5912 114.11C94.7592 115.713 94.617 117.334 94.1725 118.883C93.7108 120.415 93.1183 121.904 92.4015 123.334C91.9619 124.238 91.8154 124.117 92.0247 123.66C92.6234 122.362 94.1934 118.431 94.0804 115.128C93.9888 113.546 93.7449 111.977 93.3519 110.443C92.9863 108.86 92.5746 107.29 92.1169 105.733C91.2251 102.66 90.1659 99.6497 89.0773 96.6436C88.4661 94.969 87.8213 93.2943 87.1933 91.6196C86.5653 89.945 85.9373 88.4043 85.234 86.5538C85.213 86.4784 85.2842 86.4491 85.3051 86.4952Z" fill="#263238"/>
<path d="M70.5304 81.5001C70.8779 81.3703 71.3677 81.5839 71.7194 81.6425C72.1749 81.7198 72.6351 81.7659 73.0968 81.7806C73.5537 81.7967 74.0111 81.7813 74.4658 81.7346C74.9238 81.7228 75.3726 81.6038 75.7763 81.3871C76.4385 80.9047 77.0062 80.3043 77.4509 79.6161C77.9809 78.9129 78.4184 78.1447 78.753 77.3302C78.753 77.28 78.8409 77.3302 78.8242 77.3637C78.6776 77.8284 78.5688 78.2973 78.4055 78.7537C78.225 79.1824 78.0094 79.5955 77.7608 79.9887C77.3577 80.78 76.7615 81.4568 76.0275 81.9565C75.2194 82.417 74.1812 82.3751 73.281 82.3375C72.759 82.307 72.2398 82.2385 71.7278 82.1323C71.3593 82.0528 70.7397 81.9942 70.5053 81.6718C70.4942 81.6594 70.4861 81.6448 70.4813 81.629C70.4765 81.6132 70.4753 81.5965 70.4777 81.5801C70.4801 81.5637 70.486 81.5481 70.4952 81.5343C70.5043 81.5204 70.5163 81.5088 70.5304 81.5001Z" fill="#263238"/>
<path d="M56.459 149.379C59.6576 144.533 62.7976 139.649 65.879 134.725C68.9604 129.802 71.9999 124.841 74.9975 119.842C75.7134 118.649 76.5382 117.46 76.9988 116.137C77.5012 114.701 77.2165 113.306 76.7643 111.9C75.9105 109.333 74.9125 106.817 73.775 104.364C72.653 101.889 71.443 99.4569 70.254 97.0161C69.065 94.5752 67.8216 92.1637 66.9047 89.6182C66.0674 87.1858 65.7282 84.6654 66.3814 82.145C67.0345 79.6247 68.4412 77.3974 69.9107 75.2998C70.2959 74.7472 70.6936 74.1987 71.083 73.6252C71.1123 73.5833 71.1751 73.6252 71.1458 73.6754C69.5256 75.8608 67.9472 78.1761 66.9968 80.7425C66.5111 82.0075 66.2394 83.3446 66.193 84.6989C66.185 86.0736 66.3985 87.4406 66.8252 88.7474C67.6122 91.2929 68.8557 93.7002 70.0154 96.095C71.1751 98.4898 72.4144 100.968 73.5573 103.434C74.7364 105.916 75.7846 108.458 76.6973 111.05C77.0867 112.201 77.5346 113.407 77.5012 114.642C77.4718 115.994 76.8271 117.213 76.1572 118.351C73.2266 123.313 70.2247 128.215 67.1685 133.088C64.1122 137.962 60.968 142.835 57.7861 147.658L56.5804 149.479C56.5176 149.555 56.4087 149.467 56.459 149.379Z" fill="#263238"/>
<path d="M91.5642 57.8875C93.377 61.8648 102.533 67.3452 106.82 67.9355C109.902 68.3542 119.272 68.5049 122.483 68.015C126.251 67.4373 123.37 57.2846 121.147 57.5484C115.035 58.2601 109.843 59.0556 108.21 59.0556C106.218 59.0556 95.4369 55.5974 94.139 55.1076C90.9571 53.9227 90.5385 55.6309 91.5642 57.8875Z" fill="#EB9481"/>
<path d="M91.6228 58.9468C93.9171 62.3422 101.541 67.8937 101.541 67.8937L102.6 65.5491L106.104 57.7954C106.104 57.7954 99.1002 55.5974 94.4907 54.5926C93.9482 54.4692 93.3965 54.3908 92.8411 54.3582C89.8979 54.1991 89.6425 56.0161 91.6228 58.9468Z" fill="#92E3A9"/>
<path d="M91.6228 58.9466C93.9171 62.342 101.541 67.8935 101.541 67.8935L102.6 65.549C99.7575 62.2457 95.3657 57.2426 92.8411 54.3664C89.8979 54.1989 89.6425 56.0159 91.6228 58.9466Z" fill="#263238"/>
<path d="M100.168 66.3195C100.75 64.8919 103.337 59.1436 103.982 57.9462C104.024 57.8624 104.091 57.8708 104.053 57.9462C102.931 60.8048 101.653 63.6001 100.226 66.3195C100.21 66.3697 100.143 66.353 100.168 66.3195Z" fill="#263238"/>
<path d="M120.025 57.653C123.743 57.1673 128.344 56.3342 132.242 57.9879C132.68 58.1596 133.047 58.4738 133.284 58.8797C135.043 59.5914 135.235 60.6339 135.235 60.6339C136.671 61.7978 136.722 62.8947 136.722 62.8947C136.722 62.8947 138.781 63.732 138.467 65.0801C138.124 66.5706 135.302 65.0801 133.251 65.2015C128.541 65.4946 121.947 67.2237 120.586 67.4414L120.025 57.653Z" fill="#EB9481"/>
<path d="M128.101 62.0406C129.478 61.9464 130.86 61.9464 132.238 62.0406C133.737 62.2288 135.221 62.5297 136.676 62.9408C136.685 62.9441 136.695 62.9435 136.704 62.9392C136.713 62.9349 136.72 62.9272 136.724 62.9177C136.727 62.9083 136.726 62.8979 136.722 62.8889C136.718 62.8799 136.71 62.8729 136.701 62.8696C133.968 61.7974 130.993 61.4962 128.101 61.9988C128.034 61.9904 128.034 62.0448 128.101 62.0406Z" fill="#263238"/>
<path d="M127.226 57.6907C129.525 57.8079 130.961 58.1763 133.272 58.8713V58.8462C130.726 57.7828 129.684 57.6823 127.214 57.5902C127.134 57.6237 127.138 57.6907 127.226 57.6907Z" fill="#263238"/>
<path d="M127.599 65.9133C127 66.1938 127.147 66.5078 128.29 66.7716C129.433 67.0354 134.184 67.1149 134.017 68.7728C133.85 70.4307 127.147 70.2214 125.275 69.6353C123.404 69.0491 120.586 67.4415 120.586 67.4415C121.913 67.2196 125.028 66.3781 127.599 65.9133Z" fill="#EB9481"/>
<path d="M96.5421 64.2262C96.5128 64.9421 96.4458 65.6706 96.3454 66.3949C96.3454 66.3656 96.3454 66.3405 96.3747 66.3153C96.5128 65.9385 96.651 65.5534 96.8184 65.1891C96.8184 65.1891 96.8603 65.1891 96.8561 65.1891C96.7757 65.5882 96.655 65.9782 96.4961 66.353C96.4207 66.533 96.3495 66.7089 96.27 66.8847C96.2198 67.2071 96.1611 67.5253 96.0983 67.8435C95.9727 68.4422 95.4075 70.9877 95.261 71.4189C95.2359 71.5068 95.127 71.4859 95.1354 71.3854C95.1647 70.9165 95.6378 68.2663 95.7341 67.6634C95.9211 66.4994 96.1713 65.3464 96.4835 64.2094C96.5044 64.1885 96.5463 64.2053 96.5421 64.2262Z" fill="#263238"/>
<path d="M92.188 83.2629C91.0702 83.8365 89.63 84.7282 83.1406 83.4513C82.722 83.3675 82.3284 83.2671 81.9181 83.1457C75.8349 81.3203 68.5208 74.1653 68.123 73.6587C68.123 73.6587 77.7901 57.988 90.1533 53.0603C91.6814 52.4532 94.2102 53.6255 95.596 55.0866C96.0942 55.61 97.1785 59.4575 96.764 62.5724C96.3495 65.6873 93.3017 82.6893 92.188 83.2629Z" fill="#92E3A9"/>
<path d="M91.3172 62.4301C91.3639 63.0923 91.2711 63.7569 91.045 64.381C90.9919 63.7186 91.0848 63.0526 91.3172 62.4301Z" fill="white"/>
<path d="M87.1012 73.1018C87.1278 73.4314 87.1166 73.7629 87.0677 74.0899C87.0274 74.4193 86.9472 74.7427 86.829 75.0528C86.8002 74.7219 86.8114 74.3887 86.8625 74.0606C86.9053 73.7329 86.9854 73.4113 87.1012 73.1018Z" fill="white"/>
<path d="M79.9378 65.0341C79.9849 65.6976 79.8922 66.3637 79.6656 66.9892C79.613 66.3255 79.7059 65.6582 79.9378 65.0341Z" fill="white"/>
<path d="M94.0762 72.5576C94.1029 72.8886 94.0917 73.2215 94.0427 73.5499C94.0024 73.8793 93.9223 74.2026 93.8041 74.5128C93.7752 74.1819 93.7865 73.8487 93.8375 73.5206C93.8799 73.1915 93.9599 72.8684 94.0762 72.5576Z" fill="white"/>
<path d="M84.8781 63.6524C85.2074 63.6244 85.539 63.6342 85.8661 63.6817C86.1957 63.7235 86.519 63.805 86.829 63.9245C86.1668 63.9721 85.502 63.8794 84.8781 63.6524Z" fill="white"/>
<path d="M76.7475 71.3603C77.4097 71.3136 78.0744 71.4063 78.6985 71.6324C78.0361 71.6855 77.3701 71.5926 76.7475 71.3603Z" fill="white"/>
<path d="M86.3267 79.7043C86.9889 79.6567 87.6537 79.7494 88.2777 79.9764C87.6153 80.0287 86.9495 79.9358 86.3267 79.7043Z" fill="white"/>
<path d="M74.2397 76.673C74.9019 76.6263 75.5666 76.719 76.1907 76.9451C75.5283 76.9974 74.8625 76.9045 74.2397 76.673Z" fill="white"/>
<path d="M91.2544 54.9275C91.9166 54.8808 92.5812 54.9736 93.2053 55.1997C92.5431 55.2463 91.8785 55.1536 91.2544 54.9275Z" fill="white"/>
<path d="M88.8889 57.5986C88.6772 57.8531 88.4354 58.0808 88.1688 58.2769C87.9093 58.4775 87.6285 58.6488 87.3314 58.7876C87.5417 58.5348 87.7805 58.3072 88.0432 58.1094C88.3051 57.908 88.5887 57.7367 88.8889 57.5986Z" fill="white"/>
<path d="M75.9981 65.1891C75.7839 65.4413 75.5408 65.6675 75.2739 65.8631C75.0171 66.0675 74.7358 66.2391 74.4365 66.3739C74.6519 66.1228 74.8949 65.8967 75.1608 65.6999C75.4182 65.4963 75.6994 65.3248 75.9981 65.1891Z" fill="white"/>
<path d="M92.0959 68.6138C91.8818 68.8673 91.6387 69.0949 91.3716 69.292C91.1142 69.4955 90.8331 69.6671 90.5343 69.8028C90.7485 69.5492 90.9916 69.3216 91.2586 69.1245C91.5174 68.9231 91.7983 68.7517 92.0959 68.6138Z" fill="white"/>
<path d="M81.6711 75.1783C81.457 75.4319 81.2139 75.6595 80.9468 75.8566C80.689 76.0595 80.4079 76.231 80.1095 76.3674C80.3237 76.1138 80.5668 75.8862 80.8338 75.6891C81.0926 75.4876 81.3735 75.3163 81.6711 75.1783Z" fill="white"/>
<path d="M96.09 59.646C95.8758 59.8995 95.6327 60.1272 95.3657 60.3242C95.1063 60.5249 94.8254 60.6962 94.5284 60.835C94.7425 60.5815 94.9856 60.3538 95.2526 60.1568C95.5105 59.9538 95.7916 59.7824 96.09 59.646Z" fill="white"/>
<path d="M95.8723 67.2529C95.6187 67.0387 95.3911 66.7957 95.194 66.5286C94.9903 66.2714 94.8187 65.9902 94.6833 65.6913C94.9377 65.9029 95.1654 66.1447 95.3615 66.4114C95.5615 66.6727 95.7328 66.9549 95.8723 67.2529Z" fill="white"/>
<path d="M72.6363 72.4947C72.3827 72.2806 72.1551 72.0375 71.958 71.7704C71.7565 71.5116 71.5852 71.2307 71.4473 70.9331C71.7008 71.1473 71.9284 71.3904 72.1255 71.6574C72.3284 71.9152 72.4999 72.1963 72.6363 72.4947Z" fill="white"/>
<path d="M93.0463 78.7286C92.7918 78.5169 92.5641 78.2751 92.368 78.0085C92.1674 77.7491 91.9961 77.4682 91.8572 77.1711C92.1108 77.3853 92.3384 77.6284 92.5355 77.8954C92.7375 78.1524 92.9089 78.432 93.0463 78.7286Z" fill="white"/>
<path d="M82.8182 60.9564C82.5648 60.7437 82.3371 60.502 82.14 60.2363C81.9402 59.9763 81.769 59.6955 81.6292 59.3989C81.8836 59.6106 82.1114 59.8524 82.3074 60.119C82.5072 60.379 82.6785 60.6598 82.8182 60.9564Z" fill="white"/>
<path d="M82.9983 82.279C82.7447 82.0649 82.5171 81.8218 82.32 81.5547C82.1192 81.2955 81.9479 81.0146 81.8093 80.7174C82.0637 80.9291 82.2915 81.1709 82.4875 81.4375C82.689 81.6979 82.8603 81.9802 82.9983 82.279Z" fill="white"/>
<path d="M84.7357 69.7023C84.4846 69.4869 84.2585 69.2439 84.0617 68.978C83.8573 68.7212 83.6857 68.4399 83.5509 68.1406C83.8031 68.3549 84.0294 68.598 84.225 68.8649C84.4285 69.1223 84.6 69.4035 84.7357 69.7023Z" fill="white"/>
<path d="M93.3309 59.2607C91.7526 58.9676 90.2705 55.7062 90.0821 53.5124C90.0821 53.3617 90.8189 52.1685 91.6605 50.6739C92.1712 49.7653 92.7113 48.7396 93.1425 47.7683C93.2305 47.5715 93.7454 48.2372 93.7454 48.2372L94.8674 49.0745L98.5727 51.9173C97.6903 52.976 96.9409 54.1388 96.3412 55.3797C96.2819 55.5141 96.237 55.6545 96.2072 55.7983C96.2055 55.822 96.2055 55.8458 96.2072 55.8695C95.9769 56.6985 94.8507 59.5412 93.3309 59.2607Z" fill="#EB9481"/>
<path d="M96.2072 55.8194C96.2056 55.843 96.2056 55.8668 96.2072 55.8905C95.9872 55.826 95.773 55.7434 95.5666 55.6435C91.5098 53.7428 93.2975 48.3085 93.2975 48.3085L94.8884 49.0956L98.5936 51.9383C97.7113 52.9971 96.9619 54.1598 96.3621 55.4007C96.2957 55.5343 96.2438 55.6747 96.2072 55.8194Z" fill="#263238"/>
<path d="M102.83 40.3495C102.83 40.3495 104.685 41.5259 104.694 43.6193C104.702 45.7126 103.856 47.7599 103.68 47.8352C103.504 47.9106 102.83 40.3495 102.83 40.3495Z" fill="#263238"/>
<path d="M93.6282 41.438C92.5146 43.636 92.5732 50.5649 93.9631 52.3485C95.9811 54.9358 99.8663 55.8276 102.215 53.2695C104.488 50.791 104.254 41.7646 102.634 40.0815C100.277 37.5947 95.2778 38.185 93.6282 41.438Z" fill="#EB9481"/>
<path d="M99.5398 46.9854C99.5398 46.9854 99.5021 47.0105 99.5063 47.0272C99.5314 47.5003 99.4812 48.0446 99.0583 48.212C99.0583 48.212 99.0583 48.2414 99.0583 48.2372C99.5817 48.1534 99.6403 47.4291 99.5398 46.9854Z" fill="#263238"/>
<path d="M99.1085 46.5039C98.3465 46.462 98.3214 47.986 99.029 48.0237C99.7365 48.0613 99.7449 46.5374 99.1085 46.5039Z" fill="#263238"/>
<path d="M102.123 46.9686C102.123 46.9686 102.161 46.9686 102.161 47.0105C102.136 47.4836 102.19 48.0279 102.617 48.1911C102.617 48.1911 102.617 48.2204 102.617 48.2163C102.089 48.1367 102.027 47.4124 102.123 46.9686Z" fill="#263238"/>
<path d="M102.554 46.4831C103.312 46.437 103.35 47.961 102.646 48.0028C101.943 48.0447 101.918 46.5208 102.554 46.4831Z" fill="#263238"/>
<path d="M98.6312 45.3443C98.8313 45.2874 99.0283 45.2203 99.2215 45.1433C99.4414 45.1035 99.6418 44.9916 99.7909 44.8251C99.8271 44.7642 99.8422 44.693 99.8339 44.6226C99.8256 44.5523 99.7943 44.4866 99.7449 44.4358C99.6316 44.3496 99.4974 44.2953 99.356 44.2784C99.2147 44.2615 99.0715 44.2825 98.941 44.3395C98.6585 44.4151 98.414 44.5926 98.2544 44.8377C98.2226 44.896 98.2081 44.9622 98.2127 45.0285C98.2174 45.0948 98.2409 45.1584 98.2806 45.2117C98.3202 45.265 98.3743 45.3058 98.4365 45.3293C98.4986 45.3528 98.5662 45.358 98.6312 45.3443Z" fill="#263238"/>
<path d="M103.073 46.0183C102.87 45.9728 102.668 45.9169 102.47 45.8509C102.25 45.8217 102.045 45.7201 101.888 45.562C101.848 45.5038 101.829 45.4336 101.833 45.3629C101.838 45.2922 101.866 45.2252 101.914 45.1726C102.022 45.0803 102.152 45.0188 102.292 44.9945C102.432 44.9702 102.576 44.984 102.709 45.0345C102.995 45.0938 103.249 45.2581 103.421 45.495C103.457 45.5511 103.475 45.6164 103.475 45.6829C103.474 45.7495 103.454 45.8145 103.418 45.8699C103.381 45.9254 103.329 45.9689 103.268 45.9953C103.206 46.0216 103.139 46.0296 103.073 46.0183Z" fill="#263238"/>
<path d="M98.468 51.4611C98.581 51.5741 98.6899 51.7248 98.8615 51.7416C99.0375 51.7415 99.2115 51.7044 99.3723 51.6327C99.3723 51.6327 99.4016 51.6327 99.3723 51.6578C99.3037 51.7499 99.2113 51.8215 99.1051 51.865C98.9989 51.9085 98.8829 51.9223 98.7694 51.9049C98.6738 51.8788 98.5879 51.8252 98.5224 51.7508C98.4569 51.6764 98.4147 51.5844 98.401 51.4862C98.3977 51.4773 98.398 51.4675 98.4019 51.4588C98.4058 51.4502 98.413 51.4435 98.4219 51.4401C98.4308 51.4368 98.4406 51.4371 98.4493 51.4411C98.4579 51.445 98.4646 51.4522 98.468 51.4611Z" fill="#263238"/>
<path d="M101.206 49.4429C101.206 49.4429 101.227 50.1462 101.206 50.477C100.563 50.4087 99.913 50.4312 99.276 50.5439C99.1253 50.5774 99.142 50.456 99.3137 50.3765C99.8268 50.1419 100.398 50.0661 100.955 50.1588C100.988 50.0709 100.9 49.0702 100.955 49.0744C101.208 49.1241 101.453 49.2087 101.683 49.3256C101.683 47.8519 101.449 46.395 101.47 44.9213C101.47 44.871 101.549 44.8626 101.558 44.9213C101.855 46.4802 101.995 48.0652 101.976 49.6522C101.981 49.8322 101.332 49.5098 101.206 49.4429Z" fill="#263238"/>
<path d="M100.264 50.226C100.097 50.665 99.7875 51.0351 99.3849 51.2769C98.7527 51.5323 98.5476 50.9587 99.1839 50.4395C99.5177 50.2709 99.8913 50.197 100.264 50.226Z" fill="#263238"/>
<path d="M99.6068 51.1471C99.5399 51.2016 99.4651 51.2453 99.3849 51.2769C98.8029 51.5114 98.5726 51.0467 99.0416 50.5778C99.3597 50.6029 99.724 50.7201 99.6068 51.1471Z" fill="#FF99BA"/>
<path d="M93.31 47.362C94.0761 47.5964 94.9554 45.2938 95.2066 44.4313C95.4243 43.6526 95.6755 41.1783 95.7131 41.0066C95.7508 40.835 99.0625 43.1963 100.98 42.6352C102.897 42.0742 104.2 40.3368 104.229 39.5287C104.258 38.7207 101.859 36.6692 99.7868 36.5646C97.7144 36.4599 94.9051 39.0766 94.9051 39.0766C95.2444 38.6915 95.5524 38.2799 95.8262 37.8457C95.7927 37.7536 94.453 38.2895 94.2059 39.244C94.2059 39.244 94.4739 38.0425 94.3734 38.0215C94.2729 38.0006 93.2304 39.0263 93.4649 39.8051C93.4649 39.8051 92.2591 40.8475 92.1503 41.9905C92.0414 43.1335 92.4099 47.0857 93.31 47.362Z" fill="#263238"/>
<path d="M102.353 42.2C101.783 42.5092 101.169 42.7294 100.532 42.8531C99.8173 42.9169 99.0979 42.8018 98.4387 42.5182C97.7746 42.2616 97.1578 41.8966 96.6133 41.438C96.1318 41.0445 95.7006 40.563 95.1857 40.2113C95.0559 40.1192 94.9093 40.3076 94.9889 40.4248C95.848 41.6384 97.0754 42.5427 98.4889 43.0038C99.1455 43.2179 99.8463 43.2579 100.523 43.1199C101.2 42.9819 101.829 42.6707 102.349 42.2167C102.349 42.2167 102.362 42.2 102.353 42.2Z" fill="#263238"/>
<path d="M94.1096 47.1571C94.1096 47.1571 92.9206 44.7456 91.8488 45.1349C90.7771 45.5243 91.4302 48.8611 92.5313 49.4723C92.6661 49.5596 92.8173 49.6187 92.9755 49.6462C93.1338 49.6736 93.296 49.6688 93.4524 49.6321C93.6088 49.5953 93.7561 49.5274 93.8856 49.4323C94.0151 49.3372 94.124 49.217 94.2059 49.0788L94.1096 47.1571Z" fill="#EB9481"/>
<path d="M92.0623 46.0853C92.0623 46.0853 92.0372 46.0853 92.0623 46.1188C92.8243 46.571 93.1341 47.3748 93.3183 48.2122C93.2837 48.1235 93.2301 48.0435 93.1615 47.9775C93.0928 47.9116 93.0107 47.8614 92.9207 47.8303C92.8307 47.7993 92.735 47.7881 92.6403 47.7977C92.5456 47.8072 92.4541 47.8372 92.3722 47.8856C92.347 47.8856 92.3722 47.9316 92.3722 47.9316C92.5219 47.9084 92.6752 47.9321 92.811 47.9996C92.9467 48.0671 93.0581 48.175 93.1299 48.3084C93.2498 48.532 93.3452 48.7678 93.4146 49.0118C93.4398 49.0914 93.5779 49.0704 93.5654 48.9825C93.7454 47.94 93.1592 46.3616 92.0623 46.0853Z" fill="#263238"/>
<path d="M86.2596 57.9252C85.4223 62.6687 90.5635 78.6492 93.8584 81.6343C98.761 86.0722 107.825 88.9903 111.112 89.9407C112.544 90.3593 116.504 80.282 115.056 79.6163C111.953 78.2054 102.316 75.191 101.399 74.4374C100.482 73.6838 94.9553 65.6999 92.4936 61.1029C89.1987 54.915 86.6741 55.5263 86.2596 57.9252Z" fill="#EB9481"/>
<path d="M112.615 78.7289C112.615 78.7289 116.893 79.8216 119.653 80.6631C121.193 81.1362 123.764 82.1787 124.739 83.0411C126.196 84.3348 131.463 90.6651 129.956 91.9755C128.591 93.1645 124.756 87.1483 124.756 87.1483C124.756 87.1483 129.16 92.8756 127.268 94.0018C125.376 95.1281 121.913 87.7553 121.913 87.7553C121.913 87.7553 126.305 93.7423 124.157 94.5922C122.533 95.2327 119.05 88.7308 119.05 88.7308C119.05 88.7308 122.793 93.9014 121.143 94.634C119.326 95.4462 115.738 89.6435 115.738 89.6435C111.25 90.8032 108.621 89.5179 106.892 88.3875C106.485 88.1112 112.615 78.7289 112.615 78.7289Z" fill="#EB9481"/>
<path d="M123.358 85.0674C123.902 85.7205 124.455 86.382 124.936 87.0811C125.418 87.7803 125.874 88.5004 126.288 89.2415C126.85 90.2 127.3 91.2198 127.628 92.281C126.908 90.4389 125.221 87.9059 124.739 87.2067C124.258 86.5076 123.81 85.7833 123.333 85.0841C123.32 85.0674 123.345 85.0506 123.358 85.0674Z" fill="#263238"/>
<path d="M120.8 86.763C121.729 87.4999 123.676 90.2379 124.425 92.0759C124.459 92.1513 124.425 92.1471 124.371 92.0759C123.785 91.1674 121.407 87.6506 120.779 86.7756C120.766 86.763 120.787 86.7505 120.8 86.763Z" fill="#263238"/>
<path d="M118.342 87.8347C119.497 89.046 120.409 90.4671 121.03 92.0214C121.059 92.0967 121.001 92.0842 120.955 92.0214C120.088 90.6105 119.418 89.5094 118.296 87.8724C118.279 87.8347 118.317 87.797 118.342 87.8347Z" fill="#263238"/>
<path d="M90.932 58.2726C87.1096 52.8676 84.8236 54.8688 85.5898 60.7385C86.3099 66.2272 88.2316 72.7668 88.2316 72.7668L97.8609 68.0945C97.8609 68.0945 93.3644 61.7349 90.932 58.2726Z" fill="#92E3A9"/>
<path d="M93.2556 60.3994C93.3825 60.7047 93.4738 61.0236 93.5277 61.3498C93.5865 61.677 93.6075 62.01 93.5905 62.342C93.4649 62.0352 93.375 61.7149 93.3225 61.3875C93.2603 61.062 93.2378 60.7303 93.2556 60.3994Z" fill="white"/>
<path d="M87.5492 63.6861C88.1637 63.4361 88.8249 63.3219 89.4876 63.3512C89.1822 63.4767 88.8633 63.5666 88.5372 63.6191C88.2118 63.6813 87.88 63.7037 87.5492 63.6861Z" fill="white"/>
<path d="M87.7962 55.2792C87.5369 55.891 87.1501 56.4405 86.6616 56.891C86.9209 56.2792 87.3077 55.7297 87.7962 55.2792Z" fill="white"/>
<path d="M95.956 66.2104C95.8289 66.5167 95.6673 66.8074 95.4745 67.0771C95.2867 67.3502 95.0675 67.6003 94.8214 67.8223C95.0806 67.2105 95.4675 66.6609 95.956 66.2104Z" fill="white"/>
<path d="M89.2573 69.4887C88.9504 69.3631 88.6595 69.2015 88.3907 69.0072C88.1174 68.8196 87.8673 68.6004 87.6454 68.3541C88.2573 68.6134 88.8068 69.0002 89.2573 69.4887Z" fill="white"/>
<path d="M92.188 59.9014C92.7029 60.6089 93.2346 61.2997 93.7622 61.9947C93.6282 61.643 93.511 61.2872 93.4105 60.9271H93.4356C93.5403 61.2034 93.6617 61.4756 93.7622 61.7644L93.9129 62.1831C93.9259 62.2117 93.937 62.241 93.9464 62.271C94.365 62.8111 94.7837 63.3512 95.1689 63.9038C95.642 64.5653 96.0983 65.2352 96.5589 65.905C97.0194 66.5749 97.4841 67.4081 97.9823 68.0821C98.0284 68.1407 97.145 68.5008 97.0487 68.5468C96.9524 68.5929 96.9022 68.5133 96.9943 68.484C97.0864 68.4547 97.7897 68.0235 97.7981 68.0151C97.3376 67.3369 96.8059 66.7131 96.3244 66.0558C95.8429 65.3985 95.3656 64.7412 94.9009 64.0755C93.9589 62.719 93.0965 61.3123 92.1587 59.9516L92.188 59.9014Z" fill="#263238"/>
<path d="M85.8159 64.6238C85.9624 64.9084 86.1215 65.189 86.2345 65.482L86.3936 65.8463C86.1717 64.8038 85.975 63.7529 85.7447 62.7104C86.1885 64.3851 86.6365 66.0975 87.0467 67.7972C87.4361 69.4217 87.9092 71.0628 88.1353 72.7208C88.4272 72.5927 88.7298 72.4904 89.0396 72.4151C88.7287 72.6163 88.394 72.7781 88.0432 72.8966C87.5385 71.2107 87.1193 69.5003 86.7872 67.7721C86.6825 67.3032 86.5862 66.8343 86.4857 66.3654C86.3769 66.0807 86.2471 65.8086 86.1173 65.5281C85.9875 65.2476 85.8703 64.9336 85.7531 64.6363C85.7782 64.6196 85.8075 64.6028 85.8159 64.6238Z" fill="#263238"/>
<path d="M88.3739 71.1509C89.7137 70.3973 95.3113 67.5001 96.5631 66.9642C96.651 66.9265 96.697 66.9642 96.6091 67.0228C93.9521 68.5668 91.2127 69.9644 88.4033 71.2095C88.3698 71.2179 88.3363 71.1718 88.3739 71.1509Z" fill="#263238"/>
<path d="M241.786 181.218H114.227L132.669 76.6144H260.228L241.786 181.218Z" fill="#92E3A9"/>
<path d="M176.327 65.7795H134.582L132.669 76.6146H177.345L176.327 65.7795Z" fill="#92E3A9"/>
<g opacity="0.1">
<path d="M241.786 181.218H114.227L132.669 76.6144H260.228L241.786 181.218Z" fill="black"/>
<path d="M176.327 65.7795H134.582L132.669 76.6146H177.345L176.327 65.7795Z" fill="black"/>
</g>
<path d="M130.077 70.2004C129.798 69.0023 129.798 67.7561 130.077 66.558C130.356 67.7561 130.356 69.0023 130.077 70.2004Z" fill="#263238"/>
<path d="M126.368 71.2723C125.942 70.8302 125.574 70.3349 125.275 69.7986C124.961 69.2734 124.715 68.7107 124.543 68.1239C124.97 68.5633 125.338 69.0575 125.635 69.5934C125.948 70.1204 126.194 70.6844 126.368 71.2723Z" fill="#263238"/>
<path d="M123.688 74.0567C122.512 73.699 121.433 73.0759 120.536 72.2355C121.123 72.4061 121.686 72.6509 122.211 72.9639C122.747 73.265 123.243 73.6321 123.688 74.0567Z" fill="#263238"/>
<path d="M122.751 77.8075C121.553 78.0867 120.306 78.0867 119.108 77.8075C120.306 77.5284 121.553 77.5284 122.751 77.8075Z" fill="#263238"/>
<path d="M123.839 81.5171C123.395 81.9412 122.9 82.3082 122.365 82.6098C121.841 82.9229 121.278 83.1677 120.691 83.3383C121.133 82.912 121.628 82.5447 122.165 82.2456C122.689 81.931 123.252 81.6861 123.839 81.5171Z" fill="#263238"/>
<path d="M126.619 84.1924C126.263 85.3706 125.639 86.4508 124.798 87.3491C124.968 86.7615 125.215 86.1985 125.531 85.6745C125.829 85.1362 126.195 84.6382 126.619 84.1924Z" fill="#263238"/>
<path d="M130.37 85.1176C130.516 85.7134 130.587 86.3253 130.58 86.9388C130.589 87.5523 130.518 88.1645 130.37 88.76C130.22 88.1648 130.15 87.5524 130.161 86.9388C130.154 86.3253 130.224 85.7134 130.37 85.1176Z" fill="#263238"/>
<path d="M134.08 84.0668C134.506 84.5089 134.873 85.0042 135.172 85.5406C135.487 86.0647 135.732 86.6277 135.901 87.2152C135.059 86.3169 134.436 85.2367 134.08 84.0585V84.0668Z" fill="#263238"/>
<path d="M136.755 81.2617C137.343 81.4307 137.906 81.6756 138.43 81.9902C138.966 82.2893 139.461 82.6566 139.903 83.0829C139.316 82.9139 138.753 82.669 138.229 82.3544C137.692 82.0553 137.197 81.688 136.755 81.2617Z" fill="#263238"/>
<path d="M137.68 77.5104C138.88 77.2314 140.127 77.2314 141.327 77.5104C140.127 77.7895 138.88 77.7895 137.68 77.5104Z" fill="#263238"/>
<path d="M136.609 73.8009C137.052 73.3772 137.547 73.0114 138.082 72.7124C138.605 72.3948 139.169 72.1484 139.757 71.9797C138.859 72.8213 137.778 73.4445 136.6 73.8009H136.609Z" fill="#263238"/>
<path d="M133.824 71.1257C133.997 70.5394 134.241 69.9768 134.553 69.451C134.852 68.9147 135.219 68.4193 135.646 67.9773C135.477 68.5648 135.232 69.1278 134.917 69.652C134.618 70.1883 134.251 70.6836 133.824 71.1257Z" fill="#263238"/>
<path d="M241.598 181.218H113.766L95.6127 80.4117H223.448L241.598 181.218Z" fill="#92E3A9"/>
<path d="M139.912 142.035C142.846 142.035 145.225 139.657 145.225 136.723C145.225 133.788 142.846 131.41 139.912 131.41C136.978 131.41 134.599 133.788 134.599 136.723C134.599 139.657 136.978 142.035 139.912 142.035Z" fill="#263238"/>
<path d="M181.912 142.035C184.847 142.035 187.225 139.657 187.225 136.723C187.225 133.788 184.847 131.41 181.912 131.41C178.978 131.41 176.6 133.788 176.6 136.723C176.6 139.657 178.978 142.035 181.912 142.035Z" fill="#263238"/>
<path d="M168.544 142.885L168.251 142.328C168.226 142.278 165.48 137.204 159.958 137.204C154.934 137.204 153.678 141.981 153.644 142.186L153.493 142.793L152.275 142.5L152.422 141.889C152.422 141.83 153.92 135.948 159.958 135.948C166.238 135.948 169.239 141.508 169.365 141.747L169.658 142.299L168.544 142.885Z" fill="#263238"/>
<path d="M233.157 136.316L233.069 135.898C233.341 135.839 233.609 135.776 233.877 135.705L233.982 136.124C233.697 136.195 233.434 136.258 233.157 136.316Z" fill="#263238"/>
<path d="M235.602 135.642L235.468 135.249C235.992 135.069 236.515 134.872 237.022 134.658L237.185 135.044C236.67 135.261 236.138 135.462 235.602 135.642ZM238.721 134.307L238.533 133.938C239.023 133.683 239.513 133.407 239.977 133.101L240.195 133.457C239.718 133.788 239.22 134.068 238.721 134.307ZM241.602 132.536L241.355 132.197C241.807 131.866 242.242 131.518 242.653 131.163L242.929 131.477C242.489 131.858 242.071 132.213 241.598 132.553L241.602 132.536ZM244.156 130.309L243.85 130.02C244.235 129.601 244.599 129.182 244.934 128.764L245.265 129.019C244.918 129.48 244.545 129.911 244.164 130.325L244.156 130.309ZM246.228 127.629L245.872 127.407C246.162 126.939 246.419 126.453 246.642 125.95L247.028 126.122C246.791 126.646 246.523 127.155 246.224 127.646L246.228 127.629ZM247.614 124.523L247.195 124.405C247.348 123.88 247.461 123.344 247.534 122.802L247.953 122.856C247.884 123.426 247.769 123.988 247.61 124.539L247.614 124.523ZM248.079 121.173H247.66V121.052C247.66 120.545 247.631 120.03 247.58 119.524L247.999 119.482C248.054 120.003 248.082 120.527 248.083 121.052L248.079 121.173ZM247.325 117.895C247.212 117.355 247.073 116.822 246.906 116.296L247.325 116.17C247.497 116.714 247.643 117.267 247.744 117.807L247.325 117.895ZM246.333 114.742C246.132 114.248 245.914 113.742 245.646 113.231L246.023 113.043C246.278 113.562 246.513 114.081 246.718 114.583L246.333 114.742ZM244.867 111.757C244.608 111.301 244.323 110.82 244.03 110.326L244.386 110.104C244.692 110.602 244.98 111.088 245.223 111.552L244.867 111.757ZM243.117 108.915C242.812 108.454 242.502 107.989 242.184 107.525L242.531 107.29C242.849 107.755 243.159 108.22 243.465 108.689L243.117 108.915ZM241.233 106.143C240.919 105.683 240.601 105.218 240.291 104.757L240.639 104.523C240.949 104.983 241.263 105.448 241.577 105.904L241.233 106.143ZM239.362 103.355C239.056 102.886 238.759 102.409 238.466 101.931L238.822 101.714C239.115 102.191 239.412 102.66 239.714 103.129L239.362 103.355ZM237.616 100.479C237.331 99.9719 237.068 99.4695 236.829 98.9881L237.206 98.7997C237.44 99.277 237.704 99.771 237.98 100.273L237.616 100.479ZM236.13 97.4641C235.908 96.9408 235.711 96.4091 235.527 95.8899L235.946 95.756C236.121 96.2626 236.318 96.7859 236.536 97.3008L236.13 97.4641ZM235.041 94.2697C234.903 93.7254 234.782 93.1686 234.69 92.595L235.108 92.528C235.2 93.0639 235.313 93.6082 235.452 94.1441L235.041 94.2697ZM234.48 90.9204C234.438 90.4054 234.417 89.8863 234.417 89.3671V89.229H234.836V89.3629C234.836 89.8695 234.836 90.3803 234.899 90.8827L234.48 90.9204ZM234.899 87.571L234.48 87.5292C234.48 87.4161 234.501 87.2989 234.514 87.1775C234.564 86.7295 234.627 86.2815 234.702 85.8545L235.121 85.9257C235.05 86.3443 234.987 86.7839 234.937 87.2235C234.953 87.3533 234.953 87.4664 234.92 87.5836L234.899 87.571ZM235.481 84.3138L235.062 84.2008C235.217 83.6481 235.397 83.108 235.598 82.5931L235.987 82.7438C235.797 83.2622 235.635 83.7905 235.502 84.3264L235.481 84.3138ZM256.343 81.873C256.109 81.873 255.866 81.8395 255.627 81.806C255.301 81.7599 254.974 81.7055 254.652 81.6427L254.735 81.2241C255.045 81.2827 255.368 81.3371 255.686 81.3831C255.912 81.4124 256.142 81.4334 256.364 81.4459L256.343 81.873ZM258.064 81.7432L257.976 81.3245C258.501 81.216 259.005 81.0208 259.466 80.7468L259.684 81.1026C259.191 81.4078 258.65 81.6285 258.085 81.7558L258.064 81.7432ZM236.687 81.245L236.314 81.0482C236.581 80.5489 236.876 80.0653 237.197 79.5996L237.541 79.8383C237.235 80.2942 236.957 80.7681 236.708 81.2575L236.687 81.245ZM253.015 81.2199C252.474 81.0484 251.943 80.8486 251.424 80.6212L251.595 80.236C252.099 80.4596 252.614 80.6539 253.14 80.8179L253.015 81.2199ZM260.969 79.9136L260.622 79.6792C260.92 79.2467 261.096 78.742 261.133 78.218L261.551 78.2473C261.516 78.8479 261.319 79.4279 260.982 79.9262L260.969 79.9136ZM249.916 79.8508C249.427 79.566 248.953 79.2543 248.497 78.9172L248.744 78.5823C249.188 78.9092 249.649 79.2111 250.126 79.4866L249.916 79.8508ZM238.571 78.5446L238.261 78.2641C238.64 77.8425 239.044 77.444 239.471 77.0709L239.747 77.3849C239.336 77.7524 238.948 78.1438 238.583 78.5571L238.571 78.5446ZM247.191 77.837C246.774 77.4529 246.378 77.0462 246.006 76.6187L246.32 76.3424C246.682 76.7576 247.067 77.1531 247.471 77.5272L247.191 77.837ZM260.819 76.7024C260.579 76.224 260.247 75.7973 259.843 75.4464L260.119 75.1325C260.564 75.5172 260.93 75.9851 261.195 76.5099L260.819 76.7024ZM241.049 76.3717L240.81 76.0284C241.279 75.7086 241.764 75.4138 242.263 75.145L242.46 75.5134C241.979 75.7792 241.512 76.0699 241.062 76.3843L241.049 76.3717ZM244.959 75.2832C244.8 75.0571 244.645 74.8268 244.499 74.5882L243.955 74.8017L243.796 74.4165L244.277 74.2239C244.202 74.0983 244.126 73.9727 244.055 73.8471L244.419 73.642C244.503 73.7885 244.587 73.9351 244.675 74.0607C244.909 73.9769 245.148 73.8974 245.391 73.822L245.512 74.2407C245.307 74.3035 245.093 74.3705 244.901 74.4416C245.031 74.6468 245.165 74.8603 245.32 75.0403L244.959 75.2832ZM258.495 74.5631C258.09 74.3612 257.67 74.1904 257.239 74.0523L256.963 73.9644L257.084 73.5457L257.369 73.6378C257.817 73.7808 258.254 73.9585 258.675 74.1695L258.495 74.5631ZM247.116 73.8136L247.028 73.395C247.568 73.2736 248.129 73.1731 248.702 73.0935L248.765 73.5122C248.212 73.6001 247.664 73.7048 247.128 73.8262L247.116 73.8136ZM255.363 73.5876C254.84 73.4955 254.287 73.4243 253.722 73.3741L253.756 72.9554C254.338 73.0056 254.903 73.0768 255.43 73.1731L255.363 73.5876ZM250.402 73.3447L250.373 72.9261C250.871 72.8968 251.369 72.88 251.863 72.88H252.068V73.2987H251.867C251.394 73.3112 250.9 73.3238 250.415 73.3573L250.402 73.3447ZM243.327 72.3441C243.101 71.8334 242.908 71.3017 242.72 70.7616L243.138 70.6318C243.314 71.1593 243.511 71.6785 243.729 72.1767L243.327 72.3441ZM242.267 69.1288C242.142 68.5887 242.037 68.0277 241.958 67.4541L242.376 67.3955C242.456 67.9481 242.556 68.4966 242.678 69.0283L242.267 69.1288ZM241.799 65.7794C241.778 65.4026 241.765 65.0175 241.765 64.6323C241.765 64.4523 241.765 64.268 241.765 64.088H242.184C242.184 64.268 242.184 64.4439 242.184 64.6239C242.184 65.0007 242.184 65.3817 242.213 65.7459L241.799 65.7794ZM242.297 62.4301L241.878 62.3882C241.937 61.8356 242.016 61.2704 242.113 60.7136L242.531 60.7847C242.418 61.3416 242.339 61.8775 242.284 62.4385L242.297 62.4301ZM242.87 59.1603L242.452 59.0598C242.586 58.5198 242.741 57.9755 242.912 57.4312L243.331 57.561C243.142 58.1095 242.988 58.6412 242.858 59.1687L242.87 59.1603ZM243.875 55.991L243.486 55.8403C243.691 55.317 243.904 54.7936 244.16 54.287L244.537 54.4713C244.285 54.9736 244.064 55.4844 243.863 56.0161L243.875 55.991ZM245.315 53.0059L244.951 52.7924C245.236 52.3109 245.541 51.8295 245.86 51.3689L246.203 51.6076C245.876 52.0681 245.579 52.537 245.303 53.0143L245.315 53.0059ZM247.204 50.2804L246.877 50.0166C247.229 49.598 247.605 49.1542 247.995 48.7606L248.296 49.0495C247.903 49.4431 247.534 49.8617 247.191 50.2888L247.204 50.2804ZM249.481 47.8689L249.201 47.5591C249.619 47.1865 250.038 46.818 250.486 46.4622L250.745 46.7929C250.297 47.1488 249.87 47.513 249.468 47.8773L249.481 47.8689ZM252.081 45.8007L251.842 45.4532C252.299 45.1392 252.776 44.8294 253.262 44.5363L253.475 44.8922C252.989 45.1894 252.537 45.495 252.068 45.809L252.081 45.8007ZM254.924 44.0716L254.727 43.7031C255.221 43.4394 255.732 43.1882 256.243 42.9537L256.418 43.3347C255.887 43.5734 255.397 43.8246 254.911 44.0799L254.924 44.0716ZM257.951 42.6816L257.796 42.2881C258.323 42.0829 258.855 41.8694 259.383 41.7145L259.516 42.1331C258.985 42.2922 258.457 42.4848 257.938 42.69L257.951 42.6816Z" fill="#263238"/>
<path d="M261.179 41.6224L261.074 41.2037C261.593 41.0697 261.911 41.0111 261.911 41.0111L261.987 41.4298C261.987 41.4298 261.685 41.4926 261.179 41.6224Z" fill="#263238"/>
<path d="M268.581 38.9179C267.513 35.6104 260.362 36.7994 261.756 41.1243C263.151 45.4491 269.648 42.2295 268.581 38.9179Z" fill="#263238"/>
<path d="M257.867 37.5947C257.921 36.1419 259.939 35.0241 262.795 35.5391C265.65 36.054 268.334 37.9799 268.334 37.9799C268.334 37.9799 265.516 39.6881 262.631 40.0021C259.747 40.3161 257.813 39.0433 257.867 37.5947Z" fill="#EBEBEB"/>
<path d="M268.334 37.9716C266.852 37.9716 265.374 37.9297 263.896 37.8837C262.418 37.8376 260.936 37.7622 259.458 37.645C260.94 37.645 262.422 37.6827 263.9 37.7288C265.378 37.7748 266.86 37.8502 268.334 37.9716Z" fill="#263238"/>
<path d="M260.735 36.301C261.576 36.7035 262.37 37.1993 263.1 37.7789C262.679 37.5813 262.271 37.3576 261.878 37.109C261.481 36.8622 261.1 36.5924 260.735 36.301Z" fill="#263238"/>
<path d="M264.616 37.8334C263.859 38.4472 263.037 38.9778 262.167 39.4159C262.928 38.8014 263.753 38.2708 264.628 37.8334H264.616Z" fill="#263238"/>
<path d="M265.047 37.0168C265.47 37.2197 265.839 37.5178 266.127 37.8877C265.916 37.788 265.718 37.6628 265.537 37.5151C265.355 37.3682 265.191 37.201 265.047 37.0168Z" fill="#263238"/>
<path d="M260.588 46.1983C261.48 47.3455 263.77 47.0692 265.784 44.9842C267.798 42.8992 268.865 39.7634 268.865 39.7634C268.865 39.7634 265.566 40.0146 263.05 41.4381C260.534 42.8616 259.692 45.047 260.588 46.1983Z" fill="#EBEBEB"/>
<path d="M268.865 39.7634C267.66 40.6008 266.487 41.5302 265.311 42.4303C264.134 43.3305 262.983 44.2599 261.857 45.2187C263.063 44.3813 264.235 43.4561 265.407 42.5559C266.579 41.6558 267.722 40.7264 268.865 39.7634Z" fill="#263238"/>
<path d="M263.665 45.5494C263.889 45.1428 264.089 44.7234 264.264 44.2934C264.442 43.8623 264.593 43.4204 264.716 42.9705C264.492 43.3768 264.292 43.7962 264.118 44.2265C263.941 44.6582 263.79 45.1 263.665 45.5494Z" fill="#263238"/>
<path d="M265.935 42.0493C264.955 41.9969 263.973 42.0488 263.004 42.2042C263.492 42.2335 263.981 42.2335 264.469 42.2042C264.96 42.1802 265.45 42.1285 265.935 42.0493Z" fill="#263238"/>
<path d="M266.743 42.4638C266.855 42.257 266.942 42.0378 267.002 41.8107C267.064 41.5852 267.101 41.3535 267.111 41.1199C266.889 41.5343 266.763 41.9938 266.743 42.4638Z" fill="#263238"/>
<path d="M268.581 38.9178C268.344 38.9945 268.09 38.9994 267.851 38.9318C267.612 38.8642 267.398 38.7271 267.237 38.5379C267.076 38.3487 266.974 38.1159 266.945 37.8689C266.916 37.622 266.961 37.3721 267.075 37.1508C267.188 36.9295 267.364 36.7468 267.582 36.6259C267.799 36.5049 268.047 36.4511 268.295 36.4713C268.543 36.4915 268.779 36.5848 268.974 36.7393C269.168 36.8938 269.313 37.1027 269.389 37.3394C269.49 37.6559 269.462 37.9997 269.311 38.2955C269.159 38.5914 268.897 38.8151 268.581 38.9178Z" fill="#455A64"/>
<path d="M269.351 41.3083C269.115 41.3848 268.861 41.3894 268.622 41.3218C268.383 41.2541 268.17 41.1171 268.008 40.928C267.847 40.739 267.746 40.5064 267.717 40.2598C267.688 40.0131 267.733 39.7634 267.846 39.5421C267.959 39.3209 268.135 39.1382 268.351 39.017C268.568 38.8958 268.816 38.8416 269.064 38.8612C269.311 38.8809 269.547 38.9735 269.742 39.1274C269.937 39.2813 270.082 39.4895 270.159 39.7257C270.21 39.8827 270.229 40.0482 270.216 40.2127C270.203 40.3772 270.158 40.5375 270.083 40.6845C270.008 40.8314 269.905 40.9622 269.779 41.0692C269.653 41.1762 269.508 41.2575 269.351 41.3083Z" fill="#455A64"/>
<path d="M132.091 40.2406C131.891 42.1636 131.16 43.993 129.98 45.5248C128.8 47.0565 127.218 48.2302 125.409 48.915C123.601 49.5997 121.639 49.7686 119.74 49.4027C117.842 49.0369 116.082 48.1507 114.658 46.843L109.437 47.6091L112.05 43.0959C111.452 41.6274 111.197 40.042 111.304 38.4603C111.411 36.8785 111.877 35.3419 112.667 33.9672C113.457 32.5925 114.549 31.4159 115.862 30.5267C117.175 29.6375 118.673 29.0591 120.242 28.8355C121.812 28.6119 123.412 28.7489 124.92 29.2362C126.429 29.7234 127.807 30.5481 128.949 31.6475C130.091 32.747 130.968 34.0923 131.512 35.5812C132.057 37.0702 132.255 38.6637 132.091 40.2406Z" fill="white"/>
<path d="M132.091 40.2407C131.895 42.1627 131.17 43.9929 129.998 45.5285C129.425 46.3051 128.734 46.9874 127.95 47.5506C127.184 48.135 126.338 48.6072 125.438 48.9531C124.538 49.3076 123.593 49.5332 122.629 49.623C122.148 49.6662 121.664 49.676 121.181 49.6523C120.696 49.6399 120.213 49.5895 119.736 49.5016C117.812 49.1476 116.025 48.2647 114.574 46.9519L114.696 46.9896L109.483 47.7893L109.102 47.8479L109.295 47.5129L111.89 42.9913V43.1714C111.278 41.6757 111.018 40.0593 111.129 38.4469C111.241 36.8346 111.722 35.2696 112.535 33.8728C113.347 32.4804 114.464 31.2896 115.801 30.3895C117.136 29.5013 118.655 28.9269 120.243 28.7094C121.832 28.4919 123.449 28.6369 124.974 29.1335C126.482 29.6467 127.857 30.4906 128.997 31.6036C130.135 32.7138 131.005 34.0686 131.541 35.5651C132.077 37.0616 132.265 38.6606 132.091 40.2407ZM132.091 40.2407C132.26 38.6684 132.066 37.0782 131.523 35.593C130.98 34.1077 130.103 32.7672 128.959 31.6747C127.816 30.5823 126.437 29.7672 124.928 29.2925C123.42 28.8178 121.823 28.696 120.26 28.9367C118.712 29.1657 117.238 29.7473 115.952 30.6365C114.676 31.5327 113.61 32.6955 112.828 34.0444C112.059 35.3963 111.605 36.905 111.501 38.4572C111.399 40.0199 111.651 41.5855 112.238 43.0374L112.276 43.1295L112.225 43.2174L109.596 47.7223L109.412 47.4459L114.637 46.7133H114.708L114.758 46.7593C116.155 48.0593 117.886 48.945 119.757 49.3174C120.224 49.4124 120.697 49.4698 121.172 49.489C121.648 49.5225 122.125 49.5225 122.6 49.489C123.553 49.4122 124.491 49.2052 125.388 48.8736C126.287 48.5463 127.134 48.0893 127.9 47.5171C128.681 46.9585 129.372 46.2852 129.952 45.5201C131.139 43.9919 131.88 42.1644 132.091 40.2407Z" fill="#263238"/>
<path d="M116.613 44.0213C116.605 43.8827 116.625 43.7439 116.673 43.6135C116.721 43.4832 116.795 43.3641 116.891 43.2636C116.987 43.1631 117.102 43.0833 117.23 43.0293C117.358 42.9753 117.496 42.9481 117.635 42.9495C117.919 42.9495 118.191 43.0624 118.392 43.2634C118.593 43.4644 118.706 43.737 118.706 44.0213C118.706 44.3055 118.593 44.5781 118.392 44.7791C118.191 44.9801 117.919 45.0931 117.635 45.0931C117.496 45.0944 117.358 45.0673 117.23 45.0132C117.102 44.9592 116.987 44.8795 116.891 44.779C116.795 44.6785 116.721 44.5593 116.673 44.429C116.625 44.2987 116.605 44.1599 116.613 44.0213ZM117.032 41.5469L116.789 33.2406H118.464L118.221 41.5469H117.032Z" fill="#92E3A9"/>
<path d="M120.595 44.0213C120.587 43.883 120.607 43.7446 120.655 43.6145C120.702 43.4845 120.776 43.3656 120.871 43.2651C120.967 43.1647 121.081 43.0848 121.209 43.0306C121.336 42.9763 121.473 42.9487 121.612 42.9495C121.896 42.9495 122.169 43.0624 122.37 43.2634C122.571 43.4644 122.684 43.737 122.684 44.0213C122.684 44.3055 122.571 44.5781 122.37 44.7791C122.169 44.9801 121.896 45.0931 121.612 45.0931C121.473 45.0939 121.336 45.0663 121.209 45.012C121.081 44.9577 120.967 44.8779 120.871 44.7774C120.776 44.677 120.702 44.5581 120.655 44.428C120.607 44.2979 120.587 44.1595 120.595 44.0213ZM121.013 41.5469L120.783 33.2406H122.458L122.215 41.5469H121.013Z" fill="#92E3A9"/>
<path d="M124.572 44.0213C124.564 43.8827 124.584 43.7439 124.632 43.6135C124.68 43.4832 124.754 43.3641 124.85 43.2636C124.946 43.1631 125.061 43.0833 125.189 43.0293C125.317 42.9753 125.455 42.9481 125.593 42.9495C125.878 42.9495 126.15 43.0624 126.351 43.2634C126.552 43.4644 126.665 43.737 126.665 44.0213C126.665 44.3055 126.552 44.5781 126.351 44.7791C126.15 44.9801 125.878 45.0931 125.593 45.0931C125.455 45.0944 125.317 45.0673 125.189 45.0132C125.061 44.9592 124.946 44.8795 124.85 44.779C124.754 44.6785 124.68 44.5593 124.632 44.429C124.584 44.2987 124.564 44.1599 124.572 44.0213ZM124.991 41.5469L124.748 33.2406H126.422L126.184 41.5469H124.991Z" fill="#92E3A9"/>
</svg>
