<svg width="121" height="187" viewBox="0 0 121 187" fill="none" xmlns="http://www.w3.org/2000/svg">
<path fill-rule="evenodd" clip-rule="evenodd" d="M55.2296 54.2238C52.6313 54.8249 50.1904 56.4333 48.9367 58.37L47.8273 60.0839L43.3668 59.7584C39.7552 59.4954 38.8444 59.594 38.5828 60.277C38.3756 60.8168 37.4688 61.1205 36.0646 61.1205C34.8573 61.1205 33.6998 61.3955 33.492 61.7318C33.2412 62.1387 31.4546 62.2137 28.1533 61.9547C23.6664 61.6035 22.865 61.7026 19.7675 62.9896C17.8835 63.7723 15.3121 64.7367 14.0527 65.1332C12.7933 65.5297 11.4738 66.0821 11.1206 66.3611C10.7674 66.6402 8.59896 67.5088 6.30114 68.291C0.151303 70.3847 -1.00104 71.8888 0.730052 75.5612C1.97513 78.2016 2.97406 78.4084 7.3264 76.9267C9.49599 76.1881 11.768 75.2965 12.3754 74.9458C12.9834 74.5951 14.5107 73.9408 15.77 73.4927C17.0294 73.044 19.6948 72.0539 21.6932 71.2918C24.8188 70.0999 25.7782 69.975 28.5626 70.3979C30.7482 70.7302 32.0534 71.2568 32.5841 72.0218C33.0581 72.7042 34.0232 73.1535 35.017 73.1535C35.9232 73.1535 36.6645 73.393 36.6645 73.6858C36.6645 74.8707 38.5101 75.9285 41.2321 76.3032C44.404 76.7399 44.1653 76.3531 45.1837 82.7048C47.0207 94.1648 57.0798 108.924 70.0441 119.181C79.5777 126.724 84.7899 128.242 89.5818 124.872C90.8601 123.973 93.9445 120.863 96.4364 117.96L100.967 112.682L103.125 115.694C109.09 124.019 112.425 134.301 111.938 142.866C110.588 166.637 90.6128 181.092 66.1457 176.004C47.9693 172.223 35.7039 159.125 31.8073 139.335C30.7786 134.11 30.4797 124.002 31.205 118.993C31.4105 117.575 31.6945 115.641 31.8353 114.696C32.7369 108.666 37.131 93.5391 40.1084 86.215C42.6661 79.9246 41.4302 80.4134 37.6382 87.192C28.9473 102.729 24.6631 116.289 24.331 129.307C24.0128 141.806 26.3535 150.651 33.2006 162.828C37.8581 171.111 46.7625 178.903 56.378 183.109C64.7747 186.783 77.0383 187.872 85.8953 185.732C100.643 182.168 111.947 172.354 117.563 158.24C120.842 149.997 121.5 142.247 119.705 132.998C118.591 127.264 114.625 117.304 111.96 113.55C111.288 112.605 110.389 111.126 109.961 110.265C109.533 109.404 108.709 108.19 108.129 107.567C106.802 106.141 106.811 105.703 108.219 103.393C109.575 101.167 109.678 98.9133 108.527 96.686C108.066 95.7933 104.653 92.2693 100.942 88.8548C97.2315 85.4397 93.9176 82.3799 93.577 82.0539C93.2369 81.7284 91.3822 80.0707 89.4559 78.3695L85.9542 75.2776L86.2691 71.78C86.5604 68.5454 86.454 68.1048 84.8488 65.9084C82.7966 63.0996 80.3373 61.8442 68.3926 57.5054C58.468 53.9007 57.5813 53.6795 55.2296 54.2238ZM66.3123 60.8288C67.6639 61.3835 68.6845 61.9221 68.5803 62.0258C68.4767 62.1295 66.5985 61.7588 64.4066 61.2018C61.8901 60.5618 59.7182 60.3372 58.5144 60.5916C56.0345 61.1159 53.5856 63.5099 51.8425 67.1135C50.1967 70.5159 50.0644 70.1406 51.325 65.6431C52.4304 61.6998 54.8329 58.9786 57.4508 58.7053C59.4074 58.5007 62.3652 59.2095 66.3123 60.8288ZM70.1529 62.2665C70.3475 62.5816 70.2336 62.8395 69.9004 62.8395C69.5673 62.8395 69.2942 62.5816 69.2942 62.2665C69.2942 61.9513 69.4075 61.6935 69.5466 61.6935C69.6857 61.6935 69.9582 61.9513 70.1529 62.2665ZM77.4281 83.0377C82.1303 87.3885 94.3715 98.44 96.4358 100.198L98.1028 101.618L95.0047 105.323C93.3005 107.36 90.8762 110.302 89.6173 111.861C84.1659 118.612 82.8418 119.109 78.3086 116.103C72.4907 112.246 63.8828 102.407 65.1857 101.103C66.1818 100.106 67.3387 100.992 68.6296 103.741C69.9949 106.648 72.0551 108.329 73.5492 107.755C74.2808 107.474 74.4359 106.997 74.1572 105.886C73.9516 105.065 73.6105 104.262 73.3992 104.101C72.8903 103.713 71.0115 100.118 71.0115 99.5321C71.0115 98.7671 73.3363 98.4073 74.764 98.9505C76.5683 99.637 77.6795 101.467 79.8948 107.401C83.5728 117.254 83.6804 117.384 85.8374 114.639C86.944 113.231 86.9589 113.035 86.1082 111.058C85.613 109.907 84.6158 107.29 83.8923 105.241C79.8496 93.7998 77.2633 91.98 67.8631 93.9608C65.6591 94.4249 63.7758 94.7309 63.6773 94.6398C63.292 94.2828 67.5196 89.9435 71.8702 86.2305C74.389 84.0806 76.4956 82.3215 76.5523 82.3215C76.6084 82.3215 77.0028 82.6441 77.4281 83.0377ZM43.2477 115.19C31.1541 120.813 35.9243 149.737 51.0834 162.7C55.8445 166.772 62.2147 169.83 68.0262 170.835C72.3219 171.577 78.7099 171.291 77.261 170.42C77.1293 170.342 75.4812 169.505 73.5973 168.561C67.42 165.466 63.098 160.336 60.8036 153.373C58.9632 147.789 58.4251 144.184 58.0656 135.037C57.6958 125.625 57.2149 123.129 55.1329 119.805C52.3577 115.376 47.1753 113.364 43.2477 115.19ZM102.163 127.65C102.204 133.459 102.055 134.534 100.891 136.785C98.1217 142.139 94.9629 144.344 85.6732 147.407C77.3217 150.161 74.5539 152.707 74.3541 157.814C74.2413 160.687 75.3725 162.89 78.0773 165.068C80.1307 166.721 80.5743 166.836 84.7435 166.792C88.6001 166.751 89.733 166.485 93.0349 164.842C99.2282 161.759 102.923 157.492 105.695 150.222C108.875 141.884 107.673 129.396 103.021 122.425C102.169 121.148 102.118 121.463 102.163 127.65Z" fill="#021736"/>
<path fill-rule="evenodd" clip-rule="evenodd" d="M102.163 127.65C102.204 133.459 102.055 134.534 100.891 136.785C98.1217 142.139 94.9629 144.344 85.6732 147.407C77.3217 150.161 74.5539 152.707 74.3541 157.814C74.2413 160.687 75.3725 162.89 78.0773 165.068C80.1307 166.721 80.5743 166.836 84.7435 166.792C88.6001 166.751 89.733 166.485 93.0349 164.842C99.2282 161.759 102.923 157.492 105.695 150.222C108.875 141.884 107.673 129.396 103.021 122.425C102.169 121.148 102.118 121.463 102.163 127.65Z" fill="url(#paint0_linear_3539_10118)"/>
<path fill-rule="evenodd" clip-rule="evenodd" d="M43.2477 115.19C31.1541 120.813 35.9243 149.737 51.0834 162.7C55.8445 166.772 62.2147 169.83 68.0262 170.835C72.3219 171.577 78.7099 171.291 77.261 170.42C77.1293 170.342 75.4812 169.505 73.5973 168.561C67.42 165.466 63.098 160.336 60.8036 153.373C58.9632 147.789 58.4251 144.184 58.0656 135.037C57.6958 125.625 57.2149 123.129 55.1329 119.805C52.3577 115.376 47.1753 113.364 43.2477 115.19Z" fill="url(#paint1_linear_3539_10118)"/>
<path d="M103.796 29.7473C91.3806 19.5649 75.82 14 59.7631 14C43.7062 14 28.1456 19.5649 15.7302 29.7473C15.2497 30.1419 14.8516 30.6272 14.5586 31.1756C14.2656 31.724 14.0835 32.3247 14.0227 32.9435C13.9619 33.5622 14.0235 34.1869 14.2042 34.7818C14.3848 35.3768 14.6808 35.9303 15.0753 36.4109C15.4698 36.8914 15.9552 37.2895 16.5035 37.5825C17.0519 37.8755 17.6527 38.0576 18.2714 38.1184C18.8902 38.1792 19.5149 38.1175 20.1098 37.9369C20.7048 37.7563 21.2583 37.4603 21.7388 37.0658C32.4606 28.274 45.8976 23.4692 59.7631 23.4692C73.6286 23.4692 87.0657 28.274 97.7874 37.0658C98.2679 37.4603 98.8215 37.7563 99.4164 37.9369C100.011 38.1175 100.636 38.1792 101.255 38.1184C101.874 38.0576 102.474 37.8755 103.023 37.5825C103.571 37.2895 104.056 36.8914 104.451 36.4109C104.845 35.9303 105.141 35.3768 105.322 34.7818C105.503 34.1869 105.564 33.5622 105.504 32.9435C105.443 32.3247 105.261 31.724 104.968 31.1756C104.675 30.6272 104.277 30.1419 103.796 29.7473ZM91.1081 43.8437C82.1868 36.781 71.1417 32.9382 59.7631 32.9382C48.3845 32.9382 37.3394 36.781 28.4181 43.8437C27.4586 44.6313 26.8468 45.7642 26.7145 46.9985C26.5822 48.2328 26.94 49.4697 27.7108 50.4428C28.4816 51.4159 29.6037 52.0472 30.8355 52.201C32.0673 52.3547 33.3102 52.0185 34.2965 51.2647C41.5449 45.5269 50.5186 42.405 59.7631 42.405C69.0077 42.405 77.9813 45.5269 85.2297 51.2647C86.216 52.0185 87.4589 52.3547 88.6907 52.201C89.9225 52.0472 91.0447 51.4159 91.8155 50.4428C92.5863 49.4697 92.944 48.2328 92.8117 46.9985C92.6794 45.7642 92.0676 44.6313 91.1081 43.8437Z" fill="#021736"/>
<defs>
<linearGradient id="paint0_linear_3539_10118" x1="129" y1="110" x2="83.5" y2="178" gradientUnits="userSpaceOnUse">
<stop offset="0.192889" stop-color="#AC292E"/>
<stop offset="1" stop-color="#F25254"/>
</linearGradient>
<linearGradient id="paint1_linear_3539_10118" x1="9.5" y1="58.5" x2="99.5" y2="217.5" gradientUnits="userSpaceOnUse">
<stop offset="0.330538" stop-color="#AAEA2E"/>
<stop offset="0.736917" stop-color="#26A716"/>
</linearGradient>
</defs>
</svg>
