<svg width="48" height="49" viewBox="0 0 48 49" fill="none" xmlns="http://www.w3.org/2000/svg">
<rect x="0.0715332" y="0.620453" width="47.7591" height="47.7591" rx="23.8796" fill="#E9E6E6"/>
<mask id="path-2-inside-1_58_64" fill="white">
<path d="M33.9333 13.6H30.0333V11.65C30.0333 11.4776 29.9649 11.3123 29.843 11.1904C29.7211 11.0685 29.5557 11 29.3833 11C29.211 11 29.0456 11.0685 28.9237 11.1904C28.8018 11.3123 28.7333 11.4776 28.7333 11.65V13.6H19.6333V11.65C19.6333 11.4776 19.5649 11.3123 19.443 11.1904C19.3211 11.0685 19.1557 11 18.9833 11C18.811 11 18.6456 11.0685 18.5237 11.1904C18.4018 11.3123 18.3333 11.4776 18.3333 11.65V13.6H14.4333C13.5717 13.601 12.7457 13.9438 12.1364 14.553C11.5271 15.1623 11.1844 15.9884 11.1833 16.85V33.75C11.1844 34.6116 11.5271 35.4377 12.1364 36.047C12.7457 36.6562 13.5717 36.999 14.4333 37H33.9333C34.7951 36.9993 35.6213 36.6567 36.2307 36.0473C36.84 35.438 37.1827 34.6117 37.1833 33.75V16.85C37.1827 15.9883 36.84 15.162 36.2307 14.5527C35.6213 13.9433 34.7951 13.6007 33.9333 13.6ZM35.8833 33.75C35.8833 34.2672 35.6779 34.7632 35.3122 35.1289C34.9465 35.4946 34.4505 35.7 33.9333 35.7H14.4333C13.9162 35.7 13.4202 35.4946 13.0545 35.1289C12.6888 34.7632 12.4833 34.2672 12.4833 33.75V22.7H35.8833V33.75ZM35.8833 21.4H12.4833V16.85C12.4833 15.7736 13.3543 14.9 14.4333 14.9H18.3333V16.85C18.3333 17.0224 18.4018 17.1877 18.5237 17.3096C18.6456 17.4315 18.811 17.5 18.9833 17.5C19.1557 17.5 19.3211 17.4315 19.443 17.3096C19.5649 17.1877 19.6333 17.0224 19.6333 16.85V14.9H28.7333V16.85C28.7333 17.0224 28.8018 17.1877 28.9237 17.3096C29.0456 17.4315 29.211 17.5 29.3833 17.5C29.5557 17.5 29.7211 17.4315 29.843 17.3096C29.9649 17.1877 30.0333 17.0224 30.0333 16.85V14.9H33.9333C34.4505 14.9 34.9465 15.1054 35.3122 15.4711C35.6779 15.8368 35.8833 16.3328 35.8833 16.85V21.4Z"/>
</mask>
<path d="M33.9333 13.6H30.0333V11.65C30.0333 11.4776 29.9649 11.3123 29.843 11.1904C29.7211 11.0685 29.5557 11 29.3833 11C29.211 11 29.0456 11.0685 28.9237 11.1904C28.8018 11.3123 28.7333 11.4776 28.7333 11.65V13.6H19.6333V11.65C19.6333 11.4776 19.5649 11.3123 19.443 11.1904C19.3211 11.0685 19.1557 11 18.9833 11C18.811 11 18.6456 11.0685 18.5237 11.1904C18.4018 11.3123 18.3333 11.4776 18.3333 11.65V13.6H14.4333C13.5717 13.601 12.7457 13.9438 12.1364 14.553C11.5271 15.1623 11.1844 15.9884 11.1833 16.85V33.75C11.1844 34.6116 11.5271 35.4377 12.1364 36.047C12.7457 36.6562 13.5717 36.999 14.4333 37H33.9333C34.7951 36.9993 35.6213 36.6567 36.2307 36.0473C36.84 35.438 37.1827 34.6117 37.1833 33.75V16.85C37.1827 15.9883 36.84 15.162 36.2307 14.5527C35.6213 13.9433 34.7951 13.6007 33.9333 13.6ZM35.8833 33.75C35.8833 34.2672 35.6779 34.7632 35.3122 35.1289C34.9465 35.4946 34.4505 35.7 33.9333 35.7H14.4333C13.9162 35.7 13.4202 35.4946 13.0545 35.1289C12.6888 34.7632 12.4833 34.2672 12.4833 33.75V22.7H35.8833V33.75ZM35.8833 21.4H12.4833V16.85C12.4833 15.7736 13.3543 14.9 14.4333 14.9H18.3333V16.85C18.3333 17.0224 18.4018 17.1877 18.5237 17.3096C18.6456 17.4315 18.811 17.5 18.9833 17.5C19.1557 17.5 19.3211 17.4315 19.443 17.3096C19.5649 17.1877 19.6333 17.0224 19.6333 16.85V14.9H28.7333V16.85C28.7333 17.0224 28.8018 17.1877 28.9237 17.3096C29.0456 17.4315 29.211 17.5 29.3833 17.5C29.5557 17.5 29.7211 17.4315 29.843 17.3096C29.9649 17.1877 30.0333 17.0224 30.0333 16.85V14.9H33.9333C34.4505 14.9 34.9465 15.1054 35.3122 15.4711C35.6779 15.8368 35.8833 16.3328 35.8833 16.85V21.4Z" fill="black"/>
<path d="M33.9333 13.6L33.9533 -11.4L33.9433 -11.4H33.9333V13.6ZM30.0333 13.6H5.03335V38.6H30.0333V13.6ZM29.3833 11V-14V11ZM28.7333 13.6V38.6H53.7333V13.6H28.7333ZM19.6333 13.6H-5.36665V38.6H19.6333V13.6ZM18.9833 11V-14V11ZM18.3333 13.6V38.6H43.3334V13.6H18.3333ZM14.4333 13.6V-11.4H14.4184L14.4034 -11.4L14.4333 13.6ZM11.1833 16.85L-13.8166 16.8201L-13.8167 16.835V16.85H11.1833ZM11.1833 33.75H-13.8167V33.765L-13.8166 33.7799L11.1833 33.75ZM14.4333 37L14.4034 62L14.4184 62H14.4333V37ZM33.9333 37V62H33.9433L33.9533 62L33.9333 37ZM37.1833 33.75L62.1833 33.77L62.1833 33.76V33.75H37.1833ZM37.1833 16.85H62.1833V16.84L62.1833 16.83L37.1833 16.85ZM12.4833 22.7V-2.3H-12.5167V22.7H12.4833ZM35.8833 22.7H60.8834V-2.3H35.8833V22.7ZM35.8833 21.4V46.4H60.8834V21.4H35.8833ZM12.4833 21.4H-12.5167V46.4H12.4833V21.4ZM18.3333 14.9H43.3334V-10.1H18.3333V14.9ZM19.6333 14.9V-10.1H-5.36665V14.9H19.6333ZM28.7333 14.9H53.7333V-10.1H28.7333V14.9ZM30.0333 14.9V-10.1H5.03335V14.9H30.0333ZM33.9333 -11.4H30.0333V38.6H33.9333V-11.4ZM55.0333 13.6V11.65H5.03335V13.6H55.0333ZM55.0333 11.65C55.0333 4.84724 52.331 -1.67695 47.5206 -6.48729L12.1653 28.868C7.59876 24.3015 5.03335 18.108 5.03335 11.65H55.0333ZM47.5206 -6.48729C42.7103 -11.2976 36.1861 -14 29.3833 -14V36C22.9253 36 16.7318 33.4346 12.1653 28.868L47.5206 -6.48729ZM29.3833 -14C22.5806 -14 16.0564 -11.2976 11.2461 -6.48729L46.6014 28.868C42.0349 33.4346 35.8414 36 29.3833 36V-14ZM11.2461 -6.48729C6.43572 -1.67695 3.73335 4.84724 3.73335 11.65H53.7333C53.7333 18.108 51.1679 24.3015 46.6014 28.868L11.2461 -6.48729ZM3.73335 11.65V13.6H53.7333V11.65H3.73335ZM28.7333 -11.4H19.6333V38.6H28.7333V-11.4ZM44.6334 13.6V11.65H-5.36665V13.6H44.6334ZM44.6334 11.65C44.6334 4.84724 41.931 -1.67695 37.1206 -6.48729L1.7653 28.868C-2.80124 24.3015 -5.36665 18.108 -5.36665 11.65H44.6334ZM37.1206 -6.48729C32.3103 -11.2976 25.7861 -14 18.9833 -14V36C12.5253 36 6.33182 33.4346 1.7653 28.868L37.1206 -6.48729ZM18.9833 -14C12.1805 -14 5.65636 -11.2976 0.846061 -6.48729L36.2014 28.868C31.6349 33.4345 25.4414 36 18.9833 36V-14ZM0.846061 -6.48729C-3.96424 -1.67699 -6.66665 4.84718 -6.66665 11.65H43.3334C43.3334 18.108 40.7679 24.3016 36.2014 28.868L0.846061 -6.48729ZM-6.66665 11.65V13.6H43.3334V11.65H-6.66665ZM18.3333 -11.4H14.4333V38.6H18.3333V-11.4ZM14.4034 -11.4C6.92173 -11.391 -0.250936 -8.41497 -5.54128 -3.12463L29.8141 32.2307C25.7423 36.3025 20.2217 38.5931 14.4633 38.6L14.4034 -11.4ZM-5.54128 -3.12463C-10.8316 2.16572 -13.8077 9.33839 -13.8166 16.8201L36.1833 16.8799C36.1764 22.6383 33.8859 28.1589 29.8141 32.2307L-5.54128 -3.12463ZM-13.8167 16.85V33.75H36.1833V16.85H-13.8167ZM-13.8166 33.7799C-13.8077 41.2616 -10.8316 48.4343 -5.54128 53.7246L29.8141 18.3693C33.8859 22.4411 36.1764 27.9617 36.1833 33.7201L-13.8166 33.7799ZM-5.54128 53.7246C-0.250944 59.015 6.92172 61.991 14.4034 62L14.4633 12C20.2217 12.0069 25.7423 14.2975 29.8141 18.3693L-5.54128 53.7246ZM14.4333 62H33.9333V12H14.4333V62ZM33.9533 62C41.4386 61.994 48.6155 59.0178 53.9084 53.725L18.553 18.3697C22.6272 14.2955 28.1516 12.0046 33.9134 12L33.9533 62ZM53.9084 53.725C59.2012 48.4322 62.1774 41.2552 62.1833 33.77L12.1834 33.73C12.188 27.9683 14.4789 22.4438 18.553 18.3697L53.9084 53.725ZM62.1833 33.75V16.85H12.1833V33.75H62.1833ZM62.1833 16.83C62.1774 9.34478 59.2012 2.16784 53.9084 -3.12501L18.553 32.2303C14.4789 28.1562 12.188 22.6317 12.1834 16.87L62.1833 16.83ZM53.9084 -3.12501C48.6155 -8.41786 41.4386 -11.394 33.9533 -11.4L33.9134 38.6C28.1516 38.5954 22.6272 36.3045 18.553 32.2303L53.9084 -3.12501ZM10.8833 33.75C10.8833 27.6367 13.3119 21.7739 17.6345 17.4512L52.9899 52.8065C58.0439 47.7525 60.8834 40.8976 60.8834 33.75H10.8833ZM17.6345 17.4512C21.9572 13.1285 27.8201 10.7 33.9333 10.7V60.7C41.081 60.7 47.9358 57.8606 52.9899 52.8065L17.6345 17.4512ZM33.9333 10.7H14.4333V60.7H33.9333V10.7ZM14.4333 10.7C20.5466 10.7 26.4095 13.1285 30.7322 17.4512L-4.62318 52.8065C0.430903 57.8606 7.28573 60.7 14.4333 60.7V10.7ZM30.7322 17.4512C35.0549 21.7739 37.4833 27.6367 37.4833 33.75H-12.5167C-12.5167 40.8976 -9.67727 47.7524 -4.62318 52.8065L30.7322 17.4512ZM37.4833 33.75V22.7H-12.5167V33.75H37.4833ZM12.4833 47.7H35.8833V-2.3H12.4833V47.7ZM10.8833 22.7V33.75H60.8834V22.7H10.8833ZM35.8833 -3.6H12.4833V46.4H35.8833V-3.6ZM37.4833 21.4V16.85H-12.5167V21.4H37.4833ZM37.4833 16.85C37.4833 29.559 27.1832 39.9 14.4333 39.9V-10.1C-0.474478 -10.1 -12.5167 1.9882 -12.5167 16.85H37.4833ZM14.4333 39.9H18.3333V-10.1H14.4333V39.9ZM-6.66665 14.9V16.85H43.3334V14.9H-6.66665ZM-6.66665 16.85C-6.66665 23.6528 -3.96424 30.177 0.846061 34.9873L36.2014 -0.368051C40.7679 4.19845 43.3334 10.392 43.3334 16.85H-6.66665ZM0.846061 34.9873C5.65636 39.7976 12.1805 42.5 18.9833 42.5V-7.5C25.4414 -7.5 31.6349 -4.93455 36.2014 -0.368051L0.846061 34.9873ZM18.9833 42.5C25.7861 42.5 32.3103 39.7976 37.1206 34.9873L1.7653 -0.368051C6.33182 -4.93457 12.5253 -7.5 18.9833 -7.5V42.5ZM37.1206 34.9873C41.931 30.177 44.6334 23.6528 44.6334 16.85H-5.36665C-5.36665 10.392 -2.80124 4.19849 1.7653 -0.368051L37.1206 34.9873ZM44.6334 16.85V14.9H-5.36665V16.85H44.6334ZM19.6333 39.9H28.7333V-10.1H19.6333V39.9ZM3.73335 14.9V16.85H53.7333V14.9H3.73335ZM3.73335 16.85C3.73335 23.6528 6.43572 30.177 11.2461 34.9873L46.6014 -0.368051C51.1679 4.19849 53.7333 10.392 53.7333 16.85H3.73335ZM11.2461 34.9873C16.0564 39.7976 22.5806 42.5 29.3833 42.5V-7.5C35.8414 -7.5 42.0349 -4.93457 46.6014 -0.368051L11.2461 34.9873ZM29.3833 42.5C36.1861 42.5 42.7103 39.7976 47.5206 34.9873L12.1653 -0.368051C16.7318 -4.93457 22.9253 -7.5 29.3833 -7.5V42.5ZM47.5206 34.9873C52.331 30.177 55.0333 23.6528 55.0333 16.85H5.03335C5.03335 10.392 7.59876 4.19849 12.1653 -0.368051L47.5206 34.9873ZM55.0333 16.85V14.9H5.03335V16.85H55.0333ZM30.0333 39.9H33.9333V-10.1H30.0333V39.9ZM33.9333 39.9C27.8201 39.9 21.9572 37.4715 17.6345 33.1488L52.9899 -2.20653C47.9358 -7.26063 41.0809 -10.1 33.9333 -10.1V39.9ZM17.6345 33.1488C13.3118 28.8261 10.8833 22.9633 10.8833 16.85H60.8834C60.8834 9.70239 58.044 2.84756 52.9899 -2.20653L17.6345 33.1488ZM10.8833 16.85V21.4H60.8834V16.85H10.8833Z" fill="black" mask="url(#path-2-inside-1_58_64)"/>
</svg>
