<svg width="264" height="196" viewBox="0 0 264 196" fill="none" xmlns="http://www.w3.org/2000/svg">
<path d="M263.418 172.104H0.582275V172.236H263.418V172.104Z" fill="#EBEBEB"/>
<path d="M91.6389 175.458H79.4539V175.59H91.6389V175.458Z" fill="#EBEBEB"/>
<path d="M241.744 178.276H211.954V178.407H241.744V178.276Z" fill="#EBEBEB"/>
<path d="M52.8288 178.276H23.0391V178.407H52.8288V178.276Z" fill="#EBEBEB"/>
<path d="M125.166 148.66H23.6645C22.8694 148.658 22.1073 148.341 21.5455 147.779C20.9837 147.216 20.6682 146.453 20.6682 145.658V2.97529C20.6751 2.1847 20.9937 1.42876 21.5547 0.871676C22.1157 0.314592 22.8739 0.00135433 23.6645 0H125.166C125.962 0 126.726 0.316237 127.289 0.879142C127.852 1.44205 128.168 2.20551 128.168 3.00158V145.658C128.168 146.454 127.852 147.218 127.289 147.78C126.726 148.343 125.962 148.66 125.166 148.66ZM23.6645 0.105134C22.9042 0.106527 22.1755 0.409532 21.6384 0.94764C21.1013 1.48575 20.7996 2.21499 20.7996 2.97529V145.658C20.7996 146.418 21.1013 147.148 21.6384 147.686C22.1755 148.224 22.9042 148.527 23.6645 148.528H125.166C125.927 148.525 126.655 148.222 127.193 147.684C127.73 147.147 128.034 146.418 128.036 145.658V2.97529C128.034 2.21493 127.73 1.48651 127.193 0.948845C126.655 0.411185 125.927 0.107905 125.166 0.105134H23.6645Z" fill="#EBEBEB"/>
<path d="M238.874 148.66H137.367C136.572 148.657 135.81 148.34 135.248 147.777C134.685 147.215 134.368 146.453 134.365 145.658V2.97529C134.374 2.18422 134.694 1.42829 135.255 0.871348C135.817 0.314408 136.576 0.00133956 137.367 0H238.874C239.664 0.00273585 240.421 0.316585 240.98 0.873521C241.54 1.43046 241.858 2.18561 241.865 2.97529V145.658C241.866 146.052 241.789 146.441 241.639 146.805C241.489 147.169 241.269 147.5 240.991 147.778C240.713 148.057 240.384 148.278 240.02 148.43C239.657 148.581 239.268 148.659 238.874 148.66ZM137.367 0.105134C136.607 0.107905 135.878 0.411185 135.341 0.948845C134.803 1.48651 134.5 2.21493 134.497 2.97529V145.658C134.5 146.418 134.803 147.147 135.341 147.684C135.878 148.222 136.607 148.525 137.367 148.528H238.874C239.634 148.525 240.363 148.222 240.9 147.684C241.438 147.147 241.741 146.418 241.744 145.658V2.97529C241.741 2.21493 241.438 1.48651 240.9 0.948845C240.363 0.411185 239.634 0.107905 238.874 0.105134H137.367Z" fill="#EBEBEB"/>
<path d="M52.466 39.6409H96.2544C96.695 39.6402 97.1314 39.7265 97.5386 39.8947C97.9459 40.063 98.3158 40.3101 98.6274 40.6216C98.939 40.9332 99.186 41.3032 99.3543 41.7104C99.5226 42.1176 99.6089 42.554 99.6082 42.9946V171.984H49.1438V42.9894C49.1451 42.1063 49.4948 41.2593 50.1168 40.6324C50.7388 40.0055 51.5829 39.6492 52.466 39.6409Z" fill="#F5F5F5"/>
<path d="M59.8147 47.4575H53.3069V61.945H59.8147V47.4575Z" fill="#EBEBEB"/>
<path d="M95.4028 47.4575H88.895V61.945H95.4028V47.4575Z" fill="#EBEBEB"/>
<path d="M71.6741 47.4575H65.1663V61.945H71.6741V47.4575Z" fill="#EBEBEB"/>
<path d="M83.5383 47.4575H77.0305V61.945H83.5383V47.4575Z" fill="#EBEBEB"/>
<path d="M59.8147 70.3296H53.3069V84.8171H59.8147V70.3296Z" fill="#EBEBEB"/>
<path d="M95.4028 70.3296H88.895V84.8171H95.4028V70.3296Z" fill="#EBEBEB"/>
<path d="M71.6741 70.3296H65.1663V84.8171H71.6741V70.3296Z" fill="#EBEBEB"/>
<path d="M83.5383 70.3296H77.0305V84.8171H83.5383V70.3296Z" fill="#EBEBEB"/>
<path d="M59.8147 93.1963H53.3069V107.684H59.8147V93.1963Z" fill="#EBEBEB"/>
<path d="M95.4028 93.1963H88.895V107.684H95.4028V93.1963Z" fill="#EBEBEB"/>
<path d="M71.6741 93.1963H65.1663V107.684H71.6741V93.1963Z" fill="#EBEBEB"/>
<path d="M83.5383 93.1963H77.0305V107.684H83.5383V93.1963Z" fill="#EBEBEB"/>
<path d="M59.8147 116.068H53.3069V130.556H59.8147V116.068Z" fill="#EBEBEB"/>
<path d="M95.4028 116.068H88.895V130.556H95.4028V116.068Z" fill="#EBEBEB"/>
<path d="M71.6741 116.068H65.1663V130.556H71.6741V116.068Z" fill="#EBEBEB"/>
<path d="M83.5383 116.068H77.0305V130.556H83.5383V116.068Z" fill="#EBEBEB"/>
<path d="M59.8147 138.935H53.3069V153.422H59.8147V138.935Z" fill="#EBEBEB"/>
<path d="M95.4028 138.935H88.895V153.422H95.4028V138.935Z" fill="#EBEBEB"/>
<path d="M71.6741 138.935H65.1663V153.422H71.6741V138.935Z" fill="#EBEBEB"/>
<path d="M83.5383 138.935H77.0305V153.422H83.5383V138.935Z" fill="#EBEBEB"/>
<path d="M207.665 51.6628H239.016C239.739 51.6642 240.432 51.9521 240.944 52.4635C241.455 52.9748 241.743 53.6679 241.744 54.3911V171.984H204.947V54.3963C204.947 53.6741 205.233 52.9812 205.742 52.469C206.252 51.9568 206.943 51.667 207.665 51.6628Z" fill="#F5F5F5"/>
<path d="M215.54 58.7754H209.626V71.9434H215.54V58.7754Z" fill="#EBEBEB"/>
<path d="M226.326 58.7754H220.412V71.9434H226.326V58.7754Z" fill="#EBEBEB"/>
<path d="M237.108 58.7754H231.194V71.9434H237.108V58.7754Z" fill="#EBEBEB"/>
<path d="M215.54 79.5654H209.626V92.7335H215.54V79.5654Z" fill="#EBEBEB"/>
<path d="M226.326 79.5654H220.412V92.7335H226.326V79.5654Z" fill="#EBEBEB"/>
<path d="M237.108 79.5654H231.194V92.7335H237.108V79.5654Z" fill="#EBEBEB"/>
<path d="M215.54 100.361H209.626V113.529H215.54V100.361Z" fill="#EBEBEB"/>
<path d="M226.326 100.361H220.412V113.529H226.326V100.361Z" fill="#EBEBEB"/>
<path d="M237.108 100.361H231.194V113.529H237.108V100.361Z" fill="#EBEBEB"/>
<path d="M215.54 121.146H209.626V134.314H215.54V121.146Z" fill="#EBEBEB"/>
<path d="M226.326 121.146H220.412V134.314H226.326V121.146Z" fill="#EBEBEB"/>
<path d="M237.108 121.146H231.194V134.314H237.108V121.146Z" fill="#EBEBEB"/>
<path d="M215.54 141.942H209.626V155.11H215.54V141.942Z" fill="#EBEBEB"/>
<path d="M226.326 141.942H220.412V155.11H226.326V141.942Z" fill="#EBEBEB"/>
<path d="M237.108 141.942H231.194V155.11H237.108V141.942Z" fill="#EBEBEB"/>
<path d="M135.842 18.0095H186.769C187.804 18.0095 188.796 18.4205 189.527 19.1519C190.259 19.8834 190.67 20.8755 190.67 21.91V171.984H131.947V21.91C131.947 20.8764 132.357 19.8851 133.088 19.1538C133.818 18.4225 134.809 18.0109 135.842 18.0095Z" fill="#F5F5F5"/>
<path d="M144.39 27.1089H136.82V43.9619H144.39V27.1089Z" fill="#EBEBEB"/>
<path d="M185.792 27.1089H178.222V43.9619H185.792V27.1089Z" fill="#EBEBEB"/>
<path d="M158.189 27.1089H150.619V43.9619H158.189V27.1089Z" fill="#EBEBEB"/>
<path d="M171.993 27.1089H164.423V43.9619H171.993V27.1089Z" fill="#EBEBEB"/>
<path d="M144.39 53.7183H136.82V70.5713H144.39V53.7183Z" fill="#EBEBEB"/>
<path d="M185.792 53.7183H178.222V70.5713H185.792V53.7183Z" fill="#EBEBEB"/>
<path d="M158.189 53.7183H150.619V70.5713H158.189V53.7183Z" fill="#EBEBEB"/>
<path d="M171.993 53.7183H164.423V70.5713H171.993V53.7183Z" fill="#EBEBEB"/>
<path d="M144.39 80.3276H136.82V97.1806H144.39V80.3276Z" fill="#EBEBEB"/>
<path d="M185.792 80.3276H178.222V97.1806H185.792V80.3276Z" fill="#EBEBEB"/>
<path d="M158.189 80.3276H150.619V97.1806H158.189V80.3276Z" fill="#EBEBEB"/>
<path d="M171.993 80.3276H164.423V97.1806H171.993V80.3276Z" fill="#EBEBEB"/>
<path d="M144.39 106.932H136.82V123.785H144.39V106.932Z" fill="#EBEBEB"/>
<path d="M185.792 106.932H178.222V123.785H185.792V106.932Z" fill="#EBEBEB"/>
<path d="M158.189 106.932H150.619V123.785H158.189V106.932Z" fill="#EBEBEB"/>
<path d="M171.993 106.932H164.423V123.785H171.993V106.932Z" fill="#EBEBEB"/>
<path d="M144.39 133.536H136.82V150.389H144.39V133.536Z" fill="#EBEBEB"/>
<path d="M185.792 133.536H178.222V150.389H185.792V133.536Z" fill="#EBEBEB"/>
<path d="M158.189 133.536H150.619V150.389H158.189V133.536Z" fill="#EBEBEB"/>
<path d="M171.993 133.536H164.423V150.389H171.993V133.536Z" fill="#EBEBEB"/>
<path d="M131.942 73.1577H99.5923V171.989H131.942V73.1577Z" fill="#E6E6E6"/>
<path d="M204.968 83.7395H190.675V171.984H204.968V83.7395Z" fill="#E6E6E6"/>
<path d="M49.1122 171.984H20.7996V130.724L49.1122 121.146V171.984Z" fill="#E6E6E6"/>
<path d="M132 195.844C188.29 195.844 233.922 192.104 233.922 187.491C233.922 182.878 188.29 179.138 132 179.138C75.7098 179.138 30.0776 182.878 30.0776 187.491C30.0776 192.104 75.7098 195.844 132 195.844Z" fill="#F5F5F5"/>
<path d="M157.064 154.505H148.128C143.475 154.505 139.717 161.249 139.717 169.571C139.717 177.892 143.486 184.631 148.128 184.631H157.064C161.716 184.631 165.475 177.887 165.475 169.571C165.475 161.255 161.716 154.505 157.064 154.505Z" fill="#263238"/>
<mask id="mask0_5492_16071" style="mask-type:luminance" maskUnits="userSpaceOnUse" x="139" y="154" width="27" height="31">
<path d="M157.064 154.505H148.128C143.475 154.505 139.717 161.249 139.717 169.571C139.717 177.892 143.486 184.631 148.128 184.631H157.064C161.716 184.631 165.475 177.887 165.475 169.571C165.475 161.255 161.716 154.505 157.064 154.505Z" fill="white"/>
</mask>
<g mask="url(#mask0_5492_16071)">
<path opacity="0.05" d="M167.577 154.505H158.641C153.989 154.505 150.23 161.249 150.23 169.571C150.23 177.892 153.999 184.631 158.641 184.631H167.577C172.23 184.631 175.988 177.887 175.988 169.571C175.988 161.255 172.23 154.505 167.577 154.505Z" fill="white"/>
</g>
<path d="M229.454 157.733L72.967 157.622V57.666H229.454V157.733Z" fill="#339015"/>
<path opacity="0.3" d="M229.454 57.666H123.395V157.727H229.454V57.666Z" fill="#263238"/>
<path opacity="0.2" d="M123.395 57.666H72.967V159.704H123.395V57.666Z" fill="white"/>
<path opacity="0.1" d="M73.3457 62.313H229.454" stroke="white" stroke-width="2" stroke-linecap="round" stroke-linejoin="round"/>
<path opacity="0.1" d="M73.3457 66.6392H229.454" stroke="white" stroke-width="2" stroke-linecap="round" stroke-linejoin="round"/>
<path opacity="0.1" d="M73.3457 70.9604H229.454" stroke="white" stroke-width="2" stroke-linecap="round" stroke-linejoin="round"/>
<path opacity="0.1" d="M73.3457 75.2812H229.454" stroke="white" stroke-width="2" stroke-linecap="round" stroke-linejoin="round"/>
<path opacity="0.1" d="M73.3457 79.6074H229.454" stroke="white" stroke-width="2" stroke-linecap="round" stroke-linejoin="round"/>
<path opacity="0.1" d="M73.3457 83.9287H229.454" stroke="white" stroke-width="2" stroke-linecap="round" stroke-linejoin="round"/>
<path opacity="0.1" d="M73.3457 88.2495H229.454" stroke="white" stroke-width="2" stroke-linecap="round" stroke-linejoin="round"/>
<path opacity="0.1" d="M73.3457 92.5706H229.454" stroke="white" stroke-width="2" stroke-linecap="round" stroke-linejoin="round"/>
<path opacity="0.1" d="M73.3457 96.897H229.454" stroke="white" stroke-width="2" stroke-linecap="round" stroke-linejoin="round"/>
<path opacity="0.1" d="M73.3457 101.218H229.454" stroke="white" stroke-width="2" stroke-linecap="round" stroke-linejoin="round"/>
<path opacity="0.1" d="M73.3457 105.539H229.454" stroke="white" stroke-width="2" stroke-linecap="round" stroke-linejoin="round"/>
<path opacity="0.1" d="M73.3457 109.865H229.454" stroke="white" stroke-width="2" stroke-linecap="round" stroke-linejoin="round"/>
<path opacity="0.1" d="M73.3457 114.186H229.454" stroke="white" stroke-width="2" stroke-linecap="round" stroke-linejoin="round"/>
<path opacity="0.1" d="M73.3457 118.507H229.454" stroke="white" stroke-width="2" stroke-linecap="round" stroke-linejoin="round"/>
<path opacity="0.1" d="M73.3457 122.828H229.454" stroke="white" stroke-width="2" stroke-linecap="round" stroke-linejoin="round"/>
<path opacity="0.1" d="M73.3457 127.155H229.454" stroke="white" stroke-width="2" stroke-linecap="round" stroke-linejoin="round"/>
<path opacity="0.1" d="M73.3457 131.476H229.454" stroke="white" stroke-width="2" stroke-linecap="round" stroke-linejoin="round"/>
<path opacity="0.1" d="M73.3457 135.797H229.454" stroke="white" stroke-width="2" stroke-linecap="round" stroke-linejoin="round"/>
<path opacity="0.1" d="M73.3457 140.123H229.454" stroke="white" stroke-width="2" stroke-linecap="round" stroke-linejoin="round"/>
<path opacity="0.1" d="M73.3457 144.444H229.454" stroke="white" stroke-width="2" stroke-linecap="round" stroke-linejoin="round"/>
<path opacity="0.1" d="M73.3457 148.765H229.454" stroke="white" stroke-width="2" stroke-linecap="round" stroke-linejoin="round"/>
<path opacity="0.1" d="M73.3457 153.091H229.454" stroke="white" stroke-width="2" stroke-linecap="round" stroke-linejoin="round"/>
<path d="M44.2499 156.471H35.9811C31.6706 156.471 28.1802 162.716 28.1802 170.422C28.1802 178.129 31.6706 184.369 35.9811 184.369H44.2499C48.5604 184.369 52.0509 178.124 52.0509 170.422C52.0509 162.721 48.5604 156.471 44.2499 156.471Z" fill="#263238"/>
<path opacity="0.05" d="M54.7684 156.471H46.4943C42.1838 156.471 38.6934 162.716 38.6934 170.422C38.6934 178.129 42.1838 184.369 46.4943 184.369H54.7684C59.0736 184.369 62.5693 178.124 62.5693 170.422C62.5693 162.721 59.0736 156.471 54.7684 156.471Z" fill="white"/>
<path d="M39.6503 129.226H35.7393C34.9718 129.252 34.341 128.432 34.3252 127.391C34.3148 127.283 34.3148 127.173 34.3252 127.065L35.3766 115.253C35.508 114.039 36.2597 113.151 37.1639 113.093H41.1116C41.8739 113.093 42.5047 113.897 42.5204 114.938C42.5204 115.043 42.5204 115.148 42.5204 115.253L41.4691 127.065C41.3114 128.264 40.5334 129.194 39.6503 129.226Z" fill="#263238"/>
<path d="M43.5612 90.2105L36.0178 130.892L118.143 163.063L117.57 82.8879L99.5083 82.3622H50.0322C47.0569 82.3359 44.4338 85.532 43.5612 90.2105Z" fill="#339015"/>
<path d="M104.665 96.7551C101.6 96.6184 98.8511 99.1311 97.9522 102.879L91.7388 128.91H79.7798L79.1279 163.252H118.464" fill="#339015"/>
<path d="M44.7385 126.724C43.5348 126.724 42.5623 125.178 42.5623 123.275C42.5617 122.943 42.5934 122.612 42.6569 122.287L47.1724 98.4004C47.5509 96.4186 48.7074 95.0624 50.0163 95.0676H93.2159C93.6837 95.0676 94.0675 95.6669 94.0675 96.4134C94.0685 96.5457 94.0562 96.6778 94.0307 96.8076C93.0845 101.728 90.0093 118.029 88.8318 124.263C88.5584 125.725 87.7068 126.724 86.7291 126.724H44.7385Z" fill="#263238"/>
<path d="M84.4897 137.311C84.4889 137.729 84.4591 138.147 84.4004 138.562L84.1743 140.102L84.0429 141.011L83.0757 147.656L81.4987 158.458L81.0624 161.46H19.9321V158.458L19.9742 147.656L20.032 141.195V138.567C19.5063 135.098 21.1832 131.733 23.738 131.034C24.0377 130.952 24.3472 130.912 24.6579 130.913H79.7797C82.3818 130.892 84.4897 133.773 84.4897 137.311Z" fill="#339015"/>
<path d="M115.562 98.3005V123.906C115.562 125.457 114.768 126.718 113.785 126.724H98.8459C97.8629 126.724 97.0691 125.462 97.0691 123.906C97.0688 123.652 97.0899 123.399 97.1322 123.149L101.737 96.9706C101.958 95.7142 102.694 94.8679 103.514 94.9152L113.848 95.4829C114.805 95.5408 115.562 96.7866 115.562 98.3005Z" fill="#263238"/>
<path opacity="0.1" d="M69.9391 95.0676H61.6861L52.2083 126.724H60.4665L69.9391 95.0676Z" fill="white"/>
<path opacity="0.1" d="M76.3631 95.0676H72.4206L62.948 126.724H66.8853L76.3631 95.0676Z" fill="white"/>
<path d="M100.328 147.656V158.458H19.9429L19.9849 147.656H100.328Z" fill="black"/>
<path d="M89.1316 147.656H81.6986L68.3308 155.509V158.458H100.328V147.656H89.1316Z" fill="white"/>
<path d="M33.7995 155.509V158.458H19.9429L19.9849 147.656H20.437L33.7995 155.509Z" fill="white"/>
<path opacity="0.3" d="M118.18 163.252L117.57 82.8878L106.531 82.3621C103.777 82.2255 100.596 85.4268 99.7922 89.138L91.7915 130.892H88.6743C85.1733 130.892 82.7762 133.442 82.7815 136.149L82.8288 163.263H118.18" fill="#263238"/>
<path d="M84.2849 140.48C84.2838 140.58 84.2617 140.678 84.22 140.769C84.1784 140.86 84.1181 140.94 84.0431 141.006C83.9146 141.125 83.7454 141.191 83.57 141.19H20.0322V139.76H83.5858C83.7068 139.761 83.8257 139.792 83.9315 139.85C84.0372 139.909 84.1263 139.994 84.1903 140.097C84.2568 140.213 84.2895 140.346 84.2849 140.48Z" fill="white"/>
<path d="M31.2393 139.765V141.195H20.011L20.0162 139.765H31.2393Z" fill="#263238"/>
<path d="M84.2848 140.48C84.2837 140.58 84.2616 140.678 84.2199 140.769C84.1782 140.86 84.118 140.94 84.043 141.006C83.9145 141.125 83.7453 141.191 83.5699 141.19H68.1572V139.76H83.5699C83.6909 139.761 83.8098 139.792 83.9155 139.85C84.0213 139.909 84.1103 139.994 84.1744 140.097C84.2464 140.212 84.2846 140.345 84.2848 140.48Z" fill="#263238"/>
<path d="M232.261 160.33V160.613C232.261 161.31 231.984 161.979 231.491 162.472C230.998 162.965 230.33 163.242 229.633 163.242H20.8364C20.1393 163.242 19.4707 162.965 18.9778 162.472C18.4849 161.979 18.208 161.31 18.208 160.613V160.33C18.208 159.632 18.4849 158.964 18.9778 158.471C19.4707 157.978 20.1393 157.701 20.8364 157.701H229.633C230.33 157.701 230.998 157.978 231.491 158.471C231.984 158.964 232.261 159.632 232.261 160.33Z" fill="#263238"/>
<path d="M67.1375 159.862H36.0178V161.381H67.1375V159.862Z" fill="black"/>
<path d="M27.7384 160.619C27.7384 160.79 27.6876 160.957 27.5926 161.1C27.4975 161.242 27.3623 161.354 27.2041 161.419C27.046 161.485 26.8718 161.503 26.7037 161.47C26.5356 161.437 26.3811 161.355 26.2596 161.234C26.1381 161.113 26.055 160.959 26.021 160.791C25.9869 160.623 26.0033 160.449 26.0682 160.29C26.133 160.132 26.2434 159.996 26.3853 159.9C26.5273 159.804 26.6944 159.752 26.8658 159.751C26.9801 159.751 27.0935 159.772 27.1993 159.816C27.3051 159.859 27.4014 159.923 27.4825 160.003C27.5636 160.084 27.6279 160.18 27.6719 160.285C27.7158 160.391 27.7384 160.504 27.7384 160.619Z" fill="white"/>
<path d="M74.5704 160.619C74.5704 160.79 74.5195 160.958 74.4242 161.1C74.3289 161.243 74.1935 161.354 74.035 161.42C73.8765 161.486 73.7021 161.503 73.5338 161.469C73.3656 161.436 73.211 161.353 73.0897 161.232C72.9684 161.111 72.8858 160.956 72.8524 160.788C72.8189 160.62 72.8361 160.445 72.9017 160.287C72.9674 160.128 73.0785 159.993 73.2212 159.897C73.3638 159.802 73.5315 159.751 73.7031 159.751C73.817 159.751 73.9297 159.774 74.035 159.817C74.1402 159.861 74.2358 159.925 74.3164 160.005C74.3969 160.086 74.4608 160.181 74.5044 160.287C74.548 160.392 74.5704 160.505 74.5704 160.619Z" fill="white"/>
<path d="M99.7184 169.229C99.7184 160.866 103.509 154.085 108.187 154.085H99.2033C94.5301 154.085 90.74 160.866 90.74 169.229C90.74 177.593 94.5301 184.369 99.2033 184.369H108.187C103.509 184.384 99.7184 177.608 99.7184 169.229Z" fill="black"/>
<path opacity="0.7" d="M99.7184 169.229C99.7184 160.866 103.509 154.085 108.187 154.085H99.2033C94.5301 154.085 90.74 160.866 90.74 169.229C90.74 177.593 94.5301 184.369 99.2033 184.369H108.187C103.509 184.384 99.7184 177.608 99.7184 169.229Z" fill="#263238"/>
<path d="M108.187 184.389C112.864 184.389 116.656 177.609 116.656 169.245C116.656 160.881 112.864 154.1 108.187 154.1C103.51 154.1 99.7185 160.881 99.7185 169.245C99.7185 177.609 103.51 184.389 108.187 184.389Z" fill="#263238"/>
<path d="M108.865 181.052C112.181 181.052 114.868 175.766 114.868 169.245C114.868 162.724 112.181 157.438 108.865 157.438C105.55 157.438 102.862 162.724 102.862 169.245C102.862 175.766 105.55 181.052 108.865 181.052Z" fill="white"/>
<path d="M108.319 179.464C111.492 179.464 114.064 174.889 114.064 169.245C114.064 163.601 111.492 159.026 108.319 159.026C105.145 159.026 102.573 163.601 102.573 169.245C102.573 174.889 105.145 179.464 108.319 179.464Z" fill="#263238"/>
<path d="M107.057 176.704C109.374 176.704 111.252 173.365 111.252 169.245C111.252 165.125 109.374 161.786 107.057 161.786C104.74 161.786 102.862 165.125 102.862 169.245C102.862 173.365 104.74 176.704 107.057 176.704Z" fill="black"/>
<path opacity="0.5" d="M232.261 160.33V160.613C232.261 161.31 231.984 161.979 231.491 162.472C230.998 162.965 230.33 163.242 229.633 163.242H123.395V157.701H229.633C230.33 157.701 230.998 157.978 231.491 158.471C231.984 158.964 232.261 159.632 232.261 160.33Z" fill="black"/>
<path d="M199.244 169.229C199.244 160.866 203.034 154.085 207.707 154.085H198.729C194.05 154.085 190.26 160.866 190.26 169.229C190.26 177.593 194.05 184.369 198.729 184.369H207.697C203.034 184.384 199.244 177.608 199.244 169.229Z" fill="black"/>
<path opacity="0.7" d="M199.244 169.229C199.244 160.866 203.034 154.085 207.707 154.085H198.729C194.05 154.085 190.26 160.866 190.26 169.229C190.26 177.593 194.05 184.369 198.729 184.369H207.697C203.034 184.384 199.244 177.608 199.244 169.229Z" fill="#263238"/>
<path d="M207.707 184.389C212.384 184.389 216.176 177.609 216.176 169.245C216.176 160.881 212.384 154.1 207.707 154.1C203.03 154.1 199.239 160.881 199.239 169.245C199.239 177.609 203.03 184.389 207.707 184.389Z" fill="#263238"/>
<path d="M208.39 181.052C211.706 181.052 214.394 175.766 214.394 169.245C214.394 162.724 211.706 157.438 208.39 157.438C205.075 157.438 202.387 162.724 202.387 169.245C202.387 175.766 205.075 181.052 208.39 181.052Z" fill="white"/>
<path d="M207.838 179.464C211.012 179.464 213.584 174.889 213.584 169.245C213.584 163.601 211.012 159.026 207.838 159.026C204.665 159.026 202.093 163.601 202.093 169.245C202.093 174.889 204.665 179.464 207.838 179.464Z" fill="#263238"/>
<path d="M206.577 176.704C208.894 176.704 210.772 173.365 210.772 169.245C210.772 165.125 208.894 161.786 206.577 161.786C204.26 161.786 202.382 165.125 202.382 169.245C202.382 173.365 204.26 176.704 206.577 176.704Z" fill="black"/>
<path d="M173.454 95.1464C173.349 97.1702 173.165 99.1257 172.865 101.118C172.606 103.176 172.156 105.205 171.52 107.179C171.319 107.754 171.067 108.31 170.768 108.84C170.56 109.198 170.305 109.526 170.011 109.818L169.864 109.954L169.78 110.018L169.738 110.054L169.559 110.175L169.207 110.422C168.314 110.995 167.375 111.493 166.4 111.91C164.549 112.724 162.625 113.361 160.654 113.813L159.971 111.942C161.642 111.016 163.356 110.07 164.917 109.087C165.68 108.619 166.414 108.105 167.115 107.547L167.346 107.352L167.462 107.253C167.462 107.253 167.509 107.174 167.567 107.048C167.72 106.708 167.847 106.356 167.945 105.996C168.183 105.132 168.371 104.254 168.508 103.368C168.671 102.453 168.802 101.523 168.912 100.577C169.128 98.6999 169.312 96.7759 169.438 94.9045L173.454 95.1464Z" fill="#CE7A63"/>
<path d="M161.217 111.968L157.989 110.969L158.594 114.875C158.594 114.875 160.696 114.612 161.748 113.434L161.217 111.968Z" fill="#CE7A63"/>
<path d="M154.078 113.482L154.257 114.007C154.358 114.298 154.55 114.547 154.805 114.719C155.06 114.891 155.364 114.975 155.671 114.959L157.316 114.885L156.706 110.969L154.898 111.679C154.555 111.815 154.278 112.079 154.125 112.415C153.973 112.751 153.956 113.133 154.078 113.482Z" fill="#CE7A63"/>
<path d="M177.271 91.3561C177.271 92.5756 176.682 94.9832 176.177 96.7915C175.804 98.0899 175.494 99.0782 175.494 99.0782L174.753 98.8942L168.644 97.3487C168.55 94.1947 168.671 90.7621 171.798 88.7015C173.754 87.4083 177.255 89.1851 177.271 91.3561Z" fill="#263238"/>
<path opacity="0.3" d="M177.265 91.5666C176.866 91.1461 175.962 91.0725 173.99 91.698C171.168 92.5917 170.379 95.6826 170.342 97.78L174.753 98.8945L175.131 98.9943L175.494 99.0784C175.494 99.0784 175.646 98.5843 175.867 97.8326C175.956 97.5277 176.067 97.1703 176.172 96.7813C176.698 95.0809 177.064 93.3351 177.265 91.5666Z" fill="black"/>
<path d="M164.733 189.489L161.006 188.185L163.351 180.111L167.073 181.42L164.733 189.489Z" fill="#CE7A63"/>
<path d="M214.53 179.921L211.497 182.182L205.289 175.89L208.322 173.629L214.53 179.921Z" fill="#CE7A63"/>
<path d="M210.256 181.262L213.531 178.555C213.587 178.506 213.658 178.48 213.731 178.48C213.804 178.48 213.875 178.506 213.931 178.555L216.443 180.836C216.5 180.892 216.545 180.959 216.575 181.032C216.606 181.106 216.622 181.185 216.622 181.264C216.622 181.344 216.606 181.423 216.575 181.496C216.545 181.57 216.5 181.637 216.443 181.693L216.391 181.74C215.234 182.665 214.625 183.054 213.184 184.242C212.301 184.973 210.446 186.723 209.221 187.733C207.996 188.742 206.934 187.591 207.355 187.06C209.231 184.684 209.668 183.117 209.888 181.835C209.941 181.607 210.071 181.405 210.256 181.262Z" fill="#263238"/>
<path d="M160.754 187.018L164.896 188.747C164.97 188.78 165.032 188.835 165.071 188.905C165.111 188.975 165.127 189.056 165.117 189.136L164.649 192.79C164.631 192.936 164.555 193.069 164.439 193.16C164.323 193.25 164.175 193.291 164.029 193.273C163.975 193.268 163.921 193.253 163.871 193.231C162.405 192.637 161.716 192.343 159.897 191.581L154.315 189.241C152.801 188.605 153.127 186.944 153.789 187.065C156.854 187.622 158.83 187.438 160.039 186.981C160.155 186.94 160.278 186.922 160.4 186.928C160.523 186.934 160.643 186.965 160.754 187.018Z" fill="#263238"/>
<path opacity="0.2" d="M163.351 180.116L162.147 184.274L165.774 185.914L167.078 181.419L163.351 180.116Z" fill="black"/>
<path opacity="0.2" d="M208.327 173.629L205.289 175.89L208.49 179.133L211.523 176.873L208.327 173.629Z" fill="black"/>
<path d="M188.73 111.09L173.381 111.311C171.278 99.4252 170.752 93.7532 170.752 91.025C170.75 90.3445 170.984 89.6845 171.416 89.1586C171.848 88.6327 172.45 88.274 173.118 88.1443C174.053 87.9603 175.22 87.75 176.393 87.5871C176.792 87.5345 177.197 87.4819 177.596 87.4399C179.915 87.2411 182.244 87.2077 184.567 87.34C184.914 87.34 185.255 87.3716 185.618 87.3926C187.195 87.4925 188.636 87.6922 189.661 87.8499C190.029 87.9093 190.359 88.1127 190.578 88.4153C190.797 88.7179 190.887 89.095 190.828 89.4637C190.83 89.49 190.83 89.5164 190.828 89.5426C190.375 91.6453 190.008 93.5114 189.713 95.1725C189.245 97.8009 188.951 99.9456 188.777 101.817C188.515 104.902 188.499 108.003 188.73 111.09Z" fill="#263238"/>
<path opacity="0.1" d="M188.772 101.833C187.999 99.5148 188.042 94.7049 188.872 93.1489L189.718 95.1833C189.24 97.8274 188.946 99.9616 188.772 101.833Z" fill="black"/>
<path d="M173.381 111.311C173.381 111.311 170.752 133.657 168.382 147.582C166.505 158.484 161.763 181.178 161.763 181.178L167.919 183.359C167.919 183.359 174.968 159.704 176.204 149.601C181.171 135.034 184.746 111.2 184.746 111.2L173.381 111.311Z" fill="#19A77D"/>
<path d="M160.764 182.702L167.887 185.21L168.839 182.923L161.111 179.969L160.764 182.702Z" fill="#263238"/>
<path opacity="0.1" d="M181.161 117.95L178.858 122.36C178.017 125.682 178.217 133.767 179.284 138.877C181.197 131.176 182.727 123.07 183.679 117.629L181.161 117.95Z" fill="black"/>
<path d="M176.713 111.311C176.713 111.311 179.463 136.322 184.598 150.21C187.174 157.175 206.282 177.824 206.282 177.824L210.593 174.375C210.593 174.375 198.476 153.543 193.177 148.092C191.017 136.001 193.735 117.876 188.714 111.095L176.713 111.311Z" fill="#19A77D"/>
<path d="M206.645 179.301L211.702 175.158L210.335 172.914L204.8 177.734L206.645 179.301Z" fill="#263238"/>
<path d="M188.972 110.191L189.682 111.553C189.734 111.658 189.614 111.773 189.435 111.773L173.328 112.005C173.186 112.005 173.076 111.936 173.06 111.852L172.908 110.48C172.908 110.386 173.018 110.302 173.165 110.302L188.715 110.075C188.764 110.073 188.813 110.082 188.858 110.102C188.902 110.122 188.942 110.153 188.972 110.191Z" fill="#263238"/>
<path d="M186.885 111.968H187.311C187.39 111.968 187.453 111.921 187.448 111.873L187.222 110.086C187.222 110.033 187.148 109.997 187.064 109.997H186.67C186.585 109.997 186.522 110.044 186.533 110.091L186.754 111.873C186.727 111.915 186.806 111.968 186.885 111.968Z" fill="#407BFF"/>
<path d="M174.485 112.136H174.905C174.989 112.136 175.047 112.089 175.042 112.036L174.826 110.254C174.826 110.202 174.742 110.16 174.658 110.16H174.237C174.153 110.16 174.09 110.207 174.096 110.26L174.316 112.042C174.327 112.094 174.4 112.136 174.485 112.136Z" fill="#407BFF"/>
<path d="M180.687 112.036H181.108C181.192 112.036 181.255 111.989 181.25 111.936L181.029 110.154C181.029 110.097 180.95 110.055 180.866 110.06H180.446C180.362 110.06 180.304 110.107 180.304 110.16L180.524 111.942C180.519 112.005 180.603 112.036 180.687 112.036Z" fill="#407BFF"/>
<path d="M152.838 95.5775L175.62 92.4497L178.774 114.817L156.402 117.887L152.838 95.5775Z" fill="#407BFF"/>
<path opacity="0.8" d="M152.838 95.5775L175.62 92.4497L178.774 114.817L156.402 117.887L152.838 95.5775Z" fill="white"/>
<path opacity="0.2" d="M175.933 91.3694L169.849 92.2297L173.112 115.305L179.196 114.445L175.933 91.3694Z" fill="#407BFF"/>
<path d="M182.08 111.999L178.926 110.764L179.236 114.706C179.236 114.706 181.339 114.601 182.469 113.503L182.08 111.999Z" fill="#CE7A63"/>
<path d="M192 92.3708C192.846 94.7364 193.577 97.1019 194.197 99.52C194.513 100.734 194.807 101.954 195.044 103.2C195.159 103.83 195.259 104.472 195.333 105.139C195.417 105.837 195.447 106.54 195.422 107.242C195.407 107.699 195.337 108.153 195.212 108.593C195.039 109.134 194.75 109.631 194.366 110.049C193.803 110.651 193.135 111.145 192.394 111.505C191.181 112.094 189.904 112.54 188.588 112.835C186.129 113.406 183.621 113.742 181.098 113.839L180.851 111.857C182.002 111.584 183.179 111.279 184.325 110.959C185.471 110.638 186.612 110.28 187.705 109.881C188.75 109.522 189.757 109.063 190.712 108.509C191.059 108.306 191.369 108.045 191.627 107.736C191.695 107.631 191.695 107.605 191.685 107.605C191.695 107.449 191.695 107.293 191.685 107.137C191.665 106.627 191.61 106.12 191.522 105.618C191.438 105.092 191.322 104.503 191.196 103.925C190.933 102.8 190.639 101.649 190.307 100.498C189.65 98.2163 188.909 95.8981 188.168 93.664L192 92.3708Z" fill="#CE7A63"/>
<path d="M176.019 112.709L176.266 113.624C176.341 113.918 176.508 114.179 176.745 114.369C176.981 114.559 177.272 114.666 177.575 114.675L179.268 114.722L178.958 110.785L177.234 110.98C177.051 110.998 176.873 111.052 176.711 111.14C176.549 111.227 176.406 111.345 176.29 111.488C176.173 111.63 176.086 111.794 176.034 111.97C175.981 112.147 175.964 112.332 175.983 112.515C175.99 112.58 176.003 112.645 176.019 112.709Z" fill="#CE7A63"/>
<path d="M190.207 87.9657C191.974 88.6859 193.419 94.4893 193.419 94.4893L188.541 98.3004C188.541 98.3004 185.082 92.886 185.787 90.5363C186.386 88.5492 187.958 87.0563 190.207 87.9657Z" fill="#263238"/>
<path d="M209.063 182.902H209C208.912 182.896 208.827 182.867 208.752 182.82C208.678 182.772 208.617 182.706 208.574 182.628C208.543 182.584 208.524 182.531 208.519 182.477C208.515 182.422 208.525 182.368 208.548 182.318C208.764 181.898 210.125 181.729 210.272 181.714C210.29 181.71 210.308 181.713 210.324 181.72C210.34 181.728 210.353 181.74 210.362 181.756C210.372 181.77 210.377 181.788 210.377 181.806C210.377 181.823 210.372 181.841 210.362 181.856C210.078 182.239 209.526 182.87 209.063 182.902ZM210.088 181.919C209.563 181.998 208.821 182.171 208.716 182.402C208.704 182.422 208.697 182.445 208.697 182.468C208.697 182.491 208.704 182.514 208.716 182.534C208.741 182.588 208.78 182.634 208.829 182.667C208.878 182.7 208.936 182.72 208.995 182.723C209.258 182.723 209.678 182.439 210.099 181.919H210.088Z" fill="#263238"/>
<path d="M210.209 181.882C209.752 181.882 208.837 181.719 208.632 181.356C208.599 181.293 208.589 181.221 208.602 181.152C208.616 181.082 208.652 181.019 208.706 180.973C208.752 180.922 208.809 180.882 208.873 180.855C208.936 180.829 209.005 180.817 209.074 180.82C209.626 180.82 210.325 181.666 210.346 181.714C210.354 181.726 210.358 181.741 210.358 181.756C210.358 181.771 210.354 181.785 210.346 181.798C210.342 181.813 210.333 181.827 210.321 181.837C210.308 181.848 210.293 181.854 210.277 181.856L210.209 181.882ZM209.042 181.009C208.968 181.017 208.899 181.05 208.848 181.104C208.769 181.188 208.785 181.241 208.806 181.283C208.926 181.514 209.647 181.703 210.109 181.703C209.846 181.372 209.488 181.129 209.084 181.004L209.042 181.009Z" fill="#263238"/>
<path d="M158.636 186.934C158.344 186.838 158.088 186.655 157.905 186.408C157.863 186.335 157.838 186.254 157.831 186.171C157.824 186.087 157.835 186.003 157.863 185.924C157.877 185.879 157.903 185.838 157.938 185.806C157.973 185.773 158.016 185.751 158.063 185.74C158.546 185.651 159.687 186.876 159.908 187.123C159.918 187.138 159.924 187.157 159.924 187.175C159.924 187.194 159.918 187.212 159.908 187.228C159.899 187.244 159.885 187.258 159.868 187.265C159.851 187.273 159.831 187.274 159.813 187.27C159.41 187.198 159.016 187.085 158.636 186.934ZM158.273 185.945C158.219 185.919 158.159 185.908 158.1 185.914C158.1 185.914 158.052 185.914 158.031 185.977C158.01 186.031 158.002 186.09 158.007 186.149C158.013 186.207 158.032 186.263 158.063 186.313C158.226 186.597 158.788 186.865 159.587 187.039C159.212 186.609 158.772 186.24 158.283 185.945H158.273Z" fill="#263238"/>
<path d="M159.808 187.26H159.776C159.393 186.876 158.767 185.725 158.983 185.357C159.03 185.278 159.13 185.194 159.356 185.257C160.202 185.504 159.945 187.144 159.929 187.212C159.929 187.229 159.922 187.246 159.911 187.259C159.899 187.271 159.883 187.279 159.866 187.281C159.855 187.283 159.844 187.282 159.834 187.278C159.823 187.275 159.815 187.268 159.808 187.26ZM159.387 185.425H159.335C159.251 185.399 159.188 185.425 159.167 185.425C159.04 185.64 159.445 186.508 159.813 186.97C159.808 186.566 159.86 185.635 159.387 185.425Z" fill="#263238"/>
<path d="M175.672 71.6121C175.672 71.6121 173.57 75.1288 175.147 76.669C176.724 78.2092 177.186 72.7475 177.186 72.7475L175.672 71.6121Z" fill="#263238"/>
<path d="M185.439 79.8652C185.439 79.8652 188.068 75.7544 186.974 71.67C185.881 67.5855 180.771 70.2244 178.616 69.1047C177.827 68.6247 176.985 68.2351 176.109 67.943C175.968 67.9012 175.819 67.8923 175.674 67.9169C175.529 67.9415 175.392 67.999 175.273 68.0849C174.747 68.5475 175.662 69.4148 175.946 69.7408C175.771 69.5388 175.57 69.3619 175.347 69.2151C175.068 69.0311 174.695 69.0153 174.821 69.4832C175.037 69.9859 175.424 70.3957 175.914 70.6397C175.709 70.524 174.495 69.909 174.411 70.2927C174.4 70.3858 174.425 70.4794 174.479 70.5556C175.268 72.0274 176.855 73.8778 178.685 73.9146C180.887 73.9461 182.99 80.1438 185.439 79.8652Z" fill="#263238"/>
<path d="M186.37 80.049C186.233 81.4368 184.173 81.4525 184.173 81.4525C183.835 82.2468 183.275 82.9262 182.559 83.408C182.495 84.2462 182.524 85.0887 182.643 85.9207C182.99 87.2297 183.431 87.6817 183.983 87.9761L183.542 88.4124C182.697 88.9001 181.742 89.1659 180.766 89.1852L180.188 88.8487L179.431 88.9696C177.328 88.281 177.854 86.8669 177.854 86.8669C178.238 85.9067 178.258 84.8397 177.912 83.8654C175.893 83.2346 175.068 81.4788 174.784 78.5246C174.5 75.5703 176.161 72.7422 176.161 72.7422C178.443 74.9447 182.964 73.5307 182.964 73.5307C182.769 77.673 184.704 79.2027 184.704 79.2027C185.34 78.6349 186.501 78.6665 186.37 80.049Z" fill="#CE7A63"/>
<path d="M179.032 80.4277C179.574 80.2759 180.043 79.9322 180.351 79.4605C180.376 79.4233 180.385 79.3779 180.378 79.3338C180.37 79.2897 180.345 79.2503 180.309 79.224C180.291 79.2107 180.271 79.2011 180.249 79.1958C180.227 79.1905 180.205 79.1895 180.183 79.1929C180.161 79.1963 180.14 79.2041 180.121 79.2157C180.102 79.2274 180.085 79.2427 180.072 79.2607C179.895 79.5796 179.62 79.8333 179.288 79.9846C178.956 80.136 178.584 80.177 178.227 80.1018C178.185 80.0887 178.139 80.0929 178.099 80.1136C178.06 80.1343 178.03 80.1697 178.017 80.2122C178.004 80.2554 178.008 80.3022 178.028 80.3424C178.049 80.3827 178.085 80.4133 178.127 80.4277C178.424 80.5052 178.735 80.5052 179.032 80.4277Z" fill="#263238"/>
<path d="M179.631 76.811C179.631 77.0791 179.526 77.3104 179.347 77.3366C179.168 77.3629 179.005 77.1422 178.984 76.8741C178.963 76.606 179.095 76.3484 179.273 76.3484C179.452 76.3484 179.61 76.5376 179.631 76.811Z" fill="#263238"/>
<path d="M176.414 76.6742C176.414 76.9423 176.309 77.1736 176.13 77.1999C175.951 77.2262 175.793 77.0054 175.772 76.7373C175.751 76.4692 175.877 76.2379 176.056 76.2116C176.235 76.1854 176.398 76.4009 176.414 76.6742Z" fill="#263238"/>
<path d="M177.265 79.2765L177.228 77.3315L176.261 78.9716C176.395 79.0946 176.555 79.1859 176.728 79.2387C176.902 79.2915 177.086 79.3044 177.265 79.2765Z" fill="#BA4D3C"/>
<path d="M181.097 75.1709C181.12 75.1647 181.142 75.154 181.16 75.1394C181.186 75.1243 181.208 75.1041 181.226 75.0802C181.244 75.0562 181.256 75.029 181.263 75C181.27 74.971 181.271 74.9409 181.266 74.9116C181.261 74.8822 181.25 74.8542 181.234 74.8292C181.059 74.5358 180.805 74.2974 180.501 74.1413C180.197 73.9852 179.856 73.9175 179.515 73.9461C179.485 73.9493 179.457 73.9585 179.431 73.973C179.405 73.9876 179.382 74.0072 179.364 74.0308C179.346 74.0544 179.333 74.0813 179.325 74.1102C179.318 74.139 179.316 74.169 179.321 74.1984C179.328 74.2576 179.359 74.3112 179.407 74.3477C179.454 74.3841 179.514 74.4004 179.573 74.3929C179.827 74.3771 180.081 74.4315 180.306 74.5501C180.531 74.6688 180.72 74.8472 180.85 75.0658C180.875 75.1074 180.912 75.1401 180.957 75.159C181.001 75.1779 181.05 75.1821 181.097 75.1709Z" fill="#263238"/>
<path d="M175.394 74.9554C175.453 74.94 175.504 74.9023 175.536 74.8502C175.63 74.7077 175.764 74.5955 175.921 74.5274C176.077 74.4593 176.251 74.4382 176.419 74.4665C176.448 74.4726 176.478 74.4728 176.507 74.467C176.536 74.4612 176.564 74.4497 176.588 74.433C176.613 74.4163 176.634 74.3948 176.65 74.3699C176.666 74.3449 176.677 74.317 176.682 74.2878C176.693 74.2293 176.68 74.1689 176.647 74.1196C176.613 74.0704 176.562 74.0364 176.503 74.025C176.243 73.9767 175.974 74.0081 175.732 74.115C175.491 74.222 175.286 74.3994 175.147 74.6242C175.118 74.6761 175.109 74.7373 175.124 74.7951C175.139 74.8529 175.175 74.9028 175.226 74.9344C175.277 74.9619 175.337 74.9694 175.394 74.9554Z" fill="#263238"/>
<path d="M184.84 88.1602L183.71 89.2641L181.697 91.2406L180.94 90.0368L180.188 88.8488L182.817 85.7158L184.73 88.0288L184.84 88.1602Z" fill="white"/>
<path d="M180.188 88.8487L179.605 89.8212L178.748 91.2405L176.782 87.6922L178.038 86.2151L180.188 88.8487Z" fill="white"/>
</svg>
