<svg width="155" height="152" viewBox="0 0 155 152" fill="none" xmlns="http://www.w3.org/2000/svg">
<path d="M42.0647 38.1526L25.6564 33.196C25.0196 33.0036 24.3475 33.3639 24.1551 34.0007L21.2367 43.6617C21.0443 44.2985 21.4046 44.9707 22.0414 45.163L38.4497 50.1197C39.0865 50.3121 39.7587 49.9518 39.951 49.315L42.8695 39.654C43.0618 39.0172 42.7015 38.345 42.0647 38.1526Z" stroke="#263238" stroke-width="1.00285" stroke-miterlimit="10"/>
<path d="M23.5764 35.4927L42.2288 41.1455" stroke="#263238" stroke-miterlimit="10"/>
<path d="M23.0083 37.3643L41.6641 43.0171" stroke="#263238" stroke-miterlimit="10"/>
<path d="M35.9872 46.5175C35.9397 46.6751 35.9246 46.8405 35.9428 47.004C35.9611 47.1675 36.0122 47.3256 36.0932 47.4688C35.8136 47.6069 35.492 47.6338 35.1933 47.5441C35.0031 47.4866 34.8299 47.3834 34.6888 47.2434C34.5478 47.1034 34.4433 46.931 34.3844 46.7412C34.3255 46.5515 34.3141 46.3501 34.3511 46.1549C34.3881 45.9597 34.4725 45.7765 34.5967 45.6215C34.721 45.4665 34.8814 45.3443 35.0639 45.2657C35.2464 45.187 35.4454 45.1544 35.6434 45.1705C35.8414 45.1867 36.0325 45.2512 36.1998 45.3584C36.3671 45.4656 36.5056 45.6121 36.6031 45.7853C36.4568 45.8601 36.3269 45.9634 36.2211 46.0892C36.1153 46.2149 36.0358 46.3606 35.9872 46.5175Z" stroke="#263238" stroke-miterlimit="10"/>
<path d="M38.3106 47.2225C38.2406 47.4524 38.104 47.6563 37.9181 47.8085C37.7321 47.9607 37.5053 48.0544 37.2661 48.0776C37.027 48.1008 36.7863 48.0526 36.5745 47.9391C36.3628 47.8256 36.1895 47.6518 36.0765 47.4397C35.9635 47.2276 35.916 46.9868 35.9399 46.7478C35.9638 46.5087 36.058 46.282 36.2107 46.0965C36.3634 45.911 36.5677 45.775 36.7978 45.7056C37.0278 45.6362 37.2732 45.6366 37.5031 45.7067C37.8111 45.8007 38.0693 46.0131 38.2207 46.2974C38.3721 46.5817 38.4045 46.9144 38.3106 47.2225Z" stroke="#263238" stroke-miterlimit="10"/>
<path d="M153.59 61.4732L140.023 57.3615C139.388 57.1691 138.718 57.5278 138.525 58.1626L136.147 66.0089C135.955 66.6437 136.314 67.3143 136.948 67.5067L150.516 71.6184C151.15 71.8107 151.821 71.4521 152.013 70.8173L154.391 62.971C154.584 62.3362 154.225 61.6656 153.59 61.4732Z" stroke="#263238" stroke-miterlimit="10"/>
<path d="M138.159 59.3701L154.026 64.1778" stroke="#263238" stroke-miterlimit="10"/>
<path d="M137.677 60.9648L153.54 65.7725" stroke="#263238" stroke-miterlimit="10"/>
<path d="M148.716 68.7393C148.675 68.8729 148.662 69.0134 148.677 69.1522C148.692 69.2911 148.736 69.4254 148.805 69.5468C148.655 69.6197 148.49 69.655 148.323 69.6497C148.157 69.6445 147.994 69.5987 147.849 69.5165C147.704 69.4343 147.581 69.3181 147.492 69.1779C147.402 69.0377 147.347 68.8777 147.333 68.7117C147.319 68.5457 147.345 68.3788 147.41 68.2253C147.474 68.0717 147.575 67.9363 147.704 67.8305C147.833 67.7248 147.985 67.6519 148.148 67.6183C148.312 67.5847 148.48 67.5913 148.64 67.6375C148.894 67.7138 149.109 67.8855 149.239 68.1165C149.114 68.1792 149.003 68.2667 148.913 68.3738C148.823 68.4809 148.756 68.6053 148.716 68.7393Z" stroke="#263238" stroke-miterlimit="10"/>
<path d="M150.69 69.348C150.629 69.5413 150.513 69.7123 150.356 69.8396C150.198 69.9669 150.006 70.0448 149.805 70.0634C149.603 70.082 149.4 70.0406 149.222 69.9443C149.044 69.848 148.898 69.7012 148.804 69.5223C148.709 69.3434 148.669 69.1404 148.689 68.9389C148.709 68.7374 148.788 68.5464 148.917 68.3898C149.045 68.2333 149.217 68.1183 149.411 68.0592C149.605 68.0002 149.812 67.9998 150.006 68.058C150.136 68.0971 150.257 68.1616 150.362 68.2478C150.467 68.334 150.554 68.4401 150.617 68.5601C150.681 68.6801 150.72 68.8115 150.733 68.9468C150.745 69.082 150.731 69.2184 150.69 69.348Z" stroke="#263238" stroke-miterlimit="10"/>
<path d="M131.876 23.9865L112.07 33.0544L116.788 43.3589L136.594 34.2909L131.876 23.9865Z" stroke="#263238" stroke-miterlimit="10"/>
<path d="M134.891 32.81L131.894 26.2641C131.614 26.3919 131.295 26.4036 131.006 26.2965C130.717 26.1894 130.483 25.9722 130.354 25.6926L114.343 33.0222C114.471 33.3022 114.483 33.6215 114.376 33.9101C114.269 34.1987 114.052 34.4331 113.772 34.562L116.769 41.1079C116.908 41.0443 117.058 41.0086 117.211 41.0031C117.364 40.9975 117.516 41.0222 117.659 41.0756C117.802 41.129 117.933 41.2101 118.045 41.3143C118.156 41.4185 118.246 41.5437 118.309 41.6828L134.317 34.3498C134.253 34.211 134.217 34.061 134.212 33.9084C134.206 33.7558 134.231 33.6036 134.284 33.4605C134.338 33.3175 134.419 33.1864 134.523 33.0747C134.627 32.9631 134.752 32.8731 134.891 32.81Z" stroke="#263238" stroke-miterlimit="10"/>
<path d="M126.146 36.0364C127.45 35.0348 127.695 33.1659 126.693 31.862C125.692 30.5581 123.823 30.3131 122.519 31.3147C121.215 32.3162 120.97 34.1852 121.971 35.489C122.973 36.7929 124.842 37.0379 126.146 36.0364Z" stroke="#263238" stroke-miterlimit="10"/>
<path d="M125.143 35.1162L125.365 35.6021L125.153 35.6979L124.934 35.2189C124.559 35.382 124.139 35.4086 123.747 35.2942V34.9965C124.093 35.1014 124.466 35.0833 124.801 34.9451L124.298 33.8365C123.777 33.9357 123.24 34.011 122.984 33.4498C122.799 33.046 122.929 32.5601 123.552 32.2145L123.329 31.7252L123.541 31.6294L123.774 32.1256C124.082 31.992 124.421 31.947 124.753 31.9955V32.2932C124.46 32.251 124.162 32.2852 123.887 32.3925L124.4 33.5148C124.931 33.4087 125.495 33.3129 125.769 33.881C125.94 34.2745 125.793 34.7706 125.143 35.1162ZM124.164 33.5388L123.678 32.4677C123.257 32.7038 123.165 33.0187 123.288 33.2856C123.432 33.6209 123.774 33.6072 124.161 33.5388H124.164ZM125.454 34.0212C125.304 33.6791 124.941 33.7133 124.537 33.792L125.02 34.8493C125.485 34.603 125.574 34.2916 125.451 34.0212H125.454Z" fill="#263238"/>
<path d="M22.5716 70.9261L7.34106 72.2969L8.054 80.2184L23.2845 78.8476L22.5716 70.9261Z" stroke="#263238" stroke-width="1.00404" stroke-miterlimit="10"/>
<path d="M22.0603 77.2457L21.6291 72.2328C21.4146 72.2508 21.2017 72.1832 21.0369 72.0447C20.8721 71.9062 20.7689 71.7081 20.7497 71.4937L8.48594 72.5544C8.50306 72.7687 8.43511 72.9812 8.29678 73.1457C8.15846 73.3103 7.96089 73.4138 7.74683 73.4338L8.17798 78.4468C8.28428 78.4374 8.3914 78.4491 8.49318 78.4812C8.59496 78.5133 8.68941 78.5651 8.77111 78.6338C8.85281 78.7025 8.92015 78.7866 8.96927 78.8813C9.0184 78.9761 9.04834 79.0796 9.05738 79.1859L21.3212 78.1251C21.3041 77.9108 21.372 77.6984 21.5103 77.5338C21.6487 77.3692 21.8462 77.2657 22.0603 77.2457Z" stroke="#263238" stroke-miterlimit="10"/>
<path d="M16.979 75.162C17.0147 75.5726 16.9278 75.9847 16.7293 76.346C16.5308 76.7072 16.2296 77.0015 15.8639 77.1916C15.4981 77.3817 15.0841 77.459 14.6744 77.4138C14.2647 77.3686 13.8776 77.2029 13.562 76.9376C13.2465 76.6723 13.0167 76.3194 12.9018 75.9236C12.7868 75.5277 12.7918 75.1066 12.9162 74.7136C13.0406 74.3206 13.2788 73.9733 13.6006 73.7157C13.9224 73.4581 14.3134 73.3017 14.7241 73.2663C14.9967 73.2423 15.2713 73.2724 15.5323 73.3548C15.7932 73.4371 16.0354 73.5702 16.2449 73.7463C16.4543 73.9224 16.627 74.1381 16.753 74.381C16.879 74.6239 16.9558 74.8893 16.979 75.162Z" stroke="#263238" stroke-miterlimit="10"/>
<path d="M15.0969 76.4825L15.1277 76.8555H14.9669L14.9326 76.4859C14.6483 76.5048 14.3662 76.4237 14.1354 76.2567L14.2106 76.065C14.4148 76.2135 14.6633 76.2883 14.9155 76.2772L14.8437 75.4252C14.4775 75.3704 14.1046 75.2917 14.0703 74.864C14.043 74.5526 14.2414 74.2617 14.7342 74.1796L14.7034 73.8066H14.8642L14.895 74.1728C15.1323 74.1576 15.3692 74.2086 15.5794 74.3199L15.5144 74.515C15.3318 74.4201 15.1281 74.373 14.9224 74.3781L14.9942 75.237C15.3672 75.2917 15.7641 75.3636 15.8018 75.7981C15.8223 76.1164 15.6067 76.4072 15.0969 76.4825ZM14.8231 75.213L14.7513 74.402C14.4091 74.4602 14.2859 74.645 14.303 74.8503C14.3201 75.0556 14.5494 75.1685 14.8231 75.213ZM15.5588 75.8358C15.5349 75.5791 15.2919 75.4936 15.0079 75.4662L15.0764 76.2772C15.4322 76.219 15.5759 76.0411 15.5588 75.8358Z" fill="#263238"/>
<path d="M145.787 28.6044C147.431 28.6044 148.764 27.2715 148.764 25.6274C148.764 23.9832 147.431 22.6504 145.787 22.6504C144.142 22.6504 142.81 23.9832 142.81 25.6274C142.81 27.2715 144.142 28.6044 145.787 28.6044Z" stroke="#263238" stroke-miterlimit="10"/>
<path d="M145.92 27.2802V27.814H145.674V27.2836C145.266 27.2756 144.873 27.1269 144.562 26.8627L144.695 26.5958C144.967 26.8348 145.312 26.9747 145.674 26.9928V25.7712C145.16 25.6446 144.647 25.4872 144.647 24.8712C144.647 24.4264 144.969 24.0397 145.674 23.985V23.4409H145.906V23.9713C146.242 23.9784 146.569 24.0792 146.851 24.2622L146.734 24.5359C146.486 24.3759 146.201 24.2827 145.906 24.2656V25.4974C146.43 25.624 146.984 25.7712 146.984 26.3974C146.998 26.8456 146.659 27.2391 145.92 27.2802ZM145.687 25.4358V24.2758C145.208 24.3169 145.003 24.5633 145.003 24.8576C144.989 25.21 145.304 25.34 145.674 25.4358H145.687ZM146.659 26.4145C146.659 26.0483 146.317 25.9217 145.92 25.8225V26.9928C146.43 26.9483 146.659 26.7122 146.659 26.4145Z" fill="#263238"/>
<path d="M126.179 65.4547C127.779 65.0776 128.771 63.4745 128.394 61.8742C128.016 60.2739 126.413 59.2823 124.813 59.6595C123.213 60.0366 122.221 61.6396 122.598 63.2399C122.975 64.8402 124.578 65.8318 126.179 65.4547Z" stroke="#263238" stroke-miterlimit="10"/>
<path d="M124.746 64.0307L124.469 64.4858L124.27 64.3626L124.547 63.9109C124.203 63.692 123.946 63.3589 123.822 62.9699L124.075 62.8125C124.182 63.157 124.403 63.4549 124.701 63.6577L125.345 62.614C124.972 62.2411 124.612 61.8339 124.934 61.3103C125.167 60.9305 125.642 60.7697 126.279 61.0948L126.559 60.6362L126.758 60.7594L126.481 61.2111C126.761 61.3939 126.987 61.6493 127.134 61.9502L126.891 62.1247C126.762 61.8593 126.568 61.6309 126.327 61.4609L125.68 62.5114C126.063 62.8946 126.457 63.3087 126.128 63.8425C125.892 64.2257 125.399 64.3797 124.746 64.0307ZM125.516 62.3198L126.121 61.3309C125.694 61.1153 125.382 61.2111 125.228 61.4609C125.044 61.7791 125.239 62.0563 125.516 62.3369V62.3198ZM125.831 63.6611C126.022 63.3497 125.8 63.0657 125.509 62.7714L124.9 63.7638C125.355 64.017 125.673 63.9486 125.827 63.6782L125.831 63.6611Z" fill="#263238"/>
<path d="M82.7737 5.09309C83.0182 5.62867 83.0984 6.22472 83.0042 6.80588C82.91 7.38704 82.6455 7.92721 82.2443 8.35809C81.8431 8.78897 81.3232 9.09122 80.7502 9.22661C80.1772 9.362 79.577 9.32446 79.0254 9.11874C78.4737 8.91301 77.9955 8.54833 77.6511 8.07082C77.3067 7.59331 77.1116 7.0244 77.0905 6.43603C77.0694 5.84766 77.2233 5.26624 77.5326 4.7653C77.842 4.26437 78.2929 3.86639 78.8284 3.62171C79.184 3.45874 79.5682 3.36752 79.9591 3.35329C80.35 3.33905 80.7399 3.40208 81.1064 3.53876C81.4728 3.67545 81.8088 3.88309 82.0949 4.14981C82.381 4.41653 82.6117 4.73708 82.7737 5.09309Z" stroke="#263238" stroke-miterlimit="10"/>
<path d="M80.8746 7.77248L81.097 8.25838L80.8849 8.35761L80.659 7.87514C80.2842 8.03825 79.8641 8.06489 79.4717 7.95042V7.65272C79.8171 7.75709 80.1877 7.74019 80.5222 7.60481L80.0157 6.4893C79.4956 6.58853 78.9584 6.66039 78.7018 6.10263C78.517 5.69544 78.647 5.21296 79.2732 4.86736L79.0508 4.37804L79.2595 4.28223L79.4819 4.7647C79.7897 4.63117 80.1286 4.58614 80.4606 4.63467V4.93237C80.1683 4.89095 79.8702 4.92512 79.5949 5.0316L80.1081 6.15396C80.6385 6.04788 81.2031 5.95549 81.4769 6.52009C81.6856 6.93071 81.5282 7.42688 80.8746 7.77248ZM79.896 6.19502L79.4135 5.13768C78.9926 5.37379 78.9002 5.68859 79.0234 5.95207C79.1706 6.27372 79.5093 6.26346 79.896 6.19502ZM81.186 6.6775C81.032 6.33532 80.6727 6.37296 80.269 6.44824L80.7514 7.50558C81.1997 7.25921 81.3092 6.95125 81.186 6.6775Z" fill="#263238"/>
<path d="M72.7479 125.654C73.1153 126.458 73.2358 127.354 73.0943 128.227C72.9527 129.1 72.5555 129.912 71.9527 130.559C71.35 131.206 70.5688 131.66 69.708 131.864C68.8472 132.067 67.9454 132.011 67.1167 131.702C66.2879 131.393 65.5695 130.845 65.0521 130.127C64.5348 129.41 64.2417 128.555 64.2101 127.671C64.1785 126.787 64.4097 125.914 64.8745 125.161C65.3393 124.409 66.0168 123.811 66.8213 123.443C67.3556 123.199 67.9327 123.063 68.5198 123.042C69.1068 123.021 69.6922 123.116 70.2425 123.321C70.7929 123.526 71.2974 123.838 71.7273 124.238C72.1571 124.639 72.504 125.12 72.7479 125.654Z" stroke="#263238" stroke-miterlimit="10"/>
<path d="M69.8906 129.685L70.2328 130.417L69.9145 130.561L69.5723 129.836C69.01 130.082 68.3791 130.123 67.7896 129.952L67.8101 129.507C68.3295 129.662 68.8862 129.634 69.3876 129.428L68.6245 127.759C67.8477 127.906 67.0368 128.015 66.6535 127.177C66.3729 126.568 66.5714 125.839 67.509 125.319L67.1668 124.59L67.4816 124.443L67.8238 125.168C68.2869 124.969 68.7961 124.902 69.2952 124.973V125.418C68.8571 125.356 68.4105 125.408 67.9983 125.569L68.7648 127.252C69.5621 127.095 70.4107 126.954 70.8008 127.803C71.0951 128.422 70.8761 129.168 69.8906 129.685ZM68.426 127.314L67.6972 125.726C67.071 126.068 66.9307 126.551 67.1155 126.954C67.3345 127.437 67.8409 127.42 68.426 127.314ZM70.3628 128.043C70.1335 127.54 69.5895 127.581 68.9941 127.7L69.7195 129.288C70.3936 128.915 70.5476 128.45 70.3628 128.043Z" fill="#263238"/>
<path d="M8.68453 56.1571C8.02003 56.7408 7.19739 57.1144 6.32061 57.2306C5.44383 57.3468 4.55228 57.2004 3.75868 56.8099C2.96509 56.4195 2.30508 55.8025 1.86211 55.037C1.41914 54.2715 1.21309 53.3918 1.27002 52.5092C1.32695 51.6266 1.64429 50.7806 2.18193 50.0784C2.71958 49.3761 3.45338 48.849 4.29055 48.5637C5.12773 48.2785 6.0307 48.2478 6.88529 48.4757C7.73988 48.7035 8.50772 49.1797 9.09173 49.8439C9.47966 50.2851 9.77686 50.7984 9.96636 51.3545C10.1559 51.9106 10.2339 52.4986 10.1961 53.0849C10.1583 53.6712 10.0053 54.2442 9.74597 54.7714C9.48661 55.2985 9.12593 55.7694 8.68453 56.1571Z" stroke="#263238" stroke-miterlimit="10"/>
<path d="M4.01025 54.5831L3.40801 55.1135L3.17532 54.85L3.77414 54.3265C3.37742 53.857 3.15607 53.2644 3.14795 52.6498L3.58252 52.5403C3.58274 53.0794 3.76478 53.6026 4.09922 54.0254L5.46794 52.814C5.10181 52.1126 4.76305 51.3666 5.46794 50.761C5.97437 50.3195 6.72717 50.299 7.49366 51.045L8.11643 50.518L8.34569 50.7781L7.74687 51.305C8.06543 51.6925 8.27139 52.1601 8.34227 52.6566L7.91796 52.7969C7.84981 52.3594 7.67206 51.9462 7.40127 51.5959L6.00859 52.8175C6.38841 53.5326 6.76823 54.306 6.06676 54.9253C5.55691 55.3701 4.78016 55.3941 4.01025 54.5831ZM5.85803 52.4958L7.16859 51.3427C6.64847 50.8431 6.14204 50.8465 5.82723 51.1373C5.41662 51.4864 5.58086 51.9723 5.84776 52.4958H5.85803ZM5.71774 54.5489C6.1352 54.1862 5.94015 53.6763 5.65272 53.1288L4.34216 54.282C4.87939 54.8329 5.37898 54.8534 5.72116 54.5592L5.71774 54.5489Z" fill="#263238"/>
<path d="M29.1581 94.3031C29.2058 93.1106 28.2778 92.1053 27.0853 92.0576C25.8929 92.0099 24.8875 92.9379 24.8398 94.1304C24.7921 95.3229 25.7201 96.3282 26.9126 96.3759C28.1051 96.4236 29.1104 95.4956 29.1581 94.3031Z" stroke="#263238" stroke-width="1.0008" stroke-miterlimit="10"/>
<path d="M27.6209 94.6352L27.8673 94.9329L27.7407 95.039L27.4943 94.7447C27.2628 94.9308 26.9735 95.0301 26.6765 95.0253L26.6286 94.8132C26.8898 94.82 27.1456 94.738 27.354 94.5805L26.786 93.8961C26.4438 94.0638 26.0811 94.2178 25.7937 93.8756C25.5884 93.6292 25.5884 93.2631 25.9579 92.9004L25.7081 92.6027L25.8382 92.4966L26.0845 92.7909C26.275 92.6396 26.5035 92.5437 26.7449 92.5137L26.8065 92.719C26.595 92.7483 26.394 92.8294 26.2214 92.9551L26.7928 93.6395C27.135 93.465 27.5217 93.2973 27.8194 93.6395C28.0281 93.8927 28.0213 94.2691 27.6209 94.6352ZM26.6423 93.7182L26.1016 93.0714C25.8553 93.3178 25.8518 93.5539 25.9853 93.7182C26.1187 93.8824 26.3856 93.8379 26.6423 93.7182ZM27.638 93.8106C27.4669 93.6087 27.2206 93.6942 26.9537 93.8277L27.4943 94.4744C27.7578 94.2143 27.7749 93.9748 27.638 93.8071V93.8106Z" fill="#263238"/>
<path d="M95.5748 136.891C95.8479 137.219 96.0176 137.621 96.0625 138.046C96.1073 138.47 96.0253 138.899 95.8267 139.277C95.6281 139.655 95.3219 139.965 94.9468 140.169C94.5717 140.373 94.1446 140.462 93.7193 140.423C93.2941 140.384 92.89 140.22 92.5579 139.952C92.2258 139.683 91.9808 139.322 91.8538 138.915C91.7268 138.507 91.7235 138.071 91.8444 137.661C91.9652 137.252 92.2048 136.887 92.5328 136.614C92.9732 136.248 93.5408 136.072 94.1111 136.124C94.6813 136.176 95.2077 136.452 95.5748 136.891Z" stroke="#263238" stroke-miterlimit="10"/>
<path d="M94.7536 139.133L95.0034 139.43L94.8734 139.537L94.627 139.242C94.3968 139.428 94.1086 139.528 93.8126 139.523L93.7647 139.311C94.0261 139.319 94.2824 139.237 94.4901 139.078L93.9221 138.394C93.5799 138.561 93.2138 138.715 92.9298 138.373C92.721 138.127 92.721 137.761 93.0906 137.398L92.8442 137.1L92.9742 136.994L93.2206 137.288C93.4104 137.136 93.6392 137.04 93.881 137.011L93.9426 137.217C93.7301 137.246 93.528 137.327 93.3541 137.453L93.9289 138.137C94.2711 137.963 94.6578 137.795 94.9555 138.137C95.1539 138.39 95.1471 138.767 94.7536 139.133ZM93.7715 138.202L93.2309 137.555C92.9811 137.802 92.9777 138.038 93.1145 138.202C93.2514 138.366 93.5115 138.335 93.7715 138.202ZM94.7639 138.298C94.5928 138.093 94.3464 138.178 94.0795 138.298L94.6201 138.945C94.887 138.712 94.9042 138.472 94.7639 138.308V138.298Z" fill="#263238"/>
<path d="M36.4792 13.8817C36.5881 12.6942 35.7137 11.6433 34.5262 11.5344C33.3387 11.4255 32.2878 12.2998 32.1789 13.4873C32.07 14.6748 32.9443 15.7257 34.1318 15.8346C35.3193 15.9435 36.3703 15.0692 36.4792 13.8817Z" stroke="#263238" stroke-miterlimit="10"/>
<path d="M35.1728 14.5442L35.4192 14.8419L35.2891 14.9479L35.0428 14.6537C34.8129 14.8403 34.5244 14.9396 34.2284 14.9342L34.1805 14.7221C34.4416 14.7289 34.6974 14.6469 34.9059 14.4894L34.3379 13.805C33.9957 13.9727 33.6295 14.1267 33.3455 13.7845C33.1402 13.5381 33.1368 13.172 33.5098 12.8093L33.26 12.5116L33.39 12.4055L33.6364 12.6998C33.8265 12.5479 34.0552 12.4519 34.2968 12.4226L34.3584 12.6279C34.1469 12.6573 33.9459 12.7384 33.7733 12.864L34.3447 13.5484C34.6869 13.3739 35.0735 13.2062 35.3712 13.5484C35.5731 13.8016 35.5629 14.178 35.1728 14.5442ZM34.1873 13.6237L33.6467 12.9633C33.4003 13.2096 33.3934 13.4457 33.5303 13.61C33.6672 13.7742 33.9272 13.7469 34.1873 13.6237ZM35.183 13.7161C35.012 13.5142 34.7622 13.5997 34.4987 13.7161L35.0393 14.3628C35.3028 14.1233 35.3199 13.8837 35.183 13.7161Z" fill="#263238"/>
<path opacity="0.2" d="M82.9893 102.208C82.9893 102.208 80.3511 115.597 64.1693 118.632C64.1693 118.632 59.9434 122.003 58.537 123.998C57.1307 125.993 49.6403 129.384 42.0096 139.964C34.379 150.544 23.0186 116.945 23.0186 116.945L48.1279 84.3354L82.9893 102.208Z" fill="black" fill-opacity="0.7"/>
<path d="M97.3711 39.3388C97.3711 39.3388 106.097 35.0717 108.016 35.8074C109.936 36.5431 111.78 40.9573 104.441 45.1832C97.1008 49.4092 99.2908 57.2828 99.2908 57.2828H104.526C104.526 57.2828 107.667 58.5625 108.889 60.2084C110.111 61.8543 110.983 67.4661 111.681 69.3686C112.379 71.2712 112.023 73.1771 110.111 73.7965C110.111 73.7965 108.889 79.1208 109.238 81.4819C109.587 83.8429 109.412 85.3622 107.144 85.6496C106.573 85.7092 105.996 85.6438 105.453 85.4582C104.91 85.2726 104.414 84.9711 103.999 84.5747C103.584 84.1782 103.26 83.6963 103.05 83.1622C102.839 82.6282 102.748 82.0548 102.781 81.4819L101.036 87.8054L102.257 90.2349C103.983 90.9028 105.578 91.8688 106.969 93.0887C109.413 95.1828 111.856 95.7543 111.158 98.088C110.46 100.422 109.063 102.937 101.734 100.021C94.4044 97.1059 88.2965 85.6496 88.2965 85.6496L83.8926 45.7033L97.3711 39.3388Z" fill="white"/>
<path opacity="0.4" d="M106.555 62.2856C102.6 67.6784 106.976 73.889 106.976 73.889C106.976 73.889 104.239 75.4151 104.16 79.3091C104.129 80.9277 104.536 83.1895 105.022 85.2836C104.311 84.9476 103.717 84.4053 103.318 83.7273C102.919 83.0494 102.733 82.267 102.784 81.482L101.036 87.8055L102.257 90.2316C103.543 90.7235 104.754 91.3902 105.857 92.2128C104.773 94.7039 104.441 97.7835 104.536 100.959C103.583 100.706 102.647 100.393 101.734 100.021C94.4044 97.1026 88.2965 85.6498 88.2965 85.6498L83.8926 45.7L97.3711 39.3389C97.3711 39.3389 102.138 37.0086 105.402 36.0881C105.149 39.1404 105.744 42.2987 106.175 44.0575C105.619 44.465 105.04 44.8409 104.441 45.1833C97.1111 49.4093 99.2908 57.2829 99.2908 57.2829H104.53C104.53 57.2829 107.513 58.5011 108.793 60.0854C107.918 60.6745 107.159 61.4204 106.555 62.2856Z" fill="#92E3A9"/>
<path d="M83.7387 95.7715C83.7387 95.7715 74.2466 114.383 57.1375 118.605C57.1375 118.605 56.484 122.287 53.5891 123.868C52.0424 124.71 45.801 134.062 40.3227 142.599L9.97803 123.984C11.8463 122.137 13.9747 120.008 16.1373 117.787C22.4677 111.334 29.2223 104.1 31.2891 100.521C33.1369 97.3387 35.474 91.8159 37.51 86.625C40.1174 79.9867 42.2389 73.889 42.2389 73.889L52.3538 62.6449L68.255 44.9644L68.9394 47.2262L83.7387 95.7715Z" fill="white"/>
<path opacity="0.4" d="M68.2685 44.9644L83.7386 95.7715C83.7386 95.7715 74.2465 114.383 57.1374 118.605C57.1374 118.605 56.4838 122.287 53.5889 123.868C52.1997 124.624 47.0293 132.238 42.0266 139.951C43.8812 133.586 49.2501 123.44 49.2501 123.44C45.8043 119.358 46.8103 115.057 48.1893 116.282C49.5683 117.507 53.0346 120.949 53.2536 121.165C51.7309 119.372 51.3784 116.562 51.3784 116.562C51.3784 116.562 55.6489 119.403 55.9945 114.852C56.3401 110.301 53.435 99.1796 53.435 99.1796L45.8077 69.9368L68.2685 44.9644Z" fill="#92E3A9"/>
<path d="M83.8926 45.7033L97.3711 39.3388C97.3711 39.3388 106.097 35.0717 108.016 35.8074C109.936 36.5431 111.78 40.9573 104.441 45.1832C97.1008 49.4092 99.2908 57.2828 99.2908 57.2828H104.526C104.526 57.2828 107.667 58.5625 108.889 60.2084C110.111 61.8543 110.983 67.4661 111.681 69.3686C112.379 71.2712 112.023 73.1771 110.111 73.7965C110.111 73.7965 108.889 79.1208 109.238 81.4819C109.587 83.8429 109.412 85.3622 107.144 85.6496C106.573 85.7092 105.996 85.6438 105.453 85.4582C104.91 85.2726 104.414 84.9711 103.999 84.5747C103.584 84.1782 103.26 83.6963 103.05 83.1622C102.839 82.6282 102.748 82.0548 102.781 81.4819L101.036 87.8054L102.257 90.2349C103.983 90.9028 105.578 91.8688 106.969 93.0887C109.413 95.1828 111.856 95.7543 111.158 98.088C110.46 100.422 109.063 102.937 101.734 100.021C94.4044 97.1059 88.2965 85.6496 88.2965 85.6496" stroke="#263238" stroke-linecap="round" stroke-linejoin="round"/>
<path d="M110.111 73.7966C107.493 74.5049 104.441 73.9813 103.305 69.3482C102.169 64.7151 104.441 59.7671 105.922 59.312" stroke="#263238" stroke-linecap="round" stroke-linejoin="round"/>
<path d="M102.781 81.482C102.781 81.482 102.607 75.5246 104.79 74.0532" stroke="#263238" stroke-linecap="round" stroke-linejoin="round"/>
<path opacity="0.4" d="M39.125 111.07C39.125 111.07 32.7296 110.273 31.3027 107.413C30.1222 105.045 23.7234 113.914 16.1509 117.788C22.4812 111.334 29.2359 104.1 31.3027 100.521C33.1505 97.3387 35.4876 91.8159 37.5236 86.625C37.4209 90.9296 35.1283 97.5201 35.7819 100.952C35.0815 101.137 34.4824 101.591 34.1141 102.215C33.7459 102.839 33.6381 103.582 33.8143 104.285C34.3036 107.012 39.125 111.07 39.125 111.07Z" fill="#92E3A9"/>
<path d="M83.7385 95.7715C83.7385 95.7715 74.2464 114.383 57.1339 118.605C57.1339 118.605 56.4838 122.287 53.5889 123.868C52.0422 124.71 45.8043 134.062 40.3191 142.599" stroke="#263238" stroke-linecap="round" stroke-linejoin="round"/>
<path d="M9.97803 123.984C17.287 116.761 28.5209 105.308 31.3028 100.521C35.5116 93.277 42.2526 73.8856 42.2526 73.8856L68.2584 44.9644" stroke="#263238" stroke-linecap="round" stroke-linejoin="round"/>
<path d="M53.418 67.0522C53.418 67.0522 57.4147 70.6315 58.5507 73.8959" stroke="#263238" stroke-linecap="round" stroke-linejoin="round"/>
<path d="M100.594 14.9207H57.5924C56.3206 14.9207 55.2896 15.9517 55.2896 17.2235V108.767C55.2896 110.039 56.3206 111.07 57.5924 111.07H100.594C101.866 111.07 102.897 110.039 102.897 108.767V17.2235C102.897 15.9517 101.866 14.9207 100.594 14.9207Z" fill="#263238"/>
<path d="M88.5291 17.5383L87.6189 19.2047C87.5227 19.3855 87.3793 19.537 87.204 19.643C87.0287 19.749 86.828 19.8056 86.6232 19.8069H71.5672C71.3627 19.8058 71.1622 19.7501 70.9865 19.6454C70.8108 19.5407 70.6663 19.3909 70.568 19.2115L69.6612 17.5451C69.5638 17.365 69.4195 17.2146 69.2436 17.1098C69.0677 17.005 68.8668 16.9497 68.6621 16.9497H58.14C57.99 16.9502 57.8417 16.9802 57.7034 17.0381C57.5651 17.096 57.4396 17.1806 57.334 17.2871C57.2285 17.3936 57.145 17.5198 57.0884 17.6586C57.0317 17.7975 57.003 17.9461 57.0039 18.096V108.09C57.0039 108.391 57.1235 108.681 57.3365 108.894C57.5494 109.108 57.8384 109.228 58.14 109.229H100.044C100.194 109.23 100.343 109.201 100.482 109.145C100.621 109.088 100.747 109.004 100.854 108.898C100.96 108.792 101.045 108.666 101.102 108.527C101.16 108.389 101.19 108.24 101.19 108.09V18.096C101.19 17.7938 101.07 17.504 100.856 17.2903C100.642 17.0766 100.353 16.9565 100.05 16.9565H89.5317C89.3278 16.9546 89.1271 17.0076 88.9507 17.1099C88.7743 17.2123 88.6287 17.3602 88.5291 17.5383Z" fill="#92E3A9" stroke="#263238" stroke-linecap="round" stroke-linejoin="round"/>
<path d="M75.8274 18.3459C76.1656 18.3459 76.4399 18.0716 76.4399 17.7334C76.4399 17.3951 76.1656 17.1208 75.8274 17.1208C75.4891 17.1208 75.2148 17.3951 75.2148 17.7334C75.2148 18.0716 75.4891 18.3459 75.8274 18.3459Z" stroke="white" stroke-miterlimit="10"/>
<path d="M82.9689 17.7333C82.9682 17.8083 82.9453 17.8814 82.9032 17.9434C82.861 18.0054 82.8015 18.0536 82.732 18.0818C82.6626 18.11 82.5863 18.1171 82.5129 18.102C82.4394 18.087 82.3721 18.0505 82.3193 17.9973C82.2665 17.944 82.2307 17.8764 82.2163 17.8028C82.2019 17.7292 82.2096 17.653 82.2385 17.5838C82.2673 17.5146 82.316 17.4555 82.3784 17.4139C82.4408 17.3723 82.5141 17.3501 82.589 17.3501C82.6392 17.3501 82.6889 17.36 82.7352 17.3793C82.7815 17.3986 82.8235 17.4269 82.8588 17.4626C82.8941 17.4982 82.922 17.5405 82.9409 17.5869C82.9598 17.6334 82.9693 17.6832 82.9689 17.7333Z" stroke="white" stroke-miterlimit="10"/>
<path d="M81.2647 17.4939H77.5418C77.5105 17.4939 77.4795 17.5001 77.4506 17.5122C77.4218 17.5243 77.3956 17.542 77.3736 17.5643C77.3517 17.5865 77.3343 17.613 77.3227 17.642C77.311 17.6711 77.3052 17.7021 77.3057 17.7334C77.3057 17.796 77.3306 17.8561 77.3748 17.9004C77.4191 17.9447 77.4792 17.9695 77.5418 17.9695H81.2647C81.3274 17.9695 81.3874 17.9447 81.4317 17.9004C81.476 17.8561 81.5008 17.796 81.5008 17.7334C81.5013 17.7021 81.4955 17.6711 81.4839 17.642C81.4722 17.613 81.4549 17.5865 81.4329 17.5643C81.4109 17.542 81.3848 17.5243 81.3559 17.5122C81.327 17.5001 81.296 17.4939 81.2647 17.4939Z" fill="white"/>
<path d="M64.7955 19.2322H60.7817V20.9362H64.7955V19.2322Z" stroke="#263238" stroke-linecap="round" stroke-linejoin="round"/>
<path d="M65.4148 19.5195H64.792V20.6522H65.4148V19.5195Z" stroke="#263238" stroke-linecap="round" stroke-linejoin="round"/>
<path d="M93.2376 20.3203H92.5259V20.9397H93.2376V20.3203Z" stroke="#263238" stroke-linecap="round" stroke-linejoin="round"/>
<path d="M94.6268 19.6975H93.915V20.9396H94.6268V19.6975Z" stroke="#263238" stroke-linecap="round" stroke-linejoin="round"/>
<path d="M96.0162 19.0747H95.3044V20.9362H96.0162V19.0747Z" stroke="#263238" stroke-linecap="round" stroke-linejoin="round"/>
<path d="M97.4019 18.4519H96.6902V20.9361H97.4019V18.4519Z" stroke="#263238" stroke-linecap="round" stroke-linejoin="round"/>
<path opacity="0.5" d="M100.896 36.834H57.2881V78.4262H100.896V36.834Z" fill="white"/>
<path d="M69.3327 30.1922V30.9142C69.3327 31.8073 68.905 32.283 68.029 32.283H67.615V34.3737H66.739V28.8132H68.029C68.905 28.8132 69.3327 29.2991 69.3327 30.1922ZM67.6218 29.6105V31.4959H68.0359C68.313 31.4959 68.4636 31.3693 68.4636 30.9724V30.1341C68.4636 29.7371 68.313 29.6105 68.0359 29.6105H67.6218Z" fill="#263238"/>
<path d="M72.4707 34.384H71.5879L71.4339 33.3745H70.3629L70.2089 34.384H69.4048L70.2979 28.8132H71.5776L72.4707 34.384ZM70.4724 32.6183H71.3176L70.9035 29.8021H70.8864L70.4724 32.6183Z" fill="#263238"/>
<path d="M73.3054 32.5396L72.2002 28.8132H73.1309L73.7913 31.3522H73.8084L74.4689 28.8132H75.3038L74.1985 32.5396V34.384H73.3226L73.3054 32.5396Z" fill="#263238"/>
<path d="M77.4835 32.7689H77.5006L78.0892 28.8132H79.3074V34.384H78.4793V30.3907L77.8907 34.384H77.0626L76.4262 30.4454V34.384H75.6289V28.8132H76.8471L77.4835 32.7689Z" fill="#263238"/>
<path d="M80.8198 31.1606H82.0277V31.9579H80.8267V33.5901H82.3391V34.384H79.9438V28.8132H82.3391V29.6105H80.8267L80.8198 31.1606Z" fill="#263238"/>
<path d="M83.6703 30.3496H83.6532V34.384H82.8662V28.8132H83.9646L84.8474 32.1495V28.8132H85.6276V34.384H84.7311L83.6703 30.3496Z" fill="#263238"/>
<path d="M86.0176 28.8132H88.7242V29.6105H87.8072V34.384H86.9312V29.6105H86.0176V28.8132Z" fill="#263238"/>
<path d="M90.2847 28.7515C91.1333 28.7515 91.5713 29.2613 91.5713 30.151V30.3255H90.7432V30.0962C90.7432 29.6959 90.5858 29.5453 90.3052 29.5453C90.0246 29.5453 89.8706 29.6959 89.8706 30.0962C89.8706 30.4966 90.0452 30.8046 90.6166 31.3041C91.3489 31.9509 91.5816 32.4094 91.5816 33.0458C91.5816 33.9389 91.1333 34.4488 90.2744 34.4488C89.4155 34.4488 88.9707 33.9389 88.9707 33.0458V32.7037H89.7988V33.104C89.7988 33.5009 89.9733 33.6447 90.2505 33.6447C90.5276 33.6447 90.7056 33.5009 90.7056 33.104C90.7056 32.7071 90.5311 32.3957 89.9562 31.8927C89.2239 31.2494 88.9946 30.7874 88.9946 30.151C88.9946 29.2613 89.4326 28.7515 90.2847 28.7515Z" fill="#263238"/>
<path d="M97.402 41.8743H60.7817V47.3458H97.402V41.8743Z" fill="white" stroke="#263238" stroke-linecap="round" stroke-linejoin="round"/>
<path d="M97.402 52.1362H60.7817V57.6077H97.402V52.1362Z" fill="white" stroke="#263238" stroke-linecap="round" stroke-linejoin="round"/>
<path d="M97.402 61.4678H60.7817V66.9393H97.402V61.4678Z" fill="white" stroke="#263238" stroke-linecap="round" stroke-linejoin="round"/>
<path d="M78.1201 68.9341H60.7817V75.3397H78.1201V68.9341Z" fill="white" stroke="#263238" stroke-linecap="round" stroke-linejoin="round"/>
<path d="M97.4055 68.9341H80.0671V75.3397H97.4055V68.9341Z" fill="white" stroke="#263238" stroke-linecap="round" stroke-linejoin="round"/>
<path d="M63.064 40.9196V41.0668H61.9177V39.4482H63.0298V39.5954H62.0922V40.1737H62.9272V40.3174H62.0922V40.9196H63.064Z" fill="#263238"/>
<path d="M65.4388 40.362V41.0669H65.2608V40.3825C65.2608 40.1259 65.1308 39.9924 64.9187 39.9924C64.8616 39.99 64.8046 40 64.7518 40.0219C64.699 40.0437 64.6515 40.0767 64.6128 40.1187C64.574 40.1608 64.5449 40.2107 64.5274 40.2651C64.5099 40.3195 64.5045 40.3771 64.5115 40.4338V41.0703H64.3472V40.3859C64.3472 40.1293 64.2172 39.9958 64.005 39.9958C63.9479 39.9934 63.891 40.0035 63.8382 40.0253C63.7853 40.0471 63.7379 40.0802 63.6991 40.1222C63.6604 40.1642 63.6312 40.2141 63.6138 40.2685C63.5963 40.3229 63.5908 40.3805 63.5978 40.4372V41.0737H63.4336V39.859H63.591V40.0814C63.6378 40.0058 63.7041 39.9442 63.783 39.9032C63.862 39.8623 63.9505 39.8434 64.0393 39.8487C64.1289 39.8411 64.2187 39.8618 64.296 39.9078C64.3733 39.9539 64.4343 40.0229 64.4704 40.1053C64.5202 40.023 64.5914 39.9558 64.6763 39.9106C64.7612 39.8654 64.8568 39.844 64.9529 39.8487C65.0202 39.8442 65.0878 39.8546 65.1507 39.8792C65.2136 39.9037 65.2702 39.9419 65.3166 39.991C65.3631 40.04 65.3981 40.0987 65.4192 40.1628C65.4403 40.2269 65.447 40.2949 65.4388 40.362Z" fill="#263238"/>
<path d="M66.8041 40.3138V41.0666H66.6467V40.8784C66.6006 40.9461 66.5373 41.0005 66.4634 41.0359C66.3895 41.0714 66.3076 41.0867 66.2258 41.0803C65.9521 41.0803 65.7844 40.9366 65.7844 40.7381C65.7844 40.5396 65.9042 40.3959 66.2532 40.3959H66.6296V40.3206C66.6296 40.1119 66.5098 39.999 66.2874 39.999C66.1399 39.9967 65.9966 40.0477 65.8837 40.1427L65.8084 40.0195C65.9502 39.9099 66.1253 39.8519 66.3045 39.8553C66.369 39.8447 66.435 39.8489 66.4976 39.8676C66.5602 39.8863 66.6177 39.919 66.6658 39.9631C66.7139 40.0073 66.7513 40.0618 66.7753 40.1225C66.7993 40.1833 66.8091 40.2487 66.8041 40.3138ZM66.6399 40.7039V40.502H66.2566C66.0205 40.502 65.9452 40.5944 65.9452 40.721C65.9452 40.8476 66.0582 40.9503 66.2532 40.9503C66.3336 40.9526 66.4128 40.9302 66.4801 40.8862C66.5474 40.8421 66.5996 40.7785 66.6296 40.7039H66.6399Z" fill="#263238"/>
<path d="M67.2114 39.4686C67.2123 39.4375 67.2253 39.4079 67.2477 39.3862C67.2701 39.3644 67.3 39.3523 67.3312 39.3523C67.362 39.3523 67.3916 39.3646 67.4135 39.3864C67.4353 39.4082 67.4475 39.4378 67.4475 39.4686C67.4475 39.4995 67.4353 39.5291 67.4135 39.5509C67.3916 39.5727 67.362 39.585 67.3312 39.585C67.3 39.585 67.2701 39.5728 67.2477 39.5511C67.2253 39.5294 67.2123 39.4998 67.2114 39.4686ZM67.2491 39.8519H67.4133V41.0666H67.2491V39.8519Z" fill="#263238"/>
<path d="M67.8718 39.3523H68.0361V41.0632H67.8718V39.3523Z" fill="#263238"/>
<path d="M64.1966 45.1284V45.2755H63.0503V43.657H64.1624V43.8041H63.2077V44.379H64.046V44.5261H63.2077V45.1284H64.1966Z" fill="#263238"/>
<path d="M66.5713 44.5638V45.2686H66.4071V44.5843C66.4071 44.3276 66.2771 44.1942 66.0649 44.1942C66.008 44.1913 65.9511 44.2008 65.8982 44.2222C65.8454 44.2437 65.7979 44.2764 65.7591 44.3182C65.7203 44.3599 65.6911 44.4097 65.6736 44.4639C65.656 44.5182 65.6506 44.5756 65.6577 44.6322V45.2721H65.4935V44.5877C65.4935 44.3311 65.3634 44.1976 65.1513 44.1976C65.0943 44.1947 65.0375 44.2043 64.9846 44.2257C64.9318 44.2471 64.8843 44.2798 64.8455 44.3216C64.8066 44.3633 64.7774 44.4131 64.7599 44.4673C64.7424 44.5216 64.737 44.579 64.7441 44.6356V45.2755H64.5764V44.0573H64.7338V44.2797C64.7813 44.205 64.8479 44.1443 64.9267 44.104C65.0055 44.0637 65.0937 44.0452 65.1821 44.0505C65.2716 44.0439 65.3609 44.065 65.438 44.1109C65.5152 44.1568 65.5763 44.2253 65.6132 44.3071C65.6628 44.2246 65.7339 44.1571 65.8189 44.1119C65.9039 44.0667 65.9996 44.0454 66.0957 44.0505C66.1622 44.0475 66.2286 44.0591 66.2902 44.0844C66.3518 44.1096 66.4072 44.148 66.4525 44.1969C66.4977 44.2457 66.5318 44.3039 66.5523 44.3672C66.5729 44.4306 66.5794 44.4976 66.5713 44.5638Z" fill="#263238"/>
<path d="M67.9333 44.5159V45.2687H67.7759V45.0805C67.7304 45.1478 67.6676 45.2017 67.5942 45.2367C67.5208 45.2716 67.4394 45.2862 67.3584 45.2789C67.0847 45.2789 66.9136 45.1352 66.9136 44.9368C66.9136 44.7383 67.0368 44.5946 67.3858 44.5946H67.7724V44.5227C67.7724 44.314 67.6527 44.2011 67.4303 44.2011C67.2818 44.1992 67.1375 44.2501 67.0231 44.3448L66.9512 44.2216C67.092 44.1099 67.2678 44.0517 67.4474 44.0573C67.5108 44.0491 67.5753 44.055 67.6361 44.0747C67.6969 44.0944 67.7526 44.1274 67.7992 44.1713C67.8457 44.2152 67.8818 44.2689 67.905 44.3285C67.9282 44.3881 67.9379 44.4521 67.9333 44.5159ZM67.7724 44.9025V44.7041H67.3892C67.1531 44.7041 67.0778 44.7965 67.0778 44.9231C67.0778 45.0497 67.1907 45.1523 67.3858 45.1523C67.4684 45.1571 67.5504 45.1355 67.6199 45.0905C67.6894 45.0456 67.7428 44.9798 67.7724 44.9025Z" fill="#263238"/>
<path d="M68.3406 43.6672C68.3415 43.636 68.3545 43.6064 68.3768 43.5847C68.3992 43.563 68.4292 43.5508 68.4603 43.5508C68.4759 43.5504 68.4914 43.553 68.5059 43.5587C68.5204 43.5643 68.5337 43.5728 68.5448 43.5837C68.556 43.5945 68.5649 43.6075 68.5709 43.6218C68.577 43.6362 68.5801 43.6516 68.5801 43.6672C68.5801 43.6989 68.5675 43.7294 68.545 43.7519C68.5226 43.7743 68.4921 43.7869 68.4603 43.7869C68.4286 43.7869 68.3981 43.7743 68.3757 43.7519C68.3532 43.7294 68.3406 43.6989 68.3406 43.6672ZM68.3782 44.0504H68.5425V45.2686H68.3782V44.0504Z" fill="#263238"/>
<path d="M69.0044 43.551H69.1652V45.2619H69.0044V43.551Z" fill="#263238"/>
<path d="M70.7359 44.5641V45.269H70.5716V44.5846C70.5789 44.5341 70.5748 44.4825 70.5595 44.4337C70.5443 44.385 70.5183 44.3403 70.4835 44.3029C70.4488 44.2655 70.406 44.2363 70.3585 44.2176C70.311 44.1988 70.2599 44.1909 70.2089 44.1945C70.1506 44.1897 70.092 44.1977 70.0372 44.2182C69.9824 44.2386 69.9327 44.2709 69.8919 44.3128C69.851 44.3546 69.8199 44.405 69.8007 44.4603C69.7816 44.5155 69.7749 44.5744 69.7812 44.6325V45.2724H69.6169V44.0542H69.7743V44.2801C69.8239 44.2039 69.8927 44.1422 69.9739 44.1013C70.055 44.0604 70.1456 44.0418 70.2363 44.0474C70.3048 44.0419 70.3736 44.0516 70.4379 44.0759C70.5022 44.1002 70.5603 44.1384 70.6081 44.1878C70.6558 44.2372 70.6921 44.2965 70.7142 44.3616C70.7363 44.4267 70.7437 44.4958 70.7359 44.5641Z" fill="#263238"/>
<path d="M72.1047 44.5159V45.2686H71.9473V45.0804C71.9017 45.1478 71.839 45.2017 71.7656 45.2366C71.6922 45.2715 71.6108 45.2861 71.5298 45.2789C71.2526 45.2789 71.085 45.1352 71.085 44.9367C71.085 44.7383 71.2047 44.5946 71.5537 44.5946H71.9404V44.5227C71.9404 44.314 71.8241 44.201 71.5982 44.201C71.4507 44.1988 71.3073 44.2498 71.1945 44.3448L71.1192 44.2216C71.2602 44.1104 71.4358 44.0523 71.6153 44.0573C71.679 44.0485 71.7439 44.054 71.8051 44.0734C71.8664 44.0929 71.9226 44.1258 71.9695 44.1698C72.0164 44.2137 72.0529 44.2676 72.0763 44.3275C72.0996 44.3874 72.1094 44.4517 72.1047 44.5159ZM71.9404 44.9025V44.704H71.5606C71.3245 44.704 71.2458 44.7964 71.2458 44.923C71.2458 45.0496 71.3587 45.1523 71.5537 45.1523C71.6369 45.1578 71.7197 45.1365 71.7899 45.0916C71.8601 45.0466 71.914 44.9804 71.9438 44.9025H71.9404Z" fill="#263238"/>
<path d="M74.5613 44.5636V45.2685H74.3971V44.5842C74.3971 44.3275 74.2671 44.1941 74.0549 44.1941C73.998 44.1911 73.9411 44.2007 73.8882 44.2221C73.8354 44.2435 73.7879 44.2763 73.7491 44.318C73.7103 44.3598 73.6811 44.4095 73.6636 44.4638C73.646 44.5181 73.6406 44.5755 73.6477 44.6321V45.2719H73.4732V44.5876C73.4732 44.3309 73.3432 44.1975 73.131 44.1975C73.0741 44.1945 73.0172 44.2041 72.9644 44.2255C72.9115 44.247 72.864 44.2797 72.8252 44.3215C72.7864 44.3632 72.7572 44.413 72.7397 44.4672C72.7221 44.5215 72.7167 44.5789 72.7238 44.6355V45.2754H72.5596V44.0572H72.717V44.2796C72.7644 44.2049 72.831 44.1442 72.9099 44.1039C72.9887 44.0636 73.0769 44.0451 73.1652 44.0504C73.2549 44.0428 73.3447 44.0635 73.422 44.1095C73.4993 44.1555 73.5603 44.2246 73.5964 44.307C73.6462 44.2247 73.7174 44.1574 73.8023 44.1122C73.8872 44.0671 73.9828 44.0457 74.0789 44.0504C74.1459 44.0463 74.2131 44.0571 74.2756 44.082C74.338 44.1068 74.3942 44.145 74.4403 44.194C74.4863 44.243 74.521 44.3015 74.5419 44.3653C74.5629 44.4292 74.5695 44.4969 74.5613 44.5636Z" fill="#263238"/>
<path d="M76.0705 44.7108H75.044C75.0527 44.8301 75.1084 44.9411 75.1989 45.0193C75.2893 45.0976 75.4071 45.1368 75.5264 45.1283C75.5966 45.1302 75.6663 45.1168 75.7307 45.089C75.7951 45.0613 75.8527 45.0198 75.8994 44.9675L75.9918 45.0735C75.9045 45.1652 75.792 45.2291 75.6686 45.2571C75.5451 45.2852 75.4161 45.2762 75.2977 45.2312C75.1793 45.1863 75.0769 45.1074 75.0031 45.0045C74.9294 44.9016 74.8876 44.7792 74.8831 44.6527C74.8789 44.5724 74.8912 44.4921 74.9194 44.4168C74.9475 44.3416 74.9909 44.2729 75.0468 44.2151C75.1026 44.1573 75.1698 44.1116 75.2441 44.0809C75.3184 44.0503 75.3982 44.0352 75.4785 44.0367C75.5586 44.0351 75.6381 44.0502 75.7121 44.081C75.786 44.1117 75.8528 44.1575 75.9081 44.2154C75.9635 44.2733 76.0062 44.3421 76.0335 44.4173C76.0609 44.4926 76.0723 44.5727 76.0671 44.6527C76.0671 44.6527 76.0705 44.6937 76.0705 44.7108ZM75.044 44.5876H75.9063C75.9063 44.4733 75.8608 44.3636 75.78 44.2828C75.6991 44.2019 75.5895 44.1565 75.4751 44.1565C75.3608 44.1565 75.2511 44.2019 75.1702 44.2828C75.0894 44.3636 75.044 44.4733 75.044 44.5876Z" fill="#263238"/>
<path d="M78.4521 44.6563C78.4521 45.0498 78.305 45.2791 78.0654 45.2791C78.0316 45.281 77.9978 45.2759 77.9661 45.2641C77.9344 45.2524 77.9054 45.2342 77.881 45.2108C77.8566 45.1874 77.8373 45.1591 77.8243 45.1279C77.8113 45.0967 77.8048 45.0631 77.8054 45.0293C77.7577 45.1084 77.6897 45.1733 77.6085 45.2173C77.5273 45.2612 77.4357 45.2825 77.3434 45.2791C77.1855 45.2791 77.0341 45.2164 76.9224 45.1047C76.8108 44.993 76.748 44.8416 76.748 44.6837C76.748 44.5258 76.8108 44.3743 76.9224 44.2627C77.0341 44.151 77.1855 44.0883 77.3434 44.0883C77.4345 44.0844 77.5251 44.1049 77.6056 44.1476C77.6862 44.1903 77.754 44.2537 77.8019 44.3313V44.102H77.9525V44.978C77.9525 45.108 78.0175 45.1559 78.0962 45.1559C78.2365 45.1559 78.3289 44.978 78.3289 44.6666C78.3326 44.543 78.3103 44.42 78.2634 44.3055C78.2165 44.1911 78.1461 44.0878 78.0568 44.0023C77.9674 43.9168 77.8611 43.851 77.7447 43.8093C77.6283 43.7675 77.5044 43.7506 77.3811 43.7598C77.2588 43.7598 77.1378 43.7839 77.0249 43.8307C76.912 43.8774 76.8094 43.946 76.7229 44.0324C76.6365 44.1188 76.5679 44.2214 76.5212 44.3344C76.4744 44.4473 76.4503 44.5683 76.4503 44.6905C76.4503 44.8128 76.4744 44.9338 76.5212 45.0467C76.5679 45.1596 76.6365 45.2622 76.7229 45.3487C76.8094 45.4351 76.912 45.5037 77.0249 45.5504C77.1378 45.5972 77.2588 45.6213 77.3811 45.6213C77.5352 45.6209 77.6872 45.5858 77.8259 45.5186L77.8635 45.6315C77.7127 45.7025 77.5478 45.7388 77.3811 45.7376C77.1034 45.7376 76.837 45.6273 76.6407 45.4309C76.4443 45.2346 76.334 44.9682 76.334 44.6905C76.334 44.4128 76.4443 44.1465 76.6407 43.9501C76.837 43.7538 77.1034 43.6435 77.3811 43.6435C77.5193 43.6335 77.6582 43.6524 77.7888 43.699C77.9194 43.7456 78.0388 43.8188 78.1396 43.9141C78.2403 44.0093 78.3201 44.1245 78.3739 44.2523C78.4277 44.3801 78.4544 44.5177 78.4521 44.6563ZM77.8019 44.6803C77.8073 44.6193 77.8 44.5578 77.7803 44.4998C77.7607 44.4418 77.7292 44.3885 77.6878 44.3434C77.6464 44.2982 77.5961 44.2621 77.5401 44.2375C77.4841 44.2128 77.4235 44.2 77.3622 44.2C77.301 44.2 77.2404 44.2128 77.1844 44.2375C77.1283 44.2621 77.078 44.2982 77.0367 44.3434C76.9953 44.3885 76.9638 44.4418 76.9442 44.4998C76.9245 44.5578 76.9172 44.6193 76.9225 44.6803C76.9172 44.7413 76.9245 44.8027 76.9442 44.8607C76.9638 44.9187 76.9953 44.972 77.0367 45.0172C77.078 45.0624 77.1283 45.0984 77.1844 45.1231C77.2404 45.1478 77.301 45.1605 77.3622 45.1605C77.4235 45.1605 77.4841 45.1478 77.5401 45.1231C77.5961 45.0984 77.6464 45.0624 77.6878 45.0172C77.7292 44.972 77.7607 44.9187 77.7803 44.8607C77.8 44.8027 77.8073 44.7413 77.8019 44.6803Z" fill="#263238"/>
<path d="M79.8549 44.7108H78.8284C78.8319 44.7702 78.8471 44.8283 78.873 44.8817C78.899 44.9352 78.9353 44.983 78.9798 45.0225C79.0243 45.0619 79.0762 45.0921 79.1324 45.1115C79.1886 45.1308 79.2481 45.1388 79.3075 45.1351C79.3776 45.1371 79.4473 45.1237 79.5117 45.0959C79.5761 45.0681 79.6337 45.0266 79.6804 44.9743L79.7728 45.0804C79.6855 45.1721 79.573 45.2359 79.4496 45.264C79.3261 45.292 79.1971 45.283 79.0787 45.2381C78.9604 45.1931 78.8579 45.1143 78.7841 45.0114C78.7104 44.9084 78.6686 44.786 78.6641 44.6595C78.6599 44.5792 78.6722 44.499 78.7004 44.4237C78.7285 44.3484 78.7719 44.2797 78.8278 44.2219C78.8836 44.1641 78.9508 44.1185 79.0251 44.0878C79.0994 44.0571 79.1792 44.042 79.2595 44.0436C79.3396 44.042 79.4192 44.057 79.4931 44.0878C79.5671 44.1185 79.6338 44.1643 79.6891 44.2222C79.7445 44.2801 79.7872 44.3489 79.8145 44.4242C79.8419 44.4994 79.8533 44.5796 79.8481 44.6595C79.8481 44.6595 79.8549 44.6937 79.8549 44.7108ZM78.8284 44.5876H79.6907C79.6907 44.4733 79.6453 44.3636 79.5644 44.2828C79.4836 44.2019 79.3739 44.1565 79.2595 44.1565C79.1452 44.1565 79.0355 44.2019 78.9547 44.2828C78.8738 44.3636 78.8284 44.4733 78.8284 44.5876Z" fill="#263238"/>
<path d="M82.2024 44.5638V45.2687H82.0279V44.5844C82.0279 44.3277 81.8979 44.1943 81.6858 44.1943C81.6288 44.1913 81.5719 44.2009 81.5191 44.2223C81.4663 44.2437 81.4188 44.2765 81.3799 44.3182C81.3411 44.36 81.3119 44.4097 81.2944 44.464C81.2769 44.5183 81.2715 44.5757 81.2786 44.6323V45.2721H81.1143V44.5878C81.1143 44.3311 80.9843 44.1977 80.7721 44.1977C80.7152 44.1948 80.6583 44.2043 80.6055 44.2257C80.5526 44.2472 80.5051 44.2799 80.4663 44.3217C80.4275 44.3634 80.3983 44.4132 80.3808 44.4674C80.3633 44.5217 80.3579 44.5791 80.3649 44.6357V45.2756H80.2007V44.0574H80.3581V44.2798C80.405 44.2054 80.471 44.1448 80.5492 44.1045C80.6275 44.0642 80.7151 44.0456 80.8029 44.0506C80.8929 44.0438 80.9828 44.0648 81.0605 44.1106C81.1382 44.1565 81.2 44.2251 81.2375 44.3072C81.2862 44.2247 81.3566 44.1571 81.4411 44.1118C81.5256 44.0666 81.6209 44.0454 81.7165 44.0506C81.7839 44.046 81.8515 44.0564 81.9143 44.081C81.9772 44.1056 82.0339 44.1438 82.0803 44.1928C82.1267 44.2419 82.1617 44.3005 82.1829 44.3647C82.204 44.4288 82.2107 44.4968 82.2024 44.5638Z" fill="#263238"/>
<path d="M83.5641 44.5159V45.2687H83.3965V45.0805C83.3507 45.1475 83.2879 45.2013 83.2146 45.2361C83.1412 45.271 83.0599 45.2858 82.979 45.2789C82.7018 45.2789 82.5342 45.1352 82.5342 44.9367C82.5342 44.7383 82.6539 44.5946 83.003 44.5946H83.3965V44.5227C83.3965 44.314 83.2801 44.201 83.0543 44.201C82.9068 44.1988 82.7634 44.2498 82.6505 44.3448L82.5752 44.2216C82.7163 44.1104 82.8919 44.0523 83.0714 44.0573C83.1353 44.0479 83.2006 44.053 83.2623 44.0722C83.324 44.0914 83.3806 44.1242 83.4279 44.1683C83.4752 44.2123 83.512 44.2664 83.5356 44.3265C83.5592 44.3867 83.5689 44.4514 83.5641 44.5159ZM83.3999 44.9025V44.7041H83.0201C82.784 44.7041 82.7053 44.7964 82.7053 44.923C82.7053 45.0497 82.8182 45.1523 83.0132 45.1523C83.0953 45.1563 83.1765 45.1343 83.2453 45.0895C83.3141 45.0446 83.367 44.9792 83.3965 44.9025H83.3999Z" fill="#263238"/>
<path d="M83.9749 43.6674C83.9749 43.6437 83.9819 43.6205 83.995 43.6008C84.0082 43.5811 84.0269 43.5658 84.0488 43.5567C84.0707 43.5477 84.0947 43.5453 84.118 43.5499C84.1412 43.5545 84.1625 43.5659 84.1793 43.5827C84.196 43.5994 84.2075 43.6208 84.2121 43.644C84.2167 43.6672 84.2143 43.6913 84.2053 43.7132C84.1962 43.7351 84.1808 43.7538 84.1611 43.767C84.1415 43.7801 84.1183 43.7871 84.0946 43.7871C84.0629 43.7871 84.0324 43.7745 84.0099 43.7521C83.9875 43.7296 83.9749 43.6991 83.9749 43.6674ZM84.0091 44.0506H84.1733V45.2688H84.0091V44.0506Z" fill="#263238"/>
<path d="M84.6318 43.551H84.7961V45.2619H84.6318V43.551Z" fill="#263238"/>
<path d="M85.1485 45.1525C85.148 45.1362 85.1509 45.12 85.1569 45.1048C85.1629 45.0897 85.172 45.0759 85.1835 45.0644C85.195 45.0528 85.2088 45.0438 85.224 45.0378C85.2391 45.0317 85.2554 45.0289 85.2717 45.0293C85.3043 45.0293 85.3357 45.0423 85.3588 45.0654C85.3819 45.0885 85.3949 45.1199 85.3949 45.1525C85.3949 45.1855 85.382 45.2172 85.359 45.2409C85.336 45.2645 85.3047 45.2782 85.2717 45.2791C85.2552 45.2791 85.2389 45.2758 85.2237 45.2694C85.2086 45.263 85.1948 45.2537 85.1833 45.2419C85.1718 45.2301 85.1628 45.2161 85.1569 45.2007C85.1509 45.1854 85.148 45.169 85.1485 45.1525Z" fill="#263238"/>
<path d="M85.5866 44.6596C85.5841 44.5771 85.5987 44.4951 85.6295 44.4186C85.6602 44.3421 85.7064 44.2727 85.7652 44.2149C85.824 44.1571 85.8941 44.112 85.9711 44.0825C86.0481 44.0531 86.1304 44.0398 86.2128 44.0436C86.3067 44.0374 86.4005 44.0564 86.4847 44.0985C86.5689 44.1406 86.6404 44.2043 86.6918 44.2831L86.5686 44.3653C86.5301 44.3103 86.4789 44.2654 86.4193 44.2344C86.3597 44.2034 86.2936 44.1873 86.2264 44.1873C86.1077 44.1974 85.9971 44.2517 85.9165 44.3395C85.8358 44.4273 85.7911 44.5421 85.7911 44.6613C85.7911 44.7804 85.8358 44.8953 85.9165 44.983C85.9971 45.0708 86.1077 45.1251 86.2264 45.1352C86.2937 45.1358 86.3601 45.1199 86.4197 45.0889C86.4794 45.0579 86.5305 45.0127 86.5686 44.9572L86.6918 45.0394C86.6399 45.1177 86.5683 45.1811 86.4843 45.2231C86.4002 45.2651 86.3066 45.2844 86.2128 45.2789C86.1301 45.2827 86.0475 45.2694 85.9703 45.2397C85.893 45.21 85.8227 45.1647 85.7639 45.1065C85.7051 45.0483 85.6589 44.9785 85.6284 44.9016C85.5979 44.8247 85.5836 44.7423 85.5866 44.6596Z" fill="#263238"/>
<path d="M86.8695 44.6599C86.8695 44.5374 86.9058 44.4176 86.9739 44.3158C87.0419 44.2139 87.1387 44.1345 87.2518 44.0877C87.365 44.0408 87.4895 44.0285 87.6097 44.0524C87.7298 44.0763 87.8402 44.1353 87.9268 44.2219C88.0134 44.3085 88.0724 44.4189 88.0963 44.539C88.1202 44.6592 88.1079 44.7837 88.0611 44.8969C88.0142 45.0101 87.9348 45.1068 87.8329 45.1748C87.7311 45.2429 87.6113 45.2792 87.4889 45.2792C87.4067 45.2821 87.3249 45.268 87.2485 45.2379C87.1721 45.2078 87.1026 45.1623 87.0445 45.1042C86.9864 45.0461 86.9409 44.9767 86.9108 44.9002C86.8807 44.8238 86.8666 44.742 86.8695 44.6599ZM87.9405 44.6599C87.9378 44.5698 87.9083 44.4825 87.8559 44.4092C87.8035 44.3359 87.7305 44.2798 87.6461 44.248C87.5618 44.2162 87.4699 44.2102 87.3821 44.2307C87.2943 44.2512 87.2146 44.2973 87.1531 44.3632C87.0916 44.429 87.051 44.5117 87.0365 44.6006C87.022 44.6896 87.0342 44.7809 87.0716 44.8629C87.1091 44.9449 87.17 45.0139 87.2467 45.0612C87.3234 45.1085 87.4125 45.132 87.5025 45.1287C87.5625 45.1278 87.6216 45.1149 87.6764 45.0907C87.7312 45.0664 87.7805 45.0313 87.8214 44.9876C87.8623 44.9438 87.8939 44.8922 87.9144 44.8359C87.9349 44.7796 87.9438 44.7197 87.9405 44.6599Z" fill="#263238"/>
<path d="M90.449 44.5638V45.2687H90.2848V44.5844C90.2848 44.3277 90.1547 44.1943 89.9426 44.1943C89.8857 44.1913 89.8288 44.2009 89.7759 44.2223C89.7231 44.2437 89.6756 44.2765 89.6368 44.3182C89.5979 44.36 89.5687 44.4097 89.5512 44.464C89.5337 44.5183 89.5283 44.5757 89.5354 44.6323V45.2721H89.3711V44.5878C89.3711 44.3311 89.2411 44.1977 89.029 44.1977C88.972 44.1948 88.9151 44.2043 88.8623 44.2257C88.8095 44.2472 88.762 44.2799 88.7231 44.3217C88.6843 44.3634 88.6551 44.4132 88.6376 44.4674C88.6201 44.5217 88.6147 44.5791 88.6218 44.6357V45.2756H88.4575V44.0574H88.6149V44.2798C88.6618 44.2054 88.7278 44.1448 88.8061 44.1045C88.8843 44.0642 88.9719 44.0456 89.0598 44.0506C89.1497 44.0438 89.2396 44.0648 89.3173 44.1106C89.395 44.1565 89.4568 44.2251 89.4943 44.3072C89.5433 44.2249 89.6138 44.1576 89.6982 44.1124C89.7826 44.0671 89.8778 44.0458 89.9734 44.0506C90.0399 44.0476 90.1063 44.0591 90.1679 44.0844C90.2295 44.1097 90.2849 44.1481 90.3302 44.197C90.3754 44.2458 90.4095 44.3039 90.43 44.3673C90.4506 44.4307 90.457 44.4977 90.449 44.5638Z" fill="#263238"/>
<path d="M63.3414 54.9014L63.6288 55.0656L63.5775 55.1614L63.2866 54.9938V55.3359H63.1806V54.9938L62.8897 55.1614L62.835 55.0656L63.1258 54.9014L62.835 54.7405L62.8897 54.6413L63.1806 54.8124V54.4702H63.2866V54.8124L63.5775 54.6413L63.6288 54.7405L63.3414 54.9014Z" fill="#263238"/>
<path d="M64.2823 54.9014L64.5697 55.0656L64.515 55.1614L64.2276 54.9938V55.3359H64.1181V54.9938L63.8306 55.1614L63.7725 55.0656L64.0633 54.9014L63.7725 54.7405L63.8306 54.6413L64.1181 54.8124V54.4702H64.2344V54.8124L64.5218 54.6413L64.5766 54.7405L64.2823 54.9014Z" fill="#263238"/>
<path d="M65.2198 54.9014L65.5072 55.0656L65.4525 55.1614L65.1651 54.9938V55.3359H65.059V54.9938L64.7715 55.1614L64.7168 55.0656L65.0042 54.9014L64.7168 54.7405L64.7715 54.6413L65.059 54.8124V54.4702H65.1651V54.8124L65.4525 54.6413L65.5072 54.7405L65.2198 54.9014Z" fill="#263238"/>
<path d="M66.1573 54.9014L66.4447 55.0656L66.3934 55.1614L66.1026 54.9938V55.3359H65.9965V54.9938L65.7056 55.1614L65.6509 55.0656L65.9417 54.9014L65.6509 54.7405L65.7056 54.6413L65.9965 54.8124V54.4702H66.1026V54.8124L66.3934 54.6413L66.4447 54.7405L66.1573 54.9014Z" fill="#263238"/>
<path d="M67.0985 54.9014L67.3859 55.0656L67.3312 55.1614L67.0437 54.9938V55.3359H66.9342V54.9938L66.6468 55.1614L66.5886 55.0656L66.8795 54.9014L66.5886 54.7405L66.6468 54.6413L66.9342 54.8124V54.4702H67.0437V54.8124L67.3312 54.6413L67.3859 54.7405L67.0985 54.9014Z" fill="#263238"/>
<path d="M68.036 54.9014L68.3234 55.0656L68.2686 55.1614L67.9812 54.9938V55.3359H67.8751V54.9938L67.5877 55.1614L67.533 55.0656L67.8204 54.9014L67.533 54.7405L67.5877 54.6413L67.8751 54.8124V54.4702H67.9983V54.8124L68.2858 54.6413L68.3405 54.7405L68.036 54.9014Z" fill="#263238"/>
<path d="M68.9735 54.9014L69.2609 55.0656L69.2096 55.1614L68.9187 54.9938V55.3359H68.8126V54.9938L68.5218 55.1614L68.467 55.0656L68.7579 54.9014L68.467 54.7405L68.5218 54.6413L68.8126 54.8124V54.4702H68.9187V54.8124L69.2096 54.6413L69.2609 54.7405L68.9735 54.9014Z" fill="#263238"/>
<path d="M69.9146 54.9014L70.2021 55.0656L70.1473 55.1614L69.8565 54.9938V55.3359H69.7504V54.9938L69.463 55.1614L69.4048 55.0656L69.6956 54.9014L69.4048 54.7405L69.463 54.6413L69.7504 54.8124V54.4702H69.8565V54.8124L70.1473 54.6413L70.2021 54.7405L69.9146 54.9014Z" fill="#263238"/>
<path d="M70.8521 54.9014L71.1396 55.0656L71.0848 55.1614L70.7974 54.9938V55.3359H70.6913V54.9938L70.4039 55.1614L70.3491 55.0656L70.6366 54.9014L70.3491 54.7405L70.4039 54.6413L70.6913 54.8124V54.4702H70.7974V54.8124L71.0848 54.6413L71.1396 54.7405L70.8521 54.9014Z" fill="#263238"/>
<path d="M71.7899 54.9014L72.0773 55.0656L72.026 55.1614L71.7351 54.9938V55.3359H71.629V54.9938L71.3382 55.1614L71.2834 55.0656L71.5709 54.9014L71.2834 54.7405L71.3382 54.6413L71.629 54.8124V54.4702H71.7351V54.8124L72.026 54.6413L72.0773 54.7405L71.7899 54.9014Z" fill="#263238"/>
<path d="M72.7308 54.9014L73.0148 55.0656L72.9635 55.1614L72.6726 54.9938V55.3359H72.5666V54.9938L72.2791 55.1614L72.2209 55.0656L72.5118 54.9014L72.2209 54.7405L72.2791 54.6413L72.5666 54.8124V54.4702H72.6726V54.8124L72.9635 54.6413L73.0148 54.7405L72.7308 54.9014Z" fill="#263238"/>
<path d="M63.1872 50.2614C63.1872 50.6035 62.9374 50.8157 62.5268 50.8157H62.0922V51.3255H61.9177V49.7139H62.5234C62.9374 49.7139 63.1872 49.9192 63.1872 50.2614ZM63.0161 50.2614C63.0161 50.0013 62.845 49.8542 62.52 49.8542H62.0922V50.6651H62.5234C62.845 50.672 63.0161 50.5248 63.0161 50.2614Z" fill="#263238"/>
<path d="M64.4294 50.5793V51.3321H64.272V51.1439C64.2256 51.2113 64.1623 51.2652 64.0883 51.3C64.0144 51.3349 63.9325 51.3495 63.8511 51.3424C63.5773 51.3424 63.4097 51.2021 63.4097 51.0002C63.4097 50.7983 63.5294 50.658 63.8785 50.658H64.2651V50.5862C64.2651 50.3774 64.1454 50.2645 63.9229 50.2645C63.7754 50.2622 63.6321 50.3133 63.5192 50.4082L63.4439 50.2851C63.5849 50.1739 63.7605 50.1157 63.9401 50.1208C64.0037 50.112 64.0686 50.1175 64.1298 50.1369C64.1911 50.1564 64.2473 50.1893 64.2942 50.2332C64.3411 50.2772 64.3776 50.3311 64.401 50.391C64.4244 50.4509 64.4341 50.5152 64.4294 50.5793ZM64.2651 50.966V50.7675H63.8921C63.656 50.7675 63.5808 50.8599 63.5808 50.9865C63.5808 51.1131 63.6937 51.2158 63.8887 51.2158C63.9696 51.2183 64.0493 51.1957 64.1168 51.1509C64.1842 51.1062 64.2361 51.0415 64.2651 50.966Z" fill="#263238"/>
<path d="M64.7065 51.1951L64.7784 51.0651C64.9056 51.1545 65.0575 51.2023 65.213 51.202C65.4422 51.202 65.538 51.1233 65.538 51.0001C65.538 50.6853 64.751 50.9351 64.751 50.4526C64.751 50.2541 64.9221 50.1104 65.2301 50.1104C65.3814 50.1085 65.5303 50.1475 65.6612 50.2233L65.5894 50.3534C65.4826 50.284 65.3574 50.2482 65.2301 50.2507C65.0111 50.2507 64.9153 50.3363 64.9153 50.4526C64.9153 50.7948 65.7023 50.5347 65.7023 51.0001C65.7023 51.2122 65.5175 51.3423 65.1993 51.3423C65.0234 51.348 64.8505 51.2963 64.7065 51.1951Z" fill="#263238"/>
<path d="M65.8357 51.1952L65.911 51.0651C66.0367 51.1549 66.1876 51.2028 66.3421 51.202C66.5748 51.202 66.6843 51.1233 66.6843 51.0001C66.6843 50.6853 65.8973 50.9351 65.8973 50.4526C65.8973 50.2542 66.0684 50.1105 66.3798 50.1105C66.53 50.1081 66.678 50.1472 66.8075 50.2234L66.7356 50.3534C66.6338 50.287 66.515 50.2514 66.3935 50.2507C66.171 50.2507 66.0752 50.3363 66.0752 50.4526C66.0752 50.7948 66.8622 50.5348 66.8622 51.0001C66.8622 51.2123 66.6775 51.3423 66.3627 51.3423C66.1753 51.3555 65.9891 51.3035 65.8357 51.1952Z" fill="#263238"/>
<path d="M68.8982 50.1172L68.4363 51.3319H68.2823L67.8991 50.3362L67.5158 51.3319H67.3584L66.9033 50.1172H67.0607L67.4405 51.1437L67.8306 50.1172H67.9743L68.361 51.1437L68.7477 50.1172H68.8982Z" fill="#263238"/>
<path d="M68.9872 50.7229C68.9872 50.6004 69.0235 50.4806 69.0916 50.3788C69.1596 50.2769 69.2563 50.1975 69.3695 50.1507C69.4827 50.1038 69.6072 50.0915 69.7274 50.1154C69.8475 50.1393 69.9579 50.1983 70.0445 50.2849C70.1311 50.3715 70.1901 50.4819 70.214 50.602C70.2379 50.7222 70.2256 50.8467 70.1787 50.9599C70.1319 51.0731 70.0525 51.1698 69.9506 51.2378C69.8488 51.3059 69.729 51.3422 69.6065 51.3422C69.5244 51.3451 69.4426 51.331 69.3662 51.3009C69.2897 51.2708 69.2203 51.2253 69.1622 51.1672C69.1041 51.1091 69.0586 51.0397 69.0285 50.9632C68.9984 50.8868 68.9843 50.805 68.9872 50.7229ZM70.0582 50.7229C70.0582 50.6031 70.0106 50.4882 69.9259 50.4035C69.8412 50.3188 69.7263 50.2712 69.6065 50.2712C69.4867 50.2712 69.3719 50.3188 69.2871 50.4035C69.2024 50.4882 69.1549 50.6031 69.1549 50.7229C69.1549 50.8427 69.2024 50.9575 69.2871 51.0423C69.3719 51.127 69.4867 51.1745 69.6065 51.1745C69.7263 51.1745 69.8412 51.127 69.9259 51.0423C70.0106 50.9575 70.0582 50.8427 70.0582 50.7229Z" fill="#263238"/>
<path d="M71.1738 50.1073V50.2613H71.1327C71.075 50.2587 71.0173 50.2689 70.964 50.2911C70.9106 50.3133 70.8628 50.347 70.8239 50.3898C70.785 50.4326 70.756 50.4834 70.739 50.5387C70.722 50.5939 70.7174 50.6523 70.7255 50.7095V51.3289H70.5613V50.1141H70.7358V50.3502C70.777 50.2713 70.8405 50.2063 70.9184 50.1631C70.9962 50.1199 71.085 50.1005 71.1738 50.1073Z" fill="#263238"/>
<path d="M72.5665 49.6177V51.3286H72.4091V51.0891C72.3603 51.1687 72.2911 51.2339 72.2087 51.2778C72.1263 51.3217 72.0336 51.3428 71.9403 51.3389C71.7844 51.3272 71.6387 51.2571 71.5324 51.1426C71.426 51.028 71.3669 50.8775 71.3669 50.7212C71.3669 50.5649 71.426 50.4144 71.5324 50.2998C71.6387 50.1853 71.7844 50.1152 71.9403 50.1036C72.0314 50.1001 72.1219 50.1204 72.2029 50.1623C72.2839 50.2043 72.3525 50.2666 72.4022 50.3431V49.6143L72.5665 49.6177ZM72.4057 50.7229C72.401 50.6348 72.3706 50.5499 72.3182 50.4788C72.2658 50.4078 72.1937 50.3536 72.1109 50.3231C72.028 50.2925 71.9381 50.287 71.8521 50.307C71.7661 50.327 71.6879 50.3718 71.6271 50.4358C71.5663 50.4999 71.5256 50.5803 71.51 50.6672C71.4944 50.7541 71.5047 50.8437 71.5395 50.9248C71.5742 51.006 71.632 51.0751 71.7057 51.1238C71.7794 51.1724 71.8657 51.1984 71.954 51.1986C72.0157 51.1997 72.0769 51.1879 72.1338 51.1641C72.1907 51.1402 72.242 51.1048 72.2845 51.0601C72.3269 51.0154 72.3596 50.9623 72.3805 50.9043C72.4014 50.8462 72.4099 50.7845 72.4057 50.7229Z" fill="#263238"/>
<path d="M74.9994 63.6064V65.2284H74.842V63.757H74.4587V63.6064H74.9994Z" fill="#263238"/>
<path d="M76.4913 65.071V65.2216H75.3553V65.1018L76.0396 64.4414C76.221 64.2635 76.2586 64.154 76.2586 64.0445C76.2586 63.8563 76.1252 63.74 75.8788 63.74C75.7963 63.7347 75.7136 63.7482 75.6372 63.7797C75.5607 63.8111 75.4923 63.8595 75.4374 63.9213L75.3176 63.8187C75.3906 63.7402 75.4799 63.6787 75.5792 63.6385C75.6785 63.5983 75.7855 63.5803 75.8925 63.586C76.2347 63.586 76.4297 63.7536 76.4297 64.024C76.4244 64.1226 76.3978 64.219 76.3518 64.3064C76.3057 64.3939 76.2412 64.4703 76.1628 64.5304L75.6119 65.071H76.4913Z" fill="#263238"/>
<path d="M77.7711 64.7562C77.7711 65.0265 77.5726 65.2352 77.1825 65.2352C76.9692 65.2419 76.7613 65.1673 76.6008 65.0265L76.6795 64.893C76.8164 65.0187 76.9968 65.0862 77.1825 65.0812C77.4529 65.0812 77.6 64.9581 77.6 64.7562C77.6 64.5543 77.4631 64.4345 77.162 64.4345H77.0457V64.3113L77.4939 63.7502H76.6658V63.6064H77.6924V63.7262L77.2373 64.2908C77.5966 64.3148 77.7711 64.4961 77.7711 64.7562Z" fill="#263238"/>
<path d="M79.3793 64.7938H79.0542V65.2216H78.8899V64.7938H77.9763V64.6741L78.8352 63.5996H79.02L78.1919 64.633H78.8934V64.2566H79.0542V64.633H79.3793V64.7938Z" fill="#263238"/>
<path d="M81.2374 64.742C81.2374 65.0192 81.0458 65.2348 80.6488 65.2348C80.4355 65.2411 80.2277 65.1666 80.0671 65.026L80.1493 64.8926C80.2153 64.9554 80.2932 65.0044 80.3784 65.0367C80.4636 65.0691 80.5544 65.084 80.6454 65.0808C80.9226 65.0808 81.0663 64.9473 81.0663 64.7386C81.0663 64.5299 80.9363 64.3964 80.5257 64.3964H80.1835L80.269 63.582H81.1553V63.7326H80.4127L80.358 64.2459H80.5667C81.0526 64.263 81.2374 64.458 81.2374 64.742Z" fill="#263238"/>
<path d="M82.6642 64.7352C82.6636 64.8054 82.6484 64.8747 82.6196 64.9386C82.5908 65.0026 82.549 65.0599 82.4968 65.1069C82.4447 65.1538 82.3834 65.1895 82.3168 65.2115C82.2502 65.2335 82.1797 65.2415 82.1099 65.2348C81.6787 65.2348 81.446 64.9337 81.446 64.4239C81.446 63.914 81.7472 63.5855 82.1852 63.5855C82.3197 63.5804 82.4531 63.6111 82.5718 63.6745L82.5034 63.8079C82.4078 63.7532 82.2986 63.7271 82.1886 63.7326C81.8464 63.7326 81.6137 63.9551 81.6137 64.3965C81.6137 64.4341 81.6137 64.4786 81.6137 64.5265C81.661 64.4374 81.7329 64.3639 81.8209 64.3147C81.9089 64.2656 82.0093 64.2429 82.1099 64.2493C82.179 64.2406 82.2492 64.2467 82.3158 64.2671C82.3824 64.2875 82.4439 64.3218 82.4963 64.3677C82.5487 64.4136 82.5907 64.4701 82.6197 64.5335C82.6486 64.5968 82.6638 64.6656 82.6642 64.7352ZM82.5 64.7352C82.5 64.5197 82.3426 64.3931 82.0928 64.3931C82.0427 64.3869 81.9919 64.391 81.9434 64.405C81.8949 64.4191 81.8498 64.4428 81.8108 64.4748C81.7718 64.5068 81.7396 64.5464 81.7164 64.5911C81.6931 64.6359 81.6791 64.6849 81.6753 64.7352C81.6753 64.9132 81.8224 65.0774 82.103 65.0774C82.1518 65.0853 82.2016 65.0826 82.2492 65.0694C82.2968 65.0562 82.3409 65.0329 82.3786 65.001C82.4163 64.9692 82.4467 64.9295 82.4676 64.8848C82.4886 64.8401 82.4996 64.7914 82.5 64.7421V64.7352Z" fill="#263238"/>
<path d="M83.9782 63.6064V63.7262L83.2938 65.2284H83.1124L83.7797 63.757H82.9482V64.0581H82.7839V63.6064H83.9782Z" fill="#263238"/>
<path d="M85.3982 64.7699C85.3982 65.0573 85.1552 65.2352 84.7686 65.2352C84.3819 65.2352 84.1458 65.0573 84.1458 64.7699C84.1447 64.6778 84.175 64.588 84.2315 64.5153C84.2881 64.4426 84.3676 64.3912 84.4572 64.3695C84.3825 64.3495 84.3168 64.3047 84.2709 64.2426C84.2249 64.1805 84.2013 64.1046 84.2039 64.0273C84.2039 63.7639 84.4264 63.5996 84.7686 63.5996C85.1107 63.5996 85.34 63.7639 85.34 64.0273C85.3388 64.1046 85.3129 64.1795 85.2661 64.2411C85.2193 64.3027 85.1541 64.3476 85.0799 64.3695C85.1704 64.3904 85.2512 64.4414 85.309 64.5141C85.3668 64.5868 85.3982 64.677 85.3982 64.7699ZM85.2271 64.7699C85.2271 64.5714 85.056 64.4448 84.7686 64.4448C84.4811 64.4448 84.3134 64.5714 84.3134 64.7699C84.3134 64.9683 84.4811 65.1121 84.7686 65.1121C85.056 65.1121 85.2271 64.9752 85.2271 64.7665V64.7699ZM84.7651 64.3113C85.0183 64.3113 85.1689 64.1984 85.1689 64.0205C85.1689 63.8426 85.0081 63.7296 84.7651 63.7296C84.5222 63.7296 84.3648 63.8391 84.3648 64.0205C84.3648 64.2019 84.5153 64.3113 84.7651 64.3113Z" fill="#263238"/>
<path d="M87.4035 64.3967C87.4035 64.9477 87.1023 65.2351 86.6609 65.2351C86.5276 65.2398 86.3953 65.2091 86.2777 65.1461L86.3461 65.0127C86.4417 65.0674 86.5509 65.0935 86.6609 65.0879C87.0031 65.0879 87.2324 64.8621 87.2324 64.4241C87.2355 64.3808 87.2355 64.3374 87.2324 64.2941C87.1864 64.3834 87.1152 64.4573 87.0276 64.5066C86.94 64.5559 86.8399 64.5784 86.7396 64.5713C86.671 64.5789 86.6016 64.5721 86.5358 64.5512C86.4701 64.5304 86.4094 64.4959 86.3578 64.4501C86.3062 64.4043 86.2648 64.3482 86.2362 64.2853C86.2077 64.2225 86.1927 64.1544 86.1921 64.0854C86.1928 64.0152 86.208 63.9459 86.2368 63.882C86.2656 63.818 86.3074 63.7607 86.3595 63.7137C86.4116 63.6668 86.4729 63.6311 86.5395 63.6091C86.6062 63.5871 86.6766 63.5791 86.7465 63.5858C87.1605 63.5858 87.4035 63.8869 87.4035 64.3967ZM87.1742 64.0751C87.1742 63.8972 87.0271 63.7329 86.7465 63.7329C86.6972 63.7249 86.6467 63.7278 86.5987 63.7414C86.5506 63.755 86.5061 63.7789 86.4683 63.8115C86.4304 63.8441 86.4002 63.8846 86.3797 63.9301C86.3592 63.9757 86.3489 64.0251 86.3495 64.0751C86.3495 64.2907 86.5069 64.4173 86.7567 64.4173C86.8555 64.4249 86.9533 64.3932 87.0289 64.3291C87.1045 64.2651 87.1518 64.1738 87.1605 64.0751H87.1742Z" fill="#263238"/>
<path d="M88.0878 63.6064V65.2284H87.9201V63.757H87.5369V63.6064H88.0878Z" fill="#263238"/>
<path d="M88.4712 64.4106C88.4712 63.8939 88.7449 63.5859 89.1179 63.5859C89.4909 63.5859 89.7646 63.8939 89.7646 64.4106C89.7646 64.9273 89.4943 65.2353 89.1179 65.2353C88.7415 65.2353 88.4712 64.9273 88.4712 64.4106ZM89.5935 64.4106C89.5935 63.9794 89.4019 63.7262 89.1179 63.7262C88.8339 63.7262 88.6423 63.9658 88.6423 64.4106C88.6423 64.8554 88.8373 65.095 89.1179 65.095C89.3985 65.095 89.5935 64.8417 89.5935 64.4106Z" fill="#263238"/>
<path d="M90.4489 63.6064V65.2284H90.2812V63.757H89.8979V63.6064H90.4489Z" fill="#263238"/>
<path d="M91.8895 63.6064V65.2284H91.7219V63.757H91.3386V63.6064H91.8895Z" fill="#263238"/>
<path d="M92.7211 63.6064V65.2284H92.5568V63.757H92.1736V63.6064H92.7211Z" fill="#263238"/>
<path d="M94.213 65.0709V65.2215H93.077V65.1017L93.7613 64.4413C93.9427 64.2633 93.9803 64.1538 93.9803 64.0443C93.9803 63.8561 93.8469 63.7398 93.6005 63.7398C93.518 63.7345 93.4353 63.7481 93.3588 63.7795C93.2824 63.8109 93.214 63.8594 93.1591 63.9212L93.0393 63.8185C93.1126 63.7404 93.2019 63.6791 93.3012 63.639C93.4004 63.5988 93.5072 63.5807 93.6142 63.5858C93.9564 63.5858 94.1514 63.7535 94.1514 64.0238C94.1461 64.1225 94.1195 64.2189 94.0734 64.3063C94.0274 64.3937 93.9629 64.4701 93.8845 64.5302L93.3199 65.0709H94.213Z" fill="#263238"/>
<path d="M94.8698 63.6064V65.2284H94.6884V63.757H94.3086V63.6064H94.8698Z" fill="#263238"/>
<path d="M67.5843 63.2298V62.9834C67.5843 62.869 67.5388 62.7594 67.458 62.6785C67.3771 62.5977 67.2675 62.5522 67.1531 62.5522H62.7834C62.6691 62.5522 62.5594 62.5977 62.4786 62.6785C62.3977 62.7594 62.3523 62.869 62.3523 62.9834V63.2298H67.5843Z" fill="#263238"/>
<path d="M62.3523 63.5684V65.3819C62.3523 65.4963 62.3977 65.6059 62.4786 65.6868C62.5594 65.7676 62.6691 65.8131 62.7834 65.8131H67.1531C67.2675 65.8131 67.3771 65.7676 67.458 65.6868C67.5388 65.6059 67.5843 65.4963 67.5843 65.3819V63.5684H62.3523Z" fill="#263238"/>
<path d="M62.4172 73.1191C62.4172 72.6024 62.6876 72.2979 63.064 72.2979C63.4404 72.2979 63.7107 72.6024 63.7107 73.1191C63.7107 73.6358 63.4369 73.9438 63.064 73.9438C62.691 73.9438 62.4172 73.6358 62.4172 73.1191ZM63.5396 73.1191C63.5396 72.6879 63.3445 72.4347 63.064 72.4347C62.7834 72.4347 62.5883 72.6743 62.5883 73.1191C62.5883 73.5639 62.7799 73.8035 63.064 73.8035C63.348 73.8035 63.5499 73.5537 63.5499 73.1191H63.5396Z" fill="#263238"/>
<path d="M65.1924 73.4784C65.1924 73.7658 64.9494 73.9437 64.5628 73.9437C64.1761 73.9437 63.94 73.7658 63.94 73.4784C63.9385 73.3865 63.9686 73.2969 64.0253 73.2247C64.082 73.1524 64.1618 73.1018 64.2514 73.0814C64.1788 73.0579 64.1153 73.0123 64.0699 72.9509C64.0245 72.8896 63.9994 72.8156 63.9982 72.7393C63.9982 72.4758 64.2206 72.3115 64.5628 72.3115C64.905 72.3115 65.1342 72.4758 65.1342 72.7393C65.1322 72.8159 65.1064 72.8899 65.0604 72.9512C65.0144 73.0125 64.9506 73.058 64.8776 73.0814C64.9675 73.1017 65.0477 73.1522 65.105 73.2244C65.1622 73.2966 65.1931 73.3862 65.1924 73.4784ZM65.0213 73.4784C65.0213 73.2799 64.8502 73.1567 64.5628 73.1567C64.2753 73.1567 64.1077 73.2799 64.1077 73.4784C64.1077 73.6768 64.2788 73.8205 64.5628 73.8205C64.8468 73.8205 65.0213 73.6768 65.0213 73.4749V73.4784ZM64.5765 73.0198C64.8297 73.0198 64.9802 72.9069 64.9802 72.7324C64.9802 72.5579 64.8194 72.4381 64.5765 72.4381C64.3335 72.4381 64.1761 72.5476 64.1761 72.729C64.1761 72.9103 64.313 73.0198 64.5765 73.0198Z" fill="#263238"/>
<path d="M66.0104 71.9829H66.1609L65.3944 74.1592H65.261L66.0104 71.9829Z" fill="#263238"/>
<path d="M67.3138 73.7794V73.93H66.1778V73.8102L66.8621 73.1532C67.0435 72.9718 67.0777 72.8623 67.0777 72.7528C67.0777 72.5646 66.9477 72.4483 66.7013 72.4483C66.6183 72.443 66.5351 72.4565 66.4581 72.4879C66.381 72.5194 66.3121 72.5678 66.2565 72.6297L66.1401 72.527C66.2131 72.4488 66.3025 72.3876 66.4019 72.348C66.5013 72.3084 66.6082 72.2912 66.715 72.2977C67.0572 72.2977 67.2488 72.462 67.2488 72.7323C67.2453 72.831 67.2199 72.9277 67.1743 73.0153C67.1287 73.1029 67.0641 73.1792 66.9853 73.2387L66.4344 73.7794H67.3138Z" fill="#263238"/>
<path d="M68.6107 73.451C68.6107 73.7282 68.4191 73.9438 68.0221 73.9438C67.8088 73.9501 67.601 73.8755 67.4404 73.735L67.5226 73.6016C67.5886 73.6644 67.6665 73.7134 67.7517 73.7457C67.8369 73.778 67.9277 73.793 68.0187 73.7898C68.2959 73.7898 68.4396 73.6563 68.4396 73.4476C68.4396 73.2389 68.313 73.1054 67.899 73.1054H67.5568L67.6389 72.2944H68.5251V72.4416H67.7826L67.7279 72.9583H67.9366C68.4259 72.9754 68.6107 73.167 68.6107 73.451Z" fill="#263238"/>
<path d="M63.1736 71.2676V71.36H62.4619V70.354H63.1463V70.4498H62.5646V70.792H63.0847V70.8844H62.5646V71.2574L63.1736 71.2676Z" fill="#263238"/>
<path d="M64.0392 71.36L63.7176 70.9152L63.3754 71.36H63.2522L63.6354 70.8433L63.2933 70.354H63.413L63.7176 70.7646L64.0187 70.354H64.1316L63.7894 70.8399L64.1727 71.36H64.0392Z" fill="#263238"/>
<path d="M65.1068 70.6996C65.1068 70.9118 64.9494 71.0418 64.6962 71.0418H64.4259V71.36H64.3198V70.354H64.6962C64.9494 70.354 65.1068 70.484 65.1068 70.6996ZM65.0008 70.6996C65.0008 70.5388 64.8947 70.4464 64.6928 70.4464H64.4259V70.9494H64.6928C64.8947 70.9494 65.0008 70.857 65.0008 70.6996Z" fill="#263238"/>
<path d="M65.7297 70.354H66.1369C66.2703 70.354 66.3983 70.407 66.4926 70.5013C66.5869 70.5957 66.6399 70.7236 66.6399 70.857C66.6399 70.9904 66.5869 71.1184 66.4926 71.2127C66.3983 71.307 66.2703 71.36 66.1369 71.36H65.7297V70.354ZM66.1301 71.2676C66.239 71.2676 66.3434 71.2244 66.4204 71.1474C66.4974 71.0704 66.5407 70.9659 66.5407 70.857C66.5407 70.7481 66.4974 70.6437 66.4204 70.5667C66.3434 70.4897 66.239 70.4464 66.1301 70.4464H65.8358V71.2676H66.1301Z" fill="#263238"/>
<path d="M67.4646 70.8914V71.3602H67.3653V71.2405C67.3376 71.2832 67.2987 71.3176 67.2529 71.3399C67.2071 71.3622 67.156 71.3716 67.1053 71.3671C66.9376 71.3671 66.8315 71.2781 66.8315 71.1481C66.8315 71.018 66.9068 70.9325 67.1224 70.9325H67.3619V70.888C67.3649 70.8599 67.3613 70.8314 67.3516 70.8049C67.3418 70.7783 67.326 70.7544 67.3055 70.7349C67.285 70.7154 67.2603 70.7008 67.2333 70.6924C67.2063 70.6839 67.1777 70.6818 67.1498 70.6861C67.0575 70.6846 66.9676 70.7162 66.8966 70.7751L66.8521 70.6998C66.9395 70.6305 67.0485 70.5942 67.16 70.5972C67.2005 70.5911 67.2419 70.5945 67.2809 70.607C67.3198 70.6195 67.3554 70.6408 67.3849 70.6692C67.4143 70.6977 67.4368 70.7325 67.4506 70.771C67.4645 70.8096 67.4692 70.8508 67.4646 70.8914ZM67.3619 71.131V71.0078H67.1258C66.9787 71.0078 66.9308 71.0659 66.9308 71.1446C66.9308 71.2234 67.0026 71.2849 67.1224 71.2849C67.1731 71.2885 67.2237 71.2759 67.2668 71.2488C67.3098 71.2217 67.3432 71.1817 67.3619 71.1344V71.131Z" fill="#263238"/>
<path d="M68.1385 71.312C68.0949 71.3497 68.0386 71.3692 67.9811 71.3668C67.9514 71.3699 67.9214 71.3664 67.8932 71.3566C67.865 71.3468 67.8394 71.3308 67.8181 71.3099C67.7968 71.2889 67.7805 71.2635 67.7702 71.2355C67.7599 71.2074 67.756 71.1775 67.7587 71.1478V70.6892H67.6252V70.6037H67.7587V70.4497H67.8614V70.614H68.0906V70.6995H67.8614V71.1341C67.8587 71.1521 67.8601 71.1704 67.8656 71.1878C67.8711 71.2052 67.8804 71.221 67.893 71.2342C67.9055 71.2474 67.9209 71.2576 67.9379 71.264C67.955 71.2703 67.9733 71.2727 67.9914 71.2709C68.0322 71.2717 68.0721 71.2584 68.1043 71.2333L68.1385 71.312Z" fill="#263238"/>
<path d="M68.9565 71.0147H68.3405C68.3458 71.0885 68.3801 71.1573 68.4358 71.206C68.4916 71.2548 68.5643 71.2794 68.6382 71.2747C68.682 71.2765 68.7255 71.2686 68.7658 71.2514C68.806 71.2342 68.842 71.2083 68.8709 71.1755L68.9291 71.244C68.8918 71.2844 68.8462 71.3164 68.7954 71.3376C68.7446 71.3589 68.6898 71.3689 68.6348 71.3671C68.583 71.37 68.5311 71.3621 68.4825 71.3438C68.4339 71.3254 68.3896 71.2972 68.3526 71.2608C68.3156 71.2244 68.2865 71.1806 68.2674 71.1324C68.2482 71.0841 68.2393 71.0324 68.2413 70.9805C68.2385 70.9308 68.2459 70.8812 68.2631 70.8345C68.2803 70.7879 68.3068 70.7453 68.3412 70.7094C68.3755 70.6734 68.4169 70.6449 68.4627 70.6256C68.5085 70.6063 68.5577 70.5967 68.6074 70.5972C68.658 70.5933 68.7088 70.6006 68.7562 70.6188C68.8036 70.6369 68.8464 70.6653 68.8814 70.702C68.9165 70.7387 68.9429 70.7827 68.9588 70.8309C68.9748 70.879 68.9798 70.9301 68.9736 70.9805L68.9565 71.0147ZM68.3234 70.936H68.8607C68.8532 70.87 68.8217 70.809 68.7721 70.7648C68.7226 70.7205 68.6585 70.696 68.592 70.696C68.5256 70.696 68.4615 70.7205 68.4119 70.7648C68.3624 70.809 68.3309 70.87 68.3234 70.936Z" fill="#263238"/>
<path d="M81.5282 72.3115V73.93H81.364V72.4587H80.9807V72.3115H81.5282Z" fill="#263238"/>
<path d="M83.0201 73.7792V73.9298H81.8841V73.81L82.5684 73.153C82.7498 72.9717 82.7874 72.8622 82.7874 72.7527C82.7874 72.5645 82.654 72.4481 82.4076 72.4481C82.3251 72.4428 82.2424 72.4564 82.166 72.4878C82.0895 72.5193 82.0212 72.5677 81.9662 72.6295L81.8464 72.5268C81.9197 72.449 82.0091 72.3881 82.1085 72.3485C82.2078 72.3089 82.3146 72.2915 82.4213 72.2976C82.7635 72.2976 82.9585 72.4618 82.9585 72.7321C82.9532 72.8308 82.9266 72.9272 82.8806 73.0146C82.8345 73.102 82.77 73.1784 82.6916 73.2386L82.1407 73.7792H83.0201Z" fill="#263238"/>
<path d="M84.2999 73.4647C84.2999 73.735 84.1014 73.9437 83.7114 73.9437C83.498 73.9504 83.2901 73.8758 83.1296 73.735L83.2118 73.6016C83.2782 73.6648 83.3566 73.714 83.4424 73.7464C83.5283 73.7787 83.6197 73.7935 83.7114 73.7897C83.9817 73.7897 84.1288 73.6666 84.1288 73.4647C84.1288 73.2628 83.9919 73.143 83.6908 73.143H83.5745V73.0198L84.0227 72.4587H83.1947V72.3115H84.2212V72.4279L83.7627 73.0027C84.1254 73.0233 84.2999 73.2046 84.2999 73.4647Z" fill="#263238"/>
<path d="M81.0355 70.857C81.0345 70.7881 81.0475 70.7198 81.0738 70.6562C81.1001 70.5925 81.1392 70.5349 81.1885 70.4869C81.2378 70.4389 81.2964 70.4014 81.3607 70.3768C81.425 70.3521 81.4936 70.3409 81.5624 70.3437C81.6303 70.3414 81.6979 70.3534 81.761 70.3787C81.824 70.404 81.8811 70.4422 81.9285 70.4908L81.8635 70.5593C81.8246 70.5202 81.7782 70.4894 81.727 70.4688C81.6758 70.4482 81.621 70.4382 81.5658 70.4395C81.5081 70.4342 81.4498 70.4411 81.3949 70.4596C81.3399 70.4781 81.2894 70.5079 81.2465 70.547C81.2037 70.5861 81.1695 70.6337 81.1461 70.6868C81.1227 70.7399 81.1106 70.7972 81.1106 70.8552C81.1106 70.9132 81.1227 70.9706 81.1461 71.0237C81.1695 71.0768 81.2037 71.1244 81.2465 71.1635C81.2894 71.2026 81.3399 71.2324 81.3949 71.2509C81.4498 71.2694 81.5081 71.2762 81.5658 71.271C81.6211 71.2731 81.6761 71.2635 81.7274 71.2428C81.7787 71.2222 81.8251 71.191 81.8635 71.1512L81.9285 71.2197C81.8811 71.2692 81.8235 71.308 81.7598 71.3334C81.696 71.3588 81.6275 71.3702 81.559 71.3668C81.4906 71.3696 81.4224 71.3584 81.3586 71.334C81.2947 71.3095 81.2365 71.2723 81.1875 71.2246C81.1385 71.1769 81.0997 71.1196 81.0736 71.0564C81.0474 70.9932 81.0345 70.9253 81.0355 70.857Z" fill="#263238"/>
<path d="M83.5266 70.354L83.1844 71.36H83.0715L82.7772 70.5011L82.4829 71.36H82.37L82.0278 70.354H82.1373L82.4282 71.2197L82.7293 70.354H82.8285L83.1228 71.2231L83.4171 70.354H83.5266Z" fill="#263238"/>
<path d="M72.5529 82.6249H71.6496L71.4545 83.0594H71.2766L72.0157 81.4409H72.1868L72.9259 83.0594H72.7446L72.5529 82.6249ZM72.4879 82.488L72.1047 81.6189L71.7146 82.488H72.4879Z" fill="#263238"/>
<path d="M73.025 82.4503C73.0221 82.3676 73.0364 82.2852 73.0669 82.2083C73.0974 82.1314 73.1435 82.0616 73.2024 82.0034C73.2612 81.9452 73.3315 81.8999 73.4087 81.8702C73.486 81.8405 73.5686 81.8272 73.6512 81.831C73.745 81.8254 73.8385 81.845 73.9221 81.8877C74.0057 81.9305 74.0764 81.9947 74.1269 82.0739L74.0071 82.1561C73.9687 82.1007 73.9176 82.0553 73.8581 82.0237C73.7986 81.9921 73.7323 81.9753 73.6649 81.9747C73.5388 81.9747 73.4178 82.0248 73.3286 82.114C73.2394 82.2032 73.1893 82.3242 73.1893 82.4503C73.1893 82.5765 73.2394 82.6975 73.3286 82.7867C73.4178 82.8759 73.5388 82.926 73.6649 82.926C73.7319 82.9255 73.7979 82.9091 73.8574 82.8781C73.9169 82.8472 73.9682 82.8026 74.0071 82.748L74.1269 82.8302C74.0755 82.9082 74.0045 82.9715 73.921 83.0135C73.8376 83.0555 73.7445 83.0749 73.6512 83.0697C73.5686 83.0735 73.486 83.0602 73.4087 83.0305C73.3315 83.0008 73.2612 82.9555 73.2024 82.8973C73.1435 82.8391 73.0974 82.7693 73.0669 82.6924C73.0364 82.6155 73.0221 82.5331 73.025 82.4503Z" fill="#263238"/>
<path d="M75.102 82.984C75.0298 83.0431 74.9385 83.0735 74.8454 83.0696C74.7996 83.0726 74.7538 83.0658 74.7109 83.0497C74.668 83.0335 74.6291 83.0084 74.5967 82.976C74.5643 82.9436 74.5392 82.9047 74.5231 82.8618C74.5069 82.8189 74.5001 82.7731 74.5032 82.7274V81.9814H74.2876V81.8411H74.4997V81.5742H74.664V81.8411H75.037V81.9814H74.664V82.7068C74.6597 82.7362 74.6621 82.7661 74.6711 82.7943C74.6801 82.8225 74.6954 82.8483 74.7158 82.8698C74.7363 82.8912 74.7614 82.9077 74.7891 82.918C74.8169 82.9283 74.8467 82.9322 74.8762 82.9293C74.9419 82.9303 75.006 82.9086 75.0575 82.8677L75.102 82.984Z" fill="#263238"/>
<path d="M75.3655 81.4581C75.3655 81.4264 75.3781 81.3959 75.4006 81.3735C75.423 81.351 75.4535 81.3384 75.4852 81.3384C75.517 81.3384 75.5475 81.351 75.5699 81.3735C75.5924 81.3959 75.605 81.4264 75.605 81.4581C75.605 81.4899 75.5924 81.5204 75.5699 81.5428C75.5475 81.5653 75.517 81.5779 75.4852 81.5779C75.4535 81.5779 75.423 81.5653 75.4006 81.5428C75.3781 81.5204 75.3655 81.4899 75.3655 81.4581ZM75.4031 81.8414H75.5674V83.0596H75.4031V81.8414Z" fill="#263238"/>
<path d="M75.8994 82.4504C75.8994 82.3281 75.9357 82.2084 76.0036 82.1067C76.0715 82.0049 76.168 81.9255 76.281 81.8785C76.3939 81.8315 76.5183 81.8191 76.6383 81.8427C76.7584 81.8663 76.8688 81.925 76.9555 82.0113C77.0423 82.0975 77.1015 82.2076 77.1258 82.3275C77.1501 82.4474 77.1383 82.5718 77.092 82.6851C77.0456 82.7983 76.9668 82.8952 76.8653 82.9637C76.7639 83.0322 76.6445 83.0691 76.5222 83.0698C76.4399 83.0726 76.358 83.0585 76.2814 83.0285C76.2047 82.9984 76.1351 82.9529 76.0767 82.8949C76.0184 82.8368 75.9725 82.7675 75.942 82.691C75.9115 82.6146 75.897 82.5327 75.8994 82.4504ZM76.9705 82.4504C76.9658 82.3621 76.9353 82.2771 76.8827 82.206C76.8302 82.1348 76.7579 82.0807 76.6749 82.0503C76.5918 82.0198 76.5017 82.0144 76.4156 82.0348C76.3296 82.0551 76.2514 82.1002 76.1907 82.1646C76.1301 82.2289 76.0896 82.3097 76.0744 82.3968C76.0593 82.4839 76.07 82.5736 76.1053 82.6546C76.1406 82.7357 76.1989 82.8047 76.273 82.8529C76.3471 82.9012 76.4338 82.9266 76.5222 82.926C76.5836 82.9266 76.6444 82.9146 76.7009 82.8905C76.7574 82.8665 76.8083 82.831 76.8504 82.7863C76.8925 82.7416 76.9249 82.6887 76.9456 82.6309C76.9662 82.5731 76.9747 82.5116 76.9705 82.4504Z" fill="#263238"/>
<path d="M78.606 82.3542V83.0591H78.4418V82.3748C78.4485 82.3242 78.4439 82.2727 78.4282 82.2241C78.4126 82.1755 78.3862 82.131 78.3511 82.0939C78.316 82.0569 78.273 82.0281 78.2253 82.0098C78.1777 81.9915 78.1265 81.9841 78.0756 81.9881C78.0176 81.9838 77.9593 81.9922 77.9049 82.0129C77.8506 82.0336 77.8014 82.0659 77.7609 82.1077C77.7204 82.1495 77.6896 82.1997 77.6707 82.2547C77.6517 82.3097 77.6451 82.3682 77.6513 82.4261V83.066H77.4871V81.8478H77.6445V82.0839C77.6938 82.0073 77.7625 81.9451 77.8437 81.9037C77.9248 81.8622 78.0154 81.8429 78.1064 81.8478C78.1738 81.8431 78.2414 81.8531 78.3046 81.877C78.3678 81.9009 78.4251 81.9382 78.4725 81.9862C78.52 82.0343 78.5565 82.0921 78.5795 82.1556C78.6025 82.2192 78.6116 82.2869 78.606 82.3542Z" fill="#263238"/>
<path d="M79.8515 81.5881V82.2245H80.6864V82.3717H79.8515V83.056H79.6804V81.4375H80.7891V81.5846L79.8515 81.5881Z" fill="#263238"/>
<path d="M81.0491 81.4581C81.0491 81.4264 81.0617 81.3959 81.0841 81.3735C81.1066 81.351 81.1371 81.3384 81.1688 81.3384C81.2006 81.3384 81.2311 81.351 81.2535 81.3735C81.276 81.3959 81.2886 81.4264 81.2886 81.4581C81.2886 81.4899 81.276 81.5204 81.2535 81.5428C81.2311 81.5653 81.2006 81.5779 81.1688 81.5779C81.1371 81.5779 81.1066 81.5653 81.0841 81.5428C81.0617 81.5204 81.0491 81.4899 81.0491 81.4581ZM81.0833 81.8414H81.2475V83.0596H81.0833V81.8414Z" fill="#263238"/>
<path d="M82.832 81.8411V82.9121C82.8448 82.9946 82.838 83.0789 82.8121 83.1583C82.7862 83.2376 82.742 83.3097 82.683 83.3687C82.6239 83.4278 82.5518 83.472 82.4725 83.4979C82.3932 83.5238 82.3088 83.5306 82.2263 83.5178C82.0209 83.5267 81.8192 83.4611 81.6583 83.333L81.7404 83.2064C81.875 83.3176 82.0449 83.3771 82.2195 83.3741C82.5275 83.3741 82.6678 83.2304 82.6678 82.9327V82.7684C82.616 82.8451 82.5454 82.9071 82.4626 82.9485C82.3799 82.9898 82.2879 83.0091 82.1955 83.0045C82.1142 83.0107 82.0325 83 81.9556 82.9732C81.8786 82.9463 81.808 82.9039 81.7482 82.8484C81.6884 82.793 81.6407 82.7259 81.6081 82.6511C81.5754 82.5764 81.5586 82.4958 81.5586 82.4142C81.5586 82.3327 81.5754 82.2521 81.6081 82.1774C81.6407 82.1026 81.6884 82.0355 81.7482 81.98C81.808 81.9246 81.8786 81.8822 81.9556 81.8553C82.0325 81.8284 82.1142 81.8178 82.1955 81.824C82.2895 81.8202 82.3828 81.8406 82.4667 81.8831C82.5505 81.9256 82.6221 81.9889 82.6746 82.0669V81.8342L82.832 81.8411ZM82.6746 82.4194C82.6773 82.3275 82.6526 82.2369 82.6035 82.1591C82.5544 82.0814 82.4832 82.02 82.3991 81.983C82.315 81.9459 82.2217 81.9348 82.1312 81.951C82.0407 81.9673 81.9571 82.0101 81.8912 82.0742C81.8252 82.1382 81.7798 82.2204 81.7608 82.3104C81.7419 82.4004 81.7502 82.494 81.7847 82.5792C81.8192 82.6644 81.8784 82.7373 81.9546 82.7887C82.0309 82.8401 82.1207 82.8676 82.2127 82.8676C82.2726 82.8714 82.3326 82.8628 82.389 82.8422C82.4454 82.8216 82.4969 82.7896 82.5403 82.7481C82.5837 82.7067 82.6181 82.6566 82.6412 82.6012C82.6643 82.5458 82.6757 82.4862 82.6746 82.4262V82.4194Z" fill="#263238"/>
<path d="M84.3888 81.8413V83.0595H84.2314V82.8371C84.186 82.9116 84.1214 82.9726 84.0443 83.0135C83.9672 83.0544 83.8806 83.0739 83.7934 83.0698C83.7235 83.0763 83.653 83.0672 83.587 83.043C83.521 83.0189 83.4613 82.9803 83.4121 82.9302C83.3629 82.88 83.3256 82.8195 83.3027 82.7531C83.2799 82.6867 83.2722 82.616 83.2801 82.5462V81.8413H83.4444V82.5257C83.437 82.5766 83.4412 82.6284 83.4566 82.6774C83.4721 82.7265 83.4984 82.7714 83.5335 82.8089C83.5687 82.8463 83.6119 82.8754 83.6598 82.8939C83.7078 82.9124 83.7593 82.9199 83.8105 82.9158C83.868 82.9186 83.9255 82.9089 83.9788 82.8874C84.0322 82.8658 84.0803 82.8329 84.1197 82.7909C84.1591 82.7489 84.1888 82.6988 84.207 82.6442C84.2251 82.5895 84.2311 82.5316 84.2246 82.4744V81.8345L84.3888 81.8413Z" fill="#263238"/>
<path d="M85.4497 81.8309V81.9918H85.4086C85.3504 81.9892 85.2923 81.9994 85.2385 82.0218C85.1848 82.0442 85.1366 82.0782 85.0974 82.1213C85.0582 82.1644 85.029 82.2156 85.0118 82.2713C84.9946 82.327 84.9899 82.3857 84.998 82.4434V83.0628H84.8337V81.8446H84.9911V82.0841C85.0337 82.0011 85.1001 81.9326 85.1817 81.8875C85.2634 81.8424 85.3567 81.8227 85.4497 81.8309Z" fill="#263238"/>
<path d="M86.8183 82.5014H85.7918C85.7953 82.5607 85.8104 82.6188 85.8364 82.6723C85.8624 82.7257 85.8987 82.7736 85.9432 82.813C85.9877 82.8524 86.0395 82.8827 86.0958 82.902C86.152 82.9213 86.2115 82.9294 86.2708 82.9257C86.3409 82.9276 86.4106 82.9142 86.4751 82.8864C86.5395 82.8586 86.5971 82.8171 86.6438 82.7648L86.7362 82.8709C86.6489 82.9626 86.5364 83.0264 86.4129 83.0545C86.2895 83.0826 86.1605 83.0736 86.0421 83.0286C85.9237 82.9837 85.8213 82.9048 85.7475 82.8019C85.6738 82.699 85.632 82.5766 85.6275 82.45C85.6233 82.3696 85.6356 82.2892 85.6637 82.2137C85.6919 82.1383 85.7352 82.0694 85.791 82.0113C85.8468 81.9532 85.9139 81.9073 85.9882 81.8762C86.0625 81.8451 86.1424 81.8296 86.2229 81.8307C86.3033 81.8291 86.3831 81.8442 86.4573 81.8752C86.5315 81.9061 86.5985 81.9522 86.6539 82.0105C86.7092 82.0688 86.7519 82.138 86.779 82.2136C86.8061 82.2893 86.8172 82.3698 86.8115 82.45C86.8115 82.45 86.8183 82.4808 86.8183 82.5014ZM85.7918 82.3782H86.6541C86.6541 82.2638 86.6086 82.1542 86.5278 82.0733C86.4469 81.9925 86.3373 81.947 86.2229 81.947C86.1086 81.947 85.9989 81.9925 85.9181 82.0733C85.8372 82.1542 85.7918 82.2638 85.7918 82.3782Z" fill="#263238"/>
<path d="M73.2781 89.5504V90.2621H72.6451V89.5777C72.0796 89.5602 71.5304 89.3835 71.0608 89.0679L71.403 88.2945C71.7685 88.5498 72.1942 88.7055 72.6382 88.7462V87.6855C71.9299 87.5109 71.1429 87.2783 71.1429 86.3681C71.1429 85.6837 71.6322 85.1157 72.6382 84.9993V84.2944H73.2713V84.9788C73.7262 85.0046 74.1683 85.1383 74.5613 85.3689L74.2431 86.1491C73.9449 85.972 73.6146 85.8557 73.2713 85.8069V86.8882C73.9762 87.0524 74.7529 87.2885 74.7529 88.185C74.7598 88.8591 74.2773 89.4306 73.2781 89.5504ZM72.6451 86.7445V85.8479C72.3029 85.9232 72.1729 86.108 72.1729 86.3167C72.1729 86.5255 72.3645 86.6555 72.6451 86.7445ZM73.7367 88.274C73.7367 88.0516 73.5519 87.9318 73.2781 87.836V88.712C73.5964 88.6436 73.7367 88.4793 73.7367 88.274Z" fill="#263238"/>
<path d="M78.5067 88.6607V89.5025H75.1465V88.8352L76.8574 87.2133C77.2543 86.8369 77.3228 86.6111 77.3228 86.3921C77.3228 86.0499 77.0798 85.8411 76.611 85.8411C76.4329 85.8342 76.2558 85.8712 76.0953 85.9487C75.9348 86.0263 75.7958 86.1421 75.6905 86.286L74.9412 85.8035C75.1437 85.5299 75.4112 85.311 75.7194 85.1664C76.0276 85.0219 76.3669 84.9563 76.7068 84.9754C77.6991 84.9754 78.3596 85.4853 78.3596 86.2928C78.3596 86.724 78.2364 87.1175 77.6136 87.6958L76.5871 88.6607H78.5067Z" fill="#263238"/>
<path d="M78.9209 87.2785C78.9209 85.8105 79.7353 84.9756 80.8269 84.9756C81.9184 84.9756 82.7328 85.8105 82.7328 87.2785C82.7328 88.7464 81.9253 89.5779 80.8269 89.5779C79.7285 89.5779 78.9209 88.7464 78.9209 87.2785ZM81.6994 87.2785C81.6994 86.2519 81.3572 85.8481 80.8269 85.8481C80.2965 85.8481 79.9646 86.2656 79.9646 87.2785C79.9646 88.2913 80.3067 88.7054 80.8269 88.7054C81.347 88.7054 81.6857 88.2879 81.6857 87.2785H81.6994Z" fill="#263238"/>
<path d="M83.2358 87.2785C83.2358 85.8105 84.0502 84.9756 85.1418 84.9756C86.2334 84.9756 87.0478 85.8105 87.0478 87.2785C87.0478 88.7464 86.2402 89.5779 85.1418 89.5779C84.0434 89.5779 83.2358 88.7464 83.2358 87.2785ZM86.0109 87.2785C86.0109 86.2519 85.6688 85.8481 85.1418 85.8481C84.6148 85.8481 84.2761 86.2656 84.2761 87.2785C84.2761 88.2913 84.6183 88.7054 85.1418 88.7054C85.6653 88.7054 86.0109 88.2879 86.0109 87.2785Z" fill="#263238"/>
<path d="M86.1852 100.829H71.9984C71.1183 100.828 70.2746 100.478 69.6524 99.8556C69.0301 99.2333 68.6801 98.3896 68.6792 97.5096C68.6792 96.629 69.0288 95.7844 69.6512 95.1614C70.2735 94.5384 71.1178 94.1879 71.9984 94.187H86.1852C86.6214 94.187 87.0533 94.273 87.4562 94.44C87.8591 94.607 88.2252 94.8518 88.5334 95.1604C88.8417 95.469 89.0861 95.8353 89.2527 96.2384C89.4193 96.6415 89.5048 97.0734 89.5044 97.5096C89.5044 98.3899 89.1547 99.2341 88.5322 99.8566C87.9098 100.479 87.0655 100.829 86.1852 100.829Z" fill="#263238"/>
<path d="M74.5408 97.1399C74.5408 97.5574 74.2397 97.8072 73.7435 97.8072H73.2165V98.4231H73.0112V96.4727H73.7435C74.2397 96.4863 74.5408 96.7361 74.5408 97.1399ZM74.3321 97.1399C74.3321 96.8285 74.1267 96.6506 73.7367 96.6506H73.2165V97.6258H73.7367C74.1267 97.6395 74.3321 97.4616 74.3321 97.1399Z" fill="white"/>
<path d="M76.0363 97.5265V98.4367H75.8481V98.2075C75.793 98.2894 75.717 98.3551 75.6279 98.3978C75.5389 98.4405 75.4401 98.4587 75.3417 98.4504C74.9995 98.4504 74.8079 98.2793 74.8079 98.0227C74.8079 97.766 74.9516 97.6086 75.3725 97.6086H75.8378V97.5197C75.8378 97.2699 75.6975 97.133 75.4238 97.133C75.2456 97.1303 75.0722 97.1909 74.9345 97.3041L74.8455 97.157C75.0158 97.0229 75.2277 96.9526 75.4443 96.9585C75.5226 96.9472 75.6025 96.9538 75.6778 96.978C75.7531 97.0022 75.8219 97.0432 75.879 97.098C75.9361 97.1527 75.9799 97.2198 76.0072 97.2941C76.0344 97.3683 76.0444 97.4478 76.0363 97.5265ZM75.8378 97.9953V97.7558H75.3793C75.0953 97.7558 75.0029 97.8687 75.0029 98.0193C75.0029 98.1698 75.1398 98.2964 75.3725 98.2964C75.4721 98.3028 75.5711 98.2769 75.6549 98.2227C75.7387 98.1685 75.8028 98.0888 75.8378 97.9953Z" fill="white"/>
<path d="M77.7779 96.9692L77.0456 98.6117C76.9224 98.8991 76.7685 98.9915 76.5597 98.9915C76.4297 98.9913 76.3047 98.9411 76.2107 98.8512L76.3031 98.7041C76.3375 98.7401 76.379 98.7687 76.4249 98.7881C76.4708 98.8075 76.5202 98.8174 76.57 98.817C76.7034 98.817 76.7924 98.7554 76.8745 98.5707L76.9395 98.4269L76.2826 96.9624H76.4913L77.0422 98.2114L77.5794 96.9692H77.7779Z" fill="white"/>
<path d="M79.4511 98.4508V98.7725H79.3108V98.4543C79.0653 98.4524 78.8285 98.3625 78.6436 98.201L78.7257 98.0402C78.8874 98.1844 79.0943 98.2679 79.3108 98.2763V97.544C79.0028 97.4688 78.6915 97.373 78.6915 97.0034C78.6915 96.7365 78.8831 96.5038 79.3108 96.473V96.1514H79.4511V96.4559C79.6516 96.4593 79.8471 96.5186 80.0157 96.627L79.9473 96.7913C79.7976 96.6977 79.6272 96.6425 79.4511 96.6304V97.3695C79.7659 97.4448 80.0978 97.5338 80.0978 97.9068C80.0978 98.1908 79.8925 98.4269 79.4511 98.4508ZM79.3108 97.349V96.6646C79.0234 96.6886 78.8933 96.8357 78.8933 97.0068C78.8933 97.1779 79.0815 97.2874 79.3108 97.349ZM79.8925 97.9341C79.8925 97.7117 79.6906 97.6364 79.4511 97.592V98.2763C79.7556 98.2524 79.8925 98.1121 79.8925 97.9341Z" fill="white"/>
<path d="M81.7062 98.2592V98.4372H80.3375V98.2969L81.1484 97.4996C81.3674 97.284 81.4085 97.1574 81.4085 97.0171C81.4085 96.7913 81.2511 96.6544 80.9534 96.6544C80.8541 96.6494 80.7549 96.6661 80.6627 96.7033C80.5705 96.7406 80.4876 96.7974 80.4196 96.87L80.2759 96.7468C80.3633 96.6541 80.4697 96.5814 80.5878 96.5336C80.7059 96.4857 80.833 96.4639 80.9602 96.4696C81.3538 96.4696 81.607 96.6715 81.607 96.9966C81.602 97.1157 81.5706 97.2321 81.515 97.3375C81.4593 97.4429 81.3809 97.5345 81.2853 97.6057L80.6215 98.2592H81.7062Z" fill="white"/>
<path d="M81.9458 97.4616C81.9458 96.8388 82.2709 96.4692 82.7225 96.4692C83.1742 96.4692 83.5027 96.8388 83.5027 97.4616C83.5027 98.0843 83.1605 98.4539 82.7225 98.4539C82.2846 98.4539 81.9458 98.0843 81.9458 97.4616ZM83.2974 97.4616C83.2974 96.9414 83.0647 96.654 82.7225 96.654C82.3804 96.654 82.1477 96.9414 82.1477 97.4616C82.1477 97.9817 82.3838 98.2691 82.7225 98.2691C83.0613 98.2691 83.2974 97.9817 83.2974 97.4616Z" fill="white"/>
<path d="M83.79 97.4616C83.79 96.8388 84.1322 96.4692 84.5702 96.4692C85.0082 96.4692 85.3504 96.8388 85.3504 97.4616C85.3504 98.0843 85.0082 98.4539 84.5702 98.4539C84.1322 98.4539 83.79 98.0843 83.79 97.4616ZM85.1588 97.4616C85.1588 96.9414 84.9261 96.654 84.5873 96.654C84.2486 96.654 84.0125 96.9414 84.0125 97.4616C84.0125 97.9817 84.2451 98.2691 84.5873 98.2691C84.9295 98.2691 85.1417 97.9817 85.1417 97.4616H85.1588Z" fill="white"/>
<path d="M57.6268 90.3785C58.1401 98.2658 54.4856 107.05 54.4856 107.05L34.7451 101.493L31.3027 100.521C34.7246 95.7679 36.3533 86.4058 35.4602 78.8299C35.3918 78.2584 35.3507 77.7212 35.3199 77.208C34.9778 70.9597 37.5749 69.1325 39.7683 66.3711C42.1636 63.3804 47.4948 52.0884 47.4948 49.4159C47.4948 46.7435 54.1844 40.201 52.6959 32.7756C52.6959 32.7756 54.7182 31.5198 56.7508 32.5498C57.6747 33.0152 58.5952 33.9493 59.3377 35.6808C61.0794 39.7493 58.6328 51.25 56.5523 54.0696L52.5454 70.6586C52.5454 70.6586 53.897 72.9888 55.2247 77.2182C56.5444 81.4942 57.3508 85.912 57.6268 90.3785Z" fill="white"/>
<path opacity="0.4" d="M35.3199 77.208C36.4389 80.2705 37.6262 82.3407 37.5236 86.6317C37.4209 90.9227 35.1283 97.5268 35.7819 100.959C35.4085 101.069 35.0599 101.25 34.7553 101.493L31.313 100.521C34.7348 95.768 36.3636 86.4059 35.4705 78.8299C35.3918 78.2585 35.3507 77.7213 35.3199 77.208Z" fill="#92E3A9"/>
<path opacity="0.4" d="M56.5523 54.0696L52.5454 70.6586C52.5454 70.6586 53.897 72.9889 55.2246 77.2182C52.5111 72.8451 50.2048 71.538 50.2048 71.538C52.0116 69.372 53.4042 53.529 53.4042 53.529C53.4042 53.529 59.0673 46.8735 58.537 39.9101C58.3668 37.3726 57.7626 34.8831 56.7508 32.5498C57.6747 33.0152 58.5951 33.9493 59.3377 35.6808C61.0794 39.7493 58.6328 51.25 56.5523 54.0696Z" fill="#92E3A9"/>
<path d="M31.3027 100.521C34.7246 95.7679 36.3533 86.4058 35.4637 78.8299C34.574 71.254 37.3936 69.3583 39.7717 66.3677C42.1499 63.377 47.4948 52.0884 47.4948 49.4126C47.4948 46.7367 54.181 40.2044 52.6959 32.7757C52.6959 32.7757 56.963 30.1306 59.3377 35.6808C61.0794 39.7528 58.6328 51.2501 56.5523 54.0731L52.5488 70.6586C52.5488 70.6586 56.8227 78.0326 57.6268 90.3786C58.1401 98.2659 54.4856 107.053 54.4856 107.053" stroke="#263238" stroke-linecap="round" stroke-linejoin="round"/>
<path d="M44.4973 113.363C44.4973 113.363 48.9902 116.128 51.6113 120.501" stroke="#263238" stroke-linecap="round" stroke-linejoin="round"/>
<path d="M57.1169 118.595C57.1169 118.595 53.2468 119.146 49.7497 114.961C47.5084 112.282 40.7024 111.07 39.1421 104.062" stroke="#263238" stroke-linecap="round" stroke-linejoin="round"/>
<path opacity="0.2" d="M113.365 139.318C103.459 134.578 109.457 130.78 95.828 124.898C82.1989 119.016 82.0621 113.989 83.7045 102.43C85.347 90.8715 84.0467 78.5769 88.0092 77.5333C91.9717 76.4896 84.909 60.5474 89.5285 54.9116L112.263 99.1352L113.365 139.318Z" fill="black" fill-opacity="0.7"/>
<path d="M150.276 138.856C149.811 137.524 149.338 136.07 148.972 134.749C148.5 133.038 148.13 131.67 147.261 130.079C147.124 129.825 146.977 129.558 146.813 129.271C145.886 127.618 144.616 125.356 143.874 122.578C143.374 120.706 143.874 116.097 144.339 111.628C144.681 108.418 144.993 105.39 144.9 103.672L144.873 103.063C144.64 98.5704 144.154 89.222 143.162 86.6386C142.187 84.1475 141.277 83.7745 139.617 83.1107C139.446 83.0354 139.275 82.9669 139.076 82.8848C138.454 82.6248 137.393 82.0773 136.171 81.4442C133.417 80.0173 129.988 78.2414 128.246 78.0224C126.617 77.8393 124.969 77.9155 123.363 78.2483C121.218 76.6024 117.567 74.4843 116.479 74.4398C115.589 74.3953 113.645 74.953 112.715 75.2439L112.246 75.3945C111.656 74.9373 111.032 74.5277 110.378 74.1694C110.333 74.1455 110.289 74.1284 110.251 74.1113C109.043 73.6151 107.219 73.598 106.223 73.6254C105.922 73.6254 105.686 73.6562 105.58 73.6664C103.702 70.775 101.854 67.8973 101.05 66.6346C99.3729 63.9793 94.182 53.0534 94.1307 52.9473C94.1247 52.9333 94.1153 52.9209 94.1034 52.9113C94.0915 52.9018 94.0773 52.8953 94.0623 52.8926C94.0464 52.8904 94.0303 52.8904 94.0144 52.8926C93.6106 52.7762 90.637 52.02 89.4428 54.9012C88.1357 58.039 90.0006 64.9271 91.821 67.4285C92.697 68.6329 95.0888 73.5467 97.5149 78.6315C96.8921 79.2098 91.9099 83.8121 89.4907 84.671C87.5095 85.3725 87.9749 95.5284 88.3478 103.683C88.4881 106.694 88.6045 109.284 88.5702 110.841C88.5018 113.852 93.9801 118 99.2908 122.01C104.081 125.644 109.05 129.398 109.632 132.125C109.792 132.891 110.251 133.514 110.798 134.216C111.712 135.379 112.889 136.751 113.389 139.348C113.536 140.128 114.788 141.148 115.784 142.815H151.727C151.426 142.004 150.858 140.525 150.276 138.856ZM100.43 84.7566C102.172 88.4042 103.25 90.5736 103.51 90.8166C103.77 91.0595 103.753 92.2161 103.746 93.3419C103.708 94.3274 103.743 95.3144 103.849 96.2949C103.424 96.6679 100.745 99.1077 100.204 101.085L97.9289 98.4062L97.3541 89.9988C97.6962 89.6361 100.037 87.1621 100.43 84.7566Z" fill="white"/>
<path opacity="0.4" d="M139.963 108.196C140.808 116.083 140.818 120.36 141.766 122.643C143.367 126.496 145.725 127.276 145.725 127.276C144.941 125.782 144.318 124.21 143.867 122.585C143.371 120.713 143.867 116.104 144.332 111.635C144.674 108.425 144.989 105.393 144.9 103.676L144.869 103.066C144.637 98.577 144.151 89.2286 143.159 86.6417C142.187 84.1506 141.273 83.7777 139.614 83.1104C139.442 83.0385 139.271 82.9701 139.073 82.888C138.45 82.6279 137.393 82.0804 136.168 81.4474C133.413 80.0205 129.985 78.2446 128.243 78.0256C126.614 77.8404 124.965 77.9166 123.36 78.2514C121.214 76.6055 117.563 74.4874 116.475 74.4429C115.586 74.3985 113.173 75.0999 112.236 75.3976C116.342 78.7476 122.255 82.9256 122.255 82.9256C126.932 83.8564 126.333 85.8855 128.226 87.0318C129.937 88.0584 131.572 85.054 133.016 84.7905C134.905 84.4483 137.051 86.4398 136.955 88.8556C136.661 95.5111 139.237 101.424 139.963 108.196Z" fill="#92E3A9"/>
<path opacity="0.4" d="M116.318 83.754C116.318 83.754 112.612 80.6743 110.843 79.6478C109.074 78.6212 108.79 75.0831 110.186 74.2242C110.239 74.1924 110.299 74.1736 110.36 74.1695L110.234 74.1113C109.026 73.6151 107.202 73.5946 106.206 73.6254C108.259 77.4476 109.898 80.3801 110.34 81.0234C111.828 83.1723 116.318 83.754 116.318 83.754Z" fill="#92E3A9"/>
<path opacity="0.4" d="M110.696 131.646C110.853 130.828 109.505 128.433 108.913 127.461C107.568 125.244 91.9544 111.447 94.2163 107.765C96.4781 104.083 98.5449 106.807 99.9752 107.046C101.002 107.217 103.821 105.537 103.808 105.397C103.486 102.56 106.104 100.716 106.104 100.716C106.104 100.716 105.864 89.4239 105.262 89.6156C104.66 89.8072 97.4533 72.6605 97.4533 72.6605C97.4533 72.6605 89.8363 62.5319 90.2675 57.8063C90.6986 53.0808 94.0041 52.9987 94.0041 52.9987V52.8721C93.6003 52.7557 90.6268 51.9995 89.4326 54.8807C88.1254 58.0185 89.9903 64.9066 91.8107 67.408C92.6867 68.6124 95.0786 73.5262 97.5046 78.611C96.8819 79.1893 91.8997 83.7916 89.4805 84.6505C87.4992 85.352 87.9646 95.5079 88.3376 103.662C88.4779 106.673 88.5942 109.264 88.56 110.821C88.4916 113.832 93.9699 117.979 99.2806 121.989C104.071 125.623 109.04 129.377 109.621 132.104C109.782 132.871 110.241 133.494 110.788 134.195C110.679 133.35 110.648 132.497 110.696 131.646ZM100.43 84.7668C102.172 88.4145 103.25 90.5839 103.51 90.8269C103.77 91.0698 103.753 92.2264 103.746 93.3522C103.708 94.3377 103.743 95.3247 103.849 96.3052C103.424 96.6782 100.745 99.1179 100.204 101.096L97.9289 98.4165L97.3541 90.0091C97.6963 89.6361 100.037 87.1621 100.43 84.7566V84.7668Z" fill="#92E3A9"/>
<path d="M114.193 83.7095C112.664 83.2283 111.32 82.2866 110.347 81.0131C108.783 78.9189 102.641 69.3789 100.94 66.6894C99.2394 63.9998 94.004 52.9987 94.004 52.9987C94.004 52.9987 90.7875 51.9208 89.5351 54.9252C88.2828 57.9295 89.9971 64.7184 91.903 67.3327C93.809 69.9469 102.867 90.0775 103.585 90.7276C104.304 91.3778 103.226 96.75 104.666 98.0503" stroke="#263238" stroke-linecap="round" stroke-linejoin="round"/>
<path d="M103.975 96.3426C103.975 96.3426 100.656 99.2341 100.266 101.345L97.8024 98.447L97.2207 89.9541C97.2207 89.9541 100.194 86.9771 100.359 84.3286" stroke="#263238" stroke-linecap="round" stroke-linejoin="round"/>
<path d="M97.6414 78.6211C97.6414 78.6211 92.1289 83.8223 89.5078 84.7496C86.8867 85.6769 88.7995 105.164 88.6694 110.807C88.5394 116.449 108.499 126.28 109.724 132.056C110.21 134.356 112.222 134.824 113.45 139.242" stroke="#263238" stroke-linecap="round" stroke-linejoin="round"/>
<path d="M105.488 73.7794C105.488 73.7794 108.489 73.5091 110.179 74.214C111.869 74.9189 118.734 80.8147 120.39 81.9405C122.046 83.0663 124.537 83.494 125.009 84.7087" stroke="#263238" stroke-linecap="round" stroke-linejoin="round"/>
<path d="M112.198 75.5176C112.198 75.5176 115.278 74.4911 116.455 74.5493C117.632 74.6074 122.06 77.2183 124.044 78.9634C125.565 80.3126 127.316 81.3767 129.215 82.1046" stroke="#263238" stroke-linecap="round" stroke-linejoin="round"/>
<path d="M123.322 78.3715C124.929 78.0255 126.582 77.9458 128.215 78.1354C130.72 78.4776 137.01 82.1732 139.015 83.0081C141.02 83.843 141.978 83.997 143.032 86.6934C144.086 89.3898 144.568 99.6416 144.78 103.693C144.993 107.744 142.881 119.348 143.754 122.612C144.627 125.877 146.201 128.395 147.155 130.14" stroke="#263238" stroke-linecap="round" stroke-linejoin="round"/>
<path d="M97.2208 89.9542C97.2208 89.9542 96.7417 87.9524 96.0574 87.6958" stroke="#263238" stroke-linecap="round" stroke-linejoin="round"/>
<path d="M97.8022 98.4473C98.0331 99.614 98.3452 100.763 98.7364 101.886C99.2291 103.101 98.4627 104.86 98.4627 104.86" stroke="#263238" stroke-linecap="round" stroke-linejoin="round"/>
<path d="M100.266 101.346C100.188 103.289 102.121 105.561 102.59 105.24" stroke="#263238" stroke-linecap="round" stroke-linejoin="round"/>
<path d="M110.111 89.9541C110.111 89.9541 112.188 86.5938 114.179 86.4296C116.171 86.2653 118.47 89.0918 119.699 88.8249C120.927 88.558 122.474 86.7512 124.54 86.4296C126.607 86.1079 127.576 87.0934 129.215 87.1755C130.854 87.2577 131.021 85.0677 132.979 84.7803C134.936 84.4928 135.603 85.4646 136.917 85.7178C138.231 85.9711 138.56 84.9343 139.624 84.3491" stroke="#263238" stroke-linecap="round" stroke-linejoin="round"/>
</svg>
