<svg width="194" height="203" viewBox="0 0 194 203" fill="none" xmlns="http://www.w3.org/2000/svg">
<path d="M172.275 128.522L178.501 128.396L181.57 128.34C182.592 128.34 183.604 128.34 184.625 128.34L184.415 128.545L184.392 123.331L184.625 123.559L178.45 123.531C176.389 123.531 174.332 123.48 172.275 123.457L172.401 123.331C172.401 124.184 172.359 125.042 172.34 125.91L172.275 128.522ZM172.275 128.522L172.205 125.943C172.205 125.07 172.154 124.189 172.144 123.307V123.181H172.275C174.332 123.181 176.389 123.107 178.45 123.107L184.625 123.079H184.858V123.317L184.83 128.531V128.741H184.625C183.58 128.741 182.54 128.741 181.5 128.718L178.38 128.652L172.275 128.522Z" fill="#EBEBEB"/>
<path d="M179.164 135.089L185.39 134.963L188.459 134.907C189.481 134.907 190.497 134.907 191.514 134.883L191.304 135.089V129.874L191.537 130.103L185.362 130.075C183.301 130.075 181.244 130.024 179.187 130L179.313 129.874C179.313 130.728 179.271 131.586 179.252 132.454L179.164 135.089ZM179.164 135.089L179.099 132.509C179.075 131.637 179.043 130.756 179.033 129.874V129.748H179.164C181.221 129.725 183.277 129.674 185.339 129.674L191.514 129.646H191.747V129.884L191.719 135.089V135.299H191.514C190.474 135.299 189.429 135.299 188.389 135.275L185.283 135.219L179.164 135.089Z" fill="#EBEBEB"/>
<path d="M165.358 135.107H177.708V129.888H165.358V135.107Z" fill="#EBEBEB"/>
<path d="M2.93843 161.081L9.1509 160.955L12.2105 160.899C13.2273 160.899 14.2394 160.899 15.2514 160.899L15.0462 161.105L15.0182 155.904L15.2514 156.137L9.07628 156.077C7.02411 156.077 4.97194 156.021 2.91977 155.998L3.0457 155.872C3.0457 156.72 3.00839 157.579 2.98507 158.446L2.93843 161.081ZM2.93843 161.081L2.87313 158.511C2.84981 157.639 2.82183 156.762 2.8125 155.881V155.755H2.93843C4.9906 155.727 7.04277 155.68 9.09494 155.676L15.2514 155.648H15.4846V155.881V161.081V161.291H15.2794C14.244 161.291 13.2039 161.291 12.1685 161.268L9.04363 161.207L2.93843 161.081Z" fill="#EBEBEB"/>
<path d="M9.80857 167.644H22.1216V162.439H9.80857V167.644Z" fill="#EBEBEB"/>
<path d="M34.9382 56.2015L41.1693 56.0709L44.2382 56.0196C45.255 55.9963 46.2718 56.0196 47.2885 55.9963L47.0833 56.2015L47.0553 50.9825L47.2885 51.2157L41.1133 51.1877C39.0565 51.1877 36.995 51.1364 34.9382 51.1084L35.0641 50.9825C35.0641 51.836 35.0268 52.6988 35.0035 53.5663L34.9382 56.2015ZM34.9382 56.2015L34.8729 53.6223C34.8729 52.7501 34.8216 51.8686 34.8123 50.9825V50.8565H34.9382C36.995 50.8332 39.0565 50.7819 41.1133 50.7819L47.2885 50.7493H47.5217V50.9825L47.4984 56.2015V56.4114H47.2932C46.2531 56.4114 45.2084 56.4114 44.1729 56.3834L41.0667 56.3321L34.9382 56.2015Z" fill="#EBEBEB"/>
<path d="M9.76637 11.0911L22.1167 11.0911V5.87203L9.76637 5.87203V11.0911Z" fill="#EBEBEB"/>
<path d="M2.8823 17.672L9.10877 17.5554L12.1777 17.5041C13.1991 17.5041 14.2112 17.5041 15.2326 17.5041L15.0227 17.7093V12.4902L15.256 12.7234L9.07612 12.6581C7.01463 12.6581 4.95779 12.6068 2.90096 12.5789L3.02689 12.4529C3.02689 13.3064 2.98491 14.1646 2.96626 15.0368L2.8823 17.672ZM2.8823 17.672L2.81234 15.0928C2.81234 14.2206 2.76104 13.3391 2.75171 12.4529V12.327H2.8823C4.93914 12.327 6.99597 12.2524 9.05747 12.2477L15.2326 12.2197H15.4658V12.4529L15.4378 17.672V17.8818H15.2326C14.1879 17.8818 13.1478 17.8818 12.1077 17.8539L9.0015 17.8026L2.8823 17.672Z" fill="#EBEBEB"/>
<path d="M172.275 11.0912L178.501 10.9606L181.57 10.9093C182.592 10.9093 183.604 10.9093 184.625 10.9093L184.415 11.1145L184.392 5.89544L184.625 6.12864L178.45 6.10065C176.389 6.10065 174.332 6.04935 172.275 6.02137L172.401 5.89544C172.401 6.74895 172.359 7.60713 172.34 8.47931L172.275 11.0912ZM172.275 11.0912L172.205 8.51195C172.205 7.63978 172.154 6.75828 172.144 5.87212V5.74619H172.275C174.332 5.74619 176.389 5.67156 178.45 5.6669L184.625 5.63892H184.858V5.89544L184.83 11.1145V11.3244H184.625C183.58 11.3244 182.54 11.3244 181.5 11.2964L178.38 11.2217L172.275 11.0912Z" fill="#EBEBEB"/>
<path d="M152.751 76.3547H165.102V71.1357H152.751V76.3547Z" fill="#EBEBEB"/>
<path d="M125.056 94.6519L192.251 94.6519V5.8722L125.056 5.8722L125.056 94.6519Z" fill="#EBEBEB"/>
<path d="M159.995 48.9165L189.094 48.9165V9.42624L159.995 9.42624V48.9165Z" fill="white"/>
<path d="M128.204 48.9165L157.303 48.9165V9.42624L128.204 9.42624V48.9165Z" fill="white"/>
<path d="M159.995 91.093H189.094V51.6027L159.995 51.6027V91.093Z" fill="white"/>
<path d="M128.204 91.093H157.303V51.6027L128.204 51.6027V91.093Z" fill="white"/>
<path d="M147.504 5.87207H125.052V132.883H138.046L128.979 68.2534L147.504 5.87207Z" fill="#DBDBDB"/>
<path d="M143.615 9.30493L140.065 24.0712L136.446 38.8189L129.203 68.3095L129.207 68.2302L132.556 99.05L134.226 114.46L135.821 129.879L133.997 114.488L132.244 99.0873L128.746 68.2815L128.741 68.2395L128.75 68.1975L136.147 38.7442L139.846 24.0153L143.615 9.30493Z" fill="#EBEBEB"/>
<path d="M126.39 11.9121L126.502 24.6496L126.568 37.387L126.624 62.8619L126.568 88.3368L126.502 101.074L126.39 113.812L126.274 101.074L126.209 88.3368L126.157 62.8619L126.209 37.387L126.274 24.6496L126.39 11.9121Z" fill="#EBEBEB"/>
<path d="M130.583 14.3L129.898 27.8397L129.165 41.3747L127.631 68.4447V68.426L128.377 98.5929L128.704 113.672L128.979 128.76L128.466 113.681L128.004 98.6022L127.174 68.44V68.426V68.4214L128.82 41.356L129.683 27.8257L130.583 14.3Z" fill="#EBEBEB"/>
<path d="M133.508 126.805L132.029 112.193L130.597 97.576C129.688 87.8282 128.732 78.0804 127.86 68.3279V68.2673L132.029 45.5115L134.147 34.136L136.297 22.7698L134.338 34.1686L132.346 45.5675L128.298 68.3466V68.2906C129.231 78.0338 130.089 87.7909 130.989 97.5387L132.272 112.17L133.508 126.805Z" fill="#EBEBEB"/>
<path d="M125.056 70.1516H130.126V67.19H125.056V70.1516Z" fill="#DBDBDB"/>
<path d="M169.742 5.87207H192.195V132.883H179.201L188.273 68.2534L169.742 5.87207Z" fill="#DBDBDB"/>
<path d="M173.632 9.30493L177.401 24.0153L181.099 38.7442L188.496 68.1975L188.506 68.2395L188.501 68.2815L185.003 99.0873L183.249 114.488L181.426 129.879L183.021 114.46L184.695 99.05L188.039 68.2302L188.044 68.3095L180.801 38.8189L177.181 24.0712L173.632 9.30493Z" fill="#EBEBEB"/>
<path d="M190.856 11.9121L190.973 24.6496L191.038 37.387L191.09 62.8619L191.038 88.3368L190.973 101.074L190.856 113.812L190.745 101.074L190.679 88.3368L190.628 62.8619L190.679 37.387L190.745 24.6496L190.856 11.9121Z" fill="#EBEBEB"/>
<path d="M186.664 14.3L187.568 27.8257L188.427 41.356L190.073 68.4214V68.426V68.44L189.243 98.6022L188.781 113.681L188.273 128.76L188.548 113.672L188.87 98.5929L189.616 68.426V68.4447L188.081 41.3747L187.354 27.8397L186.664 14.3Z" fill="#EBEBEB"/>
<path d="M183.739 126.805L184.975 112.17L186.262 97.5387C187.158 87.7909 188.016 78.0338 188.949 68.2906V68.3466L184.91 45.5675L182.918 34.1686L180.959 22.7698L183.114 34.136L185.232 45.5115L189.397 68.2673V68.3279C188.52 78.0804 187.568 87.8282 186.654 97.576L185.227 112.193L183.739 126.805Z" fill="#EBEBEB"/>
<path d="M192.195 67.1899H187.125V70.1516H192.195V67.1899Z" fill="#DBDBDB"/>
<path d="M33.273 17.8027H6.93994V49.7466H33.273V17.8027Z" fill="#EBEBEB"/>
<path d="M30.2647 20.7178H9.94824V46.8316H30.2647V20.7178Z" fill="white"/>
<path d="M10.7411 20.7178H9.94824V46.8316H10.7411V20.7178Z" fill="#DBDBDB"/>
<path d="M34.0661 17.8027H33.2732V49.7466H34.0661V17.8027Z" fill="#DBDBDB"/>
<path d="M21.5478 24.3184H16.7578V38.5903H21.5478V24.3184Z" fill="#DBDBDB"/>
<path d="M27.6718 41.2581H14.4353V33.7957H27.6718V41.2581ZM14.9017 40.7917H27.2054V34.2621H14.9017V40.7917Z" fill="#EBEBEB"/>
<path d="M57.5167 57.4934H31.1836V89.4373H57.5167V57.4934Z" fill="#EBEBEB"/>
<path d="M54.5086 60.4087H34.1921V86.5225H54.5086V60.4087Z" fill="white"/>
<path d="M34.985 60.4087H34.1921V86.5225H34.985V60.4087Z" fill="#DBDBDB"/>
<path d="M58.3097 57.4934H57.5168V89.4373H58.3097V57.4934Z" fill="#DBDBDB"/>
<path d="M46.4862 67.1621H42.3818V77.5396H46.4862V67.1621Z" fill="#EBEBEB"/>
<path d="M51.0523 80.851H39.5508V73.2346H51.0523V80.851ZM40.0265 80.3846H50.5859V73.701H40.0172L40.0265 80.3846Z" fill="#DBDBDB"/>
<path d="M45.1384 202.545C70.0676 202.545 90.2768 200.609 90.2768 198.221C90.2768 195.833 70.0676 193.897 45.1384 193.897C20.2092 193.897 0 195.833 0 198.221C0 200.609 20.2092 202.545 45.1384 202.545Z" fill="#EBEBEB"/>
<path d="M1.35718 188.44L25.3256 188.329L49.294 188.287L97.2261 188.207L145.158 188.287L169.127 188.329L193.095 188.44L169.127 188.557L145.158 188.599L97.2261 188.674L49.294 188.599L25.3256 188.557L1.35718 188.44Z" fill="#263238"/>
<path d="M170.736 146.805C170.736 146.805 166.478 140.275 156.94 141.539C147.877 142.747 142.239 158.623 151.021 161.422C159.803 164.22 159.645 149.016 163.147 146.767C165.727 145.121 169.136 145.849 170.736 146.805Z" fill="#07956A"/>
<path d="M148.89 149.738C149.548 149.264 150.237 148.832 150.951 148.447C151.627 148.075 152.35 147.797 153.101 147.621C154.272 146.142 155.78 144.965 157.499 144.188L157.224 144.146C156.731 144.079 156.234 144.037 155.736 144.02C154.734 143.997 153.735 144.155 152.789 144.487C152.778 144.49 152.765 144.49 152.755 144.484C152.744 144.479 152.736 144.47 152.733 144.459C152.729 144.448 152.73 144.435 152.735 144.425C152.74 144.414 152.75 144.407 152.761 144.403C153.72 144.092 154.712 143.893 155.718 143.81C156.207 143.768 156.698 143.768 157.187 143.81C157.448 143.838 157.709 143.88 157.966 143.932L158.115 143.96C159.017 143.608 159.956 143.361 160.913 143.223L160.662 143.13C160.215 142.985 159.76 142.865 159.3 142.77C158.38 142.576 157.44 142.503 156.501 142.551C156.445 142.551 156.436 142.463 156.501 142.458C157.449 142.434 158.397 142.486 159.337 142.612C160.13 142.709 160.911 142.885 161.669 143.139C162.241 143.091 162.816 143.08 163.39 143.106C166.655 143.279 170.088 144.832 171.837 147.696C173.586 150.559 173.642 154.169 173.702 157.434C173.821 161.987 173.509 166.541 172.769 171.034C172.723 171.3 172.354 171.216 172.373 170.96C172.611 167.112 172.839 163.264 172.839 159.407C172.839 157.621 172.816 155.825 172.69 154.043C172.618 152.513 172.324 151.002 171.818 149.557C171.256 148.077 170.271 146.796 168.987 145.872C167.693 144.96 166.213 144.347 164.654 144.076C163.265 143.832 161.845 143.832 160.456 144.076C160.477 144.354 160.458 144.634 160.4 144.907C160.339 145.25 160.237 145.585 160.097 145.905C159.969 146.207 159.812 146.498 159.631 146.772C159.43 147.08 159.164 147.346 158.964 147.63C158.927 147.677 158.857 147.63 158.894 147.574C159.329 147.063 159.638 146.455 159.794 145.802C159.879 145.495 159.946 145.184 159.995 144.869C160.032 144.631 160.032 144.403 160.065 144.151C158.541 144.466 157.091 145.064 155.788 145.914C155.54 146.077 155.321 146.245 155.074 146.422C155.353 146.739 155.588 147.092 155.774 147.472C156.048 147.97 156.279 148.491 156.464 149.03C156.763 150.11 156.918 151.225 156.926 152.346C156.926 152.358 156.921 152.37 156.912 152.379C156.903 152.387 156.891 152.392 156.879 152.392C156.867 152.392 156.855 152.387 156.846 152.379C156.837 152.37 156.832 152.358 156.832 152.346C156.764 151.25 156.503 150.175 156.063 149.169C155.862 148.673 155.63 148.19 155.368 147.724C155.233 147.481 155.088 147.257 154.939 147.015C154.86 146.889 154.771 146.763 154.696 146.632C153.497 147.603 152.48 148.78 151.693 150.107C152.085 150.615 152.4 151.18 152.625 151.781C152.902 152.416 153.134 153.069 153.32 153.736C153.654 155.021 153.905 156.326 154.071 157.644C154.071 157.7 153.992 157.709 153.983 157.644C153.825 156.317 153.501 155.014 153.017 153.768C152.793 153.157 152.551 152.556 152.294 151.959C152.023 151.4 151.783 150.827 151.576 150.242C150.825 151.545 150.324 152.976 150.098 154.463C150.098 154.519 150 154.505 150.009 154.463C150.406 152.135 151.34 149.931 152.737 148.027C152.14 148.213 151.548 148.395 150.97 148.638C150.233 148.942 149.537 149.339 148.899 149.818C148.894 149.85 148.843 149.771 148.89 149.738Z" fill="#263238"/>
<path d="M155.704 150.732C155.895 151.665 156.17 152.597 156.329 153.563C156.5 154.485 156.551 155.426 156.478 156.361C156.478 156.385 156.436 156.385 156.436 156.361C156.361 154.472 156.086 152.596 155.615 150.764C155.613 150.759 155.612 150.752 155.612 150.746C155.612 150.74 155.614 150.734 155.616 150.728C155.619 150.723 155.623 150.718 155.627 150.713C155.632 150.709 155.637 150.706 155.643 150.704C155.649 150.702 155.655 150.701 155.661 150.701C155.667 150.701 155.673 150.703 155.679 150.705C155.685 150.708 155.69 150.712 155.694 150.716C155.698 150.721 155.701 150.726 155.704 150.732Z" fill="#263238"/>
<path d="M150.009 147.887C150.409 147.568 150.853 147.31 151.329 147.122C151.812 146.956 152.308 146.831 152.812 146.749C152.863 146.749 152.877 146.833 152.812 146.837C152.318 146.921 151.836 147.068 151.38 147.276C150.919 147.464 150.472 147.684 150.042 147.933C150.039 147.936 150.035 147.937 150.031 147.938C150.028 147.939 150.024 147.939 150.02 147.938C150.017 147.938 150.013 147.936 150.01 147.934C150.007 147.932 150.004 147.93 150.002 147.926C150 147.923 149.998 147.92 149.998 147.916C149.997 147.913 149.997 147.909 149.997 147.905C149.998 147.901 149.999 147.898 150.001 147.895C150.003 147.892 150.006 147.889 150.009 147.887Z" fill="#263238"/>
<path d="M166.123 139.212C166.123 139.212 165.227 128.247 157.075 124.693C150.265 121.722 146.348 129.357 151.179 134.058C155.06 137.845 161.319 136.138 166.123 139.212Z" fill="#07956A"/>
<path d="M152.691 126.815C153.931 127.317 155.141 127.89 156.315 128.531C157.285 129.094 158.22 129.717 159.113 130.397C158.978 130.122 158.861 129.828 158.721 129.557C158.511 129.133 158.283 128.722 158.031 128.317C157.529 127.488 156.925 126.725 156.235 126.045C156.193 126.003 156.259 125.943 156.301 125.985C156.988 126.667 157.62 127.403 158.19 128.186C158.472 128.584 158.73 128.998 158.964 129.427C159.205 129.818 159.389 130.242 159.51 130.686L159.603 130.756C161.027 131.889 162.332 133.164 163.497 134.562C163.474 134.454 163.451 134.347 163.423 134.249C163.269 133.713 163.105 133.186 162.928 132.654C162.579 131.529 162.084 130.455 161.454 129.459C161.45 129.449 161.45 129.438 161.454 129.427C161.458 129.417 161.465 129.408 161.474 129.402C161.484 129.397 161.495 129.395 161.506 129.397C161.517 129.399 161.527 129.404 161.534 129.413C162.174 130.412 162.745 131.455 163.241 132.533C163.466 133.06 163.655 133.603 163.805 134.156C163.924 134.515 164.013 134.883 164.071 135.257C164.425 135.723 164.775 136.162 165.102 136.628C168.604 141.614 170.358 147.64 170.782 153.67C170.905 155.468 170.935 157.271 170.871 159.071C170.861 160.889 170.705 162.703 170.405 164.495C170.381 164.607 170.204 164.575 170.209 164.463C170.246 162.877 170.414 161.301 170.442 159.715C170.472 158.126 170.421 156.536 170.288 154.953C170.031 151.789 169.435 148.662 168.511 145.625C167.57 142.516 166.181 139.56 164.388 136.852C164.043 136.786 163.702 136.693 163.367 136.605C163.031 136.516 162.55 136.395 162.145 136.283C161.362 136.079 160.601 135.8 159.873 135.448C159.863 135.442 159.856 135.432 159.854 135.421C159.851 135.409 159.853 135.397 159.859 135.387C159.866 135.377 159.875 135.37 159.887 135.368C159.898 135.365 159.91 135.367 159.92 135.373C160.638 135.764 161.417 136.032 162.224 136.166C162.863 136.292 163.525 136.376 164.164 136.525C163.577 135.661 162.945 134.828 162.271 134.03C160.715 134.175 159.147 134.058 157.63 133.685C156.824 133.49 156.031 133.244 155.256 132.948C154.44 132.631 153.666 132.23 152.863 131.889C152.803 131.866 152.863 131.777 152.896 131.81C154.358 132.605 155.953 133.126 157.602 133.349C159.057 133.582 160.527 133.704 162 133.713C161.422 133.046 160.82 132.402 160.181 131.791C158.04 129.753 155.517 127.878 152.677 126.903C152.607 126.885 152.635 126.792 152.691 126.815Z" fill="#263238"/>
<path d="M159.323 126.847C159.69 127.312 160.025 127.801 160.326 128.312C160.628 128.851 160.869 129.422 161.044 130.014C161.044 130.014 161.021 130.042 161.011 130.014C160.736 129.478 160.508 128.918 160.232 128.387C159.965 127.857 159.638 127.359 159.258 126.903C159.225 126.866 159.29 126.806 159.323 126.847Z" fill="#263238"/>
<path d="M151.744 130.499C152.273 130.793 152.833 131.027 153.414 131.199C153.972 131.386 154.54 131.542 155.116 131.665C155.144 131.665 155.139 131.717 155.116 131.712C154.516 131.649 153.924 131.519 153.353 131.325C152.787 131.115 152.236 130.869 151.702 130.588C151.646 130.551 151.693 130.471 151.744 130.499Z" fill="#263238"/>
<path d="M172.014 137.598C172.065 138.064 173.245 133.615 180.139 129.669C186.402 126.078 193.874 116.731 187.736 110.831C182.778 106.055 169.724 116.433 172.014 137.598Z" fill="#07956A"/>
<path d="M167.266 163.143C167.367 158.504 167.733 153.874 168.362 149.277C168.907 145.053 169.883 140.896 171.272 136.87C171.785 135.42 172.373 133.997 173.007 132.589C172.972 132.043 172.981 131.496 173.035 130.952C173.072 130.248 173.133 129.553 173.198 128.848C173.264 128.144 173.334 127.449 173.418 126.749C173.502 126.05 173.651 125.35 173.679 124.66C173.679 124.595 173.781 124.609 173.767 124.66C173.629 125.393 173.546 126.135 173.52 126.88C173.464 127.556 173.427 128.233 173.404 128.909C173.38 129.585 173.404 130.266 173.404 130.947C173.404 131.19 173.404 131.451 173.404 131.712C174.052 130.341 174.747 128.993 175.502 127.678C175.036 124.819 175.642 121.834 176.225 119.04C176.225 118.984 176.323 119.007 176.309 119.063C176.019 120.523 175.863 122.006 175.843 123.494C175.815 124.669 175.871 125.826 175.875 127.015C176.039 126.736 176.207 126.451 176.375 126.176C177.27 124.716 178.24 123.284 179.238 121.894C179.155 121.217 179.177 120.531 179.304 119.861C179.418 119.107 179.585 118.362 179.803 117.631C180.026 116.904 180.269 116.185 180.568 115.481C180.866 114.777 181.262 114.082 181.552 113.34C181.575 113.28 181.668 113.34 181.631 113.378C181.266 114.066 180.976 114.791 180.768 115.542C180.542 116.247 180.354 116.963 180.204 117.687C180.059 118.41 179.943 119.138 179.84 119.875C179.77 120.341 179.728 120.859 179.644 121.349C181.122 119.373 182.735 117.503 184.471 115.752C184.513 115.71 184.574 115.775 184.532 115.817C181.908 118.77 179.566 121.962 177.536 125.35C177.457 125.476 177.387 125.607 177.312 125.737C177.694 125.495 178.128 125.308 178.487 125.108C179.154 124.739 179.821 124.371 180.498 124.007L182.447 122.939C182.783 122.752 183.114 122.557 183.455 122.384C183.861 122.201 184.251 121.984 184.621 121.736C184.672 121.698 184.728 121.778 184.672 121.81C184.01 122.174 183.422 122.715 182.783 123.126C182.144 123.536 181.486 123.932 180.815 124.306C179.588 124.986 178.259 125.481 177.051 126.171C176.216 127.636 175.446 129.142 174.719 130.672C175.451 130.206 176.197 129.739 176.958 129.333C177.447 129.058 177.937 128.788 178.431 128.526C178.928 128.3 179.397 128.019 179.831 127.687C179.873 127.65 179.933 127.715 179.891 127.752C179.089 128.475 178.199 129.094 177.242 129.595C176.356 130.112 175.46 130.611 174.542 131.064C173.805 132.677 173.142 134.329 172.545 135.998C169.644 144.216 168.576 152.938 168.068 161.599C167.919 164.183 167.839 166.762 167.807 169.351C167.774 171.939 167.909 174.514 167.905 177.093C167.905 177.172 167.779 177.191 167.769 177.093C167.457 174.803 167.406 172.471 167.303 170.167C167.2 167.863 167.214 165.489 167.266 163.143Z" fill="#263238"/>
<path d="M179.779 125.942C181.038 125.388 182.261 124.755 183.441 124.049C184.638 123.375 185.8 122.639 186.92 121.843C186.92 121.843 186.962 121.843 186.943 121.871C185.887 122.727 184.771 123.506 183.604 124.203C182.383 124.888 181.12 125.494 179.821 126.017C179.779 126.045 179.737 125.966 179.779 125.942Z" fill="#263238"/>
<path d="M177.797 116.656C177.895 116.255 178.026 115.859 178.156 115.472C178.151 115.465 178.148 115.457 178.148 115.448C178.148 115.44 178.151 115.432 178.156 115.425C178.24 115.201 178.334 114.982 178.422 114.763L178.455 114.684C178.475 114.641 178.492 114.598 178.506 114.553C178.506 114.553 178.534 114.553 178.53 114.553C178.525 114.553 178.488 114.707 178.464 114.782C178.454 114.824 178.441 114.866 178.427 114.907C177.971 116.435 177.63 117.994 177.405 119.571C177.405 119.618 177.322 119.623 177.322 119.571C177.388 118.587 177.548 117.611 177.797 116.656Z" fill="#263238"/>
<path d="M170.773 149.472C173.175 142.01 178.604 137.579 185.586 138.605C192.568 139.631 194.937 148.819 190.273 151.879C185.609 154.939 179.625 148.773 176.785 147.737C173.945 146.702 170.773 149.472 170.773 149.472Z" fill="#07956A"/>
<path d="M170.134 168.525C170.031 167.681 169.948 166.837 169.854 165.988C169.677 164.3 169.49 162.611 169.313 160.923C168.991 157.835 168.893 154.771 169.78 151.758C170.534 149.023 172.104 146.582 174.28 144.762C175.089 144.101 175.983 143.554 176.939 143.134C177.712 142.094 178.77 141.3 179.984 140.849C181.492 140.313 183.081 140.046 184.681 140.061C184.737 140.061 184.746 140.145 184.681 140.149C183.163 140.164 181.663 140.481 180.269 141.082C179.671 141.34 179.102 141.66 178.571 142.038C178.241 142.283 177.929 142.553 177.638 142.845C178.95 142.371 180.348 142.185 181.738 142.299C182.239 142.346 182.735 142.435 183.221 142.565C183.577 142.432 183.949 142.347 184.327 142.313C184.818 142.257 185.314 142.257 185.805 142.313C186.814 142.446 187.8 142.718 188.734 143.12C188.743 143.126 188.75 143.136 188.753 143.146C188.756 143.157 188.755 143.168 188.751 143.178C188.746 143.188 188.738 143.196 188.729 143.201C188.719 143.206 188.708 143.207 188.697 143.204C187.786 142.862 186.831 142.65 185.861 142.575C185.395 142.538 184.928 142.538 184.462 142.575C184.203 142.597 183.946 142.636 183.692 142.691C185.727 143.299 187.48 144.608 188.641 146.385C188.669 146.436 188.599 146.488 188.566 146.441C187.882 145.411 186.973 144.549 185.909 143.919C184.844 143.289 183.652 142.908 182.419 142.803C182.265 142.803 182.111 142.803 181.953 142.78C182.02 143.011 182.072 143.246 182.111 143.484C182.205 143.815 182.312 144.146 182.428 144.473C182.665 145.144 182.944 145.8 183.263 146.436C183.584 147.082 183.949 147.706 184.355 148.302C184.752 148.939 185.221 149.527 185.754 150.056C185.801 150.098 185.731 150.163 185.689 150.116C185.199 149.543 184.644 149.03 184.187 148.428C183.745 147.852 183.348 147.244 182.997 146.609C182.646 145.964 182.347 145.292 182.102 144.599C181.976 144.235 181.864 143.862 181.766 143.489C181.689 143.267 181.642 143.037 181.626 142.803C180.821 142.794 180.018 142.891 179.238 143.092C179.775 144.715 180.339 146.404 181.482 147.719C181.519 147.761 181.444 147.822 181.407 147.77C180.86 147.067 180.363 146.327 179.919 145.555C179.495 144.804 179.181 143.997 178.986 143.158C177.635 143.535 176.368 144.169 175.255 145.023C173.155 146.678 171.613 148.938 170.838 151.497C170.024 154.246 169.763 157.13 170.069 159.981C170.353 163.581 170.82 167.177 170.969 170.787C170.969 171.02 170.624 171.151 170.54 170.894C170.33 170.119 170.194 169.326 170.134 168.525Z" fill="#263238"/>
<path d="M174.649 144.151C174.834 143.848 175.06 143.572 175.321 143.33C175.563 143.057 175.82 142.797 176.09 142.551C176.62 142.062 177.228 141.666 177.89 141.381C177.942 141.357 177.979 141.441 177.923 141.464C177.255 141.736 176.653 142.146 176.155 142.668C175.9 142.92 175.658 143.181 175.428 143.451C175.226 143.73 174.996 143.988 174.742 144.221C174.714 144.258 174.649 144.207 174.649 144.151Z" fill="#263238"/>
<path d="M185.866 145.135C186.527 145.707 187.15 146.32 187.732 146.973C188.299 147.63 188.798 148.344 189.219 149.104C189.219 149.127 189.219 149.146 189.182 149.127C188.187 147.72 187.065 146.406 185.829 145.205C185.768 145.168 185.843 145.098 185.866 145.135Z" fill="#263238"/>
<path d="M178.464 145.485C178.598 145.911 178.787 146.317 179.028 146.693C179.27 147.056 179.539 147.399 179.835 147.719C179.835 147.742 179.835 147.77 179.798 147.756C179.123 147.162 178.637 146.384 178.399 145.518C178.38 145.466 178.445 145.429 178.464 145.485Z" fill="#263238"/>
<path d="M159.985 164.808L160.475 170.638L161.982 188.422H178.114L179.616 170.638L180.111 164.808H159.985Z" fill="#455A64"/>
<path d="M159.985 164.808L160.475 170.638H179.616L180.111 164.808H159.985Z" fill="#263238"/>
<path d="M158.4 168.063H181.692V162.471H158.4V168.063Z" fill="#455A64"/>
<path d="M136.642 9.67773H57.8198C56.7622 9.68688 55.7168 9.90433 54.7433 10.3176C53.7699 10.731 52.8874 11.3321 52.1463 12.0866C51.4052 12.8411 50.82 13.7343 50.4242 14.715C50.0285 15.6958 49.8298 16.7449 49.8397 17.8025V180.11C49.8273 181.168 50.0235 182.218 50.417 183.2C50.8104 184.182 51.3934 185.077 52.1327 185.833C52.872 186.59 53.7531 187.194 54.7257 187.61C55.6983 188.026 56.7434 188.246 57.8011 188.258H136.623C138.76 188.24 140.802 187.374 142.3 185.85C143.798 184.327 144.63 182.27 144.613 180.134V17.8258C144.625 16.7672 144.428 15.7166 144.034 14.734C143.64 13.7515 143.056 12.8562 142.316 12.0995C141.576 11.3427 140.694 10.7393 139.72 10.3238C138.746 9.90822 137.7 9.6887 136.642 9.67773ZM139.641 175.097C139.641 179.369 136.441 182.825 132.495 182.825H61.9615C58.0017 182.825 54.8068 179.369 54.8068 175.097V23.9543C54.8068 15.2512 58.0017 14.8268 61.9615 14.8268H76.0888C76.9096 14.8268 77.5813 15.7596 77.5813 16.9163V17.4153C77.5813 20.1251 79.0644 20.1345 80.8881 20.1345H113.536C115.402 20.1345 116.843 20.1345 116.843 17.4153V16.9163C116.843 15.7596 117.505 14.8268 118.345 14.8268H132.472C136.418 14.8268 139.617 15.9835 139.617 23.9543L139.641 175.097Z" fill="#263238"/>
<path d="M101.68 16.7484H92.7674C92.6214 16.7484 92.4815 16.6904 92.3782 16.5872C92.275 16.484 92.217 16.344 92.217 16.1981C92.217 16.0521 92.275 15.9121 92.3782 15.8089C92.4815 15.7057 92.6214 15.6477 92.7674 15.6477H101.68C101.826 15.6477 101.966 15.7057 102.07 15.8089C102.173 15.9121 102.231 16.0521 102.231 16.1981C102.231 16.344 102.173 16.484 102.07 16.5872C101.966 16.6904 101.826 16.7484 101.68 16.7484Z" fill="white"/>
<path d="M139.641 23.9544V175.097C139.641 179.369 136.441 182.825 132.495 182.825H61.9615C58.0017 182.825 54.8069 179.369 54.8069 175.097V23.9544C54.8069 15.2513 58.0017 14.8269 61.9615 14.8269H76.0888C76.9097 14.8269 77.5813 15.7597 77.5813 16.9164V17.4154C77.5813 20.1252 79.0645 20.1346 80.8881 20.1346H113.536C115.402 20.1346 116.843 20.1346 116.843 17.4154V16.9164C116.843 15.7597 117.505 14.8269 118.345 14.8269H132.472C136.441 14.8269 139.641 15.9836 139.641 23.9544Z" fill="white"/>
<path d="M137.262 16.156H116.974C117.193 15.3865 117.729 14.8408 118.373 14.8408H132.509C134.328 14.8221 135.998 15.074 137.262 16.156Z" fill="#DBDBDB"/>
<path d="M54.8069 167.648V169.658H61.8309V167.648H54.8069ZM139.641 43.2074L116.815 67.3951H106.312V47.4051H110.486V45.3809H104.287V67.3904H92.9026V20.1345H88.8636V34.2945H54.8162V38.3335H88.8636V67.3951H55.8703V75.3239H54.8069V77.3481H55.8703V107.38L61.9335 121.269H54.8069V125.308H63.7105L68.4631 136.171C65.5207 137.446 63.0891 139.668 61.5552 142.485C60.0214 145.301 59.4733 148.549 59.9983 151.713C60.5232 154.877 62.091 157.774 64.4523 159.944C66.8135 162.114 69.8326 163.432 73.0292 163.688L82.9123 179.863L79.932 182.844H89.4746L77.5626 163.385C79.549 162.908 81.4109 162.012 83.0243 160.759C84.6377 159.506 85.9656 157.923 86.9196 156.117C87.8736 154.31 88.4319 152.321 88.5572 150.282C88.6824 148.243 88.3719 146.201 87.6463 144.291L115.836 130.882H139.622V126.847H128.349L104.689 101.121H139.631V99.1011H102.823L77.3761 71.4341H118.531L132.44 56.6865L139.622 63.869V58.1603L135.219 53.7528L139.622 49.0888L139.641 43.2074ZM74.1952 159.733C72.1472 159.734 70.1448 159.128 68.4415 157.991C66.7382 156.853 65.4103 155.237 64.6259 153.345C63.8415 151.453 63.6358 149.371 64.0348 147.362C64.4338 145.353 65.4196 143.508 66.8674 142.059C68.3153 140.611 70.1602 139.624 72.1688 139.224C74.1775 138.824 76.2596 139.029 78.1518 139.813C80.0441 140.596 81.6614 141.923 82.7994 143.626C83.9373 145.329 84.5447 147.331 84.5447 149.379C84.5422 152.124 83.4512 154.755 81.511 156.696C79.5707 158.637 76.9397 159.73 74.1952 159.733ZM122.878 126.829H114.949L85.692 140.732C84.3503 138.952 82.6135 137.507 80.6186 136.511C78.6236 135.516 76.4248 134.997 74.1952 134.995C73.595 134.997 72.9954 135.035 72.3996 135.107L59.914 106.54V71.4341H71.9005L122.878 126.829ZM125.882 182.825H128.741L139.655 171.906V169.047L125.882 182.825Z" fill="#EBEBEB"/>
<path d="M69.2421 74.4937H63.3701V80.3657H69.2421V74.4937Z" fill="#DBDBDB"/>
<path d="M124.366 97.0021V85.6686H120.243V80.9299H112.981V97.0021H124.366Z" fill="#DBDBDB"/>
<path d="M104.232 20.1345V31.5334H98.0845V24.5933H94.759V20.1345H104.232Z" fill="#DBDBDB"/>
<path d="M139.641 23.9496V27.8814H134.51V17.989H138.643C139.277 19.3416 139.641 21.2585 139.641 23.9496Z" fill="#DBDBDB"/>
<path d="M107.902 65.6833V57.2554H123.694L115.164 65.7859L107.902 65.6833Z" fill="#DBDBDB"/>
<path d="M102.697 57.8523H94.7637V65.7858H102.697V57.8523Z" fill="#DBDBDB"/>
<path d="M86.9653 39.9146H77.4087V48.7062H86.9653V39.9146Z" fill="#DBDBDB"/>
<path d="M86.97 50.4319V65.7858H75.2773L67.8242 58.3327V50.4319H86.97Z" fill="#DBDBDB"/>
<path d="M65.7161 60.0259L71.5881 65.8979H55.917V60.0259H65.7161Z" fill="#DBDBDB"/>
<path d="M64.8765 134.216H54.8069V127.146H62.0268L64.8765 134.216Z" fill="#DBDBDB"/>
<path d="M62.1341 161.468V164.864H54.8069V149.762H56.8077C57.3663 154.111 59.2224 158.19 62.1341 161.468Z" fill="#DBDBDB"/>
<path d="M97.2262 132.132L91.0837 118.863H83.6212L70.8418 124.791L74.1812 132.08H74.2092C78.7466 132.076 83.1031 133.859 86.3357 137.043L97.2262 132.132Z" fill="#DBDBDB"/>
<path d="M139.641 115.607V124.417H130.033L121.927 115.607H139.641Z" fill="#DBDBDB"/>
<path d="M79.2929 179.103L75.7763 182.834H61.9568C61.4434 182.832 60.9318 182.773 60.4316 182.657V178.459H66.4109V169.206L70.9117 165.419L79.2929 179.103Z" fill="#DBDBDB"/>
<path d="M107.748 163.539L95.6216 150.9L90.9576 154.533C90.2758 156.739 89.1656 158.789 87.6906 160.566C86.2157 162.343 84.4049 163.811 82.3618 164.887L92.4967 181.454L107.748 163.539Z" fill="#DBDBDB"/>
<path d="M94.5444 145.345L115.836 134.818H126.456V153.334L109.898 161.51L94.5444 145.345Z" fill="#DBDBDB"/>
<path d="M139.631 175.437C139.487 179.168 136.889 182.209 133.545 182.741H132.328L139.631 175.437Z" fill="#DBDBDB"/>
<path d="M63.3701 82.8142V106.083L69.8624 121.969L81.709 116.097H109.343L78.3556 82.8142H63.3701Z" fill="#339015"/>
<path d="M130.76 49.5317H107.902V55.2592H125.36L130.76 49.5317Z" fill="#DBDBDB"/>
<path d="M58.8879 119.376H54.8069V109.922L58.8879 119.376Z" fill="#DBDBDB"/>
<path d="M139.641 134.818H129.399V146.926H139.641V134.818Z" fill="#DBDBDB"/>
<path d="M139.641 148.815H129.399V153.064H139.641V148.815Z" fill="#DBDBDB"/>
<path d="M126.852 178.725L122.752 182.825H95.8362L110.085 165.423L126.852 178.725Z" fill="#DBDBDB"/>
<path d="M128.321 176.724L135.238 170.087L126.847 162.784V156.217L112.062 163.749L128.321 176.724Z" fill="#339015"/>
<path d="M139.641 154.939V165.237L136.898 167.816L129.399 161.51V154.939H139.641Z" fill="#DBDBDB"/>
<path d="M57.4375 171.967V181.085C56.6 180.33 55.9323 179.406 55.4788 178.374C55.0254 177.341 54.7964 176.224 54.807 175.097V171.967H57.4375Z" fill="#DBDBDB"/>
<path d="M63.995 172.923H60.4316V176.486H63.995V172.923Z" fill="#DBDBDB"/>
<path d="M86.3543 20.1346V31.8739H63.7524V18.4369L67.6842 14.8223H76.0795C76.8957 14.8223 77.5673 15.7551 77.5673 16.9164V17.4155C77.5673 20.1253 79.0551 20.1346 80.8741 20.1346H86.3543Z" fill="#DBDBDB"/>
<path d="M61.8402 24.6633H54.8069V31.8646H61.8402V24.6633Z" fill="#DBDBDB"/>
<path d="M61.8403 18.7773V22.8024H54.8442C54.8678 21.4427 55.0574 20.0911 55.4086 18.7773H61.8403Z" fill="#DBDBDB"/>
<path d="M65.562 14.8223L63.0761 17.1543H56.0801C57.3673 14.9855 59.5221 14.8223 61.9614 14.8223H65.562Z" fill="#DBDBDB"/>
<path d="M110.645 103.564L120.243 113.643H129.399V103.564H110.645Z" fill="#DBDBDB"/>
<path d="M139.641 109.012H131.302V113.648H139.641V109.012Z" fill="#DBDBDB"/>
<path d="M136.203 103.564H131.302V107.776H136.203V103.564Z" fill="#DBDBDB"/>
<path d="M139.641 103.564H137.425V107.776H139.641V103.564Z" fill="#DBDBDB"/>
<path d="M93.9612 118.863H109.343V126.218L99.5067 130.681L93.9612 118.863Z" fill="#DBDBDB"/>
<path d="M74.1999 156.343C78.0122 156.343 81.1026 153.252 81.1026 149.44C81.1026 145.628 78.0122 142.537 74.1999 142.537C70.3876 142.537 67.2971 145.628 67.2971 149.44C67.2971 153.252 70.3876 156.343 74.1999 156.343Z" fill="#339015"/>
<path d="M58.5008 39.9146H54.8069V45.2175H58.5008V39.9146Z" fill="#DBDBDB"/>
<path d="M65.5435 58.1135V39.9192H59.9094V54.5456H55.917V58.1135H65.5435Z" fill="#DBDBDB"/>
<path d="M75.8044 39.9146H67.8242V48.2165H75.8044V39.9146Z" fill="#DBDBDB"/>
<path d="M58.5008 46.239H54.8069V52.9412H58.5008V46.239Z" fill="#DBDBDB"/>
<path d="M137.938 85.6687H126.082V97.0069H137.938V85.6687Z" fill="#DBDBDB"/>
<path d="M82.791 73.4583L95.16 86.9186H110.687V73.4583H82.791Z" fill="#DBDBDB"/>
<path d="M96.9231 88.4717L104.773 97.0068H110.645V88.4717H96.9231Z" fill="#DBDBDB"/>
<path d="M120.238 73.4583H112.981V79.0784H120.238V73.4583Z" fill="#DBDBDB"/>
<path d="M137.943 78.8452V66.2057L132.206 60.0305L122.207 70.7531V83.0148H134.062V78.8452H137.943Z" fill="#339015"/>
<path d="M139.641 52.2415V55.6322L138.004 54.0278L139.641 52.2415Z" fill="#DBDBDB"/>
<path d="M139.641 29.7236V40.1477L132.757 47.7081H123.695V29.7236H139.641Z" fill="#DBDBDB"/>
<path d="M121.591 36.3093H112.771V47.7082H121.591V36.3093Z" fill="#339015"/>
<path d="M132.757 17.989V27.8814H121.586V34.8774H112.771V20.1345H113.55C115.243 20.1345 116.629 20.1345 116.815 17.989H132.757Z" fill="#DBDBDB"/>
<path d="M111.633 20.1345H105.304V27.6436H111.633V20.1345Z" fill="#DBDBDB"/>
<path d="M111.638 32.7646H94.7637V41.0619H111.638V32.7646Z" fill="#DBDBDB"/>
<path d="M111.638 28.8423H105.304V31.5334H111.638V28.8423Z" fill="#DBDBDB"/>
<path d="M102.697 56.2667H98.0845L94.7637 53.1138V43.9443H102.697V56.2667Z" fill="#DBDBDB"/>
<path d="M73.6497 18.2221C73.6023 18.2649 73.5572 18.31 73.5144 18.3574L73.4351 18.432C73.0856 18.0846 72.6127 17.8895 72.1199 17.8895C71.627 17.8895 71.1542 18.0846 70.8046 18.432L70.73 18.3527L70.5947 18.2175L70.7673 18.0636C70.891 17.9646 71.0256 17.8801 71.1684 17.8117C71.3347 17.7278 71.5122 17.6681 71.6954 17.6345C71.7834 17.6175 71.8721 17.605 71.9613 17.5972H72.1945H72.3717C72.5311 17.6181 72.6876 17.6572 72.8381 17.7138C72.9527 17.7555 73.0635 17.807 73.1693 17.8677C73.2799 17.9311 73.3845 18.0044 73.4818 18.0869L73.6263 18.2175L73.6497 18.2221Z" fill="#A6A6A6"/>
<path d="M71.2336 18.8612L71.019 18.6467C71.2559 18.4092 71.5637 18.2553 71.8959 18.2083C72.1349 18.1711 72.3793 18.1915 72.6089 18.2677C72.8385 18.344 73.0465 18.4739 73.2158 18.6467C73.1458 18.7166 73.0759 18.7913 73.0013 18.8612C72.8864 18.7444 72.7491 18.6519 72.5976 18.5894C72.4461 18.5269 72.2836 18.4956 72.1198 18.4974C71.9553 18.496 71.7922 18.5275 71.64 18.59C71.4878 18.6525 71.3497 18.7447 71.2336 18.8612Z" fill="#A6A6A6"/>
<path d="M72.7867 19.0757L72.5722 19.2902C72.5106 19.2299 72.4377 19.1823 72.3576 19.1503C72.2776 19.1183 72.192 19.1024 72.1058 19.1037C72.0191 19.102 71.933 19.1181 71.8527 19.1509C71.7725 19.1838 71.6999 19.2328 71.6394 19.2949L71.4248 19.0803C71.5117 18.9868 71.6169 18.9122 71.7339 18.861C71.8509 18.8098 71.9771 18.7832 72.1047 18.7827C72.2324 18.7823 72.3588 18.8081 72.4761 18.8584C72.5934 18.9088 72.6991 18.9828 72.7867 19.0757Z" fill="#A6A6A6"/>
<path d="M72.3109 19.4862C72.3116 19.5117 72.3071 19.5371 72.2977 19.5608C72.2884 19.5846 72.2744 19.6062 72.2566 19.6244C72.2388 19.6427 72.2175 19.6572 72.194 19.6671C72.1705 19.677 72.1452 19.6821 72.1197 19.6821C72.094 19.6821 72.0685 19.677 72.0448 19.6672C72.021 19.6573 71.9994 19.6429 71.9812 19.6247C71.963 19.6065 71.9486 19.5849 71.9387 19.5612C71.9289 19.5374 71.9238 19.5119 71.9238 19.4862C71.9238 19.4607 71.9289 19.4354 71.9388 19.4119C71.9487 19.3884 71.9632 19.3671 71.9815 19.3493C71.9997 19.3315 72.0214 19.3175 72.0451 19.3082C72.0688 19.2988 72.0942 19.2944 72.1197 19.295C72.1704 19.295 72.2191 19.3151 72.2549 19.351C72.2908 19.3868 72.3109 19.4355 72.3109 19.4862Z" fill="#A6A6A6"/>
<path d="M60.3338 18.6327C60.3338 18.5211 60.3669 18.412 60.4289 18.3192C60.4909 18.2264 60.579 18.154 60.6821 18.1113C60.7853 18.0686 60.8987 18.0574 61.0082 18.0792C61.1177 18.101 61.2182 18.1547 61.2972 18.2337C61.3761 18.3126 61.4298 18.4131 61.4516 18.5226C61.4734 18.6321 61.4622 18.7456 61.4195 18.8487C61.3768 18.9518 61.3045 19.0399 61.2116 19.1019C61.1188 19.164 61.0097 19.197 60.8981 19.197C60.8238 19.1977 60.7502 19.1835 60.6814 19.1554C60.6127 19.1272 60.5502 19.0857 60.4977 19.0331C60.4451 18.9806 60.4036 18.9182 60.3755 18.8494C60.3473 18.7807 60.3331 18.707 60.3338 18.6327Z" fill="#A6A6A6"/>
<path d="M62.1062 18.6327C62.1062 18.5211 62.1393 18.412 62.2013 18.3192C62.2633 18.2264 62.3515 18.154 62.4546 18.1113C62.5577 18.0686 62.6712 18.0574 62.7807 18.0792C62.8901 18.101 62.9907 18.1547 63.0696 18.2337C63.1485 18.3126 63.2023 18.4131 63.2241 18.5226C63.2458 18.6321 63.2347 18.7456 63.192 18.8487C63.1492 18.9518 63.0769 19.0399 62.9841 19.1019C62.8913 19.164 62.7822 19.197 62.6706 19.197C62.5963 19.1977 62.5226 19.1835 62.4539 19.1554C62.3851 19.1272 62.3227 19.0857 62.2701 19.0331C62.2176 18.9806 62.1761 18.9182 62.1479 18.8494C62.1198 18.7807 62.1056 18.707 62.1062 18.6327Z" fill="#A6A6A6"/>
<path d="M63.8784 18.6327C63.8784 18.5209 63.9117 18.4116 63.9739 18.3187C64.0361 18.2258 64.1245 18.1534 64.2279 18.1109C64.3313 18.0683 64.445 18.0574 64.5546 18.0795C64.6642 18.1017 64.7648 18.1559 64.8435 18.2353C64.9222 18.3147 64.9756 18.4157 64.9968 18.5255C65.0181 18.6353 65.0063 18.7489 64.9628 18.8519C64.9194 18.9549 64.8463 19.0428 64.7529 19.1042C64.6595 19.1656 64.5499 19.198 64.4381 19.197C64.3642 19.197 64.2911 19.1824 64.2229 19.154C64.1546 19.1256 64.0927 19.0839 64.0407 19.0315C63.9887 18.979 63.9475 18.9167 63.9197 18.8483C63.8918 18.7799 63.8778 18.7066 63.8784 18.6327Z" fill="#A6A6A6"/>
<path d="M65.6509 18.6327C65.6509 18.5209 65.6841 18.4116 65.7463 18.3187C65.8086 18.2258 65.897 18.1534 66.0004 18.1109C66.1038 18.0683 66.2175 18.0574 66.3271 18.0795C66.4367 18.1017 66.5372 18.1559 66.6159 18.2353C66.6947 18.3147 66.7481 18.4157 66.7693 18.5255C66.7906 18.6353 66.7787 18.7489 66.7353 18.8519C66.6919 18.9549 66.6188 19.0428 66.5254 19.1042C66.432 19.1656 66.3224 19.198 66.2106 19.197C66.1367 19.197 66.0635 19.1824 65.9953 19.154C65.9271 19.1256 65.8652 19.0839 65.8132 19.0315C65.7611 18.979 65.72 18.9167 65.6922 18.8483C65.6643 18.7799 65.6503 18.7066 65.6509 18.6327Z" fill="#A6A6A6"/>
<path d="M67.4185 18.6327C67.4185 18.5211 67.4516 18.412 67.5136 18.3192C67.5756 18.2264 67.6637 18.154 67.7669 18.1113C67.87 18.0686 67.9834 18.0574 68.0929 18.0792C68.2024 18.101 68.303 18.1547 68.3819 18.2337C68.4608 18.3126 68.5146 18.4131 68.5363 18.5226C68.5581 18.6321 68.5469 18.7456 68.5042 18.8487C68.4615 18.9518 68.3892 19.0399 68.2964 19.1019C68.2036 19.164 68.0944 19.197 67.9828 19.197C67.9085 19.1977 67.8349 19.1835 67.7661 19.1554C67.6974 19.1272 67.6349 19.0857 67.5824 19.0331C67.5299 18.9806 67.4883 18.9182 67.4602 18.8494C67.432 18.7807 67.4179 18.707 67.4185 18.6327Z" fill="#A6A6A6"/>
<path d="M133.158 17.8584H128.816V19.7473H133.158V17.8584Z" fill="#A6A6A6"/>
<path d="M133.279 19.8594H128.699V17.7419H133.279V19.8594ZM128.932 19.6262H133.046V17.9751H128.941L128.932 19.6262Z" fill="white"/>
<path d="M132.034 18.1011H129.082V19.5003H132.034V18.1011Z" fill="#A6A6A6"/>
<path d="M133.685 18.2317H133.279V19.365H133.685V18.2317Z" fill="#A6A6A6"/>
<path d="M101.209 136.171L100.831 135.322L116.512 128.354H126.222L71.8865 69.0275H90.4773V34.1033H91.4101V69.9603H74.0039L128.34 129.287H116.712L101.209 136.171Z" fill="#339015"/>
<path d="M94.0967 28.6044C93.9614 27.0279 92.8514 25.4841 90.9438 25.4841C89.0362 25.4841 87.9541 27.0512 87.7956 28.6277C87.5577 31.0576 89.1948 33.2637 90.9438 35.2739C92.6975 33.2404 94.3392 31.0343 94.0967 28.6044ZM90.9438 30.3534C90.6027 30.3524 90.2695 30.2505 89.9863 30.0603C89.7031 29.8701 89.4827 29.6003 89.3528 29.2848C89.2229 28.9694 89.1894 28.6226 89.2565 28.2882C89.3236 27.9537 89.4883 27.6467 89.7298 27.4058C89.9714 27.1649 90.2789 27.001 90.6135 26.9348C90.9481 26.8686 91.2948 26.9031 91.6099 27.0338C91.925 27.1646 92.1942 27.3857 92.3836 27.6694C92.573 27.9531 92.6741 28.2866 92.6741 28.6277C92.6748 28.8549 92.6304 29.0799 92.5436 29.2899C92.4568 29.4998 92.3293 29.6905 92.1684 29.851C92.0076 30.0114 91.8165 30.1384 91.6063 30.2246C91.3961 30.3108 91.171 30.3546 90.9438 30.3534Z" fill="#339015"/>
<path d="M98.8727 141.809L98.8307 136.973L94.9363 134.104L104.46 134.226L98.8727 141.809Z" fill="#37474F"/>
<path d="M84.1671 178.389L73.9062 161.132L74.6432 161.063C78.4239 160.472 81.8333 158.452 84.1671 155.419C87.9403 150.443 84.5962 143.363 84.5635 143.293L84.3537 142.868L99.4977 135.947L99.8848 136.796L85.599 143.325C86.3079 145.023 88.514 151.254 84.9087 155.988C82.5652 159.047 79.1819 161.141 75.3987 161.874L84.9367 177.914L84.1671 178.389Z" fill="#37474F"/>
<path d="M87.6977 172.951C87.5392 171.375 86.4524 169.808 84.5449 169.808C82.6373 169.808 81.5552 171.375 81.3966 172.951C81.1588 175.381 82.7958 177.587 84.5449 179.597C86.2985 177.587 87.9403 175.381 87.6977 172.951ZM84.5449 174.7C84.2037 174.699 83.8706 174.597 83.5874 174.407C83.3042 174.217 83.0838 173.947 82.9539 173.632C82.824 173.316 82.7905 172.969 82.8576 172.635C82.9247 172.301 83.0894 171.993 83.3309 171.753C83.5725 171.512 83.8799 171.348 84.2146 171.282C84.5492 171.215 84.8959 171.25 85.211 171.381C85.526 171.511 85.7953 171.733 85.9847 172.016C86.1741 172.3 86.2752 172.633 86.2752 172.974C86.2758 173.202 86.2315 173.427 86.1447 173.637C86.0579 173.847 85.9304 174.037 85.7695 174.198C85.6086 174.358 85.4176 174.485 85.2074 174.571C84.9972 174.658 84.772 174.701 84.5449 174.7Z" fill="#339015"/>
<path d="M155.466 117.128C155.467 119.944 154.61 122.693 153.008 125.009C151.407 127.325 149.136 129.098 146.501 130.09C143.866 131.083 140.99 131.248 138.259 130.563C135.527 129.879 133.069 128.377 131.213 126.26H104.311L100.547 133.223L96.7831 126.26H93.3457V107.995H131.218C133.075 105.88 135.533 104.381 138.265 103.698C140.996 103.015 143.87 103.181 146.505 104.174C149.139 105.166 151.409 106.938 153.011 109.253C154.612 111.569 155.47 114.317 155.47 117.132L155.466 117.128Z" fill="white"/>
<path d="M155.466 117.128C155.448 118.526 155.241 119.917 154.85 121.26C154.419 122.583 153.804 123.839 153.022 124.991C151.413 127.315 149.136 129.094 146.492 130.094C146.167 130.225 145.836 130.34 145.499 130.439L144.482 130.7C144.142 130.77 143.792 130.812 143.447 130.872C143.101 130.928 142.752 130.961 142.402 130.97C141 131.07 139.591 130.946 138.228 130.602C135.479 129.921 133.003 128.42 131.129 126.297L131.199 126.33L104.292 126.404L104.437 126.316L100.706 133.288L100.543 133.596L100.379 133.288L96.5968 126.334L96.7787 126.446H93.3413H93.1221V126.227C93.1221 123.181 93.1221 120.141 93.1221 117.095L93.1501 107.963V107.767H93.3459L131.218 107.87L131.125 107.963V107.93L131.148 107.902C133.033 105.789 135.517 104.3 138.27 103.635C139.633 103.291 141.042 103.167 142.444 103.266C142.794 103.275 143.143 103.308 143.489 103.364C143.834 103.425 144.184 103.467 144.524 103.537L145.541 103.798C145.878 103.896 146.209 104.011 146.534 104.143C149.178 105.14 151.455 106.918 153.064 109.241C153.845 110.401 154.46 111.665 154.892 112.995C155.269 114.341 155.462 115.731 155.466 117.128ZM155.466 117.128C155.441 115.731 155.226 114.344 154.827 113.005C154.385 111.679 153.757 110.422 152.961 109.273C151.356 106.972 149.089 105.213 146.46 104.232C146.138 104.102 145.81 103.992 145.476 103.9L144.464 103.644C144.123 103.574 143.773 103.537 143.433 103.481C143.089 103.424 142.741 103.393 142.393 103.387C141.004 103.295 139.609 103.424 138.26 103.77C135.554 104.453 133.118 105.941 131.274 108.037L131.297 107.977V108.07H131.204L93.3319 108.173L93.5278 107.977L93.5558 117.109C93.5558 120.155 93.5558 123.195 93.5558 126.241L93.3366 126.022H96.774H96.8999L96.9559 126.134L100.687 133.107H100.361L104.143 126.152L104.19 126.064H104.288L131.194 126.138H131.274L131.302 126.171C133.142 128.281 135.583 129.778 138.298 130.462C139.646 130.812 141.041 130.942 142.43 130.849C142.779 130.844 143.126 130.813 143.47 130.756C143.811 130.705 144.16 130.663 144.501 130.597L145.508 130.336C145.844 130.245 146.174 130.135 146.497 130.005C149.127 129.023 151.396 127.265 153.003 124.963C153.79 123.812 154.41 122.556 154.846 121.232C155.237 119.898 155.445 118.517 155.466 117.128Z" fill="#263238"/>
<path d="M147.355 127.755C153.227 124.589 155.422 117.262 152.256 111.389C149.09 105.517 141.763 103.323 135.89 106.489C130.018 109.655 127.824 116.982 130.99 122.854C134.155 128.727 141.483 130.921 147.355 127.755Z" fill="#399A19"/>
<path d="M103.56 115.379C103.401 113.802 102.315 112.235 100.407 112.235C98.4996 112.235 97.4175 113.802 97.2589 115.379C97.0211 117.809 98.6582 120.015 100.407 122.025C102.161 120.015 103.803 117.832 103.56 115.379ZM100.407 117.128C100.066 117.127 99.7329 117.025 99.4497 116.835C99.1665 116.644 98.9461 116.375 98.8162 116.059C98.6863 115.744 98.6527 115.397 98.7199 115.062C98.787 114.728 98.9517 114.421 99.1932 114.18C99.4347 113.939 99.7422 113.775 100.077 113.709C100.411 113.643 100.758 113.677 101.073 113.808C101.388 113.939 101.658 114.16 101.847 114.444C102.036 114.727 102.138 115.061 102.138 115.402C102.138 115.629 102.094 115.854 102.007 116.064C101.92 116.274 101.793 116.465 101.632 116.625C101.471 116.786 101.28 116.913 101.07 116.999C100.86 117.085 100.634 117.129 100.407 117.128Z" fill="#339015"/>
<path d="M126.082 113.681H106.997V114.255H126.082V113.681Z" fill="#A6A6A6"/>
<path d="M123.084 115.276H106.997V115.85H123.084V115.276Z" fill="#A6A6A6"/>
<path d="M125.14 116.871H106.997V117.445H125.14V116.871Z" fill="#A6A6A6"/>
<path d="M117.832 118.466H106.997V119.04H117.832V118.466Z" fill="#A6A6A6"/>
<path d="M149.804 125.994C147.575 128.054 144.654 129.202 141.618 129.207C141.072 129.207 140.526 129.167 139.986 129.086C139.627 129.045 139.27 128.983 138.918 128.899C139.357 127.486 139.902 126.107 140.55 124.776C140.602 124.665 140.667 124.557 140.718 124.464C140.803 124.324 140.895 124.189 140.993 124.058C141.46 123.48 142.626 123.195 143.899 123.172C144.453 123.159 145.006 123.189 145.555 123.261C145.996 123.314 146.431 123.404 146.856 123.531L146.935 123.555H146.982L147.285 123.666L147.551 123.788C147.562 123.785 147.573 123.785 147.584 123.788C147.732 123.856 147.872 123.942 147.999 124.044C148.083 124.114 148.176 124.193 148.265 124.277C148.833 124.797 149.349 125.372 149.804 125.994Z" fill="#EBEBEB"/>
<path d="M150.004 125.807C149.941 125.873 149.874 125.935 149.804 125.994C148.876 126.857 147.817 127.566 146.665 128.093C147.01 125.761 147.276 123.956 147.313 123.662C147.315 123.646 147.315 123.631 147.313 123.615C147.401 123.667 147.487 123.723 147.57 123.783C147.58 123.78 147.592 123.78 147.602 123.783C147.766 123.89 147.999 124.054 148.283 124.273C148.892 124.744 149.467 125.256 150.004 125.807Z" fill="#37474F"/>
<path d="M140.816 123.895L140.728 124.459C140.728 124.599 140.676 124.763 140.653 124.926C140.63 125.089 140.606 125.215 140.574 125.392C140.424 126.325 140.215 127.654 139.986 129.081C139.627 129.04 139.27 128.978 138.918 128.895L138.792 128.867C139.243 127.314 139.82 125.801 140.518 124.343C140.608 124.187 140.707 124.038 140.816 123.895Z" fill="#37474F"/>
<path d="M142.239 128.051C143.638 128.209 146.268 126.274 147.001 124.222C147.052 124.082 146.637 122.748 146.213 121.101C145.956 120.103 145.695 118.984 145.532 117.948C145.499 117.734 139.272 120.556 139.272 120.556C139.849 121.795 140.272 123.099 140.532 124.441C140.545 124.585 140.545 124.73 140.532 124.874V124.944C140.555 125.761 140.751 127.878 142.239 128.051Z" fill="#D3766A"/>
<path d="M140.555 124.875C140.553 124.898 140.553 124.921 140.555 124.945C140.78 124.938 141.005 124.914 141.227 124.875C145.042 124.184 145.294 119.231 145.294 117.986C144.165 118.336 139.268 120.556 139.268 120.556C139.845 121.796 140.268 123.102 140.527 124.446C140.548 124.588 140.557 124.731 140.555 124.875Z" fill="#263238"/>
<path d="M145.461 109.679C146.46 111.909 146.077 118.755 144.617 120.458C142.5 122.92 138.615 123.62 136.413 120.98C134.282 118.42 134.935 109.502 136.605 107.921C139.067 105.575 143.983 106.386 145.461 109.679Z" fill="#D3766A"/>
<path d="M140.718 114.511C140.718 114.511 140.751 114.534 140.751 114.553C140.713 115.019 140.751 115.546 141.157 115.719C141.157 115.719 141.157 115.752 141.157 115.747C140.644 115.649 140.602 114.94 140.718 114.511Z" fill="#263238"/>
<path d="M141.152 114.049C141.898 114.049 141.879 115.523 141.189 115.537C140.499 115.551 140.527 114.063 141.152 114.049Z" fill="#263238"/>
<path d="M137.892 114.567C137.892 114.567 137.855 114.567 137.855 114.609C137.855 115.076 137.799 115.603 137.388 115.752C137.388 115.752 137.388 115.78 137.388 115.775C137.892 115.696 137.976 114.992 137.892 114.567Z" fill="#263238"/>
<path d="M137.486 114.068C136.74 114.003 136.665 115.491 137.356 115.551C138.046 115.612 138.106 114.101 137.486 114.068Z" fill="#263238"/>
<path d="M141.749 113.373C141.554 113.314 141.362 113.244 141.175 113.163C140.962 113.118 140.77 113.003 140.63 112.837C140.595 112.776 140.581 112.705 140.591 112.636C140.602 112.566 140.635 112.502 140.686 112.454C140.799 112.373 140.932 112.324 141.07 112.312C141.209 112.299 141.348 112.324 141.474 112.384C141.747 112.468 141.98 112.646 142.131 112.888C142.161 112.946 142.173 113.011 142.167 113.076C142.16 113.14 142.135 113.202 142.095 113.253C142.055 113.304 142.001 113.342 141.94 113.363C141.878 113.385 141.812 113.388 141.749 113.373Z" fill="#263238"/>
<path d="M136.917 113.308C137.122 113.275 137.309 113.214 137.509 113.163C137.726 113.139 137.929 113.046 138.088 112.897C138.131 112.842 138.154 112.774 138.154 112.704C138.154 112.634 138.131 112.566 138.088 112.51C137.984 112.417 137.858 112.354 137.722 112.327C137.586 112.3 137.445 112.31 137.314 112.356C137.032 112.406 136.78 112.559 136.605 112.785C136.569 112.838 136.549 112.9 136.547 112.964C136.545 113.028 136.562 113.091 136.595 113.146C136.627 113.201 136.675 113.245 136.732 113.274C136.789 113.303 136.854 113.314 136.917 113.308Z" fill="#263238"/>
<path d="M140.294 117.412C140.176 117.594 140.021 117.75 139.84 117.869C139.658 117.987 139.454 118.067 139.24 118.102C139.051 118.128 138.859 118.128 138.671 118.102C138.635 118.107 138.599 118.107 138.563 118.102H138.461C138.41 118.102 138.382 118.051 138.372 118C138.37 117.984 138.37 117.969 138.372 117.953V117.916C138.372 117.557 138.41 117.016 138.41 117.016C138.279 117.081 137.612 117.37 137.626 117.188C137.684 115.584 137.906 113.99 138.288 112.431C138.288 112.42 138.293 112.409 138.301 112.401C138.308 112.393 138.319 112.389 138.33 112.389C138.341 112.389 138.352 112.393 138.36 112.401C138.368 112.409 138.372 112.42 138.372 112.431C138.326 113.914 138.018 115.379 137.948 116.862C138.186 116.758 138.437 116.685 138.694 116.647C138.745 116.647 138.596 117.692 138.61 117.85C138.901 117.882 139.196 117.855 139.476 117.771C139.756 117.687 140.017 117.547 140.242 117.361C140.289 117.365 140.322 117.365 140.294 117.412Z" fill="#263238"/>
<path d="M138.885 117.944C139.077 118.2 139.33 118.402 139.622 118.532C139.785 118.596 139.964 118.609 140.135 118.569C140.504 118.476 140.518 118.135 140.452 117.846C140.417 117.692 140.364 117.544 140.294 117.403C139.893 117.727 139.4 117.916 138.885 117.944Z" fill="#263238"/>
<path d="M139.622 118.532C139.786 118.596 139.965 118.609 140.135 118.569C140.504 118.476 140.518 118.135 140.453 117.846C140.257 117.851 140.07 117.921 139.919 118.045C139.768 118.17 139.664 118.341 139.622 118.532Z" fill="#FF9ABB"/>
<path d="M135.593 110.169C135.854 109.586 136.152 108.998 136.525 108.886C136.898 108.774 137.603 109.819 138.391 109.88C139.473 109.964 140.201 108.756 141.716 108.662C143.232 108.569 144.142 110.402 144.165 113.49C144.165 116.251 145.849 116.526 145.849 116.526C145.849 116.526 146.921 110.463 145.224 108.42C143.526 106.377 139.627 105.458 136.945 107.352C135.97 108.037 135.593 110.169 135.593 110.169Z" fill="#263238"/>
<path d="M144.463 115.425C144.463 115.425 145.751 113.093 146.795 113.532C147.84 113.97 147.029 117.235 145.919 117.79C145.781 117.87 145.628 117.922 145.47 117.942C145.312 117.962 145.152 117.949 144.999 117.906C144.845 117.862 144.702 117.788 144.578 117.688C144.454 117.588 144.352 117.464 144.277 117.324L144.463 115.425Z" fill="#D3766A"/>
<path d="M146.539 114.464C146.539 114.464 146.539 114.464 146.539 114.492C145.76 114.907 145.415 115.705 145.196 116.512C145.235 116.426 145.293 116.35 145.364 116.289C145.436 116.227 145.52 116.182 145.61 116.155C145.701 116.129 145.796 116.122 145.889 116.135C145.983 116.148 146.072 116.181 146.152 116.232C146.152 116.232 146.152 116.283 146.152 116.279C146.004 116.248 145.851 116.263 145.713 116.323C145.575 116.384 145.46 116.485 145.382 116.614C145.253 116.831 145.148 117.061 145.07 117.3C145.037 117.375 144.902 117.351 144.92 117.263C144.799 116.213 145.438 114.684 146.539 114.464Z" fill="#263238"/>
<path d="M20.2373 62.1293C21.7111 62.8989 21.9956 65.5574 26.6783 65.3941C27.3452 65.3941 27.8863 65.1096 28.5019 65.3335C29.3927 65.6646 30.1017 66.3782 30.8992 66.9006C31.5404 67.3282 32.2683 67.6086 33.0307 67.7215C34.4995 67.8963 35.9835 67.555 37.2283 66.756C37.9932 66.2896 38.6275 65.632 39.3784 65.1189C40.1293 64.6059 44.5975 63.5285 45.3484 61.0146C45.8148 59.4148 45.7541 57.5959 43.8559 55.2592C43.4169 54.8439 43.1172 54.3031 42.9977 53.7108C43.001 53.1903 43.1205 52.6772 43.3475 52.2089C43.6101 51.676 43.7045 51.0757 43.618 50.4879C43.4065 49.9285 43.0662 49.4267 42.6246 49.0234C41.925 48.1792 42.0556 46.9526 42.6246 45.4461C42.8469 44.808 42.9204 44.1274 42.8396 43.4565C42.7587 42.7856 42.5257 42.1421 42.1582 41.575C41.6973 40.9225 41.1532 40.3329 40.5398 39.8213C39.6862 39.0098 39.5277 38.2542 39.1406 37.1115C38.4176 34.9054 37.2749 33.9166 35.9364 33.2404C34.733 32.6294 34.775 32.8626 33.4784 33.0585C32.1692 32.262 30.6286 31.9332 29.1082 32.1257C27.709 32.3029 26.529 33.2544 25.461 34.1592C24.5282 34.9707 23.6373 35.8429 23.5954 37.2094C23.5674 37.9977 23.7586 38.7766 23.7213 39.5415C23.6747 40.5442 23.115 41.1785 22.448 41.8082C21.4579 42.6526 20.7743 43.8003 20.5031 45.073C20.3306 46.141 21.3753 47.7921 20.1487 49.3732C19.0619 50.7724 17.1544 52.3675 16.6553 54.1259C15.1115 59.6061 18.8194 61.3971 20.2373 62.1293Z" fill="#263238"/>
<path d="M38.3522 65.0629C40.5023 64.7411 43.8044 65.1422 44.9471 62.7309C45.3988 62.3619 45.7563 61.8907 45.9898 61.3563C46.2234 60.8218 46.3264 60.2394 46.2903 59.6573C46.2251 58.3887 45.4835 57.288 44.6673 56.3925C44.1396 55.8991 43.6801 55.3376 43.3007 54.7228C43.1794 54.2443 43.0906 53.7581 43.0349 53.2676C43.1262 52.6401 43.2987 52.0271 43.5479 51.444C43.5479 51.4206 43.5479 51.444 43.5479 51.444C43.0815 52.4327 42.6431 53.5334 43.0815 54.6341C43.1432 54.7955 43.218 54.9515 43.3054 55.1005C43.4602 55.6807 43.6743 56.2433 43.9443 56.7796C44.6533 58.1788 45.2969 59.4521 45.2036 61.0892C45.1844 61.6357 45.0527 62.1723 44.8165 62.6656C43.8869 63.4805 42.7259 63.9844 41.4957 64.1068C41.4678 64.1068 41.4631 64.1627 41.4957 64.1581C42.6087 64.0451 43.6761 63.6572 44.602 63.0294C43.352 64.8157 40.4557 64.5778 38.3569 64.9883C38.2869 65.0023 38.3102 65.0722 38.3522 65.0629ZM45.1104 62.3298V62.2831C45.4772 60.9619 45.3818 59.555 44.8398 58.2954C44.4994 57.4605 43.991 56.7096 43.6552 55.8701C43.5992 55.7255 43.5432 55.5763 43.4966 55.4317C43.963 56.0847 44.6253 56.6303 45.0917 57.2693C46.1178 58.6685 46.4163 60.3242 45.4648 61.8307C45.3579 62.0048 45.2394 62.1715 45.1104 62.3298Z" fill="#263238"/>
<path d="M15.6058 59.5315C15.6338 59.5781 15.6991 59.5315 15.6758 59.4895C14.743 57.9131 15.0228 56.2947 15.7504 54.8488C15.4006 57.0083 15.8251 59.4289 17.8026 60.5902C17.8352 60.5902 17.8632 60.5576 17.8306 60.5389C15.7877 59.3123 15.4986 56.5185 16.0303 54.3358C16.483 53.5903 17.0129 52.8947 17.6114 52.2603C18.5442 51.2529 19.7195 50.2548 20.4098 48.9955C20.2677 49.7261 19.8545 50.3759 19.2531 50.8144C19.2158 50.8424 19.2531 50.903 19.2858 50.8797C19.937 50.441 20.4023 49.7762 20.5917 49.0141C20.6216 48.8603 20.6387 48.7043 20.643 48.5477C20.82 48.1429 20.9348 47.7136 20.9835 47.2744C20.9275 47.6665 20.8193 48.0492 20.6616 48.4125C20.5802 47.7334 20.4238 47.0655 20.1952 46.4209C19.6915 44.5553 20.6337 43.4406 21.795 42.4379C21.8883 42.3772 21.9816 42.3166 22.0795 42.2606C22.7137 41.9294 23.2482 41.4352 23.628 40.8288C23.7072 40.7448 23.7865 40.6609 23.8612 40.5722C23.8612 40.5722 23.7352 40.6982 23.6746 40.7588C23.7571 40.5856 23.8212 40.4043 23.8658 40.2178C23.7429 40.533 23.5644 40.8237 23.3388 41.076C22.8724 41.4631 22.364 41.8175 21.8743 42.1907C20.9415 42.7503 20.0413 43.282 19.6869 44.3967C19.3324 45.5114 19.6122 46.5982 19.6869 47.6616C19.8175 49.3313 19.2205 50.7258 17.7 51.3928C17.7 51.3928 17.672 51.4301 17.7 51.4208C17.8158 51.3889 17.9295 51.35 18.0405 51.3042C17.1056 51.9819 16.3904 52.9193 15.9836 54C14.9202 55.637 14.4725 57.7545 15.6058 59.5315ZM19.5003 50.1381L18.9873 50.5346C19.2296 50.2502 19.4191 49.9249 19.5469 49.5738C19.9667 48.3891 19.6169 47.1019 19.5889 45.8846C19.5474 45.3738 19.6301 44.8606 19.8298 44.3888C20.0296 43.9169 20.3406 43.5004 20.7363 43.1748C20.3882 43.5644 20.1274 44.024 19.9714 44.5227C19.7055 45.4228 19.9714 46.2577 20.2419 47.1205C20.4222 47.664 20.4904 48.2383 20.4424 48.8089C20.176 49.281 19.8602 49.7235 19.5003 50.1288V50.1381ZM16.3568 53.403C16.8873 52.447 17.6194 51.6179 18.5022 50.973L18.6794 50.8238C18.922 50.6279 19.1458 50.432 19.3977 50.2314C18.4043 51.3461 17.1963 52.3209 16.3568 53.4123V53.403Z" fill="#263238"/>
<path d="M40.2598 39.5134C41.0613 40.2099 41.8242 40.9495 42.5452 41.7288C43.0494 42.2375 43.3511 42.9122 43.3941 43.6271C43.4139 44.3479 43.1868 45.0539 42.7504 45.628C42.5872 45.8705 42.4286 46.1177 42.284 46.3695C42.2503 46.8355 42.3237 47.3029 42.4986 47.7361C42.8484 48.5616 43.6273 49.07 43.9911 49.9049C44.5741 51.2574 43.9258 52.3675 43.3568 53.5801C43.7672 52.5913 44.3455 51.6119 44.0284 50.4925C43.7672 49.5597 43.0956 49.0933 42.5919 48.3331C42.2831 47.8606 42.1119 47.3115 42.0975 46.7473C41.6311 47.6801 41.4911 48.6129 42.284 49.5737C42.3213 49.6204 42.284 49.681 42.2281 49.639C41.2206 48.6176 41.4865 47.3816 42.1021 46.3042C42.1404 45.6642 42.2805 45.0345 42.5172 44.4386C42.5452 44.378 42.6338 44.4386 42.6198 44.4853C42.5312 44.9517 42.4146 45.4181 42.3493 45.8845L42.4519 45.7306C43.2588 44.5832 43.5666 43.2493 42.6478 41.9994C41.9575 41.0665 41.0154 40.3623 40.2458 39.5181C40.2499 39.5151 40.2548 39.5134 40.2598 39.5134Z" fill="#263238"/>
<path d="M66.84 199.452C65.7719 199.788 34.5323 199.112 33.3943 198.351C32.9559 198.067 35.6284 168.478 35.6284 168.478L55.4411 168.856L53.1884 188.65C53.1884 188.65 64.7132 194.112 65.8839 195.082C67.0545 196.052 67.9127 199.116 66.84 199.452Z" fill="#AD6359"/>
<path d="M66.8402 199.452C65.7722 199.783 34.5326 199.112 33.3945 198.347C33.2546 198.263 33.2126 195.259 33.7117 191.351C39.3738 192.284 59.597 195.404 61.1688 194.476C62.2648 193.832 61.2947 192.825 60.3946 192.144C62.9784 193.431 65.3851 194.672 65.8841 195.087C67.0408 196.043 67.9083 199.116 66.8402 199.452Z" fill="#263238"/>
<path d="M53.7481 183.902L34.2992 183.627C34.2992 183.627 38.1516 137.043 37.9884 136.147C37.7878 135 23.9963 80.8926 23.9963 80.8926H42.5591C42.5591 80.8926 57.1948 131.325 57.7219 136.185C58.5614 144.029 53.7481 183.902 53.7481 183.902Z" fill="#37474F"/>
<path d="M36.0482 179.234C37.1955 179.154 38.3802 179.168 39.5089 179.15C40.6376 179.131 41.8176 179.15 42.9696 179.15C45.3016 179.173 47.5823 179.206 49.8863 179.271C50.5206 179.271 51.1503 179.308 51.7799 179.336C52.4095 179.364 53.1278 179.485 53.7994 179.509C53.8507 179.509 53.8507 179.593 53.7994 179.593C53.2304 179.593 52.6661 179.681 52.0971 179.695C51.528 179.709 50.9217 179.719 50.3341 179.719C49.182 179.719 48.002 179.719 46.8734 179.719C44.5693 179.719 42.2606 179.667 39.9566 179.574C38.6553 179.518 37.3401 179.504 36.0435 179.374C36.0249 179.373 36.0074 179.365 35.9947 179.351C35.982 179.338 35.9753 179.32 35.9759 179.301C35.9765 179.283 35.9845 179.265 35.998 179.252C36.0116 179.24 36.0296 179.233 36.0482 179.234Z" fill="#263238"/>
<path d="M28.068 85.263C29.7284 91.1443 31.2489 97.0769 32.732 102.986C34.2152 108.896 35.703 114.852 37.1815 120.784L39.3922 129.706C40.1105 132.593 40.9454 135.499 41.1272 138.484C41.3091 141.469 40.922 144.575 40.6608 147.598C40.3997 150.62 40.1478 153.661 39.882 156.706C39.3503 162.77 38.8419 168.861 38.1796 174.924C38.0956 175.684 38.0163 176.445 37.9371 177.2C37.9371 177.265 37.8298 177.265 37.8345 177.2C38.2402 171.137 38.66 165.046 39.145 158.973C39.3876 155.938 39.6348 152.901 39.8866 149.86C40.1338 146.828 40.4883 143.796 40.5816 140.746C40.6748 137.696 40.1152 134.739 39.3782 131.777C38.6413 128.816 37.9231 125.971 37.1955 123.065C35.7123 117.135 34.2307 111.203 32.7507 105.267C31.1043 98.6254 29.4579 91.9652 28.0027 85.277C28.0008 85.2683 28.0025 85.2593 28.0073 85.2518C28.0121 85.2444 28.0197 85.2392 28.0283 85.2373C28.037 85.2355 28.046 85.2371 28.0535 85.2419C28.0609 85.2467 28.0661 85.2543 28.068 85.263Z" fill="#263238"/>
<path d="M24.001 80.8926C24.001 80.8926 29.9196 104.105 34.0613 120.448L41.9621 80.8926H24.001Z" fill="#263238"/>
<path d="M43.5151 199.517C42.4424 199.853 11.2075 199.177 10.0648 198.417C9.62635 198.137 11.2588 168.53 11.2588 168.53L30.8057 168.907L29.8729 188.72C29.8729 188.72 41.4023 194.177 42.5683 195.147C43.7343 196.117 44.5832 199.191 43.5151 199.517Z" fill="#AD6359"/>
<path d="M43.5154 199.517C42.4473 199.853 11.203 199.177 10.065 198.417C9.9251 198.328 9.95775 195.404 10.065 191.421C15.7271 192.353 36.2628 195.478 37.8346 194.55C38.9353 193.907 37.9605 192.894 37.065 192.218C39.6442 193.505 42.0509 194.741 42.5499 195.157C43.7113 196.113 44.5834 199.191 43.5154 199.517Z" fill="#263238"/>
<path d="M41.9484 80.888C41.9484 80.888 41.4074 89.7496 39.2899 96.769C39.1173 97.3473 38.9354 97.921 38.7349 98.4667C36.8629 99.195 35.0614 100.093 33.3526 101.148C33.3526 101.148 32.014 135.098 32.0373 137.206C32.126 145.093 30.1111 183.51 30.1111 183.51L10.5222 183.324C10.5222 183.324 12.5557 139.879 12.5651 136.991C12.5651 134.193 13.899 116.568 15.079 101.284C15.079 101.284 13.3346 96.4005 13.5305 93.9379C13.9969 87.9586 16.6787 80.8787 16.6787 80.8787L41.9484 80.888Z" fill="#37474F"/>
<path d="M37.6667 92.8092C37.7366 92.3149 37.8113 91.8251 37.8859 91.3354C38.0258 90.4353 38.2077 89.5398 38.3523 88.6443C38.7114 86.6108 39.0845 84.5679 39.5369 82.5531C39.5369 82.5064 39.6302 82.5158 39.6256 82.5531C39.5416 83.3693 39.4483 84.1808 39.3364 84.9877C39.2245 85.7946 39.1405 86.6154 39.0239 87.427C38.8 89.0314 38.5575 90.6405 38.301 92.2402C38.1937 92.8559 37.8346 93.9613 38.6974 94.1525C39.4017 94.3064 39.9147 93.6161 40.1246 93.0378C40.3407 92.3118 40.4967 91.5693 40.591 90.8177C40.7356 90.0062 40.8615 89.19 40.9781 88.3784C41.23 86.5999 41.502 84.826 41.7943 83.0568C41.7943 83.0101 41.8829 83.0241 41.8783 83.0568C41.8411 84.875 41.7103 86.6902 41.4865 88.495C41.3746 89.3625 41.244 90.2254 41.0947 91.0836C41.0086 91.9107 40.8093 92.722 40.5024 93.4949C40.3758 93.7983 40.1749 94.0651 39.9182 94.2705C39.6614 94.4759 39.3571 94.6133 39.0332 94.6702H38.9913C39.0006 94.6749 39.0083 94.6823 39.0133 94.6915C39.0183 94.7006 39.0203 94.7111 39.0192 94.7215C39.0192 95.006 39.0192 95.2998 38.9866 95.5843C38.9539 95.8688 38.898 96.1533 38.842 96.4332C38.7926 96.7202 38.7193 97.0026 38.6228 97.2774C38.5792 97.4109 38.5278 97.5417 38.4689 97.6692C38.4036 97.7998 38.315 97.9024 38.2403 98.0236C38.2355 98.0352 38.2265 98.0445 38.2152 98.05C38.2039 98.0554 38.191 98.0565 38.179 98.053C38.1669 98.0496 38.1565 98.0418 38.1498 98.0313C38.1431 98.0207 38.1404 98.008 38.1424 97.9956C38.1424 97.949 38.1424 97.9024 38.1424 97.8557V97.8277C38.1378 97.7438 38.1378 97.6598 38.1424 97.5759C38.1424 97.436 38.1984 97.3007 38.2264 97.1654C38.287 96.8903 38.3616 96.6198 38.4362 96.3492C38.5109 96.0787 38.5668 95.8035 38.6368 95.533C38.7067 95.2625 38.8 94.978 38.8653 94.6982C38.8631 94.689 38.8631 94.6794 38.8653 94.6702C38.6048 94.6833 38.3466 94.616 38.1255 94.4776C37.9045 94.3391 37.7313 94.1361 37.6294 93.896C37.5501 93.5364 37.563 93.1626 37.6667 92.8092Z" fill="#263238"/>
<path d="M31.7664 101.825C32.3501 101.375 32.9658 100.968 33.6087 100.607C34.2866 100.201 34.9891 99.836 35.7122 99.5161C37.1114 98.9004 38.5946 98.4807 40.0591 97.9956C40.101 97.9956 40.1337 98.0562 40.087 98.0702C38.6878 98.6346 37.3119 99.3855 35.9407 100.057C35.2691 100.384 34.5835 100.701 33.8979 100.99C33.2123 101.279 32.5267 101.648 31.8177 101.923C31.7664 101.941 31.7245 101.857 31.7664 101.825Z" fill="#263238"/>
<path d="M20.6942 89.4605C21.6927 89.4509 22.6861 89.3162 23.6512 89.0594C24.1176 88.9475 24.5373 88.8029 24.9711 88.663C25.4043 88.5416 25.8098 88.3373 26.1651 88.0613C26.8367 87.483 27.1492 86.5688 27.443 85.762C27.7614 84.8469 28.02 83.9121 28.2172 82.9636C28.2172 82.9169 28.2965 82.9309 28.2965 82.9636C28.3196 84.0347 28.1845 85.1034 27.8954 86.1351C27.6529 87.0119 27.3311 88.0007 26.6221 88.607C25.8354 89.1952 24.893 89.539 23.9123 89.5958C22.8406 89.7202 21.7572 89.7046 20.6895 89.5492C20.682 89.5442 20.6759 89.5374 20.6718 89.5294C20.6677 89.5214 20.6659 89.5125 20.6663 89.5035C20.6668 89.4945 20.6696 89.4858 20.6745 89.4783C20.6794 89.4708 20.6862 89.4646 20.6942 89.4605Z" fill="#263238"/>
<path d="M11.3661 179.523C12.5134 179.439 13.6981 179.453 14.8268 179.439C15.9555 179.425 17.1588 179.439 18.2875 179.439C20.5978 179.457 22.9049 179.498 25.2089 179.56C25.8386 179.56 26.4682 179.597 27.0745 179.625C27.6808 179.653 28.4224 179.77 29.094 179.798C29.1004 179.796 29.1071 179.795 29.1138 179.796C29.1204 179.797 29.1267 179.8 29.1322 179.803C29.1376 179.807 29.1421 179.812 29.1451 179.818C29.1482 179.824 29.1498 179.831 29.1498 179.838C29.1498 179.844 29.1482 179.851 29.1451 179.857C29.1421 179.863 29.1376 179.868 29.1322 179.872C29.1267 179.876 29.1204 179.878 29.1138 179.879C29.1071 179.88 29.1004 179.879 29.094 179.877C28.5297 179.877 27.9607 179.971 27.3917 179.985C26.8227 179.999 26.2163 180.008 25.6287 180.008H22.168C19.8639 180.008 17.5553 179.957 15.2512 179.859C13.95 179.807 12.6347 179.789 11.3381 179.663C11.3196 179.659 11.3032 179.648 11.2927 179.632C11.2822 179.617 11.2784 179.597 11.2821 179.579C11.2859 179.56 11.2968 179.544 11.3125 179.533C11.3283 179.523 11.3475 179.519 11.3661 179.523Z" fill="#263238"/>
<path d="M13.7402 176.971C13.7091 176.97 13.6786 176.963 13.6505 176.95C13.6223 176.937 13.5971 176.918 13.5762 176.895C13.5554 176.872 13.5393 176.845 13.529 176.816C13.5187 176.786 13.5144 176.755 13.5163 176.724L17.9425 100.701C17.8865 100.37 16.6365 96.1206 16.5433 93.9519C16.4267 91.6618 18.8006 82.7256 18.8753 82.3431C18.8927 82.2823 18.9332 82.2308 18.9881 82.1994C19.0429 82.1681 19.1079 82.1594 19.1691 82.1752C19.1995 82.1833 19.228 82.1974 19.253 82.2166C19.2779 82.2358 19.2988 82.2597 19.3144 82.287C19.33 82.3144 19.3401 82.3445 19.344 82.3758C19.3478 82.407 19.3455 82.4387 19.337 82.469C19.337 82.5576 16.8837 91.7085 17.005 93.9285C17.1263 96.1486 18.4042 100.612 18.4042 100.649C18.4042 100.687 13.978 176.748 13.978 176.748C13.9734 176.808 13.9464 176.864 13.9024 176.906C13.8585 176.947 13.8006 176.97 13.7402 176.971Z" fill="#263238"/>
<path d="M35.8849 54.4011C45.4555 62.8197 54.3171 72.0731 55.0774 76.8398C56.1035 83.4347 52.0598 85.3143 50.2408 85.3516C45.2829 85.4542 36.0482 65.4642 32.83 57.8339C29.7051 50.4134 33.7955 52.5355 35.8849 54.4011Z" fill="#339015"/>
<path d="M42.4377 80.8881L41.1038 72.4928C41.1038 72.4928 44.4199 69.0554 42.7083 65.4595C41.8407 63.6358 35.9408 54.7322 32.7925 52.5121C29.8402 50.418 26.3375 52.1577 25.0223 54.4244C21.7155 60.1472 18.5673 66.7234 16.655 80.8834L42.4377 80.8881Z" fill="#339015"/>
<path d="M37.1677 71.4201C35.8284 71.5658 34.5018 71.8106 33.1986 72.1524C32.5503 72.3343 31.9207 72.5395 31.2864 72.7634C30.9739 72.8753 30.6567 72.9733 30.3536 73.0712C30.0232 73.1845 29.6802 73.2566 29.3322 73.2858C29.326 73.2858 29.32 73.2882 29.3157 73.2926C29.3113 73.297 29.3088 73.3029 29.3088 73.3091C29.3088 73.3153 29.3113 73.3212 29.3157 73.3256C29.32 73.3299 29.326 73.3324 29.3322 73.3324C29.6607 73.3433 29.9895 73.3308 30.3163 73.2951C30.6316 73.2527 30.9434 73.1872 31.2491 73.0992C31.9067 72.9266 32.5503 72.7167 33.208 72.5348C34.5279 72.1711 35.8478 71.8026 37.191 71.5321C37.2059 71.529 37.2189 71.5201 37.2272 71.5074C37.2355 71.4948 37.2384 71.4793 37.2353 71.4645C37.2323 71.4496 37.2234 71.4366 37.2107 71.4283C37.198 71.42 37.1826 71.4171 37.1677 71.4201Z" fill="#263238"/>
<path d="M40.5117 72.5442C39.4029 72.4479 38.2894 72.4167 37.1769 72.4509C36.6219 72.4509 36.0716 72.5162 35.5165 72.5815L34.7283 72.6841C34.4391 72.7307 34.1546 72.81 33.8655 72.8473C33.8375 72.8473 33.8375 72.8987 33.8655 72.8987C34.1406 72.8707 34.4205 72.8987 34.6957 72.8987L35.5259 72.8567L37.1909 72.7867C38.2963 72.7261 39.4017 72.6794 40.5117 72.6561C40.5265 72.6561 40.5408 72.6502 40.5513 72.6397C40.5618 72.6292 40.5677 72.615 40.5677 72.6002C40.5677 72.5853 40.5618 72.5711 40.5513 72.5606C40.5408 72.5501 40.5265 72.5442 40.5117 72.5442Z" fill="#263238"/>
<path d="M24.6866 53.5661C15.783 60.5621 7.02862 72.6559 6.96332 79.4141C6.90269 86.0883 9.22537 85.4447 9.88767 85.398C13.9174 85.1369 23.4133 66.5601 26.305 58.9857C29.1967 51.4113 26.888 51.8357 24.6866 53.5661Z" fill="#339015"/>
<path d="M15.2466 80.1838C15.713 79.3443 16.1794 78.5141 16.6458 77.6652L18.045 75.1373C18.9778 73.4536 19.9106 71.7699 20.7828 70.0675C21.6549 68.3652 22.5877 66.6815 23.4692 64.9744C23.9139 64.1225 24.3445 63.2643 24.7612 62.3999C25.1949 61.5417 25.5914 60.6695 25.9971 59.7974C25.3568 61.6136 24.6172 63.3932 23.7817 65.1283C22.9655 66.8727 22.0747 68.5797 21.1839 70.2821C20.2931 71.9844 19.3183 73.6588 18.3482 75.3099C17.378 76.961 16.352 78.6074 15.2466 80.1838Z" fill="#263238"/>
<path d="M25.0457 62.036C25.2094 61.7333 25.3933 61.442 25.596 61.1639C25.6986 61.0239 25.7919 60.884 25.8992 60.7534C26.0011 60.6128 26.1101 60.4774 26.2257 60.3477C26.1416 60.6842 25.9927 61.001 25.7872 61.2805C25.589 61.5761 25.3375 61.8323 25.0457 62.036Z" fill="#263238"/>
<path d="M52.2882 67.0638C51.8218 63.9343 50.889 59.5641 49.751 58.6686C48.613 57.7731 44.2521 54.5502 43.0161 54.1351C41.7802 53.7201 36.2486 51.6865 35.2412 52.2695C34.439 52.7359 35.4231 54.8627 38.0396 55.8562C39.4661 56.4299 40.857 57.0888 42.2046 57.8291C42.8809 58.1089 44.5366 60.2683 44.0702 61.2338C43.8183 61.8028 42.1719 62.4884 41.1412 62.036C40.1104 61.5836 39.8353 59.5547 38.6553 58.608C37.4753 57.6612 35.3905 57.8011 35.2925 58.3608C35.1946 58.9204 35.8662 59.177 36.9436 61.0612C37.6385 62.2739 37.7131 65.2029 39.2756 67.283C40.0767 68.5168 40.801 69.7987 41.4443 71.1215L52.2882 67.0638Z" fill="#AD6359"/>
<path d="M37.5826 57.7591C37.202 57.7038 36.8447 57.5421 36.5519 57.2927C36.436 57.1788 36.3537 57.0352 36.314 56.8776C36.3023 56.791 36.3023 56.7031 36.314 56.6165C36.3165 56.5237 36.3512 56.4347 36.412 56.3646C36.412 56.3226 36.412 56.3646 36.412 56.3646C36.3835 56.4085 36.3524 56.4505 36.3187 56.4905C36.2939 56.5269 36.2736 56.566 36.258 56.6071C36.2301 56.6898 36.2159 56.7764 36.2161 56.8636C36.2277 57.0567 36.3031 57.2405 36.4306 57.386C36.5821 57.5412 36.7675 57.659 36.9723 57.7302C37.177 57.8015 37.3956 57.8241 37.6106 57.7965C37.6106 57.7965 37.6013 57.7638 37.5826 57.7591Z" fill="#263238"/>
<path d="M49.7512 58.6593C48.7391 57.1016 46.1552 54.3078 43.618 53.361C41.9016 52.7267 36.0483 55.651 36.2348 56.7751C36.4214 57.8991 37.4195 57.8898 38.9073 57.7079C39.4483 57.6379 42.3027 56.5745 42.7971 57.1715C43.5107 58.0297 44.4342 60.9727 44.4342 60.9727L49.7512 58.6593Z" fill="#AD6359"/>
<path d="M36.3747 56.3319C37.0883 55.1239 38.6787 54.4662 40.2645 53.9392C40.2645 53.9392 40.3018 53.9672 40.2645 53.9765C39.8587 54.1118 37.2842 55.3291 36.3794 56.3505C36.384 56.3645 36.3654 56.3458 36.3747 56.3319Z" fill="#263238"/>
<path d="M49.7512 58.6593C48.7391 57.1015 46.1552 54.3078 43.618 53.361C41.9016 52.7267 37.2889 56.4392 37.4708 57.5586C37.6527 58.6779 39.0985 58.7526 40.689 58.1836C41.202 57.997 42.9184 56.761 43.4128 57.358C44.1217 58.2162 45.8567 60.343 45.8567 60.343L49.7512 58.6593Z" fill="#AD6359"/>
<path d="M44.8538 59.0278C44.6953 58.7853 44.6393 58.6967 44.4714 58.4541C44.3035 58.2116 44.1309 57.9877 43.949 57.7452C43.8051 57.5322 43.6252 57.346 43.4173 57.1948C43.2024 57.073 42.9526 57.027 42.7084 57.0642C42.1605 57.1835 41.6439 57.4172 41.1926 57.7499C40.4625 58.2097 39.6206 58.4613 38.7579 58.4774C38.5293 58.4649 38.3057 58.4061 38.1003 58.3049C37.9452 58.2358 37.8092 58.1302 37.7039 57.9971C37.3354 57.3861 37.7785 56.6818 38.2356 56.1827C39.1337 55.2753 40.1894 54.5389 41.3511 54.0093L42.1767 53.6082C42.4878 53.4391 42.8311 53.3374 43.1841 53.3097C43.7624 53.3097 44.7139 53.8787 45.0124 54.0513C45.0124 54.0513 45.0497 54.028 45.0124 54.014C44.6579 53.7994 43.7671 53.0812 42.8343 53.1418C42.4949 53.1975 42.1681 53.3127 41.8688 53.4823C41.5424 53.6222 41.2252 53.7808 40.9081 53.9487C40.2921 54.2603 39.7012 54.6189 39.1404 55.0214C38.5788 55.3946 38.0917 55.869 37.7039 56.4206C37.5401 56.6644 37.4458 56.9482 37.431 57.2415C37.4162 57.5348 37.4815 57.8266 37.6199 58.0857C37.7449 58.2483 37.9041 58.3815 38.0862 58.4758C38.2684 58.5701 38.469 58.6232 38.674 58.6314C38.9186 58.6638 39.1663 58.6638 39.4109 58.6314C39.9516 58.5143 40.4831 58.3584 41.0013 58.165C41.5051 57.9597 41.9575 57.6146 42.4798 57.4514C42.6021 57.4071 42.7321 57.388 42.8619 57.3952C42.9917 57.4024 43.1188 57.4358 43.2354 57.4933C43.4485 57.6346 43.6401 57.8058 43.8044 58.0017C44.1484 58.341 44.4606 58.711 44.7372 59.1071C44.8492 59.1677 44.9238 59.1304 44.8538 59.0278Z" fill="#263238"/>
<path d="M50.5069 59.9979C50.1338 59.2564 49.4808 56.1921 48.8791 55.2593C48.2775 54.3265 45.535 51.0943 44.2758 51.2482C42.69 51.4395 44.3737 54.2845 45.2086 55.4459C46.0434 56.6072 45.9315 58.6221 45.9315 58.6221L50.5069 59.9979Z" fill="#AD6359"/>
<path d="M44.0564 53.5336C44.3516 53.9125 44.6272 54.3064 44.882 54.7136C45.1501 55.0831 45.3917 55.4712 45.6049 55.8749C45.7848 56.2953 45.8921 56.7432 45.922 57.1995C45.9454 57.4234 45.9547 57.6659 45.9594 57.8665C45.964 58.067 45.9594 58.3329 45.9594 58.5941C45.9594 58.6174 45.9174 58.622 45.9174 58.5941C45.8827 58.1522 45.8204 57.7129 45.7308 57.2788C45.6473 56.8285 45.5095 56.39 45.3204 55.9729C44.9379 55.1473 44.3876 54.4104 44.0005 53.5849C43.9678 53.5289 44.0145 53.5056 44.0564 53.5336Z" fill="#263238"/>
<path d="M45.9219 58.9858C45.9842 59.7523 45.8527 60.5222 45.5395 61.2246C45.3959 61.5802 45.2292 61.9261 45.0404 62.26C44.8424 62.5831 44.626 62.8946 44.3921 63.1928C43.4522 64.3375 42.8555 65.7249 42.6711 67.1945C42.6074 66.4325 42.6946 65.6654 42.9276 64.9371C43.1747 64.2071 43.5437 63.5243 44.019 62.9176C44.4729 62.338 44.8652 61.7128 45.1897 61.052C45.5457 60.4082 45.7931 59.7101 45.9219 58.9858Z" fill="#263238"/>
<path d="M49.7792 85.1229C46.6823 84.7032 44.6488 79.5261 41.1228 70.422C40.5025 68.8222 48.5852 58.9998 49.6952 60.4643C51.0944 62.3299 54.8257 72.5907 55.2034 75.3891C55.9777 80.9207 53.3845 85.608 49.7792 85.1229Z" fill="#AD6359"/>
<path d="M42.9929 75.5009L52.9693 65.8044C52.9693 65.8044 55.805 74.1484 55.5391 77.6464C55.2733 81.1444 54.056 85.1088 49.8444 85.3514C46.6915 85.5146 42.9929 75.5009 42.9929 75.5009Z" fill="#339015"/>
<path d="M46.2158 82.2125C45.8566 81.7041 45.5348 81.1678 45.2223 80.6314C44.9098 80.095 44.6207 79.54 44.3362 78.985C44.0517 78.43 43.7998 77.8656 43.5666 77.2826C43.3238 76.7066 43.1319 76.1104 42.9929 75.501C43.2541 76.0653 43.5339 76.6203 43.8138 77.1707L44.6533 78.8311C44.9238 79.3861 45.199 79.9411 45.4602 80.5055C45.7214 81.0698 45.9826 81.6342 46.2158 82.2125Z" fill="#263238"/>
<path d="M45.1383 77.1942C45.6047 76.6625 46.1551 76.1681 46.6681 75.6644C47.1812 75.1607 47.7035 74.6663 48.2306 74.1766C49.2846 73.1909 50.3449 72.2177 51.4114 71.2569C51.7053 70.9957 51.9991 70.7299 52.2976 70.4733C52.5961 70.2168 52.9692 69.9603 53.2817 69.6851C53.2869 69.6826 53.2928 69.6818 53.2985 69.6828C53.3042 69.6838 53.3095 69.6865 53.3135 69.6906C53.3176 69.6947 53.3204 69.6999 53.3213 69.7056C53.3223 69.7113 53.3215 69.7172 53.319 69.7224C53.0625 69.965 52.8526 70.2495 52.5914 70.5013C52.3302 70.7532 52.069 71.0144 51.8032 71.2662L50.2361 72.7494C49.182 73.7288 48.128 74.7083 47.0459 75.6551C46.4349 76.1914 45.8333 76.7464 45.1803 77.2455C45.1736 77.2469 45.1666 77.2465 45.1602 77.2442C45.1537 77.2419 45.148 77.2379 45.1437 77.2326C45.1394 77.2273 45.1366 77.2209 45.1356 77.2141C45.1347 77.2074 45.1356 77.2005 45.1383 77.1942Z" fill="#263238"/>
<path d="M26.9114 52.4936C26.9114 52.4936 28.721 57.0969 29.318 57.624C29.915 58.151 34.9941 57.8572 35.1061 57.4374C35.218 57.0177 32.9653 52.8294 32.9653 52.8294C31.8556 52.3017 30.6624 51.9718 29.4393 51.8546C28.5484 51.7727 27.6563 51.9982 26.9114 52.4936Z" fill="#AD6359"/>
<path d="M27.3358 52.7966C27.4104 53.3097 29.5139 56.8077 32.2983 56.6351C33.9214 56.5372 32.816 53.305 32.816 53.305L34.2153 48.8882L28.8703 44.8025C28.8703 44.8025 27.3078 52.5821 27.3358 52.7966Z" fill="#AD6359"/>
<path d="M28.3013 47.7082C28.6596 48.8677 29.2522 49.9412 30.0425 50.8622C30.8327 51.7832 31.8038 52.5321 32.8953 53.0625L34.2199 48.8882L28.8749 44.8025C28.8749 44.8025 28.6138 46.1177 28.3013 47.7082Z" fill="#263238"/>
<path d="M40.5164 42.6802C40.675 50.2732 36.1462 51.2247 34.5092 51.2573C33.0213 51.29 27.9795 51.1967 27.0141 43.6597C26.0486 36.1226 29.5513 33.6507 32.9467 33.3988C36.3421 33.147 40.3579 35.0825 40.5164 42.6802Z" fill="#AD6359"/>
<path d="M38.7347 42.0694C38.5644 42.0298 38.3963 41.9815 38.2309 41.9248C38.0529 41.8947 37.8894 41.808 37.7645 41.6776C37.7325 41.6269 37.7178 41.5671 37.7229 41.5073C37.728 41.4475 37.7524 41.3911 37.7925 41.3465C37.8843 41.2712 37.9944 41.2217 38.1115 41.2029C38.2287 41.184 38.3487 41.1965 38.4595 41.2392C38.6993 41.2931 38.9105 41.4344 39.0518 41.6356C39.0826 41.6846 39.0979 41.7418 39.0959 41.7996C39.0939 41.8574 39.0745 41.9133 39.0403 41.9601C39.0062 42.0068 38.9588 42.0422 38.9043 42.0617C38.8498 42.0811 38.7907 42.0838 38.7347 42.0694Z" fill="#263238"/>
<path d="M33.5343 41.8362C33.7082 41.8244 33.8812 41.801 34.052 41.7663C34.2389 41.7676 34.421 41.7069 34.5697 41.5937C34.606 41.547 34.6257 41.4896 34.6257 41.4305C34.6257 41.3713 34.606 41.3139 34.5697 41.2672C34.49 41.178 34.3878 41.1119 34.2737 41.0758C34.1596 41.0397 34.038 41.0349 33.9214 41.062C33.6977 41.0845 33.4886 41.1833 33.3291 41.3418C33.2884 41.3823 33.2606 41.4339 33.2493 41.4902C33.238 41.5465 33.2437 41.6049 33.2657 41.6579C33.2878 41.7109 33.3251 41.7562 33.3729 41.788C33.4207 41.8197 33.4769 41.8365 33.5343 41.8362Z" fill="#263238"/>
<path d="M34.4766 43.8323C34.4766 43.8323 34.4346 43.8323 34.4346 43.8742C34.4346 44.392 34.3227 44.9843 33.8469 45.1335V45.1615C34.4253 45.1102 34.5465 44.3267 34.4766 43.8323Z" fill="#263238"/>
<path d="M34.0428 43.268C33.2126 43.1654 33.0633 44.8258 33.8282 44.9237C34.5931 45.0217 34.7284 43.3566 34.0428 43.268Z" fill="#263238"/>
<path d="M33.7069 43.3286C33.553 43.4079 33.3944 43.5618 33.2405 43.5618C33.0866 43.5618 32.9 43.3752 32.7741 43.198C32.7741 43.198 32.7461 43.198 32.7415 43.198C32.7088 43.5152 32.8021 43.851 33.1379 43.9303C33.4737 44.0095 33.6976 43.739 33.8049 43.4265C33.7955 43.3892 33.7676 43.2959 33.7069 43.3286Z" fill="#263238"/>
<path d="M37.5966 43.8835C37.5966 43.8835 37.6339 43.9115 37.6339 43.9348C37.5639 44.4479 37.5732 45.0449 38.0256 45.2641C38.0256 45.2641 38.0256 45.2967 38.0256 45.2921C37.4566 45.1568 37.452 44.3593 37.5966 43.8835Z" fill="#263238"/>
<path d="M38.1096 43.394C38.9445 43.394 38.8465 45.0777 38.0723 45.059C37.2981 45.0404 37.41 43.3753 38.1096 43.394Z" fill="#263238"/>
<path d="M38.4594 43.5246C38.5853 43.6179 38.7066 43.7858 38.8652 43.8044C39.0237 43.8231 39.1917 43.6552 39.3316 43.4919C39.3316 43.4919 39.3596 43.4919 39.3549 43.4919C39.3549 43.8091 39.2243 44.1356 38.8885 44.1776C38.5527 44.2195 38.4221 43.935 38.3615 43.6132C38.3475 43.5712 38.3988 43.4826 38.4594 43.5246Z" fill="#263238"/>
<path d="M36.7713 46.1083C36.7713 46.1083 36.8132 46.8872 36.7713 47.251C36.7713 47.2836 36.6827 47.293 36.5567 47.293C36.2402 47.3239 35.9212 47.2676 35.6343 47.1304C35.3474 46.9931 35.1035 46.78 34.929 46.5141C34.9057 46.4768 34.957 46.4441 34.9896 46.4674C35.4263 46.8221 35.9665 47.025 36.5287 47.0458C36.5614 46.9478 36.4075 45.7119 36.4634 45.7119C36.7435 45.7611 37.0162 45.8457 37.275 45.9637C37.2237 44.3406 36.9159 42.7362 36.8925 41.1178C36.8958 41.1074 36.9023 41.0982 36.9111 41.0918C36.9199 41.0853 36.9306 41.0818 36.9415 41.0818C36.9524 41.0818 36.9631 41.0853 36.9719 41.0918C36.9807 41.0982 36.9872 41.1074 36.9905 41.1178C37.3726 42.8261 37.5851 44.5681 37.6248 46.3182C37.6341 46.5141 36.9112 46.1829 36.7713 46.1083Z" fill="#263238"/>
<path d="M36.3419 47.0786C36.1383 47.3244 35.8749 47.5139 35.577 47.6289C35.4103 47.6828 35.2308 47.6828 35.064 47.6289C34.7002 47.5216 34.7002 47.1625 34.7795 46.892C34.8238 46.7411 34.8848 46.5956 34.9614 46.4583C35.3429 46.8081 35.827 47.0256 36.3419 47.0786Z" fill="#263238"/>
<path d="M35.577 47.6288C35.4103 47.6826 35.2308 47.6826 35.064 47.6288C34.7002 47.5215 34.7002 47.1624 34.7795 46.8918C34.9759 46.9072 35.1614 46.9883 35.3061 47.122C35.4508 47.2557 35.5462 47.4342 35.577 47.6288Z" fill="#FF9ABB"/>
<path d="M26.9534 43.795C27.7929 43.795 30.1062 41.5936 30.3861 37.5406C30.3861 37.5406 29.8824 41.1645 29.5792 41.6822C29.276 42.1999 30.8711 40.4462 31.1463 37.1814C32.137 37.9749 33.2365 38.622 34.4111 39.103C35.9316 39.616 36.8784 39.6534 36.995 39.5694C37.1116 39.4855 34.8729 38.6366 34.2992 37.8857C34.2992 37.8857 38.3056 40.0172 40.1898 40.2644C40.4091 40.2923 40.9128 35.8009 38.0864 33.7347C35.26 31.6686 30.512 33.4829 29.2247 34.6209C29.2247 34.6209 27.7462 34.7515 26.0392 36.8316C24.3322 38.9118 26.0439 43.7997 26.9534 43.795Z" fill="#263238"/>
<path d="M31.2536 36.7662C31.2536 36.673 31.1044 36.673 31.109 36.7662C31.136 38.2499 30.8516 39.7228 30.2742 41.0898C30.2742 41.0898 30.3022 41.1224 30.3115 41.0898C30.9971 39.7046 31.4635 38.338 31.2536 36.7662Z" fill="#263238"/>
<path d="M36.3934 39.7606C34.2059 39.3828 32.3496 38.5899 30.9691 36.7943C30.9411 36.757 30.8758 36.7943 30.9038 36.8316C32.0138 38.7718 34.2386 39.6626 36.384 39.8445C36.426 39.8492 36.44 39.7699 36.3934 39.7606Z" fill="#263238"/>
<path d="M28.3013 43.7016C28.3013 43.7016 26.8041 41.2251 25.6894 41.7474C24.5747 42.2698 25.5962 45.7771 26.8275 46.3275C26.9801 46.4095 27.1477 46.4598 27.3203 46.4752C27.4929 46.4907 27.6668 46.471 27.8316 46.4174C27.9963 46.3638 28.1485 46.2773 28.2789 46.1633C28.4094 46.0492 28.5153 45.91 28.5905 45.7538L28.3013 43.7016Z" fill="#AD6359"/>
<path d="M26.0066 42.741C26.0066 42.741 26.0066 42.7643 26.0066 42.7736C26.8694 43.1887 27.2799 44.0376 27.5504 44.9097C27.5048 44.8175 27.4396 44.7363 27.3594 44.6718C27.2793 44.6073 27.186 44.561 27.0862 44.5361C26.9863 44.5113 26.8822 44.5084 26.7812 44.5279C26.6801 44.5473 26.5845 44.5885 26.501 44.6485C26.501 44.6485 26.501 44.6999 26.501 44.6952C26.6593 44.6564 26.8258 44.6674 26.9777 44.7267C27.1296 44.7859 27.2596 44.8906 27.3498 45.0263C27.4984 45.2566 27.6219 45.5021 27.7183 45.7586C27.7556 45.8379 27.9002 45.8052 27.8769 45.7119C27.9795 44.5739 27.2099 42.9369 26.0066 42.741Z" fill="#263238"/>
<path d="M34.8868 56.3646L30.6892 69.3912C30.5213 69.769 30.6892 70.1001 31.0763 70.1234L37.9091 70.5898C38.1188 70.5883 38.3237 70.527 38.4997 70.4129C38.6757 70.2989 38.8154 70.137 38.9025 69.9462L43.1001 56.9243C43.1504 56.8537 43.1801 56.7705 43.1857 56.684C43.1914 56.5975 43.1728 56.5112 43.1321 56.4347C43.0914 56.3581 43.0302 56.2945 42.9554 56.2508C42.8805 56.2071 42.795 56.1851 42.7084 56.1873L35.8756 55.7209C35.6671 55.725 35.4638 55.7874 35.2891 55.9012C35.1143 56.015 34.9749 56.1755 34.8868 56.3646Z" fill="#37474F"/>
<path d="M35.6983 56.4112L31.5007 69.4378C31.3328 69.8156 31.5007 70.1468 31.8878 70.1701L38.7206 70.6365C38.9301 70.6339 39.1345 70.572 39.3103 70.4581C39.4861 70.3442 39.6261 70.1829 39.714 69.9928L43.9117 56.9662C43.9604 56.896 43.9889 56.8137 43.994 56.7284C43.9992 56.6431 43.9807 56.558 43.9408 56.4824C43.9008 56.4068 43.8409 56.3437 43.7675 56.2999C43.6941 56.2561 43.61 56.2333 43.5246 56.234L36.6871 55.7676C36.4786 55.7716 36.2754 55.8341 36.1006 55.9479C35.9258 56.0616 35.7864 56.2222 35.6983 56.4112Z" fill="#455A64"/>
<path d="M37.5265 57.1388C37.516 57.2525 37.472 57.3605 37.4002 57.4493C37.3283 57.538 37.2318 57.6035 37.1228 57.6375C37.0138 57.6715 36.8972 57.6725 36.7876 57.6403C36.678 57.6081 36.5805 57.5442 36.5072 57.4566C36.4339 57.3691 36.3881 57.2618 36.3757 57.1483C36.3633 57.0347 36.3848 56.9201 36.4375 56.8188C36.4901 56.7174 36.5716 56.634 36.6716 56.5789C36.7716 56.5238 36.8857 56.4995 36.9995 56.5091C37.0756 56.5156 37.1496 56.537 37.2173 56.5722C37.285 56.6074 37.3451 56.6557 37.3941 56.7142C37.4431 56.7727 37.4801 56.8404 37.5028 56.9133C37.5255 56.9861 37.5336 57.0628 37.5265 57.1388Z" fill="#263238"/>
<path d="M8.95947 85.3841C11.9444 85.7946 15.6617 83.4766 25.3069 76.4339C26.6454 75.4638 22.3032 64.1908 20.8201 65.1609C18.9545 66.3783 11.9957 71.5087 11.534 71.9471C7.63955 75.655 6.93528 85.109 8.95947 85.3841Z" fill="#AD6359"/>
<path d="M17.3782 68.5703C17.3782 68.5703 20.1253 64.7131 22.1961 63.1367C24.3841 61.5515 26.924 60.5208 29.5979 60.1331C32.4849 59.7086 39.7701 60.6788 39.8588 62.8242C39.9334 64.7691 32.5409 63.4026 32.5409 63.4026C32.5409 63.4026 40.3112 63.5518 39.9754 65.9071C39.6395 68.2625 31.1464 66.187 31.1464 66.187C31.1464 66.187 39.1265 66.5228 38.3943 68.8968C37.8439 70.6924 30.041 69.2466 30.041 69.2466C30.041 69.2466 36.9018 69.5824 36.412 71.4527C35.871 73.5188 28.5905 72.6373 28.5905 72.6373C26.5476 77.1801 23.6186 78.4627 21.4918 79.1669C20.9975 79.3395 17.3782 68.5703 17.3782 68.5703Z" fill="#AD6359"/>
<path d="M29.873 63.1788C30.8058 63.1788 31.7106 63.1415 32.6247 63.2068C33.5389 63.2721 34.4484 63.37 35.3485 63.5193C36.5307 63.6979 37.6887 64.0109 38.7999 64.4521C36.7711 63.8225 33.5109 63.5193 32.5968 63.468C31.6826 63.4167 30.7825 63.2908 29.873 63.2255C29.8496 63.2115 29.8543 63.1788 29.873 63.1788Z" fill="#263238"/>
<path d="M29.5978 66.4622C30.7638 66.4948 31.9298 66.4622 33.0912 66.5648C34.2525 66.6674 35.3439 66.826 36.4959 66.9892C36.5845 66.9892 36.5472 67.0452 36.4586 67.0358C35.3019 66.9192 34.2245 66.9006 33.0632 66.798C31.9018 66.6954 30.7312 66.5508 29.5931 66.4901C29.5558 66.4901 29.5605 66.4622 29.5978 66.4622Z" fill="#263238"/>
<path d="M28.8144 69.2373C30.6056 69.2403 32.3919 69.4262 34.1453 69.7923C34.2339 69.7923 34.178 69.8623 34.0894 69.8483C32.3217 69.6291 30.9365 69.4425 28.8144 69.2933C28.7817 69.2979 28.777 69.242 28.8144 69.2373Z" fill="#263238"/>
<path d="M17.378 67.0359L21.2025 80.888C21.2025 80.888 11.0023 86.8906 8.74959 85.3002C6.49687 83.7098 7.9707 75.7156 10.5219 72.6654C11.562 71.3968 17.378 67.0359 17.378 67.0359Z" fill="#339015"/>
<path d="M17.504 67.4977L17.3548 67.0313H17.3921C16.4266 67.8195 15.4612 68.5984 14.5097 69.3913C13.5582 70.1842 12.6021 70.9771 11.7113 71.8166C11.2514 72.2236 10.8183 72.6598 10.4147 73.1225C10.0304 73.5979 9.68717 74.105 9.3886 74.6383C8.79047 75.7325 8.37012 76.9148 8.14331 78.141C8.24188 76.8879 8.58074 75.6654 9.14141 74.5404C9.42313 73.9743 9.76394 73.4397 10.1582 72.9453C10.5621 72.4622 10.9984 72.0072 11.4641 71.5834C12.3969 70.7439 13.3297 69.9603 14.3371 69.1954C15.3446 68.4305 16.3333 67.7076 17.3687 67.0173H17.3967V67.05L17.504 67.4977Z" fill="#263238"/>
<path d="M15.1394 70.4733C15.3726 71.1542 15.5452 71.8725 15.7411 72.5488C15.9369 73.2251 16.1188 73.948 16.2961 74.6336C16.6459 76.0328 16.991 77.432 17.3222 78.8312C17.4108 79.2137 17.4994 79.6008 17.5833 79.9832C17.6673 80.3657 17.7093 80.8181 17.7979 81.2285C17.7979 81.2316 17.7973 81.2346 17.7961 81.2374C17.7949 81.2403 17.7932 81.2428 17.7911 81.245C17.7889 81.2472 17.7863 81.2489 17.7835 81.2501C17.7807 81.2512 17.7776 81.2518 17.7746 81.2518C17.7715 81.2518 17.7685 81.2512 17.7656 81.2501C17.7628 81.2489 17.7602 81.2472 17.7581 81.245C17.7559 81.2428 17.7542 81.2403 17.753 81.2374C17.7519 81.2346 17.7512 81.2316 17.7512 81.2285C17.658 80.888 17.5134 80.5569 17.4154 80.2211C17.3175 79.8853 17.2149 79.5122 17.1216 79.1577C16.9397 78.4628 16.7578 77.7585 16.5806 77.0682C16.2261 75.669 15.8763 74.2698 15.5685 72.8706C15.3913 72.0731 15.1954 71.2802 15.0648 70.478C15.0642 70.4681 15.0675 70.4583 15.0741 70.4509C15.0806 70.4435 15.0899 70.4389 15.0998 70.4383C15.1096 70.4377 15.1194 70.441 15.1268 70.4476C15.1343 70.4541 15.1388 70.4634 15.1394 70.4733Z" fill="#263238"/>
<path d="M21.2026 80.8879C21.2679 81.0184 21.2632 80.8879 21.2492 80.8272C21.2352 80.7666 21.0767 80.0763 20.9321 79.6566C20.9321 79.6146 20.8528 79.54 20.8761 79.6892C20.9628 80.0945 21.0718 80.4946 21.2026 80.8879Z" fill="#263238"/>
</svg>
