<svg width="194" height="184" viewBox="0 0 194 184" fill="none" xmlns="http://www.w3.org/2000/svg">
<path d="M164.754 88.9399C127.089 67.1958 66.2223 67.1958 28.8015 88.9399C-8.61926 110.684 -8.41933 145.946 29.2422 167.69C66.9037 189.435 127.778 189.439 165.199 167.69C202.62 145.942 202.42 110.688 164.754 88.9399Z" fill="#F5F5F5"/>
<path d="M141.174 20.929L142.447 20.1904L155.896 27.9267V29.3997L141.174 20.929Z" fill="#F5F5F5"/>
<path d="M141.174 20.9287L155.896 29.3995V31.0765L141.17 22.618L141.174 20.9287Z" fill="#E0E0E0"/>
<path d="M157.292 30.1912L158.565 29.4526L172.013 37.189V38.6579L157.292 30.1912Z" fill="#F5F5F5"/>
<path d="M157.291 30.1912L172.013 38.6579V40.339L157.287 31.8804L157.291 30.1912Z" fill="#E0E0E0"/>
<path d="M141.247 6.79469L142.516 6.05615L142.443 56.1341L141.17 56.8727L141.247 6.79469Z" fill="#F0F0F0"/>
<path d="M141.17 56.8726L142.443 56.134L157.091 64.5436L155.818 65.2821L141.17 56.8726Z" fill="#F5F5F5"/>
<path d="M139.787 4.2688L157.365 14.3676L157.279 67.82L139.701 57.7212L139.787 4.2688ZM155.818 65.2821L155.896 15.2041L141.247 6.79453L141.17 56.8725L155.818 65.2821Z" fill="#E0E0E0"/>
<path d="M139.787 4.26881L141.06 3.53027L158.638 13.6291L157.365 14.3676L139.787 4.26881Z" fill="#F5F5F5"/>
<path d="M157.365 14.3677L158.638 13.6292L158.552 67.0693L157.279 67.8079L157.365 14.3677Z" fill="#F0F0F0"/>
<path d="M157.365 16.0569L158.638 15.3184L158.56 65.3963L157.287 66.1349L157.365 16.0569Z" fill="#F0F0F0"/>
<path d="M157.287 66.135L158.56 65.3965L173.209 73.8061L171.936 74.5446L157.287 66.135Z" fill="#F5F5F5"/>
<path d="M155.904 13.5312L173.482 23.6301L173.396 77.0825L155.818 66.9837L155.904 13.5312ZM171.936 74.5445L172.013 24.4666L157.365 16.057L157.287 66.1349L171.936 74.5445Z" fill="#E0E0E0"/>
<path d="M155.904 13.5313L157.177 12.7927L174.755 22.8916L173.482 23.6301L155.904 13.5313Z" fill="#F5F5F5"/>
<path d="M173.482 23.6301L174.755 22.8916L174.67 76.3318L173.396 77.0703L173.482 23.6301Z" fill="#F0F0F0"/>
<path d="M180.08 135.762C177.293 134.154 172.792 134.154 170.026 135.762C167.259 137.369 167.272 139.981 170.059 141.588C172.845 143.196 177.346 143.196 180.113 141.588C182.879 139.981 182.867 137.369 180.08 135.762Z" fill="#EBEBEB"/>
<path d="M154.125 123.802C141.884 116.727 122.058 116.727 109.878 123.802C99.118 130.057 97.9225 139.74 106.242 146.795C99.5261 146.387 92.5691 147.66 87.4401 150.639C78.4389 155.87 78.4879 164.349 87.5462 169.58C96.6046 174.811 111.245 174.811 120.246 169.58C127.407 165.418 128.815 159.199 124.559 154.197C134.878 155.69 146.234 154.103 154.272 149.435C166.448 142.356 166.386 130.882 154.125 123.802Z" fill="#EBEBEB"/>
<path d="M88.456 126.642L39.4267 154.947C39.1786 155.091 38.8972 155.166 38.6107 155.166C38.3242 155.166 38.0427 155.091 37.7946 154.947L34.2896 152.907C34.2031 152.857 34.1313 152.786 34.0814 152.7C34.0314 152.613 34.0051 152.515 34.0051 152.416C34.0051 152.316 34.0314 152.218 34.0814 152.131C34.1313 152.045 34.2031 151.974 34.2896 151.924L83.3719 123.631C83.6201 123.488 83.9015 123.412 84.188 123.412C84.4745 123.412 84.756 123.488 85.0041 123.631L88.456 125.638C88.5475 125.686 88.624 125.759 88.6774 125.847C88.7308 125.936 88.759 126.037 88.759 126.14C88.759 126.244 88.7308 126.345 88.6774 126.433C88.624 126.522 88.5475 126.594 88.456 126.642Z" fill="#EBEBEB"/>
<path d="M84.1798 120.191L24.3131 154.499C24.057 154.647 23.7664 154.725 23.4705 154.725C23.1746 154.725 22.8839 154.647 22.6279 154.499L19.0127 152.414C18.9247 152.362 18.8518 152.288 18.8012 152.199C18.7505 152.11 18.7239 152.01 18.7239 151.908C18.7239 151.805 18.7505 151.705 18.8012 151.616C18.8518 151.528 18.9247 151.454 19.0127 151.402L78.9325 117.127C79.1896 116.977 79.4817 116.899 79.7791 116.899C80.0765 116.899 80.3686 116.977 80.6258 117.127L84.1798 119.196C84.265 119.248 84.3355 119.321 84.3843 119.408C84.4332 119.495 84.4589 119.593 84.4589 119.693C84.4589 119.793 84.4332 119.892 84.3843 119.979C84.3355 120.066 84.265 120.139 84.1798 120.191Z" fill="#EBEBEB"/>
<path d="M135.355 42.1344C135.162 41.7935 134.88 41.5114 134.539 41.3183L121.482 33.6963C120.519 33.1454 118.218 33.8962 118.218 35.4467V49.6096C118.218 49.9891 118.319 50.3618 118.509 50.6899C118.7 51.0181 118.974 51.2901 119.303 51.4784L127.799 56.334L126.33 55.4934L127.036 57.4928C127.047 57.5209 127.068 57.5438 127.095 57.5567C127.123 57.5696 127.154 57.5715 127.183 57.5622C127.309 57.501 127.86 57.2031 128.178 56.995H128.199C128.209 56.9865 128.219 56.9769 128.227 56.9664L128.398 56.689L132.352 59.0841C132.67 59.2872 133.036 59.402 133.413 59.4166C133.79 59.4313 134.164 59.3452 134.496 59.1673C134.829 58.9894 135.108 58.7262 135.305 58.4046C135.502 58.083 135.609 57.7148 135.617 57.3377V43.1871C135.62 42.8198 135.53 42.4577 135.355 42.1344Z" fill="#399A19"/>
<path opacity="0.2" d="M128.276 56.9581C128.268 56.9687 128.258 56.9782 128.247 56.9867H128.227C127.909 57.1948 127.358 57.4927 127.231 57.5539C127.26 57.5485 127.284 57.5324 127.301 57.509L127.982 56.4032L127.848 56.3257L128.447 56.6684L128.276 56.9581Z" fill="white"/>
<path opacity="0.4" d="M133.234 43.3502C133.095 43.0714 132.899 42.8253 132.658 42.6279C132.576 42.5612 132.489 42.5011 132.397 42.4484L119.34 34.8263C119.231 34.7642 119.107 34.7319 118.981 34.7325C118.856 34.7331 118.732 34.7667 118.624 34.8299C118.515 34.8931 118.425 34.9836 118.362 35.0926C118.3 35.2015 118.267 35.325 118.267 35.4506C118.267 33.9001 120.552 33.1493 121.531 33.7002L134.588 41.3222C134.929 41.5153 135.211 41.7974 135.404 42.1383L133.234 43.3502Z" fill="white"/>
<path opacity="0.2" d="M133.474 58.4557V44.3133C133.481 44.2291 133.481 44.1445 133.474 44.0603C133.44 43.8128 133.364 43.5729 133.25 43.3503L135.388 42.1262C135.568 42.448 135.664 42.8102 135.666 43.1789V57.3214C135.658 57.6984 135.551 58.0667 135.354 58.3882C135.157 58.7098 134.878 58.9731 134.545 59.151C134.213 59.3289 133.839 59.4149 133.462 59.4003C133.085 59.3857 132.719 59.2709 132.401 59.0678C132.51 59.1307 132.632 59.1641 132.757 59.1646C132.882 59.1652 133.006 59.1328 133.114 59.0708C133.223 59.0089 133.313 58.9194 133.377 58.8115C133.44 58.7035 133.474 58.5808 133.474 58.4557Z" fill="white"/>
<path d="M128.757 48.6832C129.091 48.1831 129.258 47.5905 129.235 46.9899C129.23 46.7905 129.214 46.5916 129.186 46.3941C129.147 46.1183 129.088 45.8456 129.01 45.5781C128.864 45.0654 128.666 44.5691 128.419 44.0969C128.341 43.9459 128.26 43.799 128.17 43.6522C127.998 43.3661 127.808 43.0908 127.603 42.8279C127.48 42.6729 127.35 42.5219 127.219 42.3791C126.834 41.9591 126.388 41.5988 125.897 41.31C123.343 39.833 121.735 42.0853 123.008 45.3659L124.061 48.0875L125.865 52.7513L128.757 48.6832ZM127.533 46.0963C127.533 47.1286 126.803 47.5448 125.901 47.0266C125.667 46.8863 125.454 46.7132 125.269 46.5125L125.224 46.4594C124.997 46.2041 124.805 45.9202 124.653 45.6148C124.505 45.3289 124.396 45.0241 124.33 44.709C124.297 44.5478 124.279 44.3839 124.277 44.2193C124.277 43.187 125.016 42.7749 125.909 43.2931C126.144 43.4333 126.357 43.6065 126.542 43.8072C126.674 43.9497 126.794 44.1025 126.901 44.2642C126.983 44.3827 127.057 44.5067 127.121 44.6355C127.278 44.9223 127.392 45.2302 127.46 45.5495C127.502 45.7288 127.526 45.9121 127.529 46.0963H127.533Z" fill="white"/>
<path d="M81.1401 3.80809C80.7647 2.4779 78.0635 -0.0478274 75.3787 0.00521701C75.1208 0.0136266 74.866 0.0632163 74.6238 0.152109L22.4608 29.8284C21.6991 30.2695 21.0656 30.9015 20.6227 31.6621C20.1798 32.4227 19.9428 33.2857 19.9351 34.1658V147.012C19.9351 149.868 23.2524 152.63 26.3616 151.308H26.3861C26.4548 151.286 26.5216 151.259 26.586 151.227L78.7572 121.497C79.5217 121.06 80.1572 120.429 80.5993 119.667C81.0414 118.905 81.2744 118.04 81.2748 117.16V4.35077C81.2733 4.1618 81.2271 3.97585 81.1401 3.80809Z" fill="#399A19"/>
<path d="M27.2263 46.0923C27.226 45.6519 27.3425 45.2193 27.5641 44.8387C27.7856 44.458 28.1041 44.143 28.4871 43.9257L76.9167 16.3875C77.1062 16.2799 77.3207 16.2238 77.5387 16.2249C77.7566 16.2259 77.9706 16.284 78.1591 16.3933C78.3477 16.5027 78.5043 16.6595 78.6135 16.8481C78.7227 17.0368 78.7806 17.2508 78.7814 17.4688V108.46C78.7799 108.901 78.6626 109.333 78.4414 109.714C78.2201 110.095 77.9025 110.411 77.5205 110.631L29.0788 138.214C28.8897 138.32 28.6763 138.375 28.4596 138.373C28.243 138.371 28.0306 138.312 27.8434 138.203C27.6563 138.094 27.501 137.938 27.3927 137.75C27.2845 137.562 27.2271 137.349 27.2263 137.133V46.0923Z" fill="#37474F"/>
<path opacity="0.3" d="M19.9351 34.1653V147.011C19.9351 149.867 23.2524 152.63 26.3616 151.308H26.3861C26.1984 151.381 25.9956 151.407 25.7956 151.383C25.5956 151.359 25.4046 151.286 25.2395 151.171C25.0745 151.055 24.9404 150.901 24.8493 150.721C24.7582 150.541 24.7128 150.342 24.7172 150.141V37.2827C24.7209 36.3014 25.0148 35.3431 25.5618 34.5285L20.4533 31.9783C20.1163 32.6584 19.9391 33.4064 19.9351 34.1653Z" fill="black"/>
<path opacity="0.1" d="M75.3745 0.000822476C75.1166 0.00923207 74.8618 0.0588225 74.6196 0.147715L22.4606 29.8281C21.5892 30.325 20.8891 31.0749 20.4531 31.9784L25.5617 34.5286C25.9853 33.878 26.5554 33.3358 27.2265 32.9455L79.4099 3.26509C79.5572 3.17876 79.721 3.12421 79.8907 3.10495C80.0604 3.08569 80.2322 3.10214 80.3951 3.15325C80.5581 3.20436 80.7085 3.289 80.8368 3.40172C80.9651 3.51444 81.0683 3.65276 81.14 3.80778C80.7687 2.47351 78.0675 -0.0522219 75.3745 0.000822476Z" fill="white"/>
<path d="M59.4284 21.9001C59.7916 21.6879 60.0976 21.8552 60.0976 22.2755C60.0837 22.5063 60.0164 22.7307 59.901 22.9311C59.7856 23.1315 59.6252 23.3023 59.4325 23.4302L49.1949 29.3385C48.8277 29.5507 48.5339 29.3712 48.5339 28.9509C48.5446 28.7219 48.6098 28.4988 48.7241 28.3001C48.8383 28.1014 48.9984 27.9328 49.1909 27.8084L59.4284 21.9001Z" fill="#263238"/>
<path d="M46.5633 29.3264C46.9305 29.1183 47.2243 29.2856 47.2284 29.7059C47.2162 29.9361 47.15 30.1602 47.0352 30.3601C46.9204 30.56 46.7601 30.73 46.5674 30.8565C46.2001 31.0687 45.8982 30.8932 45.8982 30.473C45.9105 30.2429 45.9772 30.019 46.0928 29.8196C46.2084 29.6203 46.3696 29.4513 46.5633 29.3264Z" fill="#263238"/>
<path d="M53.1163 21.0431C53.8466 20.6351 54.4383 20.9533 54.4383 21.798C54.4152 22.2572 54.2842 22.7045 54.0559 23.1036C53.8277 23.5027 53.5085 23.8425 53.1244 24.0952C52.39 24.5032 51.7861 24.1727 51.782 23.3322C51.807 22.8721 51.941 22.4247 52.173 22.0267C52.405 21.6287 52.7283 21.2915 53.1163 21.0431Z" fill="#263238"/>
<path d="M53.1163 127.275C54.6097 126.414 55.8134 127.099 55.8174 128.813C55.7693 129.749 55.5015 130.66 55.0357 131.473C54.57 132.286 53.9195 132.978 53.1367 133.493C51.6433 134.35 50.411 133.648 50.4028 131.934C50.4575 130.999 50.7316 130.09 51.203 129.28C51.6744 128.471 52.3299 127.784 53.1163 127.275Z" fill="#263238"/>
<path d="M88.9865 8.32066C88.6397 7.09656 86.1915 4.81973 83.7514 4.8687C83.5185 4.87636 83.2884 4.92183 83.07 5.00335L35.7136 31.9336C35.0225 32.334 34.4478 32.9079 34.0463 33.5984C33.6449 34.289 33.4305 35.0723 33.4246 35.8711V138.288C33.4246 140.899 36.4358 143.388 39.2594 142.188C39.3211 142.168 39.3811 142.144 39.439 142.115L86.8198 115.132C87.5138 114.735 88.0906 114.162 88.4919 113.47C88.8932 112.779 89.1046 111.994 89.1048 111.194V8.81438C89.1029 8.64302 89.0625 8.47428 88.9865 8.32066Z" fill="#455A64"/>
<path opacity="0.1" d="M33.4287 35.875V138.291C33.4287 140.903 36.44 143.392 39.2636 142.192C39.0935 142.255 38.9108 142.275 38.7311 142.252C38.5513 142.228 38.3799 142.162 38.2313 142.058C38.0827 141.955 37.9614 141.817 37.8775 141.656C37.7937 141.495 37.7499 141.317 37.7498 141.135V38.719C37.7534 37.8279 38.0203 36.9577 38.5169 36.2178L33.8776 33.9001C33.5809 34.5162 33.4275 35.1913 33.4287 35.875Z" fill="white"/>
<path opacity="0.2" d="M83.7553 4.86454C83.5224 4.8722 83.2923 4.91768 83.0739 4.99919L35.7175 31.9294C34.93 32.3835 34.2962 33.0627 33.8977 33.8798L38.537 36.1974C38.9258 35.6068 39.4469 35.115 40.059 34.7612L87.4113 7.81871C87.5457 7.74238 87.6944 7.69444 87.8481 7.67785C88.0018 7.66127 88.1573 7.67639 88.3049 7.72228C88.4525 7.76817 88.5892 7.84386 88.7064 7.94467C88.8236 8.04547 88.9189 8.16925 88.9863 8.30835C88.6436 7.10873 86.1954 4.81558 83.7553 4.86454Z" fill="white"/>
<path d="M88.9865 8.32048C88.9202 8.18034 88.8257 8.05536 88.709 7.95329C88.5923 7.85122 88.4558 7.77426 88.3081 7.72718C88.1604 7.68011 88.0045 7.66393 87.8503 7.67966C87.696 7.69538 87.5467 7.74268 87.4115 7.8186L40.0796 34.7488C39.3898 35.1508 38.8162 35.725 38.4149 36.4152C38.0137 37.1054 37.7985 37.888 37.7905 38.6863V141.103C37.7906 141.284 37.8344 141.463 37.9183 141.623C38.0021 141.784 38.1235 141.922 38.2721 142.026C38.4206 142.129 38.5921 142.196 38.7718 142.219C38.9515 142.242 39.1342 142.222 39.3043 142.16C39.3659 142.14 39.426 142.115 39.4839 142.086L86.8199 115.131C87.5138 114.735 88.0907 114.161 88.4919 113.47C88.8932 112.779 89.1046 111.993 89.1048 111.194V8.8142C89.1029 8.64284 89.0625 8.4741 88.9865 8.32048Z" fill="#455A64"/>
<path d="M40.1123 45.0764C40.1123 44.64 40.243 44.2136 40.4877 43.8523C40.6717 43.5656 40.9223 43.3276 41.2181 43.1586L86.7628 17.2607V109.607C86.7629 109.993 86.661 110.372 86.4675 110.706C86.2741 111.04 85.9959 111.316 85.6611 111.508L40.1123 137.463V45.0764Z" fill="#455A64"/>
<path opacity="0.3" d="M40.1123 45.0764C40.1123 44.64 40.243 44.2136 40.4877 43.8523C40.6717 43.5656 40.9223 43.3276 41.2181 43.1586L86.7628 17.2607V109.607C86.7629 109.993 86.661 110.372 86.4675 110.706C86.2741 111.04 85.9959 111.316 85.6611 111.508L40.1123 137.463V45.0764Z" fill="black"/>
<path d="M84.0044 13.7432L84.0085 14.9021L85.4774 14.0533L85.4733 12.8945L84.0044 13.7432Z" fill="#399A19"/>
<path d="M86.8239 11.7278L83.6658 13.5517V15.4858L86.8239 13.6619V13.0008L87.0484 12.8703V12.2582L86.9668 12.3072L86.8239 12.3888V11.7278ZM85.4774 14.0536L84.0085 14.9023V13.7435L85.4774 12.8948V14.0536Z" fill="white"/>
<path d="M59.7834 27.339L59.7875 29.2772L67.5361 24.801L67.5279 22.8669L59.7834 27.339Z" fill="white"/>
<path d="M79.373 16.0284L79.3812 17.9625L82.2415 16.31L82.2374 14.3718L79.373 16.0284Z" fill="white"/>
<path d="M41.2383 38.3233L41.2424 39.9799L41.6341 39.7555L41.63 38.0989L41.2383 38.3233Z" fill="white"/>
<path d="M47.3834 36.4383L49.0686 35.4631L49.0645 33.5249L48.0893 34.088L47.3752 34.5001L47.3834 36.4383Z" fill="white"/>
<path d="M43.3561 38.7599L46.5143 36.9401L46.5102 35.002L43.3521 36.8259L43.3561 38.7599Z" fill="white"/>
<path d="M41.8913 39.6086L42.1239 39.474L42.283 39.3801L42.2789 37.446L41.8872 37.6705L41.8913 39.6086Z" fill="white"/>
<path d="M40.5937 40.3553L40.8793 40.1921L40.9854 40.1309L40.9813 38.8252L40.8752 38.8864L40.5896 39.0496L40.5937 40.3553Z" fill="white"/>
<path d="M39.9491 40.7307L40.3368 40.5063L40.3327 39.5515L39.9451 39.7719L39.9491 40.7307Z" fill="white"/>
<path d="M82.821 75.8705L86.7626 73.6223V71.7616L82.7761 74.0384L82.5599 65.3963L86.7626 62.8624V61.0018L82.515 63.5642L82.364 57.5212L86.7626 54.6324V52.7636L82.311 55.6851L82.1641 49.4381L80.2382 42.5015L86.7667 36.5769V33.3453L79.7363 39.731L78.6387 29.7301L86.7585 23.4668V21.5735L78.4469 27.9878L77.8226 22.3447L76.1905 23.2709L76.88 29.5709L69.2947 41.0897L63.1334 30.7053L60.1017 32.4313L61.6318 35.006L58.441 38.7884L57.2577 36.4994L50.7292 42.6199L51.3412 49.1484L40.1325 55.6198V57.4804L53.1325 49.9767L52.4715 42.9463L56.4049 39.274L57.7106 41.7997L62.3867 36.2464L63.419 37.9887L48.3218 61.418L40.1162 68.7626V70.6967L48.334 63.3521L53.4263 70.2029L49.1134 77.5475L40.1366 86.9323V90.2415L44.9759 85.1982L46.608 91.2452L46.6325 99.1529L40.1285 102.291V104.159L46.555 101.058L45.694 111.667L43.0908 115.295L42.7235 124.737L40.1285 126.426V129.535L63.2068 114.519L62.8314 124.516L64.4636 123.594L64.9655 109.615L73.4974 104.523L74.2605 117.988L76.9657 116.445L76.6352 110.59L86.7626 103.988V102.119L76.5332 108.787L75.9089 97.8391L83.6004 93.3997L83.0413 83.4436L86.7626 81.6483V79.7754L82.9638 81.6116L82.821 75.8705ZM77.1085 31.6315L78.149 41.1183L72.408 46.337L70.07 42.3587L77.1085 31.6315ZM61.334 84.5004L58.9592 85.8714L56.7721 87.1323L55.4052 78.0413L61.1993 73.2958L62.7662 83.6721L61.334 84.5004ZM63.0273 85.3818L63.8434 90.8494L61.844 91.8124L61.436 86.2876L63.0273 85.3818ZM55.1482 76.3683L54.5769 72.5818L63.1334 58.0068L63.4925 57.6845L64.1453 61.3568L61.5584 64.062L62.1786 65.4289L68.3358 58.9738L67.7156 57.5988L65.6754 59.745L65.0552 56.24L70.478 51.3273L71.1553 63.2337L55.1482 76.3683ZM71.2533 65.074L72.4774 86.6997L69.972 87.9238L67.7931 67.9098L71.2533 65.074ZM60.3792 45.1374L62.2031 47.6999L56.4253 56.644L54.6014 54.1183L60.3792 45.1374ZM49.7703 61.6465L53.3406 56.0401L56.001 59.7124L64.2759 46.892L61.6196 43.1707L64.1453 39.2536L69.7639 48.7281L62.048 55.7381L61.7216 56.0319L54.6014 68.1546L49.7703 61.6465ZM46.4775 83.6558L50.6353 79.3184L53.1774 74.9933L55.3808 89.7926L58.951 87.7321L59.8283 87.222L60.2119 92.5999L48.2279 98.4021V91.0045L51.3616 88.6053L51.0923 86.9201L48.0076 89.2867L46.4775 83.6558ZM49.9865 120.061L44.3475 123.733L44.6699 115.433L47.2323 111.867L48.1708 100.32L50.9046 99.002L49.9865 120.061ZM63.3211 111.386L51.6146 119.004L52.5245 98.1981L63.9943 92.6611L63.3211 111.386ZM62.7988 72.0146L66.2304 69.2073L68.3521 88.7073L65.5285 90.0701L62.7988 72.0146ZM65.0389 107.734L65.5816 91.8736L72.5794 88.4951L73.3954 102.727L65.0389 107.734ZM73.1425 48.9362L78.704 43.8888L80.5687 50.6377L80.7196 56.7582L73.832 61.2711L73.1425 48.9362ZM73.9585 63.0868L80.7727 58.5985L80.9237 64.5517L74.2686 68.5626L73.9585 63.0868ZM74.3666 70.3702L80.9645 66.3919L81.1766 74.981L74.8317 78.6043L74.3666 70.3702ZM74.9337 80.4079L81.2215 76.8172L81.3643 82.4317L75.2193 85.3981L74.9337 80.4079ZM75.8273 96.0763L75.3254 87.2139L81.4459 84.2638L81.9111 92.5713L75.8273 96.0763Z" fill="#455A64"/>
<g opacity="0.3">
<path d="M82.821 75.8705L86.7626 73.6223V71.7616L82.7761 74.0384L82.5599 65.3963L86.7626 62.8624V61.0018L82.515 63.5642L82.364 57.5212L86.7626 54.6324V52.7636L82.311 55.6851L82.1641 49.4381L80.2382 42.5015L86.7667 36.5769V33.3453L79.7363 39.731L78.6387 29.7301L86.7585 23.4668V21.5735L78.4469 27.9878L77.8226 22.3447L76.1905 23.2709L76.88 29.5709L69.2947 41.0897L63.1334 30.7053L60.1017 32.4313L61.6318 35.006L58.441 38.7884L57.2577 36.4994L50.7292 42.6199L51.3412 49.1484L40.1325 55.6198V57.4804L53.1325 49.9767L52.4715 42.9463L56.4049 39.274L57.7106 41.7997L62.3867 36.2464L63.419 37.9887L48.3218 61.418L40.1162 68.7626V70.6967L48.334 63.3521L53.4263 70.2029L49.1134 77.5475L40.1366 86.9323V90.2415L44.9759 85.1982L46.608 91.2452L46.6325 99.1529L40.1285 102.291V104.159L46.555 101.058L45.694 111.667L43.0908 115.295L42.7235 124.737L40.1285 126.426V129.535L63.2068 114.519L62.8314 124.516L64.4636 123.594L64.9655 109.615L73.4974 104.523L74.2605 117.988L76.9657 116.445L76.6352 110.59L86.7626 103.988V102.119L76.5332 108.787L75.9089 97.8391L83.6004 93.3997L83.0413 83.4436L86.7626 81.6483V79.7754L82.9638 81.6116L82.821 75.8705ZM77.1085 31.6315L78.149 41.1183L72.408 46.337L70.07 42.3587L77.1085 31.6315ZM61.334 84.5004L58.9592 85.8714L56.7721 87.1323L55.4052 78.0413L61.1993 73.2958L62.7662 83.6721L61.334 84.5004ZM63.0273 85.3818L63.8434 90.8494L61.844 91.8124L61.436 86.2876L63.0273 85.3818ZM55.1482 76.3683L54.5769 72.5818L63.1334 58.0068L63.4925 57.6845L64.1453 61.3568L61.5584 64.062L62.1786 65.4289L68.3358 58.9738L67.7156 57.5988L65.6754 59.745L65.0552 56.24L70.478 51.3273L71.1553 63.2337L55.1482 76.3683ZM71.2533 65.074L72.4774 86.6997L69.972 87.9238L67.7931 67.9098L71.2533 65.074ZM60.3792 45.1374L62.2031 47.6999L56.4253 56.644L54.6014 54.1183L60.3792 45.1374ZM49.7703 61.6465L53.3406 56.0401L56.001 59.7124L64.2759 46.892L61.6196 43.1707L64.1453 39.2536L69.7639 48.7281L62.048 55.7381L61.7216 56.0319L54.6014 68.1546L49.7703 61.6465ZM46.4775 83.6558L50.6353 79.3184L53.1774 74.9933L55.3808 89.7926L58.951 87.7321L59.8283 87.222L60.2119 92.5999L48.2279 98.4021V91.0045L51.3616 88.6053L51.0923 86.9201L48.0076 89.2867L46.4775 83.6558ZM49.9865 120.061L44.3475 123.733L44.6699 115.433L47.2323 111.867L48.1708 100.32L50.9046 99.002L49.9865 120.061ZM63.3211 111.386L51.6146 119.004L52.5245 98.1981L63.9943 92.6611L63.3211 111.386ZM62.7988 72.0146L66.2304 69.2073L68.3521 88.7073L65.5285 90.0701L62.7988 72.0146ZM65.0389 107.734L65.5816 91.8736L72.5794 88.4951L73.3954 102.727L65.0389 107.734ZM73.1425 48.9362L78.704 43.8888L80.5687 50.6377L80.7196 56.7582L73.832 61.2711L73.1425 48.9362ZM73.9585 63.0868L80.7727 58.5985L80.9237 64.5517L74.2686 68.5626L73.9585 63.0868ZM74.3666 70.3702L80.9645 66.3919L81.1766 74.981L74.8317 78.6043L74.3666 70.3702ZM74.9337 80.4079L81.2215 76.8172L81.3643 82.4317L75.2193 85.3981L74.9337 80.4079ZM75.8273 96.0763L75.3254 87.2139L81.4459 84.2638L81.9111 92.5713L75.8273 96.0763Z" fill="white"/>
</g>
<path d="M96.127 79.2859C96.4983 79.0738 96.7921 79.2451 96.7962 79.6654L96.8207 88.7686C96.8085 88.9983 96.7423 89.2218 96.6275 89.4211C96.5126 89.6203 96.3523 89.7896 96.1597 89.9152L74.6155 102.352L74.5869 91.7228L96.127 79.2859Z" fill="#399A19"/>
<g opacity="0.3">
<path d="M96.127 79.2859C96.4983 79.0738 96.7921 79.2451 96.7962 79.6654L96.8207 88.7686C96.8085 88.9983 96.7423 89.2218 96.6275 89.4211C96.5126 89.6203 96.3523 89.7896 96.1597 89.9152L74.6155 102.352L74.5869 91.7228L96.127 79.2859Z" fill="white"/>
</g>
<path d="M95.3394 86.8262L95.3435 87.5565L79.475 96.721L79.4709 95.9865L95.3394 86.8262Z" fill="white"/>
<path d="M85.9302 93.8201L85.9343 94.5545L79.4792 98.2799L79.4751 97.5495L85.9302 93.8201Z" fill="white"/>
<path d="M95.3355 85.2676L95.3395 86.002L79.4711 95.1624L79.467 94.432L95.3355 85.2676Z" fill="white"/>
<path d="M95.3313 83.709V84.4394L79.467 93.6038L79.4629 92.8693L95.3313 83.709Z" fill="white"/>
<path d="M91.0879 83.864L91.092 85.3289L79.4589 92.041L79.4548 90.5803L91.0879 83.864Z" fill="white"/>
<path d="M68.8172 88.0668C71.3388 86.6101 73.8646 86.2592 75.7987 87.3609C79.3567 89.401 79.6913 95.697 76.578 102.005L68.8988 117.555L61.1666 110.904C58.0206 108.207 58.3103 101.52 61.8561 95.3991C63.7739 92.0859 66.2956 89.5234 68.8172 88.0668Z" fill="#399A19"/>
<path d="M74.7709 102.775C78.0497 97.1319 78.0589 91.0184 74.7914 89.1197C71.5238 87.221 66.2169 90.2561 62.9381 95.8987C59.6593 101.541 59.6501 107.655 62.9176 109.554C66.1851 111.452 71.492 108.417 74.7709 102.775Z" fill="#455A64"/>
<path d="M68.8866 108.974C71.241 107.612 73.375 105.265 74.8847 102.585C74.4724 102.248 73.9889 102.009 73.4707 101.887C72.9525 101.765 72.4133 101.762 71.8938 101.879L70.7718 102.132L67.2137 102.891L64.0106 105.298C63.4516 105.719 62.9919 106.258 62.664 106.876C62.3362 107.495 62.1481 108.177 62.1133 108.876V108.925C63.6393 110.443 66.1039 110.578 68.8866 108.974Z" fill="#399A19"/>
<path opacity="0.2" d="M68.8866 108.974C71.241 107.612 73.375 105.265 74.8847 102.585C74.4724 102.248 73.9889 102.009 73.4707 101.887C72.9525 101.765 72.4133 101.762 71.8938 101.879L70.7718 102.132L67.2137 102.891L64.0106 105.298C63.4516 105.719 62.9919 106.258 62.664 106.876C62.3362 107.495 62.1481 108.177 62.1133 108.876V108.925C63.6393 110.443 66.1039 110.578 68.8866 108.974Z" fill="black"/>
<path d="M73.8363 98.9775C74.3783 98.5882 74.7554 98.0104 74.8935 97.3574C75.0317 96.7045 74.9209 96.0235 74.583 95.448C74.8859 95.3113 75.1344 95.0771 75.2889 94.7829C75.3482 94.6389 75.3652 94.481 75.3377 94.3277C75.3102 94.1744 75.2395 94.0322 75.1338 93.9179C75.0223 93.8103 74.8826 93.7367 74.7309 93.7056C74.5791 93.6746 74.4217 93.6873 74.2769 93.7424C74.3561 93.5112 74.3561 93.2603 74.2771 93.0291C74.1981 92.7979 74.0444 92.5996 73.8403 92.4653C73.6315 92.3511 73.3897 92.3124 73.1557 92.3555C72.9216 92.3986 72.7095 92.5209 72.555 92.7019C72.5607 92.5513 72.5172 92.4029 72.4311 92.2792C72.345 92.1556 72.2209 92.0633 72.0776 92.0164C71.7827 91.9395 71.4708 91.9595 71.1881 92.0735C70.9025 92.1715 70.6332 92.3143 70.3435 92.4041C69.8482 92.5275 69.3401 92.5919 68.8297 92.5958C68.3149 92.6068 67.8112 92.7471 67.3648 93.0039C67.1195 93.1543 66.9304 93.381 66.8265 93.6494C66.7225 93.9177 66.7095 94.2127 66.7895 94.4891C66.7165 94.3957 66.6246 94.3187 66.5198 94.2632C66.4151 94.2077 66.2998 94.1748 66.1815 94.1668C66.0646 94.1636 65.9483 94.1857 65.8405 94.2314C65.7328 94.2772 65.6362 94.3456 65.5573 94.432C65.8755 94.6278 66.1815 94.84 66.5039 95.04C66.3213 94.988 66.1268 94.9979 65.9504 95.068C65.774 95.1381 65.6258 95.2645 65.5287 95.4276C65.3777 95.7479 65.3184 96.1038 65.3573 96.4558C65.3999 97.7944 65.6377 99.1195 66.0632 100.389C66.2795 101.046 66.5977 101.74 67.2179 102.042L73.8363 98.9775Z" fill="#263238"/>
<path d="M70.4535 102.136L70.3148 103.707C70.3081 103.827 70.3379 103.946 70.4005 104.049C70.4884 104.213 70.5227 104.401 70.4985 104.585C70.4744 104.77 70.393 104.942 70.2658 105.078C70.0619 105.227 69.8168 105.31 69.564 105.314C69.086 105.34 68.608 105.264 68.1615 105.092C67.7149 104.92 67.3099 104.655 66.973 104.315C66.9043 104.243 66.8507 104.159 66.8157 104.066C66.7806 103.974 66.7647 103.875 66.769 103.776L66.871 99.8018L70.4535 102.136Z" fill="#FFA8A7"/>
<path opacity="0.3" d="M67.1853 100.006L70.4496 102.136L70.3272 103.527C69.5601 103.399 68.8327 103.096 68.2013 102.642C67.822 102.325 67.5297 101.917 67.3519 101.455C67.1741 100.994 67.1168 100.495 67.1853 100.006Z" fill="black"/>
<path d="M74.0156 95.75C74.2567 97.5685 74.1375 99.4166 73.6647 101.189C73.5742 101.579 73.4286 101.954 73.2322 102.303C73.0352 102.656 72.7246 102.932 72.3508 103.086C71.874 103.217 71.3709 103.217 70.8941 103.086C69.9961 102.984 69.1246 102.717 68.3235 102.299C67.9257 102.084 67.5939 101.766 67.3639 101.377C67.1338 100.988 67.0142 100.543 67.0178 100.091C66.8 100.233 66.5485 100.315 66.289 100.328C66.0294 100.342 65.7709 100.287 65.5395 100.168C65.3081 100.05 65.1121 99.8726 64.9711 99.6542C64.8302 99.4358 64.7494 99.1841 64.7369 98.9245C64.6899 98.722 64.7096 98.5097 64.7932 98.3194C64.8767 98.1291 65.0196 97.9709 65.2006 97.8685C65.3815 97.7661 65.5906 97.725 65.7968 97.7513C66.003 97.7777 66.1952 97.87 66.3446 98.0146C66.5772 98.2169 66.7792 98.4519 66.9444 98.7123C67.0194 98.8388 67.121 98.9474 67.2422 99.0306C67.3024 99.0714 67.3735 99.0933 67.4463 99.0933C67.519 99.0933 67.5901 99.0714 67.6503 99.0306C67.7015 98.969 67.7383 98.8967 67.7581 98.8191C67.7779 98.7414 67.7801 98.6603 67.7645 98.5817L67.7155 97.4433C67.7148 97.3583 67.7381 97.2749 67.7829 97.2026C67.8277 97.1304 67.8921 97.0724 67.9685 97.0353C68.2027 96.906 68.3835 96.6978 68.4786 96.4477C68.5588 96.2287 68.6069 95.9991 68.6214 95.7663C68.6247 95.7224 68.6383 95.6799 68.6611 95.6421C68.6839 95.6044 68.7151 95.5726 68.7524 95.5492C68.7897 95.5258 68.832 95.5114 68.8759 95.5073C68.9197 95.5032 68.9639 95.5095 69.0049 95.5256C70.6132 96.1093 72.3615 96.1876 74.0156 95.75Z" fill="#FFA8A7"/>
<path d="M71.5145 98.5083L72.5386 100.23L71.3186 100.463L71.5145 98.5083Z" fill="#F28F8F"/>
<path d="M70.1394 101.054L71.0656 101.507C70.986 101.612 70.8746 101.688 70.748 101.724C70.6215 101.76 70.4866 101.754 70.3638 101.707C70.2576 101.64 70.1774 101.539 70.1366 101.42C70.0958 101.302 70.0968 101.173 70.1394 101.054Z" fill="#F28F8F"/>
<path opacity="0.3" d="M70.1394 101.054L71.0656 101.507C70.986 101.612 70.8746 101.688 70.748 101.724C70.6215 101.76 70.4866 101.754 70.3638 101.707C70.2576 101.64 70.1774 101.539 70.1366 101.42C70.0958 101.302 70.0968 101.173 70.1394 101.054Z" fill="black"/>
<path d="M70.6861 101.736C70.5781 101.757 70.4662 101.748 70.3637 101.707C70.2788 101.659 70.2099 101.587 70.1656 101.5C70.1214 101.413 70.1037 101.315 70.1148 101.218C70.2584 101.214 70.3978 101.266 70.5041 101.363C70.6105 101.459 70.6756 101.593 70.6861 101.736Z" fill="#F28F8F"/>
<path d="M69.7477 98.5778C69.7427 98.6233 69.7467 98.6695 69.7595 98.7135C69.7724 98.7575 69.7939 98.7986 69.8227 98.8343C69.8516 98.8699 69.8872 98.8995 69.9276 98.9213C69.9679 98.9432 70.0122 98.9567 70.0578 98.9613C70.1043 98.9674 70.1515 98.9641 70.1966 98.9517C70.2418 98.9392 70.284 98.9179 70.3207 98.8889C70.3575 98.8599 70.3881 98.8238 70.4107 98.7828C70.4333 98.7418 70.4475 98.6967 70.4524 98.6501C70.4573 98.6035 70.4528 98.5564 70.4393 98.5116C70.4257 98.4668 70.4033 98.4252 70.3733 98.3891C70.3434 98.3531 70.3066 98.3235 70.265 98.3019C70.2234 98.2803 70.178 98.2673 70.1313 98.2636C70.0854 98.2585 70.0389 98.2626 69.9947 98.2758C69.9504 98.2889 69.9092 98.3107 69.8734 98.34C69.8377 98.3693 69.8082 98.4054 69.7866 98.4462C69.765 98.487 69.7518 98.5317 69.7477 98.5778Z" fill="#263238"/>
<path d="M72.6856 98.7614C72.6787 98.8305 72.6924 98.9001 72.725 98.9614C72.7576 99.0227 72.8077 99.0729 72.8689 99.1057C72.9301 99.1385 72.9996 99.1525 73.0687 99.1457C73.1378 99.139 73.2034 99.1119 73.2571 99.0679C73.3108 99.0239 73.3503 98.965 73.3705 98.8986C73.3907 98.8321 73.3907 98.7612 73.3706 98.6948C73.3505 98.6283 73.3111 98.5693 73.2574 98.5253C73.2038 98.4812 73.1382 98.4541 73.0691 98.4472C72.9766 98.4381 72.8843 98.4661 72.8124 98.525C72.7405 98.5839 72.6949 98.6689 72.6856 98.7614Z" fill="#263238"/>
<path d="M73.1628 97.4065L73.8851 98.0186C73.928 97.9259 73.9416 97.8223 73.9241 97.7217C73.9066 97.6211 73.8588 97.5282 73.7871 97.4555C73.6981 97.3897 73.5924 97.3503 73.482 97.3417C73.3716 97.333 73.2611 97.3555 73.1628 97.4065Z" fill="#263238"/>
<path d="M70.1843 97.0639C69.9069 97.2148 69.6294 97.3658 69.3683 97.5209C69.3449 97.4216 69.3519 97.3176 69.3883 97.2223C69.4246 97.127 69.4887 97.0448 69.5723 96.9863C69.6716 96.9417 69.7812 96.9253 69.8892 96.939C69.9972 96.9527 70.0993 96.9959 70.1843 97.0639Z" fill="#263238"/>
<path d="M71.5633 54.2408C71.9346 54.0286 72.2284 54.2 72.2325 54.6202L72.257 63.7235C72.2442 63.953 72.1777 64.1763 72.0629 64.3754C71.9481 64.5746 71.7881 64.744 71.5959 64.87L50.0518 77.3069L50.0232 66.6776L71.5633 54.2408Z" fill="#399A19"/>
<g opacity="0.3">
<path d="M71.5633 54.2408C71.9346 54.0286 72.2284 54.2 72.2325 54.6202L72.257 63.7235C72.2442 63.953 72.1777 64.1763 72.0629 64.3754C71.9481 64.5746 71.7881 64.744 71.5959 64.87L50.0518 77.3069L50.0232 66.6776L71.5633 54.2408Z" fill="white"/>
</g>
<path d="M70.7759 61.7812L70.78 62.5116L54.9116 71.672L54.9075 70.9416L70.7759 61.7812Z" fill="white"/>
<path d="M61.3667 68.7749L61.3708 69.5094L54.9157 73.2347L54.9116 72.5003L61.3667 68.7749Z" fill="white"/>
<path d="M70.7717 60.2227L70.7758 60.9571L54.9074 70.1175L54.9033 69.383L70.7717 60.2227Z" fill="white"/>
<path d="M70.7678 58.6638L70.7719 59.3942L54.8994 68.5546V67.8242L70.7678 58.6638Z" fill="white"/>
<path d="M66.5242 58.8188L66.5282 60.2796L54.8952 66.9958L54.8911 65.531L66.5242 58.8188Z" fill="white"/>
<path d="M44.2538 62.4952C46.7754 61.0385 49.3012 60.6876 51.2352 61.7893C54.7933 63.8295 55.1279 70.1255 52.0105 76.4337L44.3354 91.9961L36.6113 85.3451C33.4694 82.648 33.7551 75.9603 37.305 69.8398C39.2105 66.5266 41.7321 63.9641 44.2538 62.4952Z" fill="#399A19"/>
<path d="M50.2089 77.215C53.4877 71.5723 53.4969 65.4588 50.2294 63.5601C46.9618 61.6614 41.6549 64.6965 38.3761 70.3392C35.0972 75.9819 35.0881 82.0954 38.3556 83.9941C41.6231 85.8927 46.93 82.8576 50.2089 77.215Z" fill="#455A64"/>
<path d="M44.3233 83.415C46.7715 82.0032 48.9585 79.5264 50.4846 76.7191C49.5099 76.1849 48.3732 76.0267 47.2897 76.2744L45.3801 76.7069L41.4589 77.5474L38.064 80.1017C37.4586 80.5603 36.919 81.0999 36.4604 81.7053C37.6641 84.6595 40.7326 85.4878 44.3233 83.415Z" fill="white"/>
<path d="M39.4063 72.5736C39.5126 72.3227 39.7071 72.1195 39.9531 72.0023C40.0051 71.976 40.0598 71.9554 40.1163 71.9411C40.2814 71.9139 40.4507 71.9276 40.6093 71.9809C40.768 72.0343 40.9111 72.1257 41.0262 72.2471C41.2532 72.4919 41.4061 72.7962 41.4669 73.1244C41.528 73.4518 41.5648 73.7832 41.5771 74.1159C41.625 74.704 41.7164 75.2877 41.8505 75.8623C41.9208 76.1762 42.0582 76.4711 42.2533 76.7267C42.4484 76.9824 42.6966 77.1928 42.9807 77.3435L43.0215 77.3639C43.8456 77.7724 44.7434 78.011 45.6615 78.0657V79.0654C46.3919 80.0569 46.5959 81.9543 44.6741 81.3871C42.7522 80.8199 41.5036 79.5428 41.5036 78.2901C41.5036 77.7597 41.4791 77.066 41.4628 76.4703C41.4628 75.6542 41.4302 74.9647 41.4302 74.9647C41.2514 75.1718 41.0005 75.3031 40.7284 75.3319C40.6057 75.3479 40.4812 75.3409 40.3611 75.3115C40.1853 75.2546 40.0226 75.1632 39.8825 75.0427C39.7424 74.9222 39.6277 74.775 39.5451 74.6097C39.3826 74.2761 39.2935 73.9115 39.2839 73.5406C39.2485 73.2131 39.2904 72.8819 39.4063 72.5736Z" fill="#FFA8A7"/>
<path opacity="0.3" d="M39.4063 72.5736C39.5126 72.3227 39.7071 72.1195 39.9531 72.0023C40.0051 71.976 40.0598 71.9554 40.1163 71.9411C40.2814 71.9139 40.4507 71.9276 40.6093 71.9809C40.768 72.0343 40.9111 72.1257 41.0262 72.2471C41.2532 72.4919 41.4061 72.7962 41.4669 73.1244C41.528 73.4518 41.5648 73.7832 41.5771 74.1159C41.625 74.704 41.7164 75.2877 41.8505 75.8623C41.9208 76.1762 42.0582 76.4711 42.2533 76.7267C42.4484 76.9824 42.6966 77.1928 42.9807 77.3435L43.0215 77.3639C43.8456 77.7724 44.7434 78.011 45.6615 78.0657V79.0654C46.3919 80.0569 46.5959 81.9543 44.6741 81.3871C42.7522 80.8199 41.5036 79.5428 41.5036 78.2901C41.5036 77.7597 41.4791 77.066 41.4628 76.4703C41.4628 75.6542 41.4302 74.9647 41.4302 74.9647C41.2514 75.1718 41.0005 75.3031 40.7284 75.3319C40.6057 75.3479 40.4812 75.3409 40.3611 75.3115C40.1853 75.2546 40.0226 75.1632 39.8825 75.0427C39.7424 74.9222 39.6277 74.775 39.5451 74.6097C39.3826 74.2761 39.2935 73.9115 39.2839 73.5406C39.2485 73.2131 39.2904 72.8819 39.4063 72.5736Z" fill="black"/>
<path d="M40.0307 69.1054C40.4143 68.6544 40.9529 68.3632 41.5404 68.2893L49.4277 69.0238C50.3376 70.9538 49.6113 72.2268 49.6113 72.2268C49.7337 75.1647 49.8357 77.0335 48.5423 77.6537C47.6293 78.0213 46.6407 78.1613 45.6615 78.0617C44.7434 78.007 43.8456 77.7684 43.0216 77.3599L42.9808 77.3354C42.6957 77.185 42.4468 76.9741 42.2516 76.7176C42.0564 76.4611 41.9195 76.1651 41.8505 75.8502C41.7164 75.2783 41.6251 74.6973 41.5771 74.1119C41.5649 73.7792 41.528 73.4478 41.467 73.1204C41.4061 72.7922 41.2533 72.4879 41.0263 72.2432C40.9112 72.1217 40.768 72.0303 40.6094 71.9769C40.4508 71.9236 40.2815 71.9099 40.1164 71.9371C40.0599 71.9514 40.0051 71.972 39.9531 71.9983C39.7287 70.6967 39.6634 69.5665 40.0307 69.1054Z" fill="#263238"/>
<path d="M42.9194 69.3298C43.0554 69.8783 43.0184 70.4556 42.8133 70.9823C42.6093 71.5057 42.4429 72.0429 42.3155 72.5899C42.2082 73.143 42.2841 73.716 42.5317 74.2221C42.6549 74.4712 42.8313 74.6903 43.0485 74.8637C43.2656 75.0372 43.5183 75.1608 43.7885 75.2258C44.6331 75.4054 45.4614 74.9117 46.3142 74.7484C47.1278 74.6009 47.9674 74.7454 48.6849 75.1565C48.7454 75.1934 48.8146 75.214 48.8855 75.216C48.9565 75.2181 49.0267 75.2017 49.0893 75.1683C49.152 75.1349 49.2048 75.0858 49.2426 75.0258C49.2805 74.9657 49.302 74.8969 49.3051 74.826C49.4071 73.1367 49.4071 70.4845 49.1541 69.24L42.9194 69.3298Z" fill="#FFA8A7"/>
<path opacity="0.3" d="M42.9194 69.3298C43.0554 69.8783 43.0184 70.4556 42.8133 70.9823C42.6093 71.5057 42.4429 72.0429 42.3155 72.5899C42.2082 73.143 42.2841 73.716 42.5317 74.2221C42.6549 74.4712 42.8313 74.6903 43.0485 74.8637C43.2656 75.0372 43.5183 75.1608 43.7885 75.2258C44.6331 75.4054 45.4614 74.9117 46.3142 74.7484C47.1278 74.6009 47.9674 74.7454 48.6849 75.1565C48.7454 75.1934 48.8146 75.214 48.8855 75.216C48.9565 75.2181 49.0267 75.2017 49.0893 75.1683C49.152 75.1349 49.2048 75.0858 49.2426 75.0258C49.2805 74.9657 49.302 74.8969 49.3051 74.826C49.4071 73.1367 49.4071 70.4845 49.1541 69.24L42.9194 69.3298Z" fill="black"/>
<path d="M49.0236 67.7997L50.0029 67.1183C50.1042 67.446 50.123 67.7937 50.0575 68.1305C49.992 68.4672 49.8443 68.7825 49.6275 69.0483C49.1789 69.5689 48.5706 69.9261 47.8974 70.0643C47.2268 70.2047 46.538 70.2363 45.8573 70.1582C44.8643 70.0761 43.8817 69.8971 42.9235 69.6237C42.4904 69.5333 42.0915 69.3226 41.7729 69.0157C41.5729 68.7619 41.4592 68.4509 41.4481 68.128C41.4371 67.8051 41.5294 67.4871 41.7116 67.2203C41.9014 66.9569 42.1451 66.737 42.4266 66.5752C42.708 66.4134 43.0207 66.3134 43.3438 66.2819C43.998 66.2317 44.6561 66.284 45.2942 66.4369C45.9336 66.5906 46.594 66.6374 47.2487 66.5756C47.5749 66.5413 47.888 66.4287 48.1614 66.2476C48.4349 66.0665 48.6607 65.8221 48.8196 65.5352C49.3704 66.4288 49.0236 67.7997 49.0236 67.7997Z" fill="#263238"/>
<path d="M46.5469 72.333L47.9872 74.0753L46.6652 74.5405L46.5469 72.333Z" fill="#F28F8F"/>
<path opacity="0.3" d="M46.5469 72.333L47.9872 74.0753L46.6652 74.5405L46.5469 72.333Z" fill="black"/>
<path d="M45.4575 75.4053L46.5714 75.7439C46.5011 75.8756 46.3898 75.9807 46.2543 76.0433C46.1187 76.1059 45.9665 76.1226 45.8207 76.0908C45.6912 76.0348 45.5847 75.9364 45.5187 75.8118C45.4527 75.6872 45.4311 75.5438 45.4575 75.4053Z" fill="#F28F8F"/>
<path opacity="0.3" d="M45.4575 75.4053L46.5714 75.7439C46.5011 75.8756 46.3898 75.9807 46.2543 76.0433C46.1187 76.1059 45.9665 76.1226 45.8207 76.0908C45.6912 76.0348 45.5847 75.9364 45.5187 75.8118C45.4527 75.6872 45.4311 75.5438 45.4575 75.4053Z" fill="black"/>
<path d="M46.1836 76.0663C46.0682 76.1127 45.9411 76.1213 45.8205 76.0908C45.718 76.0516 45.6293 75.9832 45.5654 75.8939C45.5016 75.8047 45.4654 75.6986 45.4614 75.5889C45.6022 75.5714 45.7449 75.5985 45.8695 75.6665C45.9461 75.7085 46.0134 75.7656 46.0674 75.8343C46.1214 75.903 46.1609 75.982 46.1836 76.0663Z" fill="#F28F8F"/>
<path d="M44.5925 72.6961C44.5929 72.7783 44.618 72.8584 44.6647 72.9261C44.7114 72.9938 44.7774 73.0458 44.8541 73.0753C44.9308 73.1048 45.0147 73.1104 45.0946 73.0914C45.1746 73.0725 45.247 73.0298 45.3023 72.969C45.3577 72.9082 45.3933 72.8322 45.4047 72.7507C45.416 72.6693 45.4025 72.5864 45.3659 72.5128C45.3294 72.4392 45.2714 72.3783 45.1996 72.3382C45.1279 72.2981 45.0457 72.2806 44.9638 72.288C44.8621 72.2972 44.7675 72.3442 44.6988 72.4198C44.63 72.4953 44.5921 72.5939 44.5925 72.6961Z" fill="#263238"/>
<path d="M47.8974 72.4064C47.8845 72.4676 47.8857 72.5309 47.9012 72.5915C47.9166 72.6521 47.9457 72.7084 47.9863 72.7559C48.027 72.8035 48.078 72.841 48.1354 72.8657C48.1929 72.8904 48.2552 72.9016 48.3177 72.8984C48.3802 72.8951 48.441 72.8776 48.4956 72.8471C48.5502 72.8166 48.5971 72.7739 48.6326 72.7224C48.668 72.6709 48.6912 72.612 48.7003 72.5501C48.7094 72.4882 48.7041 72.4251 48.6849 72.3656C48.6979 72.3044 48.6966 72.2411 48.6812 72.1805C48.6657 72.1198 48.6366 72.0636 48.596 72.016C48.5553 71.9685 48.5043 71.9309 48.4469 71.9062C48.3894 71.8815 48.3271 71.8704 48.2646 71.8736C48.2022 71.8768 48.1413 71.8944 48.0867 71.9249C48.0321 71.9554 47.9852 71.998 47.9498 72.0495C47.9143 72.101 47.8911 72.16 47.882 72.2219C47.8729 72.2837 47.8782 72.3469 47.8974 72.4064Z" fill="#263238"/>
<path d="M48.1953 70.815L49.1011 71.374C49.1349 71.264 49.1333 71.1463 49.0967 71.0372C49.0601 70.9282 48.9903 70.8334 48.8971 70.766C48.7873 70.7077 48.6633 70.6814 48.5392 70.6901C48.4152 70.6987 48.296 70.742 48.1953 70.815Z" fill="#263238"/>
<path d="M44.8168 70.9497L43.9722 71.6026C43.9283 71.4962 43.9181 71.379 43.9429 71.2666C43.9677 71.1543 44.0264 71.0522 44.1109 70.9742C44.2147 70.9052 44.3357 70.8663 44.4604 70.862C44.585 70.8577 44.7084 70.888 44.8168 70.9497Z" fill="#263238"/>
<path opacity="0.2" d="M42.4911 77.3109C42.2701 77.0283 42.1128 76.7012 42.03 76.3521C42.2337 76.7751 42.5666 77.1224 42.9807 77.3436L43.0216 77.364C43.8456 77.7724 44.7434 78.0111 45.6615 78.0658V78.739C45.1306 78.6942 44.6071 78.5846 44.1028 78.4126C43.4722 78.2052 42.9133 77.8232 42.4911 77.3109Z" fill="black"/>
<path d="M106.956 16.5425C107.324 16.3303 107.621 16.5017 107.621 16.922L107.646 26.0252C107.634 26.255 107.568 26.4788 107.454 26.6782C107.339 26.8775 107.178 27.0467 106.985 27.1718L85.4447 39.6087L85.4121 28.9998L106.956 16.5425Z" fill="#399A19"/>
<g opacity="0.3">
<path d="M106.956 16.5425C107.324 16.3303 107.621 16.5017 107.621 16.922L107.646 26.0252C107.634 26.255 107.568 26.4788 107.454 26.6782C107.339 26.8775 107.178 27.0467 106.985 27.1718L85.4447 39.6087L85.4121 28.9998L106.956 16.5425Z" fill="white"/>
</g>
<path d="M106.169 24.083V24.8134L90.3005 33.9778V33.2434L106.169 24.083Z" fill="white"/>
<path d="M96.7555 31.0767L96.7595 31.8111L90.3044 35.5365V34.8061L96.7555 31.0767Z" fill="white"/>
<path d="M106.161 22.5244L106.165 23.2589L90.2963 32.4192L90.2922 31.6888L106.161 22.5244Z" fill="white"/>
<path d="M106.157 20.9656L106.161 21.696L90.2922 30.8604V30.1259L106.157 20.9656Z" fill="white"/>
<path d="M101.913 21.1206L101.917 22.5854L90.288 29.2976L90.2839 27.8368L101.913 21.1206Z" fill="white"/>
<path d="M79.0712 26.368C81.5928 24.9113 84.1185 24.5604 86.0526 25.6621C89.6107 27.7023 89.9453 33.9983 86.8279 40.3065L79.1528 55.8566L71.4001 49.2057C68.2583 46.5086 68.5439 39.8209 72.0938 33.7004C74.0279 30.3872 76.5495 27.8125 79.0712 26.368Z" fill="#399A19"/>
<path d="M85.0265 41.0785C88.3054 35.4358 88.3145 29.3223 85.047 27.4236C81.7795 25.5249 76.4726 28.56 73.1937 34.2027C69.9149 39.8454 69.9057 45.9589 73.1732 47.8576C76.4408 49.7563 81.7477 46.7212 85.0265 41.0785Z" fill="#455A64"/>
<path d="M79.1407 47.2755C81.2788 46.0514 83.221 44.0113 84.6981 41.6202C83.6719 41.1151 82.515 40.9384 81.3849 41.1142L80.2709 41.2774L76.6925 41.9548L74.0035 43.5502C72.9315 44.1851 72.1028 45.1604 71.6492 46.3207C73.0569 48.6506 75.8805 49.1566 79.1407 47.2755Z" fill="#399A19"/>
<path opacity="0.2" d="M79.1407 47.2755C81.2788 46.0514 83.221 44.0113 84.6981 41.6202C83.6719 41.1151 82.515 40.9384 81.3849 41.1142L80.2709 41.2774L76.6925 41.9548L74.0035 43.5502C72.9315 44.1851 72.1028 45.1604 71.6492 46.3207C73.0569 48.6506 75.8805 49.1566 79.1407 47.2755Z" fill="white"/>
<path d="M72.8692 34.8061C72.8692 35.0142 72.9018 35.2141 72.914 35.4345C72.9672 35.9872 72.8961 36.5449 72.706 37.0666C72.4571 37.6664 71.9633 38.152 71.8042 38.7803C71.731 39.0702 71.7348 39.3742 71.8151 39.6623C71.8954 39.9503 72.0496 40.2123 72.2622 40.4225C72.4749 40.6327 72.7387 40.7837 73.0277 40.8607C73.3166 40.9377 73.6206 40.9379 73.9097 40.8613C73.7896 40.4243 73.7359 39.9718 73.7505 39.5189C73.8036 40.1268 74.4075 40.6002 74.9746 40.8042C75.5626 40.9735 76.1778 41.0276 76.7863 40.9633L78.9325 40.8817L81.4338 40.7838C81.8797 40.793 82.3232 40.7154 82.7395 40.5553C83.0859 40.3673 83.3761 40.0907 83.5804 39.7537C83.7848 39.4168 83.8959 39.0315 83.9024 38.6375C83.8897 37.7991 83.6948 36.9735 83.3311 36.2179C83.8669 35.6774 84.1999 34.9688 84.2743 34.2115C84.3486 33.4541 84.1596 32.6943 83.7392 32.06C83.9645 31.9712 84.1548 31.8116 84.2816 31.6052C84.4083 31.3989 84.4647 31.157 84.4421 30.9159C84.4196 30.6748 84.3194 30.4475 84.1565 30.2683C83.9937 30.089 83.7771 29.9675 83.5392 29.9219C83.1306 29.8982 82.7213 29.9565 82.3355 30.0933C81.6502 30.2177 80.9481 30.2177 80.2627 30.0933C79.5732 29.9954 78.8917 29.8444 78.2226 29.7954C77.6612 29.7432 77.0951 29.7972 76.5537 29.9546C75.0753 31.3655 73.8315 33.0033 72.8692 34.8061Z" fill="#263238"/>
<path d="M80.2708 39.6983V41.9792C80.2708 41.9792 82.1356 43.1707 81.3521 43.8032C79.871 44.9946 76.6924 41.967 76.6924 41.967V38.1682L80.2708 39.6983Z" fill="#FFA8A7"/>
<path opacity="0.3" d="M76.7007 38.1682C77.2515 39.8003 79.2509 41.0449 80.2791 41.2897V39.6983L76.7007 38.1682Z" fill="black"/>
<path d="M77.1291 35.5651C77.1773 35.8494 77.191 36.1385 77.1699 36.426C77.1394 36.6437 77.0392 36.8455 76.8843 37.0014C76.8083 37.0739 76.7161 37.1273 76.6153 37.1571C76.5146 37.1869 76.4081 37.1923 76.3049 37.1727C76.355 36.8921 76.2964 36.6028 76.141 36.3638C75.9855 36.1248 75.745 35.9539 75.4681 35.8859C75.1912 35.8178 74.8988 35.8577 74.6503 35.9974C74.4018 36.1372 74.2158 36.3663 74.1301 36.6382C74.0813 36.8379 74.0768 37.0459 74.117 37.2475C74.1572 37.4491 74.241 37.6395 74.3627 37.8052C74.6091 38.1358 74.9308 38.403 75.3011 38.5845C75.5113 38.6551 75.7396 38.6496 75.9461 38.569C76.1527 38.4885 76.3244 38.338 76.4314 38.1439C77.5208 39.523 79.4223 40.5635 81.2054 40.4125C81.6933 40.3865 82.1636 40.2208 82.56 39.9351C83.2333 39.4128 83.2823 38.6253 83.3761 37.8501C83.502 36.8662 83.4951 35.8698 83.3557 34.8877C83.1732 33.5148 82.5095 32.2511 81.4828 31.3215C80.8626 34.2757 78.1614 35.357 77.1291 35.5651Z" fill="#FFA8A7"/>
<path d="M80.8379 35.2385L82.0579 36.7442L80.9236 37.1318L80.8379 35.2385Z" fill="#F28F8F"/>
<path d="M79.8832 37.8662L80.8339 38.1682C80.7729 38.2801 80.6766 38.3687 80.56 38.4203C80.4435 38.472 80.3131 38.4837 80.1892 38.4538C80.0781 38.4063 79.9869 38.3219 79.9311 38.2147C79.8753 38.1076 79.8584 37.9844 79.8832 37.8662Z" fill="#F28F8F"/>
<path opacity="0.3" d="M79.8832 37.8662L80.8339 38.1682C80.7729 38.2801 80.6766 38.3687 80.56 38.4203C80.4435 38.472 80.3131 38.4837 80.1892 38.4538C80.0781 38.4063 79.9869 38.3219 79.9311 38.2147C79.8753 38.1076 79.8584 37.9844 79.8832 37.8662Z" fill="black"/>
<path d="M80.4994 38.4416C80.3983 38.472 80.2905 38.472 80.1893 38.4416C80.1044 38.4104 80.0303 38.3552 79.976 38.2828C79.9217 38.2104 79.8895 38.1239 79.8833 38.0336C80.0101 38.0132 80.1399 38.0378 80.2505 38.103C80.3125 38.14 80.3664 38.1891 80.4091 38.2472C80.4518 38.3054 80.4825 38.3715 80.4994 38.4416Z" fill="#F28F8F"/>
<path d="M79.161 35.565C79.1626 35.6093 79.173 35.6528 79.1915 35.6931C79.21 35.7334 79.2364 35.7695 79.2691 35.7995C79.3017 35.8295 79.34 35.8527 79.3817 35.8678C79.4234 35.8829 79.4677 35.8895 79.5119 35.8873C79.579 35.8848 79.6438 35.8624 79.6982 35.823C79.7525 35.7836 79.7939 35.7289 79.8171 35.6659C79.8403 35.6029 79.8443 35.5345 79.8285 35.4692C79.8127 35.404 79.7779 35.3449 79.7284 35.2995C79.679 35.2541 79.6172 35.2244 79.5508 35.2141C79.4845 35.2039 79.4166 35.2137 79.3558 35.2421C79.295 35.2706 79.244 35.3165 79.2093 35.3739C79.1746 35.4314 79.1578 35.4979 79.161 35.565Z" fill="#263238"/>
<path d="M81.9927 35.3161C81.996 35.3829 82.019 35.4473 82.0589 35.5011C82.0988 35.5549 82.1537 35.5956 82.2167 35.6182C82.2798 35.6408 82.3481 35.6442 82.413 35.6279C82.478 35.6117 82.5366 35.5766 82.5817 35.527C82.6267 35.4775 82.656 35.4157 82.6659 35.3495C82.6758 35.2833 82.6658 35.2156 82.6373 35.155C82.6088 35.0945 82.5629 35.0437 82.5056 35.0092C82.4482 34.9747 82.3819 34.9579 82.315 34.9611C82.2255 34.9663 82.1417 35.0065 82.0814 35.0728C82.0212 35.1392 81.9893 35.2265 81.9927 35.3161Z" fill="#263238"/>
<path d="M82.2622 33.9533L83.0375 34.4388C83.0653 34.3441 83.0639 34.2431 83.0333 34.1491C83.0027 34.0552 82.9444 33.9727 82.8661 33.9125C82.7715 33.863 82.665 33.8406 82.5584 33.8478C82.4518 33.855 82.3493 33.8915 82.2622 33.9533Z" fill="#263238"/>
<path d="M79.365 34.043L78.6387 34.5939C78.6023 34.5029 78.5945 34.403 78.6164 34.3075C78.6383 34.212 78.6888 34.1254 78.7611 34.0593C78.85 34 78.9539 33.967 79.0607 33.9641C79.1676 33.9612 79.2731 33.9885 79.365 34.043Z" fill="#263238"/>
<path d="M115.798 99.4182C111.62 102.319 106.911 104.315 103.419 108.219C96.8901 115.491 96.7473 127.189 101.868 135.505C106.989 143.82 116.516 148.815 126.215 149.957C136.392 151.157 147.07 148.325 155.051 141.923C163.032 135.521 168.108 125.467 168.108 115.217C168.108 104.967 162.853 94.7707 154.272 89.1725C146.442 84.0639 135.192 82.6072 127.342 88.4503C123.371 91.4044 120.723 95.7663 116.761 98.7286C116.443 98.9653 116.121 99.1938 115.798 99.4182Z" fill="#399A19"/>
<path opacity="0.3" d="M115.798 99.4182C111.62 102.319 106.911 104.315 103.419 108.219C96.8901 115.491 96.7473 127.189 101.868 135.505C106.989 143.82 116.516 148.815 126.215 149.957C136.392 151.157 147.07 148.325 155.051 141.923C163.032 135.521 168.108 125.467 168.108 115.217C168.108 104.967 162.853 94.7707 154.272 89.1725C146.442 84.0639 135.192 82.6072 127.342 88.4503C123.371 91.4044 120.723 95.7663 116.761 98.7286C116.443 98.9653 116.121 99.1938 115.798 99.4182Z" fill="black"/>
<path opacity="0.1" d="M117.504 142.013C117.504 141.943 117.504 141.874 117.532 141.805C117.88 139.539 118.926 137.438 120.524 135.794C122.122 134.151 124.193 133.047 126.448 132.636C130.485 131.865 134.353 130.384 137.873 128.262C140.366 126.752 142.724 124.904 145.528 124.084C148.251 123.302 151.16 123.472 153.774 124.565C151.424 122.092 147.388 121.007 144.165 122.117C146.397 118.702 148.359 115.021 149.126 111.014C149.894 107.007 149.351 102.613 146.935 99.3242C145.905 97.9231 144.576 96.7679 143.046 95.9417C141.516 95.1154 139.821 94.6387 138.084 94.5458C136.347 94.453 134.612 94.7462 133.002 95.4046C131.392 96.0629 129.948 97.0699 128.774 98.3531C126.383 100.973 125.032 104.653 123.469 107.836C122.339 110.117 121.172 112.455 119.311 114.193C116.504 116.821 112.469 117.767 109.555 120.281C106.258 123.137 104.834 127.683 104.818 132.04C104.872 134.981 105.302 137.903 106.095 140.736C109.508 143.992 113.577 146.481 118.03 148.035C117.381 146.098 117.201 144.034 117.504 142.013Z" fill="black"/>
<path d="M162.649 113.814C162.519 106.738 159.885 99.9381 155.214 94.6218C150.543 89.3055 144.138 85.8176 137.139 84.7781C136.167 84.8739 135.203 85.0362 134.254 85.2636C141.613 85.6552 148.551 88.8184 153.673 94.1173C158.795 99.4162 161.72 106.458 161.861 113.826C162.045 123.362 157.373 133.081 149.38 139.826C143.112 145.13 134.784 148.615 125.628 149.88L126.215 149.953C127.032 150.051 127.848 150.121 128.692 150.165C136.824 148.586 144.198 145.232 149.89 140.43C158.071 133.534 162.841 123.586 162.649 113.814Z" fill="white"/>
<path d="M106.299 140.23C106.587 141.739 106.751 143.269 106.789 144.804L107.874 144.396C108.387 144.206 108.943 144.17 109.476 144.291C110.009 144.413 110.494 144.688 110.873 145.081L110.926 145.139C111.121 145.341 111.385 145.461 111.665 145.474C111.946 145.487 112.22 145.392 112.432 145.208C112.546 145.109 112.638 144.988 112.702 144.851C112.767 144.715 112.803 144.567 112.807 144.416L112.954 139.802L106.299 140.23Z" fill="#916160"/>
<path d="M110.486 157.396C108.233 159.803 104.088 161.909 101.076 159.844L101.415 160.607C104.426 162.647 108.572 160.558 110.824 158.159C113.077 155.76 111.616 154.078 113.64 151.944C114.404 151.212 115.002 150.324 115.394 149.341C115.305 149.113 115.219 148.811 115.113 148.468C114.674 149.47 114.062 150.387 113.305 151.177C111.281 153.32 112.738 154.988 110.486 157.396Z" fill="white"/>
<path d="M114.003 145.954C113.656 145.465 113.415 144.909 113.293 144.322C113.273 144.185 113.223 144.053 113.146 143.938C113.069 143.822 112.967 143.725 112.848 143.653L112.824 144.424C112.817 144.639 112.746 144.847 112.622 145.022C112.497 145.198 112.324 145.332 112.123 145.409C111.922 145.486 111.703 145.503 111.493 145.456C111.283 145.409 111.092 145.301 110.943 145.146L110.89 145.089C110.509 144.692 110.021 144.416 109.485 144.294C108.949 144.172 108.389 144.21 107.874 144.404L106.773 144.812C106.607 144.873 106.465 144.985 106.366 145.131C106.267 145.278 106.217 145.451 106.222 145.628C106.291 148.786 104.818 152.973 103.272 155.282C101.68 155.943 100.305 158.11 101.007 159.701L101.076 159.86C104.088 161.9 108.233 159.807 110.486 157.412C112.738 155.017 111.277 153.332 113.305 151.198C114.062 150.407 114.674 149.49 115.113 148.488C114.862 147.596 114.489 146.743 114.003 145.954Z" fill="#399A19"/>
<path d="M109.596 150.516C109.686 150.553 109.785 150.554 109.876 150.521C109.967 150.487 110.042 150.421 110.086 150.335C110.13 150.25 110.141 150.15 110.116 150.057C110.091 149.964 110.032 149.883 109.951 149.831C109.291 149.458 108.546 149.262 107.789 149.262C107.031 149.262 106.286 149.458 105.626 149.831C105.557 150.08 105.487 150.329 105.41 150.573C106.043 150.202 106.761 150.001 107.495 149.991C108.229 149.981 108.953 150.162 109.596 150.516Z" fill="white"/>
<path d="M110.151 148.807C110.242 148.854 110.347 148.863 110.444 148.832C110.541 148.802 110.622 148.734 110.669 148.643C110.717 148.553 110.726 148.448 110.695 148.35C110.665 148.253 110.597 148.172 110.506 148.125C109.817 147.749 109.043 147.555 108.257 147.562C107.472 147.568 106.701 147.775 106.018 148.162C105.973 148.419 105.92 148.676 105.863 148.933C107.164 148.243 108.486 147.966 110.151 148.807Z" fill="white"/>
<path d="M108.988 152.214C109.079 152.261 109.184 152.27 109.281 152.24C109.378 152.209 109.459 152.141 109.507 152.051C109.554 151.96 109.563 151.855 109.532 151.758C109.502 151.661 109.434 151.579 109.343 151.532C108.699 151.168 107.972 150.973 107.231 150.965C106.491 150.957 105.76 151.137 105.108 151.488C105.014 151.757 104.912 152.018 104.81 152.275C105.442 151.904 106.159 151.704 106.891 151.693C107.623 151.683 108.346 151.862 108.988 152.214Z" fill="white"/>
<path d="M103.272 155.278C101.68 155.939 100.305 158.106 101.007 159.697L101.076 159.856C104.047 161.896 108.111 159.856 110.384 157.502C108.486 153.785 104.524 154.711 103.272 155.278Z" fill="white"/>
<path d="M108.323 153.895C108.414 153.939 108.519 153.945 108.614 153.912C108.71 153.879 108.788 153.81 108.833 153.719C108.879 153.631 108.888 153.527 108.859 153.432C108.829 153.336 108.763 153.256 108.674 153.209C108.028 152.845 107.301 152.651 106.559 152.644C105.818 152.638 105.087 152.82 104.435 153.173C104.3 153.466 104.161 153.748 104.027 154.021C105.332 153.307 106.658 153.03 108.323 153.895Z" fill="white"/>
<path d="M101.566 149.406C101.22 150.903 100.751 152.369 100.167 153.789L101.325 153.85C101.874 153.88 102.402 154.071 102.843 154.399C103.284 154.727 103.619 155.178 103.806 155.694L103.835 155.768C103.929 156.033 104.123 156.251 104.375 156.376C104.626 156.502 104.917 156.525 105.185 156.441C105.329 156.396 105.462 156.323 105.575 156.224C105.689 156.126 105.781 156.005 105.846 155.87L107.842 151.704L101.566 149.406Z" fill="#916160"/>
<path d="M98.4692 166.809C95.4375 168.103 90.7941 168.356 88.8682 165.259V166.099C90.7941 169.192 95.4375 168.955 98.4692 167.646C101.501 166.336 100.84 164.234 103.553 163.096C104.549 162.736 105.455 162.166 106.21 161.423C106.21 161.178 106.263 160.868 106.303 160.509C105.497 161.25 104.566 161.843 103.553 162.26C100.84 163.398 101.489 165.512 98.4692 166.809Z" fill="white"/>
<path d="M106.303 157.759C106.179 157.17 106.179 156.561 106.303 155.972C106.339 155.838 106.345 155.697 106.321 155.561C106.297 155.424 106.244 155.294 106.165 155.18L105.83 155.878C105.738 156.073 105.59 156.236 105.405 156.347C105.219 156.458 105.006 156.511 104.79 156.5C104.575 156.489 104.367 156.414 104.194 156.285C104.021 156.156 103.891 155.979 103.818 155.776L103.79 155.702C103.603 155.186 103.268 154.735 102.827 154.407C102.386 154.079 101.858 153.888 101.309 153.858L100.134 153.793C99.9609 153.787 99.7903 153.833 99.6445 153.927C99.4987 154.02 99.3848 154.155 99.3178 154.315C98.0937 157.232 95.062 160.476 92.7159 161.962C90.998 161.921 88.864 163.349 88.864 165.087V165.259C90.7899 168.355 95.4334 168.115 98.465 166.809C101.497 165.503 100.836 163.398 103.549 162.259C104.562 161.843 105.493 161.25 106.299 160.509C106.429 159.597 106.43 158.671 106.303 157.759Z" fill="#399A19"/>
<path d="M100.432 160.154C100.5 160.227 100.593 160.272 100.692 160.281C100.791 160.29 100.89 160.262 100.97 160.203C101.048 160.141 101.099 160.05 101.11 159.95C101.122 159.851 101.093 159.751 101.032 159.673C100.578 159.066 99.9753 158.586 99.2818 158.281C98.5883 157.976 97.8277 157.855 97.0737 157.93C96.9105 158.13 96.7473 158.338 96.5759 158.526C97.3047 158.439 98.0434 158.544 98.7195 158.829C99.3956 159.115 99.9857 159.571 100.432 160.154Z" fill="white"/>
<path d="M101.627 158.816C101.696 158.888 101.788 158.933 101.887 158.942C101.987 158.951 102.086 158.924 102.166 158.865C102.244 158.802 102.294 158.711 102.306 158.612C102.317 158.513 102.289 158.413 102.227 158.334C101.748 157.709 101.117 157.217 100.395 156.904C99.672 156.591 98.8814 156.468 98.0979 156.547C97.951 156.767 97.8 156.979 97.6409 157.196C99.122 157.09 100.444 157.371 101.627 158.816Z" fill="white"/>
<path d="M99.1914 161.46C99.2553 161.539 99.3481 161.59 99.4495 161.601C99.5509 161.612 99.6525 161.583 99.7321 161.519C99.8116 161.455 99.8625 161.362 99.8736 161.261C99.8847 161.159 99.8551 161.058 99.7912 160.978C99.3468 160.387 98.7606 159.917 98.0867 159.612C97.4128 159.307 96.673 159.176 95.9353 159.232C95.7395 159.44 95.5273 159.64 95.3396 159.832C96.0676 159.747 96.8051 159.852 97.4802 160.138C98.1553 160.423 98.7449 160.879 99.1914 161.46Z" fill="white"/>
<path d="M92.72 161.962C91.0022 161.921 88.8682 163.349 88.8682 165.087V165.258C90.7655 168.311 95.2988 168.115 98.3305 166.862C98.0979 162.696 94.0992 161.945 92.72 161.962Z" fill="white"/>
<path d="M97.9101 162.712C97.9784 162.785 98.0709 162.83 98.1701 162.839C98.2693 162.848 98.3684 162.82 98.4487 162.761C98.5267 162.699 98.5769 162.608 98.5884 162.509C98.5998 162.409 98.5716 162.31 98.5099 162.231C98.0667 161.636 97.4796 161.164 96.8036 160.858C96.1277 160.553 95.3851 160.424 94.6458 160.485C94.4051 160.697 94.1643 160.893 93.9236 161.092C95.4047 160.986 96.7268 161.268 97.9101 162.712Z" fill="white"/>
<path d="M119.377 109.974L104.202 118.429C102.826 119.195 101.726 120.374 101.056 121.8C100.386 123.225 100.181 124.825 100.469 126.373L103.415 142.237L100.999 149.912C103.08 152.707 107.866 152.846 107.866 152.846C110.535 147.493 112.493 145.22 114.011 140.736C115.529 136.251 116.537 133.155 116.537 133.155L129.141 129.711C132.023 128.927 134.604 127.298 136.551 125.033C138.498 122.768 139.722 119.972 140.064 117.005C140.276 115.095 140.289 113.793 140.289 113.793L119.377 109.974Z" fill="#37474F"/>
<path opacity="0.2" d="M119.495 114.238C119.497 115.931 120.098 117.569 121.193 118.861L110.465 125.565C108.898 126.552 107.74 128.07 107.201 129.841L103.41 142.237L106.83 128.429C107.221 126.842 108.221 125.472 109.613 124.614L119.499 118.494C118.495 115.972 119.495 114.238 119.495 114.238Z" fill="black"/>
<path d="M116.035 102.311C114.954 104.351 107.254 103.437 107.576 100.1C109.6 95.8764 115.974 98.6021 116.035 102.311Z" fill="#399A19"/>
<path d="M121.021 83.8965H120.613C117.993 83.925 114.676 85.7082 113.052 90.2863L106.793 102.482L113.983 105.673L117.916 94.1585L121.021 83.8965Z" fill="#916160"/>
<path d="M115.974 91.992C115.472 93.4323 115.439 94.9869 115.362 96.5089C115.284 98.0309 115.105 99.8752 114.407 101.23C113.638 100.698 112.719 100.429 111.785 100.463C110.851 100.497 109.953 100.832 109.225 101.418C108.705 101.855 108.303 102.416 108.058 103.05L113.962 105.669L117.896 94.1546L119.85 87.8137C118.958 88.2168 118.156 88.794 117.49 89.5115C116.824 90.229 116.309 91.0724 115.974 91.992Z" fill="#7A4C4A"/>
<path d="M114.028 103.474C113.754 102.793 113.31 102.194 112.738 101.734C112.167 101.274 111.487 100.968 110.763 100.846C109.323 100.614 107.691 101.365 106.76 102.478C105.977 103.429 106.099 104.71 106.593 105.837C107.008 106.711 107.712 107.416 108.587 107.83C109.461 108.244 110.452 108.343 111.392 108.109C113.26 107.599 114.729 105.273 114.028 103.474Z" fill="#916160"/>
<path d="M121.021 83.8965C117.887 83.5496 113.897 84.3045 107.576 100.099C111.302 96.4027 116.035 102.311 116.035 102.311C118.74 95.9539 123.522 85.3164 123.522 85.3164L121.021 83.8965Z" fill="#399A19"/>
<path opacity="0.2" d="M121.021 83.8965C117.887 83.5496 113.897 84.3045 107.576 100.099C111.302 96.4027 116.035 102.311 116.035 102.311C118.74 95.9539 123.522 85.3164 123.522 85.3164L121.021 83.8965Z" fill="white"/>
<path d="M141.843 120.811C135.763 125.863 123.343 113.638 116.68 111.459C118.72 106.804 118.72 102.556 118.312 97.8596C117.904 93.1631 115.145 84.9453 120.389 83.9864C127.391 82.6195 130.928 83.8763 136.645 85.3615C144.846 97.1782 142.263 111.994 141.843 120.811Z" fill="#399A19"/>
<path opacity="0.7" d="M141.843 120.811C135.763 125.863 123.343 113.638 116.68 111.459C118.72 106.804 118.72 102.556 118.312 97.8596C117.904 93.1631 115.145 84.9453 120.389 83.9864C127.391 82.6195 130.928 83.8763 136.645 85.3615C144.846 97.1782 142.263 111.994 141.843 120.811Z" fill="white"/>
<path d="M123.437 81.6117L123.71 84.6475C123.724 84.8829 123.664 85.1166 123.539 85.3166C123.37 85.6333 123.304 85.9951 123.352 86.3509C123.4 86.7067 123.558 87.0386 123.804 87.2997C124.196 87.5955 124.672 87.7572 125.163 87.7608C126.088 87.8097 127.014 87.6627 127.879 87.3294C128.744 86.9962 129.528 86.4841 130.182 85.8267C130.316 85.6896 130.422 85.5268 130.492 85.348C130.562 85.1692 130.595 84.9782 130.59 84.7862L130.39 77.0825L123.437 81.6117Z" fill="#916160"/>
<path d="M130.377 77.0825L123.441 81.6117L123.681 84.3047C125.154 83.9579 126.636 83.5335 127.798 82.5869C129.276 81.3832 130.577 80.1877 130.377 77.0825Z" fill="#7A4C4A"/>
<path d="M132.499 72.4187C133.193 71.6036 133.539 70.5485 133.462 69.4808C133.339 68.3747 132.804 67.3553 131.965 66.6246C132.249 66.0992 132.376 65.5027 132.33 64.907C132.283 64.3112 132.066 63.7416 131.704 63.2665C131.315 62.8188 130.804 62.4937 130.234 62.3307C129.664 62.1678 129.059 62.1739 128.492 62.3484C128.17 61.9007 127.754 61.5293 127.272 61.2606C126.79 60.9919 126.256 60.8326 125.705 60.7938C124.604 60.7203 123.506 60.9162 122.759 61.7241C122.323 61.4613 121.832 61.3019 121.324 61.2581C120.816 61.2142 120.305 61.2871 119.83 61.4711C119.341 61.6866 118.906 62.0059 118.554 62.4069C118.201 62.8079 117.94 63.2808 117.79 63.7928C117.246 63.6896 116.686 63.726 116.161 63.8988C115.635 64.0715 115.162 64.3748 114.786 64.7803C114.048 65.5963 113.807 67.155 114.134 68.2078C113.908 68.5437 113.755 68.9234 113.685 69.3222C113.616 69.721 113.631 70.13 113.73 70.5225C113.829 70.9151 114.009 71.2824 114.26 71.6007C114.51 71.9189 114.824 72.1809 115.182 72.3697C115.08 73.1894 115.26 74.0195 115.692 74.7233C116.124 75.4272 116.784 75.9628 117.561 76.2419C117.818 76.8692 118.222 77.4251 118.74 77.8621C119.258 78.2991 119.874 78.6042 120.536 78.7513C121.902 78.9881 123.305 78.8758 124.616 78.4249C127.815 77.4456 130.3 74.9648 132.499 72.4187Z" fill="#263238"/>
<path d="M125.783 68.6157C125.888 69.1276 126.074 69.6193 126.334 70.0724C126.486 70.3418 126.698 70.5729 126.953 70.7482C127.209 70.9236 127.5 71.0385 127.807 71.0843C127.876 71.0948 127.941 71.1281 127.989 71.1791C128.038 71.23 128.069 71.2957 128.076 71.3659L128.419 73.9202C128.417 74.0755 128.45 74.2293 128.515 74.3704C128.58 74.5116 128.675 74.6365 128.794 74.7362C128.923 74.7965 129.068 74.8163 129.208 74.7929C129.349 74.7696 129.479 74.7043 129.582 74.6057C129.783 74.4118 129.943 74.1784 130.051 73.9202C130.278 73.3674 130.585 72.8506 130.961 72.386C131.15 72.1543 131.387 71.9659 131.655 71.8335C131.923 71.7012 132.216 71.628 132.515 71.6189C133.491 71.6433 134.233 72.6144 134.335 73.5856C134.383 74.0864 134.305 74.5913 134.108 75.0545C133.912 75.5176 133.603 75.9243 133.209 76.2378C132.803 76.528 132.33 76.7111 131.835 76.7703C131.339 76.8295 130.836 76.7628 130.373 76.5765C130.814 78.2657 129.933 80.0774 128.615 81.224C127.297 82.3705 125.62 82.9907 123.979 83.5865C123.082 83.9129 122.131 84.2393 121.197 84.068C120.433 83.8954 119.748 83.4733 119.25 82.8683C118.762 82.2639 118.36 81.5953 118.055 80.8812C116.562 77.6577 115.716 74.1725 115.566 70.6232C116.884 70.456 125.036 68.9095 125.783 68.6157Z" fill="#916160"/>
<path d="M121.246 75.0464L119.866 78.6779L122.274 78.7064L121.246 75.0464Z" fill="#F28F8F"/>
<path d="M121.246 75.0464L119.866 78.6779L122.274 78.7064L121.246 75.0464Z" fill="#7A4C4A"/>
<path d="M124.714 79.4451L123.082 80.6161C123.269 80.7896 123.507 80.8978 123.761 80.9243C124.015 80.9507 124.271 80.8942 124.489 80.763C124.672 80.6024 124.795 80.3838 124.835 80.1438C124.876 79.9039 124.833 79.6572 124.714 79.4451Z" fill="#F28F8F"/>
<path opacity="0.4" d="M124.714 79.4451L123.082 80.6161C123.269 80.7896 123.507 80.8978 123.761 80.9243C124.015 80.9507 124.271 80.8942 124.489 80.763C124.672 80.6024 124.795 80.3838 124.835 80.1438C124.876 79.9039 124.833 79.6572 124.714 79.4451Z" fill="black"/>
<path d="M123.902 80.926C124.115 80.9323 124.325 80.8755 124.506 80.7628C124.652 80.6429 124.759 80.4825 124.814 80.3017C124.87 80.1209 124.87 79.9279 124.816 79.7468C124.562 79.7901 124.331 79.9181 124.159 80.11C123.969 80.3374 123.876 80.6307 123.902 80.926Z" fill="#F28F8F"/>
<path d="M124.637 74.5894C124.672 74.7184 124.668 74.855 124.626 74.9819C124.584 75.1089 124.505 75.2205 124.399 75.3026C124.294 75.3848 124.166 75.4339 124.033 75.4437C123.899 75.4535 123.766 75.4235 123.65 75.3577C123.533 75.2918 123.439 75.1929 123.379 75.0735C123.318 74.9541 123.295 74.8195 123.311 74.6867C123.327 74.5539 123.382 74.4288 123.469 74.3273C123.556 74.2257 123.671 74.1522 123.8 74.1161C123.886 74.0919 123.976 74.085 124.065 74.0957C124.153 74.1065 124.239 74.1347 124.317 74.1787C124.395 74.2226 124.463 74.2816 124.518 74.3521C124.573 74.4226 124.613 74.5032 124.637 74.5894Z" fill="#263238"/>
<path d="M119.091 75.9195C119.126 76.0485 119.123 76.1851 119.081 76.312C119.038 76.439 118.959 76.5506 118.854 76.6327C118.748 76.7149 118.621 76.764 118.487 76.7738C118.354 76.7836 118.221 76.7536 118.104 76.6878C117.988 76.6219 117.894 76.523 117.833 76.4036C117.773 76.2842 117.749 76.1496 117.765 76.0168C117.782 75.884 117.837 75.7589 117.924 75.6574C118.011 75.5558 118.126 75.4823 118.255 75.4462C118.428 75.3985 118.614 75.4215 118.771 75.5102C118.927 75.5989 119.043 75.7461 119.091 75.9195Z" fill="#263238"/>
<path d="M117.724 73.5122L116.557 74.92C116.444 74.758 116.383 74.5649 116.383 74.3671C116.383 74.1692 116.444 73.9762 116.557 73.8142C116.705 73.6605 116.892 73.5508 117.098 73.4975C117.304 73.4442 117.521 73.4493 117.724 73.5122Z" fill="#263238"/>
<path d="M123.298 71.8434L125.028 72.4392C125.041 72.2419 124.993 72.0454 124.891 71.8762C124.789 71.7069 124.637 71.573 124.457 71.4925C124.25 71.4375 124.032 71.4413 123.828 71.5032C123.623 71.5652 123.44 71.683 123.298 71.8434Z" fill="#263238"/>
<path opacity="0.15" d="M121.445 114.662C121.445 114.662 121.445 114.662 121.445 114.638V114.617C121.447 114.609 121.447 114.601 121.445 114.593C121.444 114.585 121.444 114.577 121.445 114.569V114.544V114.52L116.68 105.747L116.035 106.485L120.74 115.25C120.77 115.299 120.79 115.353 120.801 115.409C120.805 115.426 120.805 115.443 120.801 115.46C120.798 115.477 120.791 115.493 120.78 115.507L121.425 114.764C121.429 114.754 121.429 114.742 121.425 114.732C121.427 114.722 121.427 114.713 121.425 114.703C121.436 114.692 121.443 114.678 121.445 114.662Z" fill="black"/>
<path opacity="0.2" d="M116.668 105.706V105.682V105.653L116.647 105.629C116.648 105.619 116.648 105.61 116.647 105.6V105.572L116.623 105.543L116.602 105.514L116.582 105.49L116.561 105.465V105.445V105.425L116.496 105.363H116.472H116.447L116.423 105.343H116.394H116.366L116.333 105.323L110.922 102.279H110.89H110.861H110.829H110.8H110.771H110.743H110.714H110.686H110.657H110.555C110.54 102.278 110.525 102.281 110.511 102.286C110.497 102.292 110.484 102.3 110.474 102.311L109.829 103.05C109.857 103.017 109.91 103.009 109.988 103.021C110.093 103.049 110.193 103.091 110.286 103.148L115.696 106.192C115.802 106.254 115.905 106.322 116.002 106.396C116.106 106.474 116.206 106.559 116.3 106.649C116.391 106.735 116.477 106.826 116.557 106.922C116.624 107.003 116.684 107.089 116.737 107.179L117.382 106.441L116.668 105.706Z" fill="black"/>
<path d="M140.105 87.7444C139.338 86.4264 138.163 85.5002 136.641 85.3818L135.731 86.7732C134.783 88.5074 134.296 90.4563 134.319 92.4327L134.482 107.053L133.409 107.501C130.391 108.804 127.236 109.762 124.004 110.358C122.318 109.022 120.222 108.311 118.071 108.346L118.887 109.831C117.373 110.798 113.958 109.056 113.958 109.056C113.705 111.186 115.088 113.397 116.916 114.52C118.744 115.642 136.229 113.993 139.934 111.594C142.382 110.015 141.794 94.938 141.794 94.938C141.965 92.4249 141.377 89.9185 140.105 87.7444Z" fill="#916160"/>
<path d="M110.249 104.625C110.134 105.202 110.067 105.787 110.049 106.375C110.187 107.773 110.781 109.086 111.738 110.113C111.936 110.337 112.183 110.512 112.461 110.623C112.6 110.677 112.752 110.693 112.9 110.67C113.049 110.647 113.188 110.586 113.305 110.492C113.511 110.246 113.616 109.931 113.599 109.611C113.643 109.138 113.617 108.661 113.521 108.195C113.421 107.727 113.156 107.31 112.775 107.02C112.476 106.847 112.159 106.71 111.828 106.612C111.503 106.475 111.214 106.266 110.983 106L110.249 104.625Z" fill="#916160"/>
<path d="M136.641 85.3818C143.283 86.814 142.651 93.5425 143.292 97.733C143.7 100.218 144.32 105.677 144.32 105.677C140.701 109.023 134.274 106.82 132.675 105.082C133.278 96.668 132.05 86.81 136.641 85.3818Z" fill="#399A19"/>
<path opacity="0.2" d="M136.641 85.3818C143.283 86.814 142.651 93.5425 143.292 97.733C143.7 100.218 144.32 105.677 144.32 105.677C140.701 109.023 134.274 106.82 132.675 105.082C133.278 96.668 132.05 86.81 136.641 85.3818Z" fill="white"/>
<path d="M121.445 114.662C121.445 114.662 121.445 114.662 121.445 114.638V114.617C121.447 114.609 121.447 114.601 121.445 114.593C121.444 114.585 121.444 114.577 121.445 114.568V114.544V114.519L116.68 105.747V105.722V105.698V105.669L116.659 105.645C116.66 105.635 116.66 105.626 116.659 105.616V105.588L116.635 105.559L116.614 105.53L116.594 105.506L116.574 105.482V105.461V105.441L116.508 105.38H116.484H116.459L116.435 105.359H116.406H116.378L116.345 105.339L110.935 102.295H110.902H110.873H110.841H110.812H110.784H110.755H110.726H110.698H110.669H110.567C110.552 102.294 110.537 102.297 110.523 102.302C110.509 102.308 110.496 102.316 110.486 102.327L109.841 103.066H109.861C109.808 103.107 109.804 103.192 109.882 103.335L114.591 112.1C114.852 112.506 115.208 112.843 115.627 113.083L121.037 116.127C121.319 116.282 121.486 116.286 121.507 116.172C121.507 116.172 121.507 116.213 121.507 116.221L122.151 115.478C122.155 115.468 122.155 115.456 122.151 115.446C122.153 115.436 122.153 115.427 122.151 115.417C122.201 115.371 122.241 115.315 122.269 115.253C122.297 115.192 122.313 115.125 122.315 115.057C122.317 114.989 122.306 114.922 122.282 114.858C122.258 114.795 122.222 114.736 122.176 114.687C122.13 114.637 122.074 114.597 122.012 114.569C121.95 114.541 121.884 114.526 121.816 114.523C121.748 114.521 121.68 114.532 121.617 114.556C121.553 114.58 121.495 114.616 121.445 114.662ZM109.241 102.319C109.241 102.319 109.262 102.319 109.278 102.319C109.266 102.318 109.253 102.318 109.241 102.319ZM115.447 105.812C115.496 105.857 115.549 105.894 115.594 105.939C115.553 105.894 115.5 105.857 115.451 105.812H115.447ZM120.793 115.409C120.79 115.346 120.77 115.286 120.736 115.234C120.766 115.282 120.786 115.336 120.797 115.393C120.797 115.393 120.797 115.401 120.797 115.409H120.793Z" fill="#E0E0E0"/>
<path d="M181.814 126.508L175.069 126.703L168.325 126.508C168.035 131.061 168.92 135.705 170.148 137.973C170.44 138.555 170.907 139.03 171.483 139.332C173.474 140.479 176.689 140.479 178.668 139.332C179.254 139.026 179.723 138.536 180.002 137.937C181.222 135.656 182.104 131.045 181.814 126.508Z" fill="white"/>
<path d="M179.831 123.745C182.475 125.271 182.487 127.744 179.864 129.27C177.24 130.796 172.964 130.796 170.324 129.27C167.684 127.744 167.668 125.271 170.291 123.745C172.915 122.219 177.179 122.219 179.831 123.745Z" fill="#EBEBEB"/>
<path d="M178.778 124.353C180.839 125.541 180.851 127.471 178.803 128.662C176.754 129.854 173.421 129.854 171.36 128.662C169.3 127.471 169.287 125.541 171.336 124.353C173.384 123.166 176.718 123.162 178.778 124.353Z" fill="#E0E0E0"/>
<g opacity="0.15">
<path d="M178.778 124.353C180.839 125.541 180.851 127.471 178.803 128.662C176.754 129.854 173.421 129.854 171.36 128.662C169.3 127.471 169.287 125.541 171.336 124.353C173.384 123.166 176.718 123.162 178.778 124.353Z" fill="black"/>
</g>
<path d="M186.16 97.7249C170.956 102.703 170.822 112.871 174.249 120.114C175.11 121.578 177.726 122.366 180.002 113.357L176.012 113.871L180.663 111.512L181.887 107.901L178.011 108.187L182.932 106.118C183.834 103.257 184.912 100.454 186.16 97.7249Z" fill="#399A19"/>
<path opacity="0.2" d="M186.16 97.7249C170.956 102.703 170.822 112.871 174.249 120.114C175.11 121.578 177.726 122.366 180.002 113.357L176.012 113.871L180.663 111.512L181.887 107.901L178.011 108.187L182.932 106.118C183.834 103.257 184.912 100.454 186.16 97.7249Z" fill="black"/>
<path opacity="0.2" d="M186.16 97.7249C170.956 102.703 170.822 112.871 174.249 120.114C175.11 121.578 177.726 122.366 180.002 113.357L176.012 113.871L180.663 111.512L181.887 107.901L178.011 108.187L182.932 106.118C183.834 103.257 184.912 100.454 186.16 97.7249Z" fill="white"/>
<path d="M181.871 100.267C173.858 106.351 173.131 113.324 175.396 120.607C174.584 114.197 173.711 107.713 181.871 100.267Z" fill="white"/>
<path d="M160.413 108.052C175.396 110.162 177.216 119.612 175.224 126.924C174.665 128.434 172.368 129.6 168.745 121.591L172.548 121.407L167.823 119.983L166.097 116.817L169.769 116.441L164.84 115.332C163.515 112.816 162.037 110.385 160.413 108.052Z" fill="#399A19"/>
<path opacity="0.2" d="M160.413 108.052C175.396 110.162 177.216 119.612 175.224 126.924C174.665 128.434 172.368 129.6 168.745 121.591L172.548 121.407L167.823 119.983L166.097 116.817L169.769 116.441L164.84 115.332C163.515 112.816 162.037 110.385 160.413 108.052Z" fill="white"/>
<path opacity="0.1" d="M160.413 108.052C175.396 110.162 177.216 119.612 175.224 126.924C174.665 128.434 172.368 129.6 168.745 121.591L172.548 121.407L167.823 119.983L166.097 116.817L169.769 116.441L164.84 115.332C163.515 112.816 162.037 110.385 160.413 108.052Z" fill="black"/>
<path d="M164.84 109.709C173.302 114.042 175.147 120.436 174.249 127.577C173.931 121.472 173.657 115.291 164.84 109.709Z" fill="white"/>
<path d="M190.546 111.594C176.803 111.818 174.106 120.13 175.082 126.944C175.416 128.368 177.367 129.678 181.52 122.864L178.113 122.272L182.532 121.517L184.442 118.857L181.178 118.11L185.743 117.661C187.218 115.542 188.822 113.516 190.546 111.594Z" fill="#399A19"/>
<path d="M186.359 112.59C178.236 115.548 175.869 121.089 175.881 127.642C176.86 122.174 177.791 116.633 186.359 112.59Z" fill="white"/>
<path opacity="0.2" d="M190.546 111.594C176.803 111.818 174.106 120.13 175.082 126.944C175.416 128.368 177.367 129.678 181.52 122.864L178.113 122.272L182.532 121.517L184.442 118.857L181.178 118.11L185.743 117.661C187.218 115.542 188.822 113.516 190.546 111.594Z" fill="white"/>
</svg>
