<svg width="196" height="177" viewBox="0 0 196 177" fill="none" xmlns="http://www.w3.org/2000/svg">
<path d="M35.7317 86.9162C33.4074 90.041 30.2088 92.4063 26.5402 93.7132C22.8717 95.0201 18.898 95.2099 15.1216 94.2584C11.3452 93.307 7.93577 91.2572 5.32436 88.3681C2.71294 85.4791 1.01684 81.8805 0.450531 78.0275C-0.115778 74.1745 0.473136 70.2402 2.14281 66.7219C3.81248 63.2036 6.48792 60.2594 9.83082 58.2616C13.1737 56.2638 17.034 55.3021 20.9234 55.4981C24.8128 55.6941 28.5568 57.0391 31.6819 59.3629L31.7214 59.3936C35.9025 62.5119 38.6738 67.1632 39.4258 72.3245C40.1778 77.4858 38.849 82.7345 35.7317 86.9162Z" fill="#EBEBEB"/>
<path d="M31.9807 84.1095C30.2115 86.4921 27.7756 88.2965 24.9809 89.2946C22.1862 90.2928 19.1582 90.4398 16.28 89.717C13.4018 88.9943 10.8025 87.4342 8.81086 85.2342C6.81924 83.0342 5.52473 80.293 5.09104 77.3573C4.65734 74.4215 5.10394 71.4231 6.37436 68.7412C7.64477 66.0593 9.68194 63.8143 12.2283 62.2902C14.7746 60.7661 17.7157 60.0313 20.6796 60.1787C23.6435 60.3261 26.4972 61.3491 28.8797 63.1184H28.906C32.0943 65.4914 34.2093 69.0338 34.7859 72.9662C35.3625 76.8986 34.3535 80.899 31.9807 84.0875V84.1095Z" fill="#F5F5F5"/>
<path d="M32.2573 83.7316C32.1826 83.6789 32.5253 83.1167 33.0216 82.0493C33.7198 80.5576 34.1807 78.966 34.3876 77.3319C34.694 74.9228 34.406 72.4753 33.5487 70.2031C33.0409 68.8779 32.3504 67.6302 31.4974 66.496C31.0446 65.8983 30.5452 65.3372 30.004 64.8181C28.8911 63.7447 27.6145 62.8551 26.2222 62.1827C24.8935 61.5351 23.475 61.0909 22.0143 60.865C21.3267 60.759 20.6324 60.7032 19.9367 60.698C18.6465 60.6812 17.3595 60.8288 16.1066 61.1373C15.0151 61.4199 13.9577 61.8205 12.9529 62.332C11.4922 63.0883 10.1584 64.0679 8.99974 65.2354C8.16958 66.0655 7.7567 66.5838 7.68203 66.5531C7.60736 66.5223 7.91482 65.9074 8.66592 64.9586C9.75138 63.6273 11.0756 62.5101 12.5707 61.6644C14.3581 60.6444 16.3338 59.9978 18.3784 59.7637C20.4229 59.5297 22.4937 59.713 24.4653 60.3027C25.2413 60.5355 25.9976 60.8292 26.7273 61.1812C27.4775 61.5455 28.1985 61.9669 28.884 62.4418C29.5642 62.9245 30.2073 63.4574 30.8078 64.0362C31.388 64.6023 31.9226 65.2133 32.4067 65.8635C33.631 67.511 34.5095 69.3891 34.9896 71.3848C35.4697 73.3806 35.5413 75.4528 35.2002 77.4769C34.9185 79.1753 34.3227 80.8064 33.4433 82.2865C32.7844 83.2924 32.3144 83.7711 32.2573 83.7316Z" fill="#E0E0E0"/>
<path d="M15.9616 83.3144L14.4287 85.4271L12.54 84.0655L14.0334 82.0098C12.2457 80.5384 10.8753 78.6541 10.4272 77.086L13.1373 75.5355C13.672 77.0793 14.6001 78.457 15.8299 79.5325L18.1183 76.3788C16.3877 74.3496 14.5517 71.9513 16.5107 69.25C17.9645 67.2471 20.6659 66.5839 23.8986 68.4067L25.4184 66.3115L27.3071 67.6819L25.8137 69.7376C27.1131 70.7987 28.1414 72.1537 28.8137 73.6907L26.1783 75.3291C25.6588 74.1678 24.9121 73.1224 23.9821 72.2544L21.6541 75.4652C23.4111 77.4769 25.1944 79.8576 23.2617 82.493C21.8606 84.4476 19.19 85.1065 15.9616 83.3144ZM20.13 73.5941L22.0758 70.9103C20.9118 70.4096 20.1168 70.6731 19.6644 71.2969C19.212 71.9206 19.4887 72.7244 20.13 73.5941ZM20.0773 80.5033C20.556 79.84 20.2705 79.0845 19.6644 78.2104L17.7713 80.8195C18.8694 81.2983 19.638 81.105 20.0773 80.5033Z" fill="#E0E0E0"/>
<path d="M153.97 142.844C151.953 145.556 149.178 147.608 145.994 148.742C142.811 149.877 139.363 150.041 136.086 149.216C132.809 148.39 129.85 146.612 127.584 144.105C125.318 141.598 123.847 138.475 123.355 135.132C122.864 131.788 123.375 128.374 124.824 125.321C126.273 122.268 128.594 119.714 131.495 117.98C134.396 116.247 137.746 115.412 141.121 115.582C144.496 115.753 147.744 116.92 150.456 118.936L150.491 118.963C154.118 121.669 156.523 125.705 157.175 130.183C157.827 134.662 156.674 139.216 153.97 142.844Z" fill="#EBEBEB"/>
<path d="M150.715 140.411C149.177 142.476 147.061 144.038 144.635 144.901C142.209 145.763 139.582 145.887 137.085 145.256C134.589 144.625 132.336 143.269 130.61 141.358C128.885 139.446 127.765 137.066 127.392 134.519C127.02 131.971 127.411 129.37 128.516 127.045C129.621 124.719 131.391 122.774 133.602 121.454C135.813 120.135 138.366 119.5 140.937 119.632C143.509 119.763 145.984 120.654 148.049 122.191H148.071C149.442 123.213 150.598 124.495 151.474 125.964C152.349 127.433 152.926 129.06 153.171 130.753C153.417 132.445 153.326 134.169 152.905 135.826C152.483 137.483 151.739 139.041 150.715 140.411Z" fill="#F5F5F5"/>
<path d="M150.957 140.081C150.891 140.033 151.189 139.546 151.616 138.619C152.221 137.324 152.622 135.943 152.801 134.525C152.921 133.554 152.933 132.573 152.837 131.6C152.723 130.485 152.467 129.389 152.072 128.341C151.863 127.775 151.61 127.225 151.317 126.698C151.018 126.145 150.675 125.616 150.293 125.117C149.899 124.598 149.466 124.111 148.998 123.658C148.51 123.198 147.992 122.771 147.447 122.38C146.896 121.999 146.317 121.659 145.717 121.361C144.564 120.8 143.334 120.416 142.067 120.224C141.469 120.131 140.866 120.083 140.261 120.079C138.155 120.053 136.075 120.546 134.204 121.515C132.935 122.171 131.774 123.02 130.765 124.032C130.045 124.752 129.684 125.2 129.623 125.152C129.561 125.103 129.825 124.594 130.475 123.773C131.416 122.611 132.566 121.635 133.866 120.896C134.766 120.377 135.724 119.969 136.721 119.679C137.872 119.346 139.063 119.172 140.261 119.161C140.909 119.151 141.557 119.192 142.198 119.284C142.871 119.377 143.535 119.524 144.184 119.723C146.253 120.341 148.141 121.452 149.687 122.96C150.189 123.453 150.653 123.983 151.075 124.546C151.481 125.088 151.842 125.663 152.156 126.263C152.46 126.828 152.721 127.416 152.938 128.02C153.336 129.153 153.58 130.335 153.662 131.534C153.731 132.57 153.677 133.611 153.5 134.635C153.25 136.11 152.727 137.525 151.958 138.808C151.409 139.699 151.001 140.112 150.957 140.081Z" fill="#E0E0E0"/>
<path d="M136.817 139.717L135.5 141.553L133.857 140.363L135.153 138.575C133.602 137.301 132.416 135.663 132.025 134.305L134.375 132.961C134.84 134.301 135.646 135.497 136.712 136.431L138.697 133.691C137.2 131.934 135.623 129.852 137.305 127.506C138.566 125.749 140.911 125.191 143.713 126.777L145.031 124.954L146.67 126.144L145.374 127.932C146.501 128.846 147.394 130.016 147.978 131.345L145.694 132.764C145.25 131.756 144.608 130.848 143.806 130.093L141.785 132.882C143.296 134.639 144.86 136.682 143.182 138.992C141.93 140.701 139.615 141.272 136.817 139.717ZM140.432 131.284L142.119 128.956C141.109 128.516 140.419 128.749 140.024 129.289C139.629 129.83 139.875 130.532 140.432 131.284ZM140.384 137.279C140.801 136.704 140.551 136.049 140.024 135.289L138.386 137.551C139.334 137.991 140.006 137.802 140.384 137.279Z" fill="#E0E0E0"/>
<path d="M50.6702 25.445C50.2708 27.6285 49.2328 29.6444 47.6875 31.2379C46.1423 32.8314 44.1592 33.9309 41.9891 34.3973C39.8189 34.8637 37.5592 34.6761 35.4957 33.8582C33.4322 33.0403 31.6576 31.6289 30.3963 29.8024C29.135 27.9758 28.4437 25.8163 28.4098 23.5969C28.3758 21.3774 29.0008 19.1978 30.2057 17.3336C31.4106 15.4694 33.1413 14.0044 35.1788 13.1238C37.2164 12.2432 39.4693 11.9866 41.6527 12.3865H41.679C43.1269 12.6534 44.5081 13.2029 45.7436 14.0036C46.9791 14.8043 48.0447 15.8406 48.8797 17.0533C49.7146 18.2659 50.3025 19.6311 50.6097 21.071C50.9169 22.5109 50.9375 23.9972 50.6702 25.445Z" fill="#EBEBEB"/>
<path d="M48.0434 24.9573C47.7386 26.6211 46.9472 28.1571 45.7693 29.371C44.5915 30.585 43.0801 31.4224 41.4264 31.7774C39.7726 32.1324 38.0507 31.989 36.4784 31.3654C34.9061 30.7417 33.5541 29.6659 32.5933 28.2738C31.6325 26.8817 31.106 25.236 31.0806 23.5447C31.0551 21.8535 31.5317 20.1927 32.4502 18.7723C33.3686 17.3519 34.6876 16.2358 36.2404 15.5651C37.7932 14.8944 39.51 14.6992 41.1737 15.0042C43.4004 15.4152 45.3726 16.6936 46.6567 18.5585C47.9409 20.4233 48.4318 22.7218 48.0215 24.9485L48.0434 24.9573Z" fill="#F5F5F5"/>
<path d="M48.0917 24.6938C48.0405 24.3448 48.0287 23.9912 48.0566 23.6396C48.0365 22.7016 47.8706 21.7725 47.5647 20.8856C47.3545 20.2707 47.0761 19.6814 46.7345 19.1286C46.3442 18.5055 45.8747 17.9355 45.3377 17.4332C44.7473 16.8772 44.0783 16.4111 43.3524 16.0496C42.9694 15.8597 42.5731 15.6982 42.1664 15.5664C41.7467 15.435 41.3181 15.3337 40.8839 15.2634C40.4474 15.2005 40.0071 15.1682 39.5662 15.1667C39.1381 15.1711 38.711 15.2063 38.288 15.2721C37.8801 15.3366 37.4778 15.432 37.0845 15.5576C36.7062 15.6754 36.3376 15.8223 35.982 15.9969C34.7299 16.6025 33.6466 17.5077 32.8283 18.6323C32.2624 19.3858 31.8178 20.2232 31.5106 21.114C31.4306 21.4563 31.3143 21.7891 31.1636 22.1067C31.12 21.7492 31.1545 21.3866 31.2646 21.0437C31.4842 20.0865 31.8788 19.1782 32.4286 18.3644C33.2462 17.1382 34.3696 16.1466 35.6877 15.4874C36.0684 15.2935 36.4634 15.1291 36.8692 14.9954C37.2907 14.8542 37.7225 14.7455 38.1606 14.6704C38.6223 14.5913 39.0891 14.5458 39.5574 14.5342C40.0321 14.5327 40.5063 14.5665 40.9761 14.6353C41.445 14.7097 41.9076 14.8198 42.3597 14.9647C42.7987 15.1088 43.2261 15.2865 43.6379 15.4962C44.0356 15.6974 44.4161 15.931 44.7755 16.1945C45.1221 16.4416 45.4482 16.7163 45.7506 17.0159C46.3128 17.5649 46.7989 18.1868 47.1957 18.8651C47.5347 19.4579 47.8058 20.0871 48.0039 20.7406C48.2842 21.6812 48.387 22.6658 48.307 23.644C48.3064 24.0048 48.2332 24.3618 48.0917 24.6938Z" fill="#E0E0E0"/>
<path d="M39.6541 28.5856L39.4037 30.057L38.086 29.833L38.3276 28.4011C37.173 28.1647 36.1078 27.6093 35.2529 26.7979L36.2456 25.3221C36.908 25.9766 37.7303 26.4461 38.6307 26.6837L39.004 24.4875C37.6116 23.8858 36.0699 23.1215 36.3906 21.246C36.6277 19.858 37.84 18.8389 39.9528 18.9575L40.1987 17.4993L41.5164 17.7233L41.2705 19.1552C42.1992 19.3677 43.0646 19.7966 43.7961 20.407L42.8649 21.9092C42.3091 21.4457 41.6673 21.0964 40.9762 20.8814L40.594 23.1127C41.9908 23.7013 43.5062 24.4612 43.1899 26.306C42.9527 27.6808 41.7536 28.691 39.6541 28.5856ZM39.3334 22.5725L39.6541 20.7101C38.9293 20.7496 38.5911 21.0834 38.5165 21.5183C38.4418 21.9531 38.7888 22.2869 39.3334 22.5725ZM41.0509 26.1171C41.1299 25.6779 40.7917 25.344 40.2602 25.0541L39.9528 26.8594C40.6336 26.8243 40.9806 26.5256 41.0509 26.1127V26.1171Z" fill="#E0E0E0"/>
<path d="M195.759 176.692C195.759 176.758 155.134 176.81 105.034 176.81C54.9351 176.81 14.3057 176.745 14.3057 176.692C14.3057 176.639 54.9175 176.578 105.034 176.578C155.151 176.578 195.759 176.63 195.759 176.692Z" fill="#263238"/>
<path d="M67.9365 38.4111C67.9365 38.4111 68.3186 18.729 52.0361 8.73193H103.642C103.642 8.73193 118.396 20.688 118.519 38.4111H67.9365Z" fill="#EBEBEB"/>
<path d="M99.7065 15.9091C99.7065 15.975 93.8119 16.0277 86.5294 16.0277C79.2469 16.0277 73.3523 15.975 73.3523 15.9091C73.3523 15.8432 79.2469 15.7949 86.5294 15.7949C93.8119 15.7949 99.7065 15.8476 99.7065 15.9091Z" fill="#455A64"/>
<path d="M105.338 19.4714C105.338 19.5329 97.5279 19.5856 87.8955 19.5856C78.263 19.5856 70.4534 19.5329 70.4534 19.4714C70.4534 19.4099 78.263 19.3528 87.8955 19.3528C97.5279 19.3528 105.338 19.4055 105.338 19.4714Z" fill="#263238"/>
<path d="M108.272 28.4758C108.272 28.5373 100.462 28.59 90.8295 28.59C81.1971 28.59 73.3831 28.5373 73.3831 28.4758C73.3831 28.4143 81.1927 28.3616 90.8295 28.3616C100.466 28.3616 108.272 28.4143 108.272 28.4758Z" fill="#263238"/>
<path d="M90.0433 23.5693C89.8078 23.605 89.5698 23.6212 89.3317 23.6176L87.3815 23.6527C85.7344 23.6747 83.4635 23.6879 80.9511 23.6879C78.4387 23.6879 76.1678 23.6879 74.5207 23.6527L72.5705 23.6176C72.3323 23.6212 72.0943 23.605 71.8589 23.5693C72.0944 23.535 72.3325 23.5203 72.5705 23.5254L74.5207 23.4902C76.1678 23.4902 78.4387 23.4551 80.9511 23.4551C83.4635 23.4551 85.7344 23.4551 87.3815 23.4902L89.3317 23.5254C89.5697 23.5203 89.8077 23.535 90.0433 23.5693Z" fill="#263238"/>
<path d="M105.337 23.5693C105.164 23.6051 104.987 23.6214 104.81 23.6176L103.37 23.6527C102.157 23.6747 100.475 23.6879 98.6214 23.6879C96.7679 23.6879 95.0856 23.6879 93.8733 23.6527L92.4326 23.6176C92.2557 23.6214 92.0788 23.6051 91.9055 23.5693C92.0793 23.5372 92.2559 23.5225 92.4326 23.5254L93.8733 23.4902C95.0856 23.4902 96.7679 23.4551 98.6214 23.4551C100.475 23.4551 102.135 23.4551 103.37 23.4902L104.81 23.5254C104.987 23.5203 105.164 23.5351 105.337 23.5693Z" fill="#263238"/>
<path d="M93.2806 33.3029C93.0437 33.3388 92.8042 33.355 92.5646 33.3512L90.6188 33.3864C88.9717 33.3864 86.6964 33.4215 84.1884 33.4215C81.6803 33.4215 79.4007 33.4215 77.7536 33.3864L75.8078 33.3512C75.5682 33.355 75.3287 33.3388 75.0918 33.3029C75.3288 33.2685 75.5683 33.2538 75.8078 33.259L77.7536 33.2239C79.4007 33.2239 81.676 33.1887 84.1884 33.1887C86.7008 33.1887 88.9717 33.1887 90.6188 33.2239L92.5646 33.259C92.8041 33.2538 93.0436 33.2685 93.2806 33.3029Z" fill="#263238"/>
<path d="M108.575 33.3029C108.401 33.3388 108.225 33.355 108.048 33.3512L106.607 33.3864C105.39 33.3864 103.712 33.4215 101.859 33.4215C100.005 33.4215 98.3449 33.4215 97.1062 33.3864L95.6655 33.3512C95.4886 33.355 95.3117 33.3388 95.1384 33.3029C95.3122 33.2709 95.4888 33.2562 95.6655 33.259L97.1062 33.2239C98.3229 33.2239 100.001 33.1887 101.859 33.1887C103.717 33.1887 105.373 33.1887 106.607 33.2239L108.048 33.259C108.224 33.2562 108.401 33.2709 108.575 33.3029Z" fill="#263238"/>
<path d="M57.3861 37.8533H133.523L137.67 169.756C137.698 170.641 137.551 171.523 137.238 172.351C136.926 173.179 136.452 173.938 135.846 174.583C135.24 175.228 134.513 175.748 133.706 176.112C132.899 176.476 132.028 176.678 131.143 176.705H51.7594C50.6409 176.705 49.5652 176.275 48.7549 175.504C47.9446 174.733 47.4618 173.68 47.4066 172.563L43.7478 98.0814C43.7478 98.0814 21.1666 89.8852 21.5487 64.8795C21.5487 64.8795 22.5766 37.8533 57.3861 37.8533Z" fill="#263238"/>
<path d="M61.5194 176.507L58.1987 37.8533H136.286L137.696 170.674C137.745 172.22 137.177 173.722 136.119 174.849C135.061 175.977 133.598 176.638 132.052 176.687H131.85L61.5194 176.507Z" fill="#455A64"/>
<path d="M64.6511 45.887L66.2324 110.446H129.829L128.973 45.887H64.6511Z" fill="#263238"/>
<path d="M71.6875 54.2412C74.7929 55.0801 78.7153 54.7244 81.9041 54.5706C82.1371 54.5706 82.3606 54.4781 82.5253 54.3133C82.69 54.1486 82.7826 53.9251 82.7826 53.6922C82.7826 53.4592 82.69 53.2357 82.5253 53.071C82.3606 52.9062 82.1371 52.8137 81.9041 52.8137C78.7153 52.6556 74.7885 52.2998 71.6875 53.1431C71.539 53.1869 71.414 53.2878 71.3399 53.4237C71.2658 53.5596 71.2486 53.7193 71.2922 53.8678C71.3205 53.9612 71.3714 54.0461 71.4403 54.115C71.5093 54.184 71.5942 54.2349 71.6875 54.2632V54.2412Z" fill="#E0E0E0"/>
<path d="M87.3332 54.114C90.3815 54.8915 94.3214 54.7509 97.4356 54.4522C97.6686 54.4522 97.8921 54.3597 98.0568 54.1949C98.2215 54.0302 98.3141 53.8067 98.3141 53.5738C98.3141 53.3408 98.2215 53.1173 98.0568 52.9526C97.8921 52.7878 97.6686 52.6953 97.4356 52.6953C94.3214 52.3922 90.3815 52.256 87.3332 53.0335C87.2619 53.0551 87.1956 53.0905 87.1381 53.1378C87.0805 53.185 87.0328 53.2431 86.9977 53.3088C86.9627 53.3745 86.9409 53.4464 86.9336 53.5205C86.9263 53.5946 86.9338 53.6694 86.9554 53.7407C86.9821 53.83 87.0306 53.9113 87.0966 53.9773C87.1625 54.0432 87.2438 54.0917 87.3332 54.1184V54.114Z" fill="#E0E0E0"/>
<path d="M102.768 53.8372C104.301 54.3028 105.957 54.2237 107.547 54.2501C109.171 54.3467 110.799 54.3159 112.418 54.1578C113.213 54.0436 113.213 52.66 112.418 52.5502C110.8 52.3884 109.171 52.3561 107.547 52.4536C105.957 52.4799 104.301 52.4009 102.768 52.8665C102.663 52.8968 102.57 52.9606 102.504 53.0481C102.438 53.1357 102.403 53.2423 102.403 53.3518C102.403 53.4614 102.438 53.568 102.504 53.6555C102.57 53.7431 102.663 53.8068 102.768 53.8372Z" fill="#E0E0E0"/>
<path d="M117.07 53.9252C118.226 54.0935 119.393 54.183 120.562 54.1931C121.721 54.2194 122.973 54.4083 124.097 54.0877C124.255 54.0399 124.394 53.9426 124.492 53.8101C124.59 53.6776 124.643 53.5169 124.643 53.352C124.643 53.187 124.59 53.0263 124.492 52.8938C124.394 52.7613 124.255 52.664 124.097 52.6162C122.973 52.2956 121.721 52.4845 120.562 52.5108C119.393 52.5202 118.226 52.6112 117.07 52.7831C116.947 52.8207 116.841 52.8964 116.765 52.9992C116.689 53.1019 116.648 53.2264 116.648 53.3541C116.648 53.4819 116.689 53.6063 116.765 53.7091C116.841 53.8119 116.947 53.8876 117.07 53.9252Z" fill="#E0E0E0"/>
<path d="M84.6845 118.124H66.2542V131.296H84.6845V118.124Z" fill="#399A19"/>
<path d="M69.588 118.124H66.2542V131.296H69.588V118.124Z" fill="#263238"/>
<path d="M107.253 118.124H88.8223V131.296H107.253V118.124Z" fill="#399A19"/>
<path d="M91.9671 118.124H88.6333V131.296H91.9671V118.124Z" fill="#263238"/>
<path d="M129.825 118.124H111.395V131.296H129.825V118.124Z" fill="#399A19"/>
<path d="M114.201 118.124H110.867V131.296H114.201V118.124Z" fill="#263238"/>
<path d="M129.825 135.649H111.395V148.822H129.825V135.649Z" fill="#399A19"/>
<path d="M114.829 135.649H111.395V148.822H114.829V135.649Z" fill="#263238"/>
<path d="M84.6845 135.649H66.2542V148.822H84.6845V135.649Z" fill="#399A19"/>
<path d="M69.588 135.623H66.2542V148.796H69.588V135.623Z" fill="#263238"/>
<path d="M84.6845 152.999H66.2542V166.172H84.6845V152.999Z" fill="#399A19"/>
<path opacity="0.3" d="M84.6845 152.999H66.2542V166.172H84.6845V152.999Z" fill="black"/>
<path d="M69.588 152.999H66.2542V166.172H69.588V152.999Z" fill="#263238"/>
<path d="M107.152 135.649H88.7212V148.822H107.152V135.649Z" fill="#399A19"/>
<path d="M92.055 135.623H88.7212V148.796H92.055V135.623Z" fill="#263238"/>
<path d="M107.253 152.999H88.8223V166.172H107.253V152.999Z" fill="#399A19"/>
<path opacity="0.3" d="M107.253 152.999H88.8223V166.172H107.253V152.999Z" fill="black"/>
<path d="M92.1561 152.999H88.8223V166.172H92.1561V152.999Z" fill="#263238"/>
<path d="M129.825 152.999H111.395V166.172H129.825V152.999Z" fill="#E0E0E0"/>
<path d="M114.728 152.999H111.395V166.172H114.728V152.999Z" fill="#263238"/>
<path d="M55.4358 176.709C55.1195 176.709 53.9643 145.638 52.8531 107.31C51.7418 68.9822 51.0961 37.8711 51.4124 37.8623C51.7286 37.8535 52.8838 68.9251 53.9951 107.262C55.1063 145.598 55.752 176.701 55.4358 176.709Z" fill="#455A64"/>
<path d="M129.733 103.093V105.461L137.024 107.275L136.984 103.625L129.733 103.093Z" fill="#455A64"/>
<path d="M41.2221 98.3452C40.823 98.187 40.3945 98.1166 39.9658 98.1387C39.5343 98.1791 39.111 98.2827 38.7096 98.4462L33.7199 100.115L23.9688 103.392L5.5209 109.541C4.793 109.749 4.16741 110.218 3.76395 110.859C3.36416 111.486 3.21517 112.24 3.34668 112.972C3.42737 113.334 3.53304 113.691 3.66293 114.039L4.01871 115.102C4.2559 115.809 4.4887 116.508 4.72588 117.206C5.65121 119.985 6.55311 122.683 7.43158 125.301C9.18853 130.528 10.8049 135.404 12.2939 139.835C15.2544 148.721 17.657 155.916 19.3217 160.888C20.1475 163.374 20.7844 165.302 21.2236 166.598C21.4344 167.253 21.6014 167.749 21.7112 168.087C21.821 168.425 21.8693 168.597 21.8693 168.597C21.9281 168.765 22.0031 168.926 22.0933 169.08C22.3466 169.538 22.7124 169.923 23.1563 170.2C23.5159 170.423 23.9176 170.569 24.3363 170.629C24.755 170.69 25.1817 170.663 25.5896 170.551C26.5472 170.244 27.6453 169.857 28.8883 169.444L47.2308 163.26L27.6672 102.162L37.4534 98.8811L55.1239 153.026L54.3508 134.191C50.793 123.592 46.9497 112.133 42.9307 100.172C42.7944 99.7627 42.5712 99.3873 42.2762 99.0719C41.9813 98.7565 41.6217 98.5086 41.2221 98.3452ZM18.6716 126.18L14.3056 112.361L15.7859 111.891L20.1519 125.71L18.6716 126.18ZM21.7024 118.568L19.1548 110.512L20.635 110.046L23.1826 118.098L21.7024 118.568ZM25.1196 128.784L22.5765 120.729L24.0567 120.263L26.5999 128.314L25.1196 128.784ZM25.9981 130.945L27.4783 130.475L34.5061 152.78L33.0259 153.245L25.9981 130.945ZM35.2221 160.128L33.7155 155.362L35.1957 154.893L36.7023 159.663L35.2221 160.128ZM41.3143 157.598L39.8341 158.064L30.5354 128.635L32.0157 128.169L41.3143 157.598ZM31.2558 125.354L29.7756 125.819L24.3817 108.764L25.8619 108.294L31.2558 125.354Z" fill="#399A19"/>
<path opacity="0.3" d="M41.2221 98.3452C40.823 98.187 40.3945 98.1166 39.9658 98.1387C39.5343 98.1791 39.111 98.2827 38.7096 98.4462L33.7199 100.115L23.9688 103.392L5.5209 109.541C4.793 109.749 4.16741 110.218 3.76395 110.859C3.36416 111.486 3.21517 112.24 3.34668 112.972C3.42737 113.334 3.53304 113.691 3.66293 114.039L4.01871 115.102C4.2559 115.809 4.4887 116.508 4.72588 117.206C5.65121 119.985 6.55311 122.683 7.43158 125.301C9.18853 130.528 10.8049 135.404 12.2939 139.835C15.2544 148.721 17.657 155.916 19.3217 160.888C20.1475 163.374 20.7844 165.302 21.2236 166.598C21.4344 167.253 21.6014 167.749 21.7112 168.087C21.821 168.425 21.8693 168.597 21.8693 168.597C21.9281 168.765 22.0031 168.926 22.0933 169.08C22.3466 169.538 22.7124 169.923 23.1563 170.2C23.5159 170.423 23.9176 170.569 24.3363 170.629C24.755 170.69 25.1817 170.663 25.5896 170.551C26.5472 170.244 27.6453 169.857 28.8883 169.444L47.2308 163.26L27.6672 102.162L37.4534 98.8811L55.1239 153.026L54.3508 134.191C50.793 123.592 46.9497 112.133 42.9307 100.172C42.7944 99.7627 42.5712 99.3873 42.2762 99.0719C41.9813 98.7565 41.6217 98.5086 41.2221 98.3452ZM18.6716 126.18L14.3056 112.361L15.7859 111.891L20.1519 125.71L18.6716 126.18ZM21.7024 118.568L19.1548 110.512L20.635 110.046L23.1826 118.098L21.7024 118.568ZM25.1196 128.784L22.5765 120.729L24.0567 120.263L26.5999 128.314L25.1196 128.784ZM25.9981 130.945L27.4783 130.475L34.5061 152.78L33.0259 153.245L25.9981 130.945ZM35.2221 160.128L33.7155 155.362L35.1957 154.893L36.7023 159.663L35.2221 160.128ZM41.3143 157.598L39.8341 158.064L30.5354 128.635L32.0157 128.169L41.3143 157.598ZM31.2558 125.354L29.7756 125.819L24.3817 108.764L25.8619 108.294L31.2558 125.354Z" fill="black"/>
<path d="M47.2441 163.343L47.2221 163.273L28.8796 169.458C27.6366 169.87 26.5385 170.257 25.5809 170.564C25.173 170.676 24.7463 170.703 24.3276 170.643C23.9089 170.582 23.5072 170.436 23.1476 170.213C22.7037 169.936 22.3379 169.551 22.0846 169.093C21.9133 168.786 21.8738 168.605 21.8606 168.61L21.9045 168.737C22.1347 169.361 22.5638 169.892 23.1256 170.248C23.4877 170.48 23.8946 170.634 24.3198 170.699C24.745 170.764 25.1791 170.739 25.5941 170.626C26.5604 170.323 27.6585 169.945 28.906 169.532L49.9586 162.504L54.9527 160.835L55.4358 160.589L47.2441 163.343Z" fill="#263238"/>
<path d="M21.7025 168.096C21.5927 167.758 21.4258 167.261 21.215 166.607C20.7757 165.289 20.1388 163.365 19.3131 160.897C17.6572 155.924 15.2545 148.73 12.2853 139.844C10.7963 135.403 9.1711 130.537 7.42294 125.31C6.54447 122.698 5.64257 119.999 4.71724 117.215C4.48005 116.516 4.24726 115.818 4.01007 115.111L3.65429 114.048C3.5244 113.7 3.41873 113.343 3.33804 112.98C3.21299 112.246 3.36987 111.491 3.77728 110.868C4.18073 110.227 4.80632 109.758 5.53422 109.55L23.9822 103.401L33.7332 100.133L38.7229 98.4635C39.1244 98.3001 39.5476 98.1965 39.9792 98.1561C40.6281 98.1217 41.2704 98.3011 41.8076 98.6669C42.3447 99.0327 42.747 99.5645 42.9528 100.181C46.963 112.141 50.8063 123.601 54.3729 134.2L54.3422 133.488C50.8547 123.07 47.086 111.834 43.1636 100.106C43.0158 99.6676 42.7748 99.2662 42.4571 98.9296C42.1394 98.5929 41.7526 98.329 41.3232 98.1561C40.8953 97.9847 40.4349 97.9097 39.9748 97.9364C39.5225 97.9776 39.0787 98.0841 38.6571 98.2527L33.6717 99.9262L23.9207 103.194L5.47273 109.379C4.70102 109.591 4.03476 110.08 3.60158 110.753C3.17931 111.423 3.02265 112.227 3.16234 113.007C3.24597 113.378 3.35456 113.744 3.48738 114.1C3.60597 114.456 3.72896 114.808 3.84755 115.163C4.08035 115.866 4.31754 116.569 4.55033 117.263C5.48737 120.045 6.39366 122.743 7.26921 125.358L12.1491 139.875L19.234 160.905C20.0773 163.383 20.7274 165.298 21.171 166.615C21.3951 167.266 21.5664 167.762 21.6806 168.1L21.8606 168.605C21.8606 168.605 21.8123 168.434 21.7025 168.096Z" fill="#263238"/>
<path d="M32.0001 128.177L30.5217 128.644L39.8223 158.07L41.3007 157.602L32.0001 128.177Z" fill="#FAFAFA"/>
<path d="M25.8603 108.294L24.3818 108.761L29.7761 125.828L31.2545 125.361L25.8603 108.294Z" fill="#FAFAFA"/>
<path d="M20.6364 110.044L19.158 110.511L21.7035 118.565L23.1819 118.098L20.6364 110.044Z" fill="#FAFAFA"/>
<path d="M15.5112 111.476L14.0369 111.942L18.3869 125.714L19.8612 125.248L15.5112 111.476Z" fill="#FAFAFA"/>
<path d="M35.213 154.889L33.7346 155.356L35.241 160.122L36.7194 159.655L35.213 154.889Z" fill="#FAFAFA"/>
<path d="M24.0529 120.262L22.5745 120.729L25.12 128.783L26.5984 128.316L24.0529 120.262Z" fill="#FAFAFA"/>
<path d="M27.4608 130.488L25.9824 130.955L33.0313 153.257L34.5097 152.789L27.4608 130.488Z" fill="#FAFAFA"/>
<path d="M27.6672 102.162L47.222 163.273L47.244 163.343L55.4358 160.598L55.1239 153.017L37.4534 98.8809L27.6672 102.162Z" fill="#FAFAFA"/>
<path d="M47.1343 166.993L55.0757 164.2L54.9044 160.717L47.2441 163.343L47.1343 166.993Z" fill="#263238"/>
<path d="M147.263 65.8855C147.263 65.947 147.017 65.9865 146.709 65.9733C146.402 65.9602 146.165 65.8987 146.169 65.8328C146.173 65.7669 146.419 65.7318 146.722 65.7449C147.026 65.7581 147.267 65.8196 147.263 65.8855Z" fill="#263238"/>
<path d="M151.563 65.7011C151.225 65.8429 150.861 65.9103 150.495 65.8988C150.136 65.9655 149.766 65.955 149.41 65.868C150.108 65.6616 150.841 65.6047 151.563 65.7011Z" fill="#263238"/>
<path d="M155.823 64.9412C155.507 65.1252 155.155 65.2404 154.791 65.2794C154.442 65.3896 154.075 65.4285 153.711 65.3936C154.376 65.0992 155.096 64.9494 155.823 64.9543V64.9412Z" fill="#263238"/>
<path d="M159.93 63.6279C159.642 63.851 159.309 64.0111 158.955 64.0979C158.626 64.2565 158.266 64.3433 157.901 64.3527C158.188 64.1278 158.521 63.9676 158.876 63.8827C159.207 63.7282 159.565 63.6416 159.93 63.6279Z" fill="#263238"/>
<path d="M163.826 61.7698C163.263 62.2307 162.611 62.5702 161.911 62.7668C162.169 62.5074 162.477 62.3027 162.816 62.1651C163.122 61.9647 163.466 61.8301 163.826 61.7698Z" fill="#263238"/>
<path d="M167.415 59.376C167.454 59.4243 167.094 59.7493 166.607 60.1007C166.334 60.344 166.014 60.528 165.667 60.641C165.632 60.5883 165.992 60.2632 166.475 59.9118C166.958 59.5605 167.375 59.3233 167.415 59.376Z" fill="#263238"/>
<path d="M170.586 56.4507C170.634 56.4946 170.327 56.89 169.905 57.2941C169.484 57.6982 169.101 58.0232 169.062 57.9749C169.022 57.9266 169.321 57.5356 169.743 57.1315C170.164 56.7274 170.538 56.3936 170.586 56.4507Z" fill="#263238"/>
<path d="M173.208 53.0289C173.265 53.0597 173.028 53.4682 172.686 53.9777C172.343 54.4872 172.022 54.8562 171.974 54.7991C172.083 54.4496 172.261 54.1255 172.497 53.8459C172.839 53.3627 173.156 52.9938 173.208 53.0289Z" fill="#263238"/>
<path d="M175.141 49.1726C174.992 49.8863 174.692 50.5601 174.262 51.1492C174.402 50.4324 174.702 49.7566 175.141 49.1726Z" fill="#263238"/>
<path d="M176.283 45.0173C176.316 45.381 176.272 45.7474 176.156 46.0935C176.113 46.4571 175.993 46.8075 175.804 47.1213C175.812 46.3939 175.976 45.6766 176.283 45.0173Z" fill="#263238"/>
<path d="M176.722 40.7261C176.833 41.4449 176.787 42.1793 176.586 42.8783C176.497 42.5251 176.482 42.1572 176.542 41.7978C176.529 41.4321 176.591 41.0675 176.722 40.7261Z" fill="#263238"/>
<path d="M176.507 36.4216C176.725 37.1154 176.789 37.8483 176.696 38.5695C176.555 38.2329 176.485 37.8712 176.489 37.5065C176.423 37.1474 176.429 36.7785 176.507 36.4216Z" fill="#263238"/>
<path d="M175.633 32.196C175.826 32.5066 175.953 32.8534 176.006 33.2151C176.13 33.5595 176.181 33.926 176.156 34.2912C175.963 33.9807 175.836 33.6338 175.782 33.2722C175.661 32.9271 175.61 32.5611 175.633 32.196Z" fill="#263238"/>
<path d="M174.069 28.177C174.313 28.4495 174.497 28.7696 174.61 29.117C174.793 29.4347 174.905 29.7883 174.939 30.1536C174.698 29.878 174.514 29.5569 174.399 29.2092C174.219 28.8914 174.107 28.54 174.069 28.177Z" fill="#263238"/>
<path d="M171.768 24.5269C171.816 24.4873 172.132 24.8519 172.479 25.3438C172.717 25.6205 172.895 25.9436 173.002 26.2926C172.949 26.3277 172.628 25.9588 172.29 25.4756C172.052 25.199 171.874 24.8759 171.768 24.5269Z" fill="#263238"/>
<path d="M168.776 21.4349C168.816 21.3866 169.216 21.6501 169.655 22.0586C170.094 22.4671 170.393 22.8536 170.349 22.8975C170.305 22.9415 169.936 22.6296 169.501 22.2255C169.066 21.8214 168.737 21.4832 168.776 21.4349Z" fill="#263238"/>
<path d="M166.093 19.5812C166.123 19.5285 166.361 19.612 166.62 19.7701C166.879 19.9282 167.059 20.0995 167.028 20.1522C166.997 20.2049 166.756 20.1215 166.501 19.9677C166.246 19.814 166.057 19.6383 166.093 19.5812Z" fill="#263238"/>
<path d="M154.181 30.4303C162.584 30.4303 169.396 23.6183 169.396 15.2152C169.396 6.81206 162.584 0 154.181 0C145.778 0 138.966 6.81206 138.966 15.2152C138.966 23.6183 145.778 30.4303 154.181 30.4303Z" fill="#399A19"/>
<path d="M145.181 16.3264L147.535 13.9721L152.077 18.0087L160.993 9.43042L163.181 11.7847L151.743 22.5504L145.181 16.3264Z" fill="#FAFAFA"/>
<path d="M163.058 81.5531L160.817 73.3438C160.817 73.3438 150.276 76.089 149.604 75.2369C145.778 70.5063 143.845 64.0056 143.244 61.6733C143.327 61.3395 143.441 60.9485 143.595 60.4917C143.728 60.1008 143.927 59.7354 144.184 59.4112C144.486 58.9983 144.844 58.6288 145.246 58.3131C145.356 58.2513 145.436 58.1486 145.47 58.0275C145.504 57.9065 145.488 57.777 145.427 57.6674C145.395 57.6062 145.35 57.5533 145.294 57.5128C145.238 57.4724 145.174 57.4456 145.106 57.4346C144.667 57.4039 143.56 58.0715 142.73 59.3409C141.9 60.6103 141.649 58.2385 141.544 57.3775C141.438 56.5166 140.977 53.8637 140.687 53.6748C140.248 53.4156 139.901 53.8241 140.028 54.685C140.156 55.5459 140.353 58.155 139.897 58.1989C139.44 58.2428 138.957 53.8066 138.957 53.8066C138.957 53.8066 139.005 52.849 138.473 52.871C137.512 52.9105 138.377 57.5576 138.473 58.0013C138.539 58.3043 138.034 58.3614 137.99 58.0276C137.946 57.6938 137.604 53.6353 136.629 53.6353C135.878 53.6616 137.301 57.4654 136.901 58.3483C136.501 59.2311 136.115 55.3527 135.399 55.4054C135.135 55.4054 134.938 55.4757 135.482 57.6718C135.94 59.2373 136.483 60.7769 137.107 62.2838H137.068C137.068 62.2838 140.977 85.2208 151.123 83.9382C161.924 82.6029 163.058 81.5531 163.058 81.5531Z" fill="#FFBE9D"/>
<path d="M147.75 104.31L83.3714 99.6233C82.4987 99.5625 81.6855 99.1587 81.1095 98.5004C80.5334 97.842 80.2412 96.9825 80.2967 96.1095L83.1781 56.5562C83.239 55.6835 83.6427 54.8704 84.3011 54.2943C84.9594 53.7182 85.819 53.426 86.692 53.4815L151.124 58.1506C152.001 58.2125 152.817 58.6202 153.394 59.2841C153.971 59.948 154.26 60.8137 154.198 61.6909L151.317 101.244C151.287 101.678 151.171 102.102 150.977 102.492C150.783 102.881 150.515 103.229 150.186 103.514C149.858 103.8 149.476 104.018 149.064 104.156C148.651 104.294 148.215 104.349 147.781 104.319L147.75 104.31Z" fill="#399A19"/>
<path d="M147.75 104.31C147.948 104.31 148.141 104.31 148.339 104.31C148.915 104.248 149.464 104.033 149.929 103.686C150.304 103.408 150.615 103.053 150.843 102.644C151.07 102.236 151.207 101.784 151.246 101.319C151.325 100.203 151.418 98.916 151.519 97.4709L153.276 72.9747C153.46 70.3891 153.655 67.6819 153.86 64.8532C153.913 64.1504 153.961 63.4345 154.014 62.7185C154.137 62.009 154.119 61.282 153.961 60.5794C153.762 59.8795 153.328 59.2698 152.731 58.8532C152.432 58.6414 152.099 58.4811 151.747 58.3789C151.384 58.2955 151.013 58.247 150.64 58.2339L131.222 56.8328L86.7313 53.578C86.2551 53.5432 85.7771 53.6154 85.3325 53.7895C84.8878 53.9636 84.4878 54.235 84.1618 54.5839C83.836 54.9306 83.5927 55.3466 83.4502 55.8005C83.3269 56.265 83.262 56.7431 83.257 57.2237C83.1106 59.1739 82.9641 61.1095 82.8177 63.0304C82.5249 66.8752 82.2496 70.6585 81.992 74.3803C81.4473 81.8209 80.9202 89.0024 80.4195 95.837C80.3046 96.667 80.5121 97.5095 80.9993 98.1913C81.479 98.8627 82.1999 99.3223 83.011 99.4738C84.6493 99.6364 86.3097 99.7242 87.926 99.856L97.3477 100.546L114.267 101.793L138.759 103.611L145.413 104.121L147.17 104.27L147.759 104.323C147.759 104.323 147.561 104.323 147.17 104.292L145.413 104.178L138.755 103.717L114.254 101.96L97.3477 100.756L87.9217 100.076C86.3009 99.9482 84.6713 99.8648 82.9846 99.6979C82.1211 99.5379 81.353 99.0499 80.8412 98.3362C80.3281 97.6138 80.1069 96.7243 80.2218 95.8458C80.7182 89.0068 81.2409 81.8297 81.7811 74.3846C82.0505 70.6629 82.3243 66.8796 82.6025 63.0348C82.7431 61.1109 82.8895 59.1753 83.0417 57.2281C83.0498 56.7298 83.1176 56.2343 83.2438 55.7522C83.4767 55.0182 83.9501 54.3841 84.5877 53.9522C85.2252 53.5203 85.9896 53.3157 86.7577 53.3716L131.248 56.6219L150.662 58.045C151.047 58.0586 151.43 58.1101 151.804 58.1988C152.36 58.3593 152.867 58.6564 153.279 59.063C153.691 59.4696 153.995 59.9728 154.163 60.5267C154.269 60.8886 154.312 61.266 154.29 61.6424C154.29 62.0114 154.242 62.3671 154.216 62.7317C154.163 63.4477 154.11 64.1636 154.058 64.8664C153.85 67.6921 153.65 70.3978 153.46 72.9835C152.691 83.3231 152.068 91.6906 151.637 97.4797C151.528 98.9248 151.431 100.203 151.347 101.323C151.304 101.798 151.159 102.257 150.923 102.671C150.687 103.085 150.364 103.443 149.977 103.721C149.506 104.068 148.948 104.28 148.365 104.332C148.219 104.345 148.072 104.345 147.926 104.332L147.75 104.31Z" fill="#263238"/>
<path d="M87.5792 83.187L87.2937 87.1401L86.8896 87.1094L87.1487 83.5296L86.2219 83.4637L86.2483 83.1035L87.5792 83.187Z" fill="#FAFAFA"/>
<path d="M91.3873 87.0742L91.3565 87.4344L88.5938 87.2324V86.9469L90.3507 85.4622C90.8251 85.0537 90.9305 84.799 90.9481 84.5267C90.9832 84.0874 90.6801 83.7668 90.0696 83.7229C89.8698 83.6941 89.6661 83.7117 89.4742 83.7741C89.2823 83.8366 89.1073 83.9422 88.9627 84.083L88.6948 83.8151C88.8849 83.6364 89.1125 83.5023 89.3609 83.4225C89.6093 83.3427 89.8724 83.3193 90.1311 83.3539C90.9305 83.411 91.4093 83.8546 91.3609 84.5135C91.3323 84.7532 91.2514 84.9836 91.1239 85.1885C90.9964 85.3935 90.8254 85.5679 90.623 85.6994L89.1911 86.9161L91.3873 87.0742Z" fill="#FAFAFA"/>
<path d="M95.5689 86.7009L94.7826 86.6438L94.7036 87.6804L94.2995 87.6497L94.3741 86.6131L92.1516 86.4549V86.1607L94.4312 83.7009L94.8705 83.7317L92.6743 86.1299L94.3873 86.2573L94.4532 85.3437L94.8485 85.37L94.7826 86.2836L95.5689 86.3407V86.7009Z" fill="#FAFAFA"/>
<path d="M101.608 87.1401L100.822 87.083L100.743 88.1196L100.339 88.0889L100.414 87.0567L98.1912 86.8942V86.5999L100.471 84.1401L100.91 84.1753L98.7138 86.5691L100.427 86.6965L100.493 85.7829L100.888 85.8136L100.818 86.7229L101.608 86.7799V87.1401Z" fill="#FAFAFA"/>
<path d="M105.061 87.2676C105.013 87.9396 104.507 88.4272 103.545 88.3569C103.025 88.3388 102.533 88.12 102.171 87.7464L102.39 87.4433C102.697 87.7713 103.119 87.9668 103.567 87.9879C104.235 88.0362 104.613 87.7332 104.648 87.2544C104.683 86.7756 104.393 86.4111 103.392 86.3364L102.553 86.2749L102.9 84.3159L105.056 84.474L105.03 84.8342L103.229 84.7024L103.001 85.9455L103.51 85.985C104.696 86.0685 105.114 86.5692 105.061 87.2676Z" fill="#FAFAFA"/>
<path d="M108.957 87.5356C108.93 87.8589 108.776 88.1585 108.53 88.3692C108.283 88.5798 107.963 88.6843 107.639 88.66H107.534C106.484 88.5854 105.97 87.8167 106.062 86.5737C106.159 85.234 106.941 84.5883 108.013 84.6674C108.338 84.6763 108.656 84.7734 108.931 84.9485L108.742 85.2647C108.52 85.1132 108.259 85.0293 107.991 85.0231C107.138 84.9616 106.554 85.4624 106.475 86.5341V86.8592C106.604 86.6497 106.791 86.4824 107.013 86.3778C107.236 86.2733 107.484 86.236 107.727 86.2706C108.04 86.2598 108.344 86.3727 108.574 86.5848C108.805 86.7969 108.942 87.0912 108.957 87.4038C108.961 87.4476 108.961 87.4918 108.957 87.5356ZM108.557 87.5356C108.597 87.0173 108.237 86.6571 107.63 86.6132C107.512 86.5909 107.391 86.5921 107.274 86.6167C107.156 86.6413 107.045 86.6888 106.946 86.7566C106.846 86.8243 106.762 86.9109 106.696 87.0114C106.63 87.1119 106.585 87.2243 106.563 87.3423C106.563 87.3423 106.563 87.3818 106.563 87.3994C106.528 87.8387 106.862 88.2779 107.543 88.3218C107.656 88.3413 107.773 88.3382 107.886 88.3125C107.999 88.2868 108.105 88.2392 108.199 88.1723C108.294 88.1053 108.374 88.0205 108.435 87.9225C108.497 87.8246 108.538 87.7155 108.557 87.6015C108.559 87.5737 108.559 87.5458 108.557 87.518V87.5356Z" fill="#FAFAFA"/>
<path d="M114.346 87.9748C114.298 88.6337 113.784 89.1037 112.831 89.0334C112.31 89.0155 111.815 88.7968 111.452 88.4228L111.671 88.1198C111.982 88.4469 112.407 88.6419 112.857 88.6644C113.512 88.7084 113.894 88.4316 113.929 87.9441C113.964 87.4565 113.652 87.1359 112.923 87.0656L112.642 87.0436L112.664 86.745L113.854 85.458L111.838 85.3131L111.865 84.9529L114.399 85.1374L114.377 85.4229L113.16 86.7406C114.004 86.8679 114.39 87.3423 114.346 87.9748Z" fill="#FAFAFA"/>
<path d="M118.299 88.2163C118.275 88.5412 118.122 88.8431 117.875 89.0555C117.628 89.268 117.307 89.3738 116.982 89.3495C116.942 89.3539 116.902 89.3539 116.863 89.3495C115.818 89.2749 115.299 88.5062 115.392 87.2632C115.488 85.9455 116.27 85.2778 117.342 85.3569C117.668 85.3658 117.985 85.4629 118.26 85.638L118.071 85.9542C117.85 85.8009 117.589 85.7168 117.32 85.7127C116.468 85.6512 115.884 86.1519 115.804 87.2236V87.5487C115.933 87.3392 116.12 87.1719 116.342 87.0673C116.565 86.9628 116.813 86.9255 117.056 86.9601C117.373 86.947 117.681 87.0599 117.914 87.274C118.147 87.4881 118.286 87.7859 118.299 88.1021C118.303 88.1401 118.303 88.1783 118.299 88.2163ZM117.9 88.2163C117.939 87.698 117.579 87.3378 116.973 87.2939C116.855 87.2717 116.734 87.2729 116.616 87.2975C116.499 87.3221 116.387 87.3696 116.288 87.4373C116.189 87.505 116.104 87.5916 116.038 87.6921C115.973 87.7926 115.928 87.9051 115.906 88.023C115.906 88.023 115.906 88.0626 115.906 88.0801C115.87 88.5194 116.204 88.9586 116.885 89.0025C116.999 89.0221 117.116 89.0189 117.228 88.9932C117.341 88.9676 117.448 88.9199 117.542 88.853C117.636 88.7861 117.716 88.7012 117.778 88.6032C117.839 88.5053 117.88 88.3962 117.9 88.2822C117.902 88.2544 117.902 88.2265 117.9 88.1987V88.2163Z" fill="#FAFAFA"/>
<path d="M122.134 85.7172L122.112 86.0027L120.197 89.5166L119.758 89.4858L121.642 86.0246L119.617 85.8753L119.56 86.6132L119.16 86.5869L119.244 85.4888L122.134 85.7172Z" fill="#FAFAFA"/>
<path d="M127.76 86.1256L127.739 86.4155L125.823 89.9294L125.384 89.8987L127.264 86.4375L125.239 86.2881L125.187 87.0261L124.787 86.9953L124.866 85.8972L127.76 86.1256Z" fill="#FAFAFA"/>
<path d="M131.428 89.253C131.38 89.9514 130.756 90.3379 129.816 90.272C128.876 90.2061 128.327 89.7273 128.38 89.029C128.395 88.8053 128.485 88.5933 128.636 88.4274C128.786 88.2615 128.989 88.1515 129.21 88.1153C129.03 88.046 128.878 87.9194 128.777 87.7551C128.677 87.5908 128.633 87.3979 128.652 87.2061C128.701 86.5648 129.276 86.2047 130.111 86.2618C130.945 86.3189 131.472 86.7669 131.428 87.4082C131.419 87.6018 131.346 87.787 131.22 87.9348C131.095 88.0826 130.924 88.1847 130.734 88.2252C130.949 88.2929 131.134 88.4314 131.26 88.618C131.387 88.8047 131.446 89.0284 131.428 89.253ZM131.015 89.2178C131.051 88.7303 130.655 88.3965 129.957 88.3394C129.258 88.2823 128.828 88.559 128.793 89.0465C128.758 89.5341 129.144 89.8679 129.843 89.925C130.541 89.9821 130.98 89.7054 131.015 89.2178ZM129.979 88.0187C130.594 88.0626 130.98 87.8123 131.011 87.3862C131.042 86.9601 130.673 86.6395 130.084 86.6C129.496 86.5604 129.092 86.7976 129.061 87.2369C129.03 87.6761 129.368 87.9792 129.979 88.0187Z" fill="#FAFAFA"/>
<path d="M135.311 88.6249C135.214 89.9646 134.432 90.6103 133.361 90.5312C133.036 90.5181 132.719 90.4213 132.443 90.2501L132.627 89.9338C132.851 90.0848 133.113 90.1686 133.383 90.1754C134.23 90.2369 134.815 89.7362 134.894 88.6601V88.3394C134.765 88.5496 134.577 88.7174 134.354 88.822C134.131 88.9267 133.881 88.9635 133.637 88.928C133.321 88.9411 133.013 88.8282 132.78 88.6141C132.547 88.4 132.408 88.1021 132.394 87.786C132.39 87.7407 132.39 87.6951 132.394 87.6498C132.422 87.3269 132.576 87.028 132.823 86.8176C133.069 86.6072 133.389 86.5022 133.712 86.5254H133.813C134.898 86.6132 135.412 87.3819 135.311 88.6249ZM134.81 87.7991C134.841 87.3599 134.512 86.9207 133.831 86.8811C133.601 86.8416 133.365 86.8949 133.175 87.0291C132.985 87.1634 132.856 87.3677 132.816 87.5971C132.814 87.6205 132.814 87.644 132.816 87.6674C132.777 88.1857 133.137 88.5459 133.743 88.5898C133.98 88.6377 134.226 88.5898 134.428 88.4564C134.63 88.323 134.77 88.1151 134.819 87.8782V87.7991H134.81Z" fill="#FAFAFA"/>
<path d="M116.264 92.1902L116.14 93.9031L147.703 96.1988L147.828 94.4859L116.264 92.1902Z" fill="#FAFAFA"/>
<path d="M131.396 96.7297L131.271 98.4426L147.458 99.62L147.583 97.9071L131.396 96.7297Z" fill="#FAFAFA"/>
<path d="M85.9688 71.9274L85.5644 77.4734C85.4769 78.6734 86.3788 79.7172 87.5788 79.8047L96.4761 80.4534C97.6762 80.5408 98.7199 79.639 98.8074 78.4389L99.2117 72.8929C99.2992 71.6929 98.3974 70.6491 97.1973 70.5616L88.3 69.913C87.1 69.8255 86.0563 70.7274 85.9688 71.9274Z" fill="#455A64"/>
<path d="M85.6113 76.9015L85.6596 76.269L92.4766 76.7654C92.6638 76.7847 92.8529 76.767 93.0332 76.7132C93.2136 76.6594 93.3815 76.5706 93.5275 76.452C93.6736 76.3333 93.7948 76.187 93.8843 76.0214C93.9737 75.8559 94.0297 75.6744 94.0491 75.4872C94.0684 75.3 94.0507 75.1109 93.9969 74.9305C93.9431 74.7502 93.8543 74.5823 93.7356 74.4362C93.6169 74.2902 93.4707 74.169 93.3051 74.0795C93.1396 73.9901 92.9581 73.934 92.7709 73.9147H92.705L85.888 73.4184L85.932 72.7815L92.7533 73.2778C93.2868 73.3347 93.7774 73.5966 94.1215 74.0083C94.4655 74.42 94.6362 74.9493 94.5974 75.4844C94.5587 76.0196 94.3136 76.5187 93.9138 76.8765C93.514 77.2344 92.9908 77.4229 92.4546 77.4023L85.6113 76.9015Z" fill="#399A19"/>
<path d="M94.3469 75.1392L94.3 75.7744L98.9784 76.1196L99.0252 75.4844L94.3469 75.1392Z" fill="#399A19"/>
<path d="M88.2848 61.7153L88.0718 64.6372L122.132 67.1205L122.345 64.1986L88.2848 61.7153Z" fill="#FAFAFA"/>
<path d="M167.147 54.0219C166.238 55.5372 166.33 57.4391 166.585 59.1917C166.839 60.9442 167.235 62.7319 166.844 64.4625C166.585 65.6001 165.965 66.7378 166.264 67.8666C166.462 68.6704 167.063 69.3029 167.362 70.0628C167.801 71.1609 167.551 72.382 167.406 73.5503C167.261 74.7187 167.27 76.0232 168.043 76.9061C169.005 78.0042 170.775 77.9559 172.093 77.3453C173.41 76.7348 174.456 75.6499 175.677 74.8549C176.898 74.0598 178.488 73.5371 179.801 74.1696C180.407 74.4595 180.93 74.9778 181.598 75.0481C182.533 75.1184 183.271 74.2619 184.176 74.0115C184.953 73.8007 185.784 74.0598 186.583 73.9676C188.213 73.7875 189.416 72.0306 189.188 70.4098C189.035 69.6003 188.636 68.8579 188.044 68.2845C187.453 67.7112 186.698 67.335 185.885 67.2077C185.195 67.0935 184.365 67.076 183.987 66.4874C183.425 65.6089 184.426 64.5064 184.238 63.4918C184.115 62.7627 183.421 62.2751 182.74 61.9764C182.059 61.6778 181.308 61.4801 180.781 60.9618C179.836 60.0394 179.942 58.5284 179.652 57.2371C179.173 55.1112 177.183 50.7583 172.852 50.3323" fill="#263238"/>
<path d="M165.139 174.987L165.223 171.886L171.034 172.005L170.959 176.542H170.599C168.996 176.599 162.434 176.718 161.375 176.371C160.18 175.998 165.139 174.987 165.139 174.987Z" fill="#399A19"/>
<path d="M168.855 176.45C168.952 175.963 169.224 175.529 169.62 175.229C170.009 174.931 170.497 174.79 170.986 174.834L170.955 176.455L168.855 176.45Z" fill="#399A19"/>
<path d="M162.715 175.563C162.715 175.563 160.958 176.029 161.187 176.318C161.415 176.608 168.03 176.758 170.96 176.538V176.411L163.225 176.323C163.225 176.323 163.053 175.585 162.715 175.563Z" fill="#399A19"/>
<path d="M171.043 176.406H170.656L169.602 176.433H166.115C164.753 176.433 163.519 176.358 162.627 176.31L161.573 176.244L161.287 176.222H161.573L162.631 176.261C163.51 176.296 164.753 176.34 166.115 176.367C167.476 176.393 168.706 176.397 169.598 176.393H171.043V176.406Z" fill="#263238"/>
<path d="M163.216 176.415C163.173 176.239 163.109 176.068 163.027 175.906C162.926 175.755 162.808 175.617 162.676 175.493C162.848 175.574 162.992 175.705 163.089 175.87C163.185 176.035 163.229 176.225 163.216 176.415Z" fill="#263238"/>
<path d="M164.946 175.576C164.878 175.508 164.818 175.433 164.766 175.352C164.683 175.22 164.63 175.097 164.648 175.088C164.665 175.08 164.744 175.181 164.828 175.312C164.911 175.444 164.964 175.567 164.946 175.576Z" fill="#263238"/>
<path d="M165.421 175.339C165.347 175.301 165.28 175.254 165.219 175.198C165.118 175.106 165.052 175.018 165.065 175.005C165.078 174.992 165.17 175.053 165.267 175.146C165.364 175.238 165.434 175.326 165.421 175.339Z" fill="#263238"/>
<path d="M165.728 174.794C165.728 174.816 165.592 174.83 165.425 174.83C165.258 174.83 165.122 174.829 165.122 174.79C165.219 174.756 165.323 174.745 165.425 174.759C165.528 174.749 165.631 174.761 165.728 174.794Z" fill="#263238"/>
<path d="M165.838 174.412C165.738 174.477 165.619 174.509 165.5 174.504C165.381 174.523 165.259 174.503 165.153 174.447C165.267 174.439 165.381 174.439 165.495 174.447C165.608 174.421 165.723 174.409 165.838 174.412Z" fill="#263238"/>
<path d="M164.74 175.066C164.616 175.088 164.49 175.088 164.366 175.066C164.232 175.046 164.1 175.013 163.971 174.97C163.894 174.945 163.819 174.912 163.747 174.873C163.704 174.845 163.671 174.804 163.655 174.755C163.65 174.726 163.654 174.698 163.664 174.671C163.675 174.645 163.693 174.622 163.716 174.605C163.861 174.539 164.023 174.525 164.177 174.565C164.331 174.605 164.466 174.697 164.56 174.825C164.617 174.898 164.656 174.984 164.674 175.075V175.176C164.639 175.061 164.584 174.952 164.511 174.856C164.429 174.755 164.319 174.68 164.195 174.64C164.124 174.615 164.049 174.603 163.973 174.607C163.898 174.611 163.824 174.63 163.756 174.662C163.694 174.706 163.716 174.777 163.782 174.816C163.849 174.851 163.918 174.882 163.989 174.908C164.113 174.956 164.24 174.993 164.371 175.018C164.495 175.028 164.618 175.044 164.74 175.066Z" fill="#263238"/>
<path d="M164.661 175.084C164.617 175.005 164.604 174.913 164.626 174.825C164.638 174.724 164.678 174.629 164.74 174.548C164.772 174.492 164.818 174.446 164.873 174.413C164.929 174.381 164.992 174.364 165.056 174.364C165.092 174.375 165.124 174.399 165.144 174.431C165.164 174.463 165.172 174.502 165.166 174.539C165.155 174.598 165.133 174.653 165.1 174.702C165.05 174.784 164.989 174.859 164.92 174.926C164.859 174.992 164.784 175.043 164.7 175.075C164.766 175.018 164.827 174.956 164.885 174.891C164.946 174.824 164.999 174.751 165.043 174.671C165.096 174.592 165.135 174.452 165.043 174.434C164.951 174.416 164.85 174.513 164.792 174.588C164.737 174.658 164.699 174.741 164.683 174.829C164.669 174.914 164.661 174.999 164.661 175.084Z" fill="#263238"/>
<path d="M170.955 174.816C170.809 174.802 170.662 174.802 170.516 174.816C170.172 174.847 169.844 174.975 169.571 175.185C169.297 175.395 169.088 175.678 168.97 176.002C168.878 176.248 168.864 176.415 168.851 176.415C168.847 176.376 168.847 176.336 168.851 176.296C168.904 175.887 169.1 175.51 169.403 175.23C169.707 174.951 170.099 174.787 170.512 174.768C170.617 174.759 170.723 174.759 170.828 174.768C170.872 174.779 170.915 174.795 170.955 174.816Z" fill="#263238"/>
<path d="M170.402 172.387C170.437 172.784 170.446 173.184 170.428 173.582C170.437 173.979 170.423 174.377 170.384 174.772C170.337 173.978 170.337 173.182 170.384 172.387H170.402Z" fill="#263238"/>
<path d="M168.135 175.866C167.856 175.927 167.569 175.95 167.283 175.932C166.998 175.939 166.713 175.911 166.435 175.848C166.435 175.848 166.817 175.848 167.287 175.848C167.757 175.848 168.131 175.866 168.135 175.866Z" fill="#263238"/>
<path d="M169.273 175.892C169.251 175.948 169.226 176.002 169.198 176.055C169.154 176.138 169.137 176.222 169.115 176.217C169.093 176.213 169.088 176.125 169.137 176.028C169.185 175.932 169.26 175.866 169.273 175.892Z" fill="#263238"/>
<path d="M169.712 175.365C169.693 175.415 169.663 175.46 169.624 175.497C169.563 175.554 169.506 175.594 169.492 175.581C169.479 175.567 169.514 175.506 169.576 175.449C169.637 175.392 169.699 175.352 169.712 175.365Z" fill="#263238"/>
<path d="M170.331 175.132C170.331 175.154 170.248 175.132 170.164 175.181C170.081 175.229 170.015 175.251 170.002 175.238C169.989 175.225 170.037 175.146 170.142 175.111C170.248 175.075 170.336 175.115 170.331 175.132Z" fill="#263238"/>
<path d="M170.771 175.027C170.754 175.057 170.727 175.08 170.696 175.093C170.663 175.103 170.628 175.103 170.595 175.093C170.611 175.062 170.637 175.039 170.67 175.027C170.718 175.01 170.762 175.01 170.771 175.027Z" fill="#263238"/>
<path d="M181.624 174.987L181.708 171.886L187.514 172.005L187.44 176.542H187.079C185.476 176.599 178.918 176.718 177.855 176.371C176.665 175.998 181.624 174.987 181.624 174.987Z" fill="#399A19"/>
<path d="M185.336 176.45C185.432 175.962 185.706 175.527 186.104 175.229C186.493 174.929 186.981 174.788 187.47 174.834L187.435 176.455L185.336 176.45Z" fill="#399A19"/>
<path d="M179.2 175.563C179.2 175.563 177.443 176.029 177.667 176.318C177.891 176.608 184.51 176.758 187.44 176.538V176.411L179.7 176.323C179.7 176.323 179.538 175.585 179.2 175.563Z" fill="#399A19"/>
<path d="M187.527 176.406H187.141L186.082 176.433H182.595C181.233 176.433 179.999 176.358 179.112 176.31L178.053 176.244L177.768 176.222H178.057L179.112 176.261C179.99 176.296 181.233 176.34 182.595 176.367C183.956 176.393 185.191 176.397 186.082 176.393H187.527V176.406Z" fill="#263238"/>
<path d="M179.696 176.415C179.654 176.239 179.592 176.068 179.511 175.906C179.41 175.755 179.292 175.617 179.16 175.493C179.332 175.574 179.476 175.706 179.571 175.87C179.667 176.035 179.71 176.225 179.696 176.415Z" fill="#263238"/>
<path d="M181.431 175.576C181.363 175.509 181.304 175.433 181.255 175.352C181.176 175.22 181.119 175.097 181.136 175.088C181.154 175.08 181.233 175.181 181.312 175.312C181.363 175.395 181.403 175.483 181.431 175.576Z" fill="#263238"/>
<path d="M181.905 175.339C181.831 175.302 181.763 175.255 181.703 175.198C181.607 175.106 181.536 175.018 181.549 175.005C181.563 174.992 181.65 175.053 181.751 175.146C181.853 175.238 181.918 175.326 181.905 175.339Z" fill="#263238"/>
<path d="M182.213 174.794C182.213 174.816 182.076 174.83 181.91 174.83C181.743 174.83 181.606 174.829 181.606 174.79C181.704 174.756 181.807 174.745 181.91 174.759C182.012 174.749 182.115 174.761 182.213 174.794Z" fill="#263238"/>
<path d="M182.309 174.412C182.206 174.475 182.087 174.507 181.967 174.504C181.848 174.523 181.726 174.503 181.62 174.447C181.734 174.438 181.848 174.438 181.962 174.447C182.076 174.42 182.193 174.408 182.309 174.412Z" fill="#263238"/>
<path d="M181.242 175.066C181.119 175.088 180.992 175.088 180.869 175.066C180.734 175.046 180.602 175.013 180.473 174.97C180.394 174.947 180.317 174.914 180.245 174.873C180.202 174.846 180.17 174.804 180.157 174.755C180.153 174.727 180.155 174.698 180.165 174.672C180.175 174.646 180.192 174.623 180.214 174.605C180.359 174.539 180.521 174.525 180.675 174.565C180.829 174.605 180.964 174.697 181.058 174.825C181.114 174.899 181.155 174.984 181.176 175.075C181.185 175.108 181.185 175.143 181.176 175.176C181.14 175.06 181.084 174.952 181.009 174.856C180.929 174.754 180.821 174.679 180.697 174.64C180.554 174.59 180.396 174.598 180.258 174.662C180.201 174.706 180.223 174.777 180.285 174.816C180.351 174.856 180.421 174.887 180.495 174.908C180.619 174.956 180.747 174.993 180.878 175.018C181.097 175.053 181.242 175.053 181.242 175.066Z" fill="#263238"/>
<path d="M181.145 175.084C181.1 175.006 181.085 174.913 181.106 174.825C181.12 174.727 181.157 174.633 181.216 174.553C181.248 174.498 181.294 174.453 181.348 174.421C181.403 174.389 181.464 174.371 181.527 174.368C181.565 174.378 181.598 174.401 181.619 174.434C181.64 174.466 181.648 174.506 181.642 174.544C181.631 174.603 181.607 174.658 181.571 174.706C181.523 174.789 181.462 174.865 181.391 174.93C181.333 174.997 181.259 175.049 181.176 175.08C181.239 175.022 181.299 174.96 181.356 174.895C181.418 174.828 181.472 174.754 181.519 174.676C181.571 174.597 181.606 174.456 181.519 174.438C181.431 174.421 181.33 174.518 181.268 174.592C181.217 174.665 181.179 174.747 181.158 174.834C181.145 174.917 181.141 175 181.145 175.084Z" fill="#263238"/>
<path d="M187.44 174.816C187.294 174.802 187.147 174.802 187 174.816C186.657 174.847 186.329 174.975 186.056 175.185C185.782 175.395 185.573 175.678 185.454 176.002C185.362 176.248 185.349 176.415 185.336 176.415C185.327 176.376 185.327 176.335 185.336 176.296C185.348 176.19 185.372 176.086 185.406 175.984C185.515 175.645 185.726 175.346 186.009 175.129C186.292 174.911 186.635 174.785 186.992 174.768C187.098 174.759 187.206 174.759 187.312 174.768C187.358 174.775 187.401 174.792 187.44 174.816Z" fill="#263238"/>
<path d="M186.886 172.387C186.933 173.182 186.933 173.978 186.886 174.772C186.851 174.377 186.842 173.979 186.86 173.582C186.844 173.184 186.853 172.785 186.886 172.387Z" fill="#263238"/>
<path d="M184.615 175.866C184.337 175.927 184.052 175.95 183.768 175.932C183.483 175.942 183.198 175.913 182.92 175.848C182.92 175.848 183.302 175.848 183.768 175.848C184.233 175.848 184.615 175.866 184.615 175.866Z" fill="#263238"/>
<path d="M185.753 175.892C185.753 175.892 185.722 175.971 185.683 176.055C185.643 176.138 185.617 176.222 185.599 176.217C185.582 176.213 185.573 176.125 185.599 176.028C185.626 175.932 185.744 175.866 185.753 175.892Z" fill="#263238"/>
<path d="M186.197 175.365C186.177 175.415 186.147 175.46 186.109 175.497C186.047 175.554 185.986 175.594 185.973 175.581C185.959 175.567 185.999 175.506 186.06 175.449C186.122 175.392 186.179 175.352 186.197 175.365Z" fill="#263238"/>
<path d="M186.812 175.132C186.812 175.154 186.732 175.132 186.645 175.181C186.557 175.229 186.5 175.251 186.482 175.238C186.465 175.225 186.517 175.146 186.623 175.111C186.728 175.075 186.82 175.115 186.812 175.132Z" fill="#263238"/>
<path d="M187.251 175.027C187.233 175.057 187.207 175.08 187.176 175.093C187.143 175.103 187.108 175.103 187.075 175.093C187.075 175.093 187.106 175.045 187.154 175.027C187.202 175.01 187.246 175.01 187.251 175.027Z" fill="#263238"/>
<path d="M163.967 95.2881L161.182 136.8V174.236H172.312C172.312 174.236 172.782 141.953 172.488 139.84C172.488 139.84 174.307 107.503 174.513 107.964C174.952 108.909 174.926 136.396 175.55 139.8C176.173 143.204 179.063 174.236 179.063 174.236H189.776L186.175 138.658C186.1 134.371 184.998 96.7244 184.998 96.7244L163.967 95.2881Z" fill="#263238"/>
<path d="M189.535 172.11C189.414 172.197 189.27 172.247 189.122 172.255C188.719 172.291 188.315 172.225 187.945 172.062C187.431 171.808 186.89 171.614 186.333 171.482C185.705 171.39 185.05 171.72 184.426 172.137C183.853 172.59 183.18 172.9 182.463 173.042C181.869 173.098 181.269 173.025 180.706 172.826C180.332 172.702 179.965 172.555 179.608 172.387C179.473 172.335 179.347 172.263 179.235 172.172C179.235 172.132 179.81 172.4 180.75 172.681C181.296 172.848 181.87 172.902 182.437 172.84C183.119 172.696 183.758 172.395 184.303 171.961C184.616 171.75 184.948 171.571 185.296 171.425C185.634 171.292 185.999 171.247 186.359 171.293C186.937 171.428 187.495 171.636 188.019 171.913C188.365 172.078 188.743 172.164 189.126 172.163C189.385 172.154 189.526 172.089 189.535 172.11Z" fill="#455A64"/>
<path d="M172.404 171.851C172.294 171.748 172.177 171.652 172.053 171.566C171.697 171.367 171.28 171.304 170.88 171.39C170.288 171.558 169.734 171.836 169.246 172.212C168.934 172.423 168.601 172.602 168.254 172.747C167.866 172.907 167.442 172.957 167.028 172.892C166.185 172.747 165.517 172.308 164.832 172.159C164.235 172.031 163.615 172.058 163.031 172.238C162.021 172.541 161.428 172.853 161.41 172.809C161.534 172.712 161.67 172.632 161.814 172.572C162.192 172.377 162.584 172.213 162.987 172.08C163.596 171.869 164.249 171.825 164.88 171.952C165.596 172.106 166.273 172.541 167.046 172.668C167.819 172.796 168.526 172.396 169.11 172.032C169.623 171.652 170.207 171.38 170.828 171.232C171.264 171.153 171.714 171.246 172.084 171.491C172.227 171.573 172.34 171.699 172.404 171.851Z" fill="#455A64"/>
<path d="M184.246 103.897C184.052 104.024 183.828 104.1 183.596 104.117C183.043 104.2 182.479 104.164 181.941 104.013C181.402 103.861 180.902 103.597 180.473 103.238C180.148 102.962 180.003 102.738 180.034 102.72C180.604 103.221 181.279 103.586 182.011 103.788C182.742 103.989 183.509 104.022 184.255 103.884L184.246 103.897Z" fill="#455A64"/>
<path d="M165.768 102.276C165.794 102.276 165.794 102.5 165.68 102.825C165.525 103.251 165.267 103.631 164.929 103.932C164.589 104.232 164.182 104.446 163.743 104.556C163.405 104.631 163.189 104.604 163.189 104.578C163.779 104.444 164.325 104.163 164.776 103.76C165.227 103.358 165.568 102.847 165.768 102.276Z" fill="#455A64"/>
<path d="M139.462 86.9777L139.172 90.9309L138.768 90.9045L139.027 87.3247L138.1 87.2545L138.126 86.8943L139.462 86.9777Z" fill="#FAFAFA"/>
<path d="M143.252 90.8518L143.226 91.212L140.463 91.0143V90.7244L142.22 89.2398C142.694 88.8357 142.8 88.5766 142.822 88.3042C142.853 87.865 142.554 87.5444 141.943 87.5004C141.744 87.4743 141.541 87.4931 141.349 87.5554C141.158 87.6177 140.983 87.722 140.836 87.8606L140.582 87.5795C140.772 87.4008 140.999 87.2667 141.248 87.1869C141.496 87.1071 141.759 87.0837 142.018 87.1183C142.817 87.1754 143.296 87.619 143.248 88.2779C143.222 88.6556 143.077 88.9851 142.51 89.4638L141.078 90.6849L143.252 90.8518Z" fill="#FAFAFA"/>
<path d="M146.841 90.3423C146.793 90.9967 146.279 91.4711 145.33 91.4008C144.807 91.3832 144.312 91.1645 143.947 90.7903L144.166 90.4828C144.319 90.6474 144.503 90.7802 144.707 90.8737C144.911 90.9671 145.132 91.0194 145.356 91.0275C146.007 91.0758 146.389 90.7991 146.428 90.3115C146.468 89.824 146.152 89.5033 145.418 89.433H145.137L145.159 89.1344L146.354 87.8474L144.337 87.7025L144.364 87.3423L146.894 87.5268V87.8123L145.677 89.13C146.498 89.2354 146.889 89.7098 146.841 90.3423Z" fill="#FAFAFA"/>
<path d="M167.595 51.7026C167.202 52.1017 166.9 52.5803 166.708 53.1062C166.517 53.6321 166.44 54.1929 166.484 54.7509C166.581 55.8672 166.944 56.944 167.542 57.8915" fill="#263238"/>
<path d="M177.184 68.8723L177.781 55.111L172.26 50.9294L167.244 53.3804C167.244 53.3804 167.077 59.679 167.244 62.4111C167.411 65.1431 170.165 65.433 170.165 65.433C170.165 65.433 170.085 66.9396 169.998 68.5077C169.949 69.4501 170.272 70.3738 170.897 71.0809C171.522 71.7879 172.399 72.2218 173.34 72.2895C174.292 72.3559 175.231 72.0415 175.951 71.4155C176.671 70.7894 177.113 69.9031 177.179 68.9513C177.179 68.925 177.184 68.8986 177.184 68.8723Z" fill="#FFBE9D"/>
<path d="M168.139 57.9749C168.139 58.0444 168.16 58.1124 168.199 58.1701C168.237 58.2279 168.292 58.273 168.356 58.2996C168.421 58.3262 168.491 58.3331 168.559 58.3196C168.628 58.306 168.69 58.2725 168.739 58.2234C168.788 58.1742 168.822 58.1116 168.835 58.0435C168.849 57.9753 168.842 57.9047 168.815 57.8405C168.789 57.7762 168.744 57.7214 168.686 57.6828C168.628 57.6441 168.56 57.6235 168.491 57.6235C168.445 57.6235 168.399 57.6326 168.356 57.6503C168.314 57.6679 168.275 57.6938 168.242 57.7265C168.21 57.7591 168.184 57.7978 168.166 57.8405C168.149 57.8831 168.139 57.9288 168.139 57.9749Z" fill="#263238"/>
<path d="M167.454 57.5928C167.498 57.6367 167.757 57.4171 168.131 57.3951C168.504 57.3731 168.789 57.5576 168.829 57.5093C168.869 57.461 168.803 57.4039 168.68 57.316C168.513 57.2076 168.316 57.1567 168.117 57.1711C167.92 57.1804 167.731 57.2562 167.582 57.3863C167.467 57.483 167.432 57.5708 167.454 57.5928Z" fill="#263238"/>
<path d="M172.207 57.9749C172.207 58.0669 172.243 58.1552 172.308 58.2203C172.373 58.2853 172.462 58.3219 172.554 58.3219C172.623 58.3228 172.691 58.303 172.75 58.2651C172.808 58.2272 172.854 58.1729 172.881 58.109C172.908 58.0452 172.916 57.9746 172.904 57.9063C172.891 57.838 172.858 57.7749 172.81 57.7252C172.761 57.6754 172.699 57.6412 172.631 57.6268C172.563 57.6124 172.492 57.6184 172.428 57.6442C172.363 57.67 172.308 57.7144 172.268 57.7717C172.229 57.8289 172.208 57.8966 172.207 57.9661V57.9749Z" fill="#263238"/>
<path d="M171.627 57.5928C171.671 57.6367 171.93 57.4171 172.303 57.3951C172.677 57.3731 172.962 57.5576 173.002 57.5093C173.041 57.461 172.976 57.4039 172.853 57.316C172.685 57.2092 172.488 57.1585 172.29 57.1711C172.092 57.1837 171.903 57.2591 171.75 57.3863C171.64 57.4829 171.605 57.5708 171.627 57.5928Z" fill="#263238"/>
<path d="M171.508 61.1287C170.934 61.4189 170.322 61.6287 169.69 61.7524C169.829 61.941 170.027 62.0783 170.253 62.1426C170.479 62.207 170.719 62.1949 170.937 62.1082C171.037 62.0864 171.13 62.0451 171.213 61.9869C171.297 61.9286 171.367 61.8545 171.422 61.7687C171.476 61.6829 171.513 61.5873 171.53 61.4872C171.547 61.3872 171.544 61.2847 171.522 61.1858L171.508 61.1287Z" fill="#FAFAFA"/>
<path d="M170.165 65.4332C171.463 65.3794 172.718 64.9558 173.784 64.2122C173.784 64.2122 172.962 66.2195 170.226 66.1053L170.165 65.4332Z" fill="#EB996E"/>
<path d="M170.266 60.786C170.064 60.737 169.858 60.7119 169.651 60.7113C169.554 60.7113 169.462 60.7113 169.44 60.6235C169.428 60.5176 169.448 60.4105 169.497 60.316C169.576 60.07 169.664 59.8109 169.752 59.5386C169.932 58.9807 170.085 58.48 170.191 58.111C170.265 57.9165 170.311 57.7124 170.327 57.5049C170.226 57.6855 170.147 57.8771 170.09 58.0759C169.958 58.4361 169.787 58.9544 169.607 59.4902C169.523 59.767 169.44 60.0261 169.361 60.2765C169.308 60.3997 169.295 60.5367 169.326 60.6674C169.339 60.7012 169.36 60.7313 169.388 60.755C169.415 60.7787 169.448 60.7954 169.484 60.8035C169.538 60.8123 169.592 60.8123 169.646 60.8035C169.853 60.8262 170.061 60.8203 170.266 60.786Z" fill="#263238"/>
<path d="M177.377 60.0041C177.334 59.5491 177.384 59.0902 177.526 58.6556C177.597 58.4387 177.725 58.2451 177.898 58.0958C178.071 57.9464 178.281 57.8469 178.506 57.8079C178.766 57.7941 179.022 57.8757 179.227 58.0374C179.432 58.1991 179.57 58.4298 179.617 58.6864C179.649 58.9485 179.602 59.2143 179.481 59.4493C179.361 59.6842 179.172 59.8775 178.94 60.0041C178.706 60.1241 178.448 60.1899 178.185 60.1967C177.922 60.2036 177.661 60.1513 177.421 60.0436" fill="#FFBE9D"/>
<path d="M178.176 59.6045C178.176 59.5737 178.321 59.644 178.514 59.5825C178.635 59.541 178.739 59.4626 178.812 59.3586C178.886 59.2545 178.924 59.13 178.923 59.0027C178.935 58.9386 178.932 58.8726 178.916 58.8095C178.899 58.7465 178.868 58.6879 178.826 58.6381C178.741 58.5734 178.634 58.5421 178.528 58.5503C178.325 58.5503 178.181 58.6206 178.167 58.5898C178.154 58.5591 178.26 58.4624 178.506 58.3922C178.581 58.3745 178.659 58.3733 178.735 58.3884C178.81 58.4036 178.882 58.4348 178.945 58.48C179.017 58.5489 179.071 58.6337 179.104 58.7276C179.137 58.8214 179.147 58.9217 179.134 59.0203C179.122 59.2073 179.052 59.3858 178.932 59.5298C178.827 59.6472 178.684 59.7222 178.528 59.7406C178.277 59.767 178.15 59.622 178.176 59.6045Z" fill="#EB996E"/>
<path d="M167.283 51.9705C166.071 53.477 167.687 54.4258 168.491 55.0451C169.11 55.5283 170.937 56.8021 172.541 56.2003C171.974 55.4404 171.328 55.1066 171.078 54.3819C171.732 55.3043 172.422 56.0027 173.546 56.1388C173.322 55.4844 173.006 54.1535 173.248 54.1008C173.546 56.701 175.984 58.8884 177.662 58.0539C177.976 57.2359 178.093 56.3554 178.003 55.4839C177.913 54.6124 177.618 53.7743 177.144 53.0378C176.657 52.3095 176.024 51.6903 175.285 51.2192C174.547 50.7482 173.718 50.4357 172.852 50.3014C171.858 50.1502 170.843 50.2215 169.88 50.5101C168.917 50.7988 168.03 51.2975 167.283 51.9705Z" fill="#263238"/>
<path d="M178.795 60.2546C178.795 60.2282 179.002 60.4259 178.918 60.7992C178.892 60.9069 178.842 61.0073 178.773 61.0932C178.703 61.1791 178.614 61.2482 178.514 61.2956C178.389 61.3527 178.253 61.3796 178.115 61.3743C177.978 61.3689 177.844 61.3314 177.724 61.2648C177.606 61.1936 177.506 61.0972 177.43 60.9825C177.354 60.8678 177.304 60.7377 177.284 60.6016C177.257 60.3826 177.314 60.1615 177.443 59.9823C177.662 59.6836 177.908 59.6528 177.908 59.6748C177.778 59.788 177.667 59.9215 177.579 60.0701C177.495 60.2226 177.465 60.3993 177.495 60.5708C177.512 60.6722 177.55 60.7689 177.607 60.8544C177.663 60.94 177.738 61.0125 177.825 61.0672C177.914 61.1169 178.013 61.1462 178.115 61.1531C178.216 61.1599 178.318 61.1441 178.413 61.1067C178.491 61.0745 178.562 61.0262 178.62 60.9649C178.679 60.9036 178.723 60.8307 178.751 60.7509C178.799 60.59 178.814 60.4213 178.795 60.2546Z" fill="#399A19"/>
<path d="M159.807 82.884L163.927 82.0274L165.179 88.9586C164.121 92.5112 163.242 96.1145 162.544 99.755L172.207 105.786L173.696 102.957L176.081 105.224L186.364 99.755C185.094 93.1665 181.888 91.4447 181.888 90.3729C181.888 87.2983 181.449 90.2851 184.027 80.0992C186.605 69.9133 177.197 68.8723 177.197 68.8723C177.197 68.8723 177.408 70.2954 169.923 68.9382C167.182 68.4419 156.241 74.1871 156.241 74.1871L159.807 82.884Z" fill="#399A19"/>
<path d="M169.91 68.9382C169.91 68.9382 169.822 76.4755 171.618 75.966C173.415 75.4565 177.034 72.2369 177.183 68.8547L169.91 68.9382Z" fill="#FFBE9D"/>
<path d="M170.367 82.1461C170.345 81.2532 170.397 80.36 170.52 79.4755C170.572 78.5874 170.701 77.7056 170.907 76.8401C170.929 77.7346 170.876 78.6294 170.749 79.515C170.696 80.4013 170.568 81.2815 170.367 82.1461Z" fill="#263238"/>
<path d="M171.513 81.5355C171.381 80.8304 171.324 80.1135 171.342 79.3964C171.286 78.6804 171.305 77.9606 171.399 77.2485C171.53 77.9551 171.588 78.6735 171.57 79.392C171.63 80.1064 171.611 80.8253 171.513 81.5355Z" fill="#263238"/>
<path d="M169.901 82.8839C169.839 82.8839 169.795 82.6907 169.901 82.4755C170.006 82.2602 170.178 82.1636 170.217 82.2119C170.257 82.2602 170.186 82.4008 170.112 82.5677C170.037 82.7346 169.967 82.8883 169.901 82.8839Z" fill="#263238"/>
<path d="M170.147 82.884C170.085 82.884 170.063 82.7258 170.094 82.5545C170.125 82.3832 170.208 82.2603 170.27 82.2734C170.331 82.2866 170.353 82.4316 170.323 82.6029C170.292 82.7742 170.208 82.8971 170.147 82.884Z" fill="#263238"/>
<path d="M170.38 82.8885C170.318 82.8885 170.252 82.7611 170.235 82.5898C170.217 82.4185 170.257 82.2779 170.322 82.2735C170.388 82.2692 170.45 82.4009 170.463 82.5678C170.476 82.7347 170.45 82.8797 170.38 82.8885Z" fill="#263238"/>
<path d="M170.762 83.007C170.696 83.007 170.648 82.7874 170.533 82.5678C170.419 82.3482 170.287 82.1549 170.331 82.1022C170.375 82.0495 170.608 82.1813 170.744 82.4712C170.88 82.761 170.823 83.0114 170.762 83.007Z" fill="#263238"/>
<path d="M171.557 82.212C171.5 82.2339 171.381 82.0451 171.381 81.7727C171.381 81.5004 171.5 81.3335 171.557 81.3335C171.614 81.3335 171.61 81.5399 171.61 81.7727C171.61 82.0055 171.618 82.19 171.557 82.212Z" fill="#263238"/>
<path d="M171.794 82.0889C171.732 82.0889 171.667 81.9483 171.649 81.7638C171.631 81.5794 171.649 81.4212 171.732 81.4168C171.816 81.4125 171.86 81.5574 171.877 81.7419C171.895 81.9264 171.855 82.0845 171.794 82.0889Z" fill="#263238"/>
<path d="M172.167 82.0275C172.119 82.067 171.983 81.9748 171.864 81.821C171.746 81.6673 171.689 81.5136 171.741 81.4784C171.794 81.4433 171.926 81.5311 172.044 81.6805C172.163 81.8298 172.207 81.9879 172.167 82.0275Z" fill="#263238"/>
<path d="M172.29 81.9045C172.233 81.9309 172.123 81.8167 171.983 81.6937C171.842 81.5707 171.719 81.4785 171.741 81.417C171.763 81.3555 171.961 81.3643 172.137 81.5224C172.312 81.6805 172.347 81.8694 172.29 81.9045Z" fill="#263238"/>
<path d="M169.361 69.7683C169.361 69.742 169.492 69.6761 169.646 69.8167C169.709 69.8908 169.741 69.9869 169.733 70.0839C169.726 70.181 169.68 70.2713 169.607 70.335C169.57 70.3673 169.528 70.3921 169.482 70.4077C169.436 70.4232 169.387 70.4294 169.339 70.4257C169.291 70.422 169.243 70.4086 169.2 70.3862C169.157 70.3638 169.119 70.3329 169.088 70.2954C169.067 70.2735 169.049 70.2483 169.036 70.2208C169.015 70.1626 169.009 70.1003 169.017 70.0392C169.025 69.9781 169.048 69.9198 169.084 69.8694C169.211 69.7025 169.365 69.742 169.356 69.7683C169.301 69.8213 169.257 69.8838 169.224 69.9528C169.181 70.0714 169.224 70.2295 169.405 70.2076C169.585 70.1856 169.598 70.0319 169.527 69.9221C169.457 69.8123 169.365 69.8035 169.361 69.7683Z" fill="#263238"/>
<path d="M169.536 71.187C169.497 71.2354 169.374 71.187 169.255 71.1256C169.137 71.0641 169.071 70.9323 169.106 70.8796C169.141 70.8269 169.268 70.8532 169.387 70.9411C169.506 71.0289 169.571 71.1343 169.536 71.187Z" fill="#263238"/>
<path d="M169.65 71.4859C169.703 71.5254 169.651 71.6791 169.475 71.745C169.299 71.8109 169.154 71.745 169.167 71.6791C169.181 71.6133 169.282 71.5781 169.391 71.5342C169.501 71.4903 169.602 71.4463 169.65 71.4859Z" fill="#263238"/>
<path d="M169.659 72.2281C169.708 72.2677 169.659 72.3819 169.593 72.4829C169.527 72.5839 169.4 72.6366 169.352 72.5927C169.303 72.5488 169.33 72.439 169.418 72.338C169.506 72.2369 169.607 72.2062 169.659 72.2281Z" fill="#263238"/>
<path d="M169.47 73.0319C169.47 73.0055 169.646 72.944 169.853 73.1329C169.911 73.1883 169.952 73.2585 169.973 73.336C169.994 73.4134 169.993 73.4951 169.971 73.5721C169.942 73.6737 169.881 73.7632 169.797 73.8279C169.713 73.8926 169.611 73.9291 169.506 73.9323C169.402 73.9246 169.303 73.8837 169.224 73.8158C169.145 73.7478 169.09 73.6562 169.066 73.5546C169.047 73.4698 169.056 73.3811 169.092 73.3018C169.127 73.2226 169.188 73.1571 169.264 73.1153C169.519 72.9748 169.703 73.1153 169.659 73.1373C169.551 73.1486 169.447 73.1863 169.356 73.2471C169.317 73.2754 169.288 73.3152 169.273 73.361C169.258 73.4067 169.258 73.456 169.273 73.5019C169.291 73.5563 169.325 73.6042 169.37 73.6394C169.416 73.6746 169.47 73.6955 169.528 73.6995C169.567 73.6973 169.606 73.6872 169.642 73.6698C169.677 73.6524 169.709 73.6281 169.735 73.5982C169.762 73.5684 169.782 73.5336 169.794 73.4959C169.807 73.4583 169.812 73.4185 169.809 73.3789C169.804 73.3186 169.783 73.2607 169.747 73.212C169.615 73.0846 169.466 73.0846 169.47 73.0319Z" fill="#263238"/>
<path d="M169.962 74.3101C169.993 74.3672 169.896 74.4726 169.791 74.5912C169.686 74.7098 169.598 74.8196 169.536 74.7976C169.475 74.7756 169.484 74.6 169.62 74.4418C169.756 74.2837 169.936 74.253 169.962 74.3101Z" fill="#263238"/>
<path d="M170.208 75.1051C170.266 75.1271 170.257 75.3028 170.121 75.4609C169.984 75.619 169.809 75.6498 169.778 75.5971C169.747 75.5444 169.844 75.4302 169.949 75.3116C170.055 75.193 170.147 75.0832 170.208 75.1051Z" fill="#263238"/>
<path d="M170.34 76.3921C170.279 76.3921 170.213 76.2516 170.199 76.0627C170.186 75.8738 170.199 75.7245 170.283 75.7157C170.366 75.7069 170.41 75.8563 170.423 76.0451C170.437 76.234 170.406 76.3877 170.34 76.3921Z" fill="#263238"/>
<path d="M172.475 76.5985C172.444 76.6512 172.321 76.6424 172.202 76.5985C172.084 76.5546 172.014 76.4316 172.044 76.3745C172.075 76.3174 172.198 76.3305 172.317 76.3745C172.435 76.4184 172.506 76.5194 172.475 76.5985Z" fill="#263238"/>
<path d="M173.217 75.7199C173.261 75.7639 173.186 75.9088 173.055 76.045C172.923 76.1811 172.774 76.2558 172.73 76.2119C172.686 76.1679 172.756 76.023 172.892 75.8868C173.028 75.7507 173.169 75.6804 173.217 75.7199Z" fill="#263238"/>
<path d="M173.823 75.2281C173.823 75.193 173.938 75.1754 174.104 75.1798H174.126L174.157 75.2062C174.196 75.2453 174.225 75.2934 174.241 75.3463C174.257 75.3991 174.26 75.455 174.249 75.5093C174.237 75.5784 174.203 75.6416 174.151 75.6892C174.1 75.7368 174.034 75.7662 173.964 75.7728C173.889 75.7794 173.815 75.7622 173.751 75.7235C173.687 75.6847 173.637 75.6266 173.608 75.5576C173.585 75.5027 173.579 75.4421 173.592 75.384C173.605 75.3258 173.635 75.273 173.678 75.2325C173.823 75.1008 173.959 75.1667 173.942 75.193C173.924 75.2194 173.854 75.2369 173.806 75.3336C173.793 75.3548 173.786 75.3791 173.786 75.4038C173.786 75.4286 173.793 75.4529 173.806 75.4741C173.821 75.4977 173.843 75.5167 173.869 75.5291C173.894 75.5415 173.922 75.5467 173.951 75.5444C174.043 75.5444 174.087 75.3819 174.039 75.3248L174.091 75.3511C173.92 75.3072 173.819 75.2809 173.823 75.2281Z" fill="#263238"/>
<path d="M174.451 75.1095C174.39 75.1095 174.363 74.947 174.399 74.7801C174.434 74.6132 174.513 74.4858 174.574 74.4946C174.636 74.5034 174.658 74.6571 174.623 74.824C174.587 74.9909 174.513 75.1227 174.451 75.1095Z" fill="#263238"/>
<path d="M175.413 74.433C175.391 74.4901 175.246 74.4814 175.093 74.433C174.939 74.3847 174.838 74.2617 174.864 74.2046C174.891 74.1475 175.036 74.1563 175.185 74.2046C175.334 74.253 175.44 74.3759 175.413 74.433Z" fill="#263238"/>
<path d="M175.523 73.5986C175.549 73.5986 175.545 73.6776 175.598 73.7347C175.651 73.7918 175.716 73.805 175.765 73.7347C175.813 73.6645 175.765 73.6118 175.694 73.5854C175.643 73.5716 175.588 73.5716 175.536 73.5854C175.51 73.5854 175.536 73.4624 175.686 73.4317C175.732 73.423 175.78 73.4265 175.825 73.4419C175.869 73.4573 175.909 73.484 175.94 73.5195C175.981 73.5665 176.005 73.6254 176.009 73.6872C176.013 73.749 175.996 73.8104 175.962 73.8621C175.931 73.916 175.884 73.9586 175.827 73.9838C175.77 74.0091 175.707 74.0157 175.646 74.0027C175.6 73.9919 175.558 73.9692 175.524 73.9368C175.49 73.9043 175.466 73.8634 175.453 73.8182C175.409 73.6513 175.501 73.5766 175.523 73.5986Z" fill="#263238"/>
<path d="M176.195 72.9046C176.156 72.8983 176.119 72.8815 176.089 72.8561C176.059 72.8307 176.036 72.7976 176.023 72.7603C176.01 72.7229 176.007 72.6827 176.015 72.644C176.023 72.6052 176.041 72.5693 176.068 72.54C176.112 72.54 176.204 72.584 176.239 72.685C176.274 72.786 176.252 72.887 176.195 72.9046Z" fill="#263238"/>
<path d="M176.823 72.2895C176.793 72.3422 176.67 72.3334 176.551 72.2631C176.432 72.1929 176.362 72.0962 176.397 72.0435C176.432 71.9908 176.547 71.9996 176.665 72.0655C176.784 72.1314 176.854 72.2324 176.823 72.2895Z" fill="#263238"/>
<path d="M177.254 71.3672C177.28 71.4287 177.175 71.5297 177.025 71.5956C176.876 71.6615 176.727 71.6703 176.7 71.5956C176.674 71.521 176.779 71.4375 176.929 71.3716C176.978 71.3432 177.034 71.3279 177.091 71.3272C177.148 71.3264 177.204 71.3402 177.254 71.3672Z" fill="#263238"/>
<path d="M177.451 70.2648C177.451 70.2428 177.535 70.1594 177.684 70.2384C177.728 70.2625 177.764 70.2974 177.79 70.3397C177.817 70.382 177.831 70.4303 177.833 70.48C177.833 70.5447 177.814 70.6078 177.777 70.6611C177.74 70.7144 177.689 70.7553 177.628 70.7786C177.568 70.8019 177.502 70.8064 177.439 70.7915C177.376 70.7766 177.319 70.7431 177.276 70.6952C177.244 70.6567 177.222 70.6105 177.214 70.5611C177.205 70.5118 177.21 70.4611 177.227 70.4141C177.284 70.2604 177.407 70.2516 177.412 70.2823C177.416 70.3131 177.377 70.3614 177.385 70.4449C177.394 70.5283 177.447 70.603 177.544 70.5679C177.64 70.5327 177.64 70.4449 177.583 70.3702C177.526 70.2955 177.478 70.2955 177.451 70.2648Z" fill="#263238"/>
<path d="M178.053 69.3029C178.053 69.3644 177.956 69.4434 177.803 69.4786C177.649 69.5137 177.517 69.4786 177.504 69.4303C177.491 69.3819 177.601 69.2897 177.754 69.2546C177.908 69.2194 178.04 69.2414 178.053 69.3029Z" fill="#263238"/>
<path d="M177.438 68.9821L177.68 68.7976L177.438 68.9821Z" fill="#263238"/>
<path d="M157.488 75.2458C157.431 75.2458 157.409 75.1184 157.449 75.0042C157.488 74.89 157.563 74.8153 157.62 74.8329C157.677 74.8504 157.699 74.9603 157.664 75.0745C157.629 75.1887 157.55 75.2809 157.488 75.2458Z" fill="#263238"/>
<path d="M158.015 75.8825C158.015 75.8561 158.094 75.7727 158.252 75.8429C158.307 75.8671 158.353 75.9065 158.385 75.9564C158.418 76.0063 158.435 76.0645 158.435 76.124C158.435 76.1836 158.418 76.2418 158.385 76.2917C158.353 76.3416 158.307 76.381 158.252 76.4052C158.194 76.4371 158.127 76.45 158.061 76.4421C157.995 76.4342 157.933 76.406 157.883 76.3612C157.847 76.3259 157.82 76.2822 157.805 76.2339C157.789 76.1856 157.786 76.1343 157.795 76.0845C157.826 75.9132 157.954 75.8869 157.962 75.9132C157.971 75.9396 157.936 76.0011 157.962 76.0889C157.989 76.1768 158.05 76.2558 158.16 76.2031C158.27 76.1504 158.248 76.0538 158.16 75.9791C158.072 75.9044 158.028 75.9132 158.015 75.8825Z" fill="#263238"/>
<path d="M158.669 77.3188C158.643 77.3759 158.507 77.3759 158.362 77.3188C158.217 77.2617 158.125 77.1651 158.147 77.108C158.169 77.0509 158.309 77.0509 158.454 77.108C158.599 77.1651 158.691 77.2617 158.669 77.3188Z" fill="#263238"/>
<path d="M158.832 78.1973C158.81 78.2588 158.705 78.2764 158.591 78.2412C158.476 78.2061 158.402 78.127 158.419 78.0655C158.437 78.004 158.547 77.9865 158.661 78.026C158.775 78.0655 158.85 78.1402 158.832 78.1973Z" fill="#263238"/>
<path d="M159.1 78.7947C159.153 78.8254 159.139 78.9528 159.065 79.0758C158.99 79.1988 158.889 79.2778 158.836 79.2427C158.784 79.2076 158.797 79.0846 158.867 78.9616C158.888 78.9157 158.92 78.8761 158.961 78.8468C159.002 78.8175 159.05 78.7995 159.1 78.7947Z" fill="#263238"/>
<path d="M159.258 79.4052C159.228 79.4052 159.333 79.2427 159.557 79.3042C159.621 79.3219 159.68 79.3552 159.728 79.4012C159.777 79.4472 159.813 79.5044 159.834 79.5677C159.859 79.6563 159.849 79.7511 159.807 79.8328C159.764 79.9145 159.692 79.9768 159.605 80.007C159.526 80.0387 159.44 80.0469 159.357 80.0305C159.273 80.0142 159.196 79.9739 159.135 79.9147C159.086 79.858 159.059 79.7855 159.059 79.7105C159.059 79.6354 159.086 79.5629 159.135 79.5062C159.171 79.4703 159.22 79.4501 159.271 79.4501C159.322 79.4501 159.371 79.4703 159.408 79.5062C159.456 79.5633 159.434 79.6073 159.408 79.6073C159.395 79.6087 159.383 79.607 159.371 79.6024C159.36 79.5978 159.35 79.5904 159.342 79.5809C159.333 79.5758 159.324 79.5726 159.314 79.5716C159.304 79.5707 159.294 79.5719 159.285 79.5753C159.276 79.5786 159.267 79.5841 159.26 79.5911C159.253 79.5982 159.248 79.6067 159.245 79.616C159.234 79.6432 159.233 79.6731 159.24 79.7014C159.247 79.7298 159.262 79.7552 159.285 79.7742C159.318 79.7979 159.357 79.8128 159.398 79.8174C159.438 79.8221 159.48 79.8162 159.517 79.8005C159.697 79.7346 159.623 79.5326 159.491 79.4667C159.359 79.4008 159.28 79.4316 159.258 79.4052Z" fill="#263238"/>
<path d="M159.908 80.5515C159.952 80.5954 159.908 80.6965 159.829 80.7755C159.75 80.8546 159.64 80.8722 159.597 80.8282C159.553 80.7843 159.597 80.6789 159.676 80.6042C159.755 80.5296 159.851 80.4944 159.908 80.5515Z" fill="#263238"/>
<path d="M160.145 81.3072C160.194 81.3511 160.145 81.4609 160.071 81.5532C159.996 81.6454 159.873 81.6893 159.825 81.6454C159.776 81.6015 159.825 81.4917 159.904 81.3994C159.983 81.3072 160.101 81.2633 160.145 81.3072Z" fill="#263238"/>
<path d="M164.63 100.866C164.577 100.897 164.459 100.796 164.375 100.638C164.292 100.48 164.261 100.33 164.314 100.3C164.367 100.269 164.485 100.37 164.573 100.528C164.661 100.686 164.687 100.836 164.63 100.866Z" fill="#263238"/>
<path d="M165.012 100.866C164.955 100.893 164.85 100.787 164.779 100.629C164.709 100.471 164.7 100.326 164.779 100.3C164.859 100.273 164.942 100.379 165.012 100.537C165.083 100.695 165.069 100.84 165.012 100.866Z" fill="#263238"/>
<path d="M165.552 101.152V101.292C165.552 101.358 165.618 101.385 165.68 101.35C165.741 101.314 165.737 101.266 165.68 101.209C165.623 101.152 165.579 101.161 165.561 101.13C165.544 101.099 165.614 101.02 165.755 101.064C165.82 101.085 165.874 101.131 165.906 101.192C165.938 101.252 165.945 101.323 165.926 101.389C165.904 101.456 165.856 101.511 165.794 101.543C165.747 101.577 165.69 101.596 165.632 101.596C165.573 101.596 165.516 101.577 165.469 101.543C165.437 101.513 165.412 101.476 165.398 101.435C165.383 101.393 165.379 101.349 165.386 101.306C165.434 101.143 165.544 101.121 165.552 101.152Z" fill="#263238"/>
<path d="M166.905 101.437C166.945 101.486 166.861 101.613 166.721 101.718C166.58 101.824 166.44 101.868 166.4 101.815C166.361 101.762 166.444 101.639 166.585 101.534C166.725 101.429 166.87 101.385 166.905 101.437Z" fill="#263238"/>
<path d="M167.349 101.877C167.375 101.934 167.314 102.022 167.213 102.074C167.112 102.127 166.998 102.123 166.971 102.074C166.945 102.026 167.002 101.929 167.107 101.877C167.213 101.824 167.323 101.824 167.349 101.877Z" fill="#263238"/>
<path d="M167.973 102.575C167.907 102.575 167.845 102.492 167.823 102.369C167.801 102.246 167.845 102.14 167.907 102.131C167.968 102.123 168.034 102.215 168.052 102.338C168.069 102.461 168.034 102.566 167.973 102.575Z" fill="#263238"/>
<path d="M168.978 102.562C168.964 102.618 168.964 102.677 168.978 102.733C169.005 102.821 169.062 102.882 169.158 102.825C169.255 102.768 169.229 102.685 169.158 102.623C169.088 102.562 169.018 102.579 169 102.553C168.983 102.527 169.053 102.43 169.22 102.474C169.269 102.487 169.313 102.513 169.349 102.548C169.385 102.584 169.412 102.628 169.426 102.676C169.445 102.759 169.43 102.845 169.384 102.917C169.339 102.988 169.267 103.039 169.185 103.058C169.138 103.069 169.089 103.07 169.042 103.059C168.994 103.048 168.95 103.027 168.913 102.997C168.875 102.963 168.848 102.92 168.831 102.872C168.815 102.825 168.811 102.774 168.82 102.724C168.842 102.553 168.97 102.513 168.978 102.562Z" fill="#263238"/>
<path d="M170.173 103.023C170.217 103.071 170.151 103.194 170.028 103.3C169.905 103.405 169.773 103.453 169.734 103.405C169.694 103.357 169.756 103.234 169.879 103.128C170.002 103.023 170.134 102.975 170.173 103.023Z" fill="#263238"/>
<path d="M170.964 103.493C171.008 103.537 170.937 103.673 170.775 103.748C170.612 103.822 170.459 103.783 170.454 103.717C170.45 103.651 170.555 103.594 170.678 103.537C170.801 103.48 170.915 103.445 170.964 103.493Z" fill="#263238"/>
<path d="M171.561 104.35C171.5 104.372 171.421 104.301 171.385 104.196C171.35 104.09 171.385 103.989 171.429 103.972C171.473 103.954 171.57 104.02 171.605 104.126C171.64 104.231 171.618 104.332 171.561 104.35Z" fill="#263238"/>
<path d="M172.238 103.945C172.211 103.945 172.264 103.814 172.431 103.822C172.491 103.826 172.548 103.849 172.593 103.887C172.638 103.926 172.67 103.979 172.682 104.037C172.695 104.096 172.688 104.157 172.662 104.211C172.636 104.265 172.594 104.309 172.541 104.336C172.484 104.375 172.415 104.391 172.347 104.382C172.279 104.373 172.217 104.34 172.172 104.288C172.142 104.247 172.124 104.197 172.12 104.146C172.116 104.095 172.126 104.044 172.15 103.998C172.233 103.849 172.374 103.88 172.361 103.91C172.329 103.953 172.31 104.003 172.304 104.055C172.304 104.134 172.339 104.187 172.422 104.139C172.506 104.09 172.475 104.029 172.396 103.981C172.317 103.932 172.264 103.967 172.238 103.945Z" fill="#263238"/>
<path d="M172.87 103.33C172.817 103.366 172.725 103.33 172.664 103.238C172.602 103.146 172.598 103.049 172.664 103.014C172.73 102.979 172.809 103.014 172.87 103.106C172.932 103.199 172.923 103.295 172.87 103.33Z" fill="#263238"/>
<path d="M173.182 102.825C173.138 102.869 173.046 102.852 172.976 102.781C172.905 102.711 172.883 102.619 172.927 102.575C172.971 102.531 173.068 102.549 173.138 102.619C173.208 102.689 173.226 102.781 173.182 102.825Z" fill="#263238"/>
<path d="M173.525 101.859C173.494 101.859 173.56 101.74 173.696 101.789C173.736 101.803 173.772 101.829 173.797 101.864C173.823 101.898 173.838 101.939 173.841 101.982C173.835 102.05 173.803 102.113 173.751 102.157C173.699 102.202 173.632 102.224 173.564 102.219C173.525 102.217 173.486 102.206 173.452 102.186C173.417 102.166 173.388 102.138 173.367 102.105C173.347 102.071 173.337 102.032 173.337 101.993C173.337 101.954 173.347 101.915 173.367 101.881C173.419 101.767 173.516 101.762 173.525 101.789C173.529 101.832 173.529 101.877 173.525 101.92C173.525 101.933 173.528 101.945 173.533 101.957C173.539 101.968 173.546 101.978 173.555 101.986H173.643V101.938C173.643 101.938 173.56 101.881 173.525 101.859Z" fill="#263238"/>
<path d="M174.227 102.575C174.195 102.561 174.169 102.536 174.155 102.504C174.14 102.473 174.138 102.437 174.148 102.404C174.15 102.387 174.155 102.37 174.163 102.356C174.171 102.341 174.182 102.328 174.195 102.317C174.208 102.306 174.223 102.299 174.239 102.294C174.255 102.289 174.272 102.287 174.289 102.289C174.321 102.302 174.346 102.326 174.361 102.357C174.376 102.388 174.378 102.424 174.368 102.456C174.363 102.49 174.345 102.52 174.32 102.542C174.294 102.563 174.261 102.575 174.227 102.575Z" fill="#263238"/>
<path d="M174.548 102.953C174.524 102.928 174.506 102.898 174.497 102.865C174.488 102.832 174.487 102.797 174.495 102.764C174.495 102.729 174.506 102.695 174.527 102.666C174.547 102.638 174.576 102.617 174.609 102.606C174.671 102.606 174.746 102.68 174.724 102.803C174.702 102.926 174.596 102.992 174.548 102.953Z" fill="#263238"/>
<path d="M174.992 103.462C174.968 103.489 174.937 103.508 174.903 103.517C174.868 103.526 174.832 103.526 174.798 103.515C174.763 103.515 174.728 103.503 174.7 103.482C174.671 103.46 174.65 103.43 174.64 103.396C174.64 103.335 174.719 103.265 174.842 103.287C174.965 103.309 175.022 103.392 174.992 103.462Z" fill="#263238"/>
<path d="M175.352 103.893C175.33 103.871 175.387 103.783 175.523 103.805C175.565 103.814 175.604 103.833 175.637 103.86C175.67 103.888 175.696 103.923 175.712 103.963C175.731 104.03 175.723 104.102 175.689 104.163C175.655 104.223 175.599 104.269 175.532 104.288C175.487 104.301 175.439 104.301 175.394 104.29C175.348 104.278 175.306 104.255 175.273 104.222C175.247 104.185 175.234 104.142 175.234 104.097C175.234 104.052 175.247 104.008 175.273 103.972C175.343 103.84 175.466 103.875 175.453 103.906C175.431 103.941 175.42 103.983 175.422 104.024C175.422 104.081 175.422 104.081 175.449 104.081H175.492C175.536 104.081 175.523 104.055 175.528 104.042C175.523 104.016 175.509 103.992 175.488 103.976C175.422 103.919 175.369 103.919 175.352 103.893Z" fill="#263238"/>
<path d="M175.914 104.762C175.881 104.753 175.853 104.732 175.835 104.702C175.817 104.673 175.811 104.638 175.817 104.604C175.817 104.587 175.82 104.571 175.826 104.555C175.832 104.539 175.841 104.525 175.853 104.513C175.865 104.501 175.88 104.492 175.895 104.485C175.911 104.479 175.928 104.476 175.945 104.477C175.961 104.48 175.977 104.486 175.991 104.496C176.005 104.505 176.017 104.517 176.026 104.531C176.036 104.544 176.042 104.56 176.046 104.576C176.049 104.593 176.049 104.61 176.046 104.626C176.045 104.661 176.031 104.695 176.006 104.72C175.982 104.745 175.949 104.76 175.914 104.762Z" fill="#263238"/>
<path d="M176.766 104.31C176.766 104.371 176.643 104.402 176.52 104.371C176.397 104.341 176.309 104.27 176.323 104.209C176.336 104.147 176.45 104.121 176.573 104.147C176.696 104.174 176.779 104.27 176.766 104.31Z" fill="#263238"/>
<path d="M177.087 104.156C177.052 104.152 177.019 104.135 176.996 104.108C176.972 104.081 176.959 104.047 176.959 104.011C176.959 103.924 176.995 103.844 177.06 103.84C177.126 103.836 177.179 103.902 177.188 103.989C177.197 104.077 177.153 104.152 177.087 104.156Z" fill="#263238"/>
<path d="M177.684 103.682C177.623 103.682 177.57 103.611 177.57 103.524C177.57 103.436 177.623 103.365 177.684 103.365C177.746 103.365 177.798 103.436 177.798 103.524C177.798 103.611 177.75 103.682 177.684 103.682Z" fill="#263238"/>
<path d="M178.145 103.036C178.145 103.014 178.224 102.926 178.369 103.014C178.412 103.04 178.446 103.078 178.467 103.124C178.488 103.169 178.495 103.219 178.488 103.269C178.476 103.335 178.44 103.395 178.386 103.435C178.332 103.476 178.265 103.495 178.198 103.489C178.138 103.494 178.078 103.477 178.028 103.442C177.979 103.407 177.944 103.356 177.929 103.297C177.915 103.238 177.921 103.176 177.948 103.122C177.974 103.068 178.02 103.025 178.075 103.001C178.224 102.926 178.317 103.027 178.29 103.049C178.264 103.071 178.211 103.049 178.167 103.133C178.156 103.145 178.147 103.16 178.142 103.176C178.137 103.191 178.135 103.208 178.136 103.225C178.155 103.245 178.18 103.257 178.207 103.26C178.251 103.26 178.273 103.26 178.281 103.229C178.286 103.199 178.286 103.168 178.281 103.137C178.281 103.106 178.158 103.062 178.145 103.036Z" fill="#263238"/>
<path d="M179.336 102.667C179.287 102.715 179.204 102.702 179.12 102.693C179.037 102.685 178.949 102.658 178.923 102.601C178.896 102.544 178.993 102.439 179.156 102.465C179.318 102.491 179.38 102.628 179.336 102.667Z" fill="#263238"/>
<path d="M179.937 102.351C179.907 102.408 179.784 102.404 179.652 102.382C179.52 102.36 179.406 102.32 179.397 102.254C179.388 102.188 179.525 102.123 179.691 102.153C179.858 102.184 179.968 102.298 179.937 102.351Z" fill="#263238"/>
<path d="M180.28 102.074C180.219 102.074 180.175 101.991 180.179 101.903C180.183 101.815 180.245 101.749 180.311 101.758C180.377 101.767 180.416 101.837 180.407 101.925C180.408 101.961 180.395 101.996 180.372 102.023C180.348 102.051 180.316 102.069 180.28 102.074Z" fill="#263238"/>
<path d="M180.798 101.262C180.776 101.262 180.842 101.143 181 101.174C181.049 101.186 181.093 101.213 181.127 101.251C181.16 101.288 181.182 101.335 181.189 101.385C181.198 101.449 181.185 101.514 181.152 101.569C181.119 101.625 181.069 101.668 181.009 101.692C180.946 101.712 180.878 101.708 180.817 101.683C180.756 101.657 180.706 101.611 180.675 101.552C180.65 101.504 180.642 101.45 180.653 101.397C180.664 101.345 180.694 101.298 180.737 101.266C180.877 101.165 180.978 101.266 180.957 101.266C180.935 101.266 180.882 101.306 180.851 101.367C180.82 101.429 180.851 101.42 180.851 101.433C180.86 101.443 180.871 101.451 180.883 101.456C180.895 101.462 180.908 101.464 180.921 101.464C180.934 101.455 180.945 101.444 180.953 101.431C180.962 101.419 180.967 101.404 180.97 101.389C180.971 101.375 180.968 101.36 180.962 101.347C180.956 101.334 180.946 101.323 180.935 101.314C180.886 101.279 180.816 101.288 180.798 101.262Z" fill="#263238"/>
<path d="M181.55 101.24C181.516 101.225 181.489 101.199 181.474 101.165C181.458 101.132 181.456 101.095 181.466 101.06C181.466 101.041 181.47 101.022 181.477 101.005C181.485 100.988 181.495 100.973 181.509 100.96C181.523 100.947 181.539 100.937 181.556 100.931C181.574 100.925 181.592 100.922 181.611 100.923C181.673 100.923 181.708 101.016 181.69 101.103C181.673 101.191 181.611 101.253 181.55 101.24Z" fill="#263238"/>
<path d="M182.186 100.704C182.153 100.694 182.125 100.673 182.107 100.644C182.089 100.614 182.083 100.579 182.09 100.546C182.087 100.53 182.088 100.515 182.092 100.499C182.095 100.484 182.102 100.47 182.112 100.458C182.121 100.446 182.133 100.435 182.147 100.428C182.16 100.42 182.175 100.415 182.191 100.414C182.206 100.411 182.222 100.412 182.238 100.416C182.253 100.42 182.267 100.426 182.28 100.436C182.293 100.445 182.303 100.457 182.311 100.471C182.319 100.484 182.325 100.499 182.327 100.515C182.331 100.534 182.331 100.553 182.327 100.572C182.325 100.608 182.309 100.641 182.283 100.666C182.257 100.69 182.222 100.704 182.186 100.704Z" fill="#263238"/>
<path d="M183.082 100.185C183.047 100.238 182.938 100.229 182.823 100.185C182.709 100.141 182.608 100.12 182.599 100.054C182.591 99.9877 182.718 99.9263 182.876 99.9614C183.034 99.9965 183.118 100.133 183.082 100.185Z" fill="#263238"/>
<path d="M183.513 99.8781C183.456 99.9045 183.368 99.821 183.403 99.7068C183.438 99.5926 183.552 99.5707 183.588 99.6234C183.602 99.645 183.613 99.6693 183.618 99.695C183.623 99.7206 183.623 99.747 183.618 99.7727C183.609 99.7968 183.595 99.8187 183.577 99.8368C183.559 99.855 183.537 99.8691 183.513 99.8781Z" fill="#263238"/>
<path d="M184.031 99.373C183.998 99.3637 183.97 99.3422 183.952 99.3129C183.934 99.2836 183.928 99.2485 183.935 99.2148C183.935 99.1977 183.938 99.1808 183.945 99.1651C183.951 99.1493 183.961 99.1351 183.973 99.1232C183.986 99.1113 184 99.102 184.016 99.0959C184.032 99.0897 184.049 99.0869 184.066 99.0875C184.099 99.0958 184.127 99.1164 184.145 99.145C184.163 99.1736 184.17 99.2081 184.163 99.2412C184.161 99.2755 184.146 99.3078 184.122 99.3321C184.098 99.3563 184.065 99.3709 184.031 99.373Z" fill="#263238"/>
<path d="M177.697 76.0406L174.785 78.9704L181.839 85.9059C181.839 85.9059 183.276 81.7244 184.277 78.0436C184.984 75.4433 177.697 76.0406 177.697 76.0406Z" fill="#399A19"/>
<path d="M176.56 79.2339C176.498 79.2339 176.432 79.1066 176.415 78.9397C176.397 78.7727 176.437 78.6278 176.498 78.6234C176.56 78.619 176.626 78.7464 176.643 78.9177C176.661 79.089 176.621 79.2339 176.56 79.2339Z" fill="#263238"/>
<path d="M177.232 79.3701C177.232 79.4316 177.122 79.4843 176.986 79.4843C176.85 79.4843 176.744 79.4316 176.744 79.3701C176.744 79.3086 176.854 79.2559 176.986 79.2559C177.117 79.2559 177.232 79.3042 177.232 79.3701Z" fill="#263238"/>
<path d="M177.416 80.3453C177.359 80.3101 177.364 80.2091 177.364 80.0993C177.364 79.9895 177.364 79.8929 177.416 79.8577C177.469 79.8226 177.592 79.9192 177.592 80.0993C177.592 80.2794 177.478 80.3848 177.416 80.3453Z" fill="#263238"/>
<path d="M177.996 80.4418C177.97 80.4418 178.071 80.3012 178.26 80.3627C178.317 80.3811 178.368 80.4143 178.408 80.4591C178.449 80.5039 178.476 80.5585 178.488 80.6175C178.497 80.6972 178.477 80.7774 178.433 80.8442C178.389 80.911 178.323 80.9602 178.246 80.9832C178.169 81.0061 178.087 81.0015 178.013 80.97C177.939 80.9385 177.879 80.8821 177.842 80.8108C177.822 80.752 177.82 80.6886 177.835 80.6284C177.851 80.5683 177.884 80.514 177.93 80.4725C177.958 80.4454 177.991 80.4249 178.027 80.4127C178.064 80.4005 178.103 80.397 178.141 80.4023C178.198 80.4023 178.216 80.4462 178.207 80.455C178.143 80.4777 178.089 80.521 178.053 80.578C177.996 80.6746 178.027 80.802 178.181 80.7624C178.334 80.7229 178.295 80.5824 178.181 80.5121C178.066 80.4418 178.014 80.4681 177.996 80.4418Z" fill="#263238"/>
<path d="M178.756 81.6276C178.699 81.6276 178.677 81.5091 178.708 81.408C178.738 81.307 178.817 81.2411 178.879 81.2587C178.94 81.2763 178.962 81.3773 178.927 81.4783C178.892 81.5793 178.817 81.6452 178.756 81.6276Z" fill="#263238"/>
<path d="M179.415 81.5004C179.476 81.5004 179.498 81.6848 179.463 81.8869C179.428 82.0889 179.349 82.2471 179.287 82.2339C179.226 82.2207 179.204 82.0494 179.239 81.8474C179.274 81.6453 179.353 81.4916 179.415 81.5004Z" fill="#263238"/>
<path d="M180.113 82.3087C180.113 82.3702 180.003 82.436 179.85 82.4536C179.696 82.4712 179.573 82.4316 179.564 82.3702C179.555 82.3087 179.674 82.2428 179.828 82.2252C179.981 82.2076 180.113 82.234 180.113 82.3087Z" fill="#263238"/>
<path d="M180.399 82.6424C180.399 82.616 180.491 82.5458 180.658 82.616C180.709 82.6375 180.754 82.6706 180.789 82.7125C180.825 82.7544 180.851 82.8041 180.864 82.8576C180.879 82.931 180.87 83.0072 180.837 83.0746C180.805 83.142 180.751 83.197 180.684 83.231C180.616 83.2716 180.535 83.2847 180.457 83.2676C180.38 83.2504 180.312 83.2043 180.267 83.1387C180.238 83.0835 180.229 83.0203 180.24 82.9591C180.251 82.8979 180.282 82.8421 180.328 82.8005C180.357 82.771 180.393 82.7503 180.433 82.7409C180.472 82.7315 180.514 82.7339 180.552 82.7478C180.605 82.7698 180.614 82.8005 180.605 82.8093C180.574 82.813 180.545 82.8247 180.521 82.8432C180.496 82.8617 180.477 82.8864 180.465 82.9147C180.416 83.0201 180.465 83.0904 180.592 83.0377C180.719 82.985 180.675 82.8444 180.592 82.7654C180.508 82.6863 180.403 82.6775 180.399 82.6424Z" fill="#263238"/>
<path d="M181.137 84.193C181.075 84.193 181.022 84.0261 181.022 83.824C181.022 83.622 181.075 83.4595 181.137 83.4595C181.198 83.4595 181.251 83.622 181.251 83.824C181.251 84.0261 181.203 84.193 181.137 84.193Z" fill="#263238"/>
<path d="M180.074 73.0364C179.907 73.3788 179.695 73.6966 179.441 73.9807C179.002 74.5342 178.396 75.2984 177.684 76.0759C176.973 76.8533 176.323 77.5869 175.844 78.0964C175.599 78.3849 175.326 78.6497 175.031 78.887C175.231 78.5647 175.462 78.2631 175.721 77.9866C176.16 77.4551 176.81 76.726 177.513 75.9266L179.314 73.8753C179.547 73.5783 179.801 73.2979 180.074 73.0364Z" fill="#263238"/>
<path d="M185.006 99.3201C185.006 99.3816 184.874 99.4036 184.743 99.3728C184.611 99.3421 184.519 99.263 184.532 99.2015C184.545 99.14 184.668 99.1181 184.795 99.1488C184.923 99.1796 185.019 99.2586 185.006 99.3201Z" fill="#263238"/>
<path d="M185.34 98.7844C185.34 98.7624 185.366 98.6921 185.494 98.6833C185.535 98.6838 185.576 98.6965 185.61 98.72C185.645 98.7434 185.671 98.7765 185.687 98.8151C185.7 98.8392 185.707 98.8657 185.71 98.8928C185.712 98.92 185.709 98.9473 185.7 98.9732C185.691 98.999 185.678 99.0228 185.66 99.0432C185.641 99.0636 185.619 99.0802 185.595 99.0918H185.551C185.331 99.1489 185.142 98.9337 185.239 98.7668C185.253 98.7416 185.275 98.7214 185.3 98.7088C185.326 98.6963 185.356 98.692 185.384 98.6965C185.391 98.6961 185.397 98.6974 185.403 98.7001C185.409 98.7029 185.414 98.7071 185.418 98.7123C185.422 98.7175 185.424 98.7236 185.425 98.7301C185.426 98.7365 185.426 98.7431 185.424 98.7492C185.41 98.7591 185.399 98.7725 185.392 98.7879C185.385 98.8033 185.382 98.8203 185.384 98.8371C185.384 98.8371 185.45 98.8854 185.489 98.8722C185.491 98.863 185.489 98.8535 185.484 98.8454C185.479 98.8374 185.472 98.8313 185.463 98.8283C185.415 98.8151 185.353 98.8151 185.34 98.7844Z" fill="#263238"/>
<path d="M147.957 83.2133C147.706 82.3831 144.557 80.6789 145.031 80.2177C145.646 79.6116 148.238 82.1416 148.47 82.3392C148.703 82.5369 148.989 82.1987 148.769 82.0318C148.453 81.7902 145.176 79.1899 145.778 78.5925C146.112 78.2587 146.656 78.9307 146.656 78.9307C146.656 78.9307 149.547 81.5969 149.823 81.3026C150.1 81.0083 148.453 79.3832 147.86 78.878C147.267 78.3729 147.271 77.8854 147.702 77.8063C147.992 77.7492 149.845 79.2602 150.416 79.7785C150.987 80.2968 152.547 81.7375 152.34 80.389V80.3275C152.103 79.0098 152.34 77.9073 152.648 77.6438C152.712 77.579 152.796 77.5361 152.886 77.5209C152.976 77.5058 153.069 77.5193 153.151 77.5594C153.233 77.5996 153.301 77.6644 153.345 77.7449C153.388 77.8254 153.406 77.9175 153.394 78.0083C153.407 78.0736 153.407 78.1408 153.394 78.206V78.3026C153.381 78.7628 153.412 79.2232 153.487 79.6774C153.547 80.0857 153.676 80.4807 153.869 80.8458C154.093 81.2851 154.308 81.6189 154.484 81.9132C156.588 83.0727 162.645 86.1342 168.711 86.5998C169.809 86.6833 175.365 79.4974 175.365 79.4974L180.816 84.8517C180.078 86.1123 179.819 86.4022 176.116 91.4666C170.077 99.7286 151.08 86.0464 151.08 86.0464L150.904 85.9585C149.461 85.2542 148.059 84.4682 146.705 83.6042C145.071 82.4578 145.167 82.3085 145.33 82.1328C145.699 81.6716 148.211 84.0654 147.957 83.2133Z" fill="#FFBE9D"/>
</svg>
