<svg width="42" height="42" viewBox="0 0 42 42" fill="none" xmlns="http://www.w3.org/2000/svg">
<rect width="42" height="42" rx="21" fill="#07956A"/>
<path d="M13.3563 12.3425C12.8222 12.3425 12.31 12.5547 11.9324 12.9324C11.5547 13.31 11.3425 13.8222 11.3425 14.3563V23.754C11.3425 24.2881 11.5547 24.8003 11.9324 25.178C12.31 25.5557 12.8222 25.7678 13.3563 25.7678H15.8176V30.0603C15.8176 30.242 16.0235 30.3485 16.1721 30.2411L22.3728 25.7678H28.1241C28.6582 25.7678 29.1705 25.5557 29.5481 25.178C29.9258 24.8003 30.1379 24.2881 30.1379 23.754V14.3563C30.1379 13.8222 29.9258 13.31 29.5481 12.9324C29.1705 12.5547 28.6582 12.3425 28.1241 12.3425H13.3563ZM10 14.3563C10 13.4662 10.3536 12.6125 10.983 11.983C11.6125 11.3536 12.4662 11 13.3563 11H28.1241C29.0143 11 29.868 11.3536 30.4974 11.983C31.1269 12.6125 31.4805 13.4662 31.4805 14.3563V23.754C31.4805 24.6442 31.1269 25.4979 30.4974 26.1273C29.868 26.7567 29.0143 27.1104 28.1241 27.1104H22.8068L16.9579 31.3304C15.9214 32.0777 14.4751 31.3375 14.4751 30.0594V27.1104H13.3563C12.4662 27.1104 11.6125 26.7567 10.983 26.1273C10.3536 25.4979 10 24.6442 10 23.754V14.3563Z" fill="white"/>
</svg>
