<svg width="74" height="74" viewBox="0 0 74 74" fill="none" xmlns="http://www.w3.org/2000/svg">
<rect x="10" y="9.97888" width="54.0422" height="54.0422" rx="27.0211" fill="#054834"/>
<path fill-rule="evenodd" clip-rule="evenodd" d="M33.7672 22.8603C33.5234 23.0808 33.2673 23.2873 33 23.4787C32.5381 23.7887 32.0188 24.0026 31.4732 24.1111C31.2361 24.1576 30.9881 24.1778 30.4936 24.2165C29.2521 24.3157 28.6305 24.3653 28.1128 24.5482C27.5209 24.7572 26.9832 25.0961 26.5393 25.54C26.0954 25.9839 25.7566 26.5215 25.5476 27.1135C25.3647 27.6312 25.3151 28.2527 25.2159 29.4943C25.199 29.8225 25.1638 30.1495 25.1105 30.4739C25.002 31.0195 24.7881 31.5387 24.4781 32.0006C24.3432 32.2021 24.182 32.3912 23.8596 32.7679C23.0521 33.7165 22.6475 34.1908 22.4104 34.6868C21.8632 35.8338 21.8632 37.1668 22.4104 38.3138C22.6475 38.8098 23.0521 39.2841 23.8596 40.2327C24.182 40.6093 24.3432 40.7984 24.4781 40.9999C24.7881 41.4618 25.002 41.9811 25.1105 42.5267C25.157 42.7638 25.1771 43.0118 25.2159 43.5063C25.3151 44.7478 25.3647 45.3694 25.5476 45.8871C25.7566 46.479 26.0954 47.0167 26.5393 47.4605C26.9832 47.9044 27.5209 48.2433 28.1128 48.4523C28.6305 48.6352 29.2521 48.6848 30.4936 48.784C30.9881 48.8228 31.2361 48.8429 31.4732 48.8894C32.0188 48.9979 32.5381 49.2134 33 49.5218C33.2015 49.6567 33.3906 49.8179 33.7672 50.1403C34.7158 50.9478 35.1901 51.3524 35.6861 51.5895C36.8331 52.1367 38.1661 52.1367 39.3131 51.5895C39.8091 51.3524 40.2834 50.9478 41.232 50.1403C41.6087 49.8179 41.7978 49.6567 41.9993 49.5218C42.4612 49.2118 42.9804 48.9979 43.526 48.8894C43.7632 48.8429 44.0112 48.8228 44.5056 48.784C45.7472 48.6848 46.3687 48.6352 46.8864 48.4523C47.4784 48.2433 48.016 47.9044 48.4599 47.4605C48.9038 47.0167 49.2427 46.479 49.4517 45.8871C49.6346 45.3694 49.6842 44.7478 49.7834 43.5063C49.8221 43.0118 49.8423 42.7638 49.8888 42.5267C49.9973 41.9811 50.2127 41.4618 50.5212 40.9999C50.656 40.7984 50.8172 40.6093 51.1396 40.2327C51.9472 39.2841 52.3517 38.8098 52.5889 38.3138C53.136 37.1668 53.136 35.8338 52.5889 34.6868C52.3517 34.1908 51.9472 33.7165 51.1396 32.7679C50.919 32.5241 50.7125 32.2679 50.5212 32.0006C50.2115 31.5385 49.9965 31.0196 49.8888 30.4739C49.8355 30.1495 49.8003 29.8225 49.7834 29.4943C49.6842 28.2527 49.6346 27.6312 49.4517 27.1135C49.2427 26.5215 48.9038 25.9839 48.4599 25.54C48.016 25.0961 47.4784 24.7572 46.8864 24.5482C46.3687 24.3653 45.7472 24.3157 44.5056 24.2165C44.1774 24.1996 43.8503 24.1644 43.526 24.1111C42.9803 24.0034 42.4613 23.7884 41.9993 23.4787C41.7323 23.2869 41.4761 23.0805 41.232 22.8603C40.2834 22.0527 39.8091 21.6482 39.3131 21.411C38.7469 21.1404 38.1272 20.9999 37.4996 20.9999C36.872 20.9999 36.2524 21.1404 35.6861 21.411C35.1901 21.6482 34.7158 22.0527 33.7672 22.8603ZM43.4377 30.5638C43.6737 30.8003 43.8063 31.1208 43.8063 31.455C43.8063 31.7892 43.6737 32.1097 43.4377 32.3463L33.3456 42.4399C33.2306 42.5657 33.0913 42.667 32.9361 42.7375C32.7809 42.808 32.613 42.8464 32.4426 42.8502C32.2722 42.854 32.1027 42.8233 31.9445 42.7599C31.7863 42.6964 31.6425 42.6015 31.522 42.481C31.4014 42.3604 31.3066 42.2167 31.2431 42.0585C31.1797 41.9003 31.1489 41.7308 31.1528 41.5604C31.1566 41.39 31.195 41.2221 31.2655 41.0669C31.336 40.9117 31.4373 40.7724 31.5631 40.6574L41.6536 30.5653C41.8902 30.3293 42.2107 30.1967 42.5449 30.1967C42.879 30.1967 43.1996 30.3293 43.4361 30.5653L43.4377 30.5638ZM43.3865 40.7054C43.3865 41.1514 43.2093 41.5792 42.8939 41.8946C42.5785 42.21 42.1508 42.3872 41.7048 42.3872C41.2587 42.3872 40.831 42.21 40.5156 41.8946C40.2002 41.5792 40.023 41.1514 40.023 40.7054C40.023 40.2594 40.2002 39.8316 40.5156 39.5162C40.831 39.2008 41.2587 39.0237 41.7048 39.0237C42.1508 39.0237 42.5785 39.2008 42.8939 39.5162C43.2093 39.8316 43.3865 40.2594 43.3865 40.7054ZM33.296 33.9784C33.5169 33.9784 33.7355 33.9349 33.9396 33.8504C34.1436 33.7659 34.329 33.642 34.4852 33.4858C34.6414 33.3297 34.7652 33.1443 34.8497 32.9402C34.9343 32.7362 34.9778 32.5175 34.9778 32.2967C34.9778 32.0758 34.9343 31.8571 34.8497 31.6531C34.7652 31.4491 34.6414 31.2637 34.4852 31.1075C34.329 30.9513 34.1436 30.8274 33.9396 30.7429C33.7355 30.6584 33.5169 30.6149 33.296 30.6149C32.85 30.6149 32.4222 30.7921 32.1068 31.1075C31.7914 31.4229 31.6143 31.8506 31.6143 32.2967C31.6143 32.7427 31.7914 33.1705 32.1068 33.4858C32.4222 33.8012 32.85 33.9784 33.296 33.9784Z" fill="white"/>
<rect x="5.17481" y="5.15369" width="63.6925" height="63.6925" rx="31.8463" stroke="#054834" stroke-opacity="0.18" stroke-width="9.65039"/>
</svg>
