<svg width="37" height="29" viewBox="0 0 37 29" fill="none" xmlns="http://www.w3.org/2000/svg">
<path d="M29.9154 11.4418C29.5392 5.61695 25.4886 0 18.0595 0C11.2647 0 6.02483 5.0505 5.74733 11.7907C2.02971 12.9474 0 16.9257 0 19.8214C0 24.2799 3.70529 28.1905 7.92857 28.1905H13.6548C13.7716 28.1905 13.8836 28.1441 13.9662 28.0615C14.0488 27.9789 14.0952 27.8668 14.0952 27.75C14.0952 27.6332 14.0488 27.5211 13.9662 27.4385C13.8836 27.3559 13.7716 27.3095 13.6548 27.3095H7.92857C4.17395 27.3095 0.880952 23.8104 0.880952 19.8214C0.880952 17.1336 3.23662 12.3333 7.92857 12.3333H9.25C9.36682 12.3333 9.47886 12.2869 9.56146 12.2043C9.64407 12.1217 9.69048 12.0097 9.69048 11.8929C9.69048 11.776 9.64407 11.664 9.56146 11.5814C9.47886 11.4988 9.36682 11.4524 9.25 11.4524H7.92857C7.48017 11.4524 7.05643 11.5026 6.64326 11.5748C6.9886 6.29793 10.9996 0.880952 18.0595 0.880952C25.6251 0.880952 29.0714 6.81769 29.0714 12.3333V13.6548C29.0714 13.7716 29.1178 13.8836 29.2004 13.9662C29.283 14.0488 29.3951 14.0952 29.5119 14.0952C29.6287 14.0952 29.7408 14.0488 29.8234 13.9662C29.906 13.8836 29.9524 13.7716 29.9524 13.6548V12.3254C32.612 12.617 36.119 15.4713 36.119 19.8214C36.119 23.192 32.8675 27.3095 29.0714 27.3095H22.4643C19.6118 27.3095 18.5 26.1978 18.5 23.3452V11.2612L22.0925 14.8467C22.1331 14.8888 22.1817 14.9224 22.2354 14.9456C22.2891 14.9688 22.3468 14.981 22.4053 14.9816C22.4638 14.9822 22.5218 14.9711 22.576 14.949C22.6302 14.927 22.6794 14.8943 22.7208 14.853C22.7622 14.8117 22.795 14.7626 22.8172 14.7085C22.8394 14.6544 22.8507 14.5964 22.8502 14.5379C22.8498 14.4794 22.8377 14.4216 22.8147 14.3679C22.7917 14.3141 22.7582 14.2654 22.7162 14.2247L18.7863 10.3027C18.263 9.78121 17.8569 9.78121 17.3345 10.3027L13.4046 14.2247C13.3243 14.3078 13.2799 14.4191 13.2809 14.5346C13.2819 14.6501 13.3283 14.7605 13.4099 14.8422C13.4916 14.9239 13.6021 14.9702 13.7176 14.9712C13.8331 14.9722 13.9443 14.9278 14.0274 14.8476L17.619 11.2612V23.3452C17.619 26.6964 19.1131 28.1905 22.4643 28.1905H29.0714C33.3414 28.1905 37 23.5884 37 19.8214C37 15.2695 33.2797 11.7096 29.9154 11.4418Z" fill="white"/>
</svg>
