<svg width="74" height="74" viewBox="0 0 74 74" fill="none" xmlns="http://www.w3.org/2000/svg">
<rect x="10" y="9.97888" width="54.0422" height="54.0422" rx="27.0211" fill="#054834"/>
<path fill-rule="evenodd" clip-rule="evenodd" d="M47.3579 37.3193C37.4148 37.3193 37.4148 43.241 37.4148 46.7258C37.4148 50.2106 40.6345 52.2813 42.2443 52.8811L26.3321 53.0964C23.5319 53.1343 21.2355 50.8865 21.2135 48.0861L21.0353 25.3902C21.0163 22.9712 22.9721 21 25.3912 21H43.0019C45.4077 21 47.3579 22.9503 47.3579 25.356V37.3193ZM27.1872 29.6804C26.3853 29.6804 25.7352 30.3305 25.7352 31.1324C25.7352 31.9344 26.3853 32.5844 27.1872 32.5844H41.7704C42.5723 32.5844 43.2224 31.9344 43.2224 31.1324C43.2224 30.3305 42.5723 29.6804 41.7704 29.6804H27.1872ZM25.7352 37.2562C25.7352 36.4543 26.3853 35.8042 27.1872 35.8042H38.6139C39.4158 35.8042 40.0659 36.4543 40.0659 37.2562C40.0659 38.0581 39.4158 38.7082 38.6139 38.7082H27.1872C26.3853 38.7082 25.7352 38.0581 25.7352 37.2562ZM27.1872 41.9279C26.3853 41.9279 25.7352 42.5779 25.7352 43.3799C25.7352 44.1818 26.3853 44.8319 27.1872 44.8319H35.4573C36.2593 44.8319 36.9094 44.1818 36.9094 43.3799C36.9094 42.5779 36.2593 41.9279 35.4573 41.9279H27.1872Z" fill="white"/>
<path fill-rule="evenodd" clip-rule="evenodd" d="M45 51C48.3137 51 51 48.3137 51 45C51 41.6863 48.3137 39 45 39C41.6863 39 39 41.6863 39 45C39 48.3137 41.6863 51 45 51ZM40.8613 45.3091L42.1534 43.3074C42.9087 43.6781 43.7845 44.8646 44.1279 45.4116C45.9273 43.4318 48.3319 42.4025 49.3092 42.1354C46.9181 43.7612 44.6711 46.8351 43.8465 48.1688C43.1544 46.4238 41.568 45.5353 40.8613 45.3091Z" fill="white"/>
<rect x="5.17481" y="5.15369" width="63.6925" height="63.6925" rx="31.8463" stroke="#054834" stroke-opacity="0.18" stroke-width="9.65039"/>
</svg>
