<svg width="74" height="74" viewBox="0 0 74 74" fill="none" xmlns="http://www.w3.org/2000/svg">
<g id="Featured icon">
<rect x="10" y="10" width="54.0422" height="54.0422" rx="27.0211" fill="#054834"/>
<path id="Vector" d="M38.2105 43.4157C38.2105 44.7273 38.4758 45.9652 38.9474 47.0999H24.9474C24.1657 47.0999 23.416 46.7894 22.8633 46.2367C22.3105 45.6839 22 44.9343 22 44.1526V26.4684C22 25.6867 22.3105 24.937 22.8633 24.3843C23.416 23.8315 24.1657 23.521 24.9474 23.521H48.5263C50.1621 23.521 51.4737 24.8326 51.4737 26.4684V34.5736C50.3389 34.102 49.101 33.8368 47.7895 33.8368H48.5263V29.4157H24.9474V33.8368H47.7895C45.249 33.8368 42.8125 34.846 41.0161 36.6424C39.2197 38.4388 38.2105 40.8752 38.2105 43.4157ZM47.0526 47.0999C46.0755 47.0999 45.1384 46.7118 44.4475 46.0209C43.7566 45.3299 43.3684 44.3928 43.3684 43.4157C43.3684 42.8263 43.5011 42.2663 43.7516 41.7652L42.1453 40.1589C41.5263 41.0873 41.1579 42.2073 41.1579 43.4157C41.1579 46.6726 43.7958 49.3105 47.0526 49.3105V51.521L50.3684 48.2052L47.0526 44.8894V47.0999ZM47.0526 37.521V35.3105L43.7368 38.6263L47.0526 41.942V39.7315C48.0297 39.7315 48.9668 40.1197 49.6578 40.8106C50.3487 41.5015 50.7368 42.4386 50.7368 43.4157C50.7368 44.0052 50.6042 44.5652 50.3537 45.0663L51.96 46.6726C52.5789 45.7442 52.9474 44.6242 52.9474 43.4157C52.9474 40.1589 50.3095 37.521 47.0526 37.521Z" fill="white"/>
<rect x="5.17481" y="5.17481" width="63.6925" height="63.6925" rx="31.8463" stroke="#054834" stroke-opacity="0.18" stroke-width="9.65039"/>
</g>
</svg>
