<svg width="42" height="42" viewBox="0 0 42 42" fill="none" xmlns="http://www.w3.org/2000/svg">
<rect width="42" height="42" rx="21" fill="#07956A"/>
<path d="M34.4081 20.5919C31.5126 15.2391 26.4348 12 20.8158 12C15.1967 12 10.1103 15.2391 7.24057 20.5919L7 20.9957L7.22339 21.4081C10.1189 26.7609 15.1967 30 20.8158 30C26.4348 30 31.5212 26.8038 34.4081 21.4081L34.6315 20.9957L34.4081 20.5919ZM20.8158 28.2387C15.9785 28.2387 11.5365 25.5408 8.95895 20.9957C11.5365 16.4506 15.9785 13.7527 20.8158 13.7527C25.653 13.7527 30.0434 16.4592 32.664 20.9957C30.0434 25.5408 25.6444 28.2387 20.8158 28.2387Z" fill="white"/>
<path d="M21.0659 15.1274C19.9009 15.1359 18.7646 15.4894 17.8005 16.1433C16.8363 16.7973 16.0876 17.7222 15.6488 18.8015C15.2101 19.8807 15.101 21.0657 15.3353 22.2069C15.5697 23.348 16.137 24.3942 16.9655 25.2131C17.7941 26.0321 18.8467 26.5872 19.9906 26.8082C21.1344 27.0292 22.3181 26.9064 23.3921 26.4551C24.4661 26.0038 25.3823 25.2443 26.025 24.2726C26.6676 23.3009 27.0079 22.1606 27.0029 20.9956C26.9995 20.2201 26.8431 19.453 26.5427 18.738C26.2423 18.0231 25.8038 17.3745 25.2523 16.8293C24.7007 16.2842 24.047 15.8532 23.3287 15.5612C22.6103 15.2691 21.8413 15.1217 21.0659 15.1274ZM21.0659 25.197C20.243 25.1886 19.4409 24.9371 18.7605 24.4743C18.0801 24.0115 17.5515 23.3579 17.2413 22.5957C16.9311 21.8335 16.853 20.9966 17.0169 20.1902C17.1807 19.3837 17.5792 18.6437 18.1623 18.063C18.7454 17.4822 19.4871 17.0868 20.2942 16.9262C21.1013 16.7656 21.9378 16.8471 22.6988 17.1605C23.4597 17.4738 24.1111 18.005 24.5712 18.6873C25.0312 19.3696 25.2794 20.1727 25.2845 20.9956C25.2868 21.5494 25.1791 22.0982 24.9677 22.6101C24.7563 23.122 24.4454 23.5869 24.0529 23.9777C23.6605 24.3685 23.1944 24.6775 22.6817 24.8868C22.1689 25.0962 21.6197 25.2016 21.0659 25.197Z" fill="white"/>
</svg>
