<svg width="42" height="42" viewBox="0 0 42 42" fill="none" xmlns="http://www.w3.org/2000/svg">
<rect width="42" height="42" rx="21" fill="#07956A"/>
<path fill-rule="evenodd" clip-rule="evenodd" d="M21.7209 12.3998C21.3144 12.3309 20.7594 12.3256 19.7591 12.3256C18.065 12.3256 16.8605 12.3273 15.9485 12.4493C15.0541 12.5686 14.5407 12.794 14.1669 13.1669C13.7931 13.5407 13.5686 14.0533 13.4493 14.9423C13.3273 15.8507 13.3256 17.0473 13.3256 18.7334V22.2683C13.3256 23.9527 13.3273 25.1493 13.4493 26.0577C13.5686 26.9467 13.7931 27.4593 14.1669 27.834C14.5407 28.2069 15.0533 28.4314 15.9423 28.5507C16.8507 28.6735 18.0473 28.6744 19.7326 28.6744H23.2674C24.9527 28.6744 26.1501 28.6727 27.0586 28.5507C27.9467 28.4314 28.4593 28.2069 28.8331 27.8331C29.2069 27.4593 29.4314 26.9467 29.5507 26.0577C29.6727 25.1501 29.6744 23.9527 29.6744 22.2674V21.8813C29.6744 20.5239 29.6656 19.8805 29.5207 19.3953H26.7546C25.7533 19.3953 24.9359 19.3953 24.289 19.3087C23.6147 19.2177 23.0297 19.0215 22.5622 18.554C22.0947 18.0866 21.8986 17.5024 21.8075 16.8264C21.7209 16.1813 21.7209 15.3629 21.7209 14.3608V12.3998ZM23.0465 13.0856V14.314C23.0465 15.3744 23.0483 16.1026 23.1216 16.6496C23.1923 17.1781 23.3196 17.437 23.4999 17.6164C23.6793 17.7967 23.9382 17.924 24.4667 17.9947C25.0137 18.068 25.7419 18.0698 26.8023 18.0698H28.5874C28.2483 17.7469 27.9036 17.4298 27.5535 17.1189L24.0548 13.9702C23.7248 13.6685 23.3886 13.3736 23.0465 13.0856ZM19.8872 11C21.1112 11 21.9021 11 22.6294 11.2784C23.3567 11.5576 23.9417 12.0843 24.8475 12.9L24.9421 12.9848L28.4399 16.1335L28.5503 16.2325C29.5967 17.1737 30.2736 17.7826 30.6368 18.5991C31.0009 19.4157 31.0009 20.3259 31 21.7328V22.3169C31 23.9412 31 25.2279 30.8648 26.2345C30.7252 27.2702 30.4318 28.1088 29.7707 28.7707C29.1088 29.4318 28.2702 29.7252 27.2345 29.8648C26.227 30 24.9412 30 23.3169 30H19.6831C18.0588 30 16.7721 30 15.7655 29.8648C14.7298 29.7252 13.8912 29.4318 13.2293 28.7707C12.5682 28.1088 12.2748 27.2702 12.1352 26.2345C12 25.227 12 23.9412 12 22.3169V18.6831C12 17.0588 12 15.7721 12.1352 14.7655C12.2748 13.7298 12.5682 12.8912 13.2293 12.2293C13.892 11.5673 14.7325 11.2748 15.7726 11.1352C16.7836 11 18.0765 11 19.7096 11H19.8872Z" fill="white"/>
</svg>
