<svg width="74" height="74" viewBox="0 0 74 74" fill="none" xmlns="http://www.w3.org/2000/svg">
<rect x="10" y="9.97888" width="54.0422" height="54.0422" rx="27.0211" fill="#054834"/>
<path fill-rule="evenodd" clip-rule="evenodd" d="M27.9808 19H46.2404C48.4389 19 50.2212 20.7823 50.2212 22.9808V40.4264C50.2212 40.8838 49.8652 41.2622 49.4087 41.2901L40.75 41.8203C38.9238 41.9321 37.5 43.4457 37.5 45.2753V51.7115C37.5 52.5718 36.8026 53.2692 35.9423 53.2692H27.9808C25.7823 53.2692 24 51.487 24 49.2885V22.9808C24 20.7822 25.7823 19 27.9808 19ZM32.0387 23.379C32.541 23.2264 33.0843 23.4237 33.3745 23.859L38.5803 31.6621H40.7199V24.5176C40.7199 23.859 41.252 23.3269 41.9106 23.3269C42.5693 23.3269 43.1014 23.859 43.1014 24.5176V31.6621H44.2921C44.9507 31.6621 45.4828 32.1942 45.4828 32.8528C45.4828 33.5114 44.9507 34.0436 44.2921 34.0436H43.1014V38.8102C43.1014 39.3349 42.759 39.7963 42.2567 39.9489C41.7543 40.1014 41.2111 39.9042 40.9208 39.4689L37.304 34.0436H33.5755V38.8065C33.5755 39.4651 33.0433 39.9972 32.3847 39.9972C31.7261 39.9972 31.194 39.4651 31.194 38.8065V34.0436H30.0032C29.3446 34.0436 28.8125 33.5114 28.8125 32.8528C28.8125 32.1942 29.3446 31.6621 30.0032 31.6621H31.194V24.5176C31.194 23.993 31.5363 23.5316 32.0387 23.379ZM40.7199 34.0436H40.1654L40.7199 34.8733V34.0436ZM33.5755 31.6621H35.7151L33.5755 28.4508V31.6621Z" fill="white"/>
<path d="M48.5242 43.1344L41.7331 43.3792C40.3366 43.4295 39.2305 44.5762 39.2305 45.9737V52.8432C39.2305 53.6235 40.1819 54.0053 40.7212 53.4414L49.1807 44.5974C49.7176 44.0361 49.3004 43.1064 48.5242 43.1344Z" fill="white"/>
<rect x="5.17481" y="5.15369" width="63.6925" height="63.6925" rx="31.8463" stroke="#054834" stroke-opacity="0.18" stroke-width="9.65039"/>
</svg>
