<svg width="51" height="51" viewBox="0 0 51 51" fill="none" xmlns="http://www.w3.org/2000/svg">
<rect x="7" y="6.97217" width="37.0556" height="37.0556" rx="18.5278" fill="#054834"/>
<path d="M17.1531 18.5892C17.1531 17.9527 17.4059 17.3423 17.856 16.8922C18.306 16.4422 18.9165 16.1893 19.5529 16.1893H26.7526C27.3891 16.1893 27.9995 16.4422 28.4495 16.8922C28.8996 17.3423 29.1524 17.9527 29.1524 18.5892V28.1887C29.7889 28.1887 30.3993 28.4416 30.8494 28.8916C31.2995 29.3417 31.5523 29.9521 31.5523 30.5886V31.1886C31.5523 31.3477 31.6155 31.5003 31.728 31.6128C31.8406 31.7253 31.9932 31.7885 32.1523 31.7885C32.3114 31.7885 32.464 31.7253 32.5765 31.6128C32.689 31.5003 32.7523 31.3477 32.7523 31.1886V25.7888H32.1523C31.9932 25.7888 31.8406 25.7256 31.728 25.6131C31.6155 25.5006 31.5523 25.348 31.5523 25.1889V21.4391C31.5523 21.2799 31.6155 21.1273 31.728 21.0148C31.8406 20.9023 31.9932 20.8391 32.1523 20.8391H33.9462C33.933 20.2679 33.8826 19.7663 33.705 19.3728C33.6099 19.1439 33.4443 18.9514 33.2322 18.8232C33.0114 18.6912 32.6755 18.5892 32.1523 18.5892C31.9932 18.5892 31.8406 18.526 31.728 18.4135C31.6155 18.301 31.5523 18.1484 31.5523 17.9892C31.5523 17.8301 31.6155 17.6775 31.728 17.565C31.8406 17.4525 31.9932 17.3893 32.1523 17.3893C32.8291 17.3893 33.393 17.5213 33.8466 17.7924C34.3062 18.066 34.6074 18.4536 34.7994 18.8808C35.1533 19.6668 35.1521 20.6387 35.1521 21.3779V25.1889C35.1521 25.348 35.0889 25.5006 34.9764 25.6131C34.8639 25.7256 34.7113 25.7888 34.5522 25.7888H33.9522V31.1886C33.9522 31.6659 33.7626 32.1237 33.425 32.4613C33.0875 32.7988 32.6297 32.9885 32.1523 32.9885C31.6749 32.9885 31.2171 32.7988 30.8796 32.4613C30.542 32.1237 30.3524 31.6659 30.3524 31.1886V30.5886C30.3524 30.2703 30.226 29.9651 30.0009 29.7401C29.7759 29.5151 29.4707 29.3886 29.1524 29.3886V34.1884H29.7524C29.9115 34.1884 30.0641 34.2516 30.1767 34.3641C30.2892 34.4766 30.3524 34.6292 30.3524 34.7884C30.3524 34.9475 30.2892 35.1001 30.1767 35.2126C30.0641 35.3251 29.9115 35.3883 29.7524 35.3883H16.5531C16.394 35.3883 16.2414 35.3251 16.1289 35.2126C16.0163 35.1001 15.9531 34.9475 15.9531 34.7884C15.9531 34.6292 16.0163 34.4766 16.1289 34.3641C16.2414 34.2516 16.394 34.1884 16.5531 34.1884H17.1531V18.5892ZM20.1529 18.5892C19.9938 18.5892 19.8412 18.6524 19.7287 18.7649C19.6162 18.8775 19.5529 19.0301 19.5529 19.1892V25.1889C19.5529 25.348 19.6162 25.5006 19.7287 25.6131C19.8412 25.7256 19.9938 25.7888 20.1529 25.7888H26.1526C26.3117 25.7888 26.4643 25.7256 26.5768 25.6131C26.6894 25.5006 26.7526 25.348 26.7526 25.1889V19.1892C26.7526 19.0301 26.6894 18.8775 26.5768 18.7649C26.4643 18.6524 26.3117 18.5892 26.1526 18.5892H20.1529Z" fill="white"/>
<rect x="3.69147" y="3.66364" width="43.6726" height="43.6726" rx="21.8363" stroke="#054834" stroke-opacity="0.18" stroke-width="6.61707"/>
</svg>
