<svg width="76" height="76" viewBox="0 0 76 76" fill="none" xmlns="http://www.w3.org/2000/svg">
<g filter="url(#filter0_d_3969_13349)">
<rect x="9" y="9" width="58" height="58" rx="29" fill="#054834"/>
<path d="M38.3788 36.0804C33.895 36.0804 32.9864 29.2856 32.9864 29.2856C32.4531 25.75 34.0728 21.76 38.3196 21.76C42.5861 21.76 44.2057 25.75 43.6724 29.2856C43.6724 29.2856 42.8626 36.0804 38.3788 36.0804ZM38.3788 41.1568L43.7514 37.5619C48.4722 37.5619 52.6795 42.1642 52.6795 46.5097V51.428C52.6795 51.428 45.4699 53.66 38.3788 53.66C31.1692 53.66 24.0781 51.428 24.0781 51.428V46.5097C24.0781 42.0654 27.9101 37.6606 32.9074 37.6606L38.3788 41.1568Z" fill="white"/>
</g>
<defs>
<filter id="filter0_d_3969_13349" x="0.908999" y="0.908999" width="74.182" height="74.182" filterUnits="userSpaceOnUse" color-interpolation-filters="sRGB">
<feFlood flood-opacity="0" result="BackgroundImageFix"/>
<feColorMatrix in="SourceAlpha" type="matrix" values="0 0 0 0 0 0 0 0 0 0 0 0 0 0 0 0 0 0 127 0" result="hardAlpha"/>
<feMorphology radius="8.091" operator="dilate" in="SourceAlpha" result="effect1_dropShadow_3969_13349"/>
<feOffset/>
<feComposite in2="hardAlpha" operator="out"/>
<feColorMatrix type="matrix" values="0 0 0 0 0.796078 0 0 0 0 0.870588 0 0 0 0 0.854902 0 0 0 1 0"/>
<feBlend mode="normal" in2="BackgroundImageFix" result="effect1_dropShadow_3969_13349"/>
<feBlend mode="normal" in="SourceGraphic" in2="effect1_dropShadow_3969_13349" result="shape"/>
</filter>
</defs>
</svg>
