<svg width="45" height="45" viewBox="0 0 45 45" fill="none" xmlns="http://www.w3.org/2000/svg">
<rect width="45" height="45" rx="22.5" fill="#DF0505"/>
<path d="M11 14.4286C11 13.5193 11.3612 12.6472 12.0042 12.0042C12.6472 11.3612 13.5193 11 14.4286 11H26.4286C27.3379 11 28.21 11.3612 28.8529 12.0042C29.4959 12.6472 29.8571 13.5193 29.8571 14.4286V26.4286H35V29.8571C35 31.2211 34.4582 32.5292 33.4937 33.4937C32.5292 34.4582 31.2211 35 29.8571 35H16.1429C14.7789 35 13.4708 34.4582 12.5063 33.4937C11.5418 32.5292 11 31.2211 11 29.8571V14.4286ZM29.8571 28.1429V33.2857C30.7665 33.2857 31.6385 32.9245 32.2815 32.2815C32.9245 31.6385 33.2857 30.7665 33.2857 29.8571V28.1429H29.8571ZM28.1429 33.2857V14.4286C28.1429 13.9739 27.9622 13.5379 27.6408 13.2164C27.3193 12.8949 26.8832 12.7143 26.4286 12.7143H14.4286C13.9739 12.7143 13.5379 12.8949 13.2164 13.2164C12.8949 13.5379 12.7143 13.9739 12.7143 14.4286V29.8571C12.7143 30.7665 13.0755 31.6385 13.7185 32.2815C14.3615 32.9245 15.2335 33.2857 16.1429 33.2857H28.1429ZM16.1429 17C16.1429 16.7727 16.2332 16.5547 16.3939 16.3939C16.5547 16.2332 16.7727 16.1429 17 16.1429H23.8571C24.0845 16.1429 24.3025 16.2332 24.4632 16.3939C24.624 16.5547 24.7143 16.7727 24.7143 17C24.7143 17.2273 24.624 17.4453 24.4632 17.6061C24.3025 17.7668 24.0845 17.8571 23.8571 17.8571H17C16.7727 17.8571 16.5547 17.7668 16.3939 17.6061C16.2332 17.4453 16.1429 17.2273 16.1429 17ZM16.1429 22.1429C16.1429 21.9155 16.2332 21.6975 16.3939 21.5368C16.5547 21.376 16.7727 21.2857 17 21.2857H23.8571C24.0845 21.2857 24.3025 21.376 24.4632 21.5368C24.624 21.6975 24.7143 21.9155 24.7143 22.1429C24.7143 22.3702 24.624 22.5882 24.4632 22.7489C24.3025 22.9097 24.0845 23 23.8571 23H17C16.7727 23 16.5547 22.9097 16.3939 22.7489C16.2332 22.5882 16.1429 22.3702 16.1429 22.1429ZM16.1429 27.2857C16.1429 27.0584 16.2332 26.8404 16.3939 26.6796C16.5547 26.5189 16.7727 26.4286 17 26.4286H20.4286C20.6559 26.4286 20.8739 26.5189 21.0347 26.6796C21.1954 26.8404 21.2857 27.0584 21.2857 27.2857C21.2857 27.513 21.1954 27.7311 21.0347 27.8918C20.8739 28.0526 20.6559 28.1429 20.4286 28.1429H17C16.7727 28.1429 16.5547 28.0526 16.3939 27.8918C16.2332 27.7311 16.1429 27.513 16.1429 27.2857Z" fill="white"/>
</svg>
